G04 #@! TF.GenerationSoftware,KiCad,Pcbnew,(5.99.0-6591-gee6c8b60ac)*
G04 #@! TF.CreationDate,2020-11-10T06:43:54+01:00*
G04 #@! TF.ProjectId,QFHBAL01,51464842-414c-4303-912e-6b696361645f,rev?*
G04 #@! TF.SameCoordinates,Original*
G04 #@! TF.FileFunction,Copper,L1,Top*
G04 #@! TF.FilePolarity,Positive*
%FSLAX46Y46*%
G04 Gerber Fmt 4.6, Leading zero omitted, Abs format (unit mm)*
G04 Created by KiCad (PCBNEW (5.99.0-6591-gee6c8b60ac)) date 2020-11-10 06:43:54*
%MOMM*%
%LPD*%
G01*
G04 APERTURE LIST*
G04 Aperture macros list*
%AMHorizOval*
0 Thick line with rounded ends*
0 $1 width*
0 $2 $3 position (X,Y) of the first rounded end (center of the circle)*
0 $4 $5 position (X,Y) of the second rounded end (center of the circle)*
0 Add line between two ends*
20,1,$1,$2,$3,$4,$5,0*
0 Add two circle primitives to create the rounded ends*
1,1,$1,$2,$3,0*
1,1,$1,$4,$5,0*%
G04 Aperture macros list end*
G04 #@! TA.AperFunction,SMDPad,CuDef*
%ADD10R,1.400000X0.760000*%
G04 #@! TD*
G04 #@! TA.AperFunction,ComponentPad*
%ADD11C,2.050000*%
G04 #@! TD*
G04 #@! TA.AperFunction,ComponentPad*
%ADD12C,2.250000*%
G04 #@! TD*
G04 #@! TA.AperFunction,ComponentPad*
%ADD13HorizOval,3.000000X-2.474874X2.474874X2.474874X-2.474874X0*%
G04 #@! TD*
G04 #@! TA.AperFunction,ComponentPad*
%ADD14HorizOval,3.000000X-2.474874X-2.474874X2.474874X2.474874X0*%
G04 #@! TD*
G04 #@! TA.AperFunction,ComponentPad*
%ADD15HorizOval,3.000000X2.474874X2.474874X-2.474874X-2.474874X0*%
G04 #@! TD*
G04 #@! TA.AperFunction,ViaPad*
%ADD16C,0.800000*%
G04 #@! TD*
G04 #@! TA.AperFunction,Conductor*
%ADD17C,2.100000*%
G04 #@! TD*
G04 #@! TA.AperFunction,Conductor*
%ADD18C,0.861000*%
G04 #@! TD*
G04 #@! TA.AperFunction,Conductor*
%ADD19C,0.500000*%
G04 #@! TD*
G04 APERTURE END LIST*
D10*
X149885000Y-88630000D03*
X149885000Y-91170000D03*
X153315000Y-91170000D03*
X153315000Y-89900000D03*
X153315000Y-88630000D03*
D11*
X160800000Y-89900000D03*
D12*
X163340000Y-87360000D03*
X163340000Y-92440000D03*
X158260000Y-87360000D03*
X158260000Y-92440000D03*
D13*
X143095837Y-81995837D03*
X156904163Y-97804163D03*
D14*
X143095837Y-97804163D03*
D15*
X156904163Y-81995837D03*
D16*
X156057600Y-92354400D03*
X156400000Y-91200000D03*
X160782000Y-87274400D03*
X155000000Y-91200000D03*
X163169600Y-89814400D03*
X160832800Y-92506800D03*
X155600400Y-87731600D03*
X151500000Y-87000000D03*
X149758400Y-88747600D03*
X160242000Y-79584800D03*
X141713200Y-81616800D03*
X142713200Y-82616800D03*
X143627600Y-81651600D03*
X142627600Y-80651600D03*
X148000000Y-87000000D03*
X157242000Y-82584800D03*
X155327600Y-82670400D03*
X141627600Y-79651600D03*
X140627600Y-78651600D03*
X139713200Y-79616800D03*
X158242000Y-81584800D03*
X159242000Y-80584800D03*
X144627600Y-82651600D03*
X159327600Y-78670400D03*
X156327600Y-81670400D03*
X158327600Y-79670400D03*
X157327600Y-80670400D03*
X156242000Y-83584800D03*
X143713200Y-83616800D03*
X140713200Y-80616800D03*
X143798800Y-96180400D03*
X157121600Y-97177600D03*
X140713200Y-101094800D03*
X159121600Y-99177600D03*
X141798800Y-98180400D03*
X158121600Y-98177600D03*
X142798800Y-97180400D03*
X140798800Y-99180400D03*
X148000000Y-93000000D03*
X156121600Y-96177600D03*
X157308800Y-99142800D03*
X141713200Y-100094800D03*
X156308800Y-98142800D03*
X149860000Y-92202000D03*
X155308800Y-97142800D03*
X158308800Y-100142800D03*
X160121600Y-100177600D03*
X142713200Y-99094800D03*
X144713200Y-97094800D03*
X139798800Y-100180400D03*
X151857500Y-93142500D03*
X159308800Y-101142800D03*
X143713200Y-98094800D03*
X154800000Y-88630006D03*
D17*
X145500000Y-84400000D02*
X149730000Y-88630000D01*
X154115000Y-84400000D02*
X149885000Y-88630000D01*
X149885000Y-88630000D02*
X149730000Y-88630000D01*
X145655000Y-95400000D02*
X149885000Y-91170000D01*
X151857500Y-93142500D02*
X149885000Y-91170000D01*
X154115000Y-95400000D02*
X151857500Y-93142500D01*
D18*
X153315006Y-88630006D02*
X153315000Y-88630000D01*
X154800000Y-88630006D02*
X153315006Y-88630006D01*
X160800000Y-89900000D02*
X156069994Y-89900000D01*
D19*
X154234315Y-88630006D02*
X154800000Y-88630006D01*
D18*
X156069994Y-89900000D02*
X154800000Y-88630006D01*
D19*
X153215006Y-88630006D02*
X154234315Y-88630006D01*
G04 #@! TA.AperFunction,Conductor*
G36*
X164883022Y-85420002D02*
G01*
X164936050Y-85491375D01*
X165107066Y-86089748D01*
X165108663Y-86095922D01*
X165233602Y-86634945D01*
X165236856Y-86663396D01*
X165236856Y-93343076D01*
X165233400Y-93372383D01*
X165102789Y-93918520D01*
X165081045Y-94009439D01*
X165079409Y-94015591D01*
X165053910Y-94102509D01*
X164993194Y-94309470D01*
X164954824Y-94369205D01*
X164872289Y-94400000D01*
X157448712Y-94400000D01*
X157363955Y-94367232D01*
X156760748Y-93818862D01*
X156488810Y-93571645D01*
X157486835Y-93571645D01*
X157497380Y-93584643D01*
X157618272Y-93661215D01*
X157627718Y-93666132D01*
X157833209Y-93751881D01*
X157843348Y-93755137D01*
X158060353Y-93805037D01*
X158070887Y-93806536D01*
X158293198Y-93819159D01*
X158303841Y-93818862D01*
X158525106Y-93793847D01*
X158535525Y-93791766D01*
X158749425Y-93729824D01*
X158759350Y-93726014D01*
X158959750Y-93628921D01*
X158968888Y-93623495D01*
X159024751Y-93583576D01*
X159033154Y-93572853D01*
X159032512Y-93571645D01*
X162566835Y-93571645D01*
X162577380Y-93584643D01*
X162698272Y-93661215D01*
X162707718Y-93666132D01*
X162913209Y-93751881D01*
X162923348Y-93755137D01*
X163140353Y-93805037D01*
X163150887Y-93806536D01*
X163373198Y-93819159D01*
X163383841Y-93818862D01*
X163605106Y-93793847D01*
X163615525Y-93791766D01*
X163829425Y-93729824D01*
X163839350Y-93726014D01*
X164039750Y-93628921D01*
X164048888Y-93623495D01*
X164104751Y-93583576D01*
X164113154Y-93572853D01*
X164106175Y-93559728D01*
X163352812Y-92806365D01*
X163338868Y-92798751D01*
X163337035Y-92798882D01*
X163330420Y-92803133D01*
X162572762Y-93560791D01*
X162566835Y-93571645D01*
X159032512Y-93571645D01*
X159026175Y-93559728D01*
X158272812Y-92806365D01*
X158258868Y-92798751D01*
X158257035Y-92798882D01*
X158250420Y-92803133D01*
X157492762Y-93560791D01*
X157486835Y-93571645D01*
X156488810Y-93571645D01*
X155351941Y-92538128D01*
X156883936Y-92538128D01*
X156884734Y-92548743D01*
X156920143Y-92768583D01*
X156922717Y-92778905D01*
X156994662Y-92989639D01*
X156998936Y-92999375D01*
X157105359Y-93194974D01*
X157111215Y-93203855D01*
X157113831Y-93207174D01*
X157125755Y-93215645D01*
X157137288Y-93209159D01*
X157893635Y-92452812D01*
X157900012Y-92441132D01*
X158618751Y-92441132D01*
X158618882Y-92442965D01*
X158623133Y-92449580D01*
X159380114Y-93206561D01*
X159391906Y-93213000D01*
X159403900Y-93203730D01*
X159449635Y-93138536D01*
X159454984Y-93129345D01*
X159550321Y-92928112D01*
X159554049Y-92918143D01*
X159614117Y-92703722D01*
X159616109Y-92693280D01*
X159632279Y-92538128D01*
X161963936Y-92538128D01*
X161964734Y-92548743D01*
X162000143Y-92768583D01*
X162002717Y-92778905D01*
X162074662Y-92989639D01*
X162078936Y-92999375D01*
X162185359Y-93194974D01*
X162191215Y-93203855D01*
X162193831Y-93207174D01*
X162205755Y-93215645D01*
X162217288Y-93209159D01*
X162973635Y-92452812D01*
X162980012Y-92441132D01*
X163698751Y-92441132D01*
X163698882Y-92442965D01*
X163703133Y-92449580D01*
X164460114Y-93206561D01*
X164471906Y-93213000D01*
X164483900Y-93203730D01*
X164529635Y-93138536D01*
X164534984Y-93129345D01*
X164630321Y-92928112D01*
X164634049Y-92918143D01*
X164694117Y-92703722D01*
X164696109Y-92693280D01*
X164719439Y-92469440D01*
X164719774Y-92463527D01*
X164719972Y-92442963D01*
X164719750Y-92437052D01*
X164700722Y-92212805D01*
X164698930Y-92202317D01*
X164642987Y-91986781D01*
X164639455Y-91976753D01*
X164548001Y-91773730D01*
X164542821Y-91764424D01*
X164483052Y-91675646D01*
X164473045Y-91667342D01*
X164458984Y-91674569D01*
X163706365Y-92427188D01*
X163698751Y-92441132D01*
X162980012Y-92441132D01*
X162981249Y-92438868D01*
X162981118Y-92437035D01*
X162976867Y-92430420D01*
X162216464Y-91670017D01*
X162203281Y-91662818D01*
X162198032Y-91666569D01*
X162089910Y-91856513D01*
X162085445Y-91866177D01*
X162009469Y-92075488D01*
X162006698Y-92085756D01*
X161967074Y-92304877D01*
X161966073Y-92315471D01*
X161963936Y-92538128D01*
X159632279Y-92538128D01*
X159639439Y-92469440D01*
X159639774Y-92463527D01*
X159639972Y-92442963D01*
X159639750Y-92437052D01*
X159620722Y-92212805D01*
X159618930Y-92202317D01*
X159562987Y-91986781D01*
X159559455Y-91976753D01*
X159468001Y-91773730D01*
X159462821Y-91764424D01*
X159403052Y-91675646D01*
X159393045Y-91667342D01*
X159378984Y-91674569D01*
X158626365Y-92427188D01*
X158618751Y-92441132D01*
X157900012Y-92441132D01*
X157901249Y-92438868D01*
X157901118Y-92437035D01*
X157896867Y-92430420D01*
X157136464Y-91670017D01*
X157123281Y-91662818D01*
X157118032Y-91666569D01*
X157009910Y-91856513D01*
X157005445Y-91866177D01*
X156929469Y-92075488D01*
X156926698Y-92085756D01*
X156887074Y-92304877D01*
X156886073Y-92315471D01*
X156883936Y-92538128D01*
X155351941Y-92538128D01*
X155200000Y-92400000D01*
X153006373Y-92400000D01*
X152917278Y-92363095D01*
X152817509Y-92263326D01*
X152817504Y-92263320D01*
X152574279Y-92020095D01*
X152540253Y-91957783D01*
X152545318Y-91886968D01*
X152587865Y-91830132D01*
X152663374Y-91805000D01*
X153046885Y-91805000D01*
X153062124Y-91800525D01*
X153063329Y-91799135D01*
X153065000Y-91791452D01*
X153065000Y-91438115D01*
X153063659Y-91433548D01*
X153565000Y-91433548D01*
X153565000Y-91786885D01*
X153569475Y-91802124D01*
X153570865Y-91803329D01*
X153578548Y-91805000D01*
X154008813Y-91805000D01*
X154021067Y-91803793D01*
X154100415Y-91788010D01*
X154122901Y-91778696D01*
X154184996Y-91737205D01*
X154202205Y-91719996D01*
X154243696Y-91657901D01*
X154253010Y-91635415D01*
X154268793Y-91556067D01*
X154270000Y-91543813D01*
X154270000Y-91438115D01*
X154265525Y-91422876D01*
X154264135Y-91421671D01*
X154256452Y-91420000D01*
X153583115Y-91420000D01*
X153567876Y-91424475D01*
X153566671Y-91425865D01*
X153565000Y-91433548D01*
X153063659Y-91433548D01*
X153060525Y-91422876D01*
X153059135Y-91421671D01*
X153051452Y-91420000D01*
X152378115Y-91420000D01*
X152362876Y-91424475D01*
X152361671Y-91425865D01*
X152360000Y-91433548D01*
X152360000Y-91501627D01*
X152339998Y-91569748D01*
X152286342Y-91616241D01*
X152216068Y-91626345D01*
X152144906Y-91590723D01*
X151859065Y-91304881D01*
X157486489Y-91304881D01*
X157494062Y-91320509D01*
X158247188Y-92073635D01*
X158261132Y-92081249D01*
X158262965Y-92081118D01*
X158269580Y-92076867D01*
X159027196Y-91319251D01*
X159033926Y-91306926D01*
X159032391Y-91304881D01*
X162566489Y-91304881D01*
X162574062Y-91320509D01*
X163327188Y-92073635D01*
X163341132Y-92081249D01*
X163342965Y-92081118D01*
X163349580Y-92076867D01*
X164107196Y-91319251D01*
X164113926Y-91306926D01*
X164105398Y-91295569D01*
X164071481Y-91270334D01*
X164062444Y-91264730D01*
X163863945Y-91163808D01*
X163854094Y-91159808D01*
X163641428Y-91093774D01*
X163631047Y-91091491D01*
X163410291Y-91062232D01*
X163399676Y-91061732D01*
X163177151Y-91070086D01*
X163166602Y-91071381D01*
X162948661Y-91117110D01*
X162938480Y-91120164D01*
X162731364Y-91201959D01*
X162721842Y-91206686D01*
X162574520Y-91296082D01*
X162566489Y-91304881D01*
X159032391Y-91304881D01*
X159025398Y-91295569D01*
X158991481Y-91270334D01*
X158982444Y-91264730D01*
X158783945Y-91163808D01*
X158774094Y-91159808D01*
X158561428Y-91093774D01*
X158551047Y-91091491D01*
X158330291Y-91062232D01*
X158319676Y-91061732D01*
X158097151Y-91070086D01*
X158086602Y-91071381D01*
X157868661Y-91117110D01*
X157858480Y-91120164D01*
X157651364Y-91201959D01*
X157641842Y-91206686D01*
X157494520Y-91296082D01*
X157486489Y-91304881D01*
X151859065Y-91304881D01*
X151636905Y-91082721D01*
X151600000Y-90993627D01*
X151600000Y-88806373D01*
X151636905Y-88717278D01*
X152144905Y-88209278D01*
X152207217Y-88175252D01*
X152278032Y-88180317D01*
X152334868Y-88222864D01*
X152360000Y-88298373D01*
X152360000Y-89010000D01*
X152379411Y-89107584D01*
X152386303Y-89117899D01*
X152386304Y-89117901D01*
X152434688Y-89190312D01*
X152432404Y-89191838D01*
X152457730Y-89238217D01*
X152452665Y-89309032D01*
X152433481Y-89338882D01*
X152434688Y-89339688D01*
X152386304Y-89412099D01*
X152386303Y-89412101D01*
X152379411Y-89422416D01*
X152376991Y-89434583D01*
X152376990Y-89434585D01*
X152372086Y-89459239D01*
X152360000Y-89520000D01*
X152360000Y-90280000D01*
X152379411Y-90377584D01*
X152386303Y-90387899D01*
X152386304Y-90387901D01*
X152434688Y-90460312D01*
X152432404Y-90461838D01*
X152457730Y-90508217D01*
X152452665Y-90579032D01*
X152433481Y-90608882D01*
X152434688Y-90609688D01*
X152386304Y-90682099D01*
X152376990Y-90704585D01*
X152361207Y-90783933D01*
X152360000Y-90796187D01*
X152360000Y-90901885D01*
X152364475Y-90917124D01*
X152365865Y-90918329D01*
X152373548Y-90920000D01*
X154251885Y-90920000D01*
X154267124Y-90915525D01*
X154268329Y-90914135D01*
X154270000Y-90906452D01*
X154270000Y-90796187D01*
X154268793Y-90783933D01*
X154253010Y-90704585D01*
X154243696Y-90682099D01*
X154195312Y-90609688D01*
X154197596Y-90608162D01*
X154172270Y-90561783D01*
X154177335Y-90490968D01*
X154196519Y-90461118D01*
X154195312Y-90460312D01*
X154243696Y-90387901D01*
X154243697Y-90387899D01*
X154250589Y-90377584D01*
X154270000Y-90280000D01*
X154270000Y-89520000D01*
X154258381Y-89461588D01*
X154264709Y-89390874D01*
X154308263Y-89334806D01*
X154381960Y-89311006D01*
X154465731Y-89311006D01*
X154554826Y-89347911D01*
X155568698Y-90361784D01*
X155574551Y-90368049D01*
X155610970Y-90409797D01*
X155661097Y-90445027D01*
X155666390Y-90448958D01*
X155714627Y-90486780D01*
X155721547Y-90489905D01*
X155726020Y-90492614D01*
X155734994Y-90497732D01*
X155739611Y-90500208D01*
X155745824Y-90504574D01*
X155752895Y-90507331D01*
X155752897Y-90507332D01*
X155802905Y-90526829D01*
X155808986Y-90529385D01*
X155864851Y-90554609D01*
X155872311Y-90555992D01*
X155877321Y-90557562D01*
X155887196Y-90560374D01*
X155892312Y-90561687D01*
X155899393Y-90564448D01*
X155960151Y-90572447D01*
X155966655Y-90573477D01*
X156026920Y-90584646D01*
X156034500Y-90584209D01*
X156034501Y-90584209D01*
X156086529Y-90581209D01*
X156093782Y-90581000D01*
X159650157Y-90581000D01*
X159718278Y-90601002D01*
X159747661Y-90627194D01*
X159881922Y-90791229D01*
X159881927Y-90791234D01*
X159885475Y-90795569D01*
X160058520Y-90943364D01*
X160063365Y-90946195D01*
X160250156Y-91055347D01*
X160250159Y-91055348D01*
X160255003Y-91058179D01*
X160260273Y-91060108D01*
X160260274Y-91060108D01*
X160463448Y-91134459D01*
X160463451Y-91134460D01*
X160468712Y-91136385D01*
X160474228Y-91137348D01*
X160474233Y-91137349D01*
X160625837Y-91163808D01*
X160692892Y-91175511D01*
X160698498Y-91175482D01*
X160698502Y-91175482D01*
X160803117Y-91174934D01*
X160920459Y-91174319D01*
X160977172Y-91163808D01*
X161032338Y-91153583D01*
X161144217Y-91132848D01*
X161177785Y-91120164D01*
X161331097Y-91062232D01*
X161357096Y-91052408D01*
X161552365Y-90935542D01*
X161723853Y-90785943D01*
X161851035Y-90627194D01*
X161862633Y-90612718D01*
X161862636Y-90612713D01*
X161866139Y-90608341D01*
X161909745Y-90528029D01*
X161972052Y-90413275D01*
X161972054Y-90413270D01*
X161974726Y-90408349D01*
X162046181Y-90192289D01*
X162078246Y-89966990D01*
X162080000Y-89900000D01*
X162059770Y-89673332D01*
X161999721Y-89453828D01*
X161984739Y-89422416D01*
X161904167Y-89253494D01*
X161904166Y-89253493D01*
X161901750Y-89248427D01*
X161898472Y-89243865D01*
X161772231Y-89068182D01*
X161772229Y-89068180D01*
X161768954Y-89063622D01*
X161605530Y-88905253D01*
X161482642Y-88822675D01*
X161421305Y-88781458D01*
X161421302Y-88781456D01*
X161416645Y-88778327D01*
X161208268Y-88686856D01*
X161202817Y-88685547D01*
X161202813Y-88685546D01*
X160992443Y-88635041D01*
X160992442Y-88635041D01*
X160986986Y-88633731D01*
X160901695Y-88628813D01*
X160765401Y-88620955D01*
X160765398Y-88620955D01*
X160759794Y-88620632D01*
X160533873Y-88647971D01*
X160316364Y-88714886D01*
X160311384Y-88717456D01*
X160311380Y-88717458D01*
X160187382Y-88781458D01*
X160114142Y-88819260D01*
X159933599Y-88957796D01*
X159929828Y-88961941D01*
X159929824Y-88961944D01*
X159833155Y-89068182D01*
X159780442Y-89126113D01*
X159759212Y-89159957D01*
X159706068Y-89207034D01*
X159652475Y-89219000D01*
X156404265Y-89219000D01*
X156315170Y-89182096D01*
X155624718Y-88491645D01*
X157486835Y-88491645D01*
X157497380Y-88504643D01*
X157618272Y-88581215D01*
X157627718Y-88586132D01*
X157833209Y-88671881D01*
X157843348Y-88675137D01*
X158060353Y-88725037D01*
X158070887Y-88726536D01*
X158293198Y-88739159D01*
X158303841Y-88738862D01*
X158525106Y-88713847D01*
X158535525Y-88711766D01*
X158749425Y-88649824D01*
X158759350Y-88646014D01*
X158959750Y-88548921D01*
X158968888Y-88543495D01*
X159024751Y-88503576D01*
X159033154Y-88492853D01*
X159032512Y-88491645D01*
X162566835Y-88491645D01*
X162577380Y-88504643D01*
X162698272Y-88581215D01*
X162707718Y-88586132D01*
X162913209Y-88671881D01*
X162923348Y-88675137D01*
X163140353Y-88725037D01*
X163150887Y-88726536D01*
X163373198Y-88739159D01*
X163383841Y-88738862D01*
X163605106Y-88713847D01*
X163615525Y-88711766D01*
X163829425Y-88649824D01*
X163839350Y-88646014D01*
X164039750Y-88548921D01*
X164048888Y-88543495D01*
X164104751Y-88503576D01*
X164113154Y-88492853D01*
X164106175Y-88479728D01*
X163352812Y-87726365D01*
X163338868Y-87718751D01*
X163337035Y-87718882D01*
X163330420Y-87723133D01*
X162572762Y-88480791D01*
X162566835Y-88491645D01*
X159032512Y-88491645D01*
X159026175Y-88479728D01*
X158272812Y-87726365D01*
X158258868Y-87718751D01*
X158257035Y-87718882D01*
X158250420Y-87723133D01*
X157492762Y-88480791D01*
X157486835Y-88491645D01*
X155624718Y-88491645D01*
X155301303Y-88168231D01*
X155295449Y-88161964D01*
X155287120Y-88152416D01*
X155259024Y-88120209D01*
X155208849Y-88084945D01*
X155203577Y-88081029D01*
X155161349Y-88047917D01*
X155161342Y-88047913D01*
X155155366Y-88043227D01*
X155148443Y-88040101D01*
X155143879Y-88037337D01*
X155135017Y-88032282D01*
X155130378Y-88029795D01*
X155124170Y-88025432D01*
X155095902Y-88014411D01*
X155067073Y-88003171D01*
X155060990Y-88000614D01*
X155024051Y-87983935D01*
X155005142Y-87975397D01*
X154997671Y-87974012D01*
X154992644Y-87972437D01*
X154982789Y-87969629D01*
X154977674Y-87968316D01*
X154970601Y-87965558D01*
X154909847Y-87957560D01*
X154903331Y-87956528D01*
X154850541Y-87946744D01*
X154843074Y-87945360D01*
X154835494Y-87945797D01*
X154835493Y-87945797D01*
X154783465Y-87948797D01*
X154776212Y-87949006D01*
X153389355Y-87949006D01*
X153366394Y-87946896D01*
X153358074Y-87945354D01*
X153350494Y-87945791D01*
X153350493Y-87945791D01*
X153298361Y-87948797D01*
X153291108Y-87949006D01*
X153273688Y-87949006D01*
X153269921Y-87949462D01*
X153269918Y-87949462D01*
X153258451Y-87950849D01*
X153250572Y-87951552D01*
X153218897Y-87953379D01*
X153193521Y-87954842D01*
X153183564Y-87957905D01*
X153161643Y-87962565D01*
X153158917Y-87962895D01*
X153151372Y-87963808D01*
X153098100Y-87983937D01*
X153090626Y-87986496D01*
X153081097Y-87989428D01*
X153044042Y-87995000D01*
X152663374Y-87995000D01*
X152595253Y-87974998D01*
X152548760Y-87921342D01*
X152538656Y-87851068D01*
X152574279Y-87779905D01*
X152896056Y-87458128D01*
X156883936Y-87458128D01*
X156884734Y-87468743D01*
X156920143Y-87688583D01*
X156922717Y-87698905D01*
X156994662Y-87909639D01*
X156998936Y-87919375D01*
X157105359Y-88114974D01*
X157111215Y-88123855D01*
X157113831Y-88127174D01*
X157125755Y-88135645D01*
X157137288Y-88129159D01*
X157893635Y-87372812D01*
X157900012Y-87361132D01*
X158618751Y-87361132D01*
X158618882Y-87362965D01*
X158623133Y-87369580D01*
X159380114Y-88126561D01*
X159391906Y-88133000D01*
X159403900Y-88123730D01*
X159449635Y-88058536D01*
X159454984Y-88049345D01*
X159550321Y-87848112D01*
X159554049Y-87838143D01*
X159614117Y-87623722D01*
X159616109Y-87613280D01*
X159632279Y-87458128D01*
X161963936Y-87458128D01*
X161964734Y-87468743D01*
X162000143Y-87688583D01*
X162002717Y-87698905D01*
X162074662Y-87909639D01*
X162078936Y-87919375D01*
X162185359Y-88114974D01*
X162191215Y-88123855D01*
X162193831Y-88127174D01*
X162205755Y-88135645D01*
X162217288Y-88129159D01*
X162973635Y-87372812D01*
X162980012Y-87361132D01*
X163698751Y-87361132D01*
X163698882Y-87362965D01*
X163703133Y-87369580D01*
X164460114Y-88126561D01*
X164471906Y-88133000D01*
X164483900Y-88123730D01*
X164529635Y-88058536D01*
X164534984Y-88049345D01*
X164630321Y-87848112D01*
X164634049Y-87838143D01*
X164694117Y-87623722D01*
X164696109Y-87613280D01*
X164719439Y-87389440D01*
X164719774Y-87383527D01*
X164719972Y-87362963D01*
X164719750Y-87357052D01*
X164700722Y-87132805D01*
X164698930Y-87122317D01*
X164642987Y-86906781D01*
X164639455Y-86896753D01*
X164548001Y-86693730D01*
X164542821Y-86684424D01*
X164483052Y-86595646D01*
X164473045Y-86587342D01*
X164458984Y-86594569D01*
X163706365Y-87347188D01*
X163698751Y-87361132D01*
X162980012Y-87361132D01*
X162981249Y-87358868D01*
X162981118Y-87357035D01*
X162976867Y-87350420D01*
X162216464Y-86590017D01*
X162203281Y-86582818D01*
X162198032Y-86586569D01*
X162089910Y-86776513D01*
X162085445Y-86786177D01*
X162009469Y-86995488D01*
X162006698Y-87005756D01*
X161967074Y-87224877D01*
X161966073Y-87235471D01*
X161963936Y-87458128D01*
X159632279Y-87458128D01*
X159639439Y-87389440D01*
X159639774Y-87383527D01*
X159639972Y-87362963D01*
X159639750Y-87357052D01*
X159620722Y-87132805D01*
X159618930Y-87122317D01*
X159562987Y-86906781D01*
X159559455Y-86896753D01*
X159468001Y-86693730D01*
X159462821Y-86684424D01*
X159403052Y-86595646D01*
X159393045Y-86587342D01*
X159378984Y-86594569D01*
X158626365Y-87347188D01*
X158618751Y-87361132D01*
X157900012Y-87361132D01*
X157901249Y-87358868D01*
X157901118Y-87357035D01*
X157896867Y-87350420D01*
X157136464Y-86590017D01*
X157123281Y-86582818D01*
X157118032Y-86586569D01*
X157009910Y-86776513D01*
X157005445Y-86786177D01*
X156929469Y-86995488D01*
X156926698Y-87005756D01*
X156887074Y-87224877D01*
X156886073Y-87235471D01*
X156883936Y-87458128D01*
X152896056Y-87458128D01*
X152917279Y-87436905D01*
X153006374Y-87400000D01*
X155200000Y-87400000D01*
X156492630Y-86224881D01*
X157486489Y-86224881D01*
X157494062Y-86240509D01*
X158247188Y-86993635D01*
X158261132Y-87001249D01*
X158262965Y-87001118D01*
X158269580Y-86996867D01*
X159027196Y-86239251D01*
X159033926Y-86226926D01*
X159032391Y-86224881D01*
X162566489Y-86224881D01*
X162574062Y-86240509D01*
X163327188Y-86993635D01*
X163341132Y-87001249D01*
X163342965Y-87001118D01*
X163349580Y-86996867D01*
X164107196Y-86239251D01*
X164113926Y-86226926D01*
X164105398Y-86215569D01*
X164071481Y-86190334D01*
X164062444Y-86184730D01*
X163863945Y-86083808D01*
X163854094Y-86079808D01*
X163641428Y-86013774D01*
X163631047Y-86011491D01*
X163410291Y-85982232D01*
X163399676Y-85981732D01*
X163177151Y-85990086D01*
X163166602Y-85991381D01*
X162948661Y-86037110D01*
X162938480Y-86040164D01*
X162731364Y-86121959D01*
X162721842Y-86126686D01*
X162574520Y-86216082D01*
X162566489Y-86224881D01*
X159032391Y-86224881D01*
X159025398Y-86215569D01*
X158991481Y-86190334D01*
X158982444Y-86184730D01*
X158783945Y-86083808D01*
X158774094Y-86079808D01*
X158561428Y-86013774D01*
X158551047Y-86011491D01*
X158330291Y-85982232D01*
X158319676Y-85981732D01*
X158097151Y-85990086D01*
X158086602Y-85991381D01*
X157868661Y-86037110D01*
X157858480Y-86040164D01*
X157651364Y-86121959D01*
X157641842Y-86126686D01*
X157494520Y-86216082D01*
X157486489Y-86224881D01*
X156492630Y-86224881D01*
X157363955Y-85432768D01*
X157448712Y-85400000D01*
X164814901Y-85400000D01*
X164883022Y-85420002D01*
G37*
G04 #@! TD.AperFunction*
M02*
