G04 #@! TF.GenerationSoftware,KiCad,Pcbnew,5.99.0-unknown-b32c2a6c9~106~ubuntu18.04.1*
G04 #@! TF.CreationDate,2020-11-24T15:56:37+01:00*
G04 #@! TF.ProjectId,QFHBAL01,51464842-414c-4303-912e-6b696361645f,rev?*
G04 #@! TF.SameCoordinates,Original*
G04 #@! TF.FileFunction,Other,Comment*
%FSLAX46Y46*%
G04 Gerber Fmt 4.6, Leading zero omitted, Abs format (unit mm)*
G04 Created by KiCad (PCBNEW 5.99.0-unknown-b32c2a6c9~106~ubuntu18.04.1) date 2020-11-24 15:56:37*
%MOMM*%
%LPD*%
G01*
G04 APERTURE LIST*
%ADD10C,0.150000*%
G04 APERTURE END LIST*
D10*
X175727980Y-94919276D02*
X175251790Y-95252609D01*
X175727980Y-95490704D02*
X174727980Y-95490704D01*
X174727980Y-95109752D01*
X174775600Y-95014514D01*
X174823219Y-94966895D01*
X174918457Y-94919276D01*
X175061314Y-94919276D01*
X175156552Y-94966895D01*
X175204171Y-95014514D01*
X175251790Y-95109752D01*
X175251790Y-95490704D01*
X175204171Y-94157371D02*
X175204171Y-94490704D01*
X175727980Y-94490704D02*
X174727980Y-94490704D01*
X174727980Y-94014514D01*
X175680361Y-92443085D02*
X175727980Y-92538323D01*
X175727980Y-92728800D01*
X175680361Y-92824038D01*
X175632742Y-92871657D01*
X175537504Y-92919276D01*
X175251790Y-92919276D01*
X175156552Y-92871657D01*
X175108933Y-92824038D01*
X175061314Y-92728800D01*
X175061314Y-92538323D01*
X175108933Y-92443085D01*
X175727980Y-91871657D02*
X175680361Y-91966895D01*
X175632742Y-92014514D01*
X175537504Y-92062133D01*
X175251790Y-92062133D01*
X175156552Y-92014514D01*
X175108933Y-91966895D01*
X175061314Y-91871657D01*
X175061314Y-91728800D01*
X175108933Y-91633561D01*
X175156552Y-91585942D01*
X175251790Y-91538323D01*
X175537504Y-91538323D01*
X175632742Y-91585942D01*
X175680361Y-91633561D01*
X175727980Y-91728800D01*
X175727980Y-91871657D01*
X175061314Y-91109752D02*
X175727980Y-91109752D01*
X175156552Y-91109752D02*
X175108933Y-91062133D01*
X175061314Y-90966895D01*
X175061314Y-90824038D01*
X175108933Y-90728800D01*
X175204171Y-90681180D01*
X175727980Y-90681180D01*
X175061314Y-90204990D02*
X175727980Y-90204990D01*
X175156552Y-90204990D02*
X175108933Y-90157371D01*
X175061314Y-90062133D01*
X175061314Y-89919276D01*
X175108933Y-89824038D01*
X175204171Y-89776419D01*
X175727980Y-89776419D01*
X175680361Y-88919276D02*
X175727980Y-89014514D01*
X175727980Y-89204990D01*
X175680361Y-89300228D01*
X175585123Y-89347847D01*
X175204171Y-89347847D01*
X175108933Y-89300228D01*
X175061314Y-89204990D01*
X175061314Y-89014514D01*
X175108933Y-88919276D01*
X175204171Y-88871657D01*
X175299409Y-88871657D01*
X175394647Y-89347847D01*
X175680361Y-88014514D02*
X175727980Y-88109752D01*
X175727980Y-88300228D01*
X175680361Y-88395466D01*
X175632742Y-88443085D01*
X175537504Y-88490704D01*
X175251790Y-88490704D01*
X175156552Y-88443085D01*
X175108933Y-88395466D01*
X175061314Y-88300228D01*
X175061314Y-88109752D01*
X175108933Y-88014514D01*
X175061314Y-87728800D02*
X175061314Y-87347847D01*
X174727980Y-87585942D02*
X175585123Y-87585942D01*
X175680361Y-87538323D01*
X175727980Y-87443085D01*
X175727980Y-87347847D01*
X175727980Y-86871657D02*
X175680361Y-86966895D01*
X175632742Y-87014514D01*
X175537504Y-87062133D01*
X175251790Y-87062133D01*
X175156552Y-87014514D01*
X175108933Y-86966895D01*
X175061314Y-86871657D01*
X175061314Y-86728800D01*
X175108933Y-86633561D01*
X175156552Y-86585942D01*
X175251790Y-86538323D01*
X175537504Y-86538323D01*
X175632742Y-86585942D01*
X175680361Y-86633561D01*
X175727980Y-86728800D01*
X175727980Y-86871657D01*
X175727980Y-86109752D02*
X175061314Y-86109752D01*
X175251790Y-86109752D02*
X175156552Y-86062133D01*
X175108933Y-86014514D01*
X175061314Y-85919276D01*
X175061314Y-85824038D01*
X177337980Y-101395466D02*
X176671314Y-101395466D01*
X176766552Y-101395466D02*
X176718933Y-101347847D01*
X176671314Y-101252609D01*
X176671314Y-101109752D01*
X176718933Y-101014514D01*
X176814171Y-100966895D01*
X177337980Y-100966895D01*
X176814171Y-100966895D02*
X176718933Y-100919276D01*
X176671314Y-100824038D01*
X176671314Y-100681180D01*
X176718933Y-100585942D01*
X176814171Y-100538323D01*
X177337980Y-100538323D01*
X177337980Y-100062133D02*
X176671314Y-100062133D01*
X176337980Y-100062133D02*
X176385600Y-100109752D01*
X176433219Y-100062133D01*
X176385600Y-100014514D01*
X176337980Y-100062133D01*
X176433219Y-100062133D01*
X176671314Y-99585942D02*
X177337980Y-99585942D01*
X176766552Y-99585942D02*
X176718933Y-99538323D01*
X176671314Y-99443085D01*
X176671314Y-99300228D01*
X176718933Y-99204990D01*
X176814171Y-99157371D01*
X177337980Y-99157371D01*
X177337980Y-98681180D02*
X176671314Y-98681180D01*
X176337980Y-98681180D02*
X176385600Y-98728800D01*
X176433219Y-98681180D01*
X176385600Y-98633561D01*
X176337980Y-98681180D01*
X176433219Y-98681180D01*
X177337980Y-98204990D02*
X176671314Y-98204990D01*
X176766552Y-98204990D02*
X176718933Y-98157371D01*
X176671314Y-98062133D01*
X176671314Y-97919276D01*
X176718933Y-97824038D01*
X176814171Y-97776419D01*
X177337980Y-97776419D01*
X176814171Y-97776419D02*
X176718933Y-97728800D01*
X176671314Y-97633561D01*
X176671314Y-97490704D01*
X176718933Y-97395466D01*
X176814171Y-97347847D01*
X177337980Y-97347847D01*
X176671314Y-96443085D02*
X177337980Y-96443085D01*
X176671314Y-96871657D02*
X177195123Y-96871657D01*
X177290361Y-96824038D01*
X177337980Y-96728800D01*
X177337980Y-96585942D01*
X177290361Y-96490704D01*
X177242742Y-96443085D01*
X177337980Y-95966895D02*
X176671314Y-95966895D01*
X176766552Y-95966895D02*
X176718933Y-95919276D01*
X176671314Y-95824038D01*
X176671314Y-95681180D01*
X176718933Y-95585942D01*
X176814171Y-95538323D01*
X177337980Y-95538323D01*
X176814171Y-95538323D02*
X176718933Y-95490704D01*
X176671314Y-95395466D01*
X176671314Y-95252609D01*
X176718933Y-95157371D01*
X176814171Y-95109752D01*
X177337980Y-95109752D01*
X177337980Y-93871657D02*
X176671314Y-93871657D01*
X176337980Y-93871657D02*
X176385600Y-93919276D01*
X176433219Y-93871657D01*
X176385600Y-93824038D01*
X176337980Y-93871657D01*
X176433219Y-93871657D01*
X176671314Y-93395466D02*
X177337980Y-93395466D01*
X176766552Y-93395466D02*
X176718933Y-93347847D01*
X176671314Y-93252609D01*
X176671314Y-93109752D01*
X176718933Y-93014514D01*
X176814171Y-92966895D01*
X177337980Y-92966895D01*
X177290361Y-92538323D02*
X177337980Y-92443085D01*
X177337980Y-92252609D01*
X177290361Y-92157371D01*
X177195123Y-92109752D01*
X177147504Y-92109752D01*
X177052266Y-92157371D01*
X177004647Y-92252609D01*
X177004647Y-92395466D01*
X176957028Y-92490704D01*
X176861790Y-92538323D01*
X176814171Y-92538323D01*
X176718933Y-92490704D01*
X176671314Y-92395466D01*
X176671314Y-92252609D01*
X176718933Y-92157371D01*
X176671314Y-91681180D02*
X177671314Y-91681180D01*
X176718933Y-91681180D02*
X176671314Y-91585942D01*
X176671314Y-91395466D01*
X176718933Y-91300228D01*
X176766552Y-91252609D01*
X176861790Y-91204990D01*
X177147504Y-91204990D01*
X177242742Y-91252609D01*
X177290361Y-91300228D01*
X177337980Y-91395466D01*
X177337980Y-91585942D01*
X177290361Y-91681180D01*
X177290361Y-90395466D02*
X177337980Y-90490704D01*
X177337980Y-90681180D01*
X177290361Y-90776419D01*
X177195123Y-90824038D01*
X176814171Y-90824038D01*
X176718933Y-90776419D01*
X176671314Y-90681180D01*
X176671314Y-90490704D01*
X176718933Y-90395466D01*
X176814171Y-90347847D01*
X176909409Y-90347847D01*
X177004647Y-90824038D01*
X177290361Y-89490704D02*
X177337980Y-89585942D01*
X177337980Y-89776419D01*
X177290361Y-89871657D01*
X177242742Y-89919276D01*
X177147504Y-89966895D01*
X176861790Y-89966895D01*
X176766552Y-89919276D01*
X176718933Y-89871657D01*
X176671314Y-89776419D01*
X176671314Y-89585942D01*
X176718933Y-89490704D01*
X176671314Y-89204990D02*
X176671314Y-88824038D01*
X176337980Y-89062133D02*
X177195123Y-89062133D01*
X177290361Y-89014514D01*
X177337980Y-88919276D01*
X177337980Y-88824038D01*
X177337980Y-88490704D02*
X176671314Y-88490704D01*
X176337980Y-88490704D02*
X176385600Y-88538323D01*
X176433219Y-88490704D01*
X176385600Y-88443085D01*
X176337980Y-88490704D01*
X176433219Y-88490704D01*
X177337980Y-87871657D02*
X177290361Y-87966895D01*
X177242742Y-88014514D01*
X177147504Y-88062133D01*
X176861790Y-88062133D01*
X176766552Y-88014514D01*
X176718933Y-87966895D01*
X176671314Y-87871657D01*
X176671314Y-87728800D01*
X176718933Y-87633561D01*
X176766552Y-87585942D01*
X176861790Y-87538323D01*
X177147504Y-87538323D01*
X177242742Y-87585942D01*
X177290361Y-87633561D01*
X177337980Y-87728800D01*
X177337980Y-87871657D01*
X176671314Y-87109752D02*
X177337980Y-87109752D01*
X176766552Y-87109752D02*
X176718933Y-87062133D01*
X176671314Y-86966895D01*
X176671314Y-86824038D01*
X176718933Y-86728800D01*
X176814171Y-86681180D01*
X177337980Y-86681180D01*
X177337980Y-85300228D02*
X177290361Y-85395466D01*
X177242742Y-85443085D01*
X177147504Y-85490704D01*
X176861790Y-85490704D01*
X176766552Y-85443085D01*
X176718933Y-85395466D01*
X176671314Y-85300228D01*
X176671314Y-85157371D01*
X176718933Y-85062133D01*
X176766552Y-85014514D01*
X176861790Y-84966895D01*
X177147504Y-84966895D01*
X177242742Y-85014514D01*
X177290361Y-85062133D01*
X177337980Y-85157371D01*
X177337980Y-85300228D01*
X176671314Y-84538323D02*
X177671314Y-84538323D01*
X176718933Y-84538323D02*
X176671314Y-84443085D01*
X176671314Y-84252609D01*
X176718933Y-84157371D01*
X176766552Y-84109752D01*
X176861790Y-84062133D01*
X177147504Y-84062133D01*
X177242742Y-84109752D01*
X177290361Y-84157371D01*
X177337980Y-84252609D01*
X177337980Y-84443085D01*
X177290361Y-84538323D01*
X177290361Y-83252609D02*
X177337980Y-83347847D01*
X177337980Y-83538323D01*
X177290361Y-83633561D01*
X177195123Y-83681180D01*
X176814171Y-83681180D01*
X176718933Y-83633561D01*
X176671314Y-83538323D01*
X176671314Y-83347847D01*
X176718933Y-83252609D01*
X176814171Y-83204990D01*
X176909409Y-83204990D01*
X177004647Y-83681180D01*
X176671314Y-82776419D02*
X177337980Y-82776419D01*
X176766552Y-82776419D02*
X176718933Y-82728800D01*
X176671314Y-82633561D01*
X176671314Y-82490704D01*
X176718933Y-82395466D01*
X176814171Y-82347847D01*
X177337980Y-82347847D01*
X177337980Y-81871657D02*
X176671314Y-81871657D01*
X176337980Y-81871657D02*
X176385600Y-81919276D01*
X176433219Y-81871657D01*
X176385600Y-81824038D01*
X176337980Y-81871657D01*
X176433219Y-81871657D01*
X176671314Y-81395466D02*
X177337980Y-81395466D01*
X176766552Y-81395466D02*
X176718933Y-81347847D01*
X176671314Y-81252609D01*
X176671314Y-81109752D01*
X176718933Y-81014514D01*
X176814171Y-80966895D01*
X177337980Y-80966895D01*
X176671314Y-80062133D02*
X177480838Y-80062133D01*
X177576076Y-80109752D01*
X177623695Y-80157371D01*
X177671314Y-80252609D01*
X177671314Y-80395466D01*
X177623695Y-80490704D01*
X177290361Y-80062133D02*
X177337980Y-80157371D01*
X177337980Y-80347847D01*
X177290361Y-80443085D01*
X177242742Y-80490704D01*
X177147504Y-80538323D01*
X176861790Y-80538323D01*
X176766552Y-80490704D01*
X176718933Y-80443085D01*
X176671314Y-80347847D01*
X176671314Y-80157371D01*
X176718933Y-80062133D01*
X178947980Y-96276419D02*
X177947980Y-96276419D01*
X178900361Y-96276419D02*
X178947980Y-96371657D01*
X178947980Y-96562133D01*
X178900361Y-96657371D01*
X178852742Y-96704990D01*
X178757504Y-96752609D01*
X178471790Y-96752609D01*
X178376552Y-96704990D01*
X178328933Y-96657371D01*
X178281314Y-96562133D01*
X178281314Y-96371657D01*
X178328933Y-96276419D01*
X178947980Y-95800228D02*
X178281314Y-95800228D01*
X177947980Y-95800228D02*
X177995600Y-95847847D01*
X178043219Y-95800228D01*
X177995600Y-95752609D01*
X177947980Y-95800228D01*
X178043219Y-95800228D01*
X178947980Y-94895466D02*
X178424171Y-94895466D01*
X178328933Y-94943085D01*
X178281314Y-95038323D01*
X178281314Y-95228800D01*
X178328933Y-95324038D01*
X178900361Y-94895466D02*
X178947980Y-94990704D01*
X178947980Y-95228800D01*
X178900361Y-95324038D01*
X178805123Y-95371657D01*
X178709885Y-95371657D01*
X178614647Y-95324038D01*
X178567028Y-95228800D01*
X178567028Y-94990704D01*
X178519409Y-94895466D01*
X178947980Y-94419276D02*
X178281314Y-94419276D01*
X178376552Y-94419276D02*
X178328933Y-94371657D01*
X178281314Y-94276419D01*
X178281314Y-94133561D01*
X178328933Y-94038323D01*
X178424171Y-93990704D01*
X178947980Y-93990704D01*
X178424171Y-93990704D02*
X178328933Y-93943085D01*
X178281314Y-93847847D01*
X178281314Y-93704990D01*
X178328933Y-93609752D01*
X178424171Y-93562133D01*
X178947980Y-93562133D01*
X178900361Y-92704990D02*
X178947980Y-92800228D01*
X178947980Y-92990704D01*
X178900361Y-93085942D01*
X178805123Y-93133561D01*
X178424171Y-93133561D01*
X178328933Y-93085942D01*
X178281314Y-92990704D01*
X178281314Y-92800228D01*
X178328933Y-92704990D01*
X178424171Y-92657371D01*
X178519409Y-92657371D01*
X178614647Y-93133561D01*
X178281314Y-92371657D02*
X178281314Y-91990704D01*
X177947980Y-92228800D02*
X178805123Y-92228800D01*
X178900361Y-92181180D01*
X178947980Y-92085942D01*
X178947980Y-91990704D01*
X178900361Y-91276419D02*
X178947980Y-91371657D01*
X178947980Y-91562133D01*
X178900361Y-91657371D01*
X178805123Y-91704990D01*
X178424171Y-91704990D01*
X178328933Y-91657371D01*
X178281314Y-91562133D01*
X178281314Y-91371657D01*
X178328933Y-91276419D01*
X178424171Y-91228800D01*
X178519409Y-91228800D01*
X178614647Y-91704990D01*
X178947980Y-90800228D02*
X178281314Y-90800228D01*
X178471790Y-90800228D02*
X178376552Y-90752609D01*
X178328933Y-90704990D01*
X178281314Y-90609752D01*
X178281314Y-90514514D01*
X178376552Y-89276419D02*
X178328933Y-89371657D01*
X178281314Y-89419276D01*
X178186076Y-89466895D01*
X178138457Y-89466895D01*
X178043219Y-89419276D01*
X177995600Y-89371657D01*
X177947980Y-89276419D01*
X177947980Y-89085942D01*
X177995600Y-88990704D01*
X178043219Y-88943085D01*
X178138457Y-88895466D01*
X178186076Y-88895466D01*
X178281314Y-88943085D01*
X178328933Y-88990704D01*
X178376552Y-89085942D01*
X178376552Y-89276419D01*
X178424171Y-89371657D01*
X178471790Y-89419276D01*
X178567028Y-89466895D01*
X178757504Y-89466895D01*
X178852742Y-89419276D01*
X178900361Y-89371657D01*
X178947980Y-89276419D01*
X178947980Y-89085942D01*
X178900361Y-88990704D01*
X178852742Y-88943085D01*
X178757504Y-88895466D01*
X178567028Y-88895466D01*
X178471790Y-88943085D01*
X178424171Y-88990704D01*
X178376552Y-89085942D01*
X178947980Y-87704990D02*
X178281314Y-87704990D01*
X178376552Y-87704990D02*
X178328933Y-87657371D01*
X178281314Y-87562133D01*
X178281314Y-87419276D01*
X178328933Y-87324038D01*
X178424171Y-87276419D01*
X178947980Y-87276419D01*
X178424171Y-87276419D02*
X178328933Y-87228800D01*
X178281314Y-87133561D01*
X178281314Y-86990704D01*
X178328933Y-86895466D01*
X178424171Y-86847847D01*
X178947980Y-86847847D01*
X178947980Y-86371657D02*
X178281314Y-86371657D01*
X178376552Y-86371657D02*
X178328933Y-86324038D01*
X178281314Y-86228800D01*
X178281314Y-86085942D01*
X178328933Y-85990704D01*
X178424171Y-85943085D01*
X178947980Y-85943085D01*
X178424171Y-85943085D02*
X178328933Y-85895466D01*
X178281314Y-85800228D01*
X178281314Y-85657371D01*
X178328933Y-85562133D01*
X178424171Y-85514514D01*
X178947980Y-85514514D01*
X168135991Y-66925244D02*
X167751961Y-66502099D01*
X167943976Y-66713671D02*
X168684479Y-66041618D01*
X168514688Y-66067102D01*
X168380159Y-66060583D01*
X168280891Y-66022061D01*
X169452540Y-66887907D02*
X169324529Y-66746859D01*
X169225262Y-66708338D01*
X169157998Y-66705078D01*
X168988207Y-66730562D01*
X168815156Y-66823310D01*
X168533060Y-67079330D01*
X168494538Y-67178597D01*
X168491278Y-67245862D01*
X168520021Y-67348388D01*
X168648032Y-67489436D01*
X168747299Y-67527958D01*
X168814563Y-67531217D01*
X168917090Y-67502474D01*
X169093400Y-67342462D01*
X169131922Y-67243195D01*
X169135181Y-67175930D01*
X169106438Y-67073404D01*
X168978428Y-66932355D01*
X168879161Y-66893834D01*
X168811896Y-66890574D01*
X168709370Y-66919317D01*
X169131329Y-67951102D02*
X169096067Y-67983105D01*
X168993540Y-68011848D01*
X168926276Y-68008589D01*
X170252603Y-67769459D02*
X170316608Y-67839983D01*
X170345351Y-67942509D01*
X170342091Y-68009774D01*
X170303570Y-68109041D01*
X170194524Y-68272313D01*
X170018214Y-68432326D01*
X169845163Y-68525074D01*
X169742637Y-68553817D01*
X169675372Y-68550557D01*
X169576105Y-68512036D01*
X169512100Y-68441512D01*
X169483357Y-68338985D01*
X169486616Y-68271720D01*
X169525138Y-68172453D01*
X169634184Y-68009181D01*
X169810494Y-67849169D01*
X169983545Y-67756420D01*
X170086071Y-67727677D01*
X170153336Y-67730937D01*
X170252603Y-67769459D01*
X170700638Y-68263127D02*
X171148674Y-68756796D01*
X170120148Y-69111490D01*
X171532704Y-69179940D02*
X171596709Y-69250464D01*
X171625452Y-69352991D01*
X171622193Y-69420256D01*
X171583671Y-69519523D01*
X171474625Y-69682795D01*
X171298315Y-69842808D01*
X171125264Y-69935556D01*
X171022738Y-69964299D01*
X170955473Y-69961039D01*
X170856206Y-69922518D01*
X170792201Y-69851993D01*
X170763458Y-69749467D01*
X170766718Y-69682202D01*
X170805239Y-69582935D01*
X170914285Y-69419663D01*
X171090595Y-69259650D01*
X171263646Y-69166902D01*
X171366172Y-69138159D01*
X171433437Y-69141419D01*
X171532704Y-69179940D01*
X171942218Y-69772876D02*
X172009482Y-69776136D01*
X172108749Y-69814657D01*
X172268762Y-69990967D01*
X172297505Y-70093494D01*
X172294246Y-70160759D01*
X172255724Y-70260026D01*
X172185200Y-70324031D01*
X172047411Y-70384776D01*
X171240236Y-70345662D01*
X171656269Y-70804069D01*
X172456333Y-71685620D02*
X172950001Y-71237584D01*
X172879477Y-71301589D02*
X172946742Y-71304849D01*
X173046009Y-71343371D01*
X173142016Y-71449157D01*
X173170759Y-71551683D01*
X173132238Y-71650950D01*
X172744355Y-72002978D01*
X173132238Y-71650950D02*
X173234764Y-71622207D01*
X173334031Y-71660729D01*
X173430039Y-71766515D01*
X173458782Y-71869042D01*
X173420261Y-71968309D01*
X173032378Y-72320337D01*
X173352403Y-72672957D02*
X173846072Y-72224922D01*
X173775548Y-72288927D02*
X173842812Y-72292186D01*
X173942080Y-72330708D01*
X174038087Y-72436494D01*
X174066830Y-72539021D01*
X174028309Y-72638288D01*
X173640426Y-72990315D01*
X174028309Y-72638288D02*
X174130835Y-72609545D01*
X174230102Y-72648066D01*
X174326110Y-72753852D01*
X174354853Y-72856379D01*
X174316331Y-72955646D01*
X173928449Y-73307674D01*
X161170251Y-89563974D02*
X176173863Y-75947251D01*
X150370251Y-77663974D02*
X165373863Y-64047251D01*
X175739618Y-76341355D02*
X164939618Y-64441355D01*
X175739618Y-76341355D02*
X164939618Y-64441355D01*
X175739618Y-76341355D02*
X175416794Y-75113070D01*
X175739618Y-76341355D02*
X174548302Y-75901282D01*
X164939618Y-64441355D02*
X165262442Y-65669640D01*
X164939618Y-64441355D02*
X166130934Y-64881428D01*
X169000462Y-113514676D02*
X168619951Y-113940989D01*
X168810207Y-113727832D02*
X168064160Y-113061939D01*
X168107319Y-113228119D01*
X168114953Y-113362589D01*
X168087061Y-113465351D01*
X168825180Y-112209314D02*
X168698344Y-112351418D01*
X168670451Y-112454180D01*
X168674268Y-112521415D01*
X168717428Y-112687594D01*
X168827823Y-112849957D01*
X169112031Y-113103631D01*
X169214793Y-113131523D01*
X169282028Y-113127706D01*
X169380972Y-113088364D01*
X169507809Y-112946259D01*
X169535701Y-112843498D01*
X169531885Y-112776263D01*
X169492542Y-112677318D01*
X169314911Y-112518772D01*
X169212150Y-112490880D01*
X169144915Y-112494697D01*
X169045970Y-112534040D01*
X168919134Y-112676144D01*
X168891241Y-112778905D01*
X168895058Y-112846140D01*
X168934401Y-112945085D01*
X169916212Y-112417185D02*
X169951738Y-112448895D01*
X169991081Y-112547839D01*
X169994898Y-112615074D01*
X169530417Y-111562211D02*
X169526600Y-111494976D01*
X169554492Y-111392215D01*
X169713038Y-111214585D01*
X169811983Y-111175242D01*
X169879218Y-111171425D01*
X169981979Y-111199317D01*
X170053031Y-111262736D01*
X170127900Y-111393389D01*
X170173702Y-112200212D01*
X170585922Y-111738374D01*
X171220106Y-111027853D02*
X170839596Y-111454165D01*
X171029851Y-111241009D02*
X170283804Y-110575116D01*
X170326963Y-110741295D01*
X170334597Y-110875766D01*
X170306705Y-110978527D01*
X171174304Y-110221030D02*
X171075359Y-110260373D01*
X171008124Y-110264189D01*
X170905363Y-110236297D01*
X170869837Y-110204588D01*
X170830494Y-110105643D01*
X170826677Y-110038408D01*
X170854569Y-109935647D01*
X170981406Y-109793543D01*
X171080351Y-109754200D01*
X171147586Y-109750383D01*
X171250347Y-109778275D01*
X171285873Y-109809984D01*
X171325216Y-109908929D01*
X171329033Y-109976164D01*
X171301141Y-110078925D01*
X171174304Y-110221030D01*
X171146411Y-110323791D01*
X171150228Y-110391026D01*
X171189571Y-110489971D01*
X171331675Y-110616807D01*
X171434437Y-110644700D01*
X171501672Y-110640883D01*
X171600616Y-110601540D01*
X171727453Y-110459436D01*
X171755346Y-110356675D01*
X171751529Y-110289439D01*
X171712186Y-110190495D01*
X171570082Y-110063658D01*
X171467320Y-110035766D01*
X171400085Y-110039583D01*
X171301141Y-110078925D01*
X171808488Y-109510509D02*
X171709543Y-109549852D01*
X171642308Y-109553668D01*
X171539547Y-109525776D01*
X171504021Y-109494067D01*
X171464678Y-109395122D01*
X171460861Y-109327887D01*
X171488753Y-109225126D01*
X171615590Y-109083022D01*
X171714535Y-109043679D01*
X171781770Y-109039862D01*
X171884531Y-109067754D01*
X171920057Y-109099463D01*
X171959400Y-109198408D01*
X171963217Y-109265643D01*
X171935325Y-109368404D01*
X171808488Y-109510509D01*
X171780595Y-109613270D01*
X171784412Y-109680505D01*
X171823755Y-109779450D01*
X171965859Y-109906286D01*
X172068621Y-109934179D01*
X172135856Y-109930362D01*
X172234800Y-109891019D01*
X172361637Y-109748915D01*
X172389530Y-109646154D01*
X172385713Y-109578918D01*
X172346370Y-109479974D01*
X172204266Y-109353137D01*
X172101504Y-109325245D01*
X172034269Y-109329062D01*
X171935325Y-109368404D01*
X173281204Y-108718659D02*
X172783839Y-108274731D01*
X172854891Y-108338149D02*
X172851075Y-108270914D01*
X172878967Y-108168152D01*
X172974095Y-108061574D01*
X173073039Y-108022231D01*
X173175800Y-108050124D01*
X173566587Y-108398925D01*
X173175800Y-108050124D02*
X173136457Y-107951179D01*
X173164350Y-107848418D01*
X173259477Y-107741840D01*
X173358422Y-107702497D01*
X173461183Y-107730389D01*
X173851970Y-108079191D01*
X174169062Y-107723930D02*
X173671697Y-107280001D01*
X173742749Y-107343420D02*
X173738932Y-107276184D01*
X173766825Y-107173423D01*
X173861952Y-107066845D01*
X173960897Y-107027502D01*
X174063658Y-107055394D01*
X174454445Y-107404196D01*
X174063658Y-107055394D02*
X174024315Y-106956450D01*
X174052207Y-106853689D01*
X174147335Y-106747110D01*
X174246279Y-106707768D01*
X174349041Y-106735660D01*
X174739827Y-107084461D01*
X150373023Y-102332946D02*
X165537790Y-115868440D01*
X161173023Y-90232946D02*
X176337790Y-103768440D01*
X165100293Y-115477948D02*
X175900293Y-103377948D01*
X165100293Y-115477948D02*
X175900293Y-103377948D01*
X165100293Y-115477948D02*
X166287921Y-115028017D01*
X165100293Y-115477948D02*
X165412926Y-114247030D01*
X175900293Y-103377948D02*
X174712665Y-103827879D01*
X175900293Y-103377948D02*
X175587660Y-104608866D01*
X131837180Y-93457257D02*
X131837180Y-92838209D01*
X132218133Y-93171542D01*
X132218133Y-93028685D01*
X132265752Y-92933447D01*
X132313371Y-92885828D01*
X132408609Y-92838209D01*
X132646704Y-92838209D01*
X132741942Y-92885828D01*
X132789561Y-92933447D01*
X132837180Y-93028685D01*
X132837180Y-93314400D01*
X132789561Y-93409638D01*
X132741942Y-93457257D01*
X132837180Y-92504876D02*
X132170514Y-91981066D01*
X132170514Y-92504876D02*
X132837180Y-91981066D01*
X131837180Y-90933447D02*
X131837180Y-90314400D01*
X132218133Y-90647733D01*
X132218133Y-90504876D01*
X132265752Y-90409638D01*
X132313371Y-90362019D01*
X132408609Y-90314400D01*
X132646704Y-90314400D01*
X132741942Y-90362019D01*
X132789561Y-90409638D01*
X132837180Y-90504876D01*
X132837180Y-90790590D01*
X132789561Y-90885828D01*
X132741942Y-90933447D01*
X132741942Y-89885828D02*
X132789561Y-89838209D01*
X132837180Y-89885828D01*
X132789561Y-89933447D01*
X132741942Y-89885828D01*
X132837180Y-89885828D01*
X131932419Y-89457257D02*
X131884800Y-89409638D01*
X131837180Y-89314400D01*
X131837180Y-89076304D01*
X131884800Y-88981066D01*
X131932419Y-88933447D01*
X132027657Y-88885828D01*
X132122895Y-88885828D01*
X132265752Y-88933447D01*
X132837180Y-89504876D01*
X132837180Y-88885828D01*
X132837180Y-88457257D02*
X132170514Y-88457257D01*
X132265752Y-88457257D02*
X132218133Y-88409638D01*
X132170514Y-88314400D01*
X132170514Y-88171542D01*
X132218133Y-88076304D01*
X132313371Y-88028685D01*
X132837180Y-88028685D01*
X132313371Y-88028685D02*
X132218133Y-87981066D01*
X132170514Y-87885828D01*
X132170514Y-87742971D01*
X132218133Y-87647733D01*
X132313371Y-87600114D01*
X132837180Y-87600114D01*
X132837180Y-87123923D02*
X132170514Y-87123923D01*
X132265752Y-87123923D02*
X132218133Y-87076304D01*
X132170514Y-86981066D01*
X132170514Y-86838209D01*
X132218133Y-86742971D01*
X132313371Y-86695352D01*
X132837180Y-86695352D01*
X132313371Y-86695352D02*
X132218133Y-86647733D01*
X132170514Y-86552495D01*
X132170514Y-86409638D01*
X132218133Y-86314400D01*
X132313371Y-86266780D01*
X132837180Y-86266780D01*
X168845619Y-94619047D02*
X168798000Y-94571428D01*
X168750380Y-94476190D01*
X168750380Y-94238095D01*
X168798000Y-94142857D01*
X168845619Y-94095238D01*
X168940857Y-94047619D01*
X169036095Y-94047619D01*
X169178952Y-94095238D01*
X169750380Y-94666666D01*
X169750380Y-94047619D01*
X169083714Y-93190476D02*
X169750380Y-93190476D01*
X168702761Y-93428571D02*
X169417047Y-93666666D01*
X169417047Y-93047619D01*
X169702761Y-92619047D02*
X169750380Y-92619047D01*
X169845619Y-92666666D01*
X169893238Y-92714285D01*
X168750380Y-92000000D02*
X168750380Y-91904761D01*
X168798000Y-91809523D01*
X168845619Y-91761904D01*
X168940857Y-91714285D01*
X169131333Y-91666666D01*
X169369428Y-91666666D01*
X169559904Y-91714285D01*
X169655142Y-91761904D01*
X169702761Y-91809523D01*
X169750380Y-91904761D01*
X169750380Y-92000000D01*
X169702761Y-92095238D01*
X169655142Y-92142857D01*
X169559904Y-92190476D01*
X169369428Y-92238095D01*
X169131333Y-92238095D01*
X168940857Y-92190476D01*
X168845619Y-92142857D01*
X168798000Y-92095238D01*
X168750380Y-92000000D01*
X168750380Y-91047619D02*
X168750380Y-90952380D01*
X168798000Y-90857142D01*
X168845619Y-90809523D01*
X168940857Y-90761904D01*
X169131333Y-90714285D01*
X169369428Y-90714285D01*
X169559904Y-90761904D01*
X169655142Y-90809523D01*
X169702761Y-90857142D01*
X169750380Y-90952380D01*
X169750380Y-91047619D01*
X169702761Y-91142857D01*
X169655142Y-91190476D01*
X169559904Y-91238095D01*
X169369428Y-91285714D01*
X169131333Y-91285714D01*
X168940857Y-91238095D01*
X168845619Y-91190476D01*
X168798000Y-91142857D01*
X168750380Y-91047619D01*
X168750380Y-90095238D02*
X168750380Y-90000000D01*
X168798000Y-89904761D01*
X168845619Y-89857142D01*
X168940857Y-89809523D01*
X169131333Y-89761904D01*
X169369428Y-89761904D01*
X169559904Y-89809523D01*
X169655142Y-89857142D01*
X169702761Y-89904761D01*
X169750380Y-90000000D01*
X169750380Y-90095238D01*
X169702761Y-90190476D01*
X169655142Y-90238095D01*
X169559904Y-90285714D01*
X169369428Y-90333333D01*
X169131333Y-90333333D01*
X168940857Y-90285714D01*
X168845619Y-90238095D01*
X168798000Y-90190476D01*
X168750380Y-90095238D01*
X168750380Y-89142857D02*
X168750380Y-89047619D01*
X168798000Y-88952380D01*
X168845619Y-88904761D01*
X168940857Y-88857142D01*
X169131333Y-88809523D01*
X169369428Y-88809523D01*
X169559904Y-88857142D01*
X169655142Y-88904761D01*
X169702761Y-88952380D01*
X169750380Y-89047619D01*
X169750380Y-89142857D01*
X169702761Y-89238095D01*
X169655142Y-89285714D01*
X169559904Y-89333333D01*
X169369428Y-89380952D01*
X169131333Y-89380952D01*
X168940857Y-89333333D01*
X168845619Y-89285714D01*
X168798000Y-89238095D01*
X168750380Y-89142857D01*
X169750380Y-87619047D02*
X169083714Y-87619047D01*
X169178952Y-87619047D02*
X169131333Y-87571428D01*
X169083714Y-87476190D01*
X169083714Y-87333333D01*
X169131333Y-87238095D01*
X169226571Y-87190476D01*
X169750380Y-87190476D01*
X169226571Y-87190476D02*
X169131333Y-87142857D01*
X169083714Y-87047619D01*
X169083714Y-86904761D01*
X169131333Y-86809523D01*
X169226571Y-86761904D01*
X169750380Y-86761904D01*
X169750380Y-86285714D02*
X169083714Y-86285714D01*
X169178952Y-86285714D02*
X169131333Y-86238095D01*
X169083714Y-86142857D01*
X169083714Y-86000000D01*
X169131333Y-85904761D01*
X169226571Y-85857142D01*
X169750380Y-85857142D01*
X169226571Y-85857142D02*
X169131333Y-85809523D01*
X169083714Y-85714285D01*
X169083714Y-85571428D01*
X169131333Y-85476190D01*
X169226571Y-85428571D01*
X169750380Y-85428571D01*
X150500000Y-102000000D02*
X168734420Y-102000000D01*
X150500000Y-78000000D02*
X168734420Y-78000000D01*
X168148000Y-102000000D02*
X168148000Y-78000000D01*
X168148000Y-102000000D02*
X168148000Y-78000000D01*
X168148000Y-102000000D02*
X168734420Y-100873497D01*
X168148000Y-102000000D02*
X167561580Y-100873497D01*
X168148000Y-78000000D02*
X167561580Y-79126503D01*
X168148000Y-78000000D02*
X168734420Y-79126503D01*
X171696780Y-94666666D02*
X171696780Y-94047619D01*
X172077733Y-94380952D01*
X172077733Y-94238095D01*
X172125352Y-94142857D01*
X172172971Y-94095238D01*
X172268209Y-94047619D01*
X172506304Y-94047619D01*
X172601542Y-94095238D01*
X172649161Y-94142857D01*
X172696780Y-94238095D01*
X172696780Y-94523809D01*
X172649161Y-94619047D01*
X172601542Y-94666666D01*
X171792019Y-93666666D02*
X171744400Y-93619047D01*
X171696780Y-93523809D01*
X171696780Y-93285714D01*
X171744400Y-93190476D01*
X171792019Y-93142857D01*
X171887257Y-93095238D01*
X171982495Y-93095238D01*
X172125352Y-93142857D01*
X172696780Y-93714285D01*
X172696780Y-93095238D01*
X172649161Y-92619047D02*
X172696780Y-92619047D01*
X172792019Y-92666666D01*
X172839638Y-92714285D01*
X171696780Y-92000000D02*
X171696780Y-91904761D01*
X171744400Y-91809523D01*
X171792019Y-91761904D01*
X171887257Y-91714285D01*
X172077733Y-91666666D01*
X172315828Y-91666666D01*
X172506304Y-91714285D01*
X172601542Y-91761904D01*
X172649161Y-91809523D01*
X172696780Y-91904761D01*
X172696780Y-92000000D01*
X172649161Y-92095238D01*
X172601542Y-92142857D01*
X172506304Y-92190476D01*
X172315828Y-92238095D01*
X172077733Y-92238095D01*
X171887257Y-92190476D01*
X171792019Y-92142857D01*
X171744400Y-92095238D01*
X171696780Y-92000000D01*
X171696780Y-91047619D02*
X171696780Y-90952380D01*
X171744400Y-90857142D01*
X171792019Y-90809523D01*
X171887257Y-90761904D01*
X172077733Y-90714285D01*
X172315828Y-90714285D01*
X172506304Y-90761904D01*
X172601542Y-90809523D01*
X172649161Y-90857142D01*
X172696780Y-90952380D01*
X172696780Y-91047619D01*
X172649161Y-91142857D01*
X172601542Y-91190476D01*
X172506304Y-91238095D01*
X172315828Y-91285714D01*
X172077733Y-91285714D01*
X171887257Y-91238095D01*
X171792019Y-91190476D01*
X171744400Y-91142857D01*
X171696780Y-91047619D01*
X171696780Y-90095238D02*
X171696780Y-90000000D01*
X171744400Y-89904761D01*
X171792019Y-89857142D01*
X171887257Y-89809523D01*
X172077733Y-89761904D01*
X172315828Y-89761904D01*
X172506304Y-89809523D01*
X172601542Y-89857142D01*
X172649161Y-89904761D01*
X172696780Y-90000000D01*
X172696780Y-90095238D01*
X172649161Y-90190476D01*
X172601542Y-90238095D01*
X172506304Y-90285714D01*
X172315828Y-90333333D01*
X172077733Y-90333333D01*
X171887257Y-90285714D01*
X171792019Y-90238095D01*
X171744400Y-90190476D01*
X171696780Y-90095238D01*
X171696780Y-89142857D02*
X171696780Y-89047619D01*
X171744400Y-88952380D01*
X171792019Y-88904761D01*
X171887257Y-88857142D01*
X172077733Y-88809523D01*
X172315828Y-88809523D01*
X172506304Y-88857142D01*
X172601542Y-88904761D01*
X172649161Y-88952380D01*
X172696780Y-89047619D01*
X172696780Y-89142857D01*
X172649161Y-89238095D01*
X172601542Y-89285714D01*
X172506304Y-89333333D01*
X172315828Y-89380952D01*
X172077733Y-89380952D01*
X171887257Y-89333333D01*
X171792019Y-89285714D01*
X171744400Y-89238095D01*
X171696780Y-89142857D01*
X172696780Y-87619047D02*
X172030114Y-87619047D01*
X172125352Y-87619047D02*
X172077733Y-87571428D01*
X172030114Y-87476190D01*
X172030114Y-87333333D01*
X172077733Y-87238095D01*
X172172971Y-87190476D01*
X172696780Y-87190476D01*
X172172971Y-87190476D02*
X172077733Y-87142857D01*
X172030114Y-87047619D01*
X172030114Y-86904761D01*
X172077733Y-86809523D01*
X172172971Y-86761904D01*
X172696780Y-86761904D01*
X172696780Y-86285714D02*
X172030114Y-86285714D01*
X172125352Y-86285714D02*
X172077733Y-86238095D01*
X172030114Y-86142857D01*
X172030114Y-86000000D01*
X172077733Y-85904761D01*
X172172971Y-85857142D01*
X172696780Y-85857142D01*
X172172971Y-85857142D02*
X172077733Y-85809523D01*
X172030114Y-85714285D01*
X172030114Y-85571428D01*
X172077733Y-85476190D01*
X172172971Y-85428571D01*
X172696780Y-85428571D01*
X150500000Y-106000000D02*
X171680820Y-106000000D01*
X150500000Y-74000000D02*
X171680820Y-74000000D01*
X171094400Y-106000000D02*
X171094400Y-74000000D01*
X171094400Y-106000000D02*
X171094400Y-74000000D01*
X171094400Y-106000000D02*
X171680820Y-104873497D01*
X171094400Y-106000000D02*
X170507980Y-104873497D01*
X171094400Y-74000000D02*
X170507980Y-75126503D01*
X171094400Y-74000000D02*
X171680820Y-75126503D01*
X133594611Y-79318809D02*
X133190550Y-79722870D01*
X133392581Y-79520840D02*
X132685474Y-78813733D01*
X132719146Y-78982092D01*
X132719146Y-79116779D01*
X132685474Y-79217794D01*
X133493596Y-78005611D02*
X133358909Y-78140298D01*
X133325237Y-78241313D01*
X133325237Y-78308656D01*
X133358909Y-78477015D01*
X133459924Y-78645374D01*
X133729298Y-78914748D01*
X133830314Y-78948420D01*
X133897657Y-78948420D01*
X133998672Y-78914748D01*
X134133359Y-78780061D01*
X134167031Y-78679046D01*
X134167031Y-78611702D01*
X134133359Y-78510687D01*
X133965001Y-78342328D01*
X133863985Y-78308656D01*
X133796642Y-78308656D01*
X133695627Y-78342328D01*
X133560940Y-78477015D01*
X133527268Y-78578030D01*
X133527268Y-78645374D01*
X133560940Y-78746389D01*
X134571092Y-78274985D02*
X134604764Y-78308656D01*
X134638436Y-78409672D01*
X134638436Y-78477015D01*
X134941481Y-77971939D02*
X135076168Y-77837252D01*
X135109840Y-77736237D01*
X135109840Y-77668893D01*
X135076168Y-77500534D01*
X134975153Y-77332176D01*
X134705779Y-77062802D01*
X134604764Y-77029130D01*
X134537420Y-77029130D01*
X134436405Y-77062802D01*
X134301718Y-77197489D01*
X134268046Y-77298504D01*
X134268046Y-77365847D01*
X134301718Y-77466863D01*
X134470077Y-77635221D01*
X134571092Y-77668893D01*
X134638436Y-77668893D01*
X134739451Y-77635221D01*
X134874138Y-77500534D01*
X134907810Y-77399519D01*
X134907810Y-77332176D01*
X134874138Y-77231160D01*
X134806794Y-76692412D02*
X135278199Y-76221008D01*
X135682260Y-77231160D01*
X135682260Y-75816947D02*
X135749603Y-75749603D01*
X135850619Y-75715932D01*
X135917962Y-75715932D01*
X136018977Y-75749603D01*
X136187336Y-75850619D01*
X136355695Y-76018977D01*
X136456710Y-76187336D01*
X136490382Y-76288351D01*
X136490382Y-76355695D01*
X136456710Y-76456710D01*
X136389367Y-76524054D01*
X136288351Y-76557725D01*
X136221008Y-76557725D01*
X136119993Y-76524054D01*
X135951634Y-76423038D01*
X135783275Y-76254680D01*
X135682260Y-76086321D01*
X135648588Y-75985306D01*
X135648588Y-75917962D01*
X135682260Y-75816947D01*
X136524054Y-74975153D02*
X136389367Y-75109840D01*
X136355695Y-75210855D01*
X136355695Y-75278199D01*
X136389367Y-75446558D01*
X136490382Y-75614916D01*
X136759756Y-75884290D01*
X136860771Y-75917962D01*
X136928115Y-75917962D01*
X137029130Y-75884290D01*
X137163817Y-75749603D01*
X137197489Y-75648588D01*
X137197489Y-75581245D01*
X137163817Y-75480229D01*
X136995458Y-75311871D01*
X136894443Y-75278199D01*
X136827099Y-75278199D01*
X136726084Y-75311871D01*
X136591397Y-75446558D01*
X136557725Y-75547573D01*
X136557725Y-75614916D01*
X136591397Y-75715932D01*
X138140298Y-74773123D02*
X137668893Y-74301718D01*
X137736237Y-74369062D02*
X137736237Y-74301718D01*
X137769908Y-74200703D01*
X137870924Y-74099688D01*
X137971939Y-74066016D01*
X138072954Y-74099688D01*
X138443343Y-74470077D01*
X138072954Y-74099688D02*
X138039282Y-73998672D01*
X138072954Y-73897657D01*
X138173969Y-73796642D01*
X138274985Y-73762970D01*
X138376000Y-73796642D01*
X138746389Y-74167031D01*
X139083107Y-73830314D02*
X138611702Y-73358909D01*
X138679046Y-73426253D02*
X138679046Y-73358909D01*
X138712717Y-73257894D01*
X138813733Y-73156878D01*
X138914748Y-73123207D01*
X139015763Y-73156878D01*
X139386153Y-73527268D01*
X139015763Y-73156878D02*
X138982092Y-73055863D01*
X139015763Y-72954848D01*
X139116779Y-72853833D01*
X139217794Y-72820161D01*
X139318809Y-72853833D01*
X139689198Y-73224222D01*
X137646447Y-89646447D02*
X130535340Y-82535340D01*
X149646447Y-77646447D02*
X142535340Y-70535340D01*
X130950001Y-82950001D02*
X142950001Y-70950001D01*
X130950001Y-82950001D02*
X142950001Y-70950001D01*
X130950001Y-82950001D02*
X132161221Y-82568105D01*
X130950001Y-82950001D02*
X131331897Y-81738781D01*
X142950001Y-70950001D02*
X141738781Y-71331897D01*
X142950001Y-70950001D02*
X142568105Y-72161221D01*
X132854848Y-101420953D02*
X132450787Y-101016892D01*
X132652817Y-101218923D02*
X133359924Y-100511816D01*
X133191565Y-100545488D01*
X133056878Y-100545488D01*
X132955863Y-100511816D01*
X134168046Y-101319938D02*
X134033359Y-101185251D01*
X133932344Y-101151579D01*
X133865001Y-101151579D01*
X133696642Y-101185251D01*
X133528283Y-101286266D01*
X133258909Y-101555640D01*
X133225237Y-101656656D01*
X133225237Y-101723999D01*
X133258909Y-101825014D01*
X133393596Y-101959701D01*
X133494611Y-101993373D01*
X133561955Y-101993373D01*
X133662970Y-101959701D01*
X133831329Y-101791343D01*
X133865001Y-101690327D01*
X133865001Y-101622984D01*
X133831329Y-101521969D01*
X133696642Y-101387282D01*
X133595627Y-101353610D01*
X133528283Y-101353610D01*
X133427268Y-101387282D01*
X133898672Y-102397434D02*
X133865001Y-102431106D01*
X133763985Y-102464778D01*
X133696642Y-102464778D01*
X134201718Y-102767823D02*
X134336405Y-102902510D01*
X134437420Y-102936182D01*
X134504764Y-102936182D01*
X134673123Y-102902510D01*
X134841481Y-102801495D01*
X135110855Y-102532121D01*
X135144527Y-102431106D01*
X135144527Y-102363762D01*
X135110855Y-102262747D01*
X134976168Y-102128060D01*
X134875153Y-102094388D01*
X134807810Y-102094388D01*
X134706794Y-102128060D01*
X134538436Y-102296419D01*
X134504764Y-102397434D01*
X134504764Y-102464778D01*
X134538436Y-102565793D01*
X134673123Y-102700480D01*
X134774138Y-102734152D01*
X134841481Y-102734152D01*
X134942497Y-102700480D01*
X135481245Y-102633136D02*
X135952649Y-103104541D01*
X134942497Y-103508602D01*
X136356710Y-103508602D02*
X136424054Y-103575945D01*
X136457725Y-103676961D01*
X136457725Y-103744304D01*
X136424054Y-103845319D01*
X136323038Y-104013678D01*
X136154680Y-104182037D01*
X135986321Y-104283052D01*
X135885306Y-104316724D01*
X135817962Y-104316724D01*
X135716947Y-104283052D01*
X135649603Y-104215709D01*
X135615932Y-104114693D01*
X135615932Y-104047350D01*
X135649603Y-103946335D01*
X135750619Y-103777976D01*
X135918977Y-103609617D01*
X136087336Y-103508602D01*
X136188351Y-103474930D01*
X136255695Y-103474930D01*
X136356710Y-103508602D01*
X137198504Y-104350396D02*
X137063817Y-104215709D01*
X136962802Y-104182037D01*
X136895458Y-104182037D01*
X136727099Y-104215709D01*
X136558741Y-104316724D01*
X136289367Y-104586098D01*
X136255695Y-104687113D01*
X136255695Y-104754457D01*
X136289367Y-104855472D01*
X136424054Y-104990159D01*
X136525069Y-105023831D01*
X136592412Y-105023831D01*
X136693428Y-104990159D01*
X136861786Y-104821800D01*
X136895458Y-104720785D01*
X136895458Y-104653441D01*
X136861786Y-104552426D01*
X136727099Y-104417739D01*
X136626084Y-104384067D01*
X136558741Y-104384067D01*
X136457725Y-104417739D01*
X137400534Y-105966640D02*
X137871939Y-105495235D01*
X137804595Y-105562579D02*
X137871939Y-105562579D01*
X137972954Y-105596250D01*
X138073969Y-105697266D01*
X138107641Y-105798281D01*
X138073969Y-105899296D01*
X137703580Y-106269685D01*
X138073969Y-105899296D02*
X138174985Y-105865624D01*
X138276000Y-105899296D01*
X138377015Y-106000311D01*
X138410687Y-106101327D01*
X138377015Y-106202342D01*
X138006626Y-106572731D01*
X138343343Y-106909449D02*
X138814748Y-106438044D01*
X138747404Y-106505388D02*
X138814748Y-106505388D01*
X138915763Y-106539059D01*
X139016779Y-106640075D01*
X139050450Y-106741090D01*
X139016779Y-106842105D01*
X138646389Y-107212495D01*
X139016779Y-106842105D02*
X139117794Y-106808434D01*
X139218809Y-106842105D01*
X139319824Y-106943121D01*
X139353496Y-107044136D01*
X139319824Y-107145151D01*
X138949435Y-107515540D01*
X137646447Y-90353553D02*
X130435340Y-97564660D01*
X149646447Y-102353553D02*
X142435340Y-109564660D01*
X130850001Y-97149999D02*
X142850001Y-109149999D01*
X130850001Y-97149999D02*
X142850001Y-109149999D01*
X130850001Y-97149999D02*
X131231897Y-98361219D01*
X130850001Y-97149999D02*
X132061221Y-97531895D01*
X142850001Y-109149999D02*
X142468105Y-107938779D01*
X142850001Y-109149999D02*
X141638781Y-108768103D01*
X141200000Y-90000000D02*
G75*
G03*
X141200000Y-90000000I-3200000J0D01*
G01*
X153200000Y-102000000D02*
G75*
G03*
X153200000Y-102000000I-3200000J0D01*
G01*
X147700000Y-84400000D02*
G75*
G03*
X147700000Y-84400000I-2200000J0D01*
G01*
X153200000Y-78000000D02*
G75*
G03*
X153200000Y-78000000I-3200000J0D01*
G01*
X156700000Y-95400000D02*
G75*
G03*
X156700000Y-95400000I-2200000J0D01*
G01*
X147700000Y-95400000D02*
G75*
G03*
X147700000Y-95400000I-2200000J0D01*
G01*
X156700000Y-84400000D02*
G75*
G03*
X156700000Y-84400000I-2200000J0D01*
G01*
M02*
