G04 #@! TF.GenerationSoftware,KiCad,Pcbnew,(5.99.0-6591-gee6c8b60ac)*
G04 #@! TF.CreationDate,2020-11-10T06:43:54+01:00*
G04 #@! TF.ProjectId,QFHBAL01,51464842-414c-4303-912e-6b696361645f,rev?*
G04 #@! TF.SameCoordinates,Original*
G04 #@! TF.FileFunction,Legend,Bot*
G04 #@! TF.FilePolarity,Positive*
%FSLAX46Y46*%
G04 Gerber Fmt 4.6, Leading zero omitted, Abs format (unit mm)*
G04 Created by KiCad (PCBNEW (5.99.0-6591-gee6c8b60ac)) date 2020-11-10 06:43:54*
%MOMM*%
%LPD*%
G01*
G04 APERTURE LIST*
%ADD10C,0.120000*%
%ADD11C,0.150000*%
%ADD12C,0.080000*%
G04 APERTURE END LIST*
D10*
X141700000Y-90750000D02*
G75*
G03*
X141700000Y-89950000I0J400000D01*
G01*
X143100000Y-89150000D02*
G75*
G03*
X143100000Y-89950000I0J-400000D01*
G01*
X143100000Y-88350000D02*
G75*
G03*
X143100000Y-89150000I0J-400000D01*
G01*
X141700000Y-89150000D02*
G75*
G03*
X141700000Y-88350000I0J400000D01*
G01*
X143100000Y-88350000D02*
X145800000Y-88350000D01*
X142300000Y-88350000D02*
X142300000Y-88350000D01*
X142300000Y-88350000D02*
X142300000Y-91550000D01*
X142300000Y-91550000D02*
X142300000Y-91550000D01*
X142300000Y-91550000D02*
X142300000Y-88350000D01*
X145200000Y-88050000D02*
G75*
G02*
X145200000Y-88650000I796358J-300000D01*
G01*
X141700000Y-92597348D02*
X143800000Y-94697348D01*
X143100000Y-90750000D02*
G75*
G03*
X143100000Y-91550000I0J-400000D01*
G01*
X141650000Y-88347348D02*
X141650000Y-87347348D01*
X145947349Y-91550000D02*
X145947349Y-89250000D01*
X141500000Y-88650000D02*
G75*
G03*
X141500000Y-88650000I-100000J0D01*
G01*
X143100000Y-89950000D02*
G75*
G03*
X143100000Y-90750000I0J-400000D01*
G01*
X142500000Y-91550000D02*
X142500000Y-91550000D01*
X142500000Y-91550000D02*
X142500000Y-88350000D01*
X142500000Y-88350000D02*
X142500000Y-88350000D01*
X142500000Y-88350000D02*
X142500000Y-91550000D01*
X146200000Y-88350000D02*
G75*
G03*
X146200000Y-88350000I-200000J0D01*
G01*
X141700000Y-92597348D02*
X141700000Y-91597348D01*
X141650000Y-87347348D02*
X143750000Y-85247348D01*
X141500000Y-91250000D02*
G75*
G03*
X141500000Y-91250000I-100000J0D01*
G01*
X141700000Y-89950000D02*
G75*
G03*
X141700000Y-89150000I0J400000D01*
G01*
X141700000Y-91550000D02*
G75*
G03*
X141700000Y-90750000I0J400000D01*
G01*
X141650000Y-87347348D02*
X139550000Y-85247348D01*
X143100000Y-91550000D02*
X145947349Y-91550000D01*
X141700000Y-92597348D02*
X139600000Y-94697348D01*
D11*
X153348914Y-98490019D02*
X153444152Y-98442400D01*
X153539390Y-98347161D01*
X153682247Y-98204304D01*
X153777485Y-98156685D01*
X153872723Y-98156685D01*
X153825104Y-98394780D02*
X153920342Y-98347161D01*
X154015580Y-98251923D01*
X154063200Y-98061447D01*
X154063200Y-97728114D01*
X154015580Y-97537638D01*
X153920342Y-97442400D01*
X153825104Y-97394780D01*
X153634628Y-97394780D01*
X153539390Y-97442400D01*
X153444152Y-97537638D01*
X153396533Y-97728114D01*
X153396533Y-98061447D01*
X153444152Y-98251923D01*
X153539390Y-98347161D01*
X153634628Y-98394780D01*
X153825104Y-98394780D01*
X152634628Y-97870971D02*
X152967961Y-97870971D01*
X152967961Y-98394780D02*
X152967961Y-97394780D01*
X152491771Y-97394780D01*
X152110819Y-98394780D02*
X152110819Y-97394780D01*
X152110819Y-97870971D02*
X151539390Y-97870971D01*
X151539390Y-98394780D02*
X151539390Y-97394780D01*
X150729866Y-97870971D02*
X150587009Y-97918590D01*
X150539390Y-97966209D01*
X150491771Y-98061447D01*
X150491771Y-98204304D01*
X150539390Y-98299542D01*
X150587009Y-98347161D01*
X150682247Y-98394780D01*
X151063200Y-98394780D01*
X151063200Y-97394780D01*
X150729866Y-97394780D01*
X150634628Y-97442400D01*
X150587009Y-97490019D01*
X150539390Y-97585257D01*
X150539390Y-97680495D01*
X150587009Y-97775733D01*
X150634628Y-97823352D01*
X150729866Y-97870971D01*
X151063200Y-97870971D01*
X150110819Y-98109066D02*
X149634628Y-98109066D01*
X150206057Y-98394780D02*
X149872723Y-97394780D01*
X149539390Y-98394780D01*
X148729866Y-98394780D02*
X149206057Y-98394780D01*
X149206057Y-97394780D01*
X148206057Y-97394780D02*
X148110819Y-97394780D01*
X148015580Y-97442400D01*
X147967961Y-97490019D01*
X147920342Y-97585257D01*
X147872723Y-97775733D01*
X147872723Y-98013828D01*
X147920342Y-98204304D01*
X147967961Y-98299542D01*
X148015580Y-98347161D01*
X148110819Y-98394780D01*
X148206057Y-98394780D01*
X148301295Y-98347161D01*
X148348914Y-98299542D01*
X148396533Y-98204304D01*
X148444152Y-98013828D01*
X148444152Y-97775733D01*
X148396533Y-97585257D01*
X148348914Y-97490019D01*
X148301295Y-97442400D01*
X148206057Y-97394780D01*
X146920342Y-98394780D02*
X147491771Y-98394780D01*
X147206057Y-98394780D02*
X147206057Y-97394780D01*
X147301295Y-97537638D01*
X147396533Y-97632876D01*
X147491771Y-97680495D01*
X146539390Y-98109066D02*
X146063200Y-98109066D01*
X146634628Y-98394780D02*
X146301295Y-97394780D01*
X145967961Y-98394780D01*
X141236450Y-96571969D02*
X141169106Y-96706656D01*
X141000748Y-96875015D01*
X140899732Y-96908687D01*
X140832389Y-96908687D01*
X140731374Y-96875015D01*
X140664030Y-96807671D01*
X140630358Y-96706656D01*
X140630358Y-96639312D01*
X140664030Y-96538297D01*
X140765045Y-96369938D01*
X140798717Y-96268923D01*
X140798717Y-96201580D01*
X140765045Y-96100564D01*
X140697702Y-96033221D01*
X140596687Y-95999549D01*
X140529343Y-95999549D01*
X140428328Y-96033221D01*
X140259969Y-96201580D01*
X140192625Y-96336267D01*
X140226297Y-97649465D02*
X140563015Y-97312748D01*
X139855908Y-96605641D01*
X156832050Y-79249169D02*
X156764706Y-79383856D01*
X156596348Y-79552215D01*
X156495332Y-79585887D01*
X156427989Y-79585887D01*
X156326974Y-79552215D01*
X156259630Y-79484871D01*
X156225958Y-79383856D01*
X156225958Y-79316512D01*
X156259630Y-79215497D01*
X156360645Y-79047138D01*
X156394317Y-78946123D01*
X156394317Y-78878780D01*
X156360645Y-78777764D01*
X156293302Y-78710421D01*
X156192287Y-78676749D01*
X156124943Y-78676749D01*
X156023928Y-78710421D01*
X155855569Y-78878780D01*
X155788225Y-79013467D01*
X155821897Y-80326665D02*
X156158615Y-79989948D01*
X155451508Y-79282841D01*
D12*
X140885428Y-88254761D02*
X140885428Y-88388095D01*
X141094952Y-88445238D02*
X141094952Y-88254761D01*
X140694952Y-88254761D01*
X140694952Y-88445238D01*
X140694952Y-88559523D02*
X140694952Y-88788095D01*
X141094952Y-88673809D02*
X140694952Y-88673809D01*
X141056857Y-89150000D02*
X141075904Y-89130952D01*
X141094952Y-89073809D01*
X141094952Y-89035714D01*
X141075904Y-88978571D01*
X141037809Y-88940476D01*
X140999714Y-88921428D01*
X140923523Y-88902380D01*
X140866380Y-88902380D01*
X140790190Y-88921428D01*
X140752095Y-88940476D01*
X140714000Y-88978571D01*
X140694952Y-89035714D01*
X140694952Y-89073809D01*
X140714000Y-89130952D01*
X140733047Y-89150000D01*
X141094952Y-89530952D02*
X141094952Y-89302380D01*
X141094952Y-89416666D02*
X140694952Y-89416666D01*
X140752095Y-89378571D01*
X140790190Y-89340476D01*
X140809238Y-89302380D01*
X140942571Y-89702380D02*
X140942571Y-90007142D01*
X141094952Y-90407142D02*
X141094952Y-90178571D01*
X141094952Y-90292857D02*
X140694952Y-90292857D01*
X140752095Y-90254761D01*
X140790190Y-90216666D01*
X140809238Y-90178571D01*
X140942571Y-90578571D02*
X140942571Y-90883333D01*
X141094952Y-91283333D02*
X141094952Y-91054761D01*
X141094952Y-91169047D02*
X140694952Y-91169047D01*
X140752095Y-91130952D01*
X140790190Y-91092857D01*
X140809238Y-91054761D01*
X140694952Y-91416666D02*
X140694952Y-91664285D01*
X140847333Y-91530952D01*
X140847333Y-91588095D01*
X140866380Y-91626190D01*
X140885428Y-91645238D01*
X140923523Y-91664285D01*
X141018761Y-91664285D01*
X141056857Y-91645238D01*
X141075904Y-91626190D01*
X141094952Y-91588095D01*
X141094952Y-91473809D01*
X141075904Y-91435714D01*
X141056857Y-91416666D01*
D11*
X143460661Y-79330425D02*
X143797379Y-79667142D01*
X144504486Y-78960035D01*
X142888242Y-78758005D02*
X143224959Y-79094722D01*
X143932066Y-78387616D01*
X159208661Y-97059625D02*
X159545379Y-97396342D01*
X160252486Y-96689235D01*
X158636242Y-96487205D02*
X158972959Y-96823922D01*
X159680066Y-96116816D01*
X149442419Y-90627104D02*
X149442419Y-90055676D01*
X148442419Y-90341390D02*
X149442419Y-90341390D01*
X149347180Y-89769961D02*
X149394800Y-89722342D01*
X149442419Y-89627104D01*
X149442419Y-89389009D01*
X149394800Y-89293771D01*
X149347180Y-89246152D01*
X149251942Y-89198533D01*
X149156704Y-89198533D01*
X149013847Y-89246152D01*
X148442419Y-89817580D01*
X148442419Y-89198533D01*
D10*
X151400000Y-88300000D02*
X152600000Y-88300000D01*
X149900000Y-91500000D02*
X149900000Y-88300000D01*
X150100000Y-88300000D02*
X150100000Y-87500000D01*
X154100000Y-88300000D02*
X154100000Y-91500000D01*
X149900000Y-88300000D02*
X150100000Y-88300000D01*
X153900000Y-88300000D02*
X154100000Y-88300000D01*
X154100000Y-91500000D02*
X153900000Y-91500000D01*
X150100000Y-91500000D02*
X149900000Y-91500000D01*
M02*
