  0
SECTION
  2
HEADER
  9
$ANGBASE
  50
0.0
  9
$ANGDIR
  70
1
  9
$MEASUREMENT
  70
1
  0
ENDSEC
  0
SECTION
  2
TABLES
  0
TABLE
  2
LTYPE
  70
4
  0
LTYPE
  5
40F
  2
CONTINUOUS
  70
0
  3
Solid line
  72
65
  73
0
  40
0.0
  0
LTYPE
  5
410
  2
DASHDOT
 70
0
  3
Dash Dot ____ _ ____ _
 72
65
 73
4
 40
2.0
 49
1.25
 49
-0.25
 49
0.25
 49
-0.25
  0
LTYPE
  5
411
  2
DASHED
 70
0
  3
Dashed __ __ __ __ __
 72
65
 73
2
 40
0.75
 49
0.5
 49
-0.25
  0
LTYPE
  5
43B
  2
DOTTED
 70
0
  3
Dotted .  .  .  .
 72
65
 73
2
 40
0.2
 49
0.0
 49
-0.2
  0
ENDTAB
  0
TABLE
  2
STYLE
  70
4
  0
STYLE
  2
KICAD
  70
0
  40
0
  41
1
  42
1
  50
0
  71
0
  3
isocp.shx
  0
STYLE
  2
KICADB
  70
0
  40
0
  41
1
  42
1
  50
0
  71
0
  3
isocp.shx
  0
STYLE
  2
KICADI
  70
0
  40
0
  41
1
  42
1
  50
15
  71
0
  3
isocp.shx
  0
STYLE
  2
KICADBI
  70
0
  40
0
  41
1
  42
1
  50
15
  71
0
  3
isocp.shx
  0
ENDTAB
  0
TABLE
  2
LAYER
  70
1
  0
LAYER
  2
BLACK
  70
0
  62
7
  6
CONTINUOUS
  0
ENDTAB
  0
ENDSEC
  0
SECTION
  2
ENTITIES
0
LINE
8
BLACK
6
CONTINUOUS
10
-18.1628
20
-3.45726
11
-18.1628
21
-2.83821
0
LINE
8
BLACK
6
CONTINUOUS
10
-18.1628
20
-2.83821
11
-17.7819
21
-3.17154
0
LINE
8
BLACK
6
CONTINUOUS
10
-17.7819
20
-3.17154
11
-17.7819
21
-3.02868
0
LINE
8
BLACK
6
CONTINUOUS
10
-17.7819
20
-3.02868
11
-17.7342
21
-2.93345
0
LINE
8
BLACK
6
CONTINUOUS
10
-17.7342
20
-2.93345
11
-17.6866
21
-2.88583
0
LINE
8
BLACK
6
CONTINUOUS
10
-17.6866
20
-2.88583
11
-17.5914
21
-2.83821
0
LINE
8
BLACK
6
CONTINUOUS
10
-17.5914
20
-2.83821
11
-17.3533
21
-2.83821
0
LINE
8
BLACK
6
CONTINUOUS
10
-17.3533
20
-2.83821
11
-17.2581
21
-2.88583
0
LINE
8
BLACK
6
CONTINUOUS
10
-17.2581
20
-2.88583
11
-17.2104
21
-2.93345
0
LINE
8
BLACK
6
CONTINUOUS
10
-17.2104
20
-2.93345
11
-17.1628
21
-3.02868
0
LINE
8
BLACK
6
CONTINUOUS
10
-17.1628
20
-3.02868
11
-17.1628
21
-3.3144
0
LINE
8
BLACK
6
CONTINUOUS
10
-17.1628
20
-3.3144
11
-17.2104
21
-3.40964
0
LINE
8
BLACK
6
CONTINUOUS
10
-17.2104
20
-3.40964
11
-17.2581
21
-3.45726
0
LINE
8
BLACK
6
CONTINUOUS
10
-17.1628
20
-2.50488
11
-17.8295
21
-1.98107
0
LINE
8
BLACK
6
CONTINUOUS
10
-17.8295
20
-2.50488
11
-17.1628
21
-1.98107
0
LINE
8
BLACK
6
CONTINUOUS
10
-18.1628
20
-0.933447
11
-18.1628
21
-0.3144
0
LINE
8
BLACK
6
CONTINUOUS
10
-18.1628
20
-0.3144
11
-17.7819
21
-0.647733
0
LINE
8
BLACK
6
CONTINUOUS
10
-17.7819
20
-0.647733
11
-17.7819
21
-0.504876
0
LINE
8
BLACK
6
CONTINUOUS
10
-17.7819
20
-0.504876
11
-17.7342
21
-0.409638
0
LINE
8
BLACK
6
CONTINUOUS
10
-17.7342
20
-0.409638
11
-17.6866
21
-0.362019
0
LINE
8
BLACK
6
CONTINUOUS
10
-17.6866
20
-0.362019
11
-17.5914
21
-0.3144
0
LINE
8
BLACK
6
CONTINUOUS
10
-17.5914
20
-0.3144
11
-17.3533
21
-0.3144
0
LINE
8
BLACK
6
CONTINUOUS
10
-17.3533
20
-0.3144
11
-17.2581
21
-0.362019
0
LINE
8
BLACK
6
CONTINUOUS
10
-17.2581
20
-0.362019
11
-17.2104
21
-0.409638
0
LINE
8
BLACK
6
CONTINUOUS
10
-17.2104
20
-0.409638
11
-17.1628
21
-0.504876
0
LINE
8
BLACK
6
CONTINUOUS
10
-17.1628
20
-0.504876
11
-17.1628
21
-0.79059
0
LINE
8
BLACK
6
CONTINUOUS
10
-17.1628
20
-0.79059
11
-17.2104
21
-0.885828
0
LINE
8
BLACK
6
CONTINUOUS
10
-17.2104
20
-0.885828
11
-17.2581
21
-0.933447
0
LINE
8
BLACK
6
CONTINUOUS
10
-17.2581
20
0.114172
11
-17.2104
21
0.161791
0
LINE
8
BLACK
6
CONTINUOUS
10
-17.2104
20
0.161791
11
-17.1628
21
0.114172
0
LINE
8
BLACK
6
CONTINUOUS
10
-17.1628
20
0.114172
11
-17.2104
21
0.066553
0
LINE
8
BLACK
6
CONTINUOUS
10
-17.2104
20
0.066553
11
-17.2581
21
0.114172
0
LINE
8
BLACK
6
CONTINUOUS
10
-17.2581
20
0.114172
11
-17.1628
21
0.114172
0
LINE
8
BLACK
6
CONTINUOUS
10
-18.0676
20
0.542743
11
-18.1152
21
0.590362
0
LINE
8
BLACK
6
CONTINUOUS
10
-18.1152
20
0.590362
11
-18.1628
21
0.6856
0
LINE
8
BLACK
6
CONTINUOUS
10
-18.1628
20
0.6856
11
-18.1628
21
0.923696
0
LINE
8
BLACK
6
CONTINUOUS
10
-18.1628
20
0.923696
11
-18.1152
21
1.01893
0
LINE
8
BLACK
6
CONTINUOUS
10
-18.1152
20
1.01893
11
-18.0676
21
1.06655
0
LINE
8
BLACK
6
CONTINUOUS
10
-18.0676
20
1.06655
11
-17.9723
21
1.11417
0
LINE
8
BLACK
6
CONTINUOUS
10
-17.9723
20
1.11417
11
-17.8771
21
1.11417
0
LINE
8
BLACK
6
CONTINUOUS
10
-17.8771
20
1.11417
11
-17.7342
21
1.06655
0
LINE
8
BLACK
6
CONTINUOUS
10
-17.7342
20
1.06655
11
-17.1628
21
0.495124
0
LINE
8
BLACK
6
CONTINUOUS
10
-17.1628
20
0.495124
11
-17.1628
21
1.11417
0
LINE
8
BLACK
6
CONTINUOUS
10
-17.1628
20
1.54274
11
-17.8295
21
1.54274
0
LINE
8
BLACK
6
CONTINUOUS
10
-17.7342
20
1.54274
11
-17.7819
21
1.59036
0
LINE
8
BLACK
6
CONTINUOUS
10
-17.7819
20
1.59036
11
-17.8295
21
1.6856
0
LINE
8
BLACK
6
CONTINUOUS
10
-17.8295
20
1.6856
11
-17.8295
21
1.82846
0
LINE
8
BLACK
6
CONTINUOUS
10
-17.8295
20
1.82846
11
-17.7819
21
1.9237
0
LINE
8
BLACK
6
CONTINUOUS
10
-17.7819
20
1.9237
11
-17.6866
21
1.97131
0
LINE
8
BLACK
6
CONTINUOUS
10
-17.6866
20
1.97131
11
-17.1628
21
1.97131
0
LINE
8
BLACK
6
CONTINUOUS
10
-17.6866
20
1.97131
11
-17.7819
21
2.01893
0
LINE
8
BLACK
6
CONTINUOUS
10
-17.7819
20
2.01893
11
-17.8295
21
2.11417
0
LINE
8
BLACK
6
CONTINUOUS
10
-17.8295
20
2.11417
11
-17.8295
21
2.25703
0
LINE
8
BLACK
6
CONTINUOUS
10
-17.8295
20
2.25703
11
-17.7819
21
2.35227
0
LINE
8
BLACK
6
CONTINUOUS
10
-17.7819
20
2.35227
11
-17.6866
21
2.39989
0
LINE
8
BLACK
6
CONTINUOUS
10
-17.6866
20
2.39989
11
-17.1628
21
2.39989
0
LINE
8
BLACK
6
CONTINUOUS
10
-17.1628
20
2.87608
11
-17.8295
21
2.87608
0
LINE
8
BLACK
6
CONTINUOUS
10
-17.7342
20
2.87608
11
-17.7819
21
2.9237
0
LINE
8
BLACK
6
CONTINUOUS
10
-17.7819
20
2.9237
11
-17.8295
21
3.01893
0
LINE
8
BLACK
6
CONTINUOUS
10
-17.8295
20
3.01893
11
-17.8295
21
3.16179
0
LINE
8
BLACK
6
CONTINUOUS
10
-17.8295
20
3.16179
11
-17.7819
21
3.25703
0
LINE
8
BLACK
6
CONTINUOUS
10
-17.7819
20
3.25703
11
-17.6866
21
3.30465
0
LINE
8
BLACK
6
CONTINUOUS
10
-17.6866
20
3.30465
11
-17.1628
21
3.30465
0
LINE
8
BLACK
6
CONTINUOUS
10
-17.6866
20
3.30465
11
-17.7819
21
3.35227
0
LINE
8
BLACK
6
CONTINUOUS
10
-17.7819
20
3.35227
11
-17.8295
21
3.44751
0
LINE
8
BLACK
6
CONTINUOUS
10
-17.8295
20
3.44751
11
-17.8295
21
3.59036
0
LINE
8
BLACK
6
CONTINUOUS
10
-17.8295
20
3.59036
11
-17.7819
21
3.6856
0
LINE
8
BLACK
6
CONTINUOUS
10
-17.7819
20
3.6856
11
-17.6866
21
3.73322
0
LINE
8
BLACK
6
CONTINUOUS
10
-17.6866
20
3.73322
11
-17.1628
21
3.73322
0
LINE
8
BLACK
6
CONTINUOUS
10
25.728
20
-4.91928
11
25.2518
21
-5.25261
0
LINE
8
BLACK
6
CONTINUOUS
10
25.728
20
-5.4907
11
24.728
21
-5.4907
0
LINE
8
BLACK
6
CONTINUOUS
10
24.728
20
-5.4907
11
24.728
21
-5.10975
0
LINE
8
BLACK
6
CONTINUOUS
10
24.728
20
-5.10975
11
24.7756
21
-5.01451
0
LINE
8
BLACK
6
CONTINUOUS
10
24.7756
20
-5.01451
11
24.8232
21
-4.9669
0
LINE
8
BLACK
6
CONTINUOUS
10
24.8232
20
-4.9669
11
24.9185
21
-4.91928
0
LINE
8
BLACK
6
CONTINUOUS
10
24.9185
20
-4.91928
11
25.0613
21
-4.91928
0
LINE
8
BLACK
6
CONTINUOUS
10
25.0613
20
-4.91928
11
25.1566
21
-4.9669
0
LINE
8
BLACK
6
CONTINUOUS
10
25.1566
20
-4.9669
11
25.2042
21
-5.01451
0
LINE
8
BLACK
6
CONTINUOUS
10
25.2042
20
-5.01451
11
25.2518
21
-5.10975
0
LINE
8
BLACK
6
CONTINUOUS
10
25.2518
20
-5.10975
11
25.2518
21
-5.4907
0
LINE
8
BLACK
6
CONTINUOUS
10
25.2042
20
-4.15737
11
25.2042
21
-4.4907
0
LINE
8
BLACK
6
CONTINUOUS
10
25.728
20
-4.4907
11
24.728
21
-4.4907
0
LINE
8
BLACK
6
CONTINUOUS
10
24.728
20
-4.4907
11
24.728
21
-4.01451
0
LINE
8
BLACK
6
CONTINUOUS
10
25.6804
20
-2.44308
11
25.728
21
-2.53832
0
LINE
8
BLACK
6
CONTINUOUS
10
25.728
20
-2.53832
11
25.728
21
-2.7288
0
LINE
8
BLACK
6
CONTINUOUS
10
25.728
20
-2.7288
11
25.6804
21
-2.82404
0
LINE
8
BLACK
6
CONTINUOUS
10
25.6804
20
-2.82404
11
25.6327
21
-2.87166
0
LINE
8
BLACK
6
CONTINUOUS
10
25.6327
20
-2.87166
11
25.5375
21
-2.91928
0
LINE
8
BLACK
6
CONTINUOUS
10
25.5375
20
-2.91928
11
25.2518
21
-2.91928
0
LINE
8
BLACK
6
CONTINUOUS
10
25.2518
20
-2.91928
11
25.1566
21
-2.87166
0
LINE
8
BLACK
6
CONTINUOUS
10
25.1566
20
-2.87166
11
25.1089
21
-2.82404
0
LINE
8
BLACK
6
CONTINUOUS
10
25.1089
20
-2.82404
11
25.0613
21
-2.7288
0
LINE
8
BLACK
6
CONTINUOUS
10
25.0613
20
-2.7288
11
25.0613
21
-2.53832
0
LINE
8
BLACK
6
CONTINUOUS
10
25.0613
20
-2.53832
11
25.1089
21
-2.44308
0
LINE
8
BLACK
6
CONTINUOUS
10
25.728
20
-1.87166
11
25.6804
21
-1.96689
0
LINE
8
BLACK
6
CONTINUOUS
10
25.6804
20
-1.96689
11
25.6327
21
-2.01451
0
LINE
8
BLACK
6
CONTINUOUS
10
25.6327
20
-2.01451
11
25.5375
21
-2.06213
0
LINE
8
BLACK
6
CONTINUOUS
10
25.5375
20
-2.06213
11
25.2518
21
-2.06213
0
LINE
8
BLACK
6
CONTINUOUS
10
25.2518
20
-2.06213
11
25.1566
21
-2.01451
0
LINE
8
BLACK
6
CONTINUOUS
10
25.1566
20
-2.01451
11
25.1089
21
-1.96689
0
LINE
8
BLACK
6
CONTINUOUS
10
25.1089
20
-1.96689
11
25.0613
21
-1.87166
0
LINE
8
BLACK
6
CONTINUOUS
10
25.0613
20
-1.87166
11
25.0613
21
-1.7288
0
LINE
8
BLACK
6
CONTINUOUS
10
25.0613
20
-1.7288
11
25.1089
21
-1.63356
0
LINE
8
BLACK
6
CONTINUOUS
10
25.1089
20
-1.63356
11
25.1566
21
-1.58594
0
LINE
8
BLACK
6
CONTINUOUS
10
25.1566
20
-1.58594
11
25.2518
21
-1.53832
0
LINE
8
BLACK
6
CONTINUOUS
10
25.2518
20
-1.53832
11
25.5375
21
-1.53832
0
LINE
8
BLACK
6
CONTINUOUS
10
25.5375
20
-1.53832
11
25.6327
21
-1.58594
0
LINE
8
BLACK
6
CONTINUOUS
10
25.6327
20
-1.58594
11
25.6804
21
-1.63356
0
LINE
8
BLACK
6
CONTINUOUS
10
25.6804
20
-1.63356
11
25.728
21
-1.7288
0
LINE
8
BLACK
6
CONTINUOUS
10
25.728
20
-1.7288
11
25.728
21
-1.87166
0
LINE
8
BLACK
6
CONTINUOUS
10
25.0613
20
-1.10975
11
25.728
21
-1.10975
0
LINE
8
BLACK
6
CONTINUOUS
10
25.1566
20
-1.10975
11
25.1089
21
-1.06213
0
LINE
8
BLACK
6
CONTINUOUS
10
25.1089
20
-1.06213
11
25.0613
21
-0.966895
0
LINE
8
BLACK
6
CONTINUOUS
10
25.0613
20
-0.966895
11
25.0613
21
-0.824038
0
LINE
8
BLACK
6
CONTINUOUS
10
25.0613
20
-0.824038
11
25.1089
21
-0.7288
0
LINE
8
BLACK
6
CONTINUOUS
10
25.1089
20
-0.7288
11
25.2042
21
-0.68118
0
LINE
8
BLACK
6
CONTINUOUS
10
25.2042
20
-0.68118
11
25.728
21
-0.68118
0
LINE
8
BLACK
6
CONTINUOUS
10
25.0613
20
-0.20499
11
25.728
21
-0.20499
0
LINE
8
BLACK
6
CONTINUOUS
10
25.1566
20
-0.20499
11
25.1089
21
-0.157371
0
LINE
8
BLACK
6
CONTINUOUS
10
25.1089
20
-0.157371
11
25.0613
21
-0.062133
0
LINE
8
BLACK
6
CONTINUOUS
10
25.0613
20
-0.062133
11
25.0613
21
0.080724
0
LINE
8
BLACK
6
CONTINUOUS
10
25.0613
20
0.080724
11
25.1089
21
0.175962
0
LINE
8
BLACK
6
CONTINUOUS
10
25.1089
20
0.175962
11
25.2042
21
0.223581
0
LINE
8
BLACK
6
CONTINUOUS
10
25.2042
20
0.223581
11
25.728
21
0.223581
0
LINE
8
BLACK
6
CONTINUOUS
10
25.6804
20
1.08072
11
25.728
21
0.985486
0
LINE
8
BLACK
6
CONTINUOUS
10
25.728
20
0.985486
11
25.728
21
0.79501
0
LINE
8
BLACK
6
CONTINUOUS
10
25.728
20
0.79501
11
25.6804
21
0.699772
0
LINE
8
BLACK
6
CONTINUOUS
10
25.6804
20
0.699772
11
25.5851
21
0.652153
0
LINE
8
BLACK
6
CONTINUOUS
10
25.5851
20
0.652153
11
25.2042
21
0.652153
0
LINE
8
BLACK
6
CONTINUOUS
10
25.2042
20
0.652153
11
25.1089
21
0.699772
0
LINE
8
BLACK
6
CONTINUOUS
10
25.1089
20
0.699772
11
25.0613
21
0.79501
0
LINE
8
BLACK
6
CONTINUOUS
10
25.0613
20
0.79501
11
25.0613
21
0.985486
0
LINE
8
BLACK
6
CONTINUOUS
10
25.0613
20
0.985486
11
25.1089
21
1.08072
0
LINE
8
BLACK
6
CONTINUOUS
10
25.1089
20
1.08072
11
25.2042
21
1.12834
0
LINE
8
BLACK
6
CONTINUOUS
10
25.2042
20
1.12834
11
25.2994
21
1.12834
0
LINE
8
BLACK
6
CONTINUOUS
10
25.2994
20
1.12834
11
25.3946
21
0.652153
0
LINE
8
BLACK
6
CONTINUOUS
10
25.6804
20
1.98549
11
25.728
21
1.89025
0
LINE
8
BLACK
6
CONTINUOUS
10
25.728
20
1.89025
11
25.728
21
1.69977
0
LINE
8
BLACK
6
CONTINUOUS
10
25.728
20
1.69977
11
25.6804
21
1.60453
0
LINE
8
BLACK
6
CONTINUOUS
10
25.6804
20
1.60453
11
25.6327
21
1.55691
0
LINE
8
BLACK
6
CONTINUOUS
10
25.6327
20
1.55691
11
25.5375
21
1.5093
0
LINE
8
BLACK
6
CONTINUOUS
10
25.5375
20
1.5093
11
25.2518
21
1.5093
0
LINE
8
BLACK
6
CONTINUOUS
10
25.2518
20
1.5093
11
25.1566
21
1.55691
0
LINE
8
BLACK
6
CONTINUOUS
10
25.1566
20
1.55691
11
25.1089
21
1.60453
0
LINE
8
BLACK
6
CONTINUOUS
10
25.1089
20
1.60453
11
25.0613
21
1.69977
0
LINE
8
BLACK
6
CONTINUOUS
10
25.0613
20
1.69977
11
25.0613
21
1.89025
0
LINE
8
BLACK
6
CONTINUOUS
10
25.0613
20
1.89025
11
25.1089
21
1.98549
0
LINE
8
BLACK
6
CONTINUOUS
10
25.0613
20
2.2712
11
25.0613
21
2.65215
0
LINE
8
BLACK
6
CONTINUOUS
10
24.728
20
2.41406
11
25.5851
21
2.41406
0
LINE
8
BLACK
6
CONTINUOUS
10
25.5851
20
2.41406
11
25.6804
21
2.46168
0
LINE
8
BLACK
6
CONTINUOUS
10
25.6804
20
2.46168
11
25.728
21
2.55692
0
LINE
8
BLACK
6
CONTINUOUS
10
25.728
20
2.55692
11
25.728
21
2.65215
0
LINE
8
BLACK
6
CONTINUOUS
10
25.728
20
3.12834
11
25.6804
21
3.0331
0
LINE
8
BLACK
6
CONTINUOUS
10
25.6804
20
3.0331
11
25.6327
21
2.98549
0
LINE
8
BLACK
6
CONTINUOUS
10
25.6327
20
2.98549
11
25.5375
21
2.93787
0
LINE
8
BLACK
6
CONTINUOUS
10
25.5375
20
2.93787
11
25.2518
21
2.93787
0
LINE
8
BLACK
6
CONTINUOUS
10
25.2518
20
2.93787
11
25.1566
21
2.98549
0
LINE
8
BLACK
6
CONTINUOUS
10
25.1566
20
2.98549
11
25.1089
21
3.0331
0
LINE
8
BLACK
6
CONTINUOUS
10
25.1089
20
3.0331
11
25.0613
21
3.12834
0
LINE
8
BLACK
6
CONTINUOUS
10
25.0613
20
3.12834
11
25.0613
21
3.2712
0
LINE
8
BLACK
6
CONTINUOUS
10
25.0613
20
3.2712
11
25.1089
21
3.36644
0
LINE
8
BLACK
6
CONTINUOUS
10
25.1089
20
3.36644
11
25.1566
21
3.41406
0
LINE
8
BLACK
6
CONTINUOUS
10
25.1566
20
3.41406
11
25.2518
21
3.46168
0
LINE
8
BLACK
6
CONTINUOUS
10
25.2518
20
3.46168
11
25.5375
21
3.46168
0
LINE
8
BLACK
6
CONTINUOUS
10
25.5375
20
3.46168
11
25.6327
21
3.41406
0
LINE
8
BLACK
6
CONTINUOUS
10
25.6327
20
3.41406
11
25.6804
21
3.36644
0
LINE
8
BLACK
6
CONTINUOUS
10
25.6804
20
3.36644
11
25.728
21
3.2712
0
LINE
8
BLACK
6
CONTINUOUS
10
25.728
20
3.2712
11
25.728
21
3.12834
0
LINE
8
BLACK
6
CONTINUOUS
10
25.728
20
3.89025
11
25.0613
21
3.89025
0
LINE
8
BLACK
6
CONTINUOUS
10
25.2518
20
3.89025
11
25.1566
21
3.93787
0
LINE
8
BLACK
6
CONTINUOUS
10
25.1566
20
3.93787
11
25.1089
21
3.98549
0
LINE
8
BLACK
6
CONTINUOUS
10
25.1089
20
3.98549
11
25.0613
21
4.08072
0
LINE
8
BLACK
6
CONTINUOUS
10
25.0613
20
4.08072
11
25.0613
21
4.17596
0
LINE
8
BLACK
6
CONTINUOUS
10
27.338
20
-11.3955
11
26.6713
21
-11.3955
0
LINE
8
BLACK
6
CONTINUOUS
10
26.7666
20
-11.3955
11
26.7189
21
-11.3478
0
LINE
8
BLACK
6
CONTINUOUS
10
26.7189
20
-11.3478
11
26.6713
21
-11.2526
0
LINE
8
BLACK
6
CONTINUOUS
10
26.6713
20
-11.2526
11
26.6713
21
-11.1098
0
LINE
8
BLACK
6
CONTINUOUS
10
26.6713
20
-11.1098
11
26.7189
21
-11.0145
0
LINE
8
BLACK
6
CONTINUOUS
10
26.7189
20
-11.0145
11
26.8142
21
-10.9669
0
LINE
8
BLACK
6
CONTINUOUS
10
26.8142
20
-10.9669
11
27.338
21
-10.9669
0
LINE
8
BLACK
6
CONTINUOUS
10
26.8142
20
-10.9669
11
26.7189
21
-10.9193
0
LINE
8
BLACK
6
CONTINUOUS
10
26.7189
20
-10.9193
11
26.6713
21
-10.824
0
LINE
8
BLACK
6
CONTINUOUS
10
26.6713
20
-10.824
11
26.6713
21
-10.6812
0
LINE
8
BLACK
6
CONTINUOUS
10
26.6713
20
-10.6812
11
26.7189
21
-10.5859
0
LINE
8
BLACK
6
CONTINUOUS
10
26.7189
20
-10.5859
11
26.8142
21
-10.5383
0
LINE
8
BLACK
6
CONTINUOUS
10
26.8142
20
-10.5383
11
27.338
21
-10.5383
0
LINE
8
BLACK
6
CONTINUOUS
10
27.338
20
-10.0621
11
26.6713
21
-10.0621
0
LINE
8
BLACK
6
CONTINUOUS
10
26.338
20
-10.0621
11
26.3856
21
-10.1098
0
LINE
8
BLACK
6
CONTINUOUS
10
26.3856
20
-10.1098
11
26.4332
21
-10.0621
0
LINE
8
BLACK
6
CONTINUOUS
10
26.4332
20
-10.0621
11
26.3856
21
-10.0145
0
LINE
8
BLACK
6
CONTINUOUS
10
26.3856
20
-10.0145
11
26.338
21
-10.0621
0
LINE
8
BLACK
6
CONTINUOUS
10
26.338
20
-10.0621
11
26.4332
21
-10.0621
0
LINE
8
BLACK
6
CONTINUOUS
10
26.6713
20
-9.58594
11
27.338
21
-9.58594
0
LINE
8
BLACK
6
CONTINUOUS
10
26.7666
20
-9.58594
11
26.7189
21
-9.53832
0
LINE
8
BLACK
6
CONTINUOUS
10
26.7189
20
-9.53832
11
26.6713
21
-9.44308
0
LINE
8
BLACK
6
CONTINUOUS
10
26.6713
20
-9.44308
11
26.6713
21
-9.30023
0
LINE
8
BLACK
6
CONTINUOUS
10
26.6713
20
-9.30023
11
26.7189
21
-9.20499
0
LINE
8
BLACK
6
CONTINUOUS
10
26.7189
20
-9.20499
11
26.8142
21
-9.15737
0
LINE
8
BLACK
6
CONTINUOUS
10
26.8142
20
-9.15737
11
27.338
21
-9.15737
0
LINE
8
BLACK
6
CONTINUOUS
10
27.338
20
-8.68118
11
26.6713
21
-8.68118
0
LINE
8
BLACK
6
CONTINUOUS
10
26.338
20
-8.68118
11
26.3856
21
-8.7288
0
LINE
8
BLACK
6
CONTINUOUS
10
26.3856
20
-8.7288
11
26.4332
21
-8.68118
0
LINE
8
BLACK
6
CONTINUOUS
10
26.4332
20
-8.68118
11
26.3856
21
-8.63356
0
LINE
8
BLACK
6
CONTINUOUS
10
26.3856
20
-8.63356
11
26.338
21
-8.68118
0
LINE
8
BLACK
6
CONTINUOUS
10
26.338
20
-8.68118
11
26.4332
21
-8.68118
0
LINE
8
BLACK
6
CONTINUOUS
10
27.338
20
-8.20499
11
26.6713
21
-8.20499
0
LINE
8
BLACK
6
CONTINUOUS
10
26.7666
20
-8.20499
11
26.7189
21
-8.15737
0
LINE
8
BLACK
6
CONTINUOUS
10
26.7189
20
-8.15737
11
26.6713
21
-8.06213
0
LINE
8
BLACK
6
CONTINUOUS
10
26.6713
20
-8.06213
11
26.6713
21
-7.91928
0
LINE
8
BLACK
6
CONTINUOUS
10
26.6713
20
-7.91928
11
26.7189
21
-7.82404
0
LINE
8
BLACK
6
CONTINUOUS
10
26.7189
20
-7.82404
11
26.8142
21
-7.77642
0
LINE
8
BLACK
6
CONTINUOUS
10
26.8142
20
-7.77642
11
27.338
21
-7.77642
0
LINE
8
BLACK
6
CONTINUOUS
10
26.8142
20
-7.77642
11
26.7189
21
-7.7288
0
LINE
8
BLACK
6
CONTINUOUS
10
26.7189
20
-7.7288
11
26.6713
21
-7.63356
0
LINE
8
BLACK
6
CONTINUOUS
10
26.6713
20
-7.63356
11
26.6713
21
-7.4907
0
LINE
8
BLACK
6
CONTINUOUS
10
26.6713
20
-7.4907
11
26.7189
21
-7.39547
0
LINE
8
BLACK
6
CONTINUOUS
10
26.7189
20
-7.39547
11
26.8142
21
-7.34785
0
LINE
8
BLACK
6
CONTINUOUS
10
26.8142
20
-7.34785
11
27.338
21
-7.34785
0
LINE
8
BLACK
6
CONTINUOUS
10
26.6713
20
-6.44308
11
27.338
21
-6.44308
0
LINE
8
BLACK
6
CONTINUOUS
10
26.6713
20
-6.87166
11
27.1951
21
-6.87166
0
LINE
8
BLACK
6
CONTINUOUS
10
27.1951
20
-6.87166
11
27.2904
21
-6.82404
0
LINE
8
BLACK
6
CONTINUOUS
10
27.2904
20
-6.82404
11
27.338
21
-6.7288
0
LINE
8
BLACK
6
CONTINUOUS
10
27.338
20
-6.7288
11
27.338
21
-6.58594
0
LINE
8
BLACK
6
CONTINUOUS
10
27.338
20
-6.58594
11
27.2904
21
-6.4907
0
LINE
8
BLACK
6
CONTINUOUS
10
27.2904
20
-6.4907
11
27.2427
21
-6.44308
0
LINE
8
BLACK
6
CONTINUOUS
10
27.338
20
-5.9669
11
26.6713
21
-5.9669
0
LINE
8
BLACK
6
CONTINUOUS
10
26.7666
20
-5.9669
11
26.7189
21
-5.91928
0
LINE
8
BLACK
6
CONTINUOUS
10
26.7189
20
-5.91928
11
26.6713
21
-5.82404
0
LINE
8
BLACK
6
CONTINUOUS
10
26.6713
20
-5.82404
11
26.6713
21
-5.68118
0
LINE
8
BLACK
6
CONTINUOUS
10
26.6713
20
-5.68118
11
26.7189
21
-5.58594
0
LINE
8
BLACK
6
CONTINUOUS
10
26.7189
20
-5.58594
11
26.8142
21
-5.53832
0
LINE
8
BLACK
6
CONTINUOUS
10
26.8142
20
-5.53832
11
27.338
21
-5.53832
0
LINE
8
BLACK
6
CONTINUOUS
10
26.8142
20
-5.53832
11
26.7189
21
-5.4907
0
LINE
8
BLACK
6
CONTINUOUS
10
26.7189
20
-5.4907
11
26.6713
21
-5.39547
0
LINE
8
BLACK
6
CONTINUOUS
10
26.6713
20
-5.39547
11
26.6713
21
-5.25261
0
LINE
8
BLACK
6
CONTINUOUS
10
26.6713
20
-5.25261
11
26.7189
21
-5.15737
0
LINE
8
BLACK
6
CONTINUOUS
10
26.7189
20
-5.15737
11
26.8142
21
-5.10975
0
LINE
8
BLACK
6
CONTINUOUS
10
26.8142
20
-5.10975
11
27.338
21
-5.10975
0
LINE
8
BLACK
6
CONTINUOUS
10
27.338
20
-3.87166
11
26.6713
21
-3.87166
0
LINE
8
BLACK
6
CONTINUOUS
10
26.338
20
-3.87166
11
26.3856
21
-3.91928
0
LINE
8
BLACK
6
CONTINUOUS
10
26.3856
20
-3.91928
11
26.4332
21
-3.87166
0
LINE
8
BLACK
6
CONTINUOUS
10
26.4332
20
-3.87166
11
26.3856
21
-3.82404
0
LINE
8
BLACK
6
CONTINUOUS
10
26.3856
20
-3.82404
11
26.338
21
-3.87166
0
LINE
8
BLACK
6
CONTINUOUS
10
26.338
20
-3.87166
11
26.4332
21
-3.87166
0
LINE
8
BLACK
6
CONTINUOUS
10
26.6713
20
-3.39547
11
27.338
21
-3.39547
0
LINE
8
BLACK
6
CONTINUOUS
10
26.7666
20
-3.39547
11
26.7189
21
-3.34785
0
LINE
8
BLACK
6
CONTINUOUS
10
26.7189
20
-3.34785
11
26.6713
21
-3.25261
0
LINE
8
BLACK
6
CONTINUOUS
10
26.6713
20
-3.25261
11
26.6713
21
-3.10975
0
LINE
8
BLACK
6
CONTINUOUS
10
26.6713
20
-3.10975
11
26.7189
21
-3.01451
0
LINE
8
BLACK
6
CONTINUOUS
10
26.7189
20
-3.01451
11
26.8142
21
-2.9669
0
LINE
8
BLACK
6
CONTINUOUS
10
26.8142
20
-2.9669
11
27.338
21
-2.9669
0
LINE
8
BLACK
6
CONTINUOUS
10
27.2904
20
-2.53832
11
27.338
21
-2.44308
0
LINE
8
BLACK
6
CONTINUOUS
10
27.338
20
-2.44308
11
27.338
21
-2.25261
0
LINE
8
BLACK
6
CONTINUOUS
10
27.338
20
-2.25261
11
27.2904
21
-2.15737
0
LINE
8
BLACK
6
CONTINUOUS
10
27.2904
20
-2.15737
11
27.1951
21
-2.10975
0
LINE
8
BLACK
6
CONTINUOUS
10
27.1951
20
-2.10975
11
27.1475
21
-2.10975
0
LINE
8
BLACK
6
CONTINUOUS
10
27.1475
20
-2.10975
11
27.0523
21
-2.15737
0
LINE
8
BLACK
6
CONTINUOUS
10
27.0523
20
-2.15737
11
27.0046
21
-2.25261
0
LINE
8
BLACK
6
CONTINUOUS
10
27.0046
20
-2.25261
11
27.0046
21
-2.39547
0
LINE
8
BLACK
6
CONTINUOUS
10
27.0046
20
-2.39547
11
26.957
21
-2.4907
0
LINE
8
BLACK
6
CONTINUOUS
10
26.957
20
-2.4907
11
26.8618
21
-2.53832
0
LINE
8
BLACK
6
CONTINUOUS
10
26.8618
20
-2.53832
11
26.8142
21
-2.53832
0
LINE
8
BLACK
6
CONTINUOUS
10
26.8142
20
-2.53832
11
26.7189
21
-2.4907
0
LINE
8
BLACK
6
CONTINUOUS
10
26.7189
20
-2.4907
11
26.6713
21
-2.39547
0
LINE
8
BLACK
6
CONTINUOUS
10
26.6713
20
-2.39547
11
26.6713
21
-2.25261
0
LINE
8
BLACK
6
CONTINUOUS
10
26.6713
20
-2.25261
11
26.7189
21
-2.15737
0
LINE
8
BLACK
6
CONTINUOUS
10
26.6713
20
-1.68118
11
27.6713
21
-1.68118
0
LINE
8
BLACK
6
CONTINUOUS
10
26.7189
20
-1.68118
11
26.6713
21
-1.58594
0
LINE
8
BLACK
6
CONTINUOUS
10
26.6713
20
-1.58594
11
26.6713
21
-1.39547
0
LINE
8
BLACK
6
CONTINUOUS
10
26.6713
20
-1.39547
11
26.7189
21
-1.30023
0
LINE
8
BLACK
6
CONTINUOUS
10
26.7189
20
-1.30023
11
26.7666
21
-1.25261
0
LINE
8
BLACK
6
CONTINUOUS
10
26.7666
20
-1.25261
11
26.8618
21
-1.20499
0
LINE
8
BLACK
6
CONTINUOUS
10
26.8618
20
-1.20499
11
27.1475
21
-1.20499
0
LINE
8
BLACK
6
CONTINUOUS
10
27.1475
20
-1.20499
11
27.2427
21
-1.25261
0
LINE
8
BLACK
6
CONTINUOUS
10
27.2427
20
-1.25261
11
27.2904
21
-1.30023
0
LINE
8
BLACK
6
CONTINUOUS
10
27.2904
20
-1.30023
11
27.338
21
-1.39547
0
LINE
8
BLACK
6
CONTINUOUS
10
27.338
20
-1.39547
11
27.338
21
-1.58594
0
LINE
8
BLACK
6
CONTINUOUS
10
27.338
20
-1.58594
11
27.2904
21
-1.68118
0
LINE
8
BLACK
6
CONTINUOUS
10
27.2904
20
-0.395466
11
27.338
21
-0.490704
0
LINE
8
BLACK
6
CONTINUOUS
10
27.338
20
-0.490704
11
27.338
21
-0.68118
0
LINE
8
BLACK
6
CONTINUOUS
10
27.338
20
-0.68118
11
27.2904
21
-0.776419
0
LINE
8
BLACK
6
CONTINUOUS
10
27.2904
20
-0.776419
11
27.1951
21
-0.824038
0
LINE
8
BLACK
6
CONTINUOUS
10
27.1951
20
-0.824038
11
26.8142
21
-0.824038
0
LINE
8
BLACK
6
CONTINUOUS
10
26.8142
20
-0.824038
11
26.7189
21
-0.776419
0
LINE
8
BLACK
6
CONTINUOUS
10
26.7189
20
-0.776419
11
26.6713
21
-0.68118
0
LINE
8
BLACK
6
CONTINUOUS
10
26.6713
20
-0.68118
11
26.6713
21
-0.490704
0
LINE
8
BLACK
6
CONTINUOUS
10
26.6713
20
-0.490704
11
26.7189
21
-0.395466
0
LINE
8
BLACK
6
CONTINUOUS
10
26.7189
20
-0.395466
11
26.8142
21
-0.347847
0
LINE
8
BLACK
6
CONTINUOUS
10
26.8142
20
-0.347847
11
26.9094
21
-0.347847
0
LINE
8
BLACK
6
CONTINUOUS
10
26.9094
20
-0.347847
11
27.0046
21
-0.824038
0
LINE
8
BLACK
6
CONTINUOUS
10
27.2904
20
0.509296
11
27.338
21
0.414058
0
LINE
8
BLACK
6
CONTINUOUS
10
27.338
20
0.414058
11
27.338
21
0.223581
0
LINE
8
BLACK
6
CONTINUOUS
10
27.338
20
0.223581
11
27.2904
21
0.128343
0
LINE
8
BLACK
6
CONTINUOUS
10
27.2904
20
0.128343
11
27.2427
21
0.080724
0
LINE
8
BLACK
6
CONTINUOUS
10
27.2427
20
0.080724
11
27.1475
21
0.033105
0
LINE
8
BLACK
6
CONTINUOUS
10
27.1475
20
0.033105
11
26.8618
21
0.033105
0
LINE
8
BLACK
6
CONTINUOUS
10
26.8618
20
0.033105
11
26.7666
21
0.080724
0
LINE
8
BLACK
6
CONTINUOUS
10
26.7666
20
0.080724
11
26.7189
21
0.128343
0
LINE
8
BLACK
6
CONTINUOUS
10
26.7189
20
0.128343
11
26.6713
21
0.223581
0
LINE
8
BLACK
6
CONTINUOUS
10
26.6713
20
0.223581
11
26.6713
21
0.414058
0
LINE
8
BLACK
6
CONTINUOUS
10
26.6713
20
0.414058
11
26.7189
21
0.509296
0
LINE
8
BLACK
6
CONTINUOUS
10
26.6713
20
0.79501
11
26.6713
21
1.17596
0
LINE
8
BLACK
6
CONTINUOUS
10
26.338
20
0.937867
11
27.1951
21
0.937867
0
LINE
8
BLACK
6
CONTINUOUS
10
27.1951
20
0.937867
11
27.2904
21
0.985486
0
LINE
8
BLACK
6
CONTINUOUS
10
27.2904
20
0.985486
11
27.338
21
1.08072
0
LINE
8
BLACK
6
CONTINUOUS
10
27.338
20
1.08072
11
27.338
21
1.17596
0
LINE
8
BLACK
6
CONTINUOUS
10
27.338
20
1.5093
11
26.6713
21
1.5093
0
LINE
8
BLACK
6
CONTINUOUS
10
26.338
20
1.5093
11
26.3856
21
1.46168
0
LINE
8
BLACK
6
CONTINUOUS
10
26.3856
20
1.46168
11
26.4332
21
1.5093
0
LINE
8
BLACK
6
CONTINUOUS
10
26.4332
20
1.5093
11
26.3856
21
1.55691
0
LINE
8
BLACK
6
CONTINUOUS
10
26.3856
20
1.55691
11
26.338
21
1.5093
0
LINE
8
BLACK
6
CONTINUOUS
10
26.338
20
1.5093
11
26.4332
21
1.5093
0
LINE
8
BLACK
6
CONTINUOUS
10
27.338
20
2.12834
11
27.2904
21
2.0331
0
LINE
8
BLACK
6
CONTINUOUS
10
27.2904
20
2.0331
11
27.2427
21
1.98549
0
LINE
8
BLACK
6
CONTINUOUS
10
27.2427
20
1.98549
11
27.1475
21
1.93787
0
LINE
8
BLACK
6
CONTINUOUS
10
27.1475
20
1.93787
11
26.8618
21
1.93787
0
LINE
8
BLACK
6
CONTINUOUS
10
26.8618
20
1.93787
11
26.7666
21
1.98549
0
LINE
8
BLACK
6
CONTINUOUS
10
26.7666
20
1.98549
11
26.7189
21
2.0331
0
LINE
8
BLACK
6
CONTINUOUS
10
26.7189
20
2.0331
11
26.6713
21
2.12834
0
LINE
8
BLACK
6
CONTINUOUS
10
26.6713
20
2.12834
11
26.6713
21
2.2712
0
LINE
8
BLACK
6
CONTINUOUS
10
26.6713
20
2.2712
11
26.7189
21
2.36644
0
LINE
8
BLACK
6
CONTINUOUS
10
26.7189
20
2.36644
11
26.7666
21
2.41406
0
LINE
8
BLACK
6
CONTINUOUS
10
26.7666
20
2.41406
11
26.8618
21
2.46168
0
LINE
8
BLACK
6
CONTINUOUS
10
26.8618
20
2.46168
11
27.1475
21
2.46168
0
LINE
8
BLACK
6
CONTINUOUS
10
27.1475
20
2.46168
11
27.2427
21
2.41406
0
LINE
8
BLACK
6
CONTINUOUS
10
27.2427
20
2.41406
11
27.2904
21
2.36644
0
LINE
8
BLACK
6
CONTINUOUS
10
27.2904
20
2.36644
11
27.338
21
2.2712
0
LINE
8
BLACK
6
CONTINUOUS
10
27.338
20
2.2712
11
27.338
21
2.12834
0
LINE
8
BLACK
6
CONTINUOUS
10
26.6713
20
2.89025
11
27.338
21
2.89025
0
LINE
8
BLACK
6
CONTINUOUS
10
26.7666
20
2.89025
11
26.7189
21
2.93787
0
LINE
8
BLACK
6
CONTINUOUS
10
26.7189
20
2.93787
11
26.6713
21
3.0331
0
LINE
8
BLACK
6
CONTINUOUS
10
26.6713
20
3.0331
11
26.6713
21
3.17596
0
LINE
8
BLACK
6
CONTINUOUS
10
26.6713
20
3.17596
11
26.7189
21
3.2712
0
LINE
8
BLACK
6
CONTINUOUS
10
26.7189
20
3.2712
11
26.8142
21
3.31882
0
LINE
8
BLACK
6
CONTINUOUS
10
26.8142
20
3.31882
11
27.338
21
3.31882
0
LINE
8
BLACK
6
CONTINUOUS
10
27.338
20
4.69977
11
27.2904
21
4.60453
0
LINE
8
BLACK
6
CONTINUOUS
10
27.2904
20
4.60453
11
27.2427
21
4.55692
0
LINE
8
BLACK
6
CONTINUOUS
10
27.2427
20
4.55692
11
27.1475
21
4.5093
0
LINE
8
BLACK
6
CONTINUOUS
10
27.1475
20
4.5093
11
26.8618
21
4.5093
0
LINE
8
BLACK
6
CONTINUOUS
10
26.8618
20
4.5093
11
26.7666
21
4.55692
0
LINE
8
BLACK
6
CONTINUOUS
10
26.7666
20
4.55692
11
26.7189
21
4.60453
0
LINE
8
BLACK
6
CONTINUOUS
10
26.7189
20
4.60453
11
26.6713
21
4.69977
0
LINE
8
BLACK
6
CONTINUOUS
10
26.6713
20
4.69977
11
26.6713
21
4.84263
0
LINE
8
BLACK
6
CONTINUOUS
10
26.6713
20
4.84263
11
26.7189
21
4.93787
0
LINE
8
BLACK
6
CONTINUOUS
10
26.7189
20
4.93787
11
26.7666
21
4.98549
0
LINE
8
BLACK
6
CONTINUOUS
10
26.7666
20
4.98549
11
26.8618
21
5.0331
0
LINE
8
BLACK
6
CONTINUOUS
10
26.8618
20
5.0331
11
27.1475
21
5.0331
0
LINE
8
BLACK
6
CONTINUOUS
10
27.1475
20
5.0331
11
27.2427
21
4.98549
0
LINE
8
BLACK
6
CONTINUOUS
10
27.2427
20
4.98549
11
27.2904
21
4.93787
0
LINE
8
BLACK
6
CONTINUOUS
10
27.2904
20
4.93787
11
27.338
21
4.84263
0
LINE
8
BLACK
6
CONTINUOUS
10
27.338
20
4.84263
11
27.338
21
4.69977
0
LINE
8
BLACK
6
CONTINUOUS
10
26.6713
20
5.46168
11
27.6713
21
5.46168
0
LINE
8
BLACK
6
CONTINUOUS
10
26.7189
20
5.46168
11
26.6713
21
5.55692
0
LINE
8
BLACK
6
CONTINUOUS
10
26.6713
20
5.55692
11
26.6713
21
5.74739
0
LINE
8
BLACK
6
CONTINUOUS
10
26.6713
20
5.74739
11
26.7189
21
5.84263
0
LINE
8
BLACK
6
CONTINUOUS
10
26.7189
20
5.84263
11
26.7666
21
5.89025
0
LINE
8
BLACK
6
CONTINUOUS
10
26.7666
20
5.89025
11
26.8618
21
5.93787
0
LINE
8
BLACK
6
CONTINUOUS
10
26.8618
20
5.93787
11
27.1475
21
5.93787
0
LINE
8
BLACK
6
CONTINUOUS
10
27.1475
20
5.93787
11
27.2427
21
5.89025
0
LINE
8
BLACK
6
CONTINUOUS
10
27.2427
20
5.89025
11
27.2904
21
5.84263
0
LINE
8
BLACK
6
CONTINUOUS
10
27.2904
20
5.84263
11
27.338
21
5.74739
0
LINE
8
BLACK
6
CONTINUOUS
10
27.338
20
5.74739
11
27.338
21
5.55692
0
LINE
8
BLACK
6
CONTINUOUS
10
27.338
20
5.55692
11
27.2904
21
5.46168
0
LINE
8
BLACK
6
CONTINUOUS
10
27.2904
20
6.74739
11
27.338
21
6.65215
0
LINE
8
BLACK
6
CONTINUOUS
10
27.338
20
6.65215
11
27.338
21
6.46168
0
LINE
8
BLACK
6
CONTINUOUS
10
27.338
20
6.46168
11
27.2904
21
6.36644
0
LINE
8
BLACK
6
CONTINUOUS
10
27.2904
20
6.36644
11
27.1951
21
6.31882
0
LINE
8
BLACK
6
CONTINUOUS
10
27.1951
20
6.31882
11
26.8142
21
6.31882
0
LINE
8
BLACK
6
CONTINUOUS
10
26.8142
20
6.31882
11
26.7189
21
6.36644
0
LINE
8
BLACK
6
CONTINUOUS
10
26.7189
20
6.36644
11
26.6713
21
6.46168
0
LINE
8
BLACK
6
CONTINUOUS
10
26.6713
20
6.46168
11
26.6713
21
6.65215
0
LINE
8
BLACK
6
CONTINUOUS
10
26.6713
20
6.65215
11
26.7189
21
6.74739
0
LINE
8
BLACK
6
CONTINUOUS
10
26.7189
20
6.74739
11
26.8142
21
6.79501
0
LINE
8
BLACK
6
CONTINUOUS
10
26.8142
20
6.79501
11
26.9094
21
6.79501
0
LINE
8
BLACK
6
CONTINUOUS
10
26.9094
20
6.79501
11
27.0046
21
6.31882
0
LINE
8
BLACK
6
CONTINUOUS
10
26.6713
20
7.22358
11
27.338
21
7.22358
0
LINE
8
BLACK
6
CONTINUOUS
10
26.7666
20
7.22358
11
26.7189
21
7.2712
0
LINE
8
BLACK
6
CONTINUOUS
10
26.7189
20
7.2712
11
26.6713
21
7.36644
0
LINE
8
BLACK
6
CONTINUOUS
10
26.6713
20
7.36644
11
26.6713
21
7.5093
0
LINE
8
BLACK
6
CONTINUOUS
10
26.6713
20
7.5093
11
26.7189
21
7.60453
0
LINE
8
BLACK
6
CONTINUOUS
10
26.7189
20
7.60453
11
26.8142
21
7.65215
0
LINE
8
BLACK
6
CONTINUOUS
10
26.8142
20
7.65215
11
27.338
21
7.65215
0
LINE
8
BLACK
6
CONTINUOUS
10
27.338
20
8.12834
11
26.6713
21
8.12834
0
LINE
8
BLACK
6
CONTINUOUS
10
26.338
20
8.12834
11
26.3856
21
8.08072
0
LINE
8
BLACK
6
CONTINUOUS
10
26.3856
20
8.08072
11
26.4332
21
8.12834
0
LINE
8
BLACK
6
CONTINUOUS
10
26.4332
20
8.12834
11
26.3856
21
8.17596
0
LINE
8
BLACK
6
CONTINUOUS
10
26.3856
20
8.17596
11
26.338
21
8.12834
0
LINE
8
BLACK
6
CONTINUOUS
10
26.338
20
8.12834
11
26.4332
21
8.12834
0
LINE
8
BLACK
6
CONTINUOUS
10
26.6713
20
8.60453
11
27.338
21
8.60453
0
LINE
8
BLACK
6
CONTINUOUS
10
26.7666
20
8.60453
11
26.7189
21
8.65215
0
LINE
8
BLACK
6
CONTINUOUS
10
26.7189
20
8.65215
11
26.6713
21
8.74739
0
LINE
8
BLACK
6
CONTINUOUS
10
26.6713
20
8.74739
11
26.6713
21
8.89025
0
LINE
8
BLACK
6
CONTINUOUS
10
26.6713
20
8.89025
11
26.7189
21
8.98549
0
LINE
8
BLACK
6
CONTINUOUS
10
26.7189
20
8.98549
11
26.8142
21
9.0331
0
LINE
8
BLACK
6
CONTINUOUS
10
26.8142
20
9.0331
11
27.338
21
9.0331
0
LINE
8
BLACK
6
CONTINUOUS
10
26.6713
20
9.93787
11
27.4808
21
9.93787
0
LINE
8
BLACK
6
CONTINUOUS
10
27.4808
20
9.93787
11
27.5761
21
9.89025
0
LINE
8
BLACK
6
CONTINUOUS
10
27.5761
20
9.89025
11
27.6237
21
9.84263
0
LINE
8
BLACK
6
CONTINUOUS
10
27.6237
20
9.84263
11
27.6713
21
9.74739
0
LINE
8
BLACK
6
CONTINUOUS
10
27.6713
20
9.74739
11
27.6713
21
9.60453
0
LINE
8
BLACK
6
CONTINUOUS
10
27.6713
20
9.60453
11
27.6237
21
9.5093
0
LINE
8
BLACK
6
CONTINUOUS
10
27.2904
20
9.93787
11
27.338
21
9.84263
0
LINE
8
BLACK
6
CONTINUOUS
10
27.338
20
9.84263
11
27.338
21
9.65215
0
LINE
8
BLACK
6
CONTINUOUS
10
27.338
20
9.65215
11
27.2904
21
9.55692
0
LINE
8
BLACK
6
CONTINUOUS
10
27.2904
20
9.55692
11
27.2427
21
9.5093
0
LINE
8
BLACK
6
CONTINUOUS
10
27.2427
20
9.5093
11
27.1475
21
9.46168
0
LINE
8
BLACK
6
CONTINUOUS
10
27.1475
20
9.46168
11
26.8618
21
9.46168
0
LINE
8
BLACK
6
CONTINUOUS
10
26.8618
20
9.46168
11
26.7666
21
9.5093
0
LINE
8
BLACK
6
CONTINUOUS
10
26.7666
20
9.5093
11
26.7189
21
9.55692
0
LINE
8
BLACK
6
CONTINUOUS
10
26.7189
20
9.55692
11
26.6713
21
9.65215
0
LINE
8
BLACK
6
CONTINUOUS
10
26.6713
20
9.65215
11
26.6713
21
9.84263
0
LINE
8
BLACK
6
CONTINUOUS
10
26.6713
20
9.84263
11
26.7189
21
9.93787
0
LINE
8
BLACK
6
CONTINUOUS
10
28.948
20
-6.27642
11
27.948
21
-6.27642
0
LINE
8
BLACK
6
CONTINUOUS
10
28.9004
20
-6.27642
11
28.948
21
-6.37166
0
LINE
8
BLACK
6
CONTINUOUS
10
28.948
20
-6.37166
11
28.948
21
-6.56213
0
LINE
8
BLACK
6
CONTINUOUS
10
28.948
20
-6.56213
11
28.9004
21
-6.65737
0
LINE
8
BLACK
6
CONTINUOUS
10
28.9004
20
-6.65737
11
28.8527
21
-6.70499
0
LINE
8
BLACK
6
CONTINUOUS
10
28.8527
20
-6.70499
11
28.7575
21
-6.75261
0
LINE
8
BLACK
6
CONTINUOUS
10
28.7575
20
-6.75261
11
28.4718
21
-6.75261
0
LINE
8
BLACK
6
CONTINUOUS
10
28.4718
20
-6.75261
11
28.3766
21
-6.70499
0
LINE
8
BLACK
6
CONTINUOUS
10
28.3766
20
-6.70499
11
28.3289
21
-6.65737
0
LINE
8
BLACK
6
CONTINUOUS
10
28.3289
20
-6.65737
11
28.2813
21
-6.56213
0
LINE
8
BLACK
6
CONTINUOUS
10
28.2813
20
-6.56213
11
28.2813
21
-6.37166
0
LINE
8
BLACK
6
CONTINUOUS
10
28.2813
20
-6.37166
11
28.3289
21
-6.27642
0
LINE
8
BLACK
6
CONTINUOUS
10
28.948
20
-5.80023
11
28.2813
21
-5.80023
0
LINE
8
BLACK
6
CONTINUOUS
10
27.948
20
-5.80023
11
27.9956
21
-5.84785
0
LINE
8
BLACK
6
CONTINUOUS
10
27.9956
20
-5.84785
11
28.0432
21
-5.80023
0
LINE
8
BLACK
6
CONTINUOUS
10
28.0432
20
-5.80023
11
27.9956
21
-5.75261
0
LINE
8
BLACK
6
CONTINUOUS
10
27.9956
20
-5.75261
11
27.948
21
-5.80023
0
LINE
8
BLACK
6
CONTINUOUS
10
27.948
20
-5.80023
11
28.0432
21
-5.80023
0
LINE
8
BLACK
6
CONTINUOUS
10
28.948
20
-4.89547
11
28.4242
21
-4.89547
0
LINE
8
BLACK
6
CONTINUOUS
10
28.4242
20
-4.89547
11
28.3289
21
-4.94308
0
LINE
8
BLACK
6
CONTINUOUS
10
28.3289
20
-4.94308
11
28.2813
21
-5.03832
0
LINE
8
BLACK
6
CONTINUOUS
10
28.2813
20
-5.03832
11
28.2813
21
-5.2288
0
LINE
8
BLACK
6
CONTINUOUS
10
28.2813
20
-5.2288
11
28.3289
21
-5.32404
0
LINE
8
BLACK
6
CONTINUOUS
10
28.9004
20
-4.89547
11
28.948
21
-4.9907
0
LINE
8
BLACK
6
CONTINUOUS
10
28.948
20
-4.9907
11
28.948
21
-5.2288
0
LINE
8
BLACK
6
CONTINUOUS
10
28.948
20
-5.2288
11
28.9004
21
-5.32404
0
LINE
8
BLACK
6
CONTINUOUS
10
28.9004
20
-5.32404
11
28.8051
21
-5.37166
0
LINE
8
BLACK
6
CONTINUOUS
10
28.8051
20
-5.37166
11
28.7099
21
-5.37166
0
LINE
8
BLACK
6
CONTINUOUS
10
28.7099
20
-5.37166
11
28.6146
21
-5.32404
0
LINE
8
BLACK
6
CONTINUOUS
10
28.6146
20
-5.32404
11
28.567
21
-5.2288
0
LINE
8
BLACK
6
CONTINUOUS
10
28.567
20
-5.2288
11
28.567
21
-4.9907
0
LINE
8
BLACK
6
CONTINUOUS
10
28.567
20
-4.9907
11
28.5194
21
-4.89547
0
LINE
8
BLACK
6
CONTINUOUS
10
28.948
20
-4.41928
11
28.2813
21
-4.41928
0
LINE
8
BLACK
6
CONTINUOUS
10
28.3766
20
-4.41928
11
28.3289
21
-4.37166
0
LINE
8
BLACK
6
CONTINUOUS
10
28.3289
20
-4.37166
11
28.2813
21
-4.27642
0
LINE
8
BLACK
6
CONTINUOUS
10
28.2813
20
-4.27642
11
28.2813
21
-4.13356
0
LINE
8
BLACK
6
CONTINUOUS
10
28.2813
20
-4.13356
11
28.3289
21
-4.03832
0
LINE
8
BLACK
6
CONTINUOUS
10
28.3289
20
-4.03832
11
28.4242
21
-3.9907
0
LINE
8
BLACK
6
CONTINUOUS
10
28.4242
20
-3.9907
11
28.948
21
-3.9907
0
LINE
8
BLACK
6
CONTINUOUS
10
28.4242
20
-3.9907
11
28.3289
21
-3.94308
0
LINE
8
BLACK
6
CONTINUOUS
10
28.3289
20
-3.94308
11
28.2813
21
-3.84785
0
LINE
8
BLACK
6
CONTINUOUS
10
28.2813
20
-3.84785
11
28.2813
21
-3.70499
0
LINE
8
BLACK
6
CONTINUOUS
10
28.2813
20
-3.70499
11
28.3289
21
-3.60975
0
LINE
8
BLACK
6
CONTINUOUS
10
28.3289
20
-3.60975
11
28.4242
21
-3.56213
0
LINE
8
BLACK
6
CONTINUOUS
10
28.4242
20
-3.56213
11
28.948
21
-3.56213
0
LINE
8
BLACK
6
CONTINUOUS
10
28.9004
20
-2.70499
11
28.948
21
-2.80023
0
LINE
8
BLACK
6
CONTINUOUS
10
28.948
20
-2.80023
11
28.948
21
-2.9907
0
LINE
8
BLACK
6
CONTINUOUS
10
28.948
20
-2.9907
11
28.9004
21
-3.08594
0
LINE
8
BLACK
6
CONTINUOUS
10
28.9004
20
-3.08594
11
28.8051
21
-3.13356
0
LINE
8
BLACK
6
CONTINUOUS
10
28.8051
20
-3.13356
11
28.4242
21
-3.13356
0
LINE
8
BLACK
6
CONTINUOUS
10
28.4242
20
-3.13356
11
28.3289
21
-3.08594
0
LINE
8
BLACK
6
CONTINUOUS
10
28.3289
20
-3.08594
11
28.2813
21
-2.9907
0
LINE
8
BLACK
6
CONTINUOUS
10
28.2813
20
-2.9907
11
28.2813
21
-2.80023
0
LINE
8
BLACK
6
CONTINUOUS
10
28.2813
20
-2.80023
11
28.3289
21
-2.70499
0
LINE
8
BLACK
6
CONTINUOUS
10
28.3289
20
-2.70499
11
28.4242
21
-2.65737
0
LINE
8
BLACK
6
CONTINUOUS
10
28.4242
20
-2.65737
11
28.5194
21
-2.65737
0
LINE
8
BLACK
6
CONTINUOUS
10
28.5194
20
-2.65737
11
28.6146
21
-3.13356
0
LINE
8
BLACK
6
CONTINUOUS
10
28.2813
20
-2.37166
11
28.2813
21
-1.9907
0
LINE
8
BLACK
6
CONTINUOUS
10
27.948
20
-2.2288
11
28.8051
21
-2.2288
0
LINE
8
BLACK
6
CONTINUOUS
10
28.8051
20
-2.2288
11
28.9004
21
-2.18118
0
LINE
8
BLACK
6
CONTINUOUS
10
28.9004
20
-2.18118
11
28.948
21
-2.08594
0
LINE
8
BLACK
6
CONTINUOUS
10
28.948
20
-2.08594
11
28.948
21
-1.9907
0
LINE
8
BLACK
6
CONTINUOUS
10
28.9004
20
-1.27642
11
28.948
21
-1.37166
0
LINE
8
BLACK
6
CONTINUOUS
10
28.948
20
-1.37166
11
28.948
21
-1.56213
0
LINE
8
BLACK
6
CONTINUOUS
10
28.948
20
-1.56213
11
28.9004
21
-1.65737
0
LINE
8
BLACK
6
CONTINUOUS
10
28.9004
20
-1.65737
11
28.8051
21
-1.70499
0
LINE
8
BLACK
6
CONTINUOUS
10
28.8051
20
-1.70499
11
28.4242
21
-1.70499
0
LINE
8
BLACK
6
CONTINUOUS
10
28.4242
20
-1.70499
11
28.3289
21
-1.65737
0
LINE
8
BLACK
6
CONTINUOUS
10
28.3289
20
-1.65737
11
28.2813
21
-1.56213
0
LINE
8
BLACK
6
CONTINUOUS
10
28.2813
20
-1.56213
11
28.2813
21
-1.37166
0
LINE
8
BLACK
6
CONTINUOUS
10
28.2813
20
-1.37166
11
28.3289
21
-1.27642
0
LINE
8
BLACK
6
CONTINUOUS
10
28.3289
20
-1.27642
11
28.4242
21
-1.2288
0
LINE
8
BLACK
6
CONTINUOUS
10
28.4242
20
-1.2288
11
28.5194
21
-1.2288
0
LINE
8
BLACK
6
CONTINUOUS
10
28.5194
20
-1.2288
11
28.6146
21
-1.70499
0
LINE
8
BLACK
6
CONTINUOUS
10
28.948
20
-0.800228
11
28.2813
21
-0.800228
0
LINE
8
BLACK
6
CONTINUOUS
10
28.4718
20
-0.800228
11
28.3766
21
-0.752609
0
LINE
8
BLACK
6
CONTINUOUS
10
28.3766
20
-0.752609
11
28.3289
21
-0.70499
0
LINE
8
BLACK
6
CONTINUOUS
10
28.3289
20
-0.70499
11
28.2813
21
-0.609752
0
LINE
8
BLACK
6
CONTINUOUS
10
28.2813
20
-0.609752
11
28.2813
21
-0.514514
0
LINE
8
BLACK
6
CONTINUOUS
10
28.3766
20
0.723581
11
28.3289
21
0.628343
0
LINE
8
BLACK
6
CONTINUOUS
10
28.3289
20
0.628343
11
28.2813
21
0.580724
0
LINE
8
BLACK
6
CONTINUOUS
10
28.2813
20
0.580724
11
28.1861
21
0.533105
0
LINE
8
BLACK
6
CONTINUOUS
10
28.1861
20
0.533105
11
28.1385
21
0.533105
0
LINE
8
BLACK
6
CONTINUOUS
10
28.1385
20
0.533105
11
28.0432
21
0.580724
0
LINE
8
BLACK
6
CONTINUOUS
10
28.0432
20
0.580724
11
27.9956
21
0.628343
0
LINE
8
BLACK
6
CONTINUOUS
10
27.9956
20
0.628343
11
27.948
21
0.723581
0
LINE
8
BLACK
6
CONTINUOUS
10
27.948
20
0.723581
11
27.948
21
0.914058
0
LINE
8
BLACK
6
CONTINUOUS
10
27.948
20
0.914058
11
27.9956
21
1.0093
0
LINE
8
BLACK
6
CONTINUOUS
10
27.9956
20
1.0093
11
28.0432
21
1.05692
0
LINE
8
BLACK
6
CONTINUOUS
10
28.0432
20
1.05692
11
28.1385
21
1.10453
0
LINE
8
BLACK
6
CONTINUOUS
10
28.1385
20
1.10453
11
28.1861
21
1.10453
0
LINE
8
BLACK
6
CONTINUOUS
10
28.1861
20
1.10453
11
28.2813
21
1.05692
0
LINE
8
BLACK
6
CONTINUOUS
10
28.2813
20
1.05692
11
28.3289
21
1.0093
0
LINE
8
BLACK
6
CONTINUOUS
10
28.3289
20
1.0093
11
28.3766
21
0.914058
0
LINE
8
BLACK
6
CONTINUOUS
10
28.3766
20
0.914058
11
28.3766
21
0.723581
0
LINE
8
BLACK
6
CONTINUOUS
10
28.3766
20
0.723581
11
28.4242
21
0.628343
0
LINE
8
BLACK
6
CONTINUOUS
10
28.4242
20
0.628343
11
28.4718
21
0.580724
0
LINE
8
BLACK
6
CONTINUOUS
10
28.4718
20
0.580724
11
28.567
21
0.533105
0
LINE
8
BLACK
6
CONTINUOUS
10
28.567
20
0.533105
11
28.7575
21
0.533105
0
LINE
8
BLACK
6
CONTINUOUS
10
28.7575
20
0.533105
11
28.8527
21
0.580724
0
LINE
8
BLACK
6
CONTINUOUS
10
28.8527
20
0.580724
11
28.9004
21
0.628343
0
LINE
8
BLACK
6
CONTINUOUS
10
28.9004
20
0.628343
11
28.948
21
0.723581
0
LINE
8
BLACK
6
CONTINUOUS
10
28.948
20
0.723581
11
28.948
21
0.914058
0
LINE
8
BLACK
6
CONTINUOUS
10
28.948
20
0.914058
11
28.9004
21
1.0093
0
LINE
8
BLACK
6
CONTINUOUS
10
28.9004
20
1.0093
11
28.8527
21
1.05692
0
LINE
8
BLACK
6
CONTINUOUS
10
28.8527
20
1.05692
11
28.7575
21
1.10453
0
LINE
8
BLACK
6
CONTINUOUS
10
28.7575
20
1.10453
11
28.567
21
1.10453
0
LINE
8
BLACK
6
CONTINUOUS
10
28.567
20
1.10453
11
28.4718
21
1.05692
0
LINE
8
BLACK
6
CONTINUOUS
10
28.4718
20
1.05692
11
28.4242
21
1.0093
0
LINE
8
BLACK
6
CONTINUOUS
10
28.4242
20
1.0093
11
28.3766
21
0.914058
0
LINE
8
BLACK
6
CONTINUOUS
10
28.948
20
2.29501
11
28.2813
21
2.29501
0
LINE
8
BLACK
6
CONTINUOUS
10
28.3766
20
2.29501
11
28.3289
21
2.34263
0
LINE
8
BLACK
6
CONTINUOUS
10
28.3289
20
2.34263
11
28.2813
21
2.43787
0
LINE
8
BLACK
6
CONTINUOUS
10
28.2813
20
2.43787
11
28.2813
21
2.58072
0
LINE
8
BLACK
6
CONTINUOUS
10
28.2813
20
2.58072
11
28.3289
21
2.67596
0
LINE
8
BLACK
6
CONTINUOUS
10
28.3289
20
2.67596
11
28.4242
21
2.72358
0
LINE
8
BLACK
6
CONTINUOUS
10
28.4242
20
2.72358
11
28.948
21
2.72358
0
LINE
8
BLACK
6
CONTINUOUS
10
28.4242
20
2.72358
11
28.3289
21
2.7712
0
LINE
8
BLACK
6
CONTINUOUS
10
28.3289
20
2.7712
11
28.2813
21
2.86644
0
LINE
8
BLACK
6
CONTINUOUS
10
28.2813
20
2.86644
11
28.2813
21
3.0093
0
LINE
8
BLACK
6
CONTINUOUS
10
28.2813
20
3.0093
11
28.3289
21
3.10453
0
LINE
8
BLACK
6
CONTINUOUS
10
28.3289
20
3.10453
11
28.4242
21
3.15215
0
LINE
8
BLACK
6
CONTINUOUS
10
28.4242
20
3.15215
11
28.948
21
3.15215
0
LINE
8
BLACK
6
CONTINUOUS
10
28.948
20
3.62834
11
28.2813
21
3.62834
0
LINE
8
BLACK
6
CONTINUOUS
10
28.3766
20
3.62834
11
28.3289
21
3.67596
0
LINE
8
BLACK
6
CONTINUOUS
10
28.3289
20
3.67596
11
28.2813
21
3.7712
0
LINE
8
BLACK
6
CONTINUOUS
10
28.2813
20
3.7712
11
28.2813
21
3.91406
0
LINE
8
BLACK
6
CONTINUOUS
10
28.2813
20
3.91406
11
28.3289
21
4.0093
0
LINE
8
BLACK
6
CONTINUOUS
10
28.3289
20
4.0093
11
28.4242
21
4.05692
0
LINE
8
BLACK
6
CONTINUOUS
10
28.4242
20
4.05692
11
28.948
21
4.05692
0
LINE
8
BLACK
6
CONTINUOUS
10
28.4242
20
4.05692
11
28.3289
21
4.10453
0
LINE
8
BLACK
6
CONTINUOUS
10
28.3289
20
4.10453
11
28.2813
21
4.19977
0
LINE
8
BLACK
6
CONTINUOUS
10
28.2813
20
4.19977
11
28.2813
21
4.34263
0
LINE
8
BLACK
6
CONTINUOUS
10
28.2813
20
4.34263
11
28.3289
21
4.43787
0
LINE
8
BLACK
6
CONTINUOUS
10
28.3289
20
4.43787
11
28.4242
21
4.48549
0
LINE
8
BLACK
6
CONTINUOUS
10
28.4242
20
4.48549
11
28.948
21
4.48549
0
LINE
8
BLACK
6
CONTINUOUS
10
18.136
20
23.0748
11
17.752
21
23.4979
0
LINE
8
BLACK
6
CONTINUOUS
10
17.944
20
23.2863
11
18.6845
21
23.9584
0
LINE
8
BLACK
6
CONTINUOUS
10
18.6845
20
23.9584
11
18.5147
21
23.9329
0
LINE
8
BLACK
6
CONTINUOUS
10
18.5147
20
23.9329
11
18.3802
21
23.9394
0
LINE
8
BLACK
6
CONTINUOUS
10
18.3802
20
23.9394
11
18.2809
21
23.9779
0
LINE
8
BLACK
6
CONTINUOUS
10
19.4525
20
23.1121
11
19.3245
21
23.2531
0
LINE
8
BLACK
6
CONTINUOUS
10
19.3245
20
23.2531
11
19.2253
21
23.2917
0
LINE
8
BLACK
6
CONTINUOUS
10
19.2253
20
23.2917
11
19.158
21
23.2949
0
LINE
8
BLACK
6
CONTINUOUS
10
19.158
20
23.2949
11
18.9882
21
23.2694
0
LINE
8
BLACK
6
CONTINUOUS
10
18.9882
20
23.2694
11
18.8152
21
23.1767
0
LINE
8
BLACK
6
CONTINUOUS
10
18.8152
20
23.1767
11
18.5331
21
22.9207
0
LINE
8
BLACK
6
CONTINUOUS
10
18.5331
20
22.9207
11
18.4945
21
22.8214
0
LINE
8
BLACK
6
CONTINUOUS
10
18.4945
20
22.8214
11
18.4913
21
22.7541
0
LINE
8
BLACK
6
CONTINUOUS
10
18.4913
20
22.7541
11
18.52
21
22.6516
0
LINE
8
BLACK
6
CONTINUOUS
10
18.52
20
22.6516
11
18.648
21
22.5106
0
LINE
8
BLACK
6
CONTINUOUS
10
18.648
20
22.5106
11
18.7473
21
22.472
0
LINE
8
BLACK
6
CONTINUOUS
10
18.7473
20
22.472
11
18.8146
21
22.4688
0
LINE
8
BLACK
6
CONTINUOUS
10
18.8146
20
22.4688
11
18.9171
21
22.4975
0
LINE
8
BLACK
6
CONTINUOUS
10
18.9171
20
22.4975
11
19.0934
21
22.6575
0
LINE
8
BLACK
6
CONTINUOUS
10
19.0934
20
22.6575
11
19.1319
21
22.7568
0
LINE
8
BLACK
6
CONTINUOUS
10
19.1319
20
22.7568
11
19.1352
21
22.8241
0
LINE
8
BLACK
6
CONTINUOUS
10
19.1352
20
22.8241
11
19.1064
21
22.9266
0
LINE
8
BLACK
6
CONTINUOUS
10
19.1064
20
22.9266
11
18.9784
21
23.0676
0
LINE
8
BLACK
6
CONTINUOUS
10
18.9784
20
23.0676
11
18.8792
21
23.1062
0
LINE
8
BLACK
6
CONTINUOUS
10
18.8792
20
23.1062
11
18.8119
21
23.1094
0
LINE
8
BLACK
6
CONTINUOUS
10
18.8119
20
23.1094
11
18.7094
21
23.0807
0
LINE
8
BLACK
6
CONTINUOUS
10
19.1313
20
22.0489
11
19.0961
21
22.0169
0
LINE
8
BLACK
6
CONTINUOUS
10
19.0961
20
22.0169
11
18.9935
21
21.9882
0
LINE
8
BLACK
6
CONTINUOUS
10
18.9935
20
21.9882
11
18.9263
21
21.9914
0
LINE
8
BLACK
6
CONTINUOUS
10
20.2526
20
22.2305
11
20.3166
21
22.16
0
LINE
8
BLACK
6
CONTINUOUS
10
20.3166
20
22.16
11
20.3454
21
22.0575
0
LINE
8
BLACK
6
CONTINUOUS
10
20.3454
20
22.0575
11
20.3421
21
21.9902
0
LINE
8
BLACK
6
CONTINUOUS
10
20.3421
20
21.9902
11
20.3036
21
21.891
0
LINE
8
BLACK
6
CONTINUOUS
10
20.3036
20
21.891
11
20.1945
21
21.7277
0
LINE
8
BLACK
6
CONTINUOUS
10
20.1945
20
21.7277
11
20.0182
21
21.5677
0
LINE
8
BLACK
6
CONTINUOUS
10
20.0182
20
21.5677
11
19.8452
21
21.4749
0
LINE
8
BLACK
6
CONTINUOUS
10
19.8452
20
21.4749
11
19.7426
21
21.4462
0
LINE
8
BLACK
6
CONTINUOUS
10
19.7426
20
21.4462
11
19.6754
21
21.4494
0
LINE
8
BLACK
6
CONTINUOUS
10
19.6754
20
21.4494
11
19.5761
21
21.488
0
LINE
8
BLACK
6
CONTINUOUS
10
19.5761
20
21.488
11
19.5121
21
21.5585
0
LINE
8
BLACK
6
CONTINUOUS
10
19.5121
20
21.5585
11
19.4834
21
21.661
0
LINE
8
BLACK
6
CONTINUOUS
10
19.4834
20
21.661
11
19.4866
21
21.7283
0
LINE
8
BLACK
6
CONTINUOUS
10
19.4866
20
21.7283
11
19.5251
21
21.8275
0
LINE
8
BLACK
6
CONTINUOUS
10
19.5251
20
21.8275
11
19.6342
21
21.9908
0
LINE
8
BLACK
6
CONTINUOUS
10
19.6342
20
21.9908
11
19.8105
21
22.1508
0
LINE
8
BLACK
6
CONTINUOUS
10
19.8105
20
22.1508
11
19.9835
21
22.2436
0
LINE
8
BLACK
6
CONTINUOUS
10
19.9835
20
22.2436
11
20.0861
21
22.2723
0
LINE
8
BLACK
6
CONTINUOUS
10
20.0861
20
22.2723
11
20.1533
21
22.2691
0
LINE
8
BLACK
6
CONTINUOUS
10
20.1533
20
22.2691
11
20.2526
21
22.2305
0
LINE
8
BLACK
6
CONTINUOUS
10
20.7006
20
21.7369
11
21.1487
21
21.2432
0
LINE
8
BLACK
6
CONTINUOUS
10
21.1487
20
21.2432
11
20.1201
21
20.8885
0
LINE
8
BLACK
6
CONTINUOUS
10
21.5327
20
20.8201
11
21.5967
21
20.7495
0
LINE
8
BLACK
6
CONTINUOUS
10
21.5967
20
20.7495
11
21.6255
21
20.647
0
LINE
8
BLACK
6
CONTINUOUS
10
21.6255
20
20.647
11
21.6222
21
20.5797
0
LINE
8
BLACK
6
CONTINUOUS
10
21.6222
20
20.5797
11
21.5837
21
20.4805
0
LINE
8
BLACK
6
CONTINUOUS
10
21.5837
20
20.4805
11
21.4746
21
20.3172
0
LINE
8
BLACK
6
CONTINUOUS
10
21.4746
20
20.3172
11
21.2983
21
20.1572
0
LINE
8
BLACK
6
CONTINUOUS
10
21.2983
20
20.1572
11
21.1253
21
20.0644
0
LINE
8
BLACK
6
CONTINUOUS
10
21.1253
20
20.0644
11
21.0227
21
20.0357
0
LINE
8
BLACK
6
CONTINUOUS
10
21.0227
20
20.0357
11
20.9555
21
20.039
0
LINE
8
BLACK
6
CONTINUOUS
10
20.9555
20
20.039
11
20.8562
21
20.0775
0
LINE
8
BLACK
6
CONTINUOUS
10
20.8562
20
20.0775
11
20.7922
21
20.148
0
LINE
8
BLACK
6
CONTINUOUS
10
20.7922
20
20.148
11
20.7635
21
20.2505
0
LINE
8
BLACK
6
CONTINUOUS
10
20.7635
20
20.2505
11
20.7667
21
20.3178
0
LINE
8
BLACK
6
CONTINUOUS
10
20.7667
20
20.3178
11
20.8052
21
20.4171
0
LINE
8
BLACK
6
CONTINUOUS
10
20.8052
20
20.4171
11
20.9143
21
20.5803
0
LINE
8
BLACK
6
CONTINUOUS
10
20.9143
20
20.5803
11
21.0906
21
20.7403
0
LINE
8
BLACK
6
CONTINUOUS
10
21.0906
20
20.7403
11
21.2636
21
20.8331
0
LINE
8
BLACK
6
CONTINUOUS
10
21.2636
20
20.8331
11
21.3662
21
20.8618
0
LINE
8
BLACK
6
CONTINUOUS
10
21.3662
20
20.8618
11
21.4334
21
20.8586
0
LINE
8
BLACK
6
CONTINUOUS
10
21.4334
20
20.8586
11
21.5327
21
20.8201
0
LINE
8
BLACK
6
CONTINUOUS
10
21.9422
20
20.2271
11
22.0095
21
20.2239
0
LINE
8
BLACK
6
CONTINUOUS
10
22.0095
20
20.2239
11
22.1087
21
20.1853
0
LINE
8
BLACK
6
CONTINUOUS
10
22.1087
20
20.1853
11
22.2688
21
20.009
0
LINE
8
BLACK
6
CONTINUOUS
10
22.2688
20
20.009
11
22.2975
21
19.9065
0
LINE
8
BLACK
6
CONTINUOUS
10
22.2975
20
19.9065
11
22.2942
21
19.8392
0
LINE
8
BLACK
6
CONTINUOUS
10
22.2942
20
19.8392
11
22.2557
21
19.74
0
LINE
8
BLACK
6
CONTINUOUS
10
22.2557
20
19.74
11
22.1852
21
19.676
0
LINE
8
BLACK
6
CONTINUOUS
10
22.1852
20
19.676
11
22.0474
21
19.6152
0
LINE
8
BLACK
6
CONTINUOUS
10
22.0474
20
19.6152
11
21.2402
21
19.6543
0
LINE
8
BLACK
6
CONTINUOUS
10
21.2402
20
19.6543
11
21.6563
21
19.1959
0
LINE
8
BLACK
6
CONTINUOUS
10
22.4563
20
18.3144
11
22.95
21
18.7624
0
LINE
8
BLACK
6
CONTINUOUS
10
22.8795
20
18.6984
11
22.9467
21
18.6952
0
LINE
8
BLACK
6
CONTINUOUS
10
22.9467
20
18.6952
11
23.046
21
18.6566
0
LINE
8
BLACK
6
CONTINUOUS
10
23.046
20
18.6566
11
23.142
21
18.5508
0
LINE
8
BLACK
6
CONTINUOUS
10
23.142
20
18.5508
11
23.1708
21
18.4483
0
LINE
8
BLACK
6
CONTINUOUS
10
23.1708
20
18.4483
11
23.1322
21
18.349
0
LINE
8
BLACK
6
CONTINUOUS
10
23.1322
20
18.349
11
22.7444
21
17.997
0
LINE
8
BLACK
6
CONTINUOUS
10
23.1322
20
18.349
11
23.2348
21
18.3778
0
LINE
8
BLACK
6
CONTINUOUS
10
23.2348
20
18.3778
11
23.334
21
18.3393
0
LINE
8
BLACK
6
CONTINUOUS
10
23.334
20
18.3393
11
23.43
21
18.2335
0
LINE
8
BLACK
6
CONTINUOUS
10
23.43
20
18.2335
11
23.4588
21
18.131
0
LINE
8
BLACK
6
CONTINUOUS
10
23.4588
20
18.131
11
23.4203
21
18.0317
0
LINE
8
BLACK
6
CONTINUOUS
10
23.4203
20
18.0317
11
23.0324
21
17.6797
0
LINE
8
BLACK
6
CONTINUOUS
10
23.3524
20
17.327
11
23.8461
21
17.7751
0
LINE
8
BLACK
6
CONTINUOUS
10
23.7755
20
17.7111
11
23.8428
21
17.7078
0
LINE
8
BLACK
6
CONTINUOUS
10
23.8428
20
17.7078
11
23.9421
21
17.6693
0
LINE
8
BLACK
6
CONTINUOUS
10
23.9421
20
17.6693
11
24.0381
21
17.5635
0
LINE
8
BLACK
6
CONTINUOUS
10
24.0381
20
17.5635
11
24.0668
21
17.461
0
LINE
8
BLACK
6
CONTINUOUS
10
24.0668
20
17.461
11
24.0283
21
17.3617
0
LINE
8
BLACK
6
CONTINUOUS
10
24.0283
20
17.3617
11
23.6404
21
17.0097
0
LINE
8
BLACK
6
CONTINUOUS
10
24.0283
20
17.3617
11
24.1308
21
17.3905
0
LINE
8
BLACK
6
CONTINUOUS
10
24.1308
20
17.3905
11
24.2301
21
17.3519
0
LINE
8
BLACK
6
CONTINUOUS
10
24.2301
20
17.3519
11
24.3261
21
17.2461
0
LINE
8
BLACK
6
CONTINUOUS
10
24.3261
20
17.2461
11
24.3549
21
17.1436
0
LINE
8
BLACK
6
CONTINUOUS
10
24.3549
20
17.1436
11
24.3163
21
17.0444
0
LINE
8
BLACK
6
CONTINUOUS
10
24.3163
20
17.0444
11
23.9284
21
16.6923
0
LINE
8
BLACK
6
CONTINUOUS
10
11.1703
20
0.436026
11
26.1739
21
14.0527
0
LINE
8
BLACK
6
CONTINUOUS
10
0.370251
20
12.336
11
15.3739
21
25.9527
0
LINE
8
BLACK
6
CONTINUOUS
10
25.7396
20
13.6586
11
14.9396
21
25.5586
0
LINE
8
BLACK
6
CONTINUOUS
10
25.7396
20
13.6586
11
14.9396
21
25.5586
0
LINE
8
BLACK
6
CONTINUOUS
10
25.7396
20
13.6586
11
25.4168
21
14.8869
0
LINE
8
BLACK
6
CONTINUOUS
10
25.7396
20
13.6586
11
24.5483
21
14.0987
0
LINE
8
BLACK
6
CONTINUOUS
10
14.9396
20
25.5586
11
15.2624
21
24.3304
0
LINE
8
BLACK
6
CONTINUOUS
10
14.9396
20
25.5586
11
16.1309
21
25.1186
0
LINE
8
BLACK
6
CONTINUOUS
10
18.8456
20
-4.61905
11
18.798
21
-4.57143
0
LINE
8
BLACK
6
CONTINUOUS
10
18.798
20
-4.57143
11
18.7504
21
-4.47619
0
LINE
8
BLACK
6
CONTINUOUS
10
18.7504
20
-4.47619
11
18.7504
21
-4.23809
0
LINE
8
BLACK
6
CONTINUOUS
10
18.7504
20
-4.23809
11
18.798
21
-4.14286
0
LINE
8
BLACK
6
CONTINUOUS
10
18.798
20
-4.14286
11
18.8456
21
-4.09524
0
LINE
8
BLACK
6
CONTINUOUS
10
18.8456
20
-4.09524
11
18.9409
21
-4.04762
0
LINE
8
BLACK
6
CONTINUOUS
10
18.9409
20
-4.04762
11
19.0361
21
-4.04762
0
LINE
8
BLACK
6
CONTINUOUS
10
19.0361
20
-4.04762
11
19.179
21
-4.09524
0
LINE
8
BLACK
6
CONTINUOUS
10
19.179
20
-4.09524
11
19.7504
21
-4.66667
0
LINE
8
BLACK
6
CONTINUOUS
10
19.7504
20
-4.66667
11
19.7504
21
-4.04762
0
LINE
8
BLACK
6
CONTINUOUS
10
19.0837
20
-3.19048
11
19.7504
21
-3.19048
0
LINE
8
BLACK
6
CONTINUOUS
10
18.7028
20
-3.42857
11
19.417
21
-3.66667
0
LINE
8
BLACK
6
CONTINUOUS
10
19.417
20
-3.66667
11
19.417
21
-3.04762
0
LINE
8
BLACK
6
CONTINUOUS
10
19.7028
20
-2.61905
11
19.7504
21
-2.61905
0
LINE
8
BLACK
6
CONTINUOUS
10
19.7504
20
-2.61905
11
19.8456
21
-2.66667
0
LINE
8
BLACK
6
CONTINUOUS
10
19.8456
20
-2.66667
11
19.8932
21
-2.71428
0
LINE
8
BLACK
6
CONTINUOUS
10
18.7504
20
-2
11
18.7504
21
-1.90476
0
LINE
8
BLACK
6
CONTINUOUS
10
18.7504
20
-1.90476
11
18.798
21
-1.80952
0
LINE
8
BLACK
6
CONTINUOUS
10
18.798
20
-1.80952
11
18.8456
21
-1.7619
0
LINE
8
BLACK
6
CONTINUOUS
10
18.8456
20
-1.7619
11
18.9409
21
-1.71428
0
LINE
8
BLACK
6
CONTINUOUS
10
18.9409
20
-1.71428
11
19.1313
21
-1.66667
0
LINE
8
BLACK
6
CONTINUOUS
10
19.1313
20
-1.66667
11
19.3694
21
-1.66667
0
LINE
8
BLACK
6
CONTINUOUS
10
19.3694
20
-1.66667
11
19.5599
21
-1.71428
0
LINE
8
BLACK
6
CONTINUOUS
10
19.5599
20
-1.71428
11
19.6551
21
-1.7619
0
LINE
8
BLACK
6
CONTINUOUS
10
19.6551
20
-1.7619
11
19.7028
21
-1.80952
0
LINE
8
BLACK
6
CONTINUOUS
10
19.7028
20
-1.80952
11
19.7504
21
-1.90476
0
LINE
8
BLACK
6
CONTINUOUS
10
19.7504
20
-1.90476
11
19.7504
21
-2
0
LINE
8
BLACK
6
CONTINUOUS
10
19.7504
20
-2
11
19.7028
21
-2.09524
0
LINE
8
BLACK
6
CONTINUOUS
10
19.7028
20
-2.09524
11
19.6551
21
-2.14286
0
LINE
8
BLACK
6
CONTINUOUS
10
19.6551
20
-2.14286
11
19.5599
21
-2.19048
0
LINE
8
BLACK
6
CONTINUOUS
10
19.5599
20
-2.19048
11
19.3694
21
-2.23809
0
LINE
8
BLACK
6
CONTINUOUS
10
19.3694
20
-2.23809
11
19.1313
21
-2.23809
0
LINE
8
BLACK
6
CONTINUOUS
10
19.1313
20
-2.23809
11
18.9409
21
-2.19048
0
LINE
8
BLACK
6
CONTINUOUS
10
18.9409
20
-2.19048
11
18.8456
21
-2.14286
0
LINE
8
BLACK
6
CONTINUOUS
10
18.8456
20
-2.14286
11
18.798
21
-2.09524
0
LINE
8
BLACK
6
CONTINUOUS
10
18.798
20
-2.09524
11
18.7504
21
-2
0
LINE
8
BLACK
6
CONTINUOUS
10
18.7504
20
-1.04762
11
18.7504
21
-0.95238
0
LINE
8
BLACK
6
CONTINUOUS
10
18.7504
20
-0.95238
11
18.798
21
-0.857142
0
LINE
8
BLACK
6
CONTINUOUS
10
18.798
20
-0.857142
11
18.8456
21
-0.809523
0
LINE
8
BLACK
6
CONTINUOUS
10
18.8456
20
-0.809523
11
18.9409
21
-0.761904
0
LINE
8
BLACK
6
CONTINUOUS
10
18.9409
20
-0.761904
11
19.1313
21
-0.714285
0
LINE
8
BLACK
6
CONTINUOUS
10
19.1313
20
-0.714285
11
19.3694
21
-0.714285
0
LINE
8
BLACK
6
CONTINUOUS
10
19.3694
20
-0.714285
11
19.5599
21
-0.761904
0
LINE
8
BLACK
6
CONTINUOUS
10
19.5599
20
-0.761904
11
19.6551
21
-0.809523
0
LINE
8
BLACK
6
CONTINUOUS
10
19.6551
20
-0.809523
11
19.7028
21
-0.857142
0
LINE
8
BLACK
6
CONTINUOUS
10
19.7028
20
-0.857142
11
19.7504
21
-0.95238
0
LINE
8
BLACK
6
CONTINUOUS
10
19.7504
20
-0.95238
11
19.7504
21
-1.04762
0
LINE
8
BLACK
6
CONTINUOUS
10
19.7504
20
-1.04762
11
19.7028
21
-1.14286
0
LINE
8
BLACK
6
CONTINUOUS
10
19.7028
20
-1.14286
11
19.6551
21
-1.19048
0
LINE
8
BLACK
6
CONTINUOUS
10
19.6551
20
-1.19048
11
19.5599
21
-1.23809
0
LINE
8
BLACK
6
CONTINUOUS
10
19.5599
20
-1.23809
11
19.3694
21
-1.28571
0
LINE
8
BLACK
6
CONTINUOUS
10
19.3694
20
-1.28571
11
19.1313
21
-1.28571
0
LINE
8
BLACK
6
CONTINUOUS
10
19.1313
20
-1.28571
11
18.9409
21
-1.23809
0
LINE
8
BLACK
6
CONTINUOUS
10
18.9409
20
-1.23809
11
18.8456
21
-1.19048
0
LINE
8
BLACK
6
CONTINUOUS
10
18.8456
20
-1.19048
11
18.798
21
-1.14286
0
LINE
8
BLACK
6
CONTINUOUS
10
18.798
20
-1.14286
11
18.7504
21
-1.04762
0
LINE
8
BLACK
6
CONTINUOUS
10
18.7504
20
-0.095238
11
18.7504
21
0
0
LINE
8
BLACK
6
CONTINUOUS
10
18.7504
20
0
11
18.798
21
0.095239
0
LINE
8
BLACK
6
CONTINUOUS
10
18.798
20
0.095239
11
18.8456
21
0.142858
0
LINE
8
BLACK
6
CONTINUOUS
10
18.8456
20
0.142858
11
18.9409
21
0.190477
0
LINE
8
BLACK
6
CONTINUOUS
10
18.9409
20
0.190477
11
19.1313
21
0.238096
0
LINE
8
BLACK
6
CONTINUOUS
10
19.1313
20
0.238096
11
19.3694
21
0.238096
0
LINE
8
BLACK
6
CONTINUOUS
10
19.3694
20
0.238096
11
19.5599
21
0.190477
0
LINE
8
BLACK
6
CONTINUOUS
10
19.5599
20
0.190477
11
19.6551
21
0.142858
0
LINE
8
BLACK
6
CONTINUOUS
10
19.6551
20
0.142858
11
19.7028
21
0.095239
0
LINE
8
BLACK
6
CONTINUOUS
10
19.7028
20
0.095239
11
19.7504
21
0
0
LINE
8
BLACK
6
CONTINUOUS
10
19.7504
20
0
11
19.7504
21
-0.095238
0
LINE
8
BLACK
6
CONTINUOUS
10
19.7504
20
-0.095238
11
19.7028
21
-0.190476
0
LINE
8
BLACK
6
CONTINUOUS
10
19.7028
20
-0.190476
11
19.6551
21
-0.238095
0
LINE
8
BLACK
6
CONTINUOUS
10
19.6551
20
-0.238095
11
19.5599
21
-0.285714
0
LINE
8
BLACK
6
CONTINUOUS
10
19.5599
20
-0.285714
11
19.3694
21
-0.333333
0
LINE
8
BLACK
6
CONTINUOUS
10
19.3694
20
-0.333333
11
19.1313
21
-0.333333
0
LINE
8
BLACK
6
CONTINUOUS
10
19.1313
20
-0.333333
11
18.9409
21
-0.285714
0
LINE
8
BLACK
6
CONTINUOUS
10
18.9409
20
-0.285714
11
18.8456
21
-0.238095
0
LINE
8
BLACK
6
CONTINUOUS
10
18.8456
20
-0.238095
11
18.798
21
-0.190476
0
LINE
8
BLACK
6
CONTINUOUS
10
18.798
20
-0.190476
11
18.7504
21
-0.095238
0
LINE
8
BLACK
6
CONTINUOUS
10
18.7504
20
0.857143
11
18.7504
21
0.952381
0
LINE
8
BLACK
6
CONTINUOUS
10
18.7504
20
0.952381
11
18.798
21
1.04762
0
LINE
8
BLACK
6
CONTINUOUS
10
18.798
20
1.04762
11
18.8456
21
1.09524
0
LINE
8
BLACK
6
CONTINUOUS
10
18.8456
20
1.09524
11
18.9409
21
1.14286
0
LINE
8
BLACK
6
CONTINUOUS
10
18.9409
20
1.14286
11
19.1313
21
1.19048
0
LINE
8
BLACK
6
CONTINUOUS
10
19.1313
20
1.19048
11
19.3694
21
1.19048
0
LINE
8
BLACK
6
CONTINUOUS
10
19.3694
20
1.19048
11
19.5599
21
1.14286
0
LINE
8
BLACK
6
CONTINUOUS
10
19.5599
20
1.14286
11
19.6551
21
1.09524
0
LINE
8
BLACK
6
CONTINUOUS
10
19.6551
20
1.09524
11
19.7028
21
1.04762
0
LINE
8
BLACK
6
CONTINUOUS
10
19.7028
20
1.04762
11
19.7504
21
0.952381
0
LINE
8
BLACK
6
CONTINUOUS
10
19.7504
20
0.952381
11
19.7504
21
0.857143
0
LINE
8
BLACK
6
CONTINUOUS
10
19.7504
20
0.857143
11
19.7028
21
0.761905
0
LINE
8
BLACK
6
CONTINUOUS
10
19.7028
20
0.761905
11
19.6551
21
0.714286
0
LINE
8
BLACK
6
CONTINUOUS
10
19.6551
20
0.714286
11
19.5599
21
0.666667
0
LINE
8
BLACK
6
CONTINUOUS
10
19.5599
20
0.666667
11
19.3694
21
0.619048
0
LINE
8
BLACK
6
CONTINUOUS
10
19.3694
20
0.619048
11
19.1313
21
0.619048
0
LINE
8
BLACK
6
CONTINUOUS
10
19.1313
20
0.619048
11
18.9409
21
0.666667
0
LINE
8
BLACK
6
CONTINUOUS
10
18.9409
20
0.666667
11
18.8456
21
0.714286
0
LINE
8
BLACK
6
CONTINUOUS
10
18.8456
20
0.714286
11
18.798
21
0.761905
0
LINE
8
BLACK
6
CONTINUOUS
10
18.798
20
0.761905
11
18.7504
21
0.857143
0
LINE
8
BLACK
6
CONTINUOUS
10
19.7504
20
2.38095
11
19.0837
21
2.38095
0
LINE
8
BLACK
6
CONTINUOUS
10
19.179
20
2.38095
11
19.1313
21
2.42857
0
LINE
8
BLACK
6
CONTINUOUS
10
19.1313
20
2.42857
11
19.0837
21
2.52381
0
LINE
8
BLACK
6
CONTINUOUS
10
19.0837
20
2.52381
11
19.0837
21
2.66667
0
LINE
8
BLACK
6
CONTINUOUS
10
19.0837
20
2.66667
11
19.1313
21
2.76191
0
LINE
8
BLACK
6
CONTINUOUS
10
19.1313
20
2.76191
11
19.2266
21
2.80952
0
LINE
8
BLACK
6
CONTINUOUS
10
19.2266
20
2.80952
11
19.7504
21
2.80952
0
LINE
8
BLACK
6
CONTINUOUS
10
19.2266
20
2.80952
11
19.1313
21
2.85714
0
LINE
8
BLACK
6
CONTINUOUS
10
19.1313
20
2.85714
11
19.0837
21
2.95238
0
LINE
8
BLACK
6
CONTINUOUS
10
19.0837
20
2.95238
11
19.0837
21
3.09524
0
LINE
8
BLACK
6
CONTINUOUS
10
19.0837
20
3.09524
11
19.1313
21
3.19048
0
LINE
8
BLACK
6
CONTINUOUS
10
19.1313
20
3.19048
11
19.2266
21
3.2381
0
LINE
8
BLACK
6
CONTINUOUS
10
19.2266
20
3.2381
11
19.7504
21
3.2381
0
LINE
8
BLACK
6
CONTINUOUS
10
19.7504
20
3.71429
11
19.0837
21
3.71429
0
LINE
8
BLACK
6
CONTINUOUS
10
19.179
20
3.71429
11
19.1313
21
3.7619
0
LINE
8
BLACK
6
CONTINUOUS
10
19.1313
20
3.7619
11
19.0837
21
3.85714
0
LINE
8
BLACK
6
CONTINUOUS
10
19.0837
20
3.85714
11
19.0837
21
4
0
LINE
8
BLACK
6
CONTINUOUS
10
19.0837
20
4
11
19.1313
21
4.09524
0
LINE
8
BLACK
6
CONTINUOUS
10
19.1313
20
4.09524
11
19.2266
21
4.14286
0
LINE
8
BLACK
6
CONTINUOUS
10
19.2266
20
4.14286
11
19.7504
21
4.14286
0
LINE
8
BLACK
6
CONTINUOUS
10
19.2266
20
4.14286
11
19.1313
21
4.19048
0
LINE
8
BLACK
6
CONTINUOUS
10
19.1313
20
4.19048
11
19.0837
21
4.28571
0
LINE
8
BLACK
6
CONTINUOUS
10
19.0837
20
4.28571
11
19.0837
21
4.42857
0
LINE
8
BLACK
6
CONTINUOUS
10
19.0837
20
4.42857
11
19.1313
21
4.52381
0
LINE
8
BLACK
6
CONTINUOUS
10
19.1313
20
4.52381
11
19.2266
21
4.57143
0
LINE
8
BLACK
6
CONTINUOUS
10
19.2266
20
4.57143
11
19.7504
21
4.57143
0
LINE
8
BLACK
6
CONTINUOUS
10
0.5
20
-12
11
18.7344
21
-12
0
LINE
8
BLACK
6
CONTINUOUS
10
0.5
20
12
11
18.7344
21
12
0
LINE
8
BLACK
6
CONTINUOUS
10
18.148
20
-12
11
18.148
21
12
0
LINE
8
BLACK
6
CONTINUOUS
10
18.148
20
-12
11
18.148
21
12
0
LINE
8
BLACK
6
CONTINUOUS
10
18.148
20
-12
11
18.7344
21
-10.8735
0
LINE
8
BLACK
6
CONTINUOUS
10
18.148
20
-12
11
17.5616
21
-10.8735
0
LINE
8
BLACK
6
CONTINUOUS
10
18.148
20
12
11
17.5616
21
10.8735
0
LINE
8
BLACK
6
CONTINUOUS
10
18.148
20
12
11
18.7344
21
10.8735
0
LINE
8
BLACK
6
CONTINUOUS
10
21.6968
20
-4.66667
11
21.6968
21
-4.04762
0
LINE
8
BLACK
6
CONTINUOUS
10
21.6968
20
-4.04762
11
22.0777
21
-4.38095
0
LINE
8
BLACK
6
CONTINUOUS
10
22.0777
20
-4.38095
11
22.0777
21
-4.23809
0
LINE
8
BLACK
6
CONTINUOUS
10
22.0777
20
-4.23809
11
22.1254
21
-4.14286
0
LINE
8
BLACK
6
CONTINUOUS
10
22.1254
20
-4.14286
11
22.173
21
-4.09524
0
LINE
8
BLACK
6
CONTINUOUS
10
22.173
20
-4.09524
11
22.2682
21
-4.04762
0
LINE
8
BLACK
6
CONTINUOUS
10
22.2682
20
-4.04762
11
22.5063
21
-4.04762
0
LINE
8
BLACK
6
CONTINUOUS
10
22.5063
20
-4.04762
11
22.6015
21
-4.09524
0
LINE
8
BLACK
6
CONTINUOUS
10
22.6015
20
-4.09524
11
22.6492
21
-4.14286
0
LINE
8
BLACK
6
CONTINUOUS
10
22.6492
20
-4.14286
11
22.6968
21
-4.23809
0
LINE
8
BLACK
6
CONTINUOUS
10
22.6968
20
-4.23809
11
22.6968
21
-4.52381
0
LINE
8
BLACK
6
CONTINUOUS
10
22.6968
20
-4.52381
11
22.6492
21
-4.61905
0
LINE
8
BLACK
6
CONTINUOUS
10
22.6492
20
-4.61905
11
22.6015
21
-4.66667
0
LINE
8
BLACK
6
CONTINUOUS
10
21.792
20
-3.66667
11
21.7444
21
-3.61905
0
LINE
8
BLACK
6
CONTINUOUS
10
21.7444
20
-3.61905
11
21.6968
21
-3.52381
0
LINE
8
BLACK
6
CONTINUOUS
10
21.6968
20
-3.52381
11
21.6968
21
-3.28571
0
LINE
8
BLACK
6
CONTINUOUS
10
21.6968
20
-3.28571
11
21.7444
21
-3.19048
0
LINE
8
BLACK
6
CONTINUOUS
10
21.7444
20
-3.19048
11
21.792
21
-3.14286
0
LINE
8
BLACK
6
CONTINUOUS
10
21.792
20
-3.14286
11
21.8873
21
-3.09524
0
LINE
8
BLACK
6
CONTINUOUS
10
21.8873
20
-3.09524
11
21.9825
21
-3.09524
0
LINE
8
BLACK
6
CONTINUOUS
10
21.9825
20
-3.09524
11
22.1254
21
-3.14286
0
LINE
8
BLACK
6
CONTINUOUS
10
22.1254
20
-3.14286
11
22.6968
21
-3.71428
0
LINE
8
BLACK
6
CONTINUOUS
10
22.6968
20
-3.71428
11
22.6968
21
-3.09524
0
LINE
8
BLACK
6
CONTINUOUS
10
22.6492
20
-2.61905
11
22.6968
21
-2.61905
0
LINE
8
BLACK
6
CONTINUOUS
10
22.6968
20
-2.61905
11
22.792
21
-2.66667
0
LINE
8
BLACK
6
CONTINUOUS
10
22.792
20
-2.66667
11
22.8396
21
-2.71428
0
LINE
8
BLACK
6
CONTINUOUS
10
21.6968
20
-2
11
21.6968
21
-1.90476
0
LINE
8
BLACK
6
CONTINUOUS
10
21.6968
20
-1.90476
11
21.7444
21
-1.80952
0
LINE
8
BLACK
6
CONTINUOUS
10
21.7444
20
-1.80952
11
21.792
21
-1.7619
0
LINE
8
BLACK
6
CONTINUOUS
10
21.792
20
-1.7619
11
21.8873
21
-1.71428
0
LINE
8
BLACK
6
CONTINUOUS
10
21.8873
20
-1.71428
11
22.0777
21
-1.66667
0
LINE
8
BLACK
6
CONTINUOUS
10
22.0777
20
-1.66667
11
22.3158
21
-1.66667
0
LINE
8
BLACK
6
CONTINUOUS
10
22.3158
20
-1.66667
11
22.5063
21
-1.71428
0
LINE
8
BLACK
6
CONTINUOUS
10
22.5063
20
-1.71428
11
22.6015
21
-1.7619
0
LINE
8
BLACK
6
CONTINUOUS
10
22.6015
20
-1.7619
11
22.6492
21
-1.80952
0
LINE
8
BLACK
6
CONTINUOUS
10
22.6492
20
-1.80952
11
22.6968
21
-1.90476
0
LINE
8
BLACK
6
CONTINUOUS
10
22.6968
20
-1.90476
11
22.6968
21
-2
0
LINE
8
BLACK
6
CONTINUOUS
10
22.6968
20
-2
11
22.6492
21
-2.09524
0
LINE
8
BLACK
6
CONTINUOUS
10
22.6492
20
-2.09524
11
22.6015
21
-2.14286
0
LINE
8
BLACK
6
CONTINUOUS
10
22.6015
20
-2.14286
11
22.5063
21
-2.19048
0
LINE
8
BLACK
6
CONTINUOUS
10
22.5063
20
-2.19048
11
22.3158
21
-2.23809
0
LINE
8
BLACK
6
CONTINUOUS
10
22.3158
20
-2.23809
11
22.0777
21
-2.23809
0
LINE
8
BLACK
6
CONTINUOUS
10
22.0777
20
-2.23809
11
21.8873
21
-2.19048
0
LINE
8
BLACK
6
CONTINUOUS
10
21.8873
20
-2.19048
11
21.792
21
-2.14286
0
LINE
8
BLACK
6
CONTINUOUS
10
21.792
20
-2.14286
11
21.7444
21
-2.09524
0
LINE
8
BLACK
6
CONTINUOUS
10
21.7444
20
-2.09524
11
21.6968
21
-2
0
LINE
8
BLACK
6
CONTINUOUS
10
21.6968
20
-1.04762
11
21.6968
21
-0.95238
0
LINE
8
BLACK
6
CONTINUOUS
10
21.6968
20
-0.95238
11
21.7444
21
-0.857142
0
LINE
8
BLACK
6
CONTINUOUS
10
21.7444
20
-0.857142
11
21.792
21
-0.809523
0
LINE
8
BLACK
6
CONTINUOUS
10
21.792
20
-0.809523
11
21.8873
21
-0.761904
0
LINE
8
BLACK
6
CONTINUOUS
10
21.8873
20
-0.761904
11
22.0777
21
-0.714285
0
LINE
8
BLACK
6
CONTINUOUS
10
22.0777
20
-0.714285
11
22.3158
21
-0.714285
0
LINE
8
BLACK
6
CONTINUOUS
10
22.3158
20
-0.714285
11
22.5063
21
-0.761904
0
LINE
8
BLACK
6
CONTINUOUS
10
22.5063
20
-0.761904
11
22.6015
21
-0.809523
0
LINE
8
BLACK
6
CONTINUOUS
10
22.6015
20
-0.809523
11
22.6492
21
-0.857142
0
LINE
8
BLACK
6
CONTINUOUS
10
22.6492
20
-0.857142
11
22.6968
21
-0.95238
0
LINE
8
BLACK
6
CONTINUOUS
10
22.6968
20
-0.95238
11
22.6968
21
-1.04762
0
LINE
8
BLACK
6
CONTINUOUS
10
22.6968
20
-1.04762
11
22.6492
21
-1.14286
0
LINE
8
BLACK
6
CONTINUOUS
10
22.6492
20
-1.14286
11
22.6015
21
-1.19048
0
LINE
8
BLACK
6
CONTINUOUS
10
22.6015
20
-1.19048
11
22.5063
21
-1.23809
0
LINE
8
BLACK
6
CONTINUOUS
10
22.5063
20
-1.23809
11
22.3158
21
-1.28571
0
LINE
8
BLACK
6
CONTINUOUS
10
22.3158
20
-1.28571
11
22.0777
21
-1.28571
0
LINE
8
BLACK
6
CONTINUOUS
10
22.0777
20
-1.28571
11
21.8873
21
-1.23809
0
LINE
8
BLACK
6
CONTINUOUS
10
21.8873
20
-1.23809
11
21.792
21
-1.19048
0
LINE
8
BLACK
6
CONTINUOUS
10
21.792
20
-1.19048
11
21.7444
21
-1.14286
0
LINE
8
BLACK
6
CONTINUOUS
10
21.7444
20
-1.14286
11
21.6968
21
-1.04762
0
LINE
8
BLACK
6
CONTINUOUS
10
21.6968
20
-0.095238
11
21.6968
21
0
0
LINE
8
BLACK
6
CONTINUOUS
10
21.6968
20
0
11
21.7444
21
0.095239
0
LINE
8
BLACK
6
CONTINUOUS
10
21.7444
20
0.095239
11
21.792
21
0.142858
0
LINE
8
BLACK
6
CONTINUOUS
10
21.792
20
0.142858
11
21.8873
21
0.190477
0
LINE
8
BLACK
6
CONTINUOUS
10
21.8873
20
0.190477
11
22.0777
21
0.238096
0
LINE
8
BLACK
6
CONTINUOUS
10
22.0777
20
0.238096
11
22.3158
21
0.238096
0
LINE
8
BLACK
6
CONTINUOUS
10
22.3158
20
0.238096
11
22.5063
21
0.190477
0
LINE
8
BLACK
6
CONTINUOUS
10
22.5063
20
0.190477
11
22.6015
21
0.142858
0
LINE
8
BLACK
6
CONTINUOUS
10
22.6015
20
0.142858
11
22.6492
21
0.095239
0
LINE
8
BLACK
6
CONTINUOUS
10
22.6492
20
0.095239
11
22.6968
21
0
0
LINE
8
BLACK
6
CONTINUOUS
10
22.6968
20
0
11
22.6968
21
-0.095238
0
LINE
8
BLACK
6
CONTINUOUS
10
22.6968
20
-0.095238
11
22.6492
21
-0.190476
0
LINE
8
BLACK
6
CONTINUOUS
10
22.6492
20
-0.190476
11
22.6015
21
-0.238095
0
LINE
8
BLACK
6
CONTINUOUS
10
22.6015
20
-0.238095
11
22.5063
21
-0.285714
0
LINE
8
BLACK
6
CONTINUOUS
10
22.5063
20
-0.285714
11
22.3158
21
-0.333333
0
LINE
8
BLACK
6
CONTINUOUS
10
22.3158
20
-0.333333
11
22.0777
21
-0.333333
0
LINE
8
BLACK
6
CONTINUOUS
10
22.0777
20
-0.333333
11
21.8873
21
-0.285714
0
LINE
8
BLACK
6
CONTINUOUS
10
21.8873
20
-0.285714
11
21.792
21
-0.238095
0
LINE
8
BLACK
6
CONTINUOUS
10
21.792
20
-0.238095
11
21.7444
21
-0.190476
0
LINE
8
BLACK
6
CONTINUOUS
10
21.7444
20
-0.190476
11
21.6968
21
-0.095238
0
LINE
8
BLACK
6
CONTINUOUS
10
21.6968
20
0.857143
11
21.6968
21
0.952381
0
LINE
8
BLACK
6
CONTINUOUS
10
21.6968
20
0.952381
11
21.7444
21
1.04762
0
LINE
8
BLACK
6
CONTINUOUS
10
21.7444
20
1.04762
11
21.792
21
1.09524
0
LINE
8
BLACK
6
CONTINUOUS
10
21.792
20
1.09524
11
21.8873
21
1.14286
0
LINE
8
BLACK
6
CONTINUOUS
10
21.8873
20
1.14286
11
22.0777
21
1.19048
0
LINE
8
BLACK
6
CONTINUOUS
10
22.0777
20
1.19048
11
22.3158
21
1.19048
0
LINE
8
BLACK
6
CONTINUOUS
10
22.3158
20
1.19048
11
22.5063
21
1.14286
0
LINE
8
BLACK
6
CONTINUOUS
10
22.5063
20
1.14286
11
22.6015
21
1.09524
0
LINE
8
BLACK
6
CONTINUOUS
10
22.6015
20
1.09524
11
22.6492
21
1.04762
0
LINE
8
BLACK
6
CONTINUOUS
10
22.6492
20
1.04762
11
22.6968
21
0.952381
0
LINE
8
BLACK
6
CONTINUOUS
10
22.6968
20
0.952381
11
22.6968
21
0.857143
0
LINE
8
BLACK
6
CONTINUOUS
10
22.6968
20
0.857143
11
22.6492
21
0.761905
0
LINE
8
BLACK
6
CONTINUOUS
10
22.6492
20
0.761905
11
22.6015
21
0.714286
0
LINE
8
BLACK
6
CONTINUOUS
10
22.6015
20
0.714286
11
22.5063
21
0.666667
0
LINE
8
BLACK
6
CONTINUOUS
10
22.5063
20
0.666667
11
22.3158
21
0.619048
0
LINE
8
BLACK
6
CONTINUOUS
10
22.3158
20
0.619048
11
22.0777
21
0.619048
0
LINE
8
BLACK
6
CONTINUOUS
10
22.0777
20
0.619048
11
21.8873
21
0.666667
0
LINE
8
BLACK
6
CONTINUOUS
10
21.8873
20
0.666667
11
21.792
21
0.714286
0
LINE
8
BLACK
6
CONTINUOUS
10
21.792
20
0.714286
11
21.7444
21
0.761905
0
LINE
8
BLACK
6
CONTINUOUS
10
21.7444
20
0.761905
11
21.6968
21
0.857143
0
LINE
8
BLACK
6
CONTINUOUS
10
22.6968
20
2.38095
11
22.0301
21
2.38095
0
LINE
8
BLACK
6
CONTINUOUS
10
22.1254
20
2.38095
11
22.0777
21
2.42857
0
LINE
8
BLACK
6
CONTINUOUS
10
22.0777
20
2.42857
11
22.0301
21
2.52381
0
LINE
8
BLACK
6
CONTINUOUS
10
22.0301
20
2.52381
11
22.0301
21
2.66667
0
LINE
8
BLACK
6
CONTINUOUS
10
22.0301
20
2.66667
11
22.0777
21
2.76191
0
LINE
8
BLACK
6
CONTINUOUS
10
22.0777
20
2.76191
11
22.173
21
2.80952
0
LINE
8
BLACK
6
CONTINUOUS
10
22.173
20
2.80952
11
22.6968
21
2.80952
0
LINE
8
BLACK
6
CONTINUOUS
10
22.173
20
2.80952
11
22.0777
21
2.85714
0
LINE
8
BLACK
6
CONTINUOUS
10
22.0777
20
2.85714
11
22.0301
21
2.95238
0
LINE
8
BLACK
6
CONTINUOUS
10
22.0301
20
2.95238
11
22.0301
21
3.09524
0
LINE
8
BLACK
6
CONTINUOUS
10
22.0301
20
3.09524
11
22.0777
21
3.19048
0
LINE
8
BLACK
6
CONTINUOUS
10
22.0777
20
3.19048
11
22.173
21
3.2381
0
LINE
8
BLACK
6
CONTINUOUS
10
22.173
20
3.2381
11
22.6968
21
3.2381
0
LINE
8
BLACK
6
CONTINUOUS
10
22.6968
20
3.71429
11
22.0301
21
3.71429
0
LINE
8
BLACK
6
CONTINUOUS
10
22.1254
20
3.71429
11
22.0777
21
3.7619
0
LINE
8
BLACK
6
CONTINUOUS
10
22.0777
20
3.7619
11
22.0301
21
3.85714
0
LINE
8
BLACK
6
CONTINUOUS
10
22.0301
20
3.85714
11
22.0301
21
4
0
LINE
8
BLACK
6
CONTINUOUS
10
22.0301
20
4
11
22.0777
21
4.09524
0
LINE
8
BLACK
6
CONTINUOUS
10
22.0777
20
4.09524
11
22.173
21
4.14286
0
LINE
8
BLACK
6
CONTINUOUS
10
22.173
20
4.14286
11
22.6968
21
4.14286
0
LINE
8
BLACK
6
CONTINUOUS
10
22.173
20
4.14286
11
22.0777
21
4.19048
0
LINE
8
BLACK
6
CONTINUOUS
10
22.0777
20
4.19048
11
22.0301
21
4.28571
0
LINE
8
BLACK
6
CONTINUOUS
10
22.0301
20
4.28571
11
22.0301
21
4.42857
0
LINE
8
BLACK
6
CONTINUOUS
10
22.0301
20
4.42857
11
22.0777
21
4.52381
0
LINE
8
BLACK
6
CONTINUOUS
10
22.0777
20
4.52381
11
22.173
21
4.57143
0
LINE
8
BLACK
6
CONTINUOUS
10
22.173
20
4.57143
11
22.6968
21
4.57143
0
LINE
8
BLACK
6
CONTINUOUS
10
0.5
20
-16
11
21.6808
21
-16
0
LINE
8
BLACK
6
CONTINUOUS
10
0.5
20
16
11
21.6808
21
16
0
LINE
8
BLACK
6
CONTINUOUS
10
21.0944
20
-16
11
21.0944
21
16
0
LINE
8
BLACK
6
CONTINUOUS
10
21.0944
20
-16
11
21.0944
21
16
0
LINE
8
BLACK
6
CONTINUOUS
10
21.0944
20
-16
11
21.6808
21
-14.8735
0
LINE
8
BLACK
6
CONTINUOUS
10
21.0944
20
-16
11
20.508
21
-14.8735
0
LINE
8
BLACK
6
CONTINUOUS
10
21.0944
20
16
11
20.508
21
14.8735
0
LINE
8
BLACK
6
CONTINUOUS
10
21.0944
20
16
11
21.6808
21
14.8735
0
LINE
8
BLACK
6
CONTINUOUS
10
19.0005
20
-23.5147
11
18.62
21
-23.941
0
LINE
8
BLACK
6
CONTINUOUS
10
18.8102
20
-23.7278
11
18.0642
21
-23.0619
0
LINE
8
BLACK
6
CONTINUOUS
10
18.0642
20
-23.0619
11
18.1073
21
-23.2281
0
LINE
8
BLACK
6
CONTINUOUS
10
18.1073
20
-23.2281
11
18.115
21
-23.3626
0
LINE
8
BLACK
6
CONTINUOUS
10
18.115
20
-23.3626
11
18.0871
21
-23.4654
0
LINE
8
BLACK
6
CONTINUOUS
10
18.8252
20
-22.2093
11
18.6983
21
-22.3514
0
LINE
8
BLACK
6
CONTINUOUS
10
18.6983
20
-22.3514
11
18.6705
21
-22.4542
0
LINE
8
BLACK
6
CONTINUOUS
10
18.6705
20
-22.4542
11
18.6743
21
-22.5214
0
LINE
8
BLACK
6
CONTINUOUS
10
18.6743
20
-22.5214
11
18.7174
21
-22.6876
0
LINE
8
BLACK
6
CONTINUOUS
10
18.7174
20
-22.6876
11
18.8278
21
-22.85
0
LINE
8
BLACK
6
CONTINUOUS
10
18.8278
20
-22.85
11
19.112
21
-23.1036
0
LINE
8
BLACK
6
CONTINUOUS
10
19.112
20
-23.1036
11
19.2148
21
-23.1315
0
LINE
8
BLACK
6
CONTINUOUS
10
19.2148
20
-23.1315
11
19.282
21
-23.1277
0
LINE
8
BLACK
6
CONTINUOUS
10
19.282
20
-23.1277
11
19.381
21
-23.0884
0
LINE
8
BLACK
6
CONTINUOUS
10
19.381
20
-23.0884
11
19.5078
21
-22.9463
0
LINE
8
BLACK
6
CONTINUOUS
10
19.5078
20
-22.9463
11
19.5357
21
-22.8435
0
LINE
8
BLACK
6
CONTINUOUS
10
19.5357
20
-22.8435
11
19.5319
21
-22.7763
0
LINE
8
BLACK
6
CONTINUOUS
10
19.5319
20
-22.7763
11
19.4925
21
-22.6773
0
LINE
8
BLACK
6
CONTINUOUS
10
19.4925
20
-22.6773
11
19.3149
21
-22.5188
0
LINE
8
BLACK
6
CONTINUOUS
10
19.3149
20
-22.5188
11
19.2121
21
-22.4909
0
LINE
8
BLACK
6
CONTINUOUS
10
19.2121
20
-22.4909
11
19.1449
21
-22.4947
0
LINE
8
BLACK
6
CONTINUOUS
10
19.1449
20
-22.4947
11
19.046
21
-22.534
0
LINE
8
BLACK
6
CONTINUOUS
10
19.046
20
-22.534
11
18.9191
21
-22.6761
0
LINE
8
BLACK
6
CONTINUOUS
10
18.9191
20
-22.6761
11
18.8912
21
-22.7789
0
LINE
8
BLACK
6
CONTINUOUS
10
18.8912
20
-22.7789
11
18.8951
21
-22.8461
0
LINE
8
BLACK
6
CONTINUOUS
10
18.8951
20
-22.8461
11
18.9344
21
-22.9451
0
LINE
8
BLACK
6
CONTINUOUS
10
19.9162
20
-22.4172
11
19.9517
21
-22.4489
0
LINE
8
BLACK
6
CONTINUOUS
10
19.9517
20
-22.4489
11
19.9911
21
-22.5478
0
LINE
8
BLACK
6
CONTINUOUS
10
19.9911
20
-22.5478
11
19.9949
21
-22.6151
0
LINE
8
BLACK
6
CONTINUOUS
10
19.5304
20
-21.5622
11
19.5266
21
-21.495
0
LINE
8
BLACK
6
CONTINUOUS
10
19.5266
20
-21.495
11
19.5545
21
-21.3922
0
LINE
8
BLACK
6
CONTINUOUS
10
19.5545
20
-21.3922
11
19.713
21
-21.2146
0
LINE
8
BLACK
6
CONTINUOUS
10
19.713
20
-21.2146
11
19.812
21
-21.1752
0
LINE
8
BLACK
6
CONTINUOUS
10
19.812
20
-21.1752
11
19.8792
21
-21.1714
0
LINE
8
BLACK
6
CONTINUOUS
10
19.8792
20
-21.1714
11
19.982
21
-21.1993
0
LINE
8
BLACK
6
CONTINUOUS
10
19.982
20
-21.1993
11
20.053
21
-21.2627
0
LINE
8
BLACK
6
CONTINUOUS
10
20.053
20
-21.2627
11
20.1279
21
-21.3934
0
LINE
8
BLACK
6
CONTINUOUS
10
20.1279
20
-21.3934
11
20.1737
21
-22.2002
0
LINE
8
BLACK
6
CONTINUOUS
10
20.1737
20
-22.2002
11
20.5859
21
-21.7384
0
LINE
8
BLACK
6
CONTINUOUS
10
21.2201
20
-21.0279
11
20.8396
21
-21.4542
0
LINE
8
BLACK
6
CONTINUOUS
10
21.0299
20
-21.241
11
20.2838
21
-20.5751
0
LINE
8
BLACK
6
CONTINUOUS
10
20.2838
20
-20.5751
11
20.327
21
-20.7413
0
LINE
8
BLACK
6
CONTINUOUS
10
20.327
20
-20.7413
11
20.3346
21
-20.8758
0
LINE
8
BLACK
6
CONTINUOUS
10
20.3346
20
-20.8758
11
20.3067
21
-20.9785
0
LINE
8
BLACK
6
CONTINUOUS
10
21.1743
20
-20.221
11
21.0754
21
-20.2604
0
LINE
8
BLACK
6
CONTINUOUS
10
21.0754
20
-20.2604
11
21.0081
21
-20.2642
0
LINE
8
BLACK
6
CONTINUOUS
10
21.0081
20
-20.2642
11
20.9054
21
-20.2363
0
LINE
8
BLACK
6
CONTINUOUS
10
20.9054
20
-20.2363
11
20.8698
21
-20.2046
0
LINE
8
BLACK
6
CONTINUOUS
10
20.8698
20
-20.2046
11
20.8305
21
-20.1056
0
LINE
8
BLACK
6
CONTINUOUS
10
20.8305
20
-20.1056
11
20.8267
21
-20.0384
0
LINE
8
BLACK
6
CONTINUOUS
10
20.8267
20
-20.0384
11
20.8546
21
-19.9356
0
LINE
8
BLACK
6
CONTINUOUS
10
20.8546
20
-19.9356
11
20.9814
21
-19.7935
0
LINE
8
BLACK
6
CONTINUOUS
10
20.9814
20
-19.7935
11
21.0804
21
-19.7542
0
LINE
8
BLACK
6
CONTINUOUS
10
21.0804
20
-19.7542
11
21.1476
21
-19.7504
0
LINE
8
BLACK
6
CONTINUOUS
10
21.1476
20
-19.7504
11
21.2503
21
-19.7783
0
LINE
8
BLACK
6
CONTINUOUS
10
21.2503
20
-19.7783
11
21.2859
21
-19.81
0
LINE
8
BLACK
6
CONTINUOUS
10
21.2859
20
-19.81
11
21.3252
21
-19.9089
0
LINE
8
BLACK
6
CONTINUOUS
10
21.3252
20
-19.9089
11
21.329
21
-19.9762
0
LINE
8
BLACK
6
CONTINUOUS
10
21.329
20
-19.9762
11
21.3011
21
-20.0789
0
LINE
8
BLACK
6
CONTINUOUS
10
21.3011
20
-20.0789
11
21.1743
21
-20.221
0
LINE
8
BLACK
6
CONTINUOUS
10
21.1743
20
-20.221
11
21.1464
21
-20.3238
0
LINE
8
BLACK
6
CONTINUOUS
10
21.1464
20
-20.3238
11
21.1502
21
-20.391
0
LINE
8
BLACK
6
CONTINUOUS
10
21.1502
20
-20.391
11
21.1896
21
-20.49
0
LINE
8
BLACK
6
CONTINUOUS
10
21.1896
20
-20.49
11
21.3317
21
-20.6168
0
LINE
8
BLACK
6
CONTINUOUS
10
21.3317
20
-20.6168
11
21.4344
21
-20.6447
0
LINE
8
BLACK
6
CONTINUOUS
10
21.4344
20
-20.6447
11
21.5017
21
-20.6409
0
LINE
8
BLACK
6
CONTINUOUS
10
21.5017
20
-20.6409
11
21.6006
21
-20.6015
0
LINE
8
BLACK
6
CONTINUOUS
10
21.6006
20
-20.6015
11
21.7275
21
-20.4594
0
LINE
8
BLACK
6
CONTINUOUS
10
21.7275
20
-20.4594
11
21.7553
21
-20.3567
0
LINE
8
BLACK
6
CONTINUOUS
10
21.7553
20
-20.3567
11
21.7515
21
-20.2894
0
LINE
8
BLACK
6
CONTINUOUS
10
21.7515
20
-20.2894
11
21.7122
21
-20.1905
0
LINE
8
BLACK
6
CONTINUOUS
10
21.7122
20
-20.1905
11
21.5701
21
-20.0637
0
LINE
8
BLACK
6
CONTINUOUS
10
21.5701
20
-20.0637
11
21.4673
21
-20.0358
0
LINE
8
BLACK
6
CONTINUOUS
10
21.4673
20
-20.0358
11
21.4001
21
-20.0396
0
LINE
8
BLACK
6
CONTINUOUS
10
21.4001
20
-20.0396
11
21.3011
21
-20.0789
0
LINE
8
BLACK
6
CONTINUOUS
10
21.8085
20
-19.5105
11
21.7095
21
-19.5499
0
LINE
8
BLACK
6
CONTINUOUS
10
21.7095
20
-19.5499
11
21.6423
21
-19.5537
0
LINE
8
BLACK
6
CONTINUOUS
10
21.6423
20
-19.5537
11
21.5395
21
-19.5258
0
LINE
8
BLACK
6
CONTINUOUS
10
21.5395
20
-19.5258
11
21.504
21
-19.4941
0
LINE
8
BLACK
6
CONTINUOUS
10
21.504
20
-19.4941
11
21.4647
21
-19.3951
0
LINE
8
BLACK
6
CONTINUOUS
10
21.4647
20
-19.3951
11
21.4609
21
-19.3279
0
LINE
8
BLACK
6
CONTINUOUS
10
21.4609
20
-19.3279
11
21.4888
21
-19.2251
0
LINE
8
BLACK
6
CONTINUOUS
10
21.4888
20
-19.2251
11
21.6156
21
-19.083
0
LINE
8
BLACK
6
CONTINUOUS
10
21.6156
20
-19.083
11
21.7145
21
-19.0437
0
LINE
8
BLACK
6
CONTINUOUS
10
21.7145
20
-19.0437
11
21.7818
21
-19.0399
0
LINE
8
BLACK
6
CONTINUOUS
10
21.7818
20
-19.0399
11
21.8845
21
-19.0678
0
LINE
8
BLACK
6
CONTINUOUS
10
21.8845
20
-19.0678
11
21.9201
21
-19.0995
0
LINE
8
BLACK
6
CONTINUOUS
10
21.9201
20
-19.0995
11
21.9594
21
-19.1984
0
LINE
8
BLACK
6
CONTINUOUS
10
21.9594
20
-19.1984
11
21.9632
21
-19.2656
0
LINE
8
BLACK
6
CONTINUOUS
10
21.9632
20
-19.2656
11
21.9353
21
-19.3684
0
LINE
8
BLACK
6
CONTINUOUS
10
21.9353
20
-19.3684
11
21.8085
21
-19.5105
0
LINE
8
BLACK
6
CONTINUOUS
10
21.8085
20
-19.5105
11
21.7806
21
-19.6133
0
LINE
8
BLACK
6
CONTINUOUS
10
21.7806
20
-19.6133
11
21.7844
21
-19.6805
0
LINE
8
BLACK
6
CONTINUOUS
10
21.7844
20
-19.6805
11
21.8238
21
-19.7795
0
LINE
8
BLACK
6
CONTINUOUS
10
21.8238
20
-19.7795
11
21.9659
21
-19.9063
0
LINE
8
BLACK
6
CONTINUOUS
10
21.9659
20
-19.9063
11
22.0686
21
-19.9342
0
LINE
8
BLACK
6
CONTINUOUS
10
22.0686
20
-19.9342
11
22.1359
21
-19.9304
0
LINE
8
BLACK
6
CONTINUOUS
10
22.1359
20
-19.9304
11
22.2348
21
-19.891
0
LINE
8
BLACK
6
CONTINUOUS
10
22.2348
20
-19.891
11
22.3616
21
-19.7489
0
LINE
8
BLACK
6
CONTINUOUS
10
22.3616
20
-19.7489
11
22.3895
21
-19.6462
0
LINE
8
BLACK
6
CONTINUOUS
10
22.3895
20
-19.6462
11
22.3857
21
-19.5789
0
LINE
8
BLACK
6
CONTINUOUS
10
22.3857
20
-19.5789
11
22.3464
21
-19.48
0
LINE
8
BLACK
6
CONTINUOUS
10
22.3464
20
-19.48
11
22.2043
21
-19.3531
0
LINE
8
BLACK
6
CONTINUOUS
10
22.2043
20
-19.3531
11
22.1015
21
-19.3252
0
LINE
8
BLACK
6
CONTINUOUS
10
22.1015
20
-19.3252
11
22.0343
21
-19.3291
0
LINE
8
BLACK
6
CONTINUOUS
10
22.0343
20
-19.3291
11
21.9353
21
-19.3684
0
LINE
8
BLACK
6
CONTINUOUS
10
23.2812
20
-18.7187
11
22.7838
21
-18.2747
0
LINE
8
BLACK
6
CONTINUOUS
10
22.8549
20
-18.3381
11
22.8511
21
-18.2709
0
LINE
8
BLACK
6
CONTINUOUS
10
22.8511
20
-18.2709
11
22.879
21
-18.1682
0
LINE
8
BLACK
6
CONTINUOUS
10
22.879
20
-18.1682
11
22.9741
21
-18.0616
0
LINE
8
BLACK
6
CONTINUOUS
10
22.9741
20
-18.0616
11
23.073
21
-18.0222
0
LINE
8
BLACK
6
CONTINUOUS
10
23.073
20
-18.0222
11
23.1758
21
-18.0501
0
LINE
8
BLACK
6
CONTINUOUS
10
23.1758
20
-18.0501
11
23.5666
21
-18.3989
0
LINE
8
BLACK
6
CONTINUOUS
10
23.1758
20
-18.0501
11
23.1365
21
-17.9512
0
LINE
8
BLACK
6
CONTINUOUS
10
23.1365
20
-17.9512
11
23.1643
21
-17.8484
0
LINE
8
BLACK
6
CONTINUOUS
10
23.1643
20
-17.8484
11
23.2595
21
-17.7418
0
LINE
8
BLACK
6
CONTINUOUS
10
23.2595
20
-17.7418
11
23.3584
21
-17.7025
0
LINE
8
BLACK
6
CONTINUOUS
10
23.3584
20
-17.7025
11
23.4612
21
-17.7304
0
LINE
8
BLACK
6
CONTINUOUS
10
23.4612
20
-17.7304
11
23.852
21
-18.0792
0
LINE
8
BLACK
6
CONTINUOUS
10
24.1691
20
-17.7239
11
23.6717
21
-17.28
0
LINE
8
BLACK
6
CONTINUOUS
10
23.7427
20
-17.3434
11
23.7389
21
-17.2762
0
LINE
8
BLACK
6
CONTINUOUS
10
23.7389
20
-17.2762
11
23.7668
21
-17.1734
0
LINE
8
BLACK
6
CONTINUOUS
10
23.7668
20
-17.1734
11
23.862
21
-17.0668
0
LINE
8
BLACK
6
CONTINUOUS
10
23.862
20
-17.0668
11
23.9609
21
-17.0275
0
LINE
8
BLACK
6
CONTINUOUS
10
23.9609
20
-17.0275
11
24.0637
21
-17.0554
0
LINE
8
BLACK
6
CONTINUOUS
10
24.0637
20
-17.0554
11
24.4544
21
-17.4042
0
LINE
8
BLACK
6
CONTINUOUS
10
24.0637
20
-17.0554
11
24.0243
21
-16.9565
0
LINE
8
BLACK
6
CONTINUOUS
10
24.0243
20
-16.9565
11
24.0522
21
-16.8537
0
LINE
8
BLACK
6
CONTINUOUS
10
24.0522
20
-16.8537
11
24.1473
21
-16.7471
0
LINE
8
BLACK
6
CONTINUOUS
10
24.1473
20
-16.7471
11
24.2463
21
-16.7078
0
LINE
8
BLACK
6
CONTINUOUS
10
24.2463
20
-16.7078
11
24.349
21
-16.7357
0
LINE
8
BLACK
6
CONTINUOUS
10
24.349
20
-16.7357
11
24.7398
21
-17.0845
0
LINE
8
BLACK
6
CONTINUOUS
10
0.373023
20
-12.3329
11
15.5378
21
-25.8684
0
LINE
8
BLACK
6
CONTINUOUS
10
11.173
20
-0.232946
11
26.3378
21
-13.7684
0
LINE
8
BLACK
6
CONTINUOUS
10
15.1003
20
-25.4779
11
25.9003
21
-13.3779
0
LINE
8
BLACK
6
CONTINUOUS
10
15.1003
20
-25.4779
11
25.9003
21
-13.3779
0
LINE
8
BLACK
6
CONTINUOUS
10
15.1003
20
-25.4779
11
16.2879
21
-25.028
0
LINE
8
BLACK
6
CONTINUOUS
10
15.1003
20
-25.4779
11
15.4129
21
-24.247
0
LINE
8
BLACK
6
CONTINUOUS
10
25.9003
20
-13.3779
11
24.7127
21
-13.8279
0
LINE
8
BLACK
6
CONTINUOUS
10
25.9003
20
-13.3779
11
25.5877
21
-14.6089
0
LINE
8
BLACK
6
CONTINUOUS
10
-16.4054
20
10.6812
11
-16.8094
21
10.2771
0
LINE
8
BLACK
6
CONTINUOUS
10
-16.6074
20
10.4792
11
-17.3145
21
11.1863
0
LINE
8
BLACK
6
CONTINUOUS
10
-17.3145
20
11.1863
11
-17.2809
21
11.0179
0
LINE
8
BLACK
6
CONTINUOUS
10
-17.2809
20
11.0179
11
-17.2809
21
10.8832
0
LINE
8
BLACK
6
CONTINUOUS
10
-17.2809
20
10.8832
11
-17.3145
21
10.7822
0
LINE
8
BLACK
6
CONTINUOUS
10
-16.5064
20
11.9944
11
-16.6411
21
11.8597
0
LINE
8
BLACK
6
CONTINUOUS
10
-16.6411
20
11.8597
11
-16.6748
21
11.7587
0
LINE
8
BLACK
6
CONTINUOUS
10
-16.6748
20
11.7587
11
-16.6748
21
11.6913
0
LINE
8
BLACK
6
CONTINUOUS
10
-16.6748
20
11.6913
11
-16.6411
21
11.523
0
LINE
8
BLACK
6
CONTINUOUS
10
-16.6411
20
11.523
11
-16.5401
21
11.3546
0
LINE
8
BLACK
6
CONTINUOUS
10
-16.5401
20
11.3546
11
-16.2707
21
11.0853
0
LINE
8
BLACK
6
CONTINUOUS
10
-16.2707
20
11.0853
11
-16.1697
21
11.0516
0
LINE
8
BLACK
6
CONTINUOUS
10
-16.1697
20
11.0516
11
-16.1023
21
11.0516
0
LINE
8
BLACK
6
CONTINUOUS
10
-16.1023
20
11.0516
11
-16.0013
21
11.0853
0
LINE
8
BLACK
6
CONTINUOUS
10
-16.0013
20
11.0853
11
-15.8666
21
11.2199
0
LINE
8
BLACK
6
CONTINUOUS
10
-15.8666
20
11.2199
11
-15.833
21
11.321
0
LINE
8
BLACK
6
CONTINUOUS
10
-15.833
20
11.321
11
-15.833
21
11.3883
0
LINE
8
BLACK
6
CONTINUOUS
10
-15.833
20
11.3883
11
-15.8666
21
11.4893
0
LINE
8
BLACK
6
CONTINUOUS
10
-15.8666
20
11.4893
11
-16.035
21
11.6577
0
LINE
8
BLACK
6
CONTINUOUS
10
-16.035
20
11.6577
11
-16.136
21
11.6913
0
LINE
8
BLACK
6
CONTINUOUS
10
-16.136
20
11.6913
11
-16.2034
21
11.6913
0
LINE
8
BLACK
6
CONTINUOUS
10
-16.2034
20
11.6913
11
-16.3044
21
11.6577
0
LINE
8
BLACK
6
CONTINUOUS
10
-16.3044
20
11.6577
11
-16.4391
21
11.523
0
LINE
8
BLACK
6
CONTINUOUS
10
-16.4391
20
11.523
11
-16.4727
21
11.422
0
LINE
8
BLACK
6
CONTINUOUS
10
-16.4727
20
11.422
11
-16.4727
21
11.3546
0
LINE
8
BLACK
6
CONTINUOUS
10
-16.4727
20
11.3546
11
-16.4391
21
11.2536
0
LINE
8
BLACK
6
CONTINUOUS
10
-15.4289
20
11.725
11
-15.3952
21
11.6913
0
LINE
8
BLACK
6
CONTINUOUS
10
-15.3952
20
11.6913
11
-15.3616
21
11.5903
0
LINE
8
BLACK
6
CONTINUOUS
10
-15.3616
20
11.5903
11
-15.3616
21
11.523
0
LINE
8
BLACK
6
CONTINUOUS
10
-15.0585
20
12.0281
11
-14.9238
21
12.1627
0
LINE
8
BLACK
6
CONTINUOUS
10
-14.9238
20
12.1627
11
-14.8902
21
12.2638
0
LINE
8
BLACK
6
CONTINUOUS
10
-14.8902
20
12.2638
11
-14.8902
21
12.3311
0
LINE
8
BLACK
6
CONTINUOUS
10
-14.8902
20
12.3311
11
-14.9238
21
12.4995
0
LINE
8
BLACK
6
CONTINUOUS
10
-14.9238
20
12.4995
11
-15.0248
21
12.6678
0
LINE
8
BLACK
6
CONTINUOUS
10
-15.0248
20
12.6678
11
-15.2942
21
12.9372
0
LINE
8
BLACK
6
CONTINUOUS
10
-15.2942
20
12.9372
11
-15.3952
21
12.9709
0
LINE
8
BLACK
6
CONTINUOUS
10
-15.3952
20
12.9709
11
-15.4626
21
12.9709
0
LINE
8
BLACK
6
CONTINUOUS
10
-15.4626
20
12.9709
11
-15.5636
21
12.9372
0
LINE
8
BLACK
6
CONTINUOUS
10
-15.5636
20
12.9372
11
-15.6983
21
12.8025
0
LINE
8
BLACK
6
CONTINUOUS
10
-15.6983
20
12.8025
11
-15.732
21
12.7015
0
LINE
8
BLACK
6
CONTINUOUS
10
-15.732
20
12.7015
11
-15.732
21
12.6342
0
LINE
8
BLACK
6
CONTINUOUS
10
-15.732
20
12.6342
11
-15.6983
21
12.5331
0
LINE
8
BLACK
6
CONTINUOUS
10
-15.6983
20
12.5331
11
-15.5299
21
12.3648
0
LINE
8
BLACK
6
CONTINUOUS
10
-15.5299
20
12.3648
11
-15.4289
21
12.3311
0
LINE
8
BLACK
6
CONTINUOUS
10
-15.4289
20
12.3311
11
-15.3616
21
12.3311
0
LINE
8
BLACK
6
CONTINUOUS
10
-15.3616
20
12.3311
11
-15.2605
21
12.3648
0
LINE
8
BLACK
6
CONTINUOUS
10
-15.2605
20
12.3648
11
-15.1259
21
12.4995
0
LINE
8
BLACK
6
CONTINUOUS
10
-15.1259
20
12.4995
11
-15.0922
21
12.6005
0
LINE
8
BLACK
6
CONTINUOUS
10
-15.0922
20
12.6005
11
-15.0922
21
12.6678
0
LINE
8
BLACK
6
CONTINUOUS
10
-15.0922
20
12.6678
11
-15.1259
21
12.7688
0
LINE
8
BLACK
6
CONTINUOUS
10
-15.1932
20
13.3076
11
-14.7218
21
13.779
0
LINE
8
BLACK
6
CONTINUOUS
10
-14.7218
20
13.779
11
-14.3177
21
12.7688
0
LINE
8
BLACK
6
CONTINUOUS
10
-14.3177
20
14.1831
11
-14.2504
21
14.2504
0
LINE
8
BLACK
6
CONTINUOUS
10
-14.2504
20
14.2504
11
-14.1494
21
14.2841
0
LINE
8
BLACK
6
CONTINUOUS
10
-14.1494
20
14.2841
11
-14.082
21
14.2841
0
LINE
8
BLACK
6
CONTINUOUS
10
-14.082
20
14.2841
11
-13.981
21
14.2504
0
LINE
8
BLACK
6
CONTINUOUS
10
-13.981
20
14.2504
11
-13.8127
21
14.1494
0
LINE
8
BLACK
6
CONTINUOUS
10
-13.8127
20
14.1494
11
-13.6443
21
13.981
0
LINE
8
BLACK
6
CONTINUOUS
10
-13.6443
20
13.981
11
-13.5433
21
13.8127
0
LINE
8
BLACK
6
CONTINUOUS
10
-13.5433
20
13.8127
11
-13.5096
21
13.7116
0
LINE
8
BLACK
6
CONTINUOUS
10
-13.5096
20
13.7116
11
-13.5096
21
13.6443
0
LINE
8
BLACK
6
CONTINUOUS
10
-13.5096
20
13.6443
11
-13.5433
21
13.5433
0
LINE
8
BLACK
6
CONTINUOUS
10
-13.5433
20
13.5433
11
-13.6106
21
13.4759
0
LINE
8
BLACK
6
CONTINUOUS
10
-13.6106
20
13.4759
11
-13.7116
21
13.4423
0
LINE
8
BLACK
6
CONTINUOUS
10
-13.7116
20
13.4423
11
-13.779
21
13.4423
0
LINE
8
BLACK
6
CONTINUOUS
10
-13.779
20
13.4423
11
-13.88
21
13.4759
0
LINE
8
BLACK
6
CONTINUOUS
10
-13.88
20
13.4759
11
-14.0484
21
13.577
0
LINE
8
BLACK
6
CONTINUOUS
10
-14.0484
20
13.577
11
-14.2167
21
13.7453
0
LINE
8
BLACK
6
CONTINUOUS
10
-14.2167
20
13.7453
11
-14.3177
21
13.9137
0
LINE
8
BLACK
6
CONTINUOUS
10
-14.3177
20
13.9137
11
-14.3514
21
14.0147
0
LINE
8
BLACK
6
CONTINUOUS
10
-14.3514
20
14.0147
11
-14.3514
21
14.082
0
LINE
8
BLACK
6
CONTINUOUS
10
-14.3514
20
14.082
11
-14.3177
21
14.1831
0
LINE
8
BLACK
6
CONTINUOUS
10
-13.4759
20
15.0248
11
-13.6106
21
14.8902
0
LINE
8
BLACK
6
CONTINUOUS
10
-13.6106
20
14.8902
11
-13.6443
21
14.7891
0
LINE
8
BLACK
6
CONTINUOUS
10
-13.6443
20
14.7891
11
-13.6443
21
14.7218
0
LINE
8
BLACK
6
CONTINUOUS
10
-13.6443
20
14.7218
11
-13.6106
21
14.5534
0
LINE
8
BLACK
6
CONTINUOUS
10
-13.6106
20
14.5534
11
-13.5096
21
14.3851
0
LINE
8
BLACK
6
CONTINUOUS
10
-13.5096
20
14.3851
11
-13.2402
21
14.1157
0
LINE
8
BLACK
6
CONTINUOUS
10
-13.2402
20
14.1157
11
-13.1392
21
14.082
0
LINE
8
BLACK
6
CONTINUOUS
10
-13.1392
20
14.082
11
-13.0719
21
14.082
0
LINE
8
BLACK
6
CONTINUOUS
10
-13.0719
20
14.082
11
-12.9709
21
14.1157
0
LINE
8
BLACK
6
CONTINUOUS
10
-12.9709
20
14.1157
11
-12.8362
21
14.2504
0
LINE
8
BLACK
6
CONTINUOUS
10
-12.8362
20
14.2504
11
-12.8025
21
14.3514
0
LINE
8
BLACK
6
CONTINUOUS
10
-12.8025
20
14.3514
11
-12.8025
21
14.4188
0
LINE
8
BLACK
6
CONTINUOUS
10
-12.8025
20
14.4188
11
-12.8362
21
14.5198
0
LINE
8
BLACK
6
CONTINUOUS
10
-12.8362
20
14.5198
11
-13.0045
21
14.6881
0
LINE
8
BLACK
6
CONTINUOUS
10
-13.0045
20
14.6881
11
-13.1056
21
14.7218
0
LINE
8
BLACK
6
CONTINUOUS
10
-13.1056
20
14.7218
11
-13.1729
21
14.7218
0
LINE
8
BLACK
6
CONTINUOUS
10
-13.1729
20
14.7218
11
-13.2739
21
14.6881
0
LINE
8
BLACK
6
CONTINUOUS
10
-13.2739
20
14.6881
11
-13.4086
21
14.5534
0
LINE
8
BLACK
6
CONTINUOUS
10
-13.4086
20
14.5534
11
-13.4423
21
14.4524
0
LINE
8
BLACK
6
CONTINUOUS
10
-13.4423
20
14.4524
11
-13.4423
21
14.3851
0
LINE
8
BLACK
6
CONTINUOUS
10
-13.4423
20
14.3851
11
-13.4086
21
14.2841
0
LINE
8
BLACK
6
CONTINUOUS
10
-11.8597
20
15.2269
11
-12.3311
21
15.6983
0
LINE
8
BLACK
6
CONTINUOUS
10
-12.2638
20
15.6309
11
-12.2638
21
15.6983
0
LINE
8
BLACK
6
CONTINUOUS
10
-12.2638
20
15.6983
11
-12.2301
21
15.7993
0
LINE
8
BLACK
6
CONTINUOUS
10
-12.2301
20
15.7993
11
-12.1291
21
15.9003
0
LINE
8
BLACK
6
CONTINUOUS
10
-12.1291
20
15.9003
11
-12.0281
21
15.934
0
LINE
8
BLACK
6
CONTINUOUS
10
-12.0281
20
15.934
11
-11.927
21
15.9003
0
LINE
8
BLACK
6
CONTINUOUS
10
-11.927
20
15.9003
11
-11.5567
21
15.5299
0
LINE
8
BLACK
6
CONTINUOUS
10
-11.927
20
15.9003
11
-11.9607
21
16.0013
0
LINE
8
BLACK
6
CONTINUOUS
10
-11.9607
20
16.0013
11
-11.927
21
16.1023
0
LINE
8
BLACK
6
CONTINUOUS
10
-11.927
20
16.1023
11
-11.826
21
16.2034
0
LINE
8
BLACK
6
CONTINUOUS
10
-11.826
20
16.2034
11
-11.725
21
16.237
0
LINE
8
BLACK
6
CONTINUOUS
10
-11.725
20
16.237
11
-11.624
21
16.2034
0
LINE
8
BLACK
6
CONTINUOUS
10
-11.624
20
16.2034
11
-11.2536
21
15.833
0
LINE
8
BLACK
6
CONTINUOUS
10
-10.9169
20
16.1697
11
-11.3883
21
16.6411
0
LINE
8
BLACK
6
CONTINUOUS
10
-11.321
20
16.5737
11
-11.321
21
16.6411
0
LINE
8
BLACK
6
CONTINUOUS
10
-11.321
20
16.6411
11
-11.2873
21
16.7421
0
LINE
8
BLACK
6
CONTINUOUS
10
-11.2873
20
16.7421
11
-11.1863
21
16.8431
0
LINE
8
BLACK
6
CONTINUOUS
10
-11.1863
20
16.8431
11
-11.0853
21
16.8768
0
LINE
8
BLACK
6
CONTINUOUS
10
-11.0853
20
16.8768
11
-10.9842
21
16.8431
0
LINE
8
BLACK
6
CONTINUOUS
10
-10.9842
20
16.8431
11
-10.6138
21
16.4727
0
LINE
8
BLACK
6
CONTINUOUS
10
-10.9842
20
16.8431
11
-11.0179
21
16.9441
0
LINE
8
BLACK
6
CONTINUOUS
10
-11.0179
20
16.9441
11
-10.9842
21
17.0452
0
LINE
8
BLACK
6
CONTINUOUS
10
-10.9842
20
17.0452
11
-10.8832
21
17.1462
0
LINE
8
BLACK
6
CONTINUOUS
10
-10.8832
20
17.1462
11
-10.7822
21
17.1798
0
LINE
8
BLACK
6
CONTINUOUS
10
-10.7822
20
17.1798
11
-10.6812
21
17.1462
0
LINE
8
BLACK
6
CONTINUOUS
10
-10.6812
20
17.1462
11
-10.3108
21
16.7758
0
LINE
8
BLACK
6
CONTINUOUS
10
-12.3536
20
0.353553
11
-19.4647
21
7.46466
0
LINE
8
BLACK
6
CONTINUOUS
10
-0.353553
20
12.3536
11
-7.46466
21
19.4647
0
LINE
8
BLACK
6
CONTINUOUS
10
-19.05
20
7.05
11
-7.05
21
19.05
0
LINE
8
BLACK
6
CONTINUOUS
10
-19.05
20
7.05
11
-7.05
21
19.05
0
LINE
8
BLACK
6
CONTINUOUS
10
-19.05
20
7.05
11
-17.8388
21
7.43189
0
LINE
8
BLACK
6
CONTINUOUS
10
-19.05
20
7.05
11
-18.6681
21
8.26122
0
LINE
8
BLACK
6
CONTINUOUS
10
-7.05
20
19.05
11
-8.26122
21
18.6681
0
LINE
8
BLACK
6
CONTINUOUS
10
-7.05
20
19.05
11
-7.43189
21
17.8388
0
LINE
8
BLACK
6
CONTINUOUS
10
-17.1452
20
-11.421
11
-17.5492
21
-11.0169
0
LINE
8
BLACK
6
CONTINUOUS
10
-17.3472
20
-11.2189
11
-16.6401
21
-10.5118
0
LINE
8
BLACK
6
CONTINUOUS
10
-16.6401
20
-10.5118
11
-16.8084
21
-10.5455
0
LINE
8
BLACK
6
CONTINUOUS
10
-16.8084
20
-10.5455
11
-16.9431
21
-10.5455
0
LINE
8
BLACK
6
CONTINUOUS
10
-16.9431
20
-10.5455
11
-17.0441
21
-10.5118
0
LINE
8
BLACK
6
CONTINUOUS
10
-15.832
20
-11.3199
11
-15.9666
21
-11.1853
0
LINE
8
BLACK
6
CONTINUOUS
10
-15.9666
20
-11.1853
11
-16.0677
21
-11.1516
0
LINE
8
BLACK
6
CONTINUOUS
10
-16.0677
20
-11.1516
11
-16.135
21
-11.1516
0
LINE
8
BLACK
6
CONTINUOUS
10
-16.135
20
-11.1516
11
-16.3034
21
-11.1853
0
LINE
8
BLACK
6
CONTINUOUS
10
-16.3034
20
-11.1853
11
-16.4717
21
-11.2863
0
LINE
8
BLACK
6
CONTINUOUS
10
-16.4717
20
-11.2863
11
-16.7411
21
-11.5556
0
LINE
8
BLACK
6
CONTINUOUS
10
-16.7411
20
-11.5556
11
-16.7748
21
-11.6567
0
LINE
8
BLACK
6
CONTINUOUS
10
-16.7748
20
-11.6567
11
-16.7748
21
-11.724
0
LINE
8
BLACK
6
CONTINUOUS
10
-16.7748
20
-11.724
11
-16.7411
21
-11.825
0
LINE
8
BLACK
6
CONTINUOUS
10
-16.7411
20
-11.825
11
-16.6064
21
-11.9597
0
LINE
8
BLACK
6
CONTINUOUS
10
-16.6064
20
-11.9597
11
-16.5054
21
-11.9934
0
LINE
8
BLACK
6
CONTINUOUS
10
-16.5054
20
-11.9934
11
-16.438
21
-11.9934
0
LINE
8
BLACK
6
CONTINUOUS
10
-16.438
20
-11.9934
11
-16.337
21
-11.9597
0
LINE
8
BLACK
6
CONTINUOUS
10
-16.337
20
-11.9597
11
-16.1687
21
-11.7913
0
LINE
8
BLACK
6
CONTINUOUS
10
-16.1687
20
-11.7913
11
-16.135
21
-11.6903
0
LINE
8
BLACK
6
CONTINUOUS
10
-16.135
20
-11.6903
11
-16.135
21
-11.623
0
LINE
8
BLACK
6
CONTINUOUS
10
-16.135
20
-11.623
11
-16.1687
21
-11.522
0
LINE
8
BLACK
6
CONTINUOUS
10
-16.1687
20
-11.522
11
-16.3034
21
-11.3873
0
LINE
8
BLACK
6
CONTINUOUS
10
-16.3034
20
-11.3873
11
-16.4044
21
-11.3536
0
LINE
8
BLACK
6
CONTINUOUS
10
-16.4044
20
-11.3536
11
-16.4717
21
-11.3536
0
LINE
8
BLACK
6
CONTINUOUS
10
-16.4717
20
-11.3536
11
-16.5727
21
-11.3873
0
LINE
8
BLACK
6
CONTINUOUS
10
-16.1013
20
-12.3974
11
-16.135
21
-12.4311
0
LINE
8
BLACK
6
CONTINUOUS
10
-16.135
20
-12.4311
11
-16.236
21
-12.4648
0
LINE
8
BLACK
6
CONTINUOUS
10
-16.236
20
-12.4648
11
-16.3034
21
-12.4648
0
LINE
8
BLACK
6
CONTINUOUS
10
-15.7983
20
-12.7678
11
-15.6636
21
-12.9025
0
LINE
8
BLACK
6
CONTINUOUS
10
-15.6636
20
-12.9025
11
-15.5626
21
-12.9362
0
LINE
8
BLACK
6
CONTINUOUS
10
-15.5626
20
-12.9362
11
-15.4952
21
-12.9362
0
LINE
8
BLACK
6
CONTINUOUS
10
-15.4952
20
-12.9362
11
-15.3269
21
-12.9025
0
LINE
8
BLACK
6
CONTINUOUS
10
-15.3269
20
-12.9025
11
-15.1585
21
-12.8015
0
LINE
8
BLACK
6
CONTINUOUS
10
-15.1585
20
-12.8015
11
-14.8891
21
-12.5321
0
LINE
8
BLACK
6
CONTINUOUS
10
-14.8891
20
-12.5321
11
-14.8555
21
-12.4311
0
LINE
8
BLACK
6
CONTINUOUS
10
-14.8555
20
-12.4311
11
-14.8555
21
-12.3638
0
LINE
8
BLACK
6
CONTINUOUS
10
-14.8555
20
-12.3638
11
-14.8891
21
-12.2627
0
LINE
8
BLACK
6
CONTINUOUS
10
-14.8891
20
-12.2627
11
-15.0238
21
-12.1281
0
LINE
8
BLACK
6
CONTINUOUS
10
-15.0238
20
-12.1281
11
-15.1248
21
-12.0944
0
LINE
8
BLACK
6
CONTINUOUS
10
-15.1248
20
-12.0944
11
-15.1922
21
-12.0944
0
LINE
8
BLACK
6
CONTINUOUS
10
-15.1922
20
-12.0944
11
-15.2932
21
-12.1281
0
LINE
8
BLACK
6
CONTINUOUS
10
-15.2932
20
-12.1281
11
-15.4616
21
-12.2964
0
LINE
8
BLACK
6
CONTINUOUS
10
-15.4616
20
-12.2964
11
-15.4952
21
-12.3974
0
LINE
8
BLACK
6
CONTINUOUS
10
-15.4952
20
-12.3974
11
-15.4952
21
-12.4648
0
LINE
8
BLACK
6
CONTINUOUS
10
-15.4952
20
-12.4648
11
-15.4616
21
-12.5658
0
LINE
8
BLACK
6
CONTINUOUS
10
-15.4616
20
-12.5658
11
-15.3269
21
-12.7005
0
LINE
8
BLACK
6
CONTINUOUS
10
-15.3269
20
-12.7005
11
-15.2259
21
-12.7342
0
LINE
8
BLACK
6
CONTINUOUS
10
-15.2259
20
-12.7342
11
-15.1585
21
-12.7342
0
LINE
8
BLACK
6
CONTINUOUS
10
-15.1585
20
-12.7342
11
-15.0575
21
-12.7005
0
LINE
8
BLACK
6
CONTINUOUS
10
-14.5188
20
-12.6331
11
-14.0474
21
-13.1045
0
LINE
8
BLACK
6
CONTINUOUS
10
-14.0474
20
-13.1045
11
-15.0575
21
-13.5086
0
LINE
8
BLACK
6
CONTINUOUS
10
-13.6433
20
-13.5086
11
-13.5759
21
-13.5759
0
LINE
8
BLACK
6
CONTINUOUS
10
-13.5759
20
-13.5759
11
-13.5423
21
-13.677
0
LINE
8
BLACK
6
CONTINUOUS
10
-13.5423
20
-13.677
11
-13.5423
21
-13.7443
0
LINE
8
BLACK
6
CONTINUOUS
10
-13.5423
20
-13.7443
11
-13.5759
21
-13.8453
0
LINE
8
BLACK
6
CONTINUOUS
10
-13.5759
20
-13.8453
11
-13.677
21
-14.0137
0
LINE
8
BLACK
6
CONTINUOUS
10
-13.677
20
-14.0137
11
-13.8453
21
-14.182
0
LINE
8
BLACK
6
CONTINUOUS
10
-13.8453
20
-14.182
11
-14.0137
21
-14.2831
0
LINE
8
BLACK
6
CONTINUOUS
10
-14.0137
20
-14.2831
11
-14.1147
21
-14.3167
0
LINE
8
BLACK
6
CONTINUOUS
10
-14.1147
20
-14.3167
11
-14.182
21
-14.3167
0
LINE
8
BLACK
6
CONTINUOUS
10
-14.182
20
-14.3167
11
-14.2831
21
-14.2831
0
LINE
8
BLACK
6
CONTINUOUS
10
-14.2831
20
-14.2831
11
-14.3504
21
-14.2157
0
LINE
8
BLACK
6
CONTINUOUS
10
-14.3504
20
-14.2157
11
-14.3841
21
-14.1147
0
LINE
8
BLACK
6
CONTINUOUS
10
-14.3841
20
-14.1147
11
-14.3841
21
-14.0473
0
LINE
8
BLACK
6
CONTINUOUS
10
-14.3841
20
-14.0473
11
-14.3504
21
-13.9463
0
LINE
8
BLACK
6
CONTINUOUS
10
-14.3504
20
-13.9463
11
-14.2494
21
-13.778
0
LINE
8
BLACK
6
CONTINUOUS
10
-14.2494
20
-13.778
11
-14.081
21
-13.6096
0
LINE
8
BLACK
6
CONTINUOUS
10
-14.081
20
-13.6096
11
-13.9127
21
-13.5086
0
LINE
8
BLACK
6
CONTINUOUS
10
-13.9127
20
-13.5086
11
-13.8116
21
-13.4749
0
LINE
8
BLACK
6
CONTINUOUS
10
-13.8116
20
-13.4749
11
-13.7443
21
-13.4749
0
LINE
8
BLACK
6
CONTINUOUS
10
-13.7443
20
-13.4749
11
-13.6433
21
-13.5086
0
LINE
8
BLACK
6
CONTINUOUS
10
-12.8015
20
-14.3504
11
-12.9362
21
-14.2157
0
LINE
8
BLACK
6
CONTINUOUS
10
-12.9362
20
-14.2157
11
-13.0372
21
-14.182
0
LINE
8
BLACK
6
CONTINUOUS
10
-13.0372
20
-14.182
11
-13.1045
21
-14.182
0
LINE
8
BLACK
6
CONTINUOUS
10
-13.1045
20
-14.182
11
-13.2729
21
-14.2157
0
LINE
8
BLACK
6
CONTINUOUS
10
-13.2729
20
-14.2157
11
-13.4413
21
-14.3167
0
LINE
8
BLACK
6
CONTINUOUS
10
-13.4413
20
-14.3167
11
-13.7106
21
-14.5861
0
LINE
8
BLACK
6
CONTINUOUS
10
-13.7106
20
-14.5861
11
-13.7443
21
-14.6871
0
LINE
8
BLACK
6
CONTINUOUS
10
-13.7443
20
-14.6871
11
-13.7443
21
-14.7545
0
LINE
8
BLACK
6
CONTINUOUS
10
-13.7443
20
-14.7545
11
-13.7106
21
-14.8555
0
LINE
8
BLACK
6
CONTINUOUS
10
-13.7106
20
-14.8555
11
-13.5759
21
-14.9902
0
LINE
8
BLACK
6
CONTINUOUS
10
-13.5759
20
-14.9902
11
-13.4749
21
-15.0238
0
LINE
8
BLACK
6
CONTINUOUS
10
-13.4749
20
-15.0238
11
-13.4076
21
-15.0238
0
LINE
8
BLACK
6
CONTINUOUS
10
-13.4076
20
-15.0238
11
-13.3066
21
-14.9902
0
LINE
8
BLACK
6
CONTINUOUS
10
-13.3066
20
-14.9902
11
-13.1382
21
-14.8218
0
LINE
8
BLACK
6
CONTINUOUS
10
-13.1382
20
-14.8218
11
-13.1045
21
-14.7208
0
LINE
8
BLACK
6
CONTINUOUS
10
-13.1045
20
-14.7208
11
-13.1045
21
-14.6534
0
LINE
8
BLACK
6
CONTINUOUS
10
-13.1045
20
-14.6534
11
-13.1382
21
-14.5524
0
LINE
8
BLACK
6
CONTINUOUS
10
-13.1382
20
-14.5524
11
-13.2729
21
-14.4177
0
LINE
8
BLACK
6
CONTINUOUS
10
-13.2729
20
-14.4177
11
-13.3739
21
-14.3841
0
LINE
8
BLACK
6
CONTINUOUS
10
-13.3739
20
-14.3841
11
-13.4413
21
-14.3841
0
LINE
8
BLACK
6
CONTINUOUS
10
-13.4413
20
-14.3841
11
-13.5423
21
-14.4177
0
LINE
8
BLACK
6
CONTINUOUS
10
-12.5995
20
-15.9666
11
-12.1281
21
-15.4952
0
LINE
8
BLACK
6
CONTINUOUS
10
-12.1954
20
-15.5626
11
-12.1281
21
-15.5626
0
LINE
8
BLACK
6
CONTINUOUS
10
-12.1281
20
-15.5626
11
-12.027
21
-15.5962
0
LINE
8
BLACK
6
CONTINUOUS
10
-12.027
20
-15.5962
11
-11.926
21
-15.6973
0
LINE
8
BLACK
6
CONTINUOUS
10
-11.926
20
-15.6973
11
-11.8924
21
-15.7983
0
LINE
8
BLACK
6
CONTINUOUS
10
-11.8924
20
-15.7983
11
-11.926
21
-15.8993
0
LINE
8
BLACK
6
CONTINUOUS
10
-11.926
20
-15.8993
11
-12.2964
21
-16.2697
0
LINE
8
BLACK
6
CONTINUOUS
10
-11.926
20
-15.8993
11
-11.825
21
-15.8656
0
LINE
8
BLACK
6
CONTINUOUS
10
-11.825
20
-15.8656
11
-11.724
21
-15.8993
0
LINE
8
BLACK
6
CONTINUOUS
10
-11.724
20
-15.8993
11
-11.623
21
-16.0003
0
LINE
8
BLACK
6
CONTINUOUS
10
-11.623
20
-16.0003
11
-11.5893
21
-16.1013
0
LINE
8
BLACK
6
CONTINUOUS
10
-11.5893
20
-16.1013
11
-11.623
21
-16.2023
0
LINE
8
BLACK
6
CONTINUOUS
10
-11.623
20
-16.2023
11
-11.9934
21
-16.5727
0
LINE
8
BLACK
6
CONTINUOUS
10
-11.6567
20
-16.9094
11
-11.1853
21
-16.438
0
LINE
8
BLACK
6
CONTINUOUS
10
-11.2526
20
-16.5054
11
-11.1853
21
-16.5054
0
LINE
8
BLACK
6
CONTINUOUS
10
-11.1853
20
-16.5054
11
-11.0842
21
-16.5391
0
LINE
8
BLACK
6
CONTINUOUS
10
-11.0842
20
-16.5391
11
-10.9832
21
-16.6401
0
LINE
8
BLACK
6
CONTINUOUS
10
-10.9832
20
-16.6401
11
-10.9496
21
-16.7411
0
LINE
8
BLACK
6
CONTINUOUS
10
-10.9496
20
-16.7411
11
-10.9832
21
-16.8421
0
LINE
8
BLACK
6
CONTINUOUS
10
-10.9832
20
-16.8421
11
-11.3536
21
-17.2125
0
LINE
8
BLACK
6
CONTINUOUS
10
-10.9832
20
-16.8421
11
-10.8822
21
-16.8084
0
LINE
8
BLACK
6
CONTINUOUS
10
-10.8822
20
-16.8084
11
-10.7812
21
-16.8421
0
LINE
8
BLACK
6
CONTINUOUS
10
-10.7812
20
-16.8421
11
-10.6802
21
-16.9431
0
LINE
8
BLACK
6
CONTINUOUS
10
-10.6802
20
-16.9431
11
-10.6465
21
-17.0441
0
LINE
8
BLACK
6
CONTINUOUS
10
-10.6465
20
-17.0441
11
-10.6802
21
-17.1452
0
LINE
8
BLACK
6
CONTINUOUS
10
-10.6802
20
-17.1452
11
-11.0506
21
-17.5155
0
LINE
8
BLACK
6
CONTINUOUS
10
-12.3536
20
-0.353553
11
-19.5647
21
-7.56466
0
LINE
8
BLACK
6
CONTINUOUS
10
-0.353553
20
-12.3536
11
-7.56466
21
-19.5647
0
LINE
8
BLACK
6
CONTINUOUS
10
-19.15
20
-7.15
11
-7.15
21
-19.15
0
LINE
8
BLACK
6
CONTINUOUS
10
-19.15
20
-7.15
11
-7.15
21
-19.15
0
LINE
8
BLACK
6
CONTINUOUS
10
-19.15
20
-7.15
11
-18.7681
21
-8.36122
0
LINE
8
BLACK
6
CONTINUOUS
10
-19.15
20
-7.15
11
-17.9388
21
-7.53189
0
LINE
8
BLACK
6
CONTINUOUS
10
-7.15
20
-19.15
11
-7.53189
21
-17.9388
0
LINE
8
BLACK
6
CONTINUOUS
10
-7.15
20
-19.15
11
-8.36122
21
-18.7681
0
CIRCLE
8
BLACK
10
-12
20
0
40
3.2
0
CIRCLE
8
BLACK
10
0
20
-12
40
3.2
0
CIRCLE
8
BLACK
10
-4.5
20
5.6
40
2.2
0
CIRCLE
8
BLACK
10
0
20
12
40
3.2
0
CIRCLE
8
BLACK
10
4.5
20
-5.4
40
2.2
0
CIRCLE
8
BLACK
10
-4.5
20
-5.4
40
2.2
0
CIRCLE
8
BLACK
10
4.5
20
5.6
40
2.2
  0
ENDSEC
  0
EOF
