G04 #@! TF.GenerationSoftware,KiCad,Pcbnew,5.99.0-unknown-b32c2a6c9~106~ubuntu18.04.1*
G04 #@! TF.CreationDate,2020-11-24T15:56:37+01:00*
G04 #@! TF.ProjectId,QFHBAL01,51464842-414c-4303-912e-6b696361645f,rev?*
G04 #@! TF.SameCoordinates,Original*
G04 #@! TF.FileFunction,Legend,Top*
G04 #@! TF.FilePolarity,Positive*
%FSLAX46Y46*%
G04 Gerber Fmt 4.6, Leading zero omitted, Abs format (unit mm)*
G04 Created by KiCad (PCBNEW 5.99.0-unknown-b32c2a6c9~106~ubuntu18.04.1) date 2020-11-24 15:56:37*
%MOMM*%
%LPD*%
G01*
G04 APERTURE LIST*
%ADD10C,0.120000*%
%ADD11C,0.150000*%
%ADD12C,0.080000*%
G04 APERTURE END LIST*
D10*
X146800000Y-90600000D02*
X144800000Y-90600000D01*
X141600000Y-88200000D02*
X143700000Y-86100000D01*
X141600000Y-89200000D02*
X141600000Y-88200000D01*
X146800000Y-90600000D02*
X146800000Y-90100000D01*
X143200000Y-90600000D02*
G75*
G02*
X144000000Y-90600000I400000J0D01*
G01*
X141600000Y-91600000D02*
X143700000Y-93700000D01*
X141600000Y-91600000D02*
X141600000Y-90600000D01*
X142000000Y-88900000D02*
G75*
G03*
X142000000Y-88900000I-100000J0D01*
G01*
X144800000Y-89200000D02*
X146600000Y-89200000D01*
X141600000Y-91600000D02*
X139500000Y-93700000D01*
X141600000Y-90600000D02*
G75*
G02*
X142400000Y-90600000I400000J0D01*
G01*
X144000000Y-89200000D02*
G75*
G02*
X143200000Y-89200000I-400000J0D01*
G01*
X147000000Y-89200000D02*
G75*
G03*
X147000000Y-89200000I-200000J0D01*
G01*
X144800000Y-89200000D02*
G75*
G02*
X144000000Y-89200000I-400000J0D01*
G01*
X141600000Y-89800000D02*
X144800000Y-89800000D01*
X144800000Y-89800000D02*
X144800000Y-89800000D01*
X144800000Y-89800000D02*
X141600000Y-89800000D01*
X141600000Y-89800000D02*
X141600000Y-89800000D01*
X144800000Y-90000000D02*
X141600000Y-90000000D01*
X141600000Y-90000000D02*
X141600000Y-90000000D01*
X141600000Y-90000000D02*
X144800000Y-90000000D01*
X144800000Y-90000000D02*
X144800000Y-90000000D01*
X141600000Y-88200000D02*
X139500000Y-86100000D01*
X144000000Y-90600000D02*
G75*
G02*
X144800000Y-90600000I400000J0D01*
G01*
X146000000Y-89500000D02*
G75*
G03*
X146000000Y-88900000I796358J300000D01*
G01*
X142400000Y-90600000D02*
G75*
G02*
X143200000Y-90600000I400000J0D01*
G01*
X143200000Y-89200000D02*
G75*
G02*
X142400000Y-89200000I-400000J0D01*
G01*
X144600000Y-88900000D02*
G75*
G03*
X144600000Y-88900000I-100000J0D01*
G01*
X142400000Y-89200000D02*
G75*
G02*
X141600000Y-89200000I-400000J0D01*
G01*
D11*
X143325974Y-79195738D02*
X142989257Y-78859020D01*
X143696364Y-78151913D01*
X143898394Y-79768157D02*
X143561677Y-79431440D01*
X144268783Y-78724333D01*
X155804769Y-80124050D02*
X155939456Y-80056706D01*
X156107815Y-79888348D01*
X156141487Y-79787332D01*
X156141487Y-79719989D01*
X156107815Y-79618974D01*
X156040471Y-79551630D01*
X155939456Y-79517958D01*
X155872112Y-79517958D01*
X155771097Y-79551630D01*
X155602738Y-79652645D01*
X155501723Y-79686317D01*
X155434380Y-79686317D01*
X155333364Y-79652645D01*
X155266021Y-79585302D01*
X155232349Y-79484287D01*
X155232349Y-79416943D01*
X155266021Y-79315928D01*
X155434380Y-79147569D01*
X155569067Y-79080225D01*
X156882265Y-79113897D02*
X156545548Y-79450615D01*
X155838441Y-78743508D01*
X146714285Y-81547619D02*
X146619047Y-81500000D01*
X146523809Y-81404761D01*
X146380952Y-81261904D01*
X146285714Y-81214285D01*
X146190476Y-81214285D01*
X146238095Y-81452380D02*
X146142857Y-81404761D01*
X146047619Y-81309523D01*
X146000000Y-81119047D01*
X146000000Y-80785714D01*
X146047619Y-80595238D01*
X146142857Y-80500000D01*
X146238095Y-80452380D01*
X146428571Y-80452380D01*
X146523809Y-80500000D01*
X146619047Y-80595238D01*
X146666666Y-80785714D01*
X146666666Y-81119047D01*
X146619047Y-81309523D01*
X146523809Y-81404761D01*
X146428571Y-81452380D01*
X146238095Y-81452380D01*
X147428571Y-80928571D02*
X147095238Y-80928571D01*
X147095238Y-81452380D02*
X147095238Y-80452380D01*
X147571428Y-80452380D01*
X147952380Y-81452380D02*
X147952380Y-80452380D01*
X147952380Y-80928571D02*
X148523809Y-80928571D01*
X148523809Y-81452380D02*
X148523809Y-80452380D01*
X149333333Y-80928571D02*
X149476190Y-80976190D01*
X149523809Y-81023809D01*
X149571428Y-81119047D01*
X149571428Y-81261904D01*
X149523809Y-81357142D01*
X149476190Y-81404761D01*
X149380952Y-81452380D01*
X149000000Y-81452380D01*
X149000000Y-80452380D01*
X149333333Y-80452380D01*
X149428571Y-80500000D01*
X149476190Y-80547619D01*
X149523809Y-80642857D01*
X149523809Y-80738095D01*
X149476190Y-80833333D01*
X149428571Y-80880952D01*
X149333333Y-80928571D01*
X149000000Y-80928571D01*
X149952380Y-81166666D02*
X150428571Y-81166666D01*
X149857142Y-81452380D02*
X150190476Y-80452380D01*
X150523809Y-81452380D01*
X151333333Y-81452380D02*
X150857142Y-81452380D01*
X150857142Y-80452380D01*
X151857142Y-80452380D02*
X151952380Y-80452380D01*
X152047619Y-80500000D01*
X152095238Y-80547619D01*
X152142857Y-80642857D01*
X152190476Y-80833333D01*
X152190476Y-81071428D01*
X152142857Y-81261904D01*
X152095238Y-81357142D01*
X152047619Y-81404761D01*
X151952380Y-81452380D01*
X151857142Y-81452380D01*
X151761904Y-81404761D01*
X151714285Y-81357142D01*
X151666666Y-81261904D01*
X151619047Y-81071428D01*
X151619047Y-80833333D01*
X151666666Y-80642857D01*
X151714285Y-80547619D01*
X151761904Y-80500000D01*
X151857142Y-80452380D01*
X153142857Y-81452380D02*
X152571428Y-81452380D01*
X152857142Y-81452380D02*
X152857142Y-80452380D01*
X152761904Y-80595238D01*
X152666666Y-80690476D01*
X152571428Y-80738095D01*
X153523809Y-81166666D02*
X154000000Y-81166666D01*
X153428571Y-81452380D02*
X153761904Y-80452380D01*
X154095238Y-81452380D01*
X159124774Y-96975738D02*
X158788057Y-96639020D01*
X159495164Y-95931913D01*
X159697194Y-97548157D02*
X159360477Y-97211440D01*
X160067583Y-96504333D01*
X140259969Y-97497650D02*
X140394656Y-97430306D01*
X140563015Y-97261948D01*
X140596687Y-97160932D01*
X140596687Y-97093589D01*
X140563015Y-96992574D01*
X140495671Y-96925230D01*
X140394656Y-96891558D01*
X140327312Y-96891558D01*
X140226297Y-96925230D01*
X140057938Y-97026245D01*
X139956923Y-97059917D01*
X139889580Y-97059917D01*
X139788564Y-97026245D01*
X139721221Y-96958902D01*
X139687549Y-96857887D01*
X139687549Y-96790543D01*
X139721221Y-96689528D01*
X139889580Y-96521169D01*
X140024267Y-96453825D01*
X141337465Y-96487497D02*
X141000748Y-96824215D01*
X140293641Y-96117108D01*
D12*
X141804761Y-91121428D02*
X141938095Y-91121428D01*
X141995238Y-91330952D02*
X141804761Y-91330952D01*
X141804761Y-90930952D01*
X141995238Y-90930952D01*
X142109523Y-90930952D02*
X142338095Y-90930952D01*
X142223809Y-91330952D02*
X142223809Y-90930952D01*
X142700000Y-91292857D02*
X142680952Y-91311904D01*
X142623809Y-91330952D01*
X142585714Y-91330952D01*
X142528571Y-91311904D01*
X142490476Y-91273809D01*
X142471428Y-91235714D01*
X142452380Y-91159523D01*
X142452380Y-91102380D01*
X142471428Y-91026190D01*
X142490476Y-90988095D01*
X142528571Y-90950000D01*
X142585714Y-90930952D01*
X142623809Y-90930952D01*
X142680952Y-90950000D01*
X142700000Y-90969047D01*
X143080952Y-91330952D02*
X142852380Y-91330952D01*
X142966666Y-91330952D02*
X142966666Y-90930952D01*
X142928571Y-90988095D01*
X142890476Y-91026190D01*
X142852380Y-91045238D01*
X143252380Y-91178571D02*
X143557142Y-91178571D01*
X143957142Y-91330952D02*
X143728571Y-91330952D01*
X143842857Y-91330952D02*
X143842857Y-90930952D01*
X143804761Y-90988095D01*
X143766666Y-91026190D01*
X143728571Y-91045238D01*
X144128571Y-91178571D02*
X144433333Y-91178571D01*
X144833333Y-91330952D02*
X144604761Y-91330952D01*
X144719047Y-91330952D02*
X144719047Y-90930952D01*
X144680952Y-90988095D01*
X144642857Y-91026190D01*
X144604761Y-91045238D01*
X144966666Y-90930952D02*
X145214285Y-90930952D01*
X145080952Y-91083333D01*
X145138095Y-91083333D01*
X145176190Y-91102380D01*
X145195238Y-91121428D01*
X145214285Y-91159523D01*
X145214285Y-91254761D01*
X145195238Y-91292857D01*
X145176190Y-91311904D01*
X145138095Y-91330952D01*
X145023809Y-91330952D01*
X144985714Y-91311904D01*
X144966666Y-91292857D01*
D11*
X149555295Y-86421980D02*
X150126723Y-86421980D01*
X149841009Y-87421980D02*
X149841009Y-86421980D01*
X150983866Y-87421980D02*
X150412438Y-87421980D01*
X150698152Y-87421980D02*
X150698152Y-86421980D01*
X150602914Y-86564838D01*
X150507676Y-86660076D01*
X150412438Y-86707695D01*
D10*
X153200000Y-87800000D02*
X150000000Y-87800000D01*
X150000000Y-91800000D02*
X150000000Y-92000000D01*
X150000000Y-92000000D02*
X153200000Y-92000000D01*
X150000000Y-88000000D02*
X149200000Y-88000000D01*
X150000000Y-87800000D02*
X150000000Y-88000000D01*
X150000000Y-89300000D02*
X150000000Y-90500000D01*
X153200000Y-92000000D02*
X153200000Y-91800000D01*
X153200000Y-88000000D02*
X153200000Y-87800000D01*
X159350000Y-93255000D02*
X162250000Y-93255000D01*
X159350000Y-86545000D02*
X162250000Y-86545000D01*
X157445000Y-88450000D02*
X157445000Y-91350000D01*
X164155000Y-88450000D02*
X164155000Y-91350000D01*
M02*
