  0
SECTION
  2
HEADER
  9
$ANGBASE
  50
0.0
  9
$ANGDIR
  70
1
  9
$MEASUREMENT
  70
1
  0
ENDSEC
  0
SECTION
  2
TABLES
  0
TABLE
  2
LTYPE
  70
4
  0
LTYPE
  5
40F
  2
CONTINUOUS
  70
0
  3
Solid line
  72
65
  73
0
  40
0.0
  0
LTYPE
  5
410
  2
DASHDOT
 70
0
  3
Dash Dot ____ _ ____ _
 72
65
 73
4
 40
2.0
 49
1.25
 49
-0.25
 49
0.25
 49
-0.25
  0
LTYPE
  5
411
  2
DASHED
 70
0
  3
Dashed __ __ __ __ __
 72
65
 73
2
 40
0.75
 49
0.5
 49
-0.25
  0
LTYPE
  5
43B
  2
DOTTED
 70
0
  3
Dotted .  .  .  .
 72
65
 73
2
 40
0.2
 49
0.0
 49
-0.2
  0
ENDTAB
  0
TABLE
  2
STYLE
  70
4
  0
STYLE
  2
KICAD
  70
0
  40
0
  41
1
  42
1
  50
0
  71
0
  3
isocp.shx
  0
STYLE
  2
KICADB
  70
0
  40
0
  41
1
  42
1
  50
0
  71
0
  3
isocp.shx
  0
STYLE
  2
KICADI
  70
0
  40
0
  41
1
  42
1
  50
15
  71
0
  3
isocp.shx
  0
STYLE
  2
KICADBI
  70
0
  40
0
  41
1
  42
1
  50
15
  71
0
  3
isocp.shx
  0
ENDTAB
  0
TABLE
  2
LAYER
  70
1
  0
LAYER
  2
BLACK
  70
0
  62
7
  6
CONTINUOUS
  0
ENDTAB
  0
ENDSEC
  0
SECTION
  2
ENTITIES
0
CIRCLE
8
BLACK
10
-12
20
0
40
1.8
0
CIRCLE
8
BLACK
10
0
20
-12
40
1.8
0
LINE
8
BLACK
6
CONTINUOUS
10
-1.015
20
0.99
11
-0.999776
21
0.913463
0
LINE
8
BLACK
6
CONTINUOUS
10
-0.999776
20
0.913463
11
-0.956421
21
0.848579
0
LINE
8
BLACK
6
CONTINUOUS
10
-0.956421
20
0.848579
11
-0.891537
21
0.805224
0
LINE
8
BLACK
6
CONTINUOUS
10
-0.891537
20
0.805224
11
-0.815
21
0.79
0
LINE
8
BLACK
6
CONTINUOUS
10
-0.815
20
0.79
11
0.585
21
0.79
0
LINE
8
BLACK
6
CONTINUOUS
10
0.585
20
0.79
11
0.661537
21
0.805224
0
LINE
8
BLACK
6
CONTINUOUS
10
0.661537
20
0.805224
11
0.726421
21
0.848579
0
LINE
8
BLACK
6
CONTINUOUS
10
0.726421
20
0.848579
11
0.769776
21
0.913463
0
LINE
8
BLACK
6
CONTINUOUS
10
0.769776
20
0.913463
11
0.785
21
0.99
0
LINE
8
BLACK
6
CONTINUOUS
10
0.785
20
0.99
11
0.785
21
1.75
0
LINE
8
BLACK
6
CONTINUOUS
10
0.785
20
1.75
11
0.769776
21
1.82654
0
LINE
8
BLACK
6
CONTINUOUS
10
0.769776
20
1.82654
11
0.726421
21
1.89142
0
LINE
8
BLACK
6
CONTINUOUS
10
0.726421
20
1.89142
11
0.661537
21
1.93478
0
LINE
8
BLACK
6
CONTINUOUS
10
0.661537
20
1.93478
11
0.585
21
1.95
0
LINE
8
BLACK
6
CONTINUOUS
10
0.585
20
1.95
11
-0.815
21
1.95
0
LINE
8
BLACK
6
CONTINUOUS
10
-0.815
20
1.95
11
-0.891537
21
1.93478
0
LINE
8
BLACK
6
CONTINUOUS
10
-0.891537
20
1.93478
11
-0.956421
21
1.89142
0
LINE
8
BLACK
6
CONTINUOUS
10
-0.956421
20
1.89142
11
-0.999776
21
1.82654
0
LINE
8
BLACK
6
CONTINUOUS
10
-0.999776
20
1.82654
11
-1.015
21
1.75
0
LINE
8
BLACK
6
CONTINUOUS
10
-1.015
20
1.75
11
-1.015
21
0.99
0
LINE
8
BLACK
6
CONTINUOUS
10
-1.015
20
-1.55
11
-0.999776
21
-1.62654
0
LINE
8
BLACK
6
CONTINUOUS
10
-0.999776
20
-1.62654
11
-0.956421
21
-1.69142
0
LINE
8
BLACK
6
CONTINUOUS
10
-0.956421
20
-1.69142
11
-0.891537
21
-1.73478
0
LINE
8
BLACK
6
CONTINUOUS
10
-0.891537
20
-1.73478
11
-0.815
21
-1.75
0
LINE
8
BLACK
6
CONTINUOUS
10
-0.815
20
-1.75
11
0.585
21
-1.75
0
LINE
8
BLACK
6
CONTINUOUS
10
0.585
20
-1.75
11
0.661537
21
-1.73478
0
LINE
8
BLACK
6
CONTINUOUS
10
0.661537
20
-1.73478
11
0.726421
21
-1.69142
0
LINE
8
BLACK
6
CONTINUOUS
10
0.726421
20
-1.69142
11
0.769776
21
-1.62654
0
LINE
8
BLACK
6
CONTINUOUS
10
0.769776
20
-1.62654
11
0.785
21
-1.55
0
LINE
8
BLACK
6
CONTINUOUS
10
0.785
20
-1.55
11
0.785
21
-0.79
0
LINE
8
BLACK
6
CONTINUOUS
10
0.785
20
-0.79
11
0.769776
21
-0.713463
0
LINE
8
BLACK
6
CONTINUOUS
10
0.769776
20
-0.713463
11
0.726421
21
-0.648579
0
LINE
8
BLACK
6
CONTINUOUS
10
0.726421
20
-0.648579
11
0.661537
21
-0.605224
0
LINE
8
BLACK
6
CONTINUOUS
10
0.661537
20
-0.605224
11
0.585
21
-0.59
0
LINE
8
BLACK
6
CONTINUOUS
10
0.585
20
-0.59
11
-0.815
21
-0.59
0
LINE
8
BLACK
6
CONTINUOUS
10
-0.815
20
-0.59
11
-0.891537
21
-0.605224
0
LINE
8
BLACK
6
CONTINUOUS
10
-0.891537
20
-0.605224
11
-0.956421
21
-0.648579
0
LINE
8
BLACK
6
CONTINUOUS
10
-0.956421
20
-0.648579
11
-0.999776
21
-0.713463
0
LINE
8
BLACK
6
CONTINUOUS
10
-0.999776
20
-0.713463
11
-1.015
21
-0.79
0
LINE
8
BLACK
6
CONTINUOUS
10
-1.015
20
-0.79
11
-1.015
21
-1.55
0
LINE
8
BLACK
6
CONTINUOUS
10
2.415
20
-1.55
11
2.43022
21
-1.62654
0
LINE
8
BLACK
6
CONTINUOUS
10
2.43022
20
-1.62654
11
2.47358
21
-1.69142
0
LINE
8
BLACK
6
CONTINUOUS
10
2.47358
20
-1.69142
11
2.53846
21
-1.73478
0
LINE
8
BLACK
6
CONTINUOUS
10
2.53846
20
-1.73478
11
2.615
21
-1.75
0
LINE
8
BLACK
6
CONTINUOUS
10
2.615
20
-1.75
11
4.015
21
-1.75
0
LINE
8
BLACK
6
CONTINUOUS
10
4.015
20
-1.75
11
4.09154
21
-1.73478
0
LINE
8
BLACK
6
CONTINUOUS
10
4.09154
20
-1.73478
11
4.15642
21
-1.69142
0
LINE
8
BLACK
6
CONTINUOUS
10
4.15642
20
-1.69142
11
4.19978
21
-1.62654
0
LINE
8
BLACK
6
CONTINUOUS
10
4.19978
20
-1.62654
11
4.215
21
-1.55
0
LINE
8
BLACK
6
CONTINUOUS
10
4.215
20
-1.55
11
4.215
21
-0.79
0
LINE
8
BLACK
6
CONTINUOUS
10
4.215
20
-0.79
11
4.19978
21
-0.713463
0
LINE
8
BLACK
6
CONTINUOUS
10
4.19978
20
-0.713463
11
4.15642
21
-0.648579
0
LINE
8
BLACK
6
CONTINUOUS
10
4.15642
20
-0.648579
11
4.09154
21
-0.605224
0
LINE
8
BLACK
6
CONTINUOUS
10
4.09154
20
-0.605224
11
4.015
21
-0.59
0
LINE
8
BLACK
6
CONTINUOUS
10
4.015
20
-0.59
11
2.615
21
-0.59
0
LINE
8
BLACK
6
CONTINUOUS
10
2.615
20
-0.59
11
2.53846
21
-0.605224
0
LINE
8
BLACK
6
CONTINUOUS
10
2.53846
20
-0.605224
11
2.47358
21
-0.648579
0
LINE
8
BLACK
6
CONTINUOUS
10
2.47358
20
-0.648579
11
2.43022
21
-0.713463
0
LINE
8
BLACK
6
CONTINUOUS
10
2.43022
20
-0.713463
11
2.415
21
-0.79
0
LINE
8
BLACK
6
CONTINUOUS
10
2.415
20
-0.79
11
2.415
21
-1.55
0
LINE
8
BLACK
6
CONTINUOUS
10
2.415
20
-0.28
11
2.43022
21
-0.356537
0
LINE
8
BLACK
6
CONTINUOUS
10
2.43022
20
-0.356537
11
2.47358
21
-0.421421
0
LINE
8
BLACK
6
CONTINUOUS
10
2.47358
20
-0.421421
11
2.53846
21
-0.464776
0
LINE
8
BLACK
6
CONTINUOUS
10
2.53846
20
-0.464776
11
2.615
21
-0.48
0
LINE
8
BLACK
6
CONTINUOUS
10
2.615
20
-0.48
11
4.015
21
-0.48
0
LINE
8
BLACK
6
CONTINUOUS
10
4.015
20
-0.48
11
4.09154
21
-0.464776
0
LINE
8
BLACK
6
CONTINUOUS
10
4.09154
20
-0.464776
11
4.15642
21
-0.421421
0
LINE
8
BLACK
6
CONTINUOUS
10
4.15642
20
-0.421421
11
4.19978
21
-0.356537
0
LINE
8
BLACK
6
CONTINUOUS
10
4.19978
20
-0.356537
11
4.215
21
-0.28
0
LINE
8
BLACK
6
CONTINUOUS
10
4.215
20
-0.28
11
4.215
21
0.48
0
LINE
8
BLACK
6
CONTINUOUS
10
4.215
20
0.48
11
4.19978
21
0.556537
0
LINE
8
BLACK
6
CONTINUOUS
10
4.19978
20
0.556537
11
4.15642
21
0.621421
0
LINE
8
BLACK
6
CONTINUOUS
10
4.15642
20
0.621421
11
4.09154
21
0.664776
0
LINE
8
BLACK
6
CONTINUOUS
10
4.09154
20
0.664776
11
4.015
21
0.68
0
LINE
8
BLACK
6
CONTINUOUS
10
4.015
20
0.68
11
2.615
21
0.68
0
LINE
8
BLACK
6
CONTINUOUS
10
2.615
20
0.68
11
2.53846
21
0.664776
0
LINE
8
BLACK
6
CONTINUOUS
10
2.53846
20
0.664776
11
2.47358
21
0.621421
0
LINE
8
BLACK
6
CONTINUOUS
10
2.47358
20
0.621421
11
2.43022
21
0.556537
0
LINE
8
BLACK
6
CONTINUOUS
10
2.43022
20
0.556537
11
2.415
21
0.48
0
LINE
8
BLACK
6
CONTINUOUS
10
2.415
20
0.48
11
2.415
21
-0.28
0
LINE
8
BLACK
6
CONTINUOUS
10
2.415
20
0.99
11
2.43022
21
0.913463
0
LINE
8
BLACK
6
CONTINUOUS
10
2.43022
20
0.913463
11
2.47358
21
0.848579
0
LINE
8
BLACK
6
CONTINUOUS
10
2.47358
20
0.848579
11
2.53846
21
0.805224
0
LINE
8
BLACK
6
CONTINUOUS
10
2.53846
20
0.805224
11
2.615
21
0.79
0
LINE
8
BLACK
6
CONTINUOUS
10
2.615
20
0.79
11
4.015
21
0.79
0
LINE
8
BLACK
6
CONTINUOUS
10
4.015
20
0.79
11
4.09154
21
0.805224
0
LINE
8
BLACK
6
CONTINUOUS
10
4.09154
20
0.805224
11
4.15642
21
0.848579
0
LINE
8
BLACK
6
CONTINUOUS
10
4.15642
20
0.848579
11
4.19978
21
0.913463
0
LINE
8
BLACK
6
CONTINUOUS
10
4.19978
20
0.913463
11
4.215
21
0.99
0
LINE
8
BLACK
6
CONTINUOUS
10
4.215
20
0.99
11
4.215
21
1.75
0
LINE
8
BLACK
6
CONTINUOUS
10
4.215
20
1.75
11
4.19978
21
1.82654
0
LINE
8
BLACK
6
CONTINUOUS
10
4.19978
20
1.82654
11
4.15642
21
1.89142
0
LINE
8
BLACK
6
CONTINUOUS
10
4.15642
20
1.89142
11
4.09154
21
1.93478
0
LINE
8
BLACK
6
CONTINUOUS
10
4.09154
20
1.93478
11
4.015
21
1.95
0
LINE
8
BLACK
6
CONTINUOUS
10
4.015
20
1.95
11
2.615
21
1.95
0
LINE
8
BLACK
6
CONTINUOUS
10
2.615
20
1.95
11
2.53846
21
1.93478
0
LINE
8
BLACK
6
CONTINUOUS
10
2.53846
20
1.93478
11
2.47358
21
1.89142
0
LINE
8
BLACK
6
CONTINUOUS
10
2.47358
20
1.89142
11
2.43022
21
1.82654
0
LINE
8
BLACK
6
CONTINUOUS
10
2.43022
20
1.82654
11
2.415
21
1.75
0
LINE
8
BLACK
6
CONTINUOUS
10
2.415
20
1.75
11
2.415
21
0.99
0
CIRCLE
8
BLACK
10
10.8
20
0.1
40
1.225
0
CIRCLE
8
BLACK
10
13.34
20
2.64
40
1.325
0
CIRCLE
8
BLACK
10
13.34
20
-2.44
40
1.325
0
CIRCLE
8
BLACK
10
8.26
20
2.64
40
1.325
0
CIRCLE
8
BLACK
10
8.26
20
-2.44
40
1.325
0
LINE
8
BLACK
6
CONTINUOUS
10
-10.5811
20
9.27695
11
-5.63137
21
4.32721
0
LINE
8
BLACK
6
CONTINUOUS
10
-8.17695
20
11.6811
11
-3.22721
21
6.73137
0
ARC
8
BLACK
10
-4.42929
20
5.52929
40
1.7
50
225
51
405
0
ARC
8
BLACK
10
-9.37904
20
10.479
40
1.7
50
45
51
225
0
CIRCLE
8
BLACK
10
0
20
12
40
1.8
0
LINE
8
BLACK
6
CONTINUOUS
10
10.5811
20
-9.07695
11
5.63137
21
-4.12721
0
LINE
8
BLACK
6
CONTINUOUS
10
8.17695
20
-11.4811
11
3.22721
21
-6.53137
0
ARC
8
BLACK
10
4.42929
20
-5.32929
40
1.7
50
405
51
585
0
ARC
8
BLACK
10
9.37904
20
-10.279
40
1.7
50
225
51
405
0
LINE
8
BLACK
6
CONTINUOUS
10
-5.63137
20
-4.12721
11
-10.5811
21
-9.07695
0
LINE
8
BLACK
6
CONTINUOUS
10
-3.22721
20
-6.53137
11
-8.17695
21
-11.4811
0
ARC
8
BLACK
10
-9.37904
20
-10.279
40
1.7
50
495
51
675
0
ARC
8
BLACK
10
-4.42929
20
-5.32929
40
1.7
50
315
51
495
0
LINE
8
BLACK
6
CONTINUOUS
10
5.63137
20
4.32721
11
10.5811
21
9.27695
0
LINE
8
BLACK
6
CONTINUOUS
10
3.22721
20
6.73137
11
8.17695
21
11.6811
0
ARC
8
BLACK
10
9.37904
20
10.479
40
1.7
50
315
51
495
0
ARC
8
BLACK
10
4.42929
20
5.52929
40
1.7
50
135
51
315
0
LINE
8
BLACK
6
CONTINUOUS
10
2.4871
20
-0.42805
11
2.53924
21
-0.462891
0
LINE
8
BLACK
6
CONTINUOUS
10
2.53924
20
-0.462891
11
2.6152
21
-0.478
0
LINE
8
BLACK
6
CONTINUOUS
10
2.6152
20
-0.478
11
4.0148
21
-0.478
0
LINE
8
BLACK
6
CONTINUOUS
10
4.0148
20
-0.478
11
4.09076
21
-0.462891
0
LINE
8
BLACK
6
CONTINUOUS
10
4.09076
20
-0.462891
11
4.12815
21
-0.437904
0
LINE
8
BLACK
6
CONTINUOUS
10
4.12815
20
-0.437904
11
4.13015
21
-0.437773
0
LINE
8
BLACK
6
CONTINUOUS
10
4.13015
20
-0.437773
11
4.13126
21
-0.439436
0
LINE
8
BLACK
6
CONTINUOUS
10
4.13126
20
-0.439436
11
4.13093
21
-0.440675
0
LINE
8
BLACK
6
CONTINUOUS
10
4.13093
20
-0.440675
11
4.09346
21
-0.496991
0
LINE
8
BLACK
6
CONTINUOUS
10
4.09346
20
-0.496991
11
4.09236
21
-0.566243
0
LINE
8
BLACK
6
CONTINUOUS
10
4.09236
20
-0.566243
11
4.12898
21
-0.625255
0
LINE
8
BLACK
6
CONTINUOUS
10
4.12898
20
-0.625255
11
4.1416
21
-0.634398
0
LINE
8
BLACK
6
CONTINUOUS
10
4.1416
20
-0.634398
11
4.14196
21
-0.634732
0
LINE
8
BLACK
6
CONTINUOUS
10
4.14196
20
-0.634732
11
4.14554
21
-0.639002
0
LINE
8
BLACK
6
CONTINUOUS
10
4.14554
20
-0.639002
11
4.14589
21
-0.640972
0
LINE
8
BLACK
6
CONTINUOUS
10
4.14589
20
-0.640972
11
4.14436
21
-0.642258
0
LINE
8
BLACK
6
CONTINUOUS
10
4.14436
20
-0.642258
11
4.1429
21
-0.641951
0
LINE
8
BLACK
6
CONTINUOUS
10
4.1429
20
-0.641951
11
4.09076
21
-0.607109
0
LINE
8
BLACK
6
CONTINUOUS
10
4.09076
20
-0.607109
11
4.0148
21
-0.592
0
LINE
8
BLACK
6
CONTINUOUS
10
4.0148
20
-0.592
11
2.6152
21
-0.592
0
LINE
8
BLACK
6
CONTINUOUS
10
2.6152
20
-0.592
11
2.53924
21
-0.607109
0
LINE
8
BLACK
6
CONTINUOUS
10
2.53924
20
-0.607109
11
2.50185
21
-0.632095
0
LINE
8
BLACK
6
CONTINUOUS
10
2.50185
20
-0.632095
11
2.49985
21
-0.632226
0
LINE
8
BLACK
6
CONTINUOUS
10
2.49985
20
-0.632226
11
2.49874
21
-0.630563
0
LINE
8
BLACK
6
CONTINUOUS
10
2.49874
20
-0.630563
11
2.49907
21
-0.629324
0
LINE
8
BLACK
6
CONTINUOUS
10
2.49907
20
-0.629324
11
2.53654
21
-0.57301
0
LINE
8
BLACK
6
CONTINUOUS
10
2.53654
20
-0.57301
11
2.53764
21
-0.503758
0
LINE
8
BLACK
6
CONTINUOUS
10
2.53764
20
-0.503758
11
2.50102
21
-0.444745
0
LINE
8
BLACK
6
CONTINUOUS
10
2.50102
20
-0.444745
11
2.4884
21
-0.435602
0
LINE
8
BLACK
6
CONTINUOUS
10
2.4884
20
-0.435602
11
2.48804
21
-0.435268
0
LINE
8
BLACK
6
CONTINUOUS
10
2.48804
20
-0.435268
11
2.48446
21
-0.430999
0
LINE
8
BLACK
6
CONTINUOUS
10
2.48446
20
-0.430999
11
2.48411
21
-0.429029
0
LINE
8
BLACK
6
CONTINUOUS
10
2.48411
20
-0.429029
11
2.48564
21
-0.427743
0
LINE
8
BLACK
6
CONTINUOUS
10
2.48564
20
-0.427743
11
2.4871
21
-0.42805
0
LINE
8
BLACK
6
CONTINUOUS
10
2.4871
20
0.84195
11
2.53924
21
0.807109
0
LINE
8
BLACK
6
CONTINUOUS
10
2.53924
20
0.807109
11
2.6152
21
0.792
0
LINE
8
BLACK
6
CONTINUOUS
10
2.6152
20
0.792
11
4.0148
21
0.792
0
LINE
8
BLACK
6
CONTINUOUS
10
4.0148
20
0.792
11
4.09076
21
0.807109
0
LINE
8
BLACK
6
CONTINUOUS
10
4.09076
20
0.807109
11
4.12815
21
0.832096
0
LINE
8
BLACK
6
CONTINUOUS
10
4.12815
20
0.832096
11
4.13015
21
0.832227
0
LINE
8
BLACK
6
CONTINUOUS
10
4.13015
20
0.832227
11
4.13126
21
0.830564
0
LINE
8
BLACK
6
CONTINUOUS
10
4.13126
20
0.830564
11
4.13093
21
0.829325
0
LINE
8
BLACK
6
CONTINUOUS
10
4.13093
20
0.829325
11
4.09346
21
0.773009
0
LINE
8
BLACK
6
CONTINUOUS
10
4.09346
20
0.773009
11
4.09236
21
0.703757
0
LINE
8
BLACK
6
CONTINUOUS
10
4.09236
20
0.703757
11
4.12898
21
0.644745
0
LINE
8
BLACK
6
CONTINUOUS
10
4.12898
20
0.644745
11
4.1416
21
0.635602
0
LINE
8
BLACK
6
CONTINUOUS
10
4.1416
20
0.635602
11
4.14196
21
0.635268
0
LINE
8
BLACK
6
CONTINUOUS
10
4.14196
20
0.635268
11
4.14554
21
0.630998
0
LINE
8
BLACK
6
CONTINUOUS
10
4.14554
20
0.630998
11
4.14589
21
0.629028
0
LINE
8
BLACK
6
CONTINUOUS
10
4.14589
20
0.629028
11
4.14436
21
0.627742
0
LINE
8
BLACK
6
CONTINUOUS
10
4.14436
20
0.627742
11
4.1429
21
0.628049
0
LINE
8
BLACK
6
CONTINUOUS
10
4.1429
20
0.628049
11
4.09076
21
0.662891
0
LINE
8
BLACK
6
CONTINUOUS
10
4.09076
20
0.662891
11
4.0148
21
0.678
0
LINE
8
BLACK
6
CONTINUOUS
10
4.0148
20
0.678
11
2.6152
21
0.678
0
LINE
8
BLACK
6
CONTINUOUS
10
2.6152
20
0.678
11
2.53924
21
0.662891
0
LINE
8
BLACK
6
CONTINUOUS
10
2.53924
20
0.662891
11
2.50185
21
0.637905
0
LINE
8
BLACK
6
CONTINUOUS
10
2.50185
20
0.637905
11
2.49985
21
0.637774
0
LINE
8
BLACK
6
CONTINUOUS
10
2.49985
20
0.637774
11
2.49874
21
0.639437
0
LINE
8
BLACK
6
CONTINUOUS
10
2.49874
20
0.639437
11
2.49907
21
0.640676
0
LINE
8
BLACK
6
CONTINUOUS
10
2.49907
20
0.640676
11
2.53654
21
0.69699
0
LINE
8
BLACK
6
CONTINUOUS
10
2.53654
20
0.69699
11
2.53764
21
0.766242
0
LINE
8
BLACK
6
CONTINUOUS
10
2.53764
20
0.766242
11
2.50102
21
0.825255
0
LINE
8
BLACK
6
CONTINUOUS
10
2.50102
20
0.825255
11
2.4884
21
0.834398
0
LINE
8
BLACK
6
CONTINUOUS
10
2.4884
20
0.834398
11
2.48804
21
0.834732
0
LINE
8
BLACK
6
CONTINUOUS
10
2.48804
20
0.834732
11
2.48446
21
0.839001
0
LINE
8
BLACK
6
CONTINUOUS
10
2.48446
20
0.839001
11
2.48411
21
0.840971
0
LINE
8
BLACK
6
CONTINUOUS
10
2.48411
20
0.840971
11
2.48564
21
0.842257
0
LINE
8
BLACK
6
CONTINUOUS
10
2.48564
20
0.842257
11
2.4871
21
0.84195
  0
ENDSEC
  0
EOF
