  0
SECTION
  2
HEADER
  9
$ANGBASE
  50
0.0
  9
$ANGDIR
  70
1
  9
$MEASUREMENT
  70
0
  0
ENDSEC
  0
SECTION
  2
TABLES
  0
TABLE
  2
LTYPE
  70
4
  0
LTYPE
  5
40F
  2
CONTINUOUS
  70
0
  3
Solid line
  72
65
  73
0
  40
0.0
  0
LTYPE
  5
410
  2
DASHDOT
 70
0
  3
Dash Dot ____ _ ____ _
 72
65
 73
4
 40
2.0
 49
1.25
 49
-0.25
 49
0.25
 49
-0.25
  0
LTYPE
  5
411
  2
DASHED
 70
0
  3
Dashed __ __ __ __ __
 72
65
 73
2
 40
0.75
 49
0.5
 49
-0.25
  0
LTYPE
  5
43B
  2
DOTTED
 70
0
  3
Dotted .  .  .  .
 72
65
 73
2
 40
0.2
 49
0.0
 49
-0.2
  0
ENDTAB
  0
TABLE
  2
STYLE
  70
4
  0
STYLE
  2
KICAD
  70
0
  40
0
  41
1
  42
1
  50
0
  71
0
  3
isocp.shx
  0
STYLE
  2
KICADB
  70
0
  40
0
  41
1
  42
1
  50
0
  71
0
  3
isocp.shx
  0
STYLE
  2
KICADI
  70
0
  40
0
  41
1
  42
1
  50
15
  71
0
  3
isocp.shx
  0
STYLE
  2
KICADBI
  70
0
  40
0
  41
1
  42
1
  50
15
  71
0
  3
isocp.shx
  0
ENDTAB
  0
TABLE
  2
LAYER
  70
1
  0
LAYER
  2
BLACK
  70
0
  62
7
  6
CONTINUOUS
  0
ENDTAB
  0
ENDSEC
  0
SECTION
  2
ENTITIES
0
CIRCLE
8
BLACK
10
-0.472441
20
0
40
0.0708661
0
CIRCLE
8
BLACK
10
0
20
-0.472441
40
0.0708661
0
LINE
8
BLACK
6
CONTINUOUS
10
-0.0399606
20
0.0389764
11
-0.0393613
21
0.0359631
0
LINE
8
BLACK
6
CONTINUOUS
10
-0.0393613
20
0.0359631
11
-0.0376544
21
0.0334086
0
LINE
8
BLACK
6
CONTINUOUS
10
-0.0376544
20
0.0334086
11
-0.0350999
21
0.0317017
0
LINE
8
BLACK
6
CONTINUOUS
10
-0.0350999
20
0.0317017
11
-0.0320866
21
0.0311024
0
LINE
8
BLACK
6
CONTINUOUS
10
-0.0320866
20
0.0311024
11
0.0230315
21
0.0311024
0
LINE
8
BLACK
6
CONTINUOUS
10
0.0230315
20
0.0311024
11
0.0260448
21
0.0317017
0
LINE
8
BLACK
6
CONTINUOUS
10
0.0260448
20
0.0317017
11
0.0285993
21
0.0334086
0
LINE
8
BLACK
6
CONTINUOUS
10
0.0285993
20
0.0334086
11
0.0303061
21
0.0359631
0
LINE
8
BLACK
6
CONTINUOUS
10
0.0303061
20
0.0359631
11
0.0309055
21
0.0389764
0
LINE
8
BLACK
6
CONTINUOUS
10
0.0309055
20
0.0389764
11
0.0309055
21
0.0688976
0
LINE
8
BLACK
6
CONTINUOUS
10
0.0309055
20
0.0688976
11
0.0303061
21
0.0719109
0
LINE
8
BLACK
6
CONTINUOUS
10
0.0303061
20
0.0719109
11
0.0285993
21
0.0744654
0
LINE
8
BLACK
6
CONTINUOUS
10
0.0285993
20
0.0744654
11
0.0260448
21
0.0761723
0
LINE
8
BLACK
6
CONTINUOUS
10
0.0260448
20
0.0761723
11
0.0230315
21
0.0767717
0
LINE
8
BLACK
6
CONTINUOUS
10
0.0230315
20
0.0767717
11
-0.0320866
21
0.0767717
0
LINE
8
BLACK
6
CONTINUOUS
10
-0.0320866
20
0.0767717
11
-0.0350999
21
0.0761723
0
LINE
8
BLACK
6
CONTINUOUS
10
-0.0350999
20
0.0761723
11
-0.0376544
21
0.0744654
0
LINE
8
BLACK
6
CONTINUOUS
10
-0.0376544
20
0.0744654
11
-0.0393613
21
0.0719109
0
LINE
8
BLACK
6
CONTINUOUS
10
-0.0393613
20
0.0719109
11
-0.0399606
21
0.0688976
0
LINE
8
BLACK
6
CONTINUOUS
10
-0.0399606
20
0.0688976
11
-0.0399606
21
0.0389764
0
LINE
8
BLACK
6
CONTINUOUS
10
-0.0399606
20
-0.0610236
11
-0.0393613
21
-0.0640369
0
LINE
8
BLACK
6
CONTINUOUS
10
-0.0393613
20
-0.0640369
11
-0.0376544
21
-0.0665914
0
LINE
8
BLACK
6
CONTINUOUS
10
-0.0376544
20
-0.0665914
11
-0.0350999
21
-0.0682983
0
LINE
8
BLACK
6
CONTINUOUS
10
-0.0350999
20
-0.0682983
11
-0.0320866
21
-0.0688976
0
LINE
8
BLACK
6
CONTINUOUS
10
-0.0320866
20
-0.0688976
11
0.0230315
21
-0.0688976
0
LINE
8
BLACK
6
CONTINUOUS
10
0.0230315
20
-0.0688976
11
0.0260448
21
-0.0682983
0
LINE
8
BLACK
6
CONTINUOUS
10
0.0260448
20
-0.0682983
11
0.0285993
21
-0.0665914
0
LINE
8
BLACK
6
CONTINUOUS
10
0.0285993
20
-0.0665914
11
0.0303061
21
-0.0640369
0
LINE
8
BLACK
6
CONTINUOUS
10
0.0303061
20
-0.0640369
11
0.0309055
21
-0.0610236
0
LINE
8
BLACK
6
CONTINUOUS
10
0.0309055
20
-0.0610236
11
0.0309055
21
-0.0311024
0
LINE
8
BLACK
6
CONTINUOUS
10
0.0309055
20
-0.0311024
11
0.0303061
21
-0.0280891
0
LINE
8
BLACK
6
CONTINUOUS
10
0.0303061
20
-0.0280891
11
0.0285993
21
-0.0255346
0
LINE
8
BLACK
6
CONTINUOUS
10
0.0285993
20
-0.0255346
11
0.0260448
21
-0.0238277
0
LINE
8
BLACK
6
CONTINUOUS
10
0.0260448
20
-0.0238277
11
0.0230315
21
-0.0232283
0
LINE
8
BLACK
6
CONTINUOUS
10
0.0230315
20
-0.0232283
11
-0.0320866
21
-0.0232283
0
LINE
8
BLACK
6
CONTINUOUS
10
-0.0320866
20
-0.0232283
11
-0.0350999
21
-0.0238277
0
LINE
8
BLACK
6
CONTINUOUS
10
-0.0350999
20
-0.0238277
11
-0.0376544
21
-0.0255346
0
LINE
8
BLACK
6
CONTINUOUS
10
-0.0376544
20
-0.0255346
11
-0.0393613
21
-0.0280891
0
LINE
8
BLACK
6
CONTINUOUS
10
-0.0393613
20
-0.0280891
11
-0.0399606
21
-0.0311024
0
LINE
8
BLACK
6
CONTINUOUS
10
-0.0399606
20
-0.0311024
11
-0.0399606
21
-0.0610236
0
LINE
8
BLACK
6
CONTINUOUS
10
0.0950787
20
-0.0610236
11
0.0956781
21
-0.0640369
0
LINE
8
BLACK
6
CONTINUOUS
10
0.0956781
20
-0.0640369
11
0.097385
21
-0.0665914
0
LINE
8
BLACK
6
CONTINUOUS
10
0.097385
20
-0.0665914
11
0.0999395
21
-0.0682983
0
LINE
8
BLACK
6
CONTINUOUS
10
0.0999395
20
-0.0682983
11
0.102953
21
-0.0688976
0
LINE
8
BLACK
6
CONTINUOUS
10
0.102953
20
-0.0688976
11
0.158071
21
-0.0688976
0
LINE
8
BLACK
6
CONTINUOUS
10
0.158071
20
-0.0688976
11
0.161084
21
-0.0682983
0
LINE
8
BLACK
6
CONTINUOUS
10
0.161084
20
-0.0682983
11
0.163639
21
-0.0665914
0
LINE
8
BLACK
6
CONTINUOUS
10
0.163639
20
-0.0665914
11
0.165346
21
-0.0640369
0
LINE
8
BLACK
6
CONTINUOUS
10
0.165346
20
-0.0640369
11
0.165945
21
-0.0610236
0
LINE
8
BLACK
6
CONTINUOUS
10
0.165945
20
-0.0610236
11
0.165945
21
-0.0311024
0
LINE
8
BLACK
6
CONTINUOUS
10
0.165945
20
-0.0311024
11
0.165346
21
-0.0280891
0
LINE
8
BLACK
6
CONTINUOUS
10
0.165346
20
-0.0280891
11
0.163639
21
-0.0255346
0
LINE
8
BLACK
6
CONTINUOUS
10
0.163639
20
-0.0255346
11
0.161084
21
-0.0238277
0
LINE
8
BLACK
6
CONTINUOUS
10
0.161084
20
-0.0238277
11
0.158071
21
-0.0232283
0
LINE
8
BLACK
6
CONTINUOUS
10
0.158071
20
-0.0232283
11
0.102953
21
-0.0232283
0
LINE
8
BLACK
6
CONTINUOUS
10
0.102953
20
-0.0232283
11
0.0999395
21
-0.0238277
0
LINE
8
BLACK
6
CONTINUOUS
10
0.0999395
20
-0.0238277
11
0.097385
21
-0.0255346
0
LINE
8
BLACK
6
CONTINUOUS
10
0.097385
20
-0.0255346
11
0.0956781
21
-0.0280891
0
LINE
8
BLACK
6
CONTINUOUS
10
0.0956781
20
-0.0280891
11
0.0950787
21
-0.0311024
0
LINE
8
BLACK
6
CONTINUOUS
10
0.0950787
20
-0.0311024
11
0.0950787
21
-0.0610236
0
LINE
8
BLACK
6
CONTINUOUS
10
0.0950787
20
-0.0110236
11
0.0956781
21
-0.0140369
0
LINE
8
BLACK
6
CONTINUOUS
10
0.0956781
20
-0.0140369
11
0.097385
21
-0.0165914
0
LINE
8
BLACK
6
CONTINUOUS
10
0.097385
20
-0.0165914
11
0.0999395
21
-0.0182983
0
LINE
8
BLACK
6
CONTINUOUS
10
0.0999395
20
-0.0182983
11
0.102953
21
-0.0188976
0
LINE
8
BLACK
6
CONTINUOUS
10
0.102953
20
-0.0188976
11
0.158071
21
-0.0188976
0
LINE
8
BLACK
6
CONTINUOUS
10
0.158071
20
-0.0188976
11
0.161084
21
-0.0182983
0
LINE
8
BLACK
6
CONTINUOUS
10
0.161084
20
-0.0182983
11
0.163639
21
-0.0165914
0
LINE
8
BLACK
6
CONTINUOUS
10
0.163639
20
-0.0165914
11
0.165346
21
-0.0140369
0
LINE
8
BLACK
6
CONTINUOUS
10
0.165346
20
-0.0140369
11
0.165945
21
-0.0110236
0
LINE
8
BLACK
6
CONTINUOUS
10
0.165945
20
-0.0110236
11
0.165945
21
0.0188976
0
LINE
8
BLACK
6
CONTINUOUS
10
0.165945
20
0.0188976
11
0.165346
21
0.0219109
0
LINE
8
BLACK
6
CONTINUOUS
10
0.165346
20
0.0219109
11
0.163639
21
0.0244654
0
LINE
8
BLACK
6
CONTINUOUS
10
0.163639
20
0.0244654
11
0.161084
21
0.0261723
0
LINE
8
BLACK
6
CONTINUOUS
10
0.161084
20
0.0261723
11
0.158071
21
0.0267717
0
LINE
8
BLACK
6
CONTINUOUS
10
0.158071
20
0.0267717
11
0.102953
21
0.0267717
0
LINE
8
BLACK
6
CONTINUOUS
10
0.102953
20
0.0267717
11
0.0999395
21
0.0261723
0
LINE
8
BLACK
6
CONTINUOUS
10
0.0999395
20
0.0261723
11
0.097385
21
0.0244654
0
LINE
8
BLACK
6
CONTINUOUS
10
0.097385
20
0.0244654
11
0.0956781
21
0.0219109
0
LINE
8
BLACK
6
CONTINUOUS
10
0.0956781
20
0.0219109
11
0.0950787
21
0.0188976
0
LINE
8
BLACK
6
CONTINUOUS
10
0.0950787
20
0.0188976
11
0.0950787
21
-0.0110236
0
LINE
8
BLACK
6
CONTINUOUS
10
0.0950787
20
0.0389764
11
0.0956781
21
0.0359631
0
LINE
8
BLACK
6
CONTINUOUS
10
0.0956781
20
0.0359631
11
0.097385
21
0.0334086
0
LINE
8
BLACK
6
CONTINUOUS
10
0.097385
20
0.0334086
11
0.0999395
21
0.0317017
0
LINE
8
BLACK
6
CONTINUOUS
10
0.0999395
20
0.0317017
11
0.102953
21
0.0311024
0
LINE
8
BLACK
6
CONTINUOUS
10
0.102953
20
0.0311024
11
0.158071
21
0.0311024
0
LINE
8
BLACK
6
CONTINUOUS
10
0.158071
20
0.0311024
11
0.161084
21
0.0317017
0
LINE
8
BLACK
6
CONTINUOUS
10
0.161084
20
0.0317017
11
0.163639
21
0.0334086
0
LINE
8
BLACK
6
CONTINUOUS
10
0.163639
20
0.0334086
11
0.165346
21
0.0359631
0
LINE
8
BLACK
6
CONTINUOUS
10
0.165346
20
0.0359631
11
0.165945
21
0.0389764
0
LINE
8
BLACK
6
CONTINUOUS
10
0.165945
20
0.0389764
11
0.165945
21
0.0688976
0
LINE
8
BLACK
6
CONTINUOUS
10
0.165945
20
0.0688976
11
0.165346
21
0.0719109
0
LINE
8
BLACK
6
CONTINUOUS
10
0.165346
20
0.0719109
11
0.163639
21
0.0744654
0
LINE
8
BLACK
6
CONTINUOUS
10
0.163639
20
0.0744654
11
0.161084
21
0.0761723
0
LINE
8
BLACK
6
CONTINUOUS
10
0.161084
20
0.0761723
11
0.158071
21
0.0767717
0
LINE
8
BLACK
6
CONTINUOUS
10
0.158071
20
0.0767717
11
0.102953
21
0.0767717
0
LINE
8
BLACK
6
CONTINUOUS
10
0.102953
20
0.0767717
11
0.0999395
21
0.0761723
0
LINE
8
BLACK
6
CONTINUOUS
10
0.0999395
20
0.0761723
11
0.097385
21
0.0744654
0
LINE
8
BLACK
6
CONTINUOUS
10
0.097385
20
0.0744654
11
0.0956781
21
0.0719109
0
LINE
8
BLACK
6
CONTINUOUS
10
0.0956781
20
0.0719109
11
0.0950787
21
0.0688976
0
LINE
8
BLACK
6
CONTINUOUS
10
0.0950787
20
0.0688976
11
0.0950787
21
0.0389764
0
CIRCLE
8
BLACK
10
0.425197
20
0.00393701
40
0.0482283
0
CIRCLE
8
BLACK
10
0.525197
20
0.103937
40
0.0521654
0
CIRCLE
8
BLACK
10
0.525197
20
-0.096063
40
0.0521654
0
CIRCLE
8
BLACK
10
0.325197
20
0.103937
40
0.0521654
0
CIRCLE
8
BLACK
10
0.325197
20
-0.096063
40
0.0521654
0
LINE
8
BLACK
6
CONTINUOUS
10
-0.416579
20
0.365234
11
-0.221708
21
0.170363
0
LINE
8
BLACK
6
CONTINUOUS
10
-0.321927
20
0.459887
11
-0.127055
21
0.265015
0
ARC
8
BLACK
10
-0.174381
20
0.217689
40
0.0669291
50
225
51
405
0
ARC
8
BLACK
10
-0.369253
20
0.412561
40
0.0669291
50
45
51
225
0
CIRCLE
8
BLACK
10
0
20
0.472441
40
0.0708661
0
LINE
8
BLACK
6
CONTINUOUS
10
0.416579
20
-0.35736
11
0.221708
21
-0.162489
0
LINE
8
BLACK
6
CONTINUOUS
10
0.321927
20
-0.452013
11
0.127055
21
-0.257141
0
ARC
8
BLACK
10
0.174381
20
-0.209815
40
0.0669291
50
405
51
585
0
ARC
8
BLACK
10
0.369253
20
-0.404686
40
0.0669291
50
225
51
405
0
LINE
8
BLACK
6
CONTINUOUS
10
-0.221708
20
-0.162489
11
-0.416579
21
-0.35736
0
LINE
8
BLACK
6
CONTINUOUS
10
-0.127055
20
-0.257141
11
-0.321927
21
-0.452013
0
ARC
8
BLACK
10
-0.369253
20
-0.404686
40
0.0669291
50
495
51
675
0
ARC
8
BLACK
10
-0.174381
20
-0.209815
40
0.0669291
50
315
51
495
0
LINE
8
BLACK
6
CONTINUOUS
10
0.221708
20
0.170363
11
0.416579
21
0.365234
0
LINE
8
BLACK
6
CONTINUOUS
10
0.127055
20
0.265015
11
0.321927
21
0.459887
0
ARC
8
BLACK
10
0.369253
20
0.412561
40
0.0669291
50
315
51
495
0
ARC
8
BLACK
10
0.174381
20
0.217689
40
0.0669291
50
135
51
315
0
LINE
8
BLACK
6
CONTINUOUS
10
0.0979173
20
-0.0168524
11
0.0999702
21
-0.0182241
0
LINE
8
BLACK
6
CONTINUOUS
10
0.0999702
20
-0.0182241
11
0.102961
21
-0.0188189
0
LINE
8
BLACK
6
CONTINUOUS
10
0.102961
20
-0.0188189
11
0.158063
21
-0.0188189
0
LINE
8
BLACK
6
CONTINUOUS
10
0.158063
20
-0.0188189
11
0.161053
21
-0.0182241
0
LINE
8
BLACK
6
CONTINUOUS
10
0.161053
20
-0.0182241
11
0.162526
21
-0.0172403
0
LINE
8
BLACK
6
CONTINUOUS
10
0.162526
20
-0.0172403
11
0.162604
21
-0.0172352
0
LINE
8
BLACK
6
CONTINUOUS
10
0.162604
20
-0.0172352
11
0.162648
21
-0.0173006
0
LINE
8
BLACK
6
CONTINUOUS
10
0.162648
20
-0.0173006
11
0.162635
21
-0.0173494
0
LINE
8
BLACK
6
CONTINUOUS
10
0.162635
20
-0.0173494
11
0.16116
21
-0.0195666
0
LINE
8
BLACK
6
CONTINUOUS
10
0.16116
20
-0.0195666
11
0.161117
21
-0.022293
0
LINE
8
BLACK
6
CONTINUOUS
10
0.161117
20
-0.022293
11
0.162558
21
-0.0246163
0
LINE
8
BLACK
6
CONTINUOUS
10
0.162558
20
-0.0246163
11
0.163055
21
-0.0249763
0
LINE
8
BLACK
6
CONTINUOUS
10
0.163055
20
-0.0249763
11
0.163069
21
-0.0249894
0
LINE
8
BLACK
6
CONTINUOUS
10
0.163069
20
-0.0249894
11
0.16321
21
-0.0251576
0
LINE
8
BLACK
6
CONTINUOUS
10
0.16321
20
-0.0251576
11
0.163224
21
-0.0252351
0
LINE
8
BLACK
6
CONTINUOUS
10
0.163224
20
-0.0252351
11
0.163164
21
-0.0252857
0
LINE
8
BLACK
6
CONTINUOUS
10
0.163164
20
-0.0252857
11
0.163106
21
-0.0252737
0
LINE
8
BLACK
6
CONTINUOUS
10
0.163106
20
-0.0252737
11
0.161053
21
-0.0239019
0
LINE
8
BLACK
6
CONTINUOUS
10
0.161053
20
-0.0239019
11
0.158063
21
-0.0233071
0
LINE
8
BLACK
6
CONTINUOUS
10
0.158063
20
-0.0233071
11
0.102961
21
-0.0233071
0
LINE
8
BLACK
6
CONTINUOUS
10
0.102961
20
-0.0233071
11
0.0999702
21
-0.0239019
0
LINE
8
BLACK
6
CONTINUOUS
10
0.0999702
20
-0.0239019
11
0.098498
21
-0.0248856
0
LINE
8
BLACK
6
CONTINUOUS
10
0.098498
20
-0.0248856
11
0.0984194
21
-0.0248908
0
LINE
8
BLACK
6
CONTINUOUS
10
0.0984194
20
-0.0248908
11
0.0983757
21
-0.0248253
0
LINE
8
BLACK
6
CONTINUOUS
10
0.0983757
20
-0.0248253
11
0.0983887
21
-0.0247765
0
LINE
8
BLACK
6
CONTINUOUS
10
0.0983887
20
-0.0247765
11
0.0998637
21
-0.0225594
0
LINE
8
BLACK
6
CONTINUOUS
10
0.0998637
20
-0.0225594
11
0.0999071
21
-0.019833
0
LINE
8
BLACK
6
CONTINUOUS
10
0.0999071
20
-0.019833
11
0.0984656
21
-0.0175096
0
LINE
8
BLACK
6
CONTINUOUS
10
0.0984656
20
-0.0175096
11
0.0979684
21
-0.0171497
0
LINE
8
BLACK
6
CONTINUOUS
10
0.0979684
20
-0.0171497
11
0.0979543
21
-0.0171365
0
LINE
8
BLACK
6
CONTINUOUS
10
0.0979543
20
-0.0171365
11
0.0978133
21
-0.0169685
0
LINE
8
BLACK
6
CONTINUOUS
10
0.0978133
20
-0.0169685
11
0.0977996
21
-0.0168909
0
LINE
8
BLACK
6
CONTINUOUS
10
0.0977996
20
-0.0168909
11
0.0978599
21
-0.0168403
0
LINE
8
BLACK
6
CONTINUOUS
10
0.0978599
20
-0.0168403
11
0.0979173
21
-0.0168524
0
LINE
8
BLACK
6
CONTINUOUS
10
0.0979173
20
0.0331476
11
0.0999702
21
0.0317759
0
LINE
8
BLACK
6
CONTINUOUS
10
0.0999702
20
0.0317759
11
0.102961
21
0.0311811
0
LINE
8
BLACK
6
CONTINUOUS
10
0.102961
20
0.0311811
11
0.158063
21
0.0311811
0
LINE
8
BLACK
6
CONTINUOUS
10
0.158063
20
0.0311811
11
0.161053
21
0.0317759
0
LINE
8
BLACK
6
CONTINUOUS
10
0.161053
20
0.0317759
11
0.162526
21
0.0327597
0
LINE
8
BLACK
6
CONTINUOUS
10
0.162526
20
0.0327597
11
0.162604
21
0.0327648
0
LINE
8
BLACK
6
CONTINUOUS
10
0.162604
20
0.0327648
11
0.162648
21
0.0326994
0
LINE
8
BLACK
6
CONTINUOUS
10
0.162648
20
0.0326994
11
0.162635
21
0.0326506
0
LINE
8
BLACK
6
CONTINUOUS
10
0.162635
20
0.0326506
11
0.16116
21
0.0304334
0
LINE
8
BLACK
6
CONTINUOUS
10
0.16116
20
0.0304334
11
0.161117
21
0.027707
0
LINE
8
BLACK
6
CONTINUOUS
10
0.161117
20
0.027707
11
0.162558
21
0.0253837
0
LINE
8
BLACK
6
CONTINUOUS
10
0.162558
20
0.0253837
11
0.163055
21
0.0250237
0
LINE
8
BLACK
6
CONTINUOUS
10
0.163055
20
0.0250237
11
0.163069
21
0.0250106
0
LINE
8
BLACK
6
CONTINUOUS
10
0.163069
20
0.0250106
11
0.16321
21
0.0248424
0
LINE
8
BLACK
6
CONTINUOUS
10
0.16321
20
0.0248424
11
0.163224
21
0.0247649
0
LINE
8
BLACK
6
CONTINUOUS
10
0.163224
20
0.0247649
11
0.163164
21
0.0247143
0
LINE
8
BLACK
6
CONTINUOUS
10
0.163164
20
0.0247143
11
0.163106
21
0.0247263
0
LINE
8
BLACK
6
CONTINUOUS
10
0.163106
20
0.0247263
11
0.161053
21
0.0260981
0
LINE
8
BLACK
6
CONTINUOUS
10
0.161053
20
0.0260981
11
0.158063
21
0.0266929
0
LINE
8
BLACK
6
CONTINUOUS
10
0.158063
20
0.0266929
11
0.102961
21
0.0266929
0
LINE
8
BLACK
6
CONTINUOUS
10
0.102961
20
0.0266929
11
0.0999702
21
0.0260981
0
LINE
8
BLACK
6
CONTINUOUS
10
0.0999702
20
0.0260981
11
0.098498
21
0.0251144
0
LINE
8
BLACK
6
CONTINUOUS
10
0.098498
20
0.0251144
11
0.0984194
21
0.0251092
0
LINE
8
BLACK
6
CONTINUOUS
10
0.0984194
20
0.0251092
11
0.0983757
21
0.0251747
0
LINE
8
BLACK
6
CONTINUOUS
10
0.0983757
20
0.0251747
11
0.0983887
21
0.0252235
0
LINE
8
BLACK
6
CONTINUOUS
10
0.0983887
20
0.0252235
11
0.0998637
21
0.0274406
0
LINE
8
BLACK
6
CONTINUOUS
10
0.0998637
20
0.0274406
11
0.0999071
21
0.030167
0
LINE
8
BLACK
6
CONTINUOUS
10
0.0999071
20
0.030167
11
0.0984656
21
0.0324904
0
LINE
8
BLACK
6
CONTINUOUS
10
0.0984656
20
0.0324904
11
0.0979684
21
0.0328503
0
LINE
8
BLACK
6
CONTINUOUS
10
0.0979684
20
0.0328503
11
0.0979543
21
0.0328635
0
LINE
8
BLACK
6
CONTINUOUS
10
0.0979543
20
0.0328635
11
0.0978133
21
0.0330315
0
LINE
8
BLACK
6
CONTINUOUS
10
0.0978133
20
0.0330315
11
0.0977996
21
0.0331091
0
LINE
8
BLACK
6
CONTINUOUS
10
0.0977996
20
0.0331091
11
0.0978599
21
0.0331597
0
LINE
8
BLACK
6
CONTINUOUS
10
0.0978599
20
0.0331597
11
0.0979173
21
0.0331476
  0
ENDSEC
  0
EOF
