  0
SECTION
  2
HEADER
  9
$ANGBASE
  50
0.0
  9
$ANGDIR
  70
1
  9
$MEASUREMENT
  70
1
  0
ENDSEC
  0
SECTION
  2
TABLES
  0
TABLE
  2
LTYPE
  70
4
  0
LTYPE
  5
40F
  2
CONTINUOUS
  70
0
  3
Solid line
  72
65
  73
0
  40
0.0
  0
LTYPE
  5
410
  2
DASHDOT
 70
0
  3
Dash Dot ____ _ ____ _
 72
65
 73
4
 40
2.0
 49
1.25
 49
-0.25
 49
0.25
 49
-0.25
  0
LTYPE
  5
411
  2
DASHED
 70
0
  3
Dashed __ __ __ __ __
 72
65
 73
2
 40
0.75
 49
0.5
 49
-0.25
  0
LTYPE
  5
43B
  2
DOTTED
 70
0
  3
Dotted .  .  .  .
 72
65
 73
2
 40
0.2
 49
0.0
 49
-0.2
  0
ENDTAB
  0
TABLE
  2
STYLE
  70
4
  0
STYLE
  2
KICAD
  70
0
  40
0
  41
1
  42
1
  50
0
  71
0
  3
isocp.shx
  0
STYLE
  2
KICADB
  70
0
  40
0
  41
1
  42
1
  50
0
  71
0
  3
isocp.shx
  0
STYLE
  2
KICADI
  70
0
  40
0
  41
1
  42
1
  50
15
  71
0
  3
isocp.shx
  0
STYLE
  2
KICADBI
  70
0
  40
0
  41
1
  42
1
  50
15
  71
0
  3
isocp.shx
  0
ENDTAB
  0
TABLE
  2
LAYER
  70
1
  0
LAYER
  2
BLACK
  70
0
  62
7
  6
CONTINUOUS
  0
ENDTAB
  0
ENDSEC
  0
SECTION
  2
ENTITIES
0
LINE
8
BLACK
6
CONTINUOUS
10
0.250295
20
-10.4197
11
0.494427
21
-10.4783
0
LINE
8
BLACK
6
CONTINUOUS
10
0.494427
20
-10.4783
11
0.726385
21
-10.5744
0
LINE
8
BLACK
6
CONTINUOUS
10
0.726385
20
-10.5744
11
0.940456
21
-10.7056
0
LINE
8
BLACK
6
CONTINUOUS
10
0.940456
20
-10.7056
11
1.13137
21
-10.8686
0
LINE
8
BLACK
6
CONTINUOUS
10
1.13137
20
-10.8686
11
1.29443
21
-11.0595
0
LINE
8
BLACK
6
CONTINUOUS
10
1.29443
20
-11.0595
11
1.42561
21
-11.2736
0
LINE
8
BLACK
6
CONTINUOUS
10
1.42561
20
-11.2736
11
1.52169
21
-11.5056
0
LINE
8
BLACK
6
CONTINUOUS
10
1.52169
20
-11.5056
11
1.5803
21
-11.7497
0
LINE
8
BLACK
6
CONTINUOUS
10
1.5803
20
-11.7497
11
1.6
21
-12
0
LINE
8
BLACK
6
CONTINUOUS
10
1.6
20
-12
11
1.5803
21
-12.2503
0
LINE
8
BLACK
6
CONTINUOUS
10
1.5803
20
-12.2503
11
1.52169
21
-12.4944
0
LINE
8
BLACK
6
CONTINUOUS
10
1.52169
20
-12.4944
11
1.42561
21
-12.7264
0
LINE
8
BLACK
6
CONTINUOUS
10
1.42561
20
-12.7264
11
1.29443
21
-12.9405
0
LINE
8
BLACK
6
CONTINUOUS
10
1.29443
20
-12.9405
11
1.13137
21
-13.1314
0
LINE
8
BLACK
6
CONTINUOUS
10
1.13137
20
-13.1314
11
0.940456
21
-13.2944
0
LINE
8
BLACK
6
CONTINUOUS
10
0.940456
20
-13.2944
11
0.726385
21
-13.4256
0
LINE
8
BLACK
6
CONTINUOUS
10
0.726385
20
-13.4256
11
0.494427
21
-13.5217
0
LINE
8
BLACK
6
CONTINUOUS
10
0.494427
20
-13.5217
11
0.250295
21
-13.5803
0
LINE
8
BLACK
6
CONTINUOUS
10
0.250295
20
-13.5803
11
0
21
-13.6
0
LINE
8
BLACK
6
CONTINUOUS
10
0
20
-13.6
11
-0.250295
21
-13.5803
0
LINE
8
BLACK
6
CONTINUOUS
10
-0.250295
20
-13.5803
11
-0.494427
21
-13.5217
0
LINE
8
BLACK
6
CONTINUOUS
10
-0.494427
20
-13.5217
11
-0.726385
21
-13.4256
0
LINE
8
BLACK
6
CONTINUOUS
10
-0.726385
20
-13.4256
11
-0.940456
21
-13.2944
0
LINE
8
BLACK
6
CONTINUOUS
10
-0.940456
20
-13.2944
11
-1.13137
21
-13.1314
0
LINE
8
BLACK
6
CONTINUOUS
10
-1.13137
20
-13.1314
11
-1.29443
21
-12.9405
0
LINE
8
BLACK
6
CONTINUOUS
10
-1.29443
20
-12.9405
11
-1.42561
21
-12.7264
0
LINE
8
BLACK
6
CONTINUOUS
10
-1.42561
20
-12.7264
11
-1.52169
21
-12.4944
0
LINE
8
BLACK
6
CONTINUOUS
10
-1.52169
20
-12.4944
11
-1.5803
21
-12.2503
0
LINE
8
BLACK
6
CONTINUOUS
10
-1.5803
20
-12.2503
11
-1.6
21
-12
0
LINE
8
BLACK
6
CONTINUOUS
10
-1.6
20
-12
11
-1.5803
21
-11.7497
0
LINE
8
BLACK
6
CONTINUOUS
10
-1.5803
20
-11.7497
11
-1.52169
21
-11.5056
0
LINE
8
BLACK
6
CONTINUOUS
10
-1.52169
20
-11.5056
11
-1.42561
21
-11.2736
0
LINE
8
BLACK
6
CONTINUOUS
10
-1.42561
20
-11.2736
11
-1.29443
21
-11.0595
0
LINE
8
BLACK
6
CONTINUOUS
10
-1.29443
20
-11.0595
11
-1.13137
21
-10.8686
0
LINE
8
BLACK
6
CONTINUOUS
10
-1.13137
20
-10.8686
11
-0.940456
21
-10.7056
0
LINE
8
BLACK
6
CONTINUOUS
10
-0.940456
20
-10.7056
11
-0.726385
21
-10.5744
0
LINE
8
BLACK
6
CONTINUOUS
10
-0.726385
20
-10.5744
11
-0.494427
21
-10.4783
0
LINE
8
BLACK
6
CONTINUOUS
10
-0.494427
20
-10.4783
11
-0.250295
21
-10.4197
0
LINE
8
BLACK
6
CONTINUOUS
10
-0.250295
20
-10.4197
11
0
21
-10.4
0
LINE
8
BLACK
6
CONTINUOUS
10
0
20
-10.4
11
0.250295
21
-10.4197
0
LINE
8
BLACK
6
CONTINUOUS
10
4.1328
20
-3.85888
11
4.37694
21
-3.8302
0
LINE
8
BLACK
6
CONTINUOUS
10
4.37694
20
-3.8302
11
4.62248
21
-3.84178
0
LINE
8
BLACK
6
CONTINUOUS
10
4.62248
20
-3.84178
11
4.86284
21
-3.89331
0
LINE
8
BLACK
6
CONTINUOUS
10
4.86284
20
-3.89331
11
5.09155
21
-3.9834
0
LINE
8
BLACK
6
CONTINUOUS
10
5.09155
20
-3.9834
11
5.30247
21
-4.10964
0
LINE
8
BLACK
6
CONTINUOUS
10
5.30247
20
-4.10964
11
5.48995
21
-4.26863
0
LINE
8
BLACK
6
CONTINUOUS
10
5.48995
20
-4.26863
11
10.4397
21
-9.21838
0
LINE
8
BLACK
6
CONTINUOUS
10
10.4397
20
-9.21838
11
10.4653
21
-9.24461
0
LINE
8
BLACK
6
CONTINUOUS
10
10.4653
20
-9.24461
11
10.6197
21
-9.43591
0
LINE
8
BLACK
6
CONTINUOUS
10
10.6197
20
-9.43591
11
10.7407
21
-9.64986
0
LINE
8
BLACK
6
CONTINUOUS
10
10.7407
20
-9.64986
11
10.8252
21
-9.8807
0
LINE
8
BLACK
6
CONTINUOUS
10
10.8252
20
-9.8807
11
10.8708
21
-10.1222
0
LINE
8
BLACK
6
CONTINUOUS
10
10.8708
20
-10.1222
11
10.8764
21
-10.368
0
LINE
8
BLACK
6
CONTINUOUS
10
10.8764
20
-10.368
11
10.8418
21
-10.6114
0
LINE
8
BLACK
6
CONTINUOUS
10
10.8418
20
-10.6114
11
10.7678
21
-10.8458
0
LINE
8
BLACK
6
CONTINUOUS
10
10.7678
20
-10.8458
11
10.6566
21
-11.065
0
LINE
8
BLACK
6
CONTINUOUS
10
10.6566
20
-11.065
11
10.5111
21
-11.2631
0
LINE
8
BLACK
6
CONTINUOUS
10
10.5111
20
-11.2631
11
10.3352
21
-11.4348
0
LINE
8
BLACK
6
CONTINUOUS
10
10.3352
20
-11.4348
11
10.1336
21
-11.5754
0
LINE
8
BLACK
6
CONTINUOUS
10
10.1336
20
-11.5754
11
9.9117
21
-11.6813
0
LINE
8
BLACK
6
CONTINUOUS
10
9.9117
20
-11.6813
11
9.67552
21
-11.7494
0
LINE
8
BLACK
6
CONTINUOUS
10
9.67552
20
-11.7494
11
9.43139
21
-11.7781
0
LINE
8
BLACK
6
CONTINUOUS
10
9.43139
20
-11.7781
11
9.18584
21
-11.7665
0
LINE
8
BLACK
6
CONTINUOUS
10
9.18584
20
-11.7665
11
8.94549
21
-11.715
0
LINE
8
BLACK
6
CONTINUOUS
10
8.94549
20
-11.715
11
8.71678
21
-11.6249
0
LINE
8
BLACK
6
CONTINUOUS
10
8.71678
20
-11.6249
11
8.50585
21
-11.4987
0
LINE
8
BLACK
6
CONTINUOUS
10
8.50585
20
-11.4987
11
8.31838
21
-11.3397
0
LINE
8
BLACK
6
CONTINUOUS
10
8.31838
20
-11.3397
11
3.36863
21
-6.38995
0
LINE
8
BLACK
6
CONTINUOUS
10
3.36863
20
-6.38995
11
3.34303
21
-6.36372
0
LINE
8
BLACK
6
CONTINUOUS
10
3.34303
20
-6.36372
11
3.18867
21
-6.17241
0
LINE
8
BLACK
6
CONTINUOUS
10
3.18867
20
-6.17241
11
3.06762
21
-5.95847
0
LINE
8
BLACK
6
CONTINUOUS
10
3.06762
20
-5.95847
11
2.99783
21
-5.76776
0
LINE
8
BLACK
6
CONTINUOUS
10
2.99783
20
-5.76776
11
1.11504
21
-3.88496
0
LINE
8
BLACK
6
CONTINUOUS
10
1.11504
20
-3.88496
11
-0.115
21
-2.65492
0
LINE
8
BLACK
6
CONTINUOUS
10
-0.115
20
-2.65492
11
-2.93976
21
-5.47969
0
LINE
8
BLACK
6
CONTINUOUS
10
-2.93976
20
-5.47969
11
-2.94178
21
-5.52248
0
LINE
8
BLACK
6
CONTINUOUS
10
-2.94178
20
-5.52248
11
-2.99331
21
-5.76284
0
LINE
8
BLACK
6
CONTINUOUS
10
-2.99331
20
-5.76284
11
-3.0834
21
-5.99155
0
LINE
8
BLACK
6
CONTINUOUS
10
-3.0834
20
-5.99155
11
-3.20964
21
-6.20247
0
LINE
8
BLACK
6
CONTINUOUS
10
-3.20964
20
-6.20247
11
-3.36863
21
-6.38995
0
LINE
8
BLACK
6
CONTINUOUS
10
-3.36863
20
-6.38995
11
-8.31838
21
-11.3397
0
LINE
8
BLACK
6
CONTINUOUS
10
-8.31838
20
-11.3397
11
-8.34461
21
-11.3653
0
LINE
8
BLACK
6
CONTINUOUS
10
-8.34461
20
-11.3653
11
-8.53591
21
-11.5197
0
LINE
8
BLACK
6
CONTINUOUS
10
-8.53591
20
-11.5197
11
-8.74986
21
-11.6407
0
LINE
8
BLACK
6
CONTINUOUS
10
-8.74986
20
-11.6407
11
-8.9807
21
-11.7252
0
LINE
8
BLACK
6
CONTINUOUS
10
-8.9807
20
-11.7252
11
-9.22224
21
-11.7708
0
LINE
8
BLACK
6
CONTINUOUS
10
-9.22224
20
-11.7708
11
-9.468
21
-11.7764
0
LINE
8
BLACK
6
CONTINUOUS
10
-9.468
20
-11.7764
11
-9.71136
21
-11.7418
0
LINE
8
BLACK
6
CONTINUOUS
10
-9.71136
20
-11.7418
11
-9.9458
21
-11.6678
0
LINE
8
BLACK
6
CONTINUOUS
10
-9.9458
20
-11.6678
11
-10.165
21
-11.5566
0
LINE
8
BLACK
6
CONTINUOUS
10
-10.165
20
-11.5566
11
-10.3631
21
-11.4111
0
LINE
8
BLACK
6
CONTINUOUS
10
-10.3631
20
-11.4111
11
-10.5348
21
-11.2352
0
LINE
8
BLACK
6
CONTINUOUS
10
-10.5348
20
-11.2352
11
-10.6754
21
-11.0336
0
LINE
8
BLACK
6
CONTINUOUS
10
-10.6754
20
-11.0336
11
-10.7813
21
-10.8117
0
LINE
8
BLACK
6
CONTINUOUS
10
-10.7813
20
-10.8117
11
-10.8494
21
-10.5755
0
LINE
8
BLACK
6
CONTINUOUS
10
-10.8494
20
-10.5755
11
-10.8781
21
-10.3314
0
LINE
8
BLACK
6
CONTINUOUS
10
-10.8781
20
-10.3314
11
-10.8665
21
-10.0858
0
LINE
8
BLACK
6
CONTINUOUS
10
-10.8665
20
-10.0858
11
-10.815
21
-9.84549
0
LINE
8
BLACK
6
CONTINUOUS
10
-10.815
20
-9.84549
11
-10.7249
21
-9.61678
0
LINE
8
BLACK
6
CONTINUOUS
10
-10.7249
20
-9.61678
11
-10.5987
21
-9.40585
0
LINE
8
BLACK
6
CONTINUOUS
10
-10.5987
20
-9.40585
11
-10.4397
21
-9.21838
0
LINE
8
BLACK
6
CONTINUOUS
10
-10.4397
20
-9.21838
11
-5.48995
21
-4.26863
0
LINE
8
BLACK
6
CONTINUOUS
10
-5.48995
20
-4.26863
11
-5.46372
21
-4.24303
0
LINE
8
BLACK
6
CONTINUOUS
10
-5.46372
20
-4.24303
11
-5.27241
21
-4.08867
0
LINE
8
BLACK
6
CONTINUOUS
10
-5.27241
20
-4.08867
11
-5.05847
21
-3.96762
0
LINE
8
BLACK
6
CONTINUOUS
10
-5.05847
20
-3.96762
11
-4.82762
21
-3.88315
0
LINE
8
BLACK
6
CONTINUOUS
10
-4.82762
20
-3.88315
11
-4.58608
21
-3.83751
0
LINE
8
BLACK
6
CONTINUOUS
10
-4.58608
20
-3.83751
11
-4.34033
21
-3.83193
0
LINE
8
BLACK
6
CONTINUOUS
10
-4.34033
20
-3.83193
11
-4.27163
21
-3.84171
0
LINE
8
BLACK
6
CONTINUOUS
10
-4.27163
20
-3.84171
11
-0.857463
21
-0.427539
0
LINE
8
BLACK
6
CONTINUOUS
10
-0.857463
20
-0.427539
11
-0.852418
21
-0.422563
0
LINE
8
BLACK
6
CONTINUOUS
10
-0.852418
20
-0.422563
11
-0.85226
21
-0.422374
0
LINE
8
BLACK
6
CONTINUOUS
10
-0.85226
20
-0.422374
11
-0.852069
21
-0.422219
0
LINE
8
BLACK
6
CONTINUOUS
10
-0.852069
20
-0.422219
11
-0.847025
21
-0.417245
0
LINE
8
BLACK
6
CONTINUOUS
10
-0.847025
20
-0.417245
11
-0.769682
21
-0.355503
0
LINE
8
BLACK
6
CONTINUOUS
10
-0.769682
20
-0.355503
11
-0.693004
21
-0.29341
0
LINE
8
BLACK
6
CONTINUOUS
10
-0.693004
20
-0.29341
11
-0.68975
21
-0.291694
0
LINE
8
BLACK
6
CONTINUOUS
10
-0.68975
20
-0.291694
11
-0.686872
21
-0.289397
0
LINE
8
BLACK
6
CONTINUOUS
10
-0.686872
20
-0.289397
11
-0.599088
21
-0.243894
0
LINE
8
BLACK
6
CONTINUOUS
10
-0.599088
20
-0.243894
11
-0.511732
21
-0.197837
0
LINE
8
BLACK
6
CONTINUOUS
10
-0.511732
20
-0.197837
11
-0.508208
21
-0.196786
0
LINE
8
BLACK
6
CONTINUOUS
10
-0.508208
20
-0.196786
11
-0.504937
21
-0.195091
0
LINE
8
BLACK
6
CONTINUOUS
10
-0.504937
20
-0.195091
11
-0.410005
21
-0.167511
0
LINE
8
BLACK
6
CONTINUOUS
10
-0.410005
20
-0.167511
11
-0.315348
21
-0.139292
0
LINE
8
BLACK
6
CONTINUOUS
10
-0.315348
20
-0.139292
11
-0.311684
21
-0.138946
0
LINE
8
BLACK
6
CONTINUOUS
10
-0.311684
20
-0.138946
11
-0.30815
21
-0.137919
0
LINE
8
BLACK
6
CONTINUOUS
10
-0.30815
20
-0.137919
11
-0.209724
21
-0.129308
0
LINE
8
BLACK
6
CONTINUOUS
10
-0.209724
20
-0.129308
11
-0.111336
21
-0.120007
0
LINE
8
BLACK
6
CONTINUOUS
10
-0.111336
20
-0.120007
11
-0.107674
21
-0.120379
0
LINE
8
BLACK
6
CONTINUOUS
10
-0.107674
20
-0.120379
11
-0.104006
21
-0.120058
0
LINE
8
BLACK
6
CONTINUOUS
10
-0.104006
20
-0.120058
11
-0.005757
21
-0.130731
0
LINE
8
BLACK
6
CONTINUOUS
10
-0.005757
20
-0.130731
11
0.09254
21
-0.140716
0
LINE
8
BLACK
6
CONTINUOUS
10
0.09254
20
-0.140716
11
0.096061
21
-0.141792
0
LINE
8
BLACK
6
CONTINUOUS
10
0.096061
20
-0.141792
11
0.099721
21
-0.14219
0
LINE
8
BLACK
6
CONTINUOUS
10
0.099721
20
-0.14219
11
0.194005
21
-0.171737
0
LINE
8
BLACK
6
CONTINUOUS
10
0.194005
20
-0.171737
11
0.288509
21
-0.20063
0
LINE
8
BLACK
6
CONTINUOUS
10
0.288509
20
-0.20063
11
0.291755
21
-0.20237
0
LINE
8
BLACK
6
CONTINUOUS
10
0.291755
20
-0.20237
11
0.295267
21
-0.203471
0
LINE
8
BLACK
6
CONTINUOUS
10
0.295267
20
-0.203471
11
0.382015
21
-0.250767
0
LINE
8
BLACK
6
CONTINUOUS
10
0.382015
20
-0.250767
11
0.46911
21
-0.297467
0
LINE
8
BLACK
6
CONTINUOUS
10
0.46911
20
-0.297467
11
0.471955
21
-0.299804
0
LINE
8
BLACK
6
CONTINUOUS
10
0.471955
20
-0.299804
11
0.475187
21
-0.301566
0
LINE
8
BLACK
6
CONTINUOUS
10
0.475187
20
-0.301566
11
0.551035
21
-0.36476
0
LINE
8
BLACK
6
CONTINUOUS
10
0.551035
20
-0.36476
11
0.627462
21
-0.427538
0
LINE
8
BLACK
6
CONTINUOUS
10
0.627462
20
-0.427538
11
4.07538
21
-3.87546
0
LINE
8
BLACK
6
CONTINUOUS
10
4.07538
20
-3.87546
11
4.1328
21
-3.85888
0
LINE
8
BLACK
6
CONTINUOUS
10
-11.7497
20
1.5803
11
-11.5056
21
1.52169
0
LINE
8
BLACK
6
CONTINUOUS
10
-11.5056
20
1.52169
11
-11.2736
21
1.42561
0
LINE
8
BLACK
6
CONTINUOUS
10
-11.2736
20
1.42561
11
-11.0595
21
1.29443
0
LINE
8
BLACK
6
CONTINUOUS
10
-11.0595
20
1.29443
11
-10.8686
21
1.13137
0
LINE
8
BLACK
6
CONTINUOUS
10
-10.8686
20
1.13137
11
-10.7056
21
0.940456
0
LINE
8
BLACK
6
CONTINUOUS
10
-10.7056
20
0.940456
11
-10.5744
21
0.726385
0
LINE
8
BLACK
6
CONTINUOUS
10
-10.5744
20
0.726385
11
-10.4783
21
0.494427
0
LINE
8
BLACK
6
CONTINUOUS
10
-10.4783
20
0.494427
11
-10.4197
21
0.250295
0
LINE
8
BLACK
6
CONTINUOUS
10
-10.4197
20
0.250295
11
-10.4
21
0
0
LINE
8
BLACK
6
CONTINUOUS
10
-10.4
20
0
11
-10.4197
21
-0.250295
0
LINE
8
BLACK
6
CONTINUOUS
10
-10.4197
20
-0.250295
11
-10.4783
21
-0.494427
0
LINE
8
BLACK
6
CONTINUOUS
10
-10.4783
20
-0.494427
11
-10.5744
21
-0.726385
0
LINE
8
BLACK
6
CONTINUOUS
10
-10.5744
20
-0.726385
11
-10.7056
21
-0.940456
0
LINE
8
BLACK
6
CONTINUOUS
10
-10.7056
20
-0.940456
11
-10.8686
21
-1.13137
0
LINE
8
BLACK
6
CONTINUOUS
10
-10.8686
20
-1.13137
11
-11.0595
21
-1.29443
0
LINE
8
BLACK
6
CONTINUOUS
10
-11.0595
20
-1.29443
11
-11.2736
21
-1.42561
0
LINE
8
BLACK
6
CONTINUOUS
10
-11.2736
20
-1.42561
11
-11.5056
21
-1.52169
0
LINE
8
BLACK
6
CONTINUOUS
10
-11.5056
20
-1.52169
11
-11.7497
21
-1.5803
0
LINE
8
BLACK
6
CONTINUOUS
10
-11.7497
20
-1.5803
11
-12
21
-1.6
0
LINE
8
BLACK
6
CONTINUOUS
10
-12
20
-1.6
11
-12.2503
21
-1.5803
0
LINE
8
BLACK
6
CONTINUOUS
10
-12.2503
20
-1.5803
11
-12.4944
21
-1.52169
0
LINE
8
BLACK
6
CONTINUOUS
10
-12.4944
20
-1.52169
11
-12.7264
21
-1.42561
0
LINE
8
BLACK
6
CONTINUOUS
10
-12.7264
20
-1.42561
11
-12.9405
21
-1.29443
0
LINE
8
BLACK
6
CONTINUOUS
10
-12.9405
20
-1.29443
11
-13.1314
21
-1.13137
0
LINE
8
BLACK
6
CONTINUOUS
10
-13.1314
20
-1.13137
11
-13.2944
21
-0.940456
0
LINE
8
BLACK
6
CONTINUOUS
10
-13.2944
20
-0.940456
11
-13.4256
21
-0.726385
0
LINE
8
BLACK
6
CONTINUOUS
10
-13.4256
20
-0.726385
11
-13.5217
21
-0.494427
0
LINE
8
BLACK
6
CONTINUOUS
10
-13.5217
20
-0.494427
11
-13.5803
21
-0.250295
0
LINE
8
BLACK
6
CONTINUOUS
10
-13.5803
20
-0.250295
11
-13.6
21
0
0
LINE
8
BLACK
6
CONTINUOUS
10
-13.6
20
0
11
-13.5803
21
0.250295
0
LINE
8
BLACK
6
CONTINUOUS
10
-13.5803
20
0.250295
11
-13.5217
21
0.494427
0
LINE
8
BLACK
6
CONTINUOUS
10
-13.5217
20
0.494427
11
-13.4256
21
0.726385
0
LINE
8
BLACK
6
CONTINUOUS
10
-13.4256
20
0.726385
11
-13.2944
21
0.940456
0
LINE
8
BLACK
6
CONTINUOUS
10
-13.2944
20
0.940456
11
-13.1314
21
1.13137
0
LINE
8
BLACK
6
CONTINUOUS
10
-13.1314
20
1.13137
11
-12.9405
21
1.29443
0
LINE
8
BLACK
6
CONTINUOUS
10
-12.9405
20
1.29443
11
-12.7264
21
1.42561
0
LINE
8
BLACK
6
CONTINUOUS
10
-12.7264
20
1.42561
11
-12.4944
21
1.52169
0
LINE
8
BLACK
6
CONTINUOUS
10
-12.4944
20
1.52169
11
-12.2503
21
1.5803
0
LINE
8
BLACK
6
CONTINUOUS
10
-12.2503
20
1.5803
11
-12
21
1.6
0
LINE
8
BLACK
6
CONTINUOUS
10
-12
20
1.6
11
-11.7497
21
1.5803
0
LINE
8
BLACK
6
CONTINUOUS
10
-9.18584
20
11.9665
11
-8.94549
21
11.915
0
LINE
8
BLACK
6
CONTINUOUS
10
-8.94549
20
11.915
11
-8.71678
21
11.8249
0
LINE
8
BLACK
6
CONTINUOUS
10
-8.71678
20
11.8249
11
-8.50585
21
11.6987
0
LINE
8
BLACK
6
CONTINUOUS
10
-8.50585
20
11.6987
11
-8.31838
21
11.5397
0
LINE
8
BLACK
6
CONTINUOUS
10
-8.31838
20
11.5397
11
-3.36863
21
6.58995
0
LINE
8
BLACK
6
CONTINUOUS
10
-3.36863
20
6.58995
11
-3.34303
21
6.56372
0
LINE
8
BLACK
6
CONTINUOUS
10
-3.34303
20
6.56372
11
-3.18867
21
6.37241
0
LINE
8
BLACK
6
CONTINUOUS
10
-3.18867
20
6.37241
11
-3.06762
21
6.15847
0
LINE
8
BLACK
6
CONTINUOUS
10
-3.06762
20
6.15847
11
-2.98315
21
5.92762
0
LINE
8
BLACK
6
CONTINUOUS
10
-2.98315
20
5.92762
11
-2.93751
21
5.68608
0
LINE
8
BLACK
6
CONTINUOUS
10
-2.93751
20
5.68608
11
-2.93371
21
5.51863
0
LINE
8
BLACK
6
CONTINUOUS
10
-2.93371
20
5.51863
11
-0.1925
21
2.77742
0
LINE
8
BLACK
6
CONTINUOUS
10
-0.1925
20
2.77742
11
2.99357
21
5.96349
0
LINE
8
BLACK
6
CONTINUOUS
10
2.99357
20
5.96349
11
3.0834
21
6.19155
0
LINE
8
BLACK
6
CONTINUOUS
10
3.0834
20
6.19155
11
3.20964
21
6.40247
0
LINE
8
BLACK
6
CONTINUOUS
10
3.20964
20
6.40247
11
3.36863
21
6.58995
0
LINE
8
BLACK
6
CONTINUOUS
10
3.36863
20
6.58995
11
8.31838
21
11.5397
0
LINE
8
BLACK
6
CONTINUOUS
10
8.31838
20
11.5397
11
8.34461
21
11.5653
0
LINE
8
BLACK
6
CONTINUOUS
10
8.34461
20
11.5653
11
8.53591
21
11.7197
0
LINE
8
BLACK
6
CONTINUOUS
10
8.53591
20
11.7197
11
8.74986
21
11.8407
0
LINE
8
BLACK
6
CONTINUOUS
10
8.74986
20
11.8407
11
8.9807
21
11.9252
0
LINE
8
BLACK
6
CONTINUOUS
10
8.9807
20
11.9252
11
9.22224
21
11.9708
0
LINE
8
BLACK
6
CONTINUOUS
10
9.22224
20
11.9708
11
9.468
21
11.9764
0
LINE
8
BLACK
6
CONTINUOUS
10
9.468
20
11.9764
11
9.71136
21
11.9418
0
LINE
8
BLACK
6
CONTINUOUS
10
9.71136
20
11.9418
11
9.9458
21
11.8678
0
LINE
8
BLACK
6
CONTINUOUS
10
9.9458
20
11.8678
11
10.165
21
11.7566
0
LINE
8
BLACK
6
CONTINUOUS
10
10.165
20
11.7566
11
10.3631
21
11.6111
0
LINE
8
BLACK
6
CONTINUOUS
10
10.3631
20
11.6111
11
10.5348
21
11.4352
0
LINE
8
BLACK
6
CONTINUOUS
10
10.5348
20
11.4352
11
10.6754
21
11.2336
0
LINE
8
BLACK
6
CONTINUOUS
10
10.6754
20
11.2336
11
10.7813
21
11.0117
0
LINE
8
BLACK
6
CONTINUOUS
10
10.7813
20
11.0117
11
10.8494
21
10.7755
0
LINE
8
BLACK
6
CONTINUOUS
10
10.8494
20
10.7755
11
10.8781
21
10.5314
0
LINE
8
BLACK
6
CONTINUOUS
10
10.8781
20
10.5314
11
10.8665
21
10.2858
0
LINE
8
BLACK
6
CONTINUOUS
10
10.8665
20
10.2858
11
10.815
21
10.0455
0
LINE
8
BLACK
6
CONTINUOUS
10
10.815
20
10.0455
11
10.7249
21
9.81678
0
LINE
8
BLACK
6
CONTINUOUS
10
10.7249
20
9.81678
11
10.5987
21
9.60585
0
LINE
8
BLACK
6
CONTINUOUS
10
10.5987
20
9.60585
11
10.4397
21
9.41838
0
LINE
8
BLACK
6
CONTINUOUS
10
10.4397
20
9.41838
11
5.48995
21
4.46863
0
LINE
8
BLACK
6
CONTINUOUS
10
5.48995
20
4.46863
11
5.46372
21
4.44303
0
LINE
8
BLACK
6
CONTINUOUS
10
5.46372
20
4.44303
11
5.27241
21
4.28867
0
LINE
8
BLACK
6
CONTINUOUS
10
5.27241
20
4.28867
11
5.05847
21
4.16762
0
LINE
8
BLACK
6
CONTINUOUS
10
5.05847
20
4.16762
11
4.82762
21
4.08315
0
LINE
8
BLACK
6
CONTINUOUS
10
4.82762
20
4.08315
11
4.58608
21
4.03751
0
LINE
8
BLACK
6
CONTINUOUS
10
4.58608
20
4.03751
11
4.34033
21
4.03193
0
LINE
8
BLACK
6
CONTINUOUS
10
4.34033
20
4.03193
11
4.09697
21
4.06657
0
LINE
8
BLACK
6
CONTINUOUS
10
4.09697
20
4.06657
11
4.0738
21
4.07387
0
LINE
8
BLACK
6
CONTINUOUS
10
4.0738
20
4.07387
11
0.627462
21
0.627538
0
LINE
8
BLACK
6
CONTINUOUS
10
0.627462
20
0.627538
11
0.624988
21
0.625098
0
LINE
8
BLACK
6
CONTINUOUS
10
0.624988
20
0.625098
11
0.624866
21
0.624951
0
LINE
8
BLACK
6
CONTINUOUS
10
0.624866
20
0.624951
11
0.624707
21
0.624822
0
LINE
8
BLACK
6
CONTINUOUS
10
0.624707
20
0.624822
11
0.617023
21
0.617244
0
LINE
8
BLACK
6
CONTINUOUS
10
0.617023
20
0.617244
11
0.541248
21
0.556754
0
LINE
8
BLACK
6
CONTINUOUS
10
0.541248
20
0.556754
11
0.466061
21
0.495433
0
LINE
8
BLACK
6
CONTINUOUS
10
0.466061
20
0.495433
11
0.461183
21
0.49284
0
LINE
8
BLACK
6
CONTINUOUS
10
0.461183
20
0.49284
11
0.456871
21
0.489397
0
LINE
8
BLACK
6
CONTINUOUS
10
0.456871
20
0.489397
11
0.370789
21
0.444776
0
LINE
8
BLACK
6
CONTINUOUS
10
0.370789
20
0.444776
11
0.285124
21
0.399227
0
LINE
8
BLACK
6
CONTINUOUS
10
0.285124
20
0.399227
11
0.279838
21
0.397631
0
LINE
8
BLACK
6
CONTINUOUS
10
0.279838
20
0.397631
11
0.274936
21
0.39509
0
LINE
8
BLACK
6
CONTINUOUS
10
0.274936
20
0.39509
11
0.181841
21
0.368044
0
LINE
8
BLACK
6
CONTINUOUS
10
0.181841
20
0.368044
11
0.088946
21
0.339997
0
LINE
8
BLACK
6
CONTINUOUS
10
0.088946
20
0.339997
11
0.083445
21
0.339458
0
LINE
8
BLACK
6
CONTINUOUS
10
0.083445
20
0.339458
11
0.078149
21
0.337919
0
LINE
8
BLACK
6
CONTINUOUS
10
0.078149
20
0.337919
11
-0.0184
21
0.329472
0
LINE
8
BLACK
6
CONTINUOUS
10
-0.0184
20
0.329472
11
-0.115
21
0.32
0
LINE
8
BLACK
6
CONTINUOUS
10
-0.115
20
0.32
11
-0.27
21
0.32
0
LINE
8
BLACK
6
CONTINUOUS
10
-0.27
20
0.32
11
-0.273484
21
0.320024
0
LINE
8
BLACK
6
CONTINUOUS
10
-0.273484
20
0.320024
11
-0.273666
21
0.320007
0
LINE
8
BLACK
6
CONTINUOUS
10
-0.273666
20
0.320007
11
-0.273862
21
0.320027
0
LINE
8
BLACK
6
CONTINUOUS
10
-0.273862
20
0.320027
11
-0.28466
21
0.320102
0
LINE
8
BLACK
6
CONTINUOUS
10
-0.28466
20
0.320102
11
-0.381117
21
0.330922
0
LINE
8
BLACK
6
CONTINUOUS
10
-0.381117
20
0.330922
11
-0.477541
21
0.340716
0
LINE
8
BLACK
6
CONTINUOUS
10
-0.477541
20
0.340716
11
-0.482818
21
0.342329
0
LINE
8
BLACK
6
CONTINUOUS
10
-0.482818
20
0.342329
11
-0.488307
21
0.342945
0
LINE
8
BLACK
6
CONTINUOUS
10
-0.488307
20
0.342945
11
-0.580791
21
0.372283
0
LINE
8
BLACK
6
CONTINUOUS
10
-0.580791
20
0.372283
11
-0.673511
21
0.40063
0
LINE
8
BLACK
6
CONTINUOUS
10
-0.673511
20
0.40063
11
-0.678375
21
0.403238
0
LINE
8
BLACK
6
CONTINUOUS
10
-0.678375
20
0.403238
11
-0.683639
21
0.404908
0
LINE
8
BLACK
6
CONTINUOUS
10
-0.683639
20
0.404908
11
-0.768638
21
0.451637
0
LINE
8
BLACK
6
CONTINUOUS
10
-0.768638
20
0.451637
11
-0.854111
21
0.497467
0
LINE
8
BLACK
6
CONTINUOUS
10
-0.854111
20
0.497467
11
-0.858378
21
0.500972
0
LINE
8
BLACK
6
CONTINUOUS
10
-0.858378
20
0.500972
11
-0.863215
21
0.503631
0
LINE
8
BLACK
6
CONTINUOUS
10
-0.863215
20
0.503631
11
-0.937524
21
0.565983
0
LINE
8
BLACK
6
CONTINUOUS
10
-0.937524
20
0.565983
11
-1.01246
21
0.627539
0
LINE
8
BLACK
6
CONTINUOUS
10
-1.01246
20
0.627539
11
-4.41702
21
4.03209
0
LINE
8
BLACK
6
CONTINUOUS
10
-4.41702
20
4.03209
11
-4.62248
21
4.04178
0
LINE
8
BLACK
6
CONTINUOUS
10
-4.62248
20
4.04178
11
-4.86284
21
4.09331
0
LINE
8
BLACK
6
CONTINUOUS
10
-4.86284
20
4.09331
11
-5.09155
21
4.1834
0
LINE
8
BLACK
6
CONTINUOUS
10
-5.09155
20
4.1834
11
-5.30247
21
4.30964
0
LINE
8
BLACK
6
CONTINUOUS
10
-5.30247
20
4.30964
11
-5.48995
21
4.46863
0
LINE
8
BLACK
6
CONTINUOUS
10
-5.48995
20
4.46863
11
-10.4397
21
9.41838
0
LINE
8
BLACK
6
CONTINUOUS
10
-10.4397
20
9.41838
11
-10.4653
21
9.44461
0
LINE
8
BLACK
6
CONTINUOUS
10
-10.4653
20
9.44461
11
-10.6197
21
9.63591
0
LINE
8
BLACK
6
CONTINUOUS
10
-10.6197
20
9.63591
11
-10.7407
21
9.84986
0
LINE
8
BLACK
6
CONTINUOUS
10
-10.7407
20
9.84986
11
-10.8252
21
10.0807
0
LINE
8
BLACK
6
CONTINUOUS
10
-10.8252
20
10.0807
11
-10.8708
21
10.3222
0
LINE
8
BLACK
6
CONTINUOUS
10
-10.8708
20
10.3222
11
-10.8764
21
10.568
0
LINE
8
BLACK
6
CONTINUOUS
10
-10.8764
20
10.568
11
-10.8418
21
10.8114
0
LINE
8
BLACK
6
CONTINUOUS
10
-10.8418
20
10.8114
11
-10.7678
21
11.0458
0
LINE
8
BLACK
6
CONTINUOUS
10
-10.7678
20
11.0458
11
-10.6566
21
11.265
0
LINE
8
BLACK
6
CONTINUOUS
10
-10.6566
20
11.265
11
-10.5111
21
11.4631
0
LINE
8
BLACK
6
CONTINUOUS
10
-10.5111
20
11.4631
11
-10.3352
21
11.6348
0
LINE
8
BLACK
6
CONTINUOUS
10
-10.3352
20
11.6348
11
-10.1336
21
11.7754
0
LINE
8
BLACK
6
CONTINUOUS
10
-10.1336
20
11.7754
11
-9.9117
21
11.8813
0
LINE
8
BLACK
6
CONTINUOUS
10
-9.9117
20
11.8813
11
-9.67552
21
11.9494
0
LINE
8
BLACK
6
CONTINUOUS
10
-9.67552
20
11.9494
11
-9.43139
21
11.9781
0
LINE
8
BLACK
6
CONTINUOUS
10
-9.43139
20
11.9781
11
-9.18584
21
11.9665
0
LINE
8
BLACK
6
CONTINUOUS
10
0.250295
20
13.5803
11
0.494427
21
13.5217
0
LINE
8
BLACK
6
CONTINUOUS
10
0.494427
20
13.5217
11
0.726385
21
13.4256
0
LINE
8
BLACK
6
CONTINUOUS
10
0.726385
20
13.4256
11
0.940456
21
13.2944
0
LINE
8
BLACK
6
CONTINUOUS
10
0.940456
20
13.2944
11
1.13137
21
13.1314
0
LINE
8
BLACK
6
CONTINUOUS
10
1.13137
20
13.1314
11
1.29443
21
12.9405
0
LINE
8
BLACK
6
CONTINUOUS
10
1.29443
20
12.9405
11
1.42561
21
12.7264
0
LINE
8
BLACK
6
CONTINUOUS
10
1.42561
20
12.7264
11
1.52169
21
12.4944
0
LINE
8
BLACK
6
CONTINUOUS
10
1.52169
20
12.4944
11
1.5803
21
12.2503
0
LINE
8
BLACK
6
CONTINUOUS
10
1.5803
20
12.2503
11
1.6
21
12
0
LINE
8
BLACK
6
CONTINUOUS
10
1.6
20
12
11
1.5803
21
11.7497
0
LINE
8
BLACK
6
CONTINUOUS
10
1.5803
20
11.7497
11
1.52169
21
11.5056
0
LINE
8
BLACK
6
CONTINUOUS
10
1.52169
20
11.5056
11
1.42561
21
11.2736
0
LINE
8
BLACK
6
CONTINUOUS
10
1.42561
20
11.2736
11
1.29443
21
11.0595
0
LINE
8
BLACK
6
CONTINUOUS
10
1.29443
20
11.0595
11
1.13137
21
10.8686
0
LINE
8
BLACK
6
CONTINUOUS
10
1.13137
20
10.8686
11
0.940456
21
10.7056
0
LINE
8
BLACK
6
CONTINUOUS
10
0.940456
20
10.7056
11
0.726385
21
10.5744
0
LINE
8
BLACK
6
CONTINUOUS
10
0.726385
20
10.5744
11
0.494427
21
10.4783
0
LINE
8
BLACK
6
CONTINUOUS
10
0.494427
20
10.4783
11
0.250295
21
10.4197
0
LINE
8
BLACK
6
CONTINUOUS
10
0.250295
20
10.4197
11
0
21
10.4
0
LINE
8
BLACK
6
CONTINUOUS
10
0
20
10.4
11
-0.250295
21
10.4197
0
LINE
8
BLACK
6
CONTINUOUS
10
-0.250295
20
10.4197
11
-0.494427
21
10.4783
0
LINE
8
BLACK
6
CONTINUOUS
10
-0.494427
20
10.4783
11
-0.726385
21
10.5744
0
LINE
8
BLACK
6
CONTINUOUS
10
-0.726385
20
10.5744
11
-0.940456
21
10.7056
0
LINE
8
BLACK
6
CONTINUOUS
10
-0.940456
20
10.7056
11
-1.13137
21
10.8686
0
LINE
8
BLACK
6
CONTINUOUS
10
-1.13137
20
10.8686
11
-1.29443
21
11.0595
0
LINE
8
BLACK
6
CONTINUOUS
10
-1.29443
20
11.0595
11
-1.42561
21
11.2736
0
LINE
8
BLACK
6
CONTINUOUS
10
-1.42561
20
11.2736
11
-1.52169
21
11.5056
0
LINE
8
BLACK
6
CONTINUOUS
10
-1.52169
20
11.5056
11
-1.5803
21
11.7497
0
LINE
8
BLACK
6
CONTINUOUS
10
-1.5803
20
11.7497
11
-1.6
21
12
0
LINE
8
BLACK
6
CONTINUOUS
10
-1.6
20
12
11
-1.5803
21
12.2503
0
LINE
8
BLACK
6
CONTINUOUS
10
-1.5803
20
12.2503
11
-1.52169
21
12.4944
0
LINE
8
BLACK
6
CONTINUOUS
10
-1.52169
20
12.4944
11
-1.42561
21
12.7264
0
LINE
8
BLACK
6
CONTINUOUS
10
-1.42561
20
12.7264
11
-1.29443
21
12.9405
0
LINE
8
BLACK
6
CONTINUOUS
10
-1.29443
20
12.9405
11
-1.13137
21
13.1314
0
LINE
8
BLACK
6
CONTINUOUS
10
-1.13137
20
13.1314
11
-0.940456
21
13.2944
0
LINE
8
BLACK
6
CONTINUOUS
10
-0.940456
20
13.2944
11
-0.726385
21
13.4256
0
LINE
8
BLACK
6
CONTINUOUS
10
-0.726385
20
13.4256
11
-0.494427
21
13.5217
0
LINE
8
BLACK
6
CONTINUOUS
10
-0.494427
20
13.5217
11
-0.250295
21
13.5803
0
LINE
8
BLACK
6
CONTINUOUS
10
-0.250295
20
13.5803
11
0
21
13.6
0
LINE
8
BLACK
6
CONTINUOUS
10
0
20
13.6
11
0.250295
21
13.5803
0
LINE
8
BLACK
6
CONTINUOUS
10
5.2134
20
-2.41219
11
5.2134
21
-2.41218
0
LINE
8
BLACK
6
CONTINUOUS
10
5.2134
20
-2.41218
11
5.2
21
-2.4
0
LINE
8
BLACK
6
CONTINUOUS
10
5.2
20
-2.4
11
3.00637
21
-2.4
0
LINE
8
BLACK
6
CONTINUOUS
10
3.00637
20
-2.4
11
2.93825
21
-2.38
0
LINE
8
BLACK
6
CONTINUOUS
10
2.93825
20
-2.38
11
2.91728
21
-2.36309
0
LINE
8
BLACK
6
CONTINUOUS
10
2.91728
20
-2.36309
11
2.81751
21
-2.26333
0
LINE
8
BLACK
6
CONTINUOUS
10
2.81751
20
-2.26333
11
2.8175
21
-2.26332
0
LINE
8
BLACK
6
CONTINUOUS
10
2.8175
20
-2.26332
11
2.57428
21
-2.02009
0
LINE
8
BLACK
6
CONTINUOUS
10
2.57428
20
-2.02009
11
2.54025
21
-1.95778
0
LINE
8
BLACK
6
CONTINUOUS
10
2.54025
20
-1.95778
11
2.54532
21
-1.88697
0
LINE
8
BLACK
6
CONTINUOUS
10
2.54532
20
-1.88697
11
2.58786
21
-1.83013
0
LINE
8
BLACK
6
CONTINUOUS
10
2.58786
20
-1.83013
11
2.65438
21
-1.80532
0
LINE
8
BLACK
6
CONTINUOUS
10
2.65438
20
-1.80532
11
2.66337
21
-1.805
0
LINE
8
BLACK
6
CONTINUOUS
10
2.66337
20
-1.805
11
3.04689
21
-1.805
0
LINE
8
BLACK
6
CONTINUOUS
10
3.04689
20
-1.805
11
3.06212
21
-1.80052
0
LINE
8
BLACK
6
CONTINUOUS
10
3.06212
20
-1.80052
11
3.06333
21
-1.79913
0
LINE
8
BLACK
6
CONTINUOUS
10
3.06333
20
-1.79913
11
3.065
21
-1.79145
0
LINE
8
BLACK
6
CONTINUOUS
10
3.065
20
-1.79145
11
3.065
21
-1.55
0
LINE
8
BLACK
6
CONTINUOUS
10
3.065
20
-1.55
11
2.615
21
-1.55
0
LINE
8
BLACK
6
CONTINUOUS
10
2.615
20
-1.55
11
2.615
21
-1.42
0
LINE
8
BLACK
6
CONTINUOUS
10
2.615
20
-1.42
11
2.37811
21
-1.42
0
LINE
8
BLACK
6
CONTINUOUS
10
2.37811
20
-1.42
11
2.36288
21
-1.42447
0
LINE
8
BLACK
6
CONTINUOUS
10
2.36288
20
-1.42447
11
2.36167
21
-1.42586
0
LINE
8
BLACK
6
CONTINUOUS
10
2.36167
20
-1.42586
11
2.36
21
-1.43355
0
LINE
8
BLACK
6
CONTINUOUS
10
2.36
20
-1.43355
11
2.36
21
-1.50163
0
LINE
8
BLACK
6
CONTINUOUS
10
2.36
20
-1.50163
11
2.34
21
-1.56975
0
LINE
8
BLACK
6
CONTINUOUS
10
2.34
20
-1.56975
11
2.28634
21
-1.61624
0
LINE
8
BLACK
6
CONTINUOUS
10
2.28634
20
-1.61624
11
2.21607
21
-1.62634
0
LINE
8
BLACK
6
CONTINUOUS
10
2.21607
20
-1.62634
11
2.15149
21
-1.59685
0
LINE
8
BLACK
6
CONTINUOUS
10
2.15149
20
-1.59685
11
2.14491
21
-1.59073
0
LINE
8
BLACK
6
CONTINUOUS
10
2.14491
20
-1.59073
11
1.86068
21
-1.3065
0
LINE
8
BLACK
6
CONTINUOUS
10
1.86068
20
-1.3065
11
1.6369
21
-1.08272
0
LINE
8
BLACK
6
CONTINUOUS
10
1.6369
20
-1.08272
11
1.60288
21
-1.02041
0
LINE
8
BLACK
6
CONTINUOUS
10
1.60288
20
-1.02041
11
1.6
21
-0.993627
0
LINE
8
BLACK
6
CONTINUOUS
10
1.6
20
-0.993627
11
1.6
21
1.19363
0
LINE
8
BLACK
6
CONTINUOUS
10
1.6
20
1.19363
11
1.62
21
1.26175
0
LINE
8
BLACK
6
CONTINUOUS
10
1.62
20
1.26175
11
1.6369
21
1.28272
0
LINE
8
BLACK
6
CONTINUOUS
10
1.6369
20
1.28272
11
2.1444
21
1.79022
0
LINE
8
BLACK
6
CONTINUOUS
10
2.1444
20
1.79022
11
2.20672
21
1.82425
0
LINE
8
BLACK
6
CONTINUOUS
10
2.20672
20
1.82425
11
2.27753
21
1.81918
0
LINE
8
BLACK
6
CONTINUOUS
10
2.27753
20
1.81918
11
2.33437
21
1.77664
0
LINE
8
BLACK
6
CONTINUOUS
10
2.33437
20
1.77664
11
2.35918
21
1.71012
0
LINE
8
BLACK
6
CONTINUOUS
10
2.35918
20
1.71012
11
2.3595
21
1.70113
0
LINE
8
BLACK
6
CONTINUOUS
10
2.3595
20
1.70113
11
2.3595
21
0.99
0
LINE
8
BLACK
6
CONTINUOUS
10
2.3595
20
0.99
11
2.37895
21
0.892224
0
LINE
8
BLACK
6
CONTINUOUS
10
2.37895
20
0.892224
11
2.38584
21
0.881909
0
LINE
8
BLACK
6
CONTINUOUS
10
2.38584
20
0.881909
11
2.38584
21
0.881907
0
LINE
8
BLACK
6
CONTINUOUS
10
2.38584
20
0.881907
11
2.43433
21
0.809334
0
LINE
8
BLACK
6
CONTINUOUS
10
2.43433
20
0.809334
11
2.43193
21
0.807729
0
LINE
8
BLACK
6
CONTINUOUS
10
2.43193
20
0.807729
11
2.45702
21
0.761783
0
LINE
8
BLACK
6
CONTINUOUS
10
2.45702
20
0.761783
11
2.45196
21
0.690968
0
LINE
8
BLACK
6
CONTINUOUS
10
2.45196
20
0.690968
11
2.43304
21
0.661531
0
LINE
8
BLACK
6
CONTINUOUS
10
2.43304
20
0.661531
11
2.43433
21
0.660666
0
LINE
8
BLACK
6
CONTINUOUS
10
2.43433
20
0.660666
11
2.38584
21
0.588093
0
LINE
8
BLACK
6
CONTINUOUS
10
2.38584
20
0.588093
11
2.38584
21
0.588091
0
LINE
8
BLACK
6
CONTINUOUS
10
2.38584
20
0.588091
11
2.37895
21
0.577776
0
LINE
8
BLACK
6
CONTINUOUS
10
2.37895
20
0.577776
11
2.3595
21
0.48
0
LINE
8
BLACK
6
CONTINUOUS
10
2.3595
20
0.48
11
2.3595
21
-0.28
0
LINE
8
BLACK
6
CONTINUOUS
10
2.3595
20
-0.28
11
2.37895
21
-0.377776
0
LINE
8
BLACK
6
CONTINUOUS
10
2.37895
20
-0.377776
11
2.38584
21
-0.388091
0
LINE
8
BLACK
6
CONTINUOUS
10
2.38584
20
-0.388091
11
2.38584
21
-0.388093
0
LINE
8
BLACK
6
CONTINUOUS
10
2.38584
20
-0.388093
11
2.43433
21
-0.460666
0
LINE
8
BLACK
6
CONTINUOUS
10
2.43433
20
-0.460666
11
2.43205
21
-0.462192
0
LINE
8
BLACK
6
CONTINUOUS
10
2.43205
20
-0.462192
11
2.45738
21
-0.508571
0
LINE
8
BLACK
6
CONTINUOUS
10
2.45738
20
-0.508571
11
2.45231
21
-0.579386
0
LINE
8
BLACK
6
CONTINUOUS
10
2.45231
20
-0.579386
11
2.43339
21
-0.608823
0
LINE
8
BLACK
6
CONTINUOUS
10
2.43339
20
-0.608823
11
2.43469
21
-0.609688
0
LINE
8
BLACK
6
CONTINUOUS
10
2.43469
20
-0.609688
11
2.3863
21
-0.682099
0
LINE
8
BLACK
6
CONTINUOUS
10
2.3863
20
-0.682099
11
2.37699
21
-0.704585
0
LINE
8
BLACK
6
CONTINUOUS
10
2.37699
20
-0.704585
11
2.36121
21
-0.783933
0
LINE
8
BLACK
6
CONTINUOUS
10
2.36121
20
-0.783933
11
2.36
21
-0.796187
0
LINE
8
BLACK
6
CONTINUOUS
10
2.36
20
-0.796187
11
2.36
21
-0.901885
0
LINE
8
BLACK
6
CONTINUOUS
10
2.36
20
-0.901885
11
2.36448
21
-0.917124
0
LINE
8
BLACK
6
CONTINUOUS
10
2.36448
20
-0.917124
11
2.36586
21
-0.918329
0
LINE
8
BLACK
6
CONTINUOUS
10
2.36586
20
-0.918329
11
2.37355
21
-0.92
0
LINE
8
BLACK
6
CONTINUOUS
10
2.37355
20
-0.92
11
2.615
21
-0.92
0
LINE
8
BLACK
6
CONTINUOUS
10
2.615
20
-0.92
11
2.615
21
-0.79
0
LINE
8
BLACK
6
CONTINUOUS
10
2.615
20
-0.79
11
4.015
21
-0.79
0
LINE
8
BLACK
6
CONTINUOUS
10
4.015
20
-0.79
11
4.015
21
-0.92
0
LINE
8
BLACK
6
CONTINUOUS
10
4.015
20
-0.92
11
4.25188
21
-0.92
0
LINE
8
BLACK
6
CONTINUOUS
10
4.25188
20
-0.92
11
4.26712
21
-0.915525
0
LINE
8
BLACK
6
CONTINUOUS
10
4.26712
20
-0.915525
11
4.26833
21
-0.914135
0
LINE
8
BLACK
6
CONTINUOUS
10
4.26833
20
-0.914135
11
4.27
21
-0.906452
0
LINE
8
BLACK
6
CONTINUOUS
10
4.27
20
-0.906452
11
4.27
21
-0.796187
0
LINE
8
BLACK
6
CONTINUOUS
10
4.27
20
-0.796187
11
4.26879
21
-0.783933
0
LINE
8
BLACK
6
CONTINUOUS
10
4.26879
20
-0.783933
11
4.25301
21
-0.704585
0
LINE
8
BLACK
6
CONTINUOUS
10
4.25301
20
-0.704585
11
4.2437
21
-0.682099
0
LINE
8
BLACK
6
CONTINUOUS
10
4.2437
20
-0.682099
11
4.19531
21
-0.609688
0
LINE
8
BLACK
6
CONTINUOUS
10
4.19531
20
-0.609688
11
4.19771
21
-0.608083
0
LINE
8
BLACK
6
CONTINUOUS
10
4.19771
20
-0.608083
11
4.17262
21
-0.562137
0
LINE
8
BLACK
6
CONTINUOUS
10
4.17262
20
-0.562137
11
4.17769
21
-0.491322
0
LINE
8
BLACK
6
CONTINUOUS
10
4.17769
20
-0.491322
11
4.19687
21
-0.461472
0
LINE
8
BLACK
6
CONTINUOUS
10
4.19687
20
-0.461472
11
4.19567
21
-0.460666
0
LINE
8
BLACK
6
CONTINUOUS
10
4.19567
20
-0.460666
11
4.24416
21
-0.388093
0
LINE
8
BLACK
6
CONTINUOUS
10
4.24416
20
-0.388093
11
4.24416
21
-0.388091
0
LINE
8
BLACK
6
CONTINUOUS
10
4.24416
20
-0.388091
11
4.25105
21
-0.377776
0
LINE
8
BLACK
6
CONTINUOUS
10
4.25105
20
-0.377776
11
4.2705
21
-0.28
0
LINE
8
BLACK
6
CONTINUOUS
10
4.2705
20
-0.28
11
4.2705
21
0.48
0
LINE
8
BLACK
6
CONTINUOUS
10
4.2705
20
0.48
11
4.25888
21
0.538412
0
LINE
8
BLACK
6
CONTINUOUS
10
4.25888
20
0.538412
11
4.26521
21
0.609126
0
LINE
8
BLACK
6
CONTINUOUS
10
4.26521
20
0.609126
11
4.30876
21
0.665194
0
LINE
8
BLACK
6
CONTINUOUS
10
4.30876
20
0.665194
11
4.38246
21
0.688994
0
LINE
8
BLACK
6
CONTINUOUS
10
4.38246
20
0.688994
11
4.46573
21
0.688994
0
LINE
8
BLACK
6
CONTINUOUS
10
4.46573
20
0.688994
11
4.53385
21
0.668992
0
LINE
8
BLACK
6
CONTINUOUS
10
4.53385
20
0.668992
11
4.55483
21
0.652089
0
LINE
8
BLACK
6
CONTINUOUS
10
4.55483
20
0.652089
11
5.5687
21
-0.361784
0
LINE
8
BLACK
6
CONTINUOUS
10
5.5687
20
-0.361784
11
5.57455
21
-0.36805
0
LINE
8
BLACK
6
CONTINUOUS
10
5.57455
20
-0.36805
11
5.60524
21
-0.403228
0
LINE
8
BLACK
6
CONTINUOUS
10
5.60524
20
-0.403228
11
5.61097
21
-0.409797
0
LINE
8
BLACK
6
CONTINUOUS
10
5.61097
20
-0.409797
11
5.6611
21
-0.445027
0
LINE
8
BLACK
6
CONTINUOUS
10
5.6611
20
-0.445027
11
5.66639
21
-0.448958
0
LINE
8
BLACK
6
CONTINUOUS
10
5.66639
20
-0.448958
11
5.71463
21
-0.48678
0
LINE
8
BLACK
6
CONTINUOUS
10
5.71463
20
-0.48678
11
5.72155
21
-0.489905
0
LINE
8
BLACK
6
CONTINUOUS
10
5.72155
20
-0.489905
11
5.72602
21
-0.492614
0
LINE
8
BLACK
6
CONTINUOUS
10
5.72602
20
-0.492614
11
5.73499
21
-0.497732
0
LINE
8
BLACK
6
CONTINUOUS
10
5.73499
20
-0.497732
11
5.73961
21
-0.500208
0
LINE
8
BLACK
6
CONTINUOUS
10
5.73961
20
-0.500208
11
5.74582
21
-0.504574
0
LINE
8
BLACK
6
CONTINUOUS
10
5.74582
20
-0.504574
11
5.75289
21
-0.507331
0
LINE
8
BLACK
6
CONTINUOUS
10
5.75289
20
-0.507331
11
5.7529
21
-0.507332
0
LINE
8
BLACK
6
CONTINUOUS
10
5.7529
20
-0.507332
11
5.8029
21
-0.526829
0
LINE
8
BLACK
6
CONTINUOUS
10
5.8029
20
-0.526829
11
5.80899
21
-0.529385
0
LINE
8
BLACK
6
CONTINUOUS
10
5.80899
20
-0.529385
11
5.86485
21
-0.554609
0
LINE
8
BLACK
6
CONTINUOUS
10
5.86485
20
-0.554609
11
5.87231
21
-0.555992
0
LINE
8
BLACK
6
CONTINUOUS
10
5.87231
20
-0.555992
11
5.87732
21
-0.557562
0
LINE
8
BLACK
6
CONTINUOUS
10
5.87732
20
-0.557562
11
5.8872
21
-0.560374
0
LINE
8
BLACK
6
CONTINUOUS
10
5.8872
20
-0.560374
11
5.89231
21
-0.561687
0
LINE
8
BLACK
6
CONTINUOUS
10
5.89231
20
-0.561687
11
5.89939
21
-0.564448
0
LINE
8
BLACK
6
CONTINUOUS
10
5.89939
20
-0.564448
11
5.96015
21
-0.572447
0
LINE
8
BLACK
6
CONTINUOUS
10
5.96015
20
-0.572447
11
5.96665
21
-0.573477
0
LINE
8
BLACK
6
CONTINUOUS
10
5.96665
20
-0.573477
11
6.02692
21
-0.584646
0
LINE
8
BLACK
6
CONTINUOUS
10
6.02692
20
-0.584646
11
6.0345
21
-0.584209
0
LINE
8
BLACK
6
CONTINUOUS
10
6.0345
20
-0.584209
11
6.0345
21
-0.584209
0
LINE
8
BLACK
6
CONTINUOUS
10
6.0345
20
-0.584209
11
6.08653
21
-0.581209
0
LINE
8
BLACK
6
CONTINUOUS
10
6.08653
20
-0.581209
11
6.09378
21
-0.581
0
LINE
8
BLACK
6
CONTINUOUS
10
6.09378
20
-0.581
11
9.64951
21
-0.581
0
LINE
8
BLACK
6
CONTINUOUS
10
9.64951
20
-0.581
11
9.71763
21
-0.601002
0
LINE
8
BLACK
6
CONTINUOUS
10
9.71763
20
-0.601002
11
9.74702
21
-0.627194
0
LINE
8
BLACK
6
CONTINUOUS
10
9.74702
20
-0.627194
11
9.88157
21
-0.791579
0
LINE
8
BLACK
6
CONTINUOUS
10
9.88157
20
-0.791579
11
9.88157
21
-0.791584
0
LINE
8
BLACK
6
CONTINUOUS
10
9.88157
20
-0.791584
11
9.88512
21
-0.795919
0
LINE
8
BLACK
6
CONTINUOUS
10
9.88512
20
-0.795919
11
10.0582
21
-0.943771
0
LINE
8
BLACK
6
CONTINUOUS
10
10.0582
20
-0.943771
11
10.0631
21
-0.946602
0
LINE
8
BLACK
6
CONTINUOUS
10
10.0631
20
-0.946602
11
10.2499
21
-1.0558
0
LINE
8
BLACK
6
CONTINUOUS
10
10.2499
20
-1.0558
11
10.2499
21
-1.0558
0
LINE
8
BLACK
6
CONTINUOUS
10
10.2499
20
-1.0558
11
10.2548
21
-1.05863
0
LINE
8
BLACK
6
CONTINUOUS
10
10.2548
20
-1.05863
11
10.2601
21
-1.06056
0
LINE
8
BLACK
6
CONTINUOUS
10
10.2601
20
-1.06056
11
10.2601
21
-1.06056
0
LINE
8
BLACK
6
CONTINUOUS
10
10.2601
20
-1.06056
11
10.4633
21
-1.13494
0
LINE
8
BLACK
6
CONTINUOUS
10
10.4633
20
-1.13494
11
10.4633
21
-1.13494
0
LINE
8
BLACK
6
CONTINUOUS
10
10.4633
20
-1.13494
11
10.4686
21
-1.13687
0
LINE
8
BLACK
6
CONTINUOUS
10
10.4686
20
-1.13687
11
10.4741
21
-1.13783
0
LINE
8
BLACK
6
CONTINUOUS
10
10.4741
20
-1.13783
11
10.4741
21
-1.13783
0
LINE
8
BLACK
6
CONTINUOUS
10
10.4741
20
-1.13783
11
10.686
21
-1.17482
0
LINE
8
BLACK
6
CONTINUOUS
10
10.686
20
-1.17482
11
10.6929
21
-1.17601
0
LINE
8
BLACK
6
CONTINUOUS
10
10.6929
20
-1.17601
11
10.6985
21
-1.17598
0
LINE
8
BLACK
6
CONTINUOUS
10
10.6985
20
-1.17598
11
10.6985
21
-1.17598
0
LINE
8
BLACK
6
CONTINUOUS
10
10.6985
20
-1.17598
11
10.803
21
-1.17543
0
LINE
8
BLACK
6
CONTINUOUS
10
10.803
20
-1.17543
11
10.9205
21
-1.17482
0
LINE
8
BLACK
6
CONTINUOUS
10
10.9205
20
-1.17482
11
10.926
21
-1.17379
0
LINE
8
BLACK
6
CONTINUOUS
10
10.926
20
-1.17379
11
10.926
21
-1.17379
0
LINE
8
BLACK
6
CONTINUOUS
10
10.926
20
-1.17379
11
11.1388
21
-1.13435
0
LINE
8
BLACK
6
CONTINUOUS
10
11.1388
20
-1.13435
11
11.1388
21
-1.13435
0
LINE
8
BLACK
6
CONTINUOUS
10
11.1388
20
-1.13435
11
11.1444
21
-1.13333
0
LINE
8
BLACK
6
CONTINUOUS
10
11.1444
20
-1.13333
11
11.1496
21
-1.13135
0
LINE
8
BLACK
6
CONTINUOUS
10
11.1496
20
-1.13135
11
11.1496
21
-1.13135
0
LINE
8
BLACK
6
CONTINUOUS
10
11.1496
20
-1.13135
11
11.3521
21
-1.05484
0
LINE
8
BLACK
6
CONTINUOUS
10
11.3521
20
-1.05484
11
11.3521
21
-1.05484
0
LINE
8
BLACK
6
CONTINUOUS
10
11.3521
20
-1.05484
11
11.3573
21
-1.05286
0
LINE
8
BLACK
6
CONTINUOUS
10
11.3573
20
-1.05286
11
11.5527
21
-0.935946
0
LINE
8
BLACK
6
CONTINUOUS
10
11.5527
20
-0.935946
11
11.7242
21
-0.786289
0
LINE
8
BLACK
6
CONTINUOUS
10
11.7242
20
-0.786289
11
11.7897
21
-0.704585
0
LINE
8
BLACK
6
CONTINUOUS
10
11.7897
20
-0.704585
11
11.863
21
-0.612995
0
LINE
8
BLACK
6
CONTINUOUS
10
11.863
20
-0.612995
11
11.8631
21
-0.61299
0
LINE
8
BLACK
6
CONTINUOUS
10
11.8631
20
-0.61299
11
11.8666
21
-0.608618
0
LINE
8
BLACK
6
CONTINUOUS
10
11.8666
20
-0.608618
11
11.9752
21
-0.408548
0
LINE
8
BLACK
6
CONTINUOUS
10
11.9752
20
-0.408548
11
12.0467
21
-0.192403
0
LINE
8
BLACK
6
CONTINUOUS
10
12.0467
20
-0.192403
11
12.0787
21
0.032984
0
LINE
8
BLACK
6
CONTINUOUS
10
12.0787
20
0.032984
11
12.0805
21
0.1
0
LINE
8
BLACK
6
CONTINUOUS
10
12.0805
20
0.1
11
12.0728
21
0.186816
0
LINE
8
BLACK
6
CONTINUOUS
10
12.0728
20
0.186816
11
12.0608
21
0.32117
0
LINE
8
BLACK
6
CONTINUOUS
10
12.0608
20
0.32117
11
12.0608
21
0.321174
0
LINE
8
BLACK
6
CONTINUOUS
10
12.0608
20
0.321174
11
12.0603
21
0.326757
0
LINE
8
BLACK
6
CONTINUOUS
10
12.0603
20
0.326757
11
12.0002
21
0.546347
0
LINE
8
BLACK
6
CONTINUOUS
10
12.0002
20
0.546347
11
11.9322
21
0.688994
0
LINE
8
BLACK
6
CONTINUOUS
10
11.9322
20
0.688994
11
11.9046
21
0.746771
0
LINE
8
BLACK
6
CONTINUOUS
10
11.9046
20
0.746771
11
11.9022
21
0.751828
0
LINE
8
BLACK
6
CONTINUOUS
10
11.9022
20
0.751828
11
11.8113
21
0.87834
0
LINE
8
BLACK
6
CONTINUOUS
10
11.8113
20
0.87834
11
11.7726
21
0.932145
0
LINE
8
BLACK
6
CONTINUOUS
10
11.7726
20
0.932145
11
11.7726
21
0.932147
0
LINE
8
BLACK
6
CONTINUOUS
10
11.7726
20
0.932147
11
11.7693
21
0.936705
0
LINE
8
BLACK
6
CONTINUOUS
10
11.7693
20
0.936705
11
11.6058
21
1.09513
0
LINE
8
BLACK
6
CONTINUOUS
10
11.6058
20
1.09513
11
11.5665
21
1.12158
0
LINE
8
BLACK
6
CONTINUOUS
10
11.5665
20
1.12158
11
11.4215
21
1.21898
0
LINE
8
BLACK
6
CONTINUOUS
10
11.4215
20
1.21898
11
11.4215
21
1.21898
0
LINE
8
BLACK
6
CONTINUOUS
10
11.4215
20
1.21898
11
11.4169
21
1.22211
0
LINE
8
BLACK
6
CONTINUOUS
10
11.4169
20
1.22211
11
11.2084
21
1.31362
0
LINE
8
BLACK
6
CONTINUOUS
10
11.2084
20
1.31362
11
11.203
21
1.31493
0
LINE
8
BLACK
6
CONTINUOUS
10
11.203
20
1.31493
11
11.203
21
1.31493
0
LINE
8
BLACK
6
CONTINUOUS
10
11.203
20
1.31493
11
10.9925
21
1.36545
0
LINE
8
BLACK
6
CONTINUOUS
10
10.9925
20
1.36545
11
10.9925
21
1.36545
0
LINE
8
BLACK
6
CONTINUOUS
10
10.9925
20
1.36545
11
10.9871
21
1.36676
0
LINE
8
BLACK
6
CONTINUOUS
10
10.9871
20
1.36676
11
10.8991
21
1.37184
0
LINE
8
BLACK
6
CONTINUOUS
10
10.8991
20
1.37184
11
10.7654
21
1.37955
0
LINE
8
BLACK
6
CONTINUOUS
10
10.7654
20
1.37955
11
10.7654
21
1.37955
0
LINE
8
BLACK
6
CONTINUOUS
10
10.7654
20
1.37955
11
10.7598
21
1.37987
0
LINE
8
BLACK
6
CONTINUOUS
10
10.7598
20
1.37987
11
10.5338
21
1.35252
0
LINE
8
BLACK
6
CONTINUOUS
10
10.5338
20
1.35252
11
10.3162
21
1.28558
0
LINE
8
BLACK
6
CONTINUOUS
10
10.3162
20
1.28558
11
10.3112
21
1.28301
0
LINE
8
BLACK
6
CONTINUOUS
10
10.3112
20
1.28301
11
10.3112
21
1.283
0
LINE
8
BLACK
6
CONTINUOUS
10
10.3112
20
1.283
11
10.1189
21
1.18373
0
LINE
8
BLACK
6
CONTINUOUS
10
10.1189
20
1.18373
11
10.1139
21
1.18116
0
LINE
8
BLACK
6
CONTINUOUS
10
10.1139
20
1.18116
11
9.93326
21
1.04257
0
LINE
8
BLACK
6
CONTINUOUS
10
9.93326
20
1.04257
11
9.92949
21
1.03843
0
LINE
8
BLACK
6
CONTINUOUS
10
9.92949
20
1.03843
11
9.92948
21
1.03842
0
LINE
8
BLACK
6
CONTINUOUS
10
9.92948
20
1.03842
11
9.85665
21
0.958381
0
LINE
8
BLACK
6
CONTINUOUS
10
9.85665
20
0.958381
11
9.78004
21
0.874189
0
LINE
8
BLACK
6
CONTINUOUS
10
9.78004
20
0.874189
11
9.77706
21
0.869438
0
LINE
8
BLACK
6
CONTINUOUS
10
9.77706
20
0.869438
11
9.77706
21
0.869437
0
LINE
8
BLACK
6
CONTINUOUS
10
9.77706
20
0.869437
11
9.75862
21
0.840044
0
LINE
8
BLACK
6
CONTINUOUS
10
9.75862
20
0.840044
11
9.70548
21
0.792966
0
LINE
8
BLACK
6
CONTINUOUS
10
9.70548
20
0.792966
11
9.65189
21
0.781
0
LINE
8
BLACK
6
CONTINUOUS
10
9.65189
20
0.781
11
6.40426
21
0.781
0
LINE
8
BLACK
6
CONTINUOUS
10
6.40426
20
0.781
11
6.33614
21
0.801002
0
LINE
8
BLACK
6
CONTINUOUS
10
6.33614
20
0.801002
11
6.31517
21
0.817904
0
LINE
8
BLACK
6
CONTINUOUS
10
6.31517
20
0.817904
11
5.62624
21
1.50683
0
LINE
8
BLACK
6
CONTINUOUS
10
5.62624
20
1.50683
11
5.3013
21
1.83177
0
LINE
8
BLACK
6
CONTINUOUS
10
5.3013
20
1.83177
11
5.29545
21
1.83804
0
LINE
8
BLACK
6
CONTINUOUS
10
5.29545
20
1.83804
11
5.28695
21
1.84778
0
LINE
8
BLACK
6
CONTINUOUS
10
5.28695
20
1.84778
11
5.25902
21
1.87979
0
LINE
8
BLACK
6
CONTINUOUS
10
5.25902
20
1.87979
11
5.20885
21
1.91505
0
LINE
8
BLACK
6
CONTINUOUS
10
5.20885
20
1.91505
11
5.20358
21
1.91897
0
LINE
8
BLACK
6
CONTINUOUS
10
5.20358
20
1.91897
11
5.16135
21
1.95208
0
LINE
8
BLACK
6
CONTINUOUS
10
5.16135
20
1.95208
11
5.16134
21
1.95209
0
LINE
8
BLACK
6
CONTINUOUS
10
5.16134
20
1.95209
11
5.15537
21
1.95677
0
LINE
8
BLACK
6
CONTINUOUS
10
5.15537
20
1.95677
11
5.14844
21
1.9599
0
LINE
8
BLACK
6
CONTINUOUS
10
5.14844
20
1.9599
11
5.14388
21
1.96266
0
LINE
8
BLACK
6
CONTINUOUS
10
5.14388
20
1.96266
11
5.13502
21
1.96772
0
LINE
8
BLACK
6
CONTINUOUS
10
5.13502
20
1.96772
11
5.13038
21
1.9702
0
LINE
8
BLACK
6
CONTINUOUS
10
5.13038
20
1.9702
11
5.12417
21
1.97457
0
LINE
8
BLACK
6
CONTINUOUS
10
5.12417
20
1.97457
11
5.09472
21
1.98605
0
LINE
8
BLACK
6
CONTINUOUS
10
5.09472
20
1.98605
11
5.06707
21
1.99683
0
LINE
8
BLACK
6
CONTINUOUS
10
5.06707
20
1.99683
11
5.06099
21
1.99939
0
LINE
8
BLACK
6
CONTINUOUS
10
5.06099
20
1.99939
11
5.03511
21
2.01107
0
LINE
8
BLACK
6
CONTINUOUS
10
5.03511
20
2.01107
11
5.00514
21
2.0246
0
LINE
8
BLACK
6
CONTINUOUS
10
5.00514
20
2.0246
11
4.99767
21
2.02599
0
LINE
8
BLACK
6
CONTINUOUS
10
4.99767
20
2.02599
11
4.99264
21
2.02756
0
LINE
8
BLACK
6
CONTINUOUS
10
4.99264
20
2.02756
11
4.98279
21
2.03037
0
LINE
8
BLACK
6
CONTINUOUS
10
4.98279
20
2.03037
11
4.97767
21
2.03168
0
LINE
8
BLACK
6
CONTINUOUS
10
4.97767
20
2.03168
11
4.9706
21
2.03444
0
LINE
8
BLACK
6
CONTINUOUS
10
4.9706
20
2.03444
11
4.90985
21
2.04244
0
LINE
8
BLACK
6
CONTINUOUS
10
4.90985
20
2.04244
11
4.90333
21
2.04347
0
LINE
8
BLACK
6
CONTINUOUS
10
4.90333
20
2.04347
11
4.85054
21
2.05326
0
LINE
8
BLACK
6
CONTINUOUS
10
4.85054
20
2.05326
11
4.84307
21
2.05464
0
LINE
8
BLACK
6
CONTINUOUS
10
4.84307
20
2.05464
11
4.83549
21
2.0542
0
LINE
8
BLACK
6
CONTINUOUS
10
4.83549
20
2.0542
11
4.83549
21
2.0542
0
LINE
8
BLACK
6
CONTINUOUS
10
4.83549
20
2.0542
11
4.78346
21
2.0512
0
LINE
8
BLACK
6
CONTINUOUS
10
4.78346
20
2.0512
11
4.77621
21
2.05099
0
LINE
8
BLACK
6
CONTINUOUS
10
4.77621
20
2.05099
11
3.38935
21
2.05099
0
LINE
8
BLACK
6
CONTINUOUS
10
3.38935
20
2.05099
11
3.36639
21
2.0531
0
LINE
8
BLACK
6
CONTINUOUS
10
3.36639
20
2.0531
11
3.35807
21
2.05465
0
LINE
8
BLACK
6
CONTINUOUS
10
3.35807
20
2.05465
11
3.35049
21
2.05421
0
LINE
8
BLACK
6
CONTINUOUS
10
3.35049
20
2.05421
11
3.35049
21
2.05421
0
LINE
8
BLACK
6
CONTINUOUS
10
3.35049
20
2.05421
11
3.29836
21
2.0512
0
LINE
8
BLACK
6
CONTINUOUS
10
3.29836
20
2.0512
11
3.29111
21
2.05099
0
LINE
8
BLACK
6
CONTINUOUS
10
3.29111
20
2.05099
11
3.27369
21
2.05099
0
LINE
8
BLACK
6
CONTINUOUS
10
3.27369
20
2.05099
11
3.26992
21
2.05054
0
LINE
8
BLACK
6
CONTINUOUS
10
3.26992
20
2.05054
11
3.26992
21
2.05054
0
LINE
8
BLACK
6
CONTINUOUS
10
3.26992
20
2.05054
11
3.25845
21
2.04915
0
LINE
8
BLACK
6
CONTINUOUS
10
3.25845
20
2.04915
11
3.25057
21
2.04845
0
LINE
8
BLACK
6
CONTINUOUS
10
3.25057
20
2.04845
11
3.2189
21
2.04662
0
LINE
8
BLACK
6
CONTINUOUS
10
3.2189
20
2.04662
11
3.19352
21
2.04516
0
LINE
8
BLACK
6
CONTINUOUS
10
3.19352
20
2.04516
11
3.18356
21
2.04209
0
LINE
8
BLACK
6
CONTINUOUS
10
3.18356
20
2.04209
11
3.16164
21
2.03743
0
LINE
8
BLACK
6
CONTINUOUS
10
3.16164
20
2.03743
11
3.15892
21
2.0371
0
LINE
8
BLACK
6
CONTINUOUS
10
3.15892
20
2.0371
11
3.15137
21
2.03619
0
LINE
8
BLACK
6
CONTINUOUS
10
3.15137
20
2.03619
11
3.14426
21
2.0335
0
LINE
8
BLACK
6
CONTINUOUS
10
3.14426
20
2.0335
11
3.0981
21
2.01606
0
LINE
8
BLACK
6
CONTINUOUS
10
3.0981
20
2.01606
11
3.09062
21
2.0135
0
LINE
8
BLACK
6
CONTINUOUS
10
3.09062
20
2.0135
11
3.08272
21
2.01107
0
LINE
8
BLACK
6
CONTINUOUS
10
3.08272
20
2.01107
11
3.04567
21
2.0055
0
LINE
8
BLACK
6
CONTINUOUS
10
3.04567
20
2.0055
11
2.66387
21
2.0055
0
LINE
8
BLACK
6
CONTINUOUS
10
2.66387
20
2.0055
11
2.59575
21
2.0255
0
LINE
8
BLACK
6
CONTINUOUS
10
2.59575
20
2.0255
11
2.54926
21
2.07916
0
LINE
8
BLACK
6
CONTINUOUS
10
2.54926
20
2.07916
11
2.53916
21
2.14943
0
LINE
8
BLACK
6
CONTINUOUS
10
2.53916
20
2.14943
11
2.56865
21
2.21401
0
LINE
8
BLACK
6
CONTINUOUS
10
2.56865
20
2.21401
11
2.57478
21
2.22059
0
LINE
8
BLACK
6
CONTINUOUS
10
2.57478
20
2.22059
11
2.91728
21
2.56309
0
LINE
8
BLACK
6
CONTINUOUS
10
2.91728
20
2.56309
11
2.97959
21
2.59712
0
LINE
8
BLACK
6
CONTINUOUS
10
2.97959
20
2.59712
11
3.00637
21
2.6
0
LINE
8
BLACK
6
CONTINUOUS
10
3.00637
20
2.6
11
5.2
21
2.6
0
LINE
8
BLACK
6
CONTINUOUS
10
5.2
20
2.6
11
6.49085
21
3.7735
0
LINE
8
BLACK
6
CONTINUOUS
10
6.49085
20
3.7735
11
7.36395
21
4.56723
0
LINE
8
BLACK
6
CONTINUOUS
10
7.36395
20
4.56723
11
7.42781
21
4.59825
0
LINE
8
BLACK
6
CONTINUOUS
10
7.42781
20
4.59825
11
7.44871
21
4.6
0
LINE
8
BLACK
6
CONTINUOUS
10
7.44871
20
4.6
11
14.8086
21
4.6
0
LINE
8
BLACK
6
CONTINUOUS
10
14.8086
20
4.6
11
14.8767
21
4.58
0
LINE
8
BLACK
6
CONTINUOUS
10
14.8767
20
4.58
11
14.9232
21
4.52634
0
LINE
8
BLACK
6
CONTINUOUS
10
14.9232
20
4.52634
11
14.9307
21
4.50502
0
LINE
8
BLACK
6
CONTINUOUS
10
14.9307
20
4.50502
11
15.0792
21
3.92019
0
LINE
8
BLACK
6
CONTINUOUS
10
15.0792
20
3.92019
11
15.233
21
3.31475
0
LINE
8
BLACK
6
CONTINUOUS
10
15.233
20
3.31475
11
15.2369
21
3.28373
0
LINE
8
BLACK
6
CONTINUOUS
10
15.2369
20
3.28373
11
15.2369
21
-3.32329
0
LINE
8
BLACK
6
CONTINUOUS
10
15.2369
20
-3.32329
11
15.2325
21
-3.35622
0
LINE
8
BLACK
6
CONTINUOUS
10
15.2325
20
-3.35622
11
14.9751
21
-4.30693
0
LINE
8
BLACK
6
CONTINUOUS
10
14.9751
20
-4.30693
11
14.938
21
-4.36745
0
LINE
8
BLACK
6
CONTINUOUS
10
14.938
20
-4.36745
11
14.874
21
-4.39831
0
LINE
8
BLACK
6
CONTINUOUS
10
14.874
20
-4.39831
11
14.8534
21
-4.4
0
LINE
8
BLACK
6
CONTINUOUS
10
14.8534
20
-4.4
11
7.44871
21
-4.4
0
LINE
8
BLACK
6
CONTINUOUS
10
7.44871
20
-4.4
11
7.38059
21
-4.38
0
LINE
8
BLACK
6
CONTINUOUS
10
7.38059
20
-4.38
11
7.36395
21
-4.36723
0
LINE
8
BLACK
6
CONTINUOUS
10
7.36395
20
-4.36723
11
6.49049
21
-3.57317
0
LINE
8
BLACK
6
CONTINUOUS
10
6.49049
20
-3.57317
11
5.35194
21
-2.53813
0
LINE
8
BLACK
6
CONTINUOUS
10
5.35194
20
-2.53813
11
5.2134
21
-2.41219
0
LINE
8
BLACK
6
CONTINUOUS
10
12.6983
20
-3.66121
11
12.7077
21
-3.66613
0
LINE
8
BLACK
6
CONTINUOUS
10
12.7077
20
-3.66613
11
12.9132
21
-3.75188
0
LINE
8
BLACK
6
CONTINUOUS
10
12.9132
20
-3.75188
11
12.9233
21
-3.75514
0
LINE
8
BLACK
6
CONTINUOUS
10
12.9233
20
-3.75514
11
13.1404
21
-3.80504
0
LINE
8
BLACK
6
CONTINUOUS
10
13.1404
20
-3.80504
11
13.1509
21
-3.80654
0
LINE
8
BLACK
6
CONTINUOUS
10
13.1509
20
-3.80654
11
13.3732
21
-3.81916
0
LINE
8
BLACK
6
CONTINUOUS
10
13.3732
20
-3.81916
11
13.3838
21
-3.81886
0
LINE
8
BLACK
6
CONTINUOUS
10
13.3838
20
-3.81886
11
13.6051
21
-3.79385
0
LINE
8
BLACK
6
CONTINUOUS
10
13.6051
20
-3.79385
11
13.6155
21
-3.79177
0
LINE
8
BLACK
6
CONTINUOUS
10
13.6155
20
-3.79177
11
13.8294
21
-3.72982
0
LINE
8
BLACK
6
CONTINUOUS
10
13.8294
20
-3.72982
11
13.8393
21
-3.72601
0
LINE
8
BLACK
6
CONTINUOUS
10
13.8393
20
-3.72601
11
14.0397
21
-3.62892
0
LINE
8
BLACK
6
CONTINUOUS
10
14.0397
20
-3.62892
11
14.0489
21
-3.62349
0
LINE
8
BLACK
6
CONTINUOUS
10
14.0489
20
-3.62349
11
14.1048
21
-3.58358
0
LINE
8
BLACK
6
CONTINUOUS
10
14.1048
20
-3.58358
11
14.1132
21
-3.57285
0
LINE
8
BLACK
6
CONTINUOUS
10
14.1132
20
-3.57285
11
14.1062
21
-3.55973
0
LINE
8
BLACK
6
CONTINUOUS
10
14.1062
20
-3.55973
11
13.9358
21
-3.38938
0
LINE
8
BLACK
6
CONTINUOUS
10
13.9358
20
-3.38938
11
13.803
21
-3.46533
0
LINE
8
BLACK
6
CONTINUOUS
10
13.803
20
-3.46533
11
13.6007
21
-3.53437
0
LINE
8
BLACK
6
CONTINUOUS
10
13.6007
20
-3.53437
11
13.3891
21
-3.56393
0
LINE
8
BLACK
6
CONTINUOUS
10
13.3891
20
-3.56393
11
13.1757
21
-3.55293
0
LINE
8
BLACK
6
CONTINUOUS
10
13.1757
20
-3.55293
11
12.9682
21
-3.50178
0
LINE
8
BLACK
6
CONTINUOUS
10
12.9682
20
-3.50178
11
12.7741
21
-3.41231
0
LINE
8
BLACK
6
CONTINUOUS
10
12.7741
20
-3.41231
11
12.7433
21
-3.39023
0
LINE
8
BLACK
6
CONTINUOUS
10
12.7433
20
-3.39023
11
12.5728
21
-3.56079
0
LINE
8
BLACK
6
CONTINUOUS
10
12.5728
20
-3.56079
11
12.566
21
-3.57317
0
LINE
8
BLACK
6
CONTINUOUS
10
12.566
20
-3.57317
11
12.5721
21
-3.58128
0
LINE
8
BLACK
6
CONTINUOUS
10
12.5721
20
-3.58128
11
12.6983
21
-3.66121
0
LINE
8
BLACK
6
CONTINUOUS
10
6.92014
20
-2.76858
11
6.92272
21
-2.7789
0
LINE
8
BLACK
6
CONTINUOUS
10
6.92272
20
-2.7789
11
6.99466
21
-2.98964
0
LINE
8
BLACK
6
CONTINUOUS
10
6.99466
20
-2.98964
11
6.99894
21
-2.99937
0
LINE
8
BLACK
6
CONTINUOUS
10
6.99894
20
-2.99937
11
7.10536
21
-3.19497
0
LINE
8
BLACK
6
CONTINUOUS
10
7.10536
20
-3.19497
11
7.11121
21
-3.20385
0
LINE
8
BLACK
6
CONTINUOUS
10
7.11121
20
-3.20385
11
7.11383
21
-3.20717
0
LINE
8
BLACK
6
CONTINUOUS
10
7.11383
20
-3.20717
11
7.12575
21
-3.21564
0
LINE
8
BLACK
6
CONTINUOUS
10
7.12575
20
-3.21564
11
7.13729
21
-3.20916
0
LINE
8
BLACK
6
CONTINUOUS
10
7.13729
20
-3.20916
11
7.31128
21
-3.03516
0
LINE
8
BLACK
6
CONTINUOUS
10
7.31128
20
-3.03516
11
7.25851
21
-2.95249
0
LINE
8
BLACK
6
CONTINUOUS
10
7.25851
20
-2.95249
11
7.17967
21
-2.75386
0
LINE
8
BLACK
6
CONTINUOUS
10
7.17967
20
-2.75386
11
7.13981
21
-2.54392
0
LINE
8
BLACK
6
CONTINUOUS
10
7.13981
20
-2.54392
11
7.14037
21
-2.33022
0
LINE
8
BLACK
6
CONTINUOUS
10
7.14037
20
-2.33022
11
7.18133
21
-2.12048
0
LINE
8
BLACK
6
CONTINUOUS
10
7.18133
20
-2.12048
11
7.26121
21
-1.92227
0
LINE
8
BLACK
6
CONTINUOUS
10
7.26121
20
-1.92227
11
7.31124
21
-1.84479
0
LINE
8
BLACK
6
CONTINUOUS
10
7.31124
20
-1.84479
11
7.13646
21
-1.67002
0
LINE
8
BLACK
6
CONTINUOUS
10
7.13646
20
-1.67002
11
7.12328
21
-1.66282
0
LINE
8
BLACK
6
CONTINUOUS
10
7.12328
20
-1.66282
11
7.11803
21
-1.66657
0
LINE
8
BLACK
6
CONTINUOUS
10
7.11803
20
-1.66657
11
7.00991
21
-1.85651
0
LINE
8
BLACK
6
CONTINUOUS
10
7.00991
20
-1.85651
11
7.00544
21
-1.86618
0
LINE
8
BLACK
6
CONTINUOUS
10
7.00544
20
-1.86618
11
6.92947
21
-2.07549
0
LINE
8
BLACK
6
CONTINUOUS
10
6.92947
20
-2.07549
11
6.9267
21
-2.08576
0
LINE
8
BLACK
6
CONTINUOUS
10
6.9267
20
-2.08576
11
6.88707
21
-2.30488
0
LINE
8
BLACK
6
CONTINUOUS
10
6.88707
20
-2.30488
11
6.88607
21
-2.31547
0
LINE
8
BLACK
6
CONTINUOUS
10
6.88607
20
-2.31547
11
6.88394
21
-2.53813
0
LINE
8
BLACK
6
CONTINUOUS
10
6.88394
20
-2.53813
11
6.88473
21
-2.54874
0
LINE
8
BLACK
6
CONTINUOUS
10
6.88473
20
-2.54874
11
6.92014
21
-2.76858
0
LINE
8
BLACK
6
CONTINUOUS
10
12.0001
20
-2.76858
11
12.0027
21
-2.7789
0
LINE
8
BLACK
6
CONTINUOUS
10
12.0027
20
-2.7789
11
12.0747
21
-2.98964
0
LINE
8
BLACK
6
CONTINUOUS
10
12.0747
20
-2.98964
11
12.0789
21
-2.99937
0
LINE
8
BLACK
6
CONTINUOUS
10
12.0789
20
-2.99937
11
12.1854
21
-3.19497
0
LINE
8
BLACK
6
CONTINUOUS
10
12.1854
20
-3.19497
11
12.1912
21
-3.20385
0
LINE
8
BLACK
6
CONTINUOUS
10
12.1912
20
-3.20385
11
12.1938
21
-3.20717
0
LINE
8
BLACK
6
CONTINUOUS
10
12.1938
20
-3.20717
11
12.2058
21
-3.21564
0
LINE
8
BLACK
6
CONTINUOUS
10
12.2058
20
-3.21564
11
12.2173
21
-3.20916
0
LINE
8
BLACK
6
CONTINUOUS
10
12.2173
20
-3.20916
11
12.3913
21
-3.03516
0
LINE
8
BLACK
6
CONTINUOUS
10
12.3913
20
-3.03516
11
12.3385
21
-2.95249
0
LINE
8
BLACK
6
CONTINUOUS
10
12.3385
20
-2.95249
11
12.2597
21
-2.75386
0
LINE
8
BLACK
6
CONTINUOUS
10
12.2597
20
-2.75386
11
12.2198
21
-2.54392
0
LINE
8
BLACK
6
CONTINUOUS
10
12.2198
20
-2.54392
11
12.2204
21
-2.33022
0
LINE
8
BLACK
6
CONTINUOUS
10
12.2204
20
-2.33022
11
12.2613
21
-2.12048
0
LINE
8
BLACK
6
CONTINUOUS
10
12.2613
20
-2.12048
11
12.3412
21
-1.92227
0
LINE
8
BLACK
6
CONTINUOUS
10
12.3412
20
-1.92227
11
12.3912
21
-1.84479
0
LINE
8
BLACK
6
CONTINUOUS
10
12.3912
20
-1.84479
11
12.2165
21
-1.67002
0
LINE
8
BLACK
6
CONTINUOUS
10
12.2165
20
-1.67002
11
12.2033
21
-1.66282
0
LINE
8
BLACK
6
CONTINUOUS
10
12.2033
20
-1.66282
11
12.198
21
-1.66657
0
LINE
8
BLACK
6
CONTINUOUS
10
12.198
20
-1.66657
11
12.0899
21
-1.85651
0
LINE
8
BLACK
6
CONTINUOUS
10
12.0899
20
-1.85651
11
12.0854
21
-1.86618
0
LINE
8
BLACK
6
CONTINUOUS
10
12.0854
20
-1.86618
11
12.0095
21
-2.07549
0
LINE
8
BLACK
6
CONTINUOUS
10
12.0095
20
-2.07549
11
12.0067
21
-2.08576
0
LINE
8
BLACK
6
CONTINUOUS
10
12.0067
20
-2.08576
11
11.9671
21
-2.30488
0
LINE
8
BLACK
6
CONTINUOUS
10
11.9671
20
-2.30488
11
11.9661
21
-2.31547
0
LINE
8
BLACK
6
CONTINUOUS
10
11.9661
20
-2.31547
11
11.9639
21
-2.53813
0
LINE
8
BLACK
6
CONTINUOUS
10
11.9639
20
-2.53813
11
11.9647
21
-2.54874
0
LINE
8
BLACK
6
CONTINUOUS
10
11.9647
20
-2.54874
11
12.0001
21
-2.76858
0
LINE
8
BLACK
6
CONTINUOUS
10
9.63977
20
-2.46353
11
9.63997
21
-2.44296
0
LINE
8
BLACK
6
CONTINUOUS
10
9.63997
20
-2.44296
11
9.63975
21
-2.43705
0
LINE
8
BLACK
6
CONTINUOUS
10
9.63975
20
-2.43705
11
9.62072
21
-2.2128
0
LINE
8
BLACK
6
CONTINUOUS
10
9.62072
20
-2.2128
11
9.61893
21
-2.20232
0
LINE
8
BLACK
6
CONTINUOUS
10
9.61893
20
-2.20232
11
9.56299
21
-1.98678
0
LINE
8
BLACK
6
CONTINUOUS
10
9.56299
20
-1.98678
11
9.55945
21
-1.97675
0
LINE
8
BLACK
6
CONTINUOUS
10
9.55945
20
-1.97675
11
9.468
21
-1.77373
0
LINE
8
BLACK
6
CONTINUOUS
10
9.468
20
-1.77373
11
9.46282
21
-1.76442
0
LINE
8
BLACK
6
CONTINUOUS
10
9.46282
20
-1.76442
11
9.40305
21
-1.67565
0
LINE
8
BLACK
6
CONTINUOUS
10
9.40305
20
-1.67565
11
9.39304
21
-1.66734
0
LINE
8
BLACK
6
CONTINUOUS
10
9.39304
20
-1.66734
11
9.37898
21
-1.67457
0
LINE
8
BLACK
6
CONTINUOUS
10
9.37898
20
-1.67457
11
9.21167
21
-1.84188
0
LINE
8
BLACK
6
CONTINUOUS
10
9.21167
20
-1.84188
11
9.30455
21
-2.02221
0
LINE
8
BLACK
6
CONTINUOUS
10
9.30455
20
-2.02221
11
9.3647
21
-2.22727
0
LINE
8
BLACK
6
CONTINUOUS
10
9.3647
20
-2.22727
11
9.385
21
-2.44
0
LINE
8
BLACK
6
CONTINUOUS
10
9.385
20
-2.44
11
9.38499
21
-2.44589
0
LINE
8
BLACK
6
CONTINUOUS
10
9.38499
20
-2.44589
11
9.36357
21
-2.65851
0
LINE
8
BLACK
6
CONTINUOUS
10
9.36357
20
-2.65851
11
9.30234
21
-2.86325
0
LINE
8
BLACK
6
CONTINUOUS
10
9.30234
20
-2.86325
11
9.21131
21
-3.03776
0
LINE
8
BLACK
6
CONTINUOUS
10
9.21131
20
-3.03776
11
9.38011
21
-3.20656
0
LINE
8
BLACK
6
CONTINUOUS
10
9.38011
20
-3.20656
11
9.39191
21
-3.213
0
LINE
8
BLACK
6
CONTINUOUS
10
9.39191
20
-3.213
11
9.4039
21
-3.20373
0
LINE
8
BLACK
6
CONTINUOUS
10
9.4039
20
-3.20373
11
9.44963
21
-3.13854
0
LINE
8
BLACK
6
CONTINUOUS
10
9.44963
20
-3.13854
11
9.45498
21
-3.12934
0
LINE
8
BLACK
6
CONTINUOUS
10
9.45498
20
-3.12934
11
9.55032
21
-2.92811
0
LINE
8
BLACK
6
CONTINUOUS
10
9.55032
20
-2.92811
11
9.55405
21
-2.91814
0
LINE
8
BLACK
6
CONTINUOUS
10
9.55405
20
-2.91814
11
9.61412
21
-2.70372
0
LINE
8
BLACK
6
CONTINUOUS
10
9.61412
20
-2.70372
11
9.61611
21
-2.69328
0
LINE
8
BLACK
6
CONTINUOUS
10
9.61611
20
-2.69328
11
9.63228
21
-2.53813
0
LINE
8
BLACK
6
CONTINUOUS
10
9.63228
20
-2.53813
11
9.63944
21
-2.46944
0
LINE
8
BLACK
6
CONTINUOUS
10
9.63944
20
-2.46944
11
9.63977
21
-2.46353
0
LINE
8
BLACK
6
CONTINUOUS
10
14.459
20
-1.67457
11
14.2917
21
-1.84188
0
LINE
8
BLACK
6
CONTINUOUS
10
14.2917
20
-1.84188
11
14.3845
21
-2.02221
0
LINE
8
BLACK
6
CONTINUOUS
10
14.3845
20
-2.02221
11
14.4447
21
-2.22727
0
LINE
8
BLACK
6
CONTINUOUS
10
14.4447
20
-2.22727
11
14.465
21
-2.44
0
LINE
8
BLACK
6
CONTINUOUS
10
14.465
20
-2.44
11
14.465
21
-2.44589
0
LINE
8
BLACK
6
CONTINUOUS
10
14.465
20
-2.44589
11
14.4436
21
-2.65851
0
LINE
8
BLACK
6
CONTINUOUS
10
14.4436
20
-2.65851
11
14.3823
21
-2.86325
0
LINE
8
BLACK
6
CONTINUOUS
10
14.3823
20
-2.86325
11
14.2913
21
-3.03776
0
LINE
8
BLACK
6
CONTINUOUS
10
14.2913
20
-3.03776
11
14.4601
21
-3.20656
0
LINE
8
BLACK
6
CONTINUOUS
10
14.4601
20
-3.20656
11
14.4719
21
-3.213
0
LINE
8
BLACK
6
CONTINUOUS
10
14.4719
20
-3.213
11
14.4839
21
-3.20373
0
LINE
8
BLACK
6
CONTINUOUS
10
14.4839
20
-3.20373
11
14.5296
21
-3.13854
0
LINE
8
BLACK
6
CONTINUOUS
10
14.5296
20
-3.13854
11
14.535
21
-3.12934
0
LINE
8
BLACK
6
CONTINUOUS
10
14.535
20
-3.12934
11
14.6303
21
-2.92811
0
LINE
8
BLACK
6
CONTINUOUS
10
14.6303
20
-2.92811
11
14.634
21
-2.91814
0
LINE
8
BLACK
6
CONTINUOUS
10
14.634
20
-2.91814
11
14.6941
21
-2.70372
0
LINE
8
BLACK
6
CONTINUOUS
10
14.6941
20
-2.70372
11
14.6961
21
-2.69328
0
LINE
8
BLACK
6
CONTINUOUS
10
14.6961
20
-2.69328
11
14.7194
21
-2.46944
0
LINE
8
BLACK
6
CONTINUOUS
10
14.7194
20
-2.46944
11
14.7198
21
-2.46353
0
LINE
8
BLACK
6
CONTINUOUS
10
14.7198
20
-2.46353
11
14.72
21
-2.44296
0
LINE
8
BLACK
6
CONTINUOUS
10
14.72
20
-2.44296
11
14.7197
21
-2.43705
0
LINE
8
BLACK
6
CONTINUOUS
10
14.7197
20
-2.43705
11
14.7007
21
-2.2128
0
LINE
8
BLACK
6
CONTINUOUS
10
14.7007
20
-2.2128
11
14.6989
21
-2.20232
0
LINE
8
BLACK
6
CONTINUOUS
10
14.6989
20
-2.20232
11
14.643
21
-1.98678
0
LINE
8
BLACK
6
CONTINUOUS
10
14.643
20
-1.98678
11
14.6395
21
-1.97675
0
LINE
8
BLACK
6
CONTINUOUS
10
14.6395
20
-1.97675
11
14.548
21
-1.77373
0
LINE
8
BLACK
6
CONTINUOUS
10
14.548
20
-1.77373
11
14.5428
21
-1.76442
0
LINE
8
BLACK
6
CONTINUOUS
10
14.5428
20
-1.76442
11
14.4831
21
-1.67565
0
LINE
8
BLACK
6
CONTINUOUS
10
14.4831
20
-1.67565
11
14.473
21
-1.66734
0
LINE
8
BLACK
6
CONTINUOUS
10
14.473
20
-1.66734
11
14.459
21
-1.67457
0
LINE
8
BLACK
6
CONTINUOUS
10
4.015
20
-1.42
11
4.015
21
-1.55
0
LINE
8
BLACK
6
CONTINUOUS
10
4.015
20
-1.55
11
3.565
21
-1.55
0
LINE
8
BLACK
6
CONTINUOUS
10
3.565
20
-1.55
11
3.565
21
-1.78688
0
LINE
8
BLACK
6
CONTINUOUS
10
3.565
20
-1.78688
11
3.56947
21
-1.80212
0
LINE
8
BLACK
6
CONTINUOUS
10
3.56947
20
-1.80212
11
3.57086
21
-1.80333
0
LINE
8
BLACK
6
CONTINUOUS
10
3.57086
20
-1.80333
11
3.57855
21
-1.805
0
LINE
8
BLACK
6
CONTINUOUS
10
3.57855
20
-1.805
11
4.00881
21
-1.805
0
LINE
8
BLACK
6
CONTINUOUS
10
4.00881
20
-1.805
11
4.02107
21
-1.80379
0
LINE
8
BLACK
6
CONTINUOUS
10
4.02107
20
-1.80379
11
4.10041
21
-1.78801
0
LINE
8
BLACK
6
CONTINUOUS
10
4.10041
20
-1.78801
11
4.1229
21
-1.7787
0
LINE
8
BLACK
6
CONTINUOUS
10
4.1229
20
-1.7787
11
4.185
21
-1.7372
0
LINE
8
BLACK
6
CONTINUOUS
10
4.185
20
-1.7372
11
4.20221
21
-1.72
0
LINE
8
BLACK
6
CONTINUOUS
10
4.20221
20
-1.72
11
4.2437
21
-1.6579
0
LINE
8
BLACK
6
CONTINUOUS
10
4.2437
20
-1.6579
11
4.25301
21
-1.63541
0
LINE
8
BLACK
6
CONTINUOUS
10
4.25301
20
-1.63541
11
4.26879
21
-1.55607
0
LINE
8
BLACK
6
CONTINUOUS
10
4.26879
20
-1.55607
11
4.27
21
-1.54381
0
LINE
8
BLACK
6
CONTINUOUS
10
4.27
20
-1.54381
11
4.27
21
-1.43812
0
LINE
8
BLACK
6
CONTINUOUS
10
4.27
20
-1.43812
11
4.26553
21
-1.42288
0
LINE
8
BLACK
6
CONTINUOUS
10
4.26553
20
-1.42288
11
4.26413
21
-1.42167
0
LINE
8
BLACK
6
CONTINUOUS
10
4.26413
20
-1.42167
11
4.25645
21
-1.42
0
LINE
8
BLACK
6
CONTINUOUS
10
4.25645
20
-1.42
11
4.015
21
-1.42
0
LINE
8
BLACK
6
CONTINUOUS
10
12.7436
20
-1.49002
11
12.7792
21
-1.46474
0
LINE
8
BLACK
6
CONTINUOUS
10
12.7792
20
-1.46474
11
12.9737
21
-1.37629
0
LINE
8
BLACK
6
CONTINUOUS
10
12.9737
20
-1.37629
11
13.1815
21
-1.32622
0
LINE
8
BLACK
6
CONTINUOUS
10
13.1815
20
-1.32622
11
13.395
21
-1.31634
0
LINE
8
BLACK
6
CONTINUOUS
10
13.395
20
-1.31634
11
13.6064
21
-1.34701
0
LINE
8
BLACK
6
CONTINUOUS
10
13.6064
20
-1.34701
11
13.8083
21
-1.41711
0
LINE
8
BLACK
6
CONTINUOUS
10
13.8083
20
-1.41711
11
13.9357
21
-1.49078
0
LINE
8
BLACK
6
CONTINUOUS
10
13.9357
20
-1.49078
11
14.1072
21
-1.31925
0
LINE
8
BLACK
6
CONTINUOUS
10
14.1072
20
-1.31925
11
14.1139
21
-1.30693
0
LINE
8
BLACK
6
CONTINUOUS
10
14.1139
20
-1.30693
11
14.1054
21
-1.29557
0
LINE
8
BLACK
6
CONTINUOUS
10
14.1054
20
-1.29557
11
14.0715
21
-1.27033
0
LINE
8
BLACK
6
CONTINUOUS
10
14.0715
20
-1.27033
11
14.0624
21
-1.26473
0
LINE
8
BLACK
6
CONTINUOUS
10
14.0624
20
-1.26473
11
13.8639
21
-1.16381
0
LINE
8
BLACK
6
CONTINUOUS
10
13.8639
20
-1.16381
11
13.8541
21
-1.15981
0
LINE
8
BLACK
6
CONTINUOUS
10
13.8541
20
-1.15981
11
13.6414
21
-1.09377
0
LINE
8
BLACK
6
CONTINUOUS
10
13.6414
20
-1.09377
11
13.631
21
-1.09149
0
LINE
8
BLACK
6
CONTINUOUS
10
13.631
20
-1.09149
11
13.4103
21
-1.06223
0
LINE
8
BLACK
6
CONTINUOUS
10
13.4103
20
-1.06223
11
13.3997
21
-1.06173
0
LINE
8
BLACK
6
CONTINUOUS
10
13.3997
20
-1.06173
11
13.1772
21
-1.07009
0
LINE
8
BLACK
6
CONTINUOUS
10
13.1772
20
-1.07009
11
13.1666
21
-1.07138
0
LINE
8
BLACK
6
CONTINUOUS
10
13.1666
20
-1.07138
11
12.9487
21
-1.11711
0
LINE
8
BLACK
6
CONTINUOUS
10
12.9487
20
-1.11711
11
12.9385
21
-1.12016
0
LINE
8
BLACK
6
CONTINUOUS
10
12.9385
20
-1.12016
11
12.7314
21
-1.20196
0
LINE
8
BLACK
6
CONTINUOUS
10
12.7314
20
-1.20196
11
12.7218
21
-1.20669
0
LINE
8
BLACK
6
CONTINUOUS
10
12.7218
20
-1.20669
11
12.5745
21
-1.29608
0
LINE
8
BLACK
6
CONTINUOUS
10
12.5745
20
-1.29608
11
12.565
21
-1.3065
0
LINE
8
BLACK
6
CONTINUOUS
10
12.565
20
-1.3065
11
12.5687
21
-1.31514
0
LINE
8
BLACK
6
CONTINUOUS
10
12.5687
20
-1.31514
11
12.7436
21
-1.49002
0
LINE
8
BLACK
6
CONTINUOUS
10
12.0001
20
2.31142
11
12.0027
21
2.3011
0
LINE
8
BLACK
6
CONTINUOUS
10
12.0027
20
2.3011
11
12.0747
21
2.09036
0
LINE
8
BLACK
6
CONTINUOUS
10
12.0747
20
2.09036
11
12.0789
21
2.08062
0
LINE
8
BLACK
6
CONTINUOUS
10
12.0789
20
2.08062
11
12.1854
21
1.88503
0
LINE
8
BLACK
6
CONTINUOUS
10
12.1854
20
1.88503
11
12.1912
21
1.87614
0
LINE
8
BLACK
6
CONTINUOUS
10
12.1912
20
1.87614
11
12.1938
21
1.87283
0
LINE
8
BLACK
6
CONTINUOUS
10
12.1938
20
1.87283
11
12.2058
21
1.86435
0
LINE
8
BLACK
6
CONTINUOUS
10
12.2058
20
1.86435
11
12.2173
21
1.87084
0
LINE
8
BLACK
6
CONTINUOUS
10
12.2173
20
1.87084
11
12.3913
21
2.04484
0
LINE
8
BLACK
6
CONTINUOUS
10
12.3913
20
2.04484
11
12.3385
21
2.12751
0
LINE
8
BLACK
6
CONTINUOUS
10
12.3385
20
2.12751
11
12.2597
21
2.32613
0
LINE
8
BLACK
6
CONTINUOUS
10
12.2597
20
2.32613
11
12.2198
21
2.53608
0
LINE
8
BLACK
6
CONTINUOUS
10
12.2198
20
2.53608
11
12.2204
21
2.74978
0
LINE
8
BLACK
6
CONTINUOUS
10
12.2204
20
2.74978
11
12.2613
21
2.95952
0
LINE
8
BLACK
6
CONTINUOUS
10
12.2613
20
2.95952
11
12.3412
21
3.15772
0
LINE
8
BLACK
6
CONTINUOUS
10
12.3412
20
3.15772
11
12.3912
21
3.23521
0
LINE
8
BLACK
6
CONTINUOUS
10
12.3912
20
3.23521
11
12.2165
21
3.40998
0
LINE
8
BLACK
6
CONTINUOUS
10
12.2165
20
3.40998
11
12.2033
21
3.41718
0
LINE
8
BLACK
6
CONTINUOUS
10
12.2033
20
3.41718
11
12.198
21
3.41343
0
LINE
8
BLACK
6
CONTINUOUS
10
12.198
20
3.41343
11
12.0899
21
3.22349
0
LINE
8
BLACK
6
CONTINUOUS
10
12.0899
20
3.22349
11
12.0854
21
3.21382
0
LINE
8
BLACK
6
CONTINUOUS
10
12.0854
20
3.21382
11
12.0095
21
3.00451
0
LINE
8
BLACK
6
CONTINUOUS
10
12.0095
20
3.00451
11
12.0067
21
2.99424
0
LINE
8
BLACK
6
CONTINUOUS
10
12.0067
20
2.99424
11
11.9671
21
2.77512
0
LINE
8
BLACK
6
CONTINUOUS
10
11.9671
20
2.77512
11
11.9661
21
2.76453
0
LINE
8
BLACK
6
CONTINUOUS
10
11.9661
20
2.76453
11
11.9639
21
2.54187
0
LINE
8
BLACK
6
CONTINUOUS
10
11.9639
20
2.54187
11
11.9647
21
2.53126
0
LINE
8
BLACK
6
CONTINUOUS
10
11.9647
20
2.53126
11
12.0001
21
2.31142
0
LINE
8
BLACK
6
CONTINUOUS
10
6.92014
20
2.31142
11
6.92272
21
2.3011
0
LINE
8
BLACK
6
CONTINUOUS
10
6.92272
20
2.3011
11
6.99466
21
2.09036
0
LINE
8
BLACK
6
CONTINUOUS
10
6.99466
20
2.09036
11
6.99894
21
2.08062
0
LINE
8
BLACK
6
CONTINUOUS
10
6.99894
20
2.08062
11
7.10536
21
1.88503
0
LINE
8
BLACK
6
CONTINUOUS
10
7.10536
20
1.88503
11
7.11121
21
1.87614
0
LINE
8
BLACK
6
CONTINUOUS
10
7.11121
20
1.87614
11
7.11383
21
1.87283
0
LINE
8
BLACK
6
CONTINUOUS
10
7.11383
20
1.87283
11
7.12575
21
1.86435
0
LINE
8
BLACK
6
CONTINUOUS
10
7.12575
20
1.86435
11
7.13729
21
1.87084
0
LINE
8
BLACK
6
CONTINUOUS
10
7.13729
20
1.87084
11
7.31128
21
2.04484
0
LINE
8
BLACK
6
CONTINUOUS
10
7.31128
20
2.04484
11
7.25851
21
2.12751
0
LINE
8
BLACK
6
CONTINUOUS
10
7.25851
20
2.12751
11
7.17967
21
2.32613
0
LINE
8
BLACK
6
CONTINUOUS
10
7.17967
20
2.32613
11
7.13981
21
2.53608
0
LINE
8
BLACK
6
CONTINUOUS
10
7.13981
20
2.53608
11
7.14037
21
2.74978
0
LINE
8
BLACK
6
CONTINUOUS
10
7.14037
20
2.74978
11
7.18133
21
2.95952
0
LINE
8
BLACK
6
CONTINUOUS
10
7.18133
20
2.95952
11
7.26121
21
3.15772
0
LINE
8
BLACK
6
CONTINUOUS
10
7.26121
20
3.15772
11
7.31124
21
3.23521
0
LINE
8
BLACK
6
CONTINUOUS
10
7.31124
20
3.23521
11
7.13646
21
3.40998
0
LINE
8
BLACK
6
CONTINUOUS
10
7.13646
20
3.40998
11
7.12328
21
3.41718
0
LINE
8
BLACK
6
CONTINUOUS
10
7.12328
20
3.41718
11
7.11803
21
3.41343
0
LINE
8
BLACK
6
CONTINUOUS
10
7.11803
20
3.41343
11
7.00991
21
3.22349
0
LINE
8
BLACK
6
CONTINUOUS
10
7.00991
20
3.22349
11
7.00544
21
3.21382
0
LINE
8
BLACK
6
CONTINUOUS
10
7.00544
20
3.21382
11
6.92947
21
3.00451
0
LINE
8
BLACK
6
CONTINUOUS
10
6.92947
20
3.00451
11
6.9267
21
2.99424
0
LINE
8
BLACK
6
CONTINUOUS
10
6.9267
20
2.99424
11
6.88707
21
2.77512
0
LINE
8
BLACK
6
CONTINUOUS
10
6.88707
20
2.77512
11
6.88607
21
2.76453
0
LINE
8
BLACK
6
CONTINUOUS
10
6.88607
20
2.76453
11
6.88394
21
2.54187
0
LINE
8
BLACK
6
CONTINUOUS
10
6.88394
20
2.54187
11
6.88473
21
2.53126
0
LINE
8
BLACK
6
CONTINUOUS
10
6.88473
20
2.53126
11
6.92014
21
2.31142
0
LINE
8
BLACK
6
CONTINUOUS
10
14.459
20
3.40543
11
14.2917
21
3.23812
0
LINE
8
BLACK
6
CONTINUOUS
10
14.2917
20
3.23812
11
14.3845
21
3.05779
0
LINE
8
BLACK
6
CONTINUOUS
10
14.3845
20
3.05779
11
14.4447
21
2.85273
0
LINE
8
BLACK
6
CONTINUOUS
10
14.4447
20
2.85273
11
14.465
21
2.64
0
LINE
8
BLACK
6
CONTINUOUS
10
14.465
20
2.64
11
14.465
21
2.63411
0
LINE
8
BLACK
6
CONTINUOUS
10
14.465
20
2.63411
11
14.4436
21
2.42149
0
LINE
8
BLACK
6
CONTINUOUS
10
14.4436
20
2.42149
11
14.3823
21
2.21675
0
LINE
8
BLACK
6
CONTINUOUS
10
14.3823
20
2.21675
11
14.2913
21
2.04224
0
LINE
8
BLACK
6
CONTINUOUS
10
14.2913
20
2.04224
11
14.4601
21
1.87344
0
LINE
8
BLACK
6
CONTINUOUS
10
14.4601
20
1.87344
11
14.4719
21
1.867
0
LINE
8
BLACK
6
CONTINUOUS
10
14.4719
20
1.867
11
14.4839
21
1.87627
0
LINE
8
BLACK
6
CONTINUOUS
10
14.4839
20
1.87627
11
14.5296
21
1.94146
0
LINE
8
BLACK
6
CONTINUOUS
10
14.5296
20
1.94146
11
14.535
21
1.95065
0
LINE
8
BLACK
6
CONTINUOUS
10
14.535
20
1.95065
11
14.6303
21
2.15189
0
LINE
8
BLACK
6
CONTINUOUS
10
14.6303
20
2.15189
11
14.634
21
2.16186
0
LINE
8
BLACK
6
CONTINUOUS
10
14.634
20
2.16186
11
14.6941
21
2.37628
0
LINE
8
BLACK
6
CONTINUOUS
10
14.6941
20
2.37628
11
14.6961
21
2.38672
0
LINE
8
BLACK
6
CONTINUOUS
10
14.6961
20
2.38672
11
14.7194
21
2.61056
0
LINE
8
BLACK
6
CONTINUOUS
10
14.7194
20
2.61056
11
14.7198
21
2.61647
0
LINE
8
BLACK
6
CONTINUOUS
10
14.7198
20
2.61647
11
14.72
21
2.63704
0
LINE
8
BLACK
6
CONTINUOUS
10
14.72
20
2.63704
11
14.7197
21
2.64295
0
LINE
8
BLACK
6
CONTINUOUS
10
14.7197
20
2.64295
11
14.7007
21
2.86719
0
LINE
8
BLACK
6
CONTINUOUS
10
14.7007
20
2.86719
11
14.6989
21
2.87768
0
LINE
8
BLACK
6
CONTINUOUS
10
14.6989
20
2.87768
11
14.643
21
3.09322
0
LINE
8
BLACK
6
CONTINUOUS
10
14.643
20
3.09322
11
14.6395
21
3.10325
0
LINE
8
BLACK
6
CONTINUOUS
10
14.6395
20
3.10325
11
14.548
21
3.30627
0
LINE
8
BLACK
6
CONTINUOUS
10
14.548
20
3.30627
11
14.5428
21
3.31558
0
LINE
8
BLACK
6
CONTINUOUS
10
14.5428
20
3.31558
11
14.4831
21
3.40435
0
LINE
8
BLACK
6
CONTINUOUS
10
14.4831
20
3.40435
11
14.473
21
3.41266
0
LINE
8
BLACK
6
CONTINUOUS
10
14.473
20
3.41266
11
14.459
21
3.40543
0
LINE
8
BLACK
6
CONTINUOUS
10
9.63977
20
2.61647
11
9.63997
21
2.63704
0
LINE
8
BLACK
6
CONTINUOUS
10
9.63997
20
2.63704
11
9.63975
21
2.64295
0
LINE
8
BLACK
6
CONTINUOUS
10
9.63975
20
2.64295
11
9.62072
21
2.86719
0
LINE
8
BLACK
6
CONTINUOUS
10
9.62072
20
2.86719
11
9.61893
21
2.87768
0
LINE
8
BLACK
6
CONTINUOUS
10
9.61893
20
2.87768
11
9.56299
21
3.09322
0
LINE
8
BLACK
6
CONTINUOUS
10
9.56299
20
3.09322
11
9.55945
21
3.10325
0
LINE
8
BLACK
6
CONTINUOUS
10
9.55945
20
3.10325
11
9.468
21
3.30627
0
LINE
8
BLACK
6
CONTINUOUS
10
9.468
20
3.30627
11
9.46282
21
3.31558
0
LINE
8
BLACK
6
CONTINUOUS
10
9.46282
20
3.31558
11
9.40305
21
3.40435
0
LINE
8
BLACK
6
CONTINUOUS
10
9.40305
20
3.40435
11
9.39304
21
3.41266
0
LINE
8
BLACK
6
CONTINUOUS
10
9.39304
20
3.41266
11
9.37898
21
3.40543
0
LINE
8
BLACK
6
CONTINUOUS
10
9.37898
20
3.40543
11
9.21167
21
3.23812
0
LINE
8
BLACK
6
CONTINUOUS
10
9.21167
20
3.23812
11
9.30455
21
3.05779
0
LINE
8
BLACK
6
CONTINUOUS
10
9.30455
20
3.05779
11
9.3647
21
2.85273
0
LINE
8
BLACK
6
CONTINUOUS
10
9.3647
20
2.85273
11
9.385
21
2.64
0
LINE
8
BLACK
6
CONTINUOUS
10
9.385
20
2.64
11
9.38499
21
2.63411
0
LINE
8
BLACK
6
CONTINUOUS
10
9.38499
20
2.63411
11
9.36357
21
2.42149
0
LINE
8
BLACK
6
CONTINUOUS
10
9.36357
20
2.42149
11
9.30234
21
2.21675
0
LINE
8
BLACK
6
CONTINUOUS
10
9.30234
20
2.21675
11
9.21131
21
2.04224
0
LINE
8
BLACK
6
CONTINUOUS
10
9.21131
20
2.04224
11
9.38011
21
1.87344
0
LINE
8
BLACK
6
CONTINUOUS
10
9.38011
20
1.87344
11
9.39191
21
1.867
0
LINE
8
BLACK
6
CONTINUOUS
10
9.39191
20
1.867
11
9.4039
21
1.87627
0
LINE
8
BLACK
6
CONTINUOUS
10
9.4039
20
1.87627
11
9.44963
21
1.94146
0
LINE
8
BLACK
6
CONTINUOUS
10
9.44963
20
1.94146
11
9.45498
21
1.95065
0
LINE
8
BLACK
6
CONTINUOUS
10
9.45498
20
1.95065
11
9.55032
21
2.15189
0
LINE
8
BLACK
6
CONTINUOUS
10
9.55032
20
2.15189
11
9.55405
21
2.16186
0
LINE
8
BLACK
6
CONTINUOUS
10
9.55405
20
2.16186
11
9.61412
21
2.37628
0
LINE
8
BLACK
6
CONTINUOUS
10
9.61412
20
2.37628
11
9.61611
21
2.38672
0
LINE
8
BLACK
6
CONTINUOUS
10
9.61611
20
2.38672
11
9.63228
21
2.54187
0
LINE
8
BLACK
6
CONTINUOUS
10
9.63228
20
2.54187
11
9.63944
21
2.61056
0
LINE
8
BLACK
6
CONTINUOUS
10
9.63944
20
2.61056
11
9.63977
21
2.61647
0
LINE
8
BLACK
6
CONTINUOUS
10
12.6983
20
1.41878
11
12.7077
21
1.41387
0
LINE
8
BLACK
6
CONTINUOUS
10
12.7077
20
1.41387
11
12.9132
21
1.32812
0
LINE
8
BLACK
6
CONTINUOUS
10
12.9132
20
1.32812
11
12.9233
21
1.32486
0
LINE
8
BLACK
6
CONTINUOUS
10
12.9233
20
1.32486
11
13.1404
21
1.27496
0
LINE
8
BLACK
6
CONTINUOUS
10
13.1404
20
1.27496
11
13.1509
21
1.27346
0
LINE
8
BLACK
6
CONTINUOUS
10
13.1509
20
1.27346
11
13.3732
21
1.26084
0
LINE
8
BLACK
6
CONTINUOUS
10
13.3732
20
1.26084
11
13.3838
21
1.26114
0
LINE
8
BLACK
6
CONTINUOUS
10
13.3838
20
1.26114
11
13.6051
21
1.28615
0
LINE
8
BLACK
6
CONTINUOUS
10
13.6051
20
1.28615
11
13.6155
21
1.28823
0
LINE
8
BLACK
6
CONTINUOUS
10
13.6155
20
1.28823
11
13.8294
21
1.35018
0
LINE
8
BLACK
6
CONTINUOUS
10
13.8294
20
1.35018
11
13.8393
21
1.35399
0
LINE
8
BLACK
6
CONTINUOUS
10
13.8393
20
1.35399
11
14.0397
21
1.45108
0
LINE
8
BLACK
6
CONTINUOUS
10
14.0397
20
1.45108
11
14.0489
21
1.4565
0
LINE
8
BLACK
6
CONTINUOUS
10
14.0489
20
1.4565
11
14.1048
21
1.49642
0
LINE
8
BLACK
6
CONTINUOUS
10
14.1048
20
1.49642
11
14.1132
21
1.50715
0
LINE
8
BLACK
6
CONTINUOUS
10
14.1132
20
1.50715
11
14.1062
21
1.52027
0
LINE
8
BLACK
6
CONTINUOUS
10
14.1062
20
1.52027
11
13.9358
21
1.69062
0
LINE
8
BLACK
6
CONTINUOUS
10
13.9358
20
1.69062
11
13.803
21
1.61467
0
LINE
8
BLACK
6
CONTINUOUS
10
13.803
20
1.61467
11
13.6007
21
1.54563
0
LINE
8
BLACK
6
CONTINUOUS
10
13.6007
20
1.54563
11
13.3891
21
1.51607
0
LINE
8
BLACK
6
CONTINUOUS
10
13.3891
20
1.51607
11
13.1757
21
1.52707
0
LINE
8
BLACK
6
CONTINUOUS
10
13.1757
20
1.52707
11
12.9682
21
1.57822
0
LINE
8
BLACK
6
CONTINUOUS
10
12.9682
20
1.57822
11
12.7741
21
1.66769
0
LINE
8
BLACK
6
CONTINUOUS
10
12.7741
20
1.66769
11
12.7433
21
1.68977
0
LINE
8
BLACK
6
CONTINUOUS
10
12.7433
20
1.68977
11
12.5728
21
1.51921
0
LINE
8
BLACK
6
CONTINUOUS
10
12.5728
20
1.51921
11
12.566
21
1.50683
0
LINE
8
BLACK
6
CONTINUOUS
10
12.566
20
1.50683
11
12.5721
21
1.49872
0
LINE
8
BLACK
6
CONTINUOUS
10
12.5721
20
1.49872
11
12.6983
21
1.41878
0
LINE
8
BLACK
6
CONTINUOUS
10
7.61827
20
-3.66121
11
7.62772
21
-3.66613
0
LINE
8
BLACK
6
CONTINUOUS
10
7.62772
20
-3.66613
11
7.83321
21
-3.75188
0
LINE
8
BLACK
6
CONTINUOUS
10
7.83321
20
-3.75188
11
7.84335
21
-3.75514
0
LINE
8
BLACK
6
CONTINUOUS
10
7.84335
20
-3.75514
11
8.06035
21
-3.80504
0
LINE
8
BLACK
6
CONTINUOUS
10
8.06035
20
-3.80504
11
8.07089
21
-3.80654
0
LINE
8
BLACK
6
CONTINUOUS
10
8.07089
20
-3.80654
11
8.2932
21
-3.81916
0
LINE
8
BLACK
6
CONTINUOUS
10
8.2932
20
-3.81916
11
8.30384
21
-3.81886
0
LINE
8
BLACK
6
CONTINUOUS
10
8.30384
20
-3.81886
11
8.52511
21
-3.79385
0
LINE
8
BLACK
6
CONTINUOUS
10
8.52511
20
-3.79385
11
8.53552
21
-3.79177
0
LINE
8
BLACK
6
CONTINUOUS
10
8.53552
20
-3.79177
11
8.74943
21
-3.72982
0
LINE
8
BLACK
6
CONTINUOUS
10
8.74943
20
-3.72982
11
8.75935
21
-3.72601
0
LINE
8
BLACK
6
CONTINUOUS
10
8.75935
20
-3.72601
11
8.95975
21
-3.62892
0
LINE
8
BLACK
6
CONTINUOUS
10
8.95975
20
-3.62892
11
8.96889
21
-3.62349
0
LINE
8
BLACK
6
CONTINUOUS
10
8.96889
20
-3.62349
11
9.02475
21
-3.58358
0
LINE
8
BLACK
6
CONTINUOUS
10
9.02475
20
-3.58358
11
9.0329
21
-3.57317
0
LINE
8
BLACK
6
CONTINUOUS
10
9.0329
20
-3.57317
11
9.03315
21
-3.57285
0
LINE
8
BLACK
6
CONTINUOUS
10
9.03315
20
-3.57285
11
9.02618
21
-3.55973
0
LINE
8
BLACK
6
CONTINUOUS
10
9.02618
20
-3.55973
11
8.85583
21
-3.38938
0
LINE
8
BLACK
6
CONTINUOUS
10
8.85583
20
-3.38938
11
8.72295
21
-3.46533
0
LINE
8
BLACK
6
CONTINUOUS
10
8.72295
20
-3.46533
11
8.52072
21
-3.53437
0
LINE
8
BLACK
6
CONTINUOUS
10
8.52072
20
-3.53437
11
8.30907
21
-3.56393
0
LINE
8
BLACK
6
CONTINUOUS
10
8.30907
20
-3.56393
11
8.09566
21
-3.55293
0
LINE
8
BLACK
6
CONTINUOUS
10
8.09566
20
-3.55293
11
7.88817
21
-3.50178
0
LINE
8
BLACK
6
CONTINUOUS
10
7.88817
20
-3.50178
11
7.6941
21
-3.41231
0
LINE
8
BLACK
6
CONTINUOUS
10
7.6941
20
-3.41231
11
7.66332
21
-3.39023
0
LINE
8
BLACK
6
CONTINUOUS
10
7.66332
20
-3.39023
11
7.49276
21
-3.56079
0
LINE
8
BLACK
6
CONTINUOUS
10
7.49276
20
-3.56079
11
7.486
21
-3.57317
0
LINE
8
BLACK
6
CONTINUOUS
10
7.486
20
-3.57317
11
7.49207
21
-3.58128
0
LINE
8
BLACK
6
CONTINUOUS
10
7.49207
20
-3.58128
11
7.61827
21
-3.66121
0
LINE
8
BLACK
6
CONTINUOUS
10
7.66357
20
-1.49002
11
7.6992
21
-1.46474
0
LINE
8
BLACK
6
CONTINUOUS
10
7.6992
20
-1.46474
11
7.89374
21
-1.37629
0
LINE
8
BLACK
6
CONTINUOUS
10
7.89374
20
-1.37629
11
8.10149
21
-1.32622
0
LINE
8
BLACK
6
CONTINUOUS
10
8.10149
20
-1.32622
11
8.31496
21
-1.31634
0
LINE
8
BLACK
6
CONTINUOUS
10
8.31496
20
-1.31634
11
8.52644
21
-1.34701
0
LINE
8
BLACK
6
CONTINUOUS
10
8.52644
20
-1.34701
11
8.72832
21
-1.41711
0
LINE
8
BLACK
6
CONTINUOUS
10
8.72832
20
-1.41711
11
8.85567
21
-1.49078
0
LINE
8
BLACK
6
CONTINUOUS
10
8.85567
20
-1.49078
11
9.0272
21
-1.31925
0
LINE
8
BLACK
6
CONTINUOUS
10
9.0272
20
-1.31925
11
9.03393
21
-1.30693
0
LINE
8
BLACK
6
CONTINUOUS
10
9.03393
20
-1.30693
11
9.0336
21
-1.3065
0
LINE
8
BLACK
6
CONTINUOUS
10
9.0336
20
-1.3065
11
9.0254
21
-1.29557
0
LINE
8
BLACK
6
CONTINUOUS
10
9.0254
20
-1.29557
11
8.99148
21
-1.27033
0
LINE
8
BLACK
6
CONTINUOUS
10
8.99148
20
-1.27033
11
8.98244
21
-1.26473
0
LINE
8
BLACK
6
CONTINUOUS
10
8.98244
20
-1.26473
11
8.78394
21
-1.16381
0
LINE
8
BLACK
6
CONTINUOUS
10
8.78394
20
-1.16381
11
8.77409
21
-1.15981
0
LINE
8
BLACK
6
CONTINUOUS
10
8.77409
20
-1.15981
11
8.56143
21
-1.09377
0
LINE
8
BLACK
6
CONTINUOUS
10
8.56143
20
-1.09377
11
8.55105
21
-1.09149
0
LINE
8
BLACK
6
CONTINUOUS
10
8.55105
20
-1.09149
11
8.33029
21
-1.06223
0
LINE
8
BLACK
6
CONTINUOUS
10
8.33029
20
-1.06223
11
8.31968
21
-1.06173
0
LINE
8
BLACK
6
CONTINUOUS
10
8.31968
20
-1.06173
11
8.09715
21
-1.07009
0
LINE
8
BLACK
6
CONTINUOUS
10
8.09715
20
-1.07009
11
8.0866
21
-1.07138
0
LINE
8
BLACK
6
CONTINUOUS
10
8.0866
20
-1.07138
11
7.86866
21
-1.11711
0
LINE
8
BLACK
6
CONTINUOUS
10
7.86866
20
-1.11711
11
7.85848
21
-1.12016
0
LINE
8
BLACK
6
CONTINUOUS
10
7.85848
20
-1.12016
11
7.65136
21
-1.20196
0
LINE
8
BLACK
6
CONTINUOUS
10
7.65136
20
-1.20196
11
7.64184
21
-1.20669
0
LINE
8
BLACK
6
CONTINUOUS
10
7.64184
20
-1.20669
11
7.49452
21
-1.29608
0
LINE
8
BLACK
6
CONTINUOUS
10
7.49452
20
-1.29608
11
7.48501
21
-1.3065
0
LINE
8
BLACK
6
CONTINUOUS
10
7.48501
20
-1.3065
11
7.48869
21
-1.31514
0
LINE
8
BLACK
6
CONTINUOUS
10
7.48869
20
-1.31514
11
7.66357
21
-1.49002
0
LINE
8
BLACK
6
CONTINUOUS
10
9.02618
20
1.52027
11
8.85583
21
1.69062
0
LINE
8
BLACK
6
CONTINUOUS
10
8.85583
20
1.69062
11
8.72295
21
1.61467
0
LINE
8
BLACK
6
CONTINUOUS
10
8.72295
20
1.61467
11
8.52072
21
1.54563
0
LINE
8
BLACK
6
CONTINUOUS
10
8.52072
20
1.54563
11
8.30907
21
1.51607
0
LINE
8
BLACK
6
CONTINUOUS
10
8.30907
20
1.51607
11
8.09566
21
1.52707
0
LINE
8
BLACK
6
CONTINUOUS
10
8.09566
20
1.52707
11
7.88817
21
1.57822
0
LINE
8
BLACK
6
CONTINUOUS
10
7.88817
20
1.57822
11
7.6941
21
1.66769
0
LINE
8
BLACK
6
CONTINUOUS
10
7.6941
20
1.66769
11
7.66332
21
1.68977
0
LINE
8
BLACK
6
CONTINUOUS
10
7.66332
20
1.68977
11
7.49276
21
1.51921
0
LINE
8
BLACK
6
CONTINUOUS
10
7.49276
20
1.51921
11
7.486
21
1.50683
0
LINE
8
BLACK
6
CONTINUOUS
10
7.486
20
1.50683
11
7.49207
21
1.49872
0
LINE
8
BLACK
6
CONTINUOUS
10
7.49207
20
1.49872
11
7.61827
21
1.41878
0
LINE
8
BLACK
6
CONTINUOUS
10
7.61827
20
1.41878
11
7.62772
21
1.41387
0
LINE
8
BLACK
6
CONTINUOUS
10
7.62772
20
1.41387
11
7.83321
21
1.32812
0
LINE
8
BLACK
6
CONTINUOUS
10
7.83321
20
1.32812
11
7.84335
21
1.32486
0
LINE
8
BLACK
6
CONTINUOUS
10
7.84335
20
1.32486
11
8.06035
21
1.27496
0
LINE
8
BLACK
6
CONTINUOUS
10
8.06035
20
1.27496
11
8.07089
21
1.27346
0
LINE
8
BLACK
6
CONTINUOUS
10
8.07089
20
1.27346
11
8.2932
21
1.26084
0
LINE
8
BLACK
6
CONTINUOUS
10
8.2932
20
1.26084
11
8.30384
21
1.26114
0
LINE
8
BLACK
6
CONTINUOUS
10
8.30384
20
1.26114
11
8.52511
21
1.28615
0
LINE
8
BLACK
6
CONTINUOUS
10
8.52511
20
1.28615
11
8.53552
21
1.28823
0
LINE
8
BLACK
6
CONTINUOUS
10
8.53552
20
1.28823
11
8.74943
21
1.35018
0
LINE
8
BLACK
6
CONTINUOUS
10
8.74943
20
1.35018
11
8.75935
21
1.35399
0
LINE
8
BLACK
6
CONTINUOUS
10
8.75935
20
1.35399
11
8.95975
21
1.45108
0
LINE
8
BLACK
6
CONTINUOUS
10
8.95975
20
1.45108
11
8.96889
21
1.4565
0
LINE
8
BLACK
6
CONTINUOUS
10
8.96889
20
1.4565
11
9.02475
21
1.49642
0
LINE
8
BLACK
6
CONTINUOUS
10
9.02475
20
1.49642
11
9.0329
21
1.50683
0
LINE
8
BLACK
6
CONTINUOUS
10
9.0329
20
1.50683
11
9.03315
21
1.50715
0
LINE
8
BLACK
6
CONTINUOUS
10
9.03315
20
1.50715
11
9.02618
21
1.52027
0
LINE
8
BLACK
6
CONTINUOUS
10
12.7436
20
3.58998
11
12.7792
21
3.61526
0
LINE
8
BLACK
6
CONTINUOUS
10
12.7792
20
3.61526
11
12.9737
21
3.70371
0
LINE
8
BLACK
6
CONTINUOUS
10
12.9737
20
3.70371
11
13.1815
21
3.75378
0
LINE
8
BLACK
6
CONTINUOUS
10
13.1815
20
3.75378
11
13.395
21
3.76366
0
LINE
8
BLACK
6
CONTINUOUS
10
13.395
20
3.76366
11
13.6064
21
3.73299
0
LINE
8
BLACK
6
CONTINUOUS
10
13.6064
20
3.73299
11
13.8083
21
3.66289
0
LINE
8
BLACK
6
CONTINUOUS
10
13.8083
20
3.66289
11
13.9357
21
3.58922
0
LINE
8
BLACK
6
CONTINUOUS
10
13.9357
20
3.58922
11
14.1072
21
3.76075
0
LINE
8
BLACK
6
CONTINUOUS
10
14.1072
20
3.76075
11
14.1139
21
3.77307
0
LINE
8
BLACK
6
CONTINUOUS
10
14.1139
20
3.77307
11
14.1054
21
3.78443
0
LINE
8
BLACK
6
CONTINUOUS
10
14.1054
20
3.78443
11
14.0715
21
3.80967
0
LINE
8
BLACK
6
CONTINUOUS
10
14.0715
20
3.80967
11
14.0624
21
3.81527
0
LINE
8
BLACK
6
CONTINUOUS
10
14.0624
20
3.81527
11
13.8639
21
3.91619
0
LINE
8
BLACK
6
CONTINUOUS
10
13.8639
20
3.91619
11
13.8541
21
3.92019
0
LINE
8
BLACK
6
CONTINUOUS
10
13.8541
20
3.92019
11
13.6414
21
3.98623
0
LINE
8
BLACK
6
CONTINUOUS
10
13.6414
20
3.98623
11
13.631
21
3.98851
0
LINE
8
BLACK
6
CONTINUOUS
10
13.631
20
3.98851
11
13.4103
21
4.01777
0
LINE
8
BLACK
6
CONTINUOUS
10
13.4103
20
4.01777
11
13.3997
21
4.01827
0
LINE
8
BLACK
6
CONTINUOUS
10
13.3997
20
4.01827
11
13.1772
21
4.00991
0
LINE
8
BLACK
6
CONTINUOUS
10
13.1772
20
4.00991
11
13.1666
21
4.00862
0
LINE
8
BLACK
6
CONTINUOUS
10
13.1666
20
4.00862
11
12.9487
21
3.96289
0
LINE
8
BLACK
6
CONTINUOUS
10
12.9487
20
3.96289
11
12.9385
21
3.95984
0
LINE
8
BLACK
6
CONTINUOUS
10
12.9385
20
3.95984
11
12.7314
21
3.87804
0
LINE
8
BLACK
6
CONTINUOUS
10
12.7314
20
3.87804
11
12.7218
21
3.87331
0
LINE
8
BLACK
6
CONTINUOUS
10
12.7218
20
3.87331
11
12.5745
21
3.78392
0
LINE
8
BLACK
6
CONTINUOUS
10
12.5745
20
3.78392
11
12.565
21
3.7735
0
LINE
8
BLACK
6
CONTINUOUS
10
12.565
20
3.7735
11
12.5687
21
3.76486
0
LINE
8
BLACK
6
CONTINUOUS
10
12.5687
20
3.76486
11
12.7436
21
3.58998
0
LINE
8
BLACK
6
CONTINUOUS
10
8.99148
20
3.80967
11
8.98244
21
3.81527
0
LINE
8
BLACK
6
CONTINUOUS
10
8.98244
20
3.81527
11
8.78394
21
3.91619
0
LINE
8
BLACK
6
CONTINUOUS
10
8.78394
20
3.91619
11
8.77409
21
3.92019
0
LINE
8
BLACK
6
CONTINUOUS
10
8.77409
20
3.92019
11
8.56143
21
3.98623
0
LINE
8
BLACK
6
CONTINUOUS
10
8.56143
20
3.98623
11
8.55105
21
3.98851
0
LINE
8
BLACK
6
CONTINUOUS
10
8.55105
20
3.98851
11
8.33029
21
4.01777
0
LINE
8
BLACK
6
CONTINUOUS
10
8.33029
20
4.01777
11
8.31968
21
4.01827
0
LINE
8
BLACK
6
CONTINUOUS
10
8.31968
20
4.01827
11
8.09715
21
4.00991
0
LINE
8
BLACK
6
CONTINUOUS
10
8.09715
20
4.00991
11
8.0866
21
4.00862
0
LINE
8
BLACK
6
CONTINUOUS
10
8.0866
20
4.00862
11
7.86866
21
3.96289
0
LINE
8
BLACK
6
CONTINUOUS
10
7.86866
20
3.96289
11
7.85848
21
3.95984
0
LINE
8
BLACK
6
CONTINUOUS
10
7.85848
20
3.95984
11
7.65136
21
3.87804
0
LINE
8
BLACK
6
CONTINUOUS
10
7.65136
20
3.87804
11
7.64184
21
3.87331
0
LINE
8
BLACK
6
CONTINUOUS
10
7.64184
20
3.87331
11
7.49452
21
3.78392
0
LINE
8
BLACK
6
CONTINUOUS
10
7.49452
20
3.78392
11
7.48501
21
3.7735
0
LINE
8
BLACK
6
CONTINUOUS
10
7.48501
20
3.7735
11
7.48869
21
3.76486
0
LINE
8
BLACK
6
CONTINUOUS
10
7.48869
20
3.76486
11
7.66357
21
3.58998
0
LINE
8
BLACK
6
CONTINUOUS
10
7.66357
20
3.58998
11
7.6992
21
3.61526
0
LINE
8
BLACK
6
CONTINUOUS
10
7.6992
20
3.61526
11
7.89374
21
3.70371
0
LINE
8
BLACK
6
CONTINUOUS
10
7.89374
20
3.70371
11
8.10149
21
3.75378
0
LINE
8
BLACK
6
CONTINUOUS
10
8.10149
20
3.75378
11
8.31496
21
3.76366
0
LINE
8
BLACK
6
CONTINUOUS
10
8.31496
20
3.76366
11
8.52644
21
3.73299
0
LINE
8
BLACK
6
CONTINUOUS
10
8.52644
20
3.73299
11
8.72832
21
3.66289
0
LINE
8
BLACK
6
CONTINUOUS
10
8.72832
20
3.66289
11
8.85567
21
3.58922
0
LINE
8
BLACK
6
CONTINUOUS
10
8.85567
20
3.58922
11
9.0272
21
3.76075
0
LINE
8
BLACK
6
CONTINUOUS
10
9.0272
20
3.76075
11
9.03393
21
3.77307
0
LINE
8
BLACK
6
CONTINUOUS
10
9.03393
20
3.77307
11
9.0336
21
3.7735
0
LINE
8
BLACK
6
CONTINUOUS
10
9.0336
20
3.7735
11
9.0254
21
3.78443
0
LINE
8
BLACK
6
CONTINUOUS
10
9.0254
20
3.78443
11
8.99148
21
3.80967
0
LINE
8
BLACK
6
CONTINUOUS
10
4.86734
20
1.79519
11
4.87385
21
1.79314
0
LINE
8
BLACK
6
CONTINUOUS
10
4.87385
20
1.79314
11
4.88067
21
1.79287
0
LINE
8
BLACK
6
CONTINUOUS
10
4.88067
20
1.79287
11
4.93471
21
1.77389
0
LINE
8
BLACK
6
CONTINUOUS
10
4.93471
20
1.77389
11
4.98939
21
1.75659
0
LINE
8
BLACK
6
CONTINUOUS
10
4.98939
20
1.75659
11
4.99501
21
1.75271
0
LINE
8
BLACK
6
CONTINUOUS
10
4.99501
20
1.75271
11
5.00144
21
1.75045
0
LINE
8
BLACK
6
CONTINUOUS
10
5.00144
20
1.75045
11
5.04752
21
1.71642
0
LINE
8
BLACK
6
CONTINUOUS
10
5.04752
20
1.71642
11
5.0947
21
1.68381
0
LINE
8
BLACK
6
CONTINUOUS
10
5.0947
20
1.68381
11
5.09892
21
1.67845
0
LINE
8
BLACK
6
CONTINUOUS
10
5.09892
20
1.67845
11
5.10441
21
1.6744
0
LINE
8
BLACK
6
CONTINUOUS
10
5.10441
20
1.6744
11
6.24831
21
0.5305
0
LINE
8
BLACK
6
CONTINUOUS
10
6.24831
20
0.5305
11
9.87257
21
0.5305
0
LINE
8
BLACK
6
CONTINUOUS
10
9.87257
20
0.5305
11
9.95426
21
0.679091
0
LINE
8
BLACK
6
CONTINUOUS
10
9.95426
20
0.679091
11
10.0828
21
0.832334
0
LINE
8
BLACK
6
CONTINUOUS
10
10.0828
20
0.832334
11
10.2387
21
0.957683
0
LINE
8
BLACK
6
CONTINUOUS
10
10.2387
20
0.957683
11
10.416
21
1.05036
0
LINE
8
BLACK
6
CONTINUOUS
10
10.416
20
1.05036
11
10.6079
21
1.10684
0
LINE
8
BLACK
6
CONTINUOUS
10
10.6079
20
1.10684
11
10.8072
21
1.12498
0
LINE
8
BLACK
6
CONTINUOUS
10
10.8072
20
1.12498
11
11.0061
21
1.10406
0
LINE
8
BLACK
6
CONTINUOUS
10
11.0061
20
1.10406
11
11.1972
21
1.04491
0
LINE
8
BLACK
6
CONTINUOUS
10
11.1972
20
1.04491
11
11.3732
21
0.949764
0
LINE
8
BLACK
6
CONTINUOUS
10
11.3732
20
0.949764
11
11.5273
21
0.82225
0
LINE
8
BLACK
6
CONTINUOUS
10
11.5273
20
0.82225
11
11.6537
21
0.667226
0
LINE
8
BLACK
6
CONTINUOUS
10
11.6537
20
0.667226
11
11.7477
21
0.490597
0
LINE
8
BLACK
6
CONTINUOUS
10
11.7477
20
0.490597
11
11.8055
21
0.29909
0
LINE
8
BLACK
6
CONTINUOUS
10
11.8055
20
0.29909
11
11.825
21
0.1
0
LINE
8
BLACK
6
CONTINUOUS
10
11.825
20
0.1
11
11.8246
21
0.07138
0
LINE
8
BLACK
6
CONTINUOUS
10
11.8246
20
0.07138
11
11.7995
21
-0.127087
0
LINE
8
BLACK
6
CONTINUOUS
10
11.7995
20
-0.127087
11
11.7364
21
-0.316905
0
LINE
8
BLACK
6
CONTINUOUS
10
11.7364
20
-0.316905
11
11.6376
21
-0.490843
0
LINE
8
BLACK
6
CONTINUOUS
10
11.6376
20
-0.490843
11
11.5069
21
-0.642276
0
LINE
8
BLACK
6
CONTINUOUS
10
11.5069
20
-0.642276
11
11.3492
21
-0.765436
0
LINE
8
BLACK
6
CONTINUOUS
10
11.3492
20
-0.765436
11
11.1707
21
-0.855632
0
LINE
8
BLACK
6
CONTINUOUS
10
11.1707
20
-0.855632
11
10.978
21
-0.909428
0
LINE
8
BLACK
6
CONTINUOUS
10
10.978
20
-0.909428
11
10.7785
21
-0.924775
0
LINE
8
BLACK
6
CONTINUOUS
10
10.7785
20
-0.924775
11
10.5799
21
-0.901089
0
LINE
8
BLACK
6
CONTINUOUS
10
10.5799
20
-0.901089
11
10.3896
21
-0.839272
0
LINE
8
BLACK
6
CONTINUOUS
10
10.3896
20
-0.839272
11
10.215
21
-0.741678
0
LINE
8
BLACK
6
CONTINUOUS
10
10.215
20
-0.741678
11
10.0627
21
-0.612025
0
LINE
8
BLACK
6
CONTINUOUS
10
10.0627
20
-0.612025
11
9.93842
21
-0.455251
0
LINE
8
BLACK
6
CONTINUOUS
10
9.93842
20
-0.455251
11
9.87431
21
-0.3305
0
LINE
8
BLACK
6
CONTINUOUS
10
9.87431
20
-0.3305
11
6.06999
21
-0.3305
0
LINE
8
BLACK
6
CONTINUOUS
10
6.06999
20
-0.3305
11
6.00265
21
-0.3252
0
LINE
8
BLACK
6
CONTINUOUS
10
6.00265
20
-0.3252
11
5.99614
21
-0.323142
0
LINE
8
BLACK
6
CONTINUOUS
10
5.99614
20
-0.323142
11
5.98933
21
-0.322874
0
LINE
8
BLACK
6
CONTINUOUS
10
5.98933
20
-0.322874
11
5.93526
21
-0.303888
0
LINE
8
BLACK
6
CONTINUOUS
10
5.93526
20
-0.303888
11
5.8806
21
-0.286601
0
LINE
8
BLACK
6
CONTINUOUS
10
5.8806
20
-0.286601
11
5.87499
21
-0.282721
0
LINE
8
BLACK
6
CONTINUOUS
10
5.87499
20
-0.282721
11
5.86855
21
-0.280461
0
LINE
8
BLACK
6
CONTINUOUS
10
5.86855
20
-0.280461
11
5.82245
21
-0.246413
0
LINE
8
BLACK
6
CONTINUOUS
10
5.82245
20
-0.246413
11
5.7753
21
-0.213821
0
LINE
8
BLACK
6
CONTINUOUS
10
5.7753
20
-0.213821
11
5.77107
21
-0.208462
0
LINE
8
BLACK
6
CONTINUOUS
10
5.77107
20
-0.208462
11
5.76558
21
-0.204409
0
LINE
8
BLACK
6
CONTINUOUS
10
5.76558
20
-0.204409
11
4.62168
21
0.939494
0
LINE
8
BLACK
6
CONTINUOUS
10
4.62168
20
0.939494
11
3.31501
21
0.939494
0
LINE
8
BLACK
6
CONTINUOUS
10
3.31501
20
0.939494
11
3.24766
21
0.944794
0
LINE
8
BLACK
6
CONTINUOUS
10
3.24766
20
0.944794
11
3.24115
21
0.946852
0
LINE
8
BLACK
6
CONTINUOUS
10
3.24115
20
0.946852
11
3.23434
21
0.94712
0
LINE
8
BLACK
6
CONTINUOUS
10
3.23434
20
0.94712
11
3.18029
21
0.9661
0
LINE
8
BLACK
6
CONTINUOUS
10
3.18029
20
0.9661
11
3.12561
21
0.983393
0
LINE
8
BLACK
6
CONTINUOUS
10
3.12561
20
0.983393
11
3.12
21
0.987275
0
LINE
8
BLACK
6
CONTINUOUS
10
3.12
20
0.987275
11
3.11356
21
0.989534
0
LINE
8
BLACK
6
CONTINUOUS
10
3.11356
20
0.989534
11
3.11293
21
0.99
0
LINE
8
BLACK
6
CONTINUOUS
10
3.11293
20
0.99
11
2.615
21
0.99
0
LINE
8
BLACK
6
CONTINUOUS
10
2.615
20
0.99
11
2.615
21
1.75
0
LINE
8
BLACK
6
CONTINUOUS
10
2.615
20
1.75
11
3.11983
21
1.75
0
LINE
8
BLACK
6
CONTINUOUS
10
3.11983
20
1.75
11
3.14403
21
1.76509
0
LINE
8
BLACK
6
CONTINUOUS
10
3.14403
20
1.76509
11
3.16704
21
1.77119
0
LINE
8
BLACK
6
CONTINUOUS
10
3.16704
20
1.77119
11
3.18842
21
1.78146
0
LINE
8
BLACK
6
CONTINUOUS
10
3.18842
20
1.78146
11
3.22848
21
1.78749
0
LINE
8
BLACK
6
CONTINUOUS
10
3.22848
20
1.78749
11
3.26776
21
1.7979
0
LINE
8
BLACK
6
CONTINUOUS
10
3.26776
20
1.7979
11
3.29154
21
1.79697
0
LINE
8
BLACK
6
CONTINUOUS
10
3.29154
20
1.79697
11
3.31501
21
1.80049
0
LINE
8
BLACK
6
CONTINUOUS
10
3.31501
20
1.80049
11
4.8
21
1.80049
0
LINE
8
BLACK
6
CONTINUOUS
10
4.8
20
1.80049
11
4.86734
21
1.79519
0
LINE
8
BLACK
6
CONTINUOUS
10
4.015
20
-0.28
11
2.615
21
-0.28
0
LINE
8
BLACK
6
CONTINUOUS
10
2.615
20
-0.28
11
2.615
21
0.48
0
LINE
8
BLACK
6
CONTINUOUS
10
2.615
20
0.48
11
4.015
21
0.48
0
LINE
8
BLACK
6
CONTINUOUS
10
4.015
20
0.48
11
4.015
21
-0.28
0
CIRCLE
8
BLACK
10
6.0576
20
-2.3544
40
0.2
0
CIRCLE
8
BLACK
10
6.4
20
-1.2
40
0.2
0
CIRCLE
8
BLACK
10
10.782
20
2.7256
40
0.2
0
CIRCLE
8
BLACK
10
5
20
-1.2
40
0.2
0
CIRCLE
8
BLACK
10
13.1696
20
0.1856
40
0.2
0
CIRCLE
8
BLACK
10
10.8328
20
-2.5068
40
0.2
0
CIRCLE
8
BLACK
10
5.6004
20
2.2684
40
0.2
0
CIRCLE
8
BLACK
10
1.5
20
3
40
0.2
0
CIRCLE
8
BLACK
10
-0.2416
20
1.2524
40
0.2
0
CIRCLE
8
BLACK
10
10.242
20
10.4152
40
0.2
0
CIRCLE
8
BLACK
10
-8.2868
20
8.3832
40
0.2
0
CIRCLE
8
BLACK
10
-7.2868
20
7.3832
40
0.2
0
CIRCLE
8
BLACK
10
-6.3724
20
8.3484
40
0.2
0
CIRCLE
8
BLACK
10
-7.3724
20
9.3484
40
0.2
0
CIRCLE
8
BLACK
10
-2
20
3
40
0.2
0
CIRCLE
8
BLACK
10
7.242
20
7.4152
40
0.2
0
CIRCLE
8
BLACK
10
5.3276
20
7.3296
40
0.2
0
CIRCLE
8
BLACK
10
-8.3724
20
10.3484
40
0.2
0
CIRCLE
8
BLACK
10
-9.3724
20
11.3484
40
0.2
0
CIRCLE
8
BLACK
10
-10.2868
20
10.3832
40
0.2
0
CIRCLE
8
BLACK
10
8.242
20
8.4152
40
0.2
0
CIRCLE
8
BLACK
10
9.242
20
9.4152
40
0.2
0
CIRCLE
8
BLACK
10
-5.3724
20
7.3484
40
0.2
0
CIRCLE
8
BLACK
10
9.3276
20
11.3296
40
0.2
0
CIRCLE
8
BLACK
10
6.3276
20
8.3296
40
0.2
0
CIRCLE
8
BLACK
10
8.3276
20
10.3296
40
0.2
0
CIRCLE
8
BLACK
10
7.3276
20
9.3296
40
0.2
0
CIRCLE
8
BLACK
10
6.242
20
6.4152
40
0.2
0
CIRCLE
8
BLACK
10
-6.2868
20
6.3832
40
0.2
0
CIRCLE
8
BLACK
10
-9.2868
20
9.3832
40
0.2
0
CIRCLE
8
BLACK
10
-6.2012
20
-6.1804
40
0.2
0
CIRCLE
8
BLACK
10
7.1216
20
-7.1776
40
0.2
0
CIRCLE
8
BLACK
10
-9.2868
20
-11.0948
40
0.2
0
CIRCLE
8
BLACK
10
9.1216
20
-9.1776
40
0.2
0
CIRCLE
8
BLACK
10
-8.2012
20
-8.1804
40
0.2
0
CIRCLE
8
BLACK
10
8.1216
20
-8.1776
40
0.2
0
CIRCLE
8
BLACK
10
-7.2012
20
-7.1804
40
0.2
0
CIRCLE
8
BLACK
10
-9.2012
20
-9.1804
40
0.2
0
CIRCLE
8
BLACK
10
-2
20
-3
40
0.2
0
CIRCLE
8
BLACK
10
6.1216
20
-6.1776
40
0.2
0
CIRCLE
8
BLACK
10
7.3088
20
-9.1428
40
0.2
0
CIRCLE
8
BLACK
10
-8.2868
20
-10.0948
40
0.2
0
CIRCLE
8
BLACK
10
6.3088
20
-8.1428
40
0.2
0
CIRCLE
8
BLACK
10
-0.14
20
-2.202
40
0.2
0
CIRCLE
8
BLACK
10
5.3088
20
-7.1428
40
0.2
0
CIRCLE
8
BLACK
10
8.3088
20
-10.1428
40
0.2
0
CIRCLE
8
BLACK
10
10.1216
20
-10.1776
40
0.2
0
CIRCLE
8
BLACK
10
-7.2868
20
-9.0948
40
0.2
0
CIRCLE
8
BLACK
10
-5.2868
20
-7.0948
40
0.2
0
CIRCLE
8
BLACK
10
-10.2012
20
-10.1804
40
0.2
0
CIRCLE
8
BLACK
10
1.8575
20
-3.1425
40
0.2
0
CIRCLE
8
BLACK
10
9.3088
20
-11.1428
40
0.2
0
CIRCLE
8
BLACK
10
-6.2868
20
-8.0948
40
0.2
0
CIRCLE
8
BLACK
10
4.8
20
1.36999
40
0.2
  0
ENDSEC
  0
EOF
