  0
SECTION
  2
HEADER
  9
$ANGBASE
  50
0.0
  9
$ANGDIR
  70
1
  9
$MEASUREMENT
  70
0
  0
ENDSEC
  0
SECTION
  2
TABLES
  0
TABLE
  2
LTYPE
  70
4
  0
LTYPE
  5
40F
  2
CONTINUOUS
  70
0
  3
Solid line
  72
65
  73
0
  40
0.0
  0
LTYPE
  5
410
  2
DASHDOT
 70
0
  3
Dash Dot ____ _ ____ _
 72
65
 73
4
 40
2.0
 49
1.25
 49
-0.25
 49
0.25
 49
-0.25
  0
LTYPE
  5
411
  2
DASHED
 70
0
  3
Dashed __ __ __ __ __
 72
65
 73
2
 40
0.75
 49
0.5
 49
-0.25
  0
LTYPE
  5
43B
  2
DOTTED
 70
0
  3
Dotted .  .  .  .
 72
65
 73
2
 40
0.2
 49
0.0
 49
-0.2
  0
ENDTAB
  0
TABLE
  2
STYLE
  70
4
  0
STYLE
  2
KICAD
  70
0
  40
0
  41
1
  42
1
  50
0
  71
0
  3
isocp.shx
  0
STYLE
  2
KICADB
  70
0
  40
0
  41
1
  42
1
  50
0
  71
0
  3
isocp.shx
  0
STYLE
  2
KICADI
  70
0
  40
0
  41
1
  42
1
  50
15
  71
0
  3
isocp.shx
  0
STYLE
  2
KICADBI
  70
0
  40
0
  41
1
  42
1
  50
15
  71
0
  3
isocp.shx
  0
ENDTAB
  0
TABLE
  2
LAYER
  70
1
  0
LAYER
  2
BLACK
  70
0
  62
7
  6
CONTINUOUS
  0
ENDTAB
  0
ENDSEC
  0
SECTION
  2
ENTITIES
0
LINE
8
BLACK
6
CONTINUOUS
10
0.00985413
20
-0.410224
11
0.0194656
21
-0.412532
0
LINE
8
BLACK
6
CONTINUOUS
10
0.0194656
20
-0.412532
11
0.0285978
21
-0.416315
0
LINE
8
BLACK
6
CONTINUOUS
10
0.0285978
20
-0.416315
11
0.0370258
21
-0.421479
0
LINE
8
BLACK
6
CONTINUOUS
10
0.0370258
20
-0.421479
11
0.0445422
21
-0.427899
0
LINE
8
BLACK
6
CONTINUOUS
10
0.0445422
20
-0.427899
11
0.0509617
21
-0.435415
0
LINE
8
BLACK
6
CONTINUOUS
10
0.0509617
20
-0.435415
11
0.0561264
21
-0.443843
0
LINE
8
BLACK
6
CONTINUOUS
10
0.0561264
20
-0.443843
11
0.0599091
21
-0.452975
0
LINE
8
BLACK
6
CONTINUOUS
10
0.0599091
20
-0.452975
11
0.0622166
21
-0.462587
0
LINE
8
BLACK
6
CONTINUOUS
10
0.0622166
20
-0.462587
11
0.0629921
21
-0.472441
0
LINE
8
BLACK
6
CONTINUOUS
10
0.0629921
20
-0.472441
11
0.0622166
21
-0.482295
0
LINE
8
BLACK
6
CONTINUOUS
10
0.0622166
20
-0.482295
11
0.0599091
21
-0.491907
0
LINE
8
BLACK
6
CONTINUOUS
10
0.0599091
20
-0.491907
11
0.0561264
21
-0.501039
0
LINE
8
BLACK
6
CONTINUOUS
10
0.0561264
20
-0.501039
11
0.0509617
21
-0.509467
0
LINE
8
BLACK
6
CONTINUOUS
10
0.0509617
20
-0.509467
11
0.0445422
21
-0.516983
0
LINE
8
BLACK
6
CONTINUOUS
10
0.0445422
20
-0.516983
11
0.0370258
21
-0.523403
0
LINE
8
BLACK
6
CONTINUOUS
10
0.0370258
20
-0.523403
11
0.0285978
21
-0.528567
0
LINE
8
BLACK
6
CONTINUOUS
10
0.0285978
20
-0.528567
11
0.0194656
21
-0.53235
0
LINE
8
BLACK
6
CONTINUOUS
10
0.0194656
20
-0.53235
11
0.00985413
21
-0.534658
0
LINE
8
BLACK
6
CONTINUOUS
10
0.00985413
20
-0.534658
11
0
21
-0.535433
0
LINE
8
BLACK
6
CONTINUOUS
10
0
20
-0.535433
11
-0.00985413
21
-0.534658
0
LINE
8
BLACK
6
CONTINUOUS
10
-0.00985413
20
-0.534658
11
-0.0194656
21
-0.53235
0
LINE
8
BLACK
6
CONTINUOUS
10
-0.0194656
20
-0.53235
11
-0.0285978
21
-0.528567
0
LINE
8
BLACK
6
CONTINUOUS
10
-0.0285978
20
-0.528567
11
-0.0370258
21
-0.523403
0
LINE
8
BLACK
6
CONTINUOUS
10
-0.0370258
20
-0.523403
11
-0.0445422
21
-0.516983
0
LINE
8
BLACK
6
CONTINUOUS
10
-0.0445422
20
-0.516983
11
-0.0509617
21
-0.509467
0
LINE
8
BLACK
6
CONTINUOUS
10
-0.0509617
20
-0.509467
11
-0.0561264
21
-0.501039
0
LINE
8
BLACK
6
CONTINUOUS
10
-0.0561264
20
-0.501039
11
-0.0599091
21
-0.491907
0
LINE
8
BLACK
6
CONTINUOUS
10
-0.0599091
20
-0.491907
11
-0.0622166
21
-0.482295
0
LINE
8
BLACK
6
CONTINUOUS
10
-0.0622166
20
-0.482295
11
-0.0629921
21
-0.472441
0
LINE
8
BLACK
6
CONTINUOUS
10
-0.0629921
20
-0.472441
11
-0.0622166
21
-0.462587
0
LINE
8
BLACK
6
CONTINUOUS
10
-0.0622166
20
-0.462587
11
-0.0599091
21
-0.452975
0
LINE
8
BLACK
6
CONTINUOUS
10
-0.0599091
20
-0.452975
11
-0.0561264
21
-0.443843
0
LINE
8
BLACK
6
CONTINUOUS
10
-0.0561264
20
-0.443843
11
-0.0509617
21
-0.435415
0
LINE
8
BLACK
6
CONTINUOUS
10
-0.0509617
20
-0.435415
11
-0.0445422
21
-0.427899
0
LINE
8
BLACK
6
CONTINUOUS
10
-0.0445422
20
-0.427899
11
-0.0370258
21
-0.421479
0
LINE
8
BLACK
6
CONTINUOUS
10
-0.0370258
20
-0.421479
11
-0.0285978
21
-0.416315
0
LINE
8
BLACK
6
CONTINUOUS
10
-0.0285978
20
-0.416315
11
-0.0194656
21
-0.412532
0
LINE
8
BLACK
6
CONTINUOUS
10
-0.0194656
20
-0.412532
11
-0.00985413
21
-0.410224
0
LINE
8
BLACK
6
CONTINUOUS
10
-0.00985413
20
-0.410224
11
0
21
-0.409449
0
LINE
8
BLACK
6
CONTINUOUS
10
0
20
-0.409449
11
0.00985413
21
-0.410224
0
LINE
8
BLACK
6
CONTINUOUS
10
0.162709
20
-0.151925
11
0.17232
21
-0.150795
0
LINE
8
BLACK
6
CONTINUOUS
10
0.17232
20
-0.150795
11
0.181987
21
-0.151251
0
LINE
8
BLACK
6
CONTINUOUS
10
0.181987
20
-0.151251
11
0.19145
21
-0.15328
0
LINE
8
BLACK
6
CONTINUOUS
10
0.19145
20
-0.15328
11
0.200455
21
-0.156827
0
LINE
8
BLACK
6
CONTINUOUS
10
0.200455
20
-0.156827
11
0.208759
21
-0.161797
0
LINE
8
BLACK
6
CONTINUOUS
10
0.208759
20
-0.161797
11
0.21614
21
-0.168056
0
LINE
8
BLACK
6
CONTINUOUS
10
0.21614
20
-0.168056
11
0.411012
21
-0.362928
0
LINE
8
BLACK
6
CONTINUOUS
10
0.411012
20
-0.362928
11
0.412019
21
-0.363961
0
LINE
8
BLACK
6
CONTINUOUS
10
0.412019
20
-0.363961
11
0.418097
21
-0.371493
0
LINE
8
BLACK
6
CONTINUOUS
10
0.418097
20
-0.371493
11
0.422862
21
-0.379916
0
LINE
8
BLACK
6
CONTINUOUS
10
0.422862
20
-0.379916
11
0.426188
21
-0.389004
0
LINE
8
BLACK
6
CONTINUOUS
10
0.426188
20
-0.389004
11
0.427985
21
-0.398514
0
LINE
8
BLACK
6
CONTINUOUS
10
0.427985
20
-0.398514
11
0.428205
21
-0.408189
0
LINE
8
BLACK
6
CONTINUOUS
10
0.428205
20
-0.408189
11
0.426841
21
-0.41777
0
LINE
8
BLACK
6
CONTINUOUS
10
0.426841
20
-0.41777
11
0.423931
21
-0.427
0
LINE
8
BLACK
6
CONTINUOUS
10
0.423931
20
-0.427
11
0.419552
21
-0.435631
0
LINE
8
BLACK
6
CONTINUOUS
10
0.419552
20
-0.435631
11
0.413823
21
-0.44343
0
LINE
8
BLACK
6
CONTINUOUS
10
0.413823
20
-0.44343
11
0.406897
21
-0.450189
0
LINE
8
BLACK
6
CONTINUOUS
10
0.406897
20
-0.450189
11
0.398959
21
-0.455726
0
LINE
8
BLACK
6
CONTINUOUS
10
0.398959
20
-0.455726
11
0.390224
21
-0.459893
0
LINE
8
BLACK
6
CONTINUOUS
10
0.390224
20
-0.459893
11
0.380926
21
-0.462576
0
LINE
8
BLACK
6
CONTINUOUS
10
0.380926
20
-0.462576
11
0.371314
21
-0.463706
0
LINE
8
BLACK
6
CONTINUOUS
10
0.371314
20
-0.463706
11
0.361647
21
-0.46325
0
LINE
8
BLACK
6
CONTINUOUS
10
0.361647
20
-0.46325
11
0.352185
21
-0.461221
0
LINE
8
BLACK
6
CONTINUOUS
10
0.352185
20
-0.461221
11
0.34318
21
-0.457674
0
LINE
8
BLACK
6
CONTINUOUS
10
0.34318
20
-0.457674
11
0.334876
21
-0.452704
0
LINE
8
BLACK
6
CONTINUOUS
10
0.334876
20
-0.452704
11
0.327495
21
-0.446445
0
LINE
8
BLACK
6
CONTINUOUS
10
0.327495
20
-0.446445
11
0.132623
21
-0.251573
0
LINE
8
BLACK
6
CONTINUOUS
10
0.132623
20
-0.251573
11
0.131615
21
-0.25054
0
LINE
8
BLACK
6
CONTINUOUS
10
0.131615
20
-0.25054
11
0.125538
21
-0.243008
0
LINE
8
BLACK
6
CONTINUOUS
10
0.125538
20
-0.243008
11
0.120773
21
-0.234585
0
LINE
8
BLACK
6
CONTINUOUS
10
0.120773
20
-0.234585
11
0.118025
21
-0.227077
0
LINE
8
BLACK
6
CONTINUOUS
10
0.118025
20
-0.227077
11
0.0438991
21
-0.152951
0
LINE
8
BLACK
6
CONTINUOUS
10
0.0438991
20
-0.152951
11
-0.00452756
21
-0.104525
0
LINE
8
BLACK
6
CONTINUOUS
10
-0.00452756
20
-0.104525
11
-0.115739
21
-0.215736
0
LINE
8
BLACK
6
CONTINUOUS
10
-0.115739
20
-0.215736
11
-0.115818
21
-0.217421
0
LINE
8
BLACK
6
CONTINUOUS
10
-0.115818
20
-0.217421
11
-0.117847
21
-0.226883
0
LINE
8
BLACK
6
CONTINUOUS
10
-0.117847
20
-0.226883
11
-0.121394
21
-0.235888
0
LINE
8
BLACK
6
CONTINUOUS
10
-0.121394
20
-0.235888
11
-0.126364
21
-0.244192
0
LINE
8
BLACK
6
CONTINUOUS
10
-0.126364
20
-0.244192
11
-0.132623
21
-0.251573
0
LINE
8
BLACK
6
CONTINUOUS
10
-0.132623
20
-0.251573
11
-0.327495
21
-0.446445
0
LINE
8
BLACK
6
CONTINUOUS
10
-0.327495
20
-0.446445
11
-0.328528
21
-0.447453
0
LINE
8
BLACK
6
CONTINUOUS
10
-0.328528
20
-0.447453
11
-0.33606
21
-0.45353
0
LINE
8
BLACK
6
CONTINUOUS
10
-0.33606
20
-0.45353
11
-0.344483
21
-0.458295
0
LINE
8
BLACK
6
CONTINUOUS
10
-0.344483
20
-0.458295
11
-0.353571
21
-0.461621
0
LINE
8
BLACK
6
CONTINUOUS
10
-0.353571
20
-0.461621
11
-0.363081
21
-0.463418
0
LINE
8
BLACK
6
CONTINUOUS
10
-0.363081
20
-0.463418
11
-0.372756
21
-0.463638
0
LINE
8
BLACK
6
CONTINUOUS
10
-0.372756
20
-0.463638
11
-0.382337
21
-0.462274
0
LINE
8
BLACK
6
CONTINUOUS
10
-0.382337
20
-0.462274
11
-0.391567
21
-0.459364
0
LINE
8
BLACK
6
CONTINUOUS
10
-0.391567
20
-0.459364
11
-0.400197
21
-0.454985
0
LINE
8
BLACK
6
CONTINUOUS
10
-0.400197
20
-0.454985
11
-0.407997
21
-0.449256
0
LINE
8
BLACK
6
CONTINUOUS
10
-0.407997
20
-0.449256
11
-0.414756
21
-0.44233
0
LINE
8
BLACK
6
CONTINUOUS
10
-0.414756
20
-0.44233
11
-0.420293
21
-0.434392
0
LINE
8
BLACK
6
CONTINUOUS
10
-0.420293
20
-0.434392
11
-0.42446
21
-0.425657
0
LINE
8
BLACK
6
CONTINUOUS
10
-0.42446
20
-0.425657
11
-0.427143
21
-0.416359
0
LINE
8
BLACK
6
CONTINUOUS
10
-0.427143
20
-0.416359
11
-0.428273
21
-0.406747
0
LINE
8
BLACK
6
CONTINUOUS
10
-0.428273
20
-0.406747
11
-0.427817
21
-0.397081
0
LINE
8
BLACK
6
CONTINUOUS
10
-0.427817
20
-0.397081
11
-0.425788
21
-0.387618
0
LINE
8
BLACK
6
CONTINUOUS
10
-0.425788
20
-0.387618
11
-0.422241
21
-0.378613
0
LINE
8
BLACK
6
CONTINUOUS
10
-0.422241
20
-0.378613
11
-0.417271
21
-0.370309
0
LINE
8
BLACK
6
CONTINUOUS
10
-0.417271
20
-0.370309
11
-0.411012
21
-0.362928
0
LINE
8
BLACK
6
CONTINUOUS
10
-0.411012
20
-0.362928
11
-0.21614
21
-0.168056
0
LINE
8
BLACK
6
CONTINUOUS
10
-0.21614
20
-0.168056
11
-0.215107
21
-0.167049
0
LINE
8
BLACK
6
CONTINUOUS
10
-0.215107
20
-0.167049
11
-0.207575
21
-0.160971
0
LINE
8
BLACK
6
CONTINUOUS
10
-0.207575
20
-0.160971
11
-0.199152
21
-0.156206
0
LINE
8
BLACK
6
CONTINUOUS
10
-0.199152
20
-0.156206
11
-0.190064
21
-0.15288
0
LINE
8
BLACK
6
CONTINUOUS
10
-0.190064
20
-0.15288
11
-0.180554
21
-0.151083
0
LINE
8
BLACK
6
CONTINUOUS
10
-0.180554
20
-0.151083
11
-0.170879
21
-0.150863
0
LINE
8
BLACK
6
CONTINUOUS
10
-0.170879
20
-0.150863
11
-0.168174
21
-0.151248
0
LINE
8
BLACK
6
CONTINUOUS
10
-0.168174
20
-0.151248
11
-0.0337584
21
-0.0168322
0
LINE
8
BLACK
6
CONTINUOUS
10
-0.0337584
20
-0.0168322
11
-0.0335598
21
-0.0166363
0
LINE
8
BLACK
6
CONTINUOUS
10
-0.0335598
20
-0.0166363
11
-0.0335535
21
-0.0166289
0
LINE
8
BLACK
6
CONTINUOUS
10
-0.0335535
20
-0.0166289
11
-0.033546
21
-0.0166228
0
LINE
8
BLACK
6
CONTINUOUS
10
-0.033546
20
-0.0166228
11
-0.0333474
21
-0.016427
0
LINE
8
BLACK
6
CONTINUOUS
10
-0.0333474
20
-0.016427
11
-0.0303024
21
-0.0139962
0
LINE
8
BLACK
6
CONTINUOUS
10
-0.0303024
20
-0.0139962
11
-0.0272836
21
-0.0115516
0
LINE
8
BLACK
6
CONTINUOUS
10
-0.0272836
20
-0.0115516
11
-0.0271555
21
-0.011484
0
LINE
8
BLACK
6
CONTINUOUS
10
-0.0271555
20
-0.011484
11
-0.0270422
21
-0.0113936
0
LINE
8
BLACK
6
CONTINUOUS
10
-0.0270422
20
-0.0113936
11
-0.0235861
21
-0.00960213
0
LINE
8
BLACK
6
CONTINUOUS
10
-0.0235861
20
-0.00960213
11
-0.0201469
21
-0.00778886
0
LINE
8
BLACK
6
CONTINUOUS
10
-0.0201469
20
-0.00778886
11
-0.0200082
21
-0.00774748
0
LINE
8
BLACK
6
CONTINUOUS
10
-0.0200082
20
-0.00774748
11
-0.0198794
21
-0.00768075
0
LINE
8
BLACK
6
CONTINUOUS
10
-0.0198794
20
-0.00768075
11
-0.0161419
21
-0.00659492
0
LINE
8
BLACK
6
CONTINUOUS
10
-0.0161419
20
-0.00659492
11
-0.0124153
21
-0.00548394
0
LINE
8
BLACK
6
CONTINUOUS
10
-0.0124153
20
-0.00548394
11
-0.012271
21
-0.00547031
0
LINE
8
BLACK
6
CONTINUOUS
10
-0.012271
20
-0.00547031
11
-0.0121319
21
-0.00542988
0
LINE
8
BLACK
6
CONTINUOUS
10
-0.0121319
20
-0.00542988
11
-0.00825685
21
-0.00509087
0
LINE
8
BLACK
6
CONTINUOUS
10
-0.00825685
20
-0.00509087
11
-0.00438331
21
-0.00472469
0
LINE
8
BLACK
6
CONTINUOUS
10
-0.00438331
20
-0.00472469
11
-0.00423913
21
-0.00473933
0
LINE
8
BLACK
6
CONTINUOUS
10
-0.00423913
20
-0.00473933
11
-0.00409472
21
-0.00472669
0
LINE
8
BLACK
6
CONTINUOUS
10
-0.00409472
20
-0.00472669
11
-0.000226654
21
-0.00514689
0
LINE
8
BLACK
6
CONTINUOUS
10
-0.000226654
20
-0.00514689
11
0.00364331
21
-0.00554
0
LINE
8
BLACK
6
CONTINUOUS
10
0.00364331
20
-0.00554
11
0.00378193
21
-0.00558236
0
LINE
8
BLACK
6
CONTINUOUS
10
0.00378193
20
-0.00558236
11
0.00392602
21
-0.00559803
0
LINE
8
BLACK
6
CONTINUOUS
10
0.00392602
20
-0.00559803
11
0.00763799
21
-0.0067613
0
LINE
8
BLACK
6
CONTINUOUS
10
0.00763799
20
-0.0067613
11
0.0113586
21
-0.00789882
0
LINE
8
BLACK
6
CONTINUOUS
10
0.0113586
20
-0.00789882
11
0.0114864
21
-0.00796732
0
LINE
8
BLACK
6
CONTINUOUS
10
0.0114864
20
-0.00796732
11
0.0116247
21
-0.00801067
0
LINE
8
BLACK
6
CONTINUOUS
10
0.0116247
20
-0.00801067
11
0.01504
21
-0.00987272
0
LINE
8
BLACK
6
CONTINUOUS
10
0.01504
20
-0.00987272
11
0.0184689
21
-0.0117113
0
LINE
8
BLACK
6
CONTINUOUS
10
0.0184689
20
-0.0117113
11
0.0185809
21
-0.0118033
0
LINE
8
BLACK
6
CONTINUOUS
10
0.0185809
20
-0.0118033
11
0.0187081
21
-0.0118727
0
LINE
8
BLACK
6
CONTINUOUS
10
0.0187081
20
-0.0118727
11
0.0216943
21
-0.0143606
0
LINE
8
BLACK
6
CONTINUOUS
10
0.0216943
20
-0.0143606
11
0.0247032
21
-0.0168322
0
LINE
8
BLACK
6
CONTINUOUS
10
0.0247032
20
-0.0168322
11
0.160448
21
-0.152577
0
LINE
8
BLACK
6
CONTINUOUS
10
0.160448
20
-0.152577
11
0.162709
21
-0.151925
0
LINE
8
BLACK
6
CONTINUOUS
10
-0.462587
20
0.0622166
11
-0.452975
21
0.0599091
0
LINE
8
BLACK
6
CONTINUOUS
10
-0.452975
20
0.0599091
11
-0.443843
21
0.0561264
0
LINE
8
BLACK
6
CONTINUOUS
10
-0.443843
20
0.0561264
11
-0.435415
21
0.0509617
0
LINE
8
BLACK
6
CONTINUOUS
10
-0.435415
20
0.0509617
11
-0.427899
21
0.0445422
0
LINE
8
BLACK
6
CONTINUOUS
10
-0.427899
20
0.0445422
11
-0.421479
21
0.0370258
0
LINE
8
BLACK
6
CONTINUOUS
10
-0.421479
20
0.0370258
11
-0.416315
21
0.0285978
0
LINE
8
BLACK
6
CONTINUOUS
10
-0.416315
20
0.0285978
11
-0.412532
21
0.0194656
0
LINE
8
BLACK
6
CONTINUOUS
10
-0.412532
20
0.0194656
11
-0.410224
21
0.00985413
0
LINE
8
BLACK
6
CONTINUOUS
10
-0.410224
20
0.00985413
11
-0.409449
21
0
0
LINE
8
BLACK
6
CONTINUOUS
10
-0.409449
20
0
11
-0.410224
21
-0.00985413
0
LINE
8
BLACK
6
CONTINUOUS
10
-0.410224
20
-0.00985413
11
-0.412532
21
-0.0194656
0
LINE
8
BLACK
6
CONTINUOUS
10
-0.412532
20
-0.0194656
11
-0.416315
21
-0.0285978
0
LINE
8
BLACK
6
CONTINUOUS
10
-0.416315
20
-0.0285978
11
-0.421479
21
-0.0370258
0
LINE
8
BLACK
6
CONTINUOUS
10
-0.421479
20
-0.0370258
11
-0.427899
21
-0.0445422
0
LINE
8
BLACK
6
CONTINUOUS
10
-0.427899
20
-0.0445422
11
-0.435415
21
-0.0509617
0
LINE
8
BLACK
6
CONTINUOUS
10
-0.435415
20
-0.0509617
11
-0.443843
21
-0.0561264
0
LINE
8
BLACK
6
CONTINUOUS
10
-0.443843
20
-0.0561264
11
-0.452975
21
-0.0599091
0
LINE
8
BLACK
6
CONTINUOUS
10
-0.452975
20
-0.0599091
11
-0.462587
21
-0.0622166
0
LINE
8
BLACK
6
CONTINUOUS
10
-0.462587
20
-0.0622166
11
-0.472441
21
-0.0629921
0
LINE
8
BLACK
6
CONTINUOUS
10
-0.472441
20
-0.0629921
11
-0.482295
21
-0.0622166
0
LINE
8
BLACK
6
CONTINUOUS
10
-0.482295
20
-0.0622166
11
-0.491907
21
-0.0599091
0
LINE
8
BLACK
6
CONTINUOUS
10
-0.491907
20
-0.0599091
11
-0.501039
21
-0.0561264
0
LINE
8
BLACK
6
CONTINUOUS
10
-0.501039
20
-0.0561264
11
-0.509467
21
-0.0509617
0
LINE
8
BLACK
6
CONTINUOUS
10
-0.509467
20
-0.0509617
11
-0.516983
21
-0.0445422
0
LINE
8
BLACK
6
CONTINUOUS
10
-0.516983
20
-0.0445422
11
-0.523403
21
-0.0370258
0
LINE
8
BLACK
6
CONTINUOUS
10
-0.523403
20
-0.0370258
11
-0.528567
21
-0.0285978
0
LINE
8
BLACK
6
CONTINUOUS
10
-0.528567
20
-0.0285978
11
-0.53235
21
-0.0194656
0
LINE
8
BLACK
6
CONTINUOUS
10
-0.53235
20
-0.0194656
11
-0.534658
21
-0.00985413
0
LINE
8
BLACK
6
CONTINUOUS
10
-0.534658
20
-0.00985413
11
-0.535433
21
0
0
LINE
8
BLACK
6
CONTINUOUS
10
-0.535433
20
0
11
-0.534658
21
0.00985413
0
LINE
8
BLACK
6
CONTINUOUS
10
-0.534658
20
0.00985413
11
-0.53235
21
0.0194656
0
LINE
8
BLACK
6
CONTINUOUS
10
-0.53235
20
0.0194656
11
-0.528567
21
0.0285978
0
LINE
8
BLACK
6
CONTINUOUS
10
-0.528567
20
0.0285978
11
-0.523403
21
0.0370258
0
LINE
8
BLACK
6
CONTINUOUS
10
-0.523403
20
0.0370258
11
-0.516983
21
0.0445422
0
LINE
8
BLACK
6
CONTINUOUS
10
-0.516983
20
0.0445422
11
-0.509467
21
0.0509617
0
LINE
8
BLACK
6
CONTINUOUS
10
-0.509467
20
0.0509617
11
-0.501039
21
0.0561264
0
LINE
8
BLACK
6
CONTINUOUS
10
-0.501039
20
0.0561264
11
-0.491907
21
0.0599091
0
LINE
8
BLACK
6
CONTINUOUS
10
-0.491907
20
0.0599091
11
-0.482295
21
0.0622166
0
LINE
8
BLACK
6
CONTINUOUS
10
-0.482295
20
0.0622166
11
-0.472441
21
0.0629921
0
LINE
8
BLACK
6
CONTINUOUS
10
-0.472441
20
0.0629921
11
-0.462587
21
0.0622166
0
LINE
8
BLACK
6
CONTINUOUS
10
-0.361647
20
0.471124
11
-0.352185
21
0.469095
0
LINE
8
BLACK
6
CONTINUOUS
10
-0.352185
20
0.469095
11
-0.34318
21
0.465548
0
LINE
8
BLACK
6
CONTINUOUS
10
-0.34318
20
0.465548
11
-0.334876
21
0.460578
0
LINE
8
BLACK
6
CONTINUOUS
10
-0.334876
20
0.460578
11
-0.327495
21
0.454319
0
LINE
8
BLACK
6
CONTINUOUS
10
-0.327495
20
0.454319
11
-0.132623
21
0.259447
0
LINE
8
BLACK
6
CONTINUOUS
10
-0.132623
20
0.259447
11
-0.131615
21
0.258414
0
LINE
8
BLACK
6
CONTINUOUS
10
-0.131615
20
0.258414
11
-0.125538
21
0.250882
0
LINE
8
BLACK
6
CONTINUOUS
10
-0.125538
20
0.250882
11
-0.120773
21
0.242459
0
LINE
8
BLACK
6
CONTINUOUS
10
-0.120773
20
0.242459
11
-0.117447
21
0.233371
0
LINE
8
BLACK
6
CONTINUOUS
10
-0.117447
20
0.233371
11
-0.11565
21
0.223861
0
LINE
8
BLACK
6
CONTINUOUS
10
-0.11565
20
0.223861
11
-0.1155
21
0.217269
0
LINE
8
BLACK
6
CONTINUOUS
10
-0.1155
20
0.217269
11
-0.00757874
21
0.109347
0
LINE
8
BLACK
6
CONTINUOUS
10
-0.00757874
20
0.109347
11
0.117857
21
0.234783
0
LINE
8
BLACK
6
CONTINUOUS
10
0.117857
20
0.234783
11
0.121394
21
0.243762
0
LINE
8
BLACK
6
CONTINUOUS
10
0.121394
20
0.243762
11
0.126364
21
0.252066
0
LINE
8
BLACK
6
CONTINUOUS
10
0.126364
20
0.252066
11
0.132623
21
0.259447
0
LINE
8
BLACK
6
CONTINUOUS
10
0.132623
20
0.259447
11
0.327495
21
0.454319
0
LINE
8
BLACK
6
CONTINUOUS
10
0.327495
20
0.454319
11
0.328528
21
0.455327
0
LINE
8
BLACK
6
CONTINUOUS
10
0.328528
20
0.455327
11
0.33606
21
0.461404
0
LINE
8
BLACK
6
CONTINUOUS
10
0.33606
20
0.461404
11
0.344483
21
0.466169
0
LINE
8
BLACK
6
CONTINUOUS
10
0.344483
20
0.466169
11
0.353571
21
0.469495
0
LINE
8
BLACK
6
CONTINUOUS
10
0.353571
20
0.469495
11
0.36308
21
0.471292
0
LINE
8
BLACK
6
CONTINUOUS
10
0.36308
20
0.471292
11
0.372756
21
0.471512
0
LINE
8
BLACK
6
CONTINUOUS
10
0.372756
20
0.471512
11
0.382337
21
0.470148
0
LINE
8
BLACK
6
CONTINUOUS
10
0.382337
20
0.470148
11
0.391567
21
0.467238
0
LINE
8
BLACK
6
CONTINUOUS
10
0.391567
20
0.467238
11
0.400197
21
0.462859
0
LINE
8
BLACK
6
CONTINUOUS
10
0.400197
20
0.462859
11
0.407997
21
0.45713
0
LINE
8
BLACK
6
CONTINUOUS
10
0.407997
20
0.45713
11
0.414756
21
0.450204
0
LINE
8
BLACK
6
CONTINUOUS
10
0.414756
20
0.450204
11
0.420293
21
0.442266
0
LINE
8
BLACK
6
CONTINUOUS
10
0.420293
20
0.442266
11
0.42446
21
0.433531
0
LINE
8
BLACK
6
CONTINUOUS
10
0.42446
20
0.433531
11
0.427143
21
0.424233
0
LINE
8
BLACK
6
CONTINUOUS
10
0.427143
20
0.424233
11
0.428273
21
0.414621
0
LINE
8
BLACK
6
CONTINUOUS
10
0.428273
20
0.414621
11
0.427817
21
0.404954
0
LINE
8
BLACK
6
CONTINUOUS
10
0.427817
20
0.404954
11
0.425788
21
0.395492
0
LINE
8
BLACK
6
CONTINUOUS
10
0.425788
20
0.395492
11
0.422241
21
0.386487
0
LINE
8
BLACK
6
CONTINUOUS
10
0.422241
20
0.386487
11
0.417271
21
0.378183
0
LINE
8
BLACK
6
CONTINUOUS
10
0.417271
20
0.378183
11
0.411012
21
0.370802
0
LINE
8
BLACK
6
CONTINUOUS
10
0.411012
20
0.370802
11
0.21614
21
0.17593
0
LINE
8
BLACK
6
CONTINUOUS
10
0.21614
20
0.17593
11
0.215107
21
0.174923
0
LINE
8
BLACK
6
CONTINUOUS
10
0.215107
20
0.174923
11
0.207575
21
0.168845
0
LINE
8
BLACK
6
CONTINUOUS
10
0.207575
20
0.168845
11
0.199152
21
0.16408
0
LINE
8
BLACK
6
CONTINUOUS
10
0.199152
20
0.16408
11
0.190064
21
0.160754
0
LINE
8
BLACK
6
CONTINUOUS
10
0.190064
20
0.160754
11
0.180554
21
0.158957
0
LINE
8
BLACK
6
CONTINUOUS
10
0.180554
20
0.158957
11
0.170879
21
0.158737
0
LINE
8
BLACK
6
CONTINUOUS
10
0.170879
20
0.158737
11
0.161298
21
0.160101
0
LINE
8
BLACK
6
CONTINUOUS
10
0.161298
20
0.160101
11
0.160386
21
0.160389
0
LINE
8
BLACK
6
CONTINUOUS
10
0.160386
20
0.160389
11
0.0247032
21
0.0247062
0
LINE
8
BLACK
6
CONTINUOUS
10
0.0247032
20
0.0247062
11
0.0246058
21
0.0246102
0
LINE
8
BLACK
6
CONTINUOUS
10
0.0246058
20
0.0246102
11
0.024601
21
0.0246044
0
LINE
8
BLACK
6
CONTINUOUS
10
0.024601
20
0.0246044
11
0.0245948
21
0.0245993
0
LINE
8
BLACK
6
CONTINUOUS
10
0.0245948
20
0.0245993
11
0.0242922
21
0.0243009
0
LINE
8
BLACK
6
CONTINUOUS
10
0.0242922
20
0.0243009
11
0.021309
21
0.0219194
0
LINE
8
BLACK
6
CONTINUOUS
10
0.021309
20
0.0219194
11
0.0183489
21
0.0195052
0
LINE
8
BLACK
6
CONTINUOUS
10
0.0183489
20
0.0195052
11
0.0181568
21
0.0194031
0
LINE
8
BLACK
6
CONTINUOUS
10
0.0181568
20
0.0194031
11
0.017987
21
0.0192676
0
LINE
8
BLACK
6
CONTINUOUS
10
0.017987
20
0.0192676
11
0.014598
21
0.0175109
0
LINE
8
BLACK
6
CONTINUOUS
10
0.014598
20
0.0175109
11
0.0112254
21
0.0157176
0
LINE
8
BLACK
6
CONTINUOUS
10
0.0112254
20
0.0157176
11
0.0110172
21
0.0156548
0
LINE
8
BLACK
6
CONTINUOUS
10
0.0110172
20
0.0156548
11
0.0108243
21
0.0155547
0
LINE
8
BLACK
6
CONTINUOUS
10
0.0108243
20
0.0155547
11
0.00715909
21
0.0144899
0
LINE
8
BLACK
6
CONTINUOUS
10
0.00715909
20
0.0144899
11
0.00350181
21
0.0133857
0
LINE
8
BLACK
6
CONTINUOUS
10
0.00350181
20
0.0133857
11
0.00328524
21
0.0133645
0
LINE
8
BLACK
6
CONTINUOUS
10
0.00328524
20
0.0133645
11
0.00307673
21
0.0133039
0
LINE
8
BLACK
6
CONTINUOUS
10
0.00307673
20
0.0133039
11
-0.000724409
21
0.0129713
0
LINE
8
BLACK
6
CONTINUOUS
10
-0.000724409
20
0.0129713
11
-0.00452756
21
0.0125984
0
LINE
8
BLACK
6
CONTINUOUS
10
-0.00452756
20
0.0125984
11
-0.0106299
21
0.0125984
0
LINE
8
BLACK
6
CONTINUOUS
10
-0.0106299
20
0.0125984
11
-0.0107671
21
0.0125994
0
LINE
8
BLACK
6
CONTINUOUS
10
-0.0107671
20
0.0125994
11
-0.0107743
21
0.0125987
0
LINE
8
BLACK
6
CONTINUOUS
10
-0.0107743
20
0.0125987
11
-0.010782
21
0.0125995
0
LINE
8
BLACK
6
CONTINUOUS
10
-0.010782
20
0.0125995
11
-0.0112071
21
0.0126024
0
LINE
8
BLACK
6
CONTINUOUS
10
-0.0112071
20
0.0126024
11
-0.0150046
21
0.0130284
0
LINE
8
BLACK
6
CONTINUOUS
10
-0.0150046
20
0.0130284
11
-0.0188008
21
0.013414
0
LINE
8
BLACK
6
CONTINUOUS
10
-0.0188008
20
0.013414
11
-0.0190086
21
0.0134775
0
LINE
8
BLACK
6
CONTINUOUS
10
-0.0190086
20
0.0134775
11
-0.0192247
21
0.0135018
0
LINE
8
BLACK
6
CONTINUOUS
10
-0.0192247
20
0.0135018
11
-0.0228658
21
0.0146568
0
LINE
8
BLACK
6
CONTINUOUS
10
-0.0228658
20
0.0146568
11
-0.0265162
21
0.0157728
0
LINE
8
BLACK
6
CONTINUOUS
10
-0.0265162
20
0.0157728
11
-0.0267077
21
0.0158755
0
LINE
8
BLACK
6
CONTINUOUS
10
-0.0267077
20
0.0158755
11
-0.0269149
21
0.0159413
0
LINE
8
BLACK
6
CONTINUOUS
10
-0.0269149
20
0.0159413
11
-0.0302613
21
0.017781
0
LINE
8
BLACK
6
CONTINUOUS
10
-0.0302613
20
0.017781
11
-0.0336264
21
0.0195853
0
LINE
8
BLACK
6
CONTINUOUS
10
-0.0336264
20
0.0195853
11
-0.0337944
21
0.0197233
0
LINE
8
BLACK
6
CONTINUOUS
10
-0.0337944
20
0.0197233
11
-0.0339848
21
0.019828
0
LINE
8
BLACK
6
CONTINUOUS
10
-0.0339848
20
0.019828
11
-0.0369104
21
0.0222828
0
LINE
8
BLACK
6
CONTINUOUS
10
-0.0369104
20
0.0222828
11
-0.0398607
21
0.0247063
0
LINE
8
BLACK
6
CONTINUOUS
10
-0.0398607
20
0.0247063
11
-0.173898
21
0.158744
0
LINE
8
BLACK
6
CONTINUOUS
10
-0.173898
20
0.158744
11
-0.181987
21
0.159125
0
LINE
8
BLACK
6
CONTINUOUS
10
-0.181987
20
0.159125
11
-0.19145
21
0.161154
0
LINE
8
BLACK
6
CONTINUOUS
10
-0.19145
20
0.161154
11
-0.200455
21
0.164701
0
LINE
8
BLACK
6
CONTINUOUS
10
-0.200455
20
0.164701
11
-0.208759
21
0.169671
0
LINE
8
BLACK
6
CONTINUOUS
10
-0.208759
20
0.169671
11
-0.21614
21
0.17593
0
LINE
8
BLACK
6
CONTINUOUS
10
-0.21614
20
0.17593
11
-0.411012
21
0.370802
0
LINE
8
BLACK
6
CONTINUOUS
10
-0.411012
20
0.370802
11
-0.412019
21
0.371835
0
LINE
8
BLACK
6
CONTINUOUS
10
-0.412019
20
0.371835
11
-0.418097
21
0.379367
0
LINE
8
BLACK
6
CONTINUOUS
10
-0.418097
20
0.379367
11
-0.422862
21
0.38779
0
LINE
8
BLACK
6
CONTINUOUS
10
-0.422862
20
0.38779
11
-0.426188
21
0.396878
0
LINE
8
BLACK
6
CONTINUOUS
10
-0.426188
20
0.396878
11
-0.427985
21
0.406388
0
LINE
8
BLACK
6
CONTINUOUS
10
-0.427985
20
0.406388
11
-0.428205
21
0.416063
0
LINE
8
BLACK
6
CONTINUOUS
10
-0.428205
20
0.416063
11
-0.426841
21
0.425644
0
LINE
8
BLACK
6
CONTINUOUS
10
-0.426841
20
0.425644
11
-0.423931
21
0.434874
0
LINE
8
BLACK
6
CONTINUOUS
10
-0.423931
20
0.434874
11
-0.419552
21
0.443505
0
LINE
8
BLACK
6
CONTINUOUS
10
-0.419552
20
0.443505
11
-0.413823
21
0.451304
0
LINE
8
BLACK
6
CONTINUOUS
10
-0.413823
20
0.451304
11
-0.406897
21
0.458063
0
LINE
8
BLACK
6
CONTINUOUS
10
-0.406897
20
0.458063
11
-0.398959
21
0.4636
0
LINE
8
BLACK
6
CONTINUOUS
10
-0.398959
20
0.4636
11
-0.390224
21
0.467767
0
LINE
8
BLACK
6
CONTINUOUS
10
-0.390224
20
0.467767
11
-0.380926
21
0.470451
0
LINE
8
BLACK
6
CONTINUOUS
10
-0.380926
20
0.470451
11
-0.371314
21
0.47158
0
LINE
8
BLACK
6
CONTINUOUS
10
-0.371314
20
0.47158
11
-0.361647
21
0.471124
0
LINE
8
BLACK
6
CONTINUOUS
10
0.00985413
20
0.534658
11
0.0194656
21
0.53235
0
LINE
8
BLACK
6
CONTINUOUS
10
0.0194656
20
0.53235
11
0.0285978
21
0.528567
0
LINE
8
BLACK
6
CONTINUOUS
10
0.0285978
20
0.528567
11
0.0370258
21
0.523403
0
LINE
8
BLACK
6
CONTINUOUS
10
0.0370258
20
0.523403
11
0.0445422
21
0.516983
0
LINE
8
BLACK
6
CONTINUOUS
10
0.0445422
20
0.516983
11
0.0509617
21
0.509467
0
LINE
8
BLACK
6
CONTINUOUS
10
0.0509617
20
0.509467
11
0.0561264
21
0.501039
0
LINE
8
BLACK
6
CONTINUOUS
10
0.0561264
20
0.501039
11
0.0599091
21
0.491907
0
LINE
8
BLACK
6
CONTINUOUS
10
0.0599091
20
0.491907
11
0.0622166
21
0.482295
0
LINE
8
BLACK
6
CONTINUOUS
10
0.0622166
20
0.482295
11
0.0629921
21
0.472441
0
LINE
8
BLACK
6
CONTINUOUS
10
0.0629921
20
0.472441
11
0.0622166
21
0.462587
0
LINE
8
BLACK
6
CONTINUOUS
10
0.0622166
20
0.462587
11
0.0599091
21
0.452975
0
LINE
8
BLACK
6
CONTINUOUS
10
0.0599091
20
0.452975
11
0.0561264
21
0.443843
0
LINE
8
BLACK
6
CONTINUOUS
10
0.0561264
20
0.443843
11
0.0509617
21
0.435415
0
LINE
8
BLACK
6
CONTINUOUS
10
0.0509617
20
0.435415
11
0.0445422
21
0.427899
0
LINE
8
BLACK
6
CONTINUOUS
10
0.0445422
20
0.427899
11
0.0370258
21
0.421479
0
LINE
8
BLACK
6
CONTINUOUS
10
0.0370258
20
0.421479
11
0.0285978
21
0.416315
0
LINE
8
BLACK
6
CONTINUOUS
10
0.0285978
20
0.416315
11
0.0194656
21
0.412532
0
LINE
8
BLACK
6
CONTINUOUS
10
0.0194656
20
0.412532
11
0.00985413
21
0.410224
0
LINE
8
BLACK
6
CONTINUOUS
10
0.00985413
20
0.410224
11
0
21
0.409449
0
LINE
8
BLACK
6
CONTINUOUS
10
0
20
0.409449
11
-0.00985413
21
0.410224
0
LINE
8
BLACK
6
CONTINUOUS
10
-0.00985413
20
0.410224
11
-0.0194656
21
0.412532
0
LINE
8
BLACK
6
CONTINUOUS
10
-0.0194656
20
0.412532
11
-0.0285978
21
0.416315
0
LINE
8
BLACK
6
CONTINUOUS
10
-0.0285978
20
0.416315
11
-0.0370258
21
0.421479
0
LINE
8
BLACK
6
CONTINUOUS
10
-0.0370258
20
0.421479
11
-0.0445422
21
0.427899
0
LINE
8
BLACK
6
CONTINUOUS
10
-0.0445422
20
0.427899
11
-0.0509617
21
0.435415
0
LINE
8
BLACK
6
CONTINUOUS
10
-0.0509617
20
0.435415
11
-0.0561264
21
0.443843
0
LINE
8
BLACK
6
CONTINUOUS
10
-0.0561264
20
0.443843
11
-0.0599091
21
0.452975
0
LINE
8
BLACK
6
CONTINUOUS
10
-0.0599091
20
0.452975
11
-0.0622166
21
0.462587
0
LINE
8
BLACK
6
CONTINUOUS
10
-0.0622166
20
0.462587
11
-0.0629921
21
0.472441
0
LINE
8
BLACK
6
CONTINUOUS
10
-0.0629921
20
0.472441
11
-0.0622166
21
0.482295
0
LINE
8
BLACK
6
CONTINUOUS
10
-0.0622166
20
0.482295
11
-0.0599091
21
0.491907
0
LINE
8
BLACK
6
CONTINUOUS
10
-0.0599091
20
0.491907
11
-0.0561264
21
0.501039
0
LINE
8
BLACK
6
CONTINUOUS
10
-0.0561264
20
0.501039
11
-0.0509617
21
0.509467
0
LINE
8
BLACK
6
CONTINUOUS
10
-0.0509617
20
0.509467
11
-0.0445422
21
0.516983
0
LINE
8
BLACK
6
CONTINUOUS
10
-0.0445422
20
0.516983
11
-0.0370258
21
0.523403
0
LINE
8
BLACK
6
CONTINUOUS
10
-0.0370258
20
0.523403
11
-0.0285978
21
0.528567
0
LINE
8
BLACK
6
CONTINUOUS
10
-0.0285978
20
0.528567
11
-0.0194656
21
0.53235
0
LINE
8
BLACK
6
CONTINUOUS
10
-0.0194656
20
0.53235
11
-0.00985413
21
0.534658
0
LINE
8
BLACK
6
CONTINUOUS
10
-0.00985413
20
0.534658
11
0
21
0.535433
0
LINE
8
BLACK
6
CONTINUOUS
10
0
20
0.535433
11
0.00985413
21
0.534658
0
LINE
8
BLACK
6
CONTINUOUS
10
0.205252
20
-0.0949679
11
0.205252
21
-0.0949679
0
LINE
8
BLACK
6
CONTINUOUS
10
0.205252
20
-0.0949679
11
0.204724
21
-0.0944882
0
LINE
8
BLACK
6
CONTINUOUS
10
0.204724
20
-0.0944882
11
0.118361
21
-0.0944882
0
LINE
8
BLACK
6
CONTINUOUS
10
0.118361
20
-0.0944882
11
0.115679
21
-0.0937007
0
LINE
8
BLACK
6
CONTINUOUS
10
0.115679
20
-0.0937007
11
0.114853
21
-0.0930352
0
LINE
8
BLACK
6
CONTINUOUS
10
0.114853
20
-0.0930352
11
0.110926
21
-0.0891073
0
LINE
8
BLACK
6
CONTINUOUS
10
0.110926
20
-0.0891073
11
0.110925
21
-0.0891071
0
LINE
8
BLACK
6
CONTINUOUS
10
0.110925
20
-0.0891071
11
0.10135
21
-0.0795313
0
LINE
8
BLACK
6
CONTINUOUS
10
0.10135
20
-0.0795313
11
0.10001
21
-0.0770781
0
LINE
8
BLACK
6
CONTINUOUS
10
0.10001
20
-0.0770781
11
0.100209
21
-0.0742901
0
LINE
8
BLACK
6
CONTINUOUS
10
0.100209
20
-0.0742901
11
0.101884
21
-0.0720524
0
LINE
8
BLACK
6
CONTINUOUS
10
0.101884
20
-0.0720524
11
0.104503
21
-0.0710756
0
LINE
8
BLACK
6
CONTINUOUS
10
0.104503
20
-0.0710756
11
0.104857
21
-0.071063
0
LINE
8
BLACK
6
CONTINUOUS
10
0.104857
20
-0.071063
11
0.119956
21
-0.071063
0
LINE
8
BLACK
6
CONTINUOUS
10
0.119956
20
-0.071063
11
0.120556
21
-0.0708868
0
LINE
8
BLACK
6
CONTINUOUS
10
0.120556
20
-0.0708868
11
0.120604
21
-0.0708321
0
LINE
8
BLACK
6
CONTINUOUS
10
0.120604
20
-0.0708321
11
0.120669
21
-0.0705296
0
LINE
8
BLACK
6
CONTINUOUS
10
0.120669
20
-0.0705296
11
0.120669
21
-0.0610236
0
LINE
8
BLACK
6
CONTINUOUS
10
0.120669
20
-0.0610236
11
0.102953
21
-0.0610236
0
LINE
8
BLACK
6
CONTINUOUS
10
0.102953
20
-0.0610236
11
0.102953
21
-0.0559055
0
LINE
8
BLACK
6
CONTINUOUS
10
0.102953
20
-0.0559055
11
0.0936266
21
-0.0559055
0
LINE
8
BLACK
6
CONTINUOUS
10
0.0936266
20
-0.0559055
11
0.0930266
21
-0.0560817
0
LINE
8
BLACK
6
CONTINUOUS
10
0.0930266
20
-0.0560817
11
0.0929792
21
-0.0561364
0
LINE
8
BLACK
6
CONTINUOUS
10
0.0929792
20
-0.0561364
11
0.0929134
21
-0.0564389
0
LINE
8
BLACK
6
CONTINUOUS
10
0.0929134
20
-0.0564389
11
0.0929134
21
-0.0591192
0
LINE
8
BLACK
6
CONTINUOUS
10
0.0929134
20
-0.0591192
11
0.0921259
21
-0.0618011
0
LINE
8
BLACK
6
CONTINUOUS
10
0.0921259
20
-0.0618011
11
0.0900135
21
-0.0636315
0
LINE
8
BLACK
6
CONTINUOUS
10
0.0900135
20
-0.0636315
11
0.0872468
21
-0.0640293
0
LINE
8
BLACK
6
CONTINUOUS
10
0.0872468
20
-0.0640293
11
0.0847043
21
-0.0628681
0
LINE
8
BLACK
6
CONTINUOUS
10
0.0847043
20
-0.0628681
11
0.0844455
21
-0.0626272
0
LINE
8
BLACK
6
CONTINUOUS
10
0.0844455
20
-0.0626272
11
0.0732552
21
-0.0514369
0
LINE
8
BLACK
6
CONTINUOUS
10
0.0732552
20
-0.0514369
11
0.064445
21
-0.0426268
0
LINE
8
BLACK
6
CONTINUOUS
10
0.064445
20
-0.0426268
11
0.0631055
21
-0.0401736
0
LINE
8
BLACK
6
CONTINUOUS
10
0.0631055
20
-0.0401736
11
0.0629921
21
-0.0391192
0
LINE
8
BLACK
6
CONTINUOUS
10
0.0629921
20
-0.0391192
11
0.0629921
21
0.0469932
0
LINE
8
BLACK
6
CONTINUOUS
10
0.0629921
20
0.0469932
11
0.0637796
21
0.0496751
0
LINE
8
BLACK
6
CONTINUOUS
10
0.0637796
20
0.0496751
11
0.0644451
21
0.0505009
0
LINE
8
BLACK
6
CONTINUOUS
10
0.0644451
20
0.0505009
11
0.0844254
21
0.0704812
0
LINE
8
BLACK
6
CONTINUOUS
10
0.0844254
20
0.0704812
11
0.0868786
21
0.0718208
0
LINE
8
BLACK
6
CONTINUOUS
10
0.0868786
20
0.0718208
11
0.0896666
21
0.0716214
0
LINE
8
BLACK
6
CONTINUOUS
10
0.0896666
20
0.0716214
11
0.0919043
21
0.0699463
0
LINE
8
BLACK
6
CONTINUOUS
10
0.0919043
20
0.0699463
11
0.0928811
21
0.0673274
0
LINE
8
BLACK
6
CONTINUOUS
10
0.0928811
20
0.0673274
11
0.0928937
21
0.0669735
0
LINE
8
BLACK
6
CONTINUOUS
10
0.0928937
20
0.0669735
11
0.0928937
21
0.0389764
0
LINE
8
BLACK
6
CONTINUOUS
10
0.0928937
20
0.0389764
11
0.0936594
21
0.0351269
0
LINE
8
BLACK
6
CONTINUOUS
10
0.0936594
20
0.0351269
11
0.0939307
21
0.0347208
0
LINE
8
BLACK
6
CONTINUOUS
10
0.0939307
20
0.0347208
11
0.0939308
21
0.0347207
0
LINE
8
BLACK
6
CONTINUOUS
10
0.0939308
20
0.0347207
11
0.0958399
21
0.0318635
0
LINE
8
BLACK
6
CONTINUOUS
10
0.0958399
20
0.0318635
11
0.0957454
21
0.0318004
0
LINE
8
BLACK
6
CONTINUOUS
10
0.0957454
20
0.0318004
11
0.0967331
21
0.0299915
0
LINE
8
BLACK
6
CONTINUOUS
10
0.0967331
20
0.0299915
11
0.0965337
21
0.0272035
0
LINE
8
BLACK
6
CONTINUOUS
10
0.0965337
20
0.0272035
11
0.0957889
21
0.0260445
0
LINE
8
BLACK
6
CONTINUOUS
10
0.0957889
20
0.0260445
11
0.0958399
21
0.0260105
0
LINE
8
BLACK
6
CONTINUOUS
10
0.0958399
20
0.0260105
11
0.0939308
21
0.0231533
0
LINE
8
BLACK
6
CONTINUOUS
10
0.0939308
20
0.0231533
11
0.0939307
21
0.0231532
0
LINE
8
BLACK
6
CONTINUOUS
10
0.0939307
20
0.0231532
11
0.0936594
21
0.0227471
0
LINE
8
BLACK
6
CONTINUOUS
10
0.0936594
20
0.0227471
11
0.0928937
21
0.0188976
0
LINE
8
BLACK
6
CONTINUOUS
10
0.0928937
20
0.0188976
11
0.0928937
21
-0.0110236
0
LINE
8
BLACK
6
CONTINUOUS
10
0.0928937
20
-0.0110236
11
0.0936594
21
-0.0148731
0
LINE
8
BLACK
6
CONTINUOUS
10
0.0936594
20
-0.0148731
11
0.0939307
21
-0.0152792
0
LINE
8
BLACK
6
CONTINUOUS
10
0.0939307
20
-0.0152792
11
0.0939308
21
-0.0152793
0
LINE
8
BLACK
6
CONTINUOUS
10
0.0939308
20
-0.0152793
11
0.0958399
21
-0.0181365
0
LINE
8
BLACK
6
CONTINUOUS
10
0.0958399
20
-0.0181365
11
0.09575
21
-0.0181965
0
LINE
8
BLACK
6
CONTINUOUS
10
0.09575
20
-0.0181965
11
0.0967471
21
-0.0200225
0
LINE
8
BLACK
6
CONTINUOUS
10
0.0967471
20
-0.0200225
11
0.0965477
21
-0.0228105
0
LINE
8
BLACK
6
CONTINUOUS
10
0.0965477
20
-0.0228105
11
0.0958029
21
-0.0239694
0
LINE
8
BLACK
6
CONTINUOUS
10
0.0958029
20
-0.0239694
11
0.0958539
21
-0.0240035
0
LINE
8
BLACK
6
CONTINUOUS
10
0.0958539
20
-0.0240035
11
0.093949
21
-0.0268543
0
LINE
8
BLACK
6
CONTINUOUS
10
0.093949
20
-0.0268543
11
0.0935823
21
-0.0277396
0
LINE
8
BLACK
6
CONTINUOUS
10
0.0935823
20
-0.0277396
11
0.0929609
21
-0.0308635
0
LINE
8
BLACK
6
CONTINUOUS
10
0.0929609
20
-0.0308635
11
0.0929134
21
-0.0313459
0
LINE
8
BLACK
6
CONTINUOUS
10
0.0929134
20
-0.0313459
11
0.0929134
21
-0.0355073
0
LINE
8
BLACK
6
CONTINUOUS
10
0.0929134
20
-0.0355073
11
0.0930896
21
-0.0361072
0
LINE
8
BLACK
6
CONTINUOUS
10
0.0930896
20
-0.0361072
11
0.0931443
21
-0.0361547
0
LINE
8
BLACK
6
CONTINUOUS
10
0.0931443
20
-0.0361547
11
0.0934468
21
-0.0362205
0
LINE
8
BLACK
6
CONTINUOUS
10
0.0934468
20
-0.0362205
11
0.102953
21
-0.0362205
0
LINE
8
BLACK
6
CONTINUOUS
10
0.102953
20
-0.0362205
11
0.102953
21
-0.0311024
0
LINE
8
BLACK
6
CONTINUOUS
10
0.102953
20
-0.0311024
11
0.158071
21
-0.0311024
0
LINE
8
BLACK
6
CONTINUOUS
10
0.158071
20
-0.0311024
11
0.158071
21
-0.0362205
0
LINE
8
BLACK
6
CONTINUOUS
10
0.158071
20
-0.0362205
11
0.167397
21
-0.0362205
0
LINE
8
BLACK
6
CONTINUOUS
10
0.167397
20
-0.0362205
11
0.167997
21
-0.0360443
0
LINE
8
BLACK
6
CONTINUOUS
10
0.167997
20
-0.0360443
11
0.168044
21
-0.0359896
0
LINE
8
BLACK
6
CONTINUOUS
10
0.168044
20
-0.0359896
11
0.16811
21
-0.0356871
0
LINE
8
BLACK
6
CONTINUOUS
10
0.16811
20
-0.0356871
11
0.16811
21
-0.0313459
0
LINE
8
BLACK
6
CONTINUOUS
10
0.16811
20
-0.0313459
11
0.168063
21
-0.0308635
0
LINE
8
BLACK
6
CONTINUOUS
10
0.168063
20
-0.0308635
11
0.167441
21
-0.0277396
0
LINE
8
BLACK
6
CONTINUOUS
10
0.167441
20
-0.0277396
11
0.167075
21
-0.0268543
0
LINE
8
BLACK
6
CONTINUOUS
10
0.167075
20
-0.0268543
11
0.16517
21
-0.0240035
0
LINE
8
BLACK
6
CONTINUOUS
10
0.16517
20
-0.0240035
11
0.165264
21
-0.0239403
0
LINE
8
BLACK
6
CONTINUOUS
10
0.165264
20
-0.0239403
11
0.164277
21
-0.0221314
0
LINE
8
BLACK
6
CONTINUOUS
10
0.164277
20
-0.0221314
11
0.164476
21
-0.0193434
0
LINE
8
BLACK
6
CONTINUOUS
10
0.164476
20
-0.0193434
11
0.165231
21
-0.0181682
0
LINE
8
BLACK
6
CONTINUOUS
10
0.165231
20
-0.0181682
11
0.165184
21
-0.0181365
0
LINE
8
BLACK
6
CONTINUOUS
10
0.165184
20
-0.0181365
11
0.167093
21
-0.0152793
0
LINE
8
BLACK
6
CONTINUOUS
10
0.167093
20
-0.0152793
11
0.167093
21
-0.0152792
0
LINE
8
BLACK
6
CONTINUOUS
10
0.167093
20
-0.0152792
11
0.167364
21
-0.0148731
0
LINE
8
BLACK
6
CONTINUOUS
10
0.167364
20
-0.0148731
11
0.16813
21
-0.0110236
0
LINE
8
BLACK
6
CONTINUOUS
10
0.16813
20
-0.0110236
11
0.16813
21
0.0188976
0
LINE
8
BLACK
6
CONTINUOUS
10
0.16813
20
0.0188976
11
0.167672
21
0.0211973
0
LINE
8
BLACK
6
CONTINUOUS
10
0.167672
20
0.0211973
11
0.167922
21
0.0239813
0
LINE
8
BLACK
6
CONTINUOUS
10
0.167922
20
0.0239813
11
0.169636
21
0.0261887
0
LINE
8
BLACK
6
CONTINUOUS
10
0.169636
20
0.0261887
11
0.172538
21
0.0271257
0
LINE
8
BLACK
6
CONTINUOUS
10
0.172538
20
0.0271257
11
0.175816
21
0.0271257
0
LINE
8
BLACK
6
CONTINUOUS
10
0.175816
20
0.0271257
11
0.178498
21
0.0263383
0
LINE
8
BLACK
6
CONTINUOUS
10
0.178498
20
0.0263383
11
0.179324
21
0.0256728
0
LINE
8
BLACK
6
CONTINUOUS
10
0.179324
20
0.0256728
11
0.21924
21
-0.0142435
0
LINE
8
BLACK
6
CONTINUOUS
10
0.21924
20
-0.0142435
11
0.219471
21
-0.0144902
0
LINE
8
BLACK
6
CONTINUOUS
10
0.219471
20
-0.0144902
11
0.220679
21
-0.0158751
0
LINE
8
BLACK
6
CONTINUOUS
10
0.220679
20
-0.0158751
11
0.220904
21
-0.0161337
0
LINE
8
BLACK
6
CONTINUOUS
10
0.220904
20
-0.0161337
11
0.222878
21
-0.0175207
0
LINE
8
BLACK
6
CONTINUOUS
10
0.222878
20
-0.0175207
11
0.223086
21
-0.0176755
0
LINE
8
BLACK
6
CONTINUOUS
10
0.223086
20
-0.0176755
11
0.224985
21
-0.0191646
0
LINE
8
BLACK
6
CONTINUOUS
10
0.224985
20
-0.0191646
11
0.225258
21
-0.0192876
0
LINE
8
BLACK
6
CONTINUOUS
10
0.225258
20
-0.0192876
11
0.225434
21
-0.0193943
0
LINE
8
BLACK
6
CONTINUOUS
10
0.225434
20
-0.0193943
11
0.225787
21
-0.0195957
0
LINE
8
BLACK
6
CONTINUOUS
10
0.225787
20
-0.0195957
11
0.225969
21
-0.0196932
0
LINE
8
BLACK
6
CONTINUOUS
10
0.225969
20
-0.0196932
11
0.226214
21
-0.0198651
0
LINE
8
BLACK
6
CONTINUOUS
10
0.226214
20
-0.0198651
11
0.226492
21
-0.0199737
0
LINE
8
BLACK
6
CONTINUOUS
10
0.226492
20
-0.0199737
11
0.226492
21
-0.0199737
0
LINE
8
BLACK
6
CONTINUOUS
10
0.226492
20
-0.0199737
11
0.228461
21
-0.0207413
0
LINE
8
BLACK
6
CONTINUOUS
10
0.228461
20
-0.0207413
11
0.2287
21
-0.0208419
0
LINE
8
BLACK
6
CONTINUOUS
10
0.2287
20
-0.0208419
11
0.2309
21
-0.021835
0
LINE
8
BLACK
6
CONTINUOUS
10
0.2309
20
-0.021835
11
0.231193
21
-0.0218894
0
LINE
8
BLACK
6
CONTINUOUS
10
0.231193
20
-0.0218894
11
0.231391
21
-0.0219513
0
LINE
8
BLACK
6
CONTINUOUS
10
0.231391
20
-0.0219513
11
0.231779
21
-0.022062
0
LINE
8
BLACK
6
CONTINUOUS
10
0.231779
20
-0.022062
11
0.231981
21
-0.0221137
0
LINE
8
BLACK
6
CONTINUOUS
10
0.231981
20
-0.0221137
11
0.23226
21
-0.0222224
0
LINE
8
BLACK
6
CONTINUOUS
10
0.23226
20
-0.0222224
11
0.234652
21
-0.0225373
0
LINE
8
BLACK
6
CONTINUOUS
10
0.234652
20
-0.0225373
11
0.234908
21
-0.0225778
0
LINE
8
BLACK
6
CONTINUOUS
10
0.234908
20
-0.0225778
11
0.23728
21
-0.0230176
0
LINE
8
BLACK
6
CONTINUOUS
10
0.23728
20
-0.0230176
11
0.237579
21
-0.0230004
0
LINE
8
BLACK
6
CONTINUOUS
10
0.237579
20
-0.0230004
11
0.237579
21
-0.0230004
0
LINE
8
BLACK
6
CONTINUOUS
10
0.237579
20
-0.0230004
11
0.239627
21
-0.0228822
0
LINE
8
BLACK
6
CONTINUOUS
10
0.239627
20
-0.0228822
11
0.239913
21
-0.022874
0
LINE
8
BLACK
6
CONTINUOUS
10
0.239913
20
-0.022874
11
0.379902
21
-0.022874
0
LINE
8
BLACK
6
CONTINUOUS
10
0.379902
20
-0.022874
11
0.382584
21
-0.0236615
0
LINE
8
BLACK
6
CONTINUOUS
10
0.382584
20
-0.0236615
11
0.383741
21
-0.0246927
0
LINE
8
BLACK
6
CONTINUOUS
10
0.383741
20
-0.0246927
11
0.389038
21
-0.0311645
0
LINE
8
BLACK
6
CONTINUOUS
10
0.389038
20
-0.0311645
11
0.389038
21
-0.0311647
0
LINE
8
BLACK
6
CONTINUOUS
10
0.389038
20
-0.0311647
11
0.389178
21
-0.0313354
0
LINE
8
BLACK
6
CONTINUOUS
10
0.389178
20
-0.0313354
11
0.395993
21
-0.0371563
0
LINE
8
BLACK
6
CONTINUOUS
10
0.395993
20
-0.0371563
11
0.396184
21
-0.0372678
0
LINE
8
BLACK
6
CONTINUOUS
10
0.396184
20
-0.0372678
11
0.403541
21
-0.0415669
0
LINE
8
BLACK
6
CONTINUOUS
10
0.403541
20
-0.0415669
11
0.403541
21
-0.0415669
0
LINE
8
BLACK
6
CONTINUOUS
10
0.403541
20
-0.0415669
11
0.403732
21
-0.0416784
0
LINE
8
BLACK
6
CONTINUOUS
10
0.403732
20
-0.0416784
11
0.403939
21
-0.0417543
0
LINE
8
BLACK
6
CONTINUOUS
10
0.403939
20
-0.0417543
11
0.403939
21
-0.0417543
0
LINE
8
BLACK
6
CONTINUOUS
10
0.403939
20
-0.0417543
11
0.411942
21
-0.0446828
0
LINE
8
BLACK
6
CONTINUOUS
10
0.411942
20
-0.0446828
11
0.411942
21
-0.0446828
0
LINE
8
BLACK
6
CONTINUOUS
10
0.411942
20
-0.0446828
11
0.412149
21
-0.0447586
0
LINE
8
BLACK
6
CONTINUOUS
10
0.412149
20
-0.0447586
11
0.412366
21
-0.0447965
0
LINE
8
BLACK
6
CONTINUOUS
10
0.412366
20
-0.0447965
11
0.412366
21
-0.0447965
0
LINE
8
BLACK
6
CONTINUOUS
10
0.412366
20
-0.0447965
11
0.420709
21
-0.0462526
0
LINE
8
BLACK
6
CONTINUOUS
10
0.420709
20
-0.0462526
11
0.420978
21
-0.0462996
0
LINE
8
BLACK
6
CONTINUOUS
10
0.420978
20
-0.0462996
11
0.421199
21
-0.0462984
0
LINE
8
BLACK
6
CONTINUOUS
10
0.421199
20
-0.0462984
11
0.421199
21
-0.0462984
0
LINE
8
BLACK
6
CONTINUOUS
10
0.421199
20
-0.0462984
11
0.425316
21
-0.0462769
0
LINE
8
BLACK
6
CONTINUOUS
10
0.425316
20
-0.0462769
11
0.429941
21
-0.0462526
0
LINE
8
BLACK
6
CONTINUOUS
10
0.429941
20
-0.0462526
11
0.430158
21
-0.0462124
0
LINE
8
BLACK
6
CONTINUOUS
10
0.430158
20
-0.0462124
11
0.430159
21
-0.0462124
0
LINE
8
BLACK
6
CONTINUOUS
10
0.430159
20
-0.0462124
11
0.438537
21
-0.0446596
0
LINE
8
BLACK
6
CONTINUOUS
10
0.438537
20
-0.0446596
11
0.438537
21
-0.0446596
0
LINE
8
BLACK
6
CONTINUOUS
10
0.438537
20
-0.0446596
11
0.438754
21
-0.0446193
0
LINE
8
BLACK
6
CONTINUOUS
10
0.438754
20
-0.0446193
11
0.43896
21
-0.0445413
0
LINE
8
BLACK
6
CONTINUOUS
10
0.43896
20
-0.0445413
11
0.438961
21
-0.0445412
0
LINE
8
BLACK
6
CONTINUOUS
10
0.438961
20
-0.0445412
11
0.446932
21
-0.0415292
0
LINE
8
BLACK
6
CONTINUOUS
10
0.446932
20
-0.0415292
11
0.446932
21
-0.0415291
0
LINE
8
BLACK
6
CONTINUOUS
10
0.446932
20
-0.0415291
11
0.447138
21
-0.0414511
0
LINE
8
BLACK
6
CONTINUOUS
10
0.447138
20
-0.0414511
11
0.454829
21
-0.0368483
0
LINE
8
BLACK
6
CONTINUOUS
10
0.454829
20
-0.0368483
11
0.461583
21
-0.0309563
0
LINE
8
BLACK
6
CONTINUOUS
10
0.461583
20
-0.0309563
11
0.46416
21
-0.0277396
0
LINE
8
BLACK
6
CONTINUOUS
10
0.46416
20
-0.0277396
11
0.467049
21
-0.0241337
0
LINE
8
BLACK
6
CONTINUOUS
10
0.467049
20
-0.0241337
11
0.467049
21
-0.0241335
0
LINE
8
BLACK
6
CONTINUOUS
10
0.467049
20
-0.0241335
11
0.467187
21
-0.0239613
0
LINE
8
BLACK
6
CONTINUOUS
10
0.467187
20
-0.0239613
11
0.471464
21
-0.0160846
0
LINE
8
BLACK
6
CONTINUOUS
10
0.471464
20
-0.0160846
11
0.474278
21
-0.00757492
0
LINE
8
BLACK
6
CONTINUOUS
10
0.474278
20
-0.00757492
11
0.475541
21
0.00129858
0
LINE
8
BLACK
6
CONTINUOUS
10
0.475541
20
0.00129858
11
0.47561
21
0.00393701
0
LINE
8
BLACK
6
CONTINUOUS
10
0.47561
20
0.00393701
11
0.475305
21
0.00735496
0
LINE
8
BLACK
6
CONTINUOUS
10
0.475305
20
0.00735496
11
0.474833
21
0.0126445
0
LINE
8
BLACK
6
CONTINUOUS
10
0.474833
20
0.0126445
11
0.474833
21
0.0126446
0
LINE
8
BLACK
6
CONTINUOUS
10
0.474833
20
0.0126446
11
0.474813
21
0.0128644
0
LINE
8
BLACK
6
CONTINUOUS
10
0.474813
20
0.0128644
11
0.472448
21
0.0215097
0
LINE
8
BLACK
6
CONTINUOUS
10
0.472448
20
0.0215097
11
0.46977
21
0.0271257
0
LINE
8
BLACK
6
CONTINUOUS
10
0.46977
20
0.0271257
11
0.468685
21
0.0294004
0
LINE
8
BLACK
6
CONTINUOUS
10
0.468685
20
0.0294004
11
0.46859
21
0.0295995
0
LINE
8
BLACK
6
CONTINUOUS
10
0.46859
20
0.0295995
11
0.465011
21
0.0345803
0
LINE
8
BLACK
6
CONTINUOUS
10
0.465011
20
0.0345803
11
0.463489
21
0.0366986
0
LINE
8
BLACK
6
CONTINUOUS
10
0.463489
20
0.0366986
11
0.463488
21
0.0366987
0
LINE
8
BLACK
6
CONTINUOUS
10
0.463488
20
0.0366987
11
0.46336
21
0.0368781
0
LINE
8
BLACK
6
CONTINUOUS
10
0.46336
20
0.0368781
11
0.456923
21
0.0431156
0
LINE
8
BLACK
6
CONTINUOUS
10
0.456923
20
0.0431156
11
0.455374
21
0.0441568
0
LINE
8
BLACK
6
CONTINUOUS
10
0.455374
20
0.0441568
11
0.449667
21
0.0479913
0
LINE
8
BLACK
6
CONTINUOUS
10
0.449667
20
0.0479913
11
0.449667
21
0.0479914
0
LINE
8
BLACK
6
CONTINUOUS
10
0.449667
20
0.0479914
11
0.449484
21
0.0481146
0
LINE
8
BLACK
6
CONTINUOUS
10
0.449484
20
0.0481146
11
0.441277
21
0.0517172
0
LINE
8
BLACK
6
CONTINUOUS
10
0.441277
20
0.0517172
11
0.441062
21
0.0517687
0
LINE
8
BLACK
6
CONTINUOUS
10
0.441062
20
0.0517687
11
0.441062
21
0.0517688
0
LINE
8
BLACK
6
CONTINUOUS
10
0.441062
20
0.0517688
11
0.432776
21
0.053758
0
LINE
8
BLACK
6
CONTINUOUS
10
0.432776
20
0.053758
11
0.432776
21
0.053758
0
LINE
8
BLACK
6
CONTINUOUS
10
0.432776
20
0.053758
11
0.432561
21
0.0538096
0
LINE
8
BLACK
6
CONTINUOUS
10
0.432561
20
0.0538096
11
0.429097
21
0.0540093
0
LINE
8
BLACK
6
CONTINUOUS
10
0.429097
20
0.0540093
11
0.423834
21
0.0543128
0
LINE
8
BLACK
6
CONTINUOUS
10
0.423834
20
0.0543128
11
0.423834
21
0.0543128
0
LINE
8
BLACK
6
CONTINUOUS
10
0.423834
20
0.0543128
11
0.423613
21
0.0543255
0
LINE
8
BLACK
6
CONTINUOUS
10
0.423613
20
0.0543255
11
0.414715
21
0.0532487
0
LINE
8
BLACK
6
CONTINUOUS
10
0.414715
20
0.0532487
11
0.406149
21
0.0506133
0
LINE
8
BLACK
6
CONTINUOUS
10
0.406149
20
0.0506133
11
0.405953
21
0.0505121
0
LINE
8
BLACK
6
CONTINUOUS
10
0.405953
20
0.0505121
11
0.405952
21
0.050512
0
LINE
8
BLACK
6
CONTINUOUS
10
0.405952
20
0.050512
11
0.39838
21
0.0466037
0
LINE
8
BLACK
6
CONTINUOUS
10
0.39838
20
0.0466037
11
0.398184
21
0.0465024
0
LINE
8
BLACK
6
CONTINUOUS
10
0.398184
20
0.0465024
11
0.391073
21
0.0410461
0
LINE
8
BLACK
6
CONTINUOUS
10
0.391073
20
0.0410461
11
0.390925
21
0.0408829
0
LINE
8
BLACK
6
CONTINUOUS
10
0.390925
20
0.0408829
11
0.390924
21
0.0408827
0
LINE
8
BLACK
6
CONTINUOUS
10
0.390924
20
0.0408827
11
0.388057
21
0.0377315
0
LINE
8
BLACK
6
CONTINUOUS
10
0.388057
20
0.0377315
11
0.385041
21
0.0344169
0
LINE
8
BLACK
6
CONTINUOUS
10
0.385041
20
0.0344169
11
0.384924
21
0.0342298
0
LINE
8
BLACK
6
CONTINUOUS
10
0.384924
20
0.0342298
11
0.384924
21
0.0342298
0
LINE
8
BLACK
6
CONTINUOUS
10
0.384924
20
0.0342298
11
0.384198
21
0.0330726
0
LINE
8
BLACK
6
CONTINUOUS
10
0.384198
20
0.0330726
11
0.382106
21
0.0312191
0
LINE
8
BLACK
6
CONTINUOUS
10
0.382106
20
0.0312191
11
0.379996
21
0.030748
0
LINE
8
BLACK
6
CONTINUOUS
10
0.379996
20
0.030748
11
0.252136
21
0.030748
0
LINE
8
BLACK
6
CONTINUOUS
10
0.252136
20
0.030748
11
0.249454
21
0.0315355
0
LINE
8
BLACK
6
CONTINUOUS
10
0.249454
20
0.0315355
11
0.248629
21
0.0322009
0
LINE
8
BLACK
6
CONTINUOUS
10
0.248629
20
0.0322009
11
0.221506
21
0.059324
0
LINE
8
BLACK
6
CONTINUOUS
10
0.221506
20
0.059324
11
0.208713
21
0.0721169
0
LINE
8
BLACK
6
CONTINUOUS
10
0.208713
20
0.0721169
11
0.208482
21
0.0723636
0
LINE
8
BLACK
6
CONTINUOUS
10
0.208482
20
0.0723636
11
0.208148
21
0.0727471
0
LINE
8
BLACK
6
CONTINUOUS
10
0.208148
20
0.0727471
11
0.207048
21
0.0740075
0
LINE
8
BLACK
6
CONTINUOUS
10
0.207048
20
0.0740075
11
0.205073
21
0.0753959
0
LINE
8
BLACK
6
CONTINUOUS
10
0.205073
20
0.0753959
11
0.204865
21
0.07555
0
LINE
8
BLACK
6
CONTINUOUS
10
0.204865
20
0.07555
11
0.203203
21
0.0768537
0
LINE
8
BLACK
6
CONTINUOUS
10
0.203203
20
0.0768537
11
0.203202
21
0.0768538
0
LINE
8
BLACK
6
CONTINUOUS
10
0.203202
20
0.0768538
11
0.202967
21
0.0770383
0
LINE
8
BLACK
6
CONTINUOUS
10
0.202967
20
0.0770383
11
0.202695
21
0.0771614
0
LINE
8
BLACK
6
CONTINUOUS
10
0.202695
20
0.0771614
11
0.202515
21
0.0772702
0
LINE
8
BLACK
6
CONTINUOUS
10
0.202515
20
0.0772702
11
0.202166
21
0.0774692
0
LINE
8
BLACK
6
CONTINUOUS
10
0.202166
20
0.0774692
11
0.201983
21
0.0775671
0
LINE
8
BLACK
6
CONTINUOUS
10
0.201983
20
0.0775671
11
0.201739
21
0.0777389
0
LINE
8
BLACK
6
CONTINUOUS
10
0.201739
20
0.0777389
11
0.200579
21
0.078191
0
LINE
8
BLACK
6
CONTINUOUS
10
0.200579
20
0.078191
11
0.199491
21
0.0786153
0
LINE
8
BLACK
6
CONTINUOUS
10
0.199491
20
0.0786153
11
0.199252
21
0.078716
0
LINE
8
BLACK
6
CONTINUOUS
10
0.199252
20
0.078716
11
0.198233
21
0.0791761
0
LINE
8
BLACK
6
CONTINUOUS
10
0.198233
20
0.0791761
11
0.197053
21
0.0797088
0
LINE
8
BLACK
6
CONTINUOUS
10
0.197053
20
0.0797088
11
0.196759
21
0.0797633
0
LINE
8
BLACK
6
CONTINUOUS
10
0.196759
20
0.0797633
11
0.196561
21
0.0798253
0
LINE
8
BLACK
6
CONTINUOUS
10
0.196561
20
0.0798253
11
0.196173
21
0.0799359
0
LINE
8
BLACK
6
CONTINUOUS
10
0.196173
20
0.0799359
11
0.195971
21
0.0799876
0
LINE
8
BLACK
6
CONTINUOUS
10
0.195971
20
0.0799876
11
0.195693
21
0.0800961
0
LINE
8
BLACK
6
CONTINUOUS
10
0.195693
20
0.0800961
11
0.193301
21
0.080411
0
LINE
8
BLACK
6
CONTINUOUS
10
0.193301
20
0.080411
11
0.193045
21
0.0804517
0
LINE
8
BLACK
6
CONTINUOUS
10
0.193045
20
0.0804517
11
0.190966
21
0.0808369
0
LINE
8
BLACK
6
CONTINUOUS
10
0.190966
20
0.0808369
11
0.190672
21
0.0808913
0
LINE
8
BLACK
6
CONTINUOUS
10
0.190672
20
0.0808913
11
0.190374
21
0.0808741
0
LINE
8
BLACK
6
CONTINUOUS
10
0.190374
20
0.0808741
11
0.190374
21
0.0808741
0
LINE
8
BLACK
6
CONTINUOUS
10
0.190374
20
0.0808741
11
0.188325
21
0.080756
0
LINE
8
BLACK
6
CONTINUOUS
10
0.188325
20
0.080756
11
0.18804
21
0.0807478
0
LINE
8
BLACK
6
CONTINUOUS
10
0.18804
20
0.0807478
11
0.133439
21
0.0807478
0
LINE
8
BLACK
6
CONTINUOUS
10
0.133439
20
0.0807478
11
0.132535
21
0.0808309
0
LINE
8
BLACK
6
CONTINUOUS
10
0.132535
20
0.0808309
11
0.132208
21
0.0808916
0
LINE
8
BLACK
6
CONTINUOUS
10
0.132208
20
0.0808916
11
0.131909
21
0.0808744
0
LINE
8
BLACK
6
CONTINUOUS
10
0.131909
20
0.0808744
11
0.131909
21
0.0808744
0
LINE
8
BLACK
6
CONTINUOUS
10
0.131909
20
0.0808744
11
0.129857
21
0.080756
0
LINE
8
BLACK
6
CONTINUOUS
10
0.129857
20
0.080756
11
0.129571
21
0.0807478
0
LINE
8
BLACK
6
CONTINUOUS
10
0.129571
20
0.0807478
11
0.128885
21
0.0807478
0
LINE
8
BLACK
6
CONTINUOUS
10
0.128885
20
0.0807478
11
0.128737
21
0.0807298
0
LINE
8
BLACK
6
CONTINUOUS
10
0.128737
20
0.0807298
11
0.128737
21
0.0807298
0
LINE
8
BLACK
6
CONTINUOUS
10
0.128737
20
0.0807298
11
0.128285
21
0.0806752
0
LINE
8
BLACK
6
CONTINUOUS
10
0.128285
20
0.0806752
11
0.127975
21
0.0806476
0
LINE
8
BLACK
6
CONTINUOUS
10
0.127975
20
0.0806476
11
0.126728
21
0.0805756
0
LINE
8
BLACK
6
CONTINUOUS
10
0.126728
20
0.0805756
11
0.125729
21
0.080518
0
LINE
8
BLACK
6
CONTINUOUS
10
0.125729
20
0.080518
11
0.125337
21
0.0803974
0
LINE
8
BLACK
6
CONTINUOUS
10
0.125337
20
0.0803974
11
0.124474
21
0.080214
0
LINE
8
BLACK
6
CONTINUOUS
10
0.124474
20
0.080214
11
0.124367
21
0.080201
0
LINE
8
BLACK
6
CONTINUOUS
10
0.124367
20
0.080201
11
0.12407
21
0.080165
0
LINE
8
BLACK
6
CONTINUOUS
10
0.12407
20
0.080165
11
0.12379
21
0.0800593
0
LINE
8
BLACK
6
CONTINUOUS
10
0.12379
20
0.0800593
11
0.121972
21
0.0793725
0
LINE
8
BLACK
6
CONTINUOUS
10
0.121972
20
0.0793725
11
0.121678
21
0.0792717
0
LINE
8
BLACK
6
CONTINUOUS
10
0.121678
20
0.0792717
11
0.121367
21
0.0791761
0
LINE
8
BLACK
6
CONTINUOUS
10
0.121367
20
0.0791761
11
0.119908
21
0.0789567
0
LINE
8
BLACK
6
CONTINUOUS
10
0.119908
20
0.0789567
11
0.104877
21
0.0789567
0
LINE
8
BLACK
6
CONTINUOUS
10
0.104877
20
0.0789567
11
0.102195
21
0.0797442
0
LINE
8
BLACK
6
CONTINUOUS
10
0.102195
20
0.0797442
11
0.100365
21
0.0818566
0
LINE
8
BLACK
6
CONTINUOUS
10
0.100365
20
0.0818566
11
0.0999668
21
0.0846233
0
LINE
8
BLACK
6
CONTINUOUS
10
0.0999668
20
0.0846233
11
0.101128
21
0.0871658
0
LINE
8
BLACK
6
CONTINUOUS
10
0.101128
20
0.0871658
11
0.101369
21
0.087425
0
LINE
8
BLACK
6
CONTINUOUS
10
0.101369
20
0.087425
11
0.114854
21
0.100909
0
LINE
8
BLACK
6
CONTINUOUS
10
0.114854
20
0.100909
11
0.117307
21
0.102249
0
LINE
8
BLACK
6
CONTINUOUS
10
0.117307
20
0.102249
11
0.118361
21
0.102362
0
LINE
8
BLACK
6
CONTINUOUS
10
0.118361
20
0.102362
11
0.204724
21
0.102362
0
LINE
8
BLACK
6
CONTINUOUS
10
0.204724
20
0.102362
11
0.255545
21
0.148563
0
LINE
8
BLACK
6
CONTINUOUS
10
0.255545
20
0.148563
11
0.289919
21
0.179812
0
LINE
8
BLACK
6
CONTINUOUS
10
0.289919
20
0.179812
11
0.292434
21
0.181034
0
LINE
8
BLACK
6
CONTINUOUS
10
0.292434
20
0.181034
11
0.293256
21
0.181102
0
LINE
8
BLACK
6
CONTINUOUS
10
0.293256
20
0.181102
11
0.583014
21
0.181102
0
LINE
8
BLACK
6
CONTINUOUS
10
0.583014
20
0.181102
11
0.585696
21
0.180315
0
LINE
8
BLACK
6
CONTINUOUS
10
0.585696
20
0.180315
11
0.587527
21
0.178202
0
LINE
8
BLACK
6
CONTINUOUS
10
0.587527
20
0.178202
11
0.587822
21
0.177363
0
LINE
8
BLACK
6
CONTINUOUS
10
0.587822
20
0.177363
11
0.59367
21
0.154338
0
LINE
8
BLACK
6
CONTINUOUS
10
0.59367
20
0.154338
11
0.599724
21
0.130502
0
LINE
8
BLACK
6
CONTINUOUS
10
0.599724
20
0.130502
11
0.599876
21
0.129281
0
LINE
8
BLACK
6
CONTINUOUS
10
0.599876
20
0.129281
11
0.599876
21
-0.130838
0
LINE
8
BLACK
6
CONTINUOUS
10
0.599876
20
-0.130838
11
0.599704
21
-0.132135
0
LINE
8
BLACK
6
CONTINUOUS
10
0.599704
20
-0.132135
11
0.58957
21
-0.169564
0
LINE
8
BLACK
6
CONTINUOUS
10
0.58957
20
-0.169564
11
0.588109
21
-0.171947
0
LINE
8
BLACK
6
CONTINUOUS
10
0.588109
20
-0.171947
11
0.585591
21
-0.173162
0
LINE
8
BLACK
6
CONTINUOUS
10
0.585591
20
-0.173162
11
0.584781
21
-0.173228
0
LINE
8
BLACK
6
CONTINUOUS
10
0.584781
20
-0.173228
11
0.293256
21
-0.173228
0
LINE
8
BLACK
6
CONTINUOUS
10
0.293256
20
-0.173228
11
0.290574
21
-0.172441
0
LINE
8
BLACK
6
CONTINUOUS
10
0.290574
20
-0.172441
11
0.289919
21
-0.171938
0
LINE
8
BLACK
6
CONTINUOUS
10
0.289919
20
-0.171938
11
0.255531
21
-0.140676
0
LINE
8
BLACK
6
CONTINUOUS
10
0.255531
20
-0.140676
11
0.210706
21
-0.0999263
0
LINE
8
BLACK
6
CONTINUOUS
10
0.210706
20
-0.0999263
11
0.205252
21
-0.0949679
0
LINE
8
BLACK
6
CONTINUOUS
10
0.499932
20
-0.144142
11
0.500304
21
-0.144336
0
LINE
8
BLACK
6
CONTINUOUS
10
0.500304
20
-0.144336
11
0.508394
21
-0.147712
0
LINE
8
BLACK
6
CONTINUOUS
10
0.508394
20
-0.147712
11
0.508793
21
-0.14784
0
LINE
8
BLACK
6
CONTINUOUS
10
0.508793
20
-0.14784
11
0.517337
21
-0.149805
0
LINE
8
BLACK
6
CONTINUOUS
10
0.517337
20
-0.149805
11
0.517751
21
-0.149864
0
LINE
8
BLACK
6
CONTINUOUS
10
0.517751
20
-0.149864
11
0.526504
21
-0.150361
0
LINE
8
BLACK
6
CONTINUOUS
10
0.526504
20
-0.150361
11
0.526923
21
-0.150349
0
LINE
8
BLACK
6
CONTINUOUS
10
0.526923
20
-0.150349
11
0.535634
21
-0.149364
0
LINE
8
BLACK
6
CONTINUOUS
10
0.535634
20
-0.149364
11
0.536044
21
-0.149282
0
LINE
8
BLACK
6
CONTINUOUS
10
0.536044
20
-0.149282
11
0.544466
21
-0.146843
0
LINE
8
BLACK
6
CONTINUOUS
10
0.544466
20
-0.146843
11
0.544856
21
-0.146693
0
LINE
8
BLACK
6
CONTINUOUS
10
0.544856
20
-0.146693
11
0.552746
21
-0.142871
0
LINE
8
BLACK
6
CONTINUOUS
10
0.552746
20
-0.142871
11
0.553106
21
-0.142657
0
LINE
8
BLACK
6
CONTINUOUS
10
0.553106
20
-0.142657
11
0.555305
21
-0.141086
0
LINE
8
BLACK
6
CONTINUOUS
10
0.555305
20
-0.141086
11
0.555636
21
-0.140664
0
LINE
8
BLACK
6
CONTINUOUS
10
0.555636
20
-0.140664
11
0.555361
21
-0.140147
0
LINE
8
BLACK
6
CONTINUOUS
10
0.555361
20
-0.140147
11
0.548655
21
-0.13344
0
LINE
8
BLACK
6
CONTINUOUS
10
0.548655
20
-0.13344
11
0.543423
21
-0.13643
0
LINE
8
BLACK
6
CONTINUOUS
10
0.543423
20
-0.13643
11
0.535461
21
-0.139149
0
LINE
8
BLACK
6
CONTINUOUS
10
0.535461
20
-0.139149
11
0.527129
21
-0.140312
0
LINE
8
BLACK
6
CONTINUOUS
10
0.527129
20
-0.140312
11
0.518727
21
-0.139879
0
LINE
8
BLACK
6
CONTINUOUS
10
0.518727
20
-0.139879
11
0.510558
21
-0.137865
0
LINE
8
BLACK
6
CONTINUOUS
10
0.510558
20
-0.137865
11
0.502917
21
-0.134343
0
LINE
8
BLACK
6
CONTINUOUS
10
0.502917
20
-0.134343
11
0.501706
21
-0.133474
0
LINE
8
BLACK
6
CONTINUOUS
10
0.501706
20
-0.133474
11
0.494991
21
-0.140189
0
LINE
8
BLACK
6
CONTINUOUS
10
0.494991
20
-0.140189
11
0.494724
21
-0.140676
0
LINE
8
BLACK
6
CONTINUOUS
10
0.494724
20
-0.140676
11
0.494964
21
-0.140995
0
LINE
8
BLACK
6
CONTINUOUS
10
0.494964
20
-0.140995
11
0.499932
21
-0.144142
0
LINE
8
BLACK
6
CONTINUOUS
10
0.272447
20
-0.108999
11
0.272548
21
-0.109406
0
LINE
8
BLACK
6
CONTINUOUS
10
0.272548
20
-0.109406
11
0.27538
21
-0.117702
0
LINE
8
BLACK
6
CONTINUOUS
10
0.27538
20
-0.117702
11
0.275549
21
-0.118086
0
LINE
8
BLACK
6
CONTINUOUS
10
0.275549
20
-0.118086
11
0.279739
21
-0.125786
0
LINE
8
BLACK
6
CONTINUOUS
10
0.279739
20
-0.125786
11
0.279969
21
-0.126136
0
LINE
8
BLACK
6
CONTINUOUS
10
0.279969
20
-0.126136
11
0.280072
21
-0.126267
0
LINE
8
BLACK
6
CONTINUOUS
10
0.280072
20
-0.126267
11
0.280542
21
-0.1266
0
LINE
8
BLACK
6
CONTINUOUS
10
0.280542
20
-0.1266
11
0.280996
21
-0.126345
0
LINE
8
BLACK
6
CONTINUOUS
10
0.280996
20
-0.126345
11
0.287846
21
-0.119495
0
LINE
8
BLACK
6
CONTINUOUS
10
0.287846
20
-0.119495
11
0.285768
21
-0.11624
0
LINE
8
BLACK
6
CONTINUOUS
10
0.285768
20
-0.11624
11
0.282664
21
-0.10842
0
LINE
8
BLACK
6
CONTINUOUS
10
0.282664
20
-0.10842
11
0.281095
21
-0.100154
0
LINE
8
BLACK
6
CONTINUOUS
10
0.281095
20
-0.100154
11
0.281117
21
-0.0917409
0
LINE
8
BLACK
6
CONTINUOUS
10
0.281117
20
-0.0917409
11
0.282729
21
-0.0834836
0
LINE
8
BLACK
6
CONTINUOUS
10
0.282729
20
-0.0834836
11
0.285874
21
-0.0756801
0
LINE
8
BLACK
6
CONTINUOUS
10
0.285874
20
-0.0756801
11
0.287844
21
-0.0726296
0
LINE
8
BLACK
6
CONTINUOUS
10
0.287844
20
-0.0726296
11
0.280963
21
-0.0657487
0
LINE
8
BLACK
6
CONTINUOUS
10
0.280963
20
-0.0657487
11
0.280444
21
-0.0654653
0
LINE
8
BLACK
6
CONTINUOUS
10
0.280444
20
-0.0654653
11
0.280237
21
-0.065613
0
LINE
8
BLACK
6
CONTINUOUS
10
0.280237
20
-0.065613
11
0.275981
21
-0.0730911
0
LINE
8
BLACK
6
CONTINUOUS
10
0.275981
20
-0.0730911
11
0.275805
21
-0.0734715
0
LINE
8
BLACK
6
CONTINUOUS
10
0.275805
20
-0.0734715
11
0.272814
21
-0.0817121
0
LINE
8
BLACK
6
CONTINUOUS
10
0.272814
20
-0.0817121
11
0.272705
21
-0.0821164
0
LINE
8
BLACK
6
CONTINUOUS
10
0.272705
20
-0.0821164
11
0.271145
21
-0.0907432
0
LINE
8
BLACK
6
CONTINUOUS
10
0.271145
20
-0.0907432
11
0.271105
21
-0.0911603
0
LINE
8
BLACK
6
CONTINUOUS
10
0.271105
20
-0.0911603
11
0.271021
21
-0.0999263
0
LINE
8
BLACK
6
CONTINUOUS
10
0.271021
20
-0.0999263
11
0.271053
21
-0.100344
0
LINE
8
BLACK
6
CONTINUOUS
10
0.271053
20
-0.100344
11
0.272447
21
-0.108999
0
LINE
8
BLACK
6
CONTINUOUS
10
0.472447
20
-0.108999
11
0.472548
21
-0.109406
0
LINE
8
BLACK
6
CONTINUOUS
10
0.472548
20
-0.109406
11
0.47538
21
-0.117702
0
LINE
8
BLACK
6
CONTINUOUS
10
0.47538
20
-0.117702
11
0.475549
21
-0.118086
0
LINE
8
BLACK
6
CONTINUOUS
10
0.475549
20
-0.118086
11
0.479739
21
-0.125786
0
LINE
8
BLACK
6
CONTINUOUS
10
0.479739
20
-0.125786
11
0.479969
21
-0.126136
0
LINE
8
BLACK
6
CONTINUOUS
10
0.479969
20
-0.126136
11
0.480072
21
-0.126267
0
LINE
8
BLACK
6
CONTINUOUS
10
0.480072
20
-0.126267
11
0.480542
21
-0.1266
0
LINE
8
BLACK
6
CONTINUOUS
10
0.480542
20
-0.1266
11
0.480996
21
-0.126345
0
LINE
8
BLACK
6
CONTINUOUS
10
0.480996
20
-0.126345
11
0.487846
21
-0.119495
0
LINE
8
BLACK
6
CONTINUOUS
10
0.487846
20
-0.119495
11
0.485768
21
-0.11624
0
LINE
8
BLACK
6
CONTINUOUS
10
0.485768
20
-0.11624
11
0.482664
21
-0.10842
0
LINE
8
BLACK
6
CONTINUOUS
10
0.482664
20
-0.10842
11
0.481095
21
-0.100154
0
LINE
8
BLACK
6
CONTINUOUS
10
0.481095
20
-0.100154
11
0.481117
21
-0.0917409
0
LINE
8
BLACK
6
CONTINUOUS
10
0.481117
20
-0.0917409
11
0.482729
21
-0.0834836
0
LINE
8
BLACK
6
CONTINUOUS
10
0.482729
20
-0.0834836
11
0.485874
21
-0.0756801
0
LINE
8
BLACK
6
CONTINUOUS
10
0.485874
20
-0.0756801
11
0.487844
21
-0.0726296
0
LINE
8
BLACK
6
CONTINUOUS
10
0.487844
20
-0.0726296
11
0.480963
21
-0.0657487
0
LINE
8
BLACK
6
CONTINUOUS
10
0.480963
20
-0.0657487
11
0.480444
21
-0.0654653
0
LINE
8
BLACK
6
CONTINUOUS
10
0.480444
20
-0.0654653
11
0.480237
21
-0.065613
0
LINE
8
BLACK
6
CONTINUOUS
10
0.480237
20
-0.065613
11
0.475981
21
-0.0730911
0
LINE
8
BLACK
6
CONTINUOUS
10
0.475981
20
-0.0730911
11
0.475805
21
-0.0734715
0
LINE
8
BLACK
6
CONTINUOUS
10
0.475805
20
-0.0734715
11
0.472814
21
-0.0817121
0
LINE
8
BLACK
6
CONTINUOUS
10
0.472814
20
-0.0817121
11
0.472705
21
-0.0821164
0
LINE
8
BLACK
6
CONTINUOUS
10
0.472705
20
-0.0821164
11
0.471145
21
-0.0907432
0
LINE
8
BLACK
6
CONTINUOUS
10
0.471145
20
-0.0907432
11
0.471105
21
-0.0911603
0
LINE
8
BLACK
6
CONTINUOUS
10
0.471105
20
-0.0911603
11
0.471021
21
-0.0999263
0
LINE
8
BLACK
6
CONTINUOUS
10
0.471021
20
-0.0999263
11
0.471053
21
-0.100344
0
LINE
8
BLACK
6
CONTINUOUS
10
0.471053
20
-0.100344
11
0.472447
21
-0.108999
0
LINE
8
BLACK
6
CONTINUOUS
10
0.379519
20
-0.0969893
11
0.379526
21
-0.0961796
0
LINE
8
BLACK
6
CONTINUOUS
10
0.379526
20
-0.0961796
11
0.379518
21
-0.0959469
0
LINE
8
BLACK
6
CONTINUOUS
10
0.379518
20
-0.0959469
11
0.378769
21
-0.0871183
0
LINE
8
BLACK
6
CONTINUOUS
10
0.378769
20
-0.0871183
11
0.378698
21
-0.0867054
0
LINE
8
BLACK
6
CONTINUOUS
10
0.378698
20
-0.0867054
11
0.376496
21
-0.0782197
0
LINE
8
BLACK
6
CONTINUOUS
10
0.376496
20
-0.0782197
11
0.376356
21
-0.0778249
0
LINE
8
BLACK
6
CONTINUOUS
10
0.376356
20
-0.0778249
11
0.372756
21
-0.0698319
0
LINE
8
BLACK
6
CONTINUOUS
10
0.372756
20
-0.0698319
11
0.372552
21
-0.0694655
0
LINE
8
BLACK
6
CONTINUOUS
10
0.372552
20
-0.0694655
11
0.370199
21
-0.0659703
0
LINE
8
BLACK
6
CONTINUOUS
10
0.370199
20
-0.0659703
11
0.369805
21
-0.0656434
0
LINE
8
BLACK
6
CONTINUOUS
10
0.369805
20
-0.0656434
11
0.369251
21
-0.0659279
0
LINE
8
BLACK
6
CONTINUOUS
10
0.369251
20
-0.0659279
11
0.362664
21
-0.072515
0
LINE
8
BLACK
6
CONTINUOUS
10
0.362664
20
-0.072515
11
0.366321
21
-0.0796146
0
LINE
8
BLACK
6
CONTINUOUS
10
0.366321
20
-0.0796146
11
0.368689
21
-0.0876877
0
LINE
8
BLACK
6
CONTINUOUS
10
0.368689
20
-0.0876877
11
0.369488
21
-0.096063
0
LINE
8
BLACK
6
CONTINUOUS
10
0.369488
20
-0.096063
11
0.369488
21
-0.0962949
0
LINE
8
BLACK
6
CONTINUOUS
10
0.369488
20
-0.0962949
11
0.368645
21
-0.104666
0
LINE
8
BLACK
6
CONTINUOUS
10
0.368645
20
-0.104666
11
0.366234
21
-0.112726
0
LINE
8
BLACK
6
CONTINUOUS
10
0.366234
20
-0.112726
11
0.36265
21
-0.119597
0
LINE
8
BLACK
6
CONTINUOUS
10
0.36265
20
-0.119597
11
0.369296
21
-0.126243
0
LINE
8
BLACK
6
CONTINUOUS
10
0.369296
20
-0.126243
11
0.36976
21
-0.126496
0
LINE
8
BLACK
6
CONTINUOUS
10
0.36976
20
-0.126496
11
0.370232
21
-0.126131
0
LINE
8
BLACK
6
CONTINUOUS
10
0.370232
20
-0.126131
11
0.372033
21
-0.123564
0
LINE
8
BLACK
6
CONTINUOUS
10
0.372033
20
-0.123564
11
0.372243
21
-0.123203
0
LINE
8
BLACK
6
CONTINUOUS
10
0.372243
20
-0.123203
11
0.375997
21
-0.11528
0
LINE
8
BLACK
6
CONTINUOUS
10
0.375997
20
-0.11528
11
0.376144
21
-0.114888
0
LINE
8
BLACK
6
CONTINUOUS
10
0.376144
20
-0.114888
11
0.378509
21
-0.106446
0
LINE
8
BLACK
6
CONTINUOUS
10
0.378509
20
-0.106446
11
0.378587
21
-0.106035
0
LINE
8
BLACK
6
CONTINUOUS
10
0.378587
20
-0.106035
11
0.379224
21
-0.0999263
0
LINE
8
BLACK
6
CONTINUOUS
10
0.379224
20
-0.0999263
11
0.379505
21
-0.097222
0
LINE
8
BLACK
6
CONTINUOUS
10
0.379505
20
-0.097222
11
0.379519
21
-0.0969893
0
LINE
8
BLACK
6
CONTINUOUS
10
0.569251
20
-0.0659279
11
0.562664
21
-0.072515
0
LINE
8
BLACK
6
CONTINUOUS
10
0.562664
20
-0.072515
11
0.566321
21
-0.0796146
0
LINE
8
BLACK
6
CONTINUOUS
10
0.566321
20
-0.0796146
11
0.568689
21
-0.0876877
0
LINE
8
BLACK
6
CONTINUOUS
10
0.568689
20
-0.0876877
11
0.569488
21
-0.096063
0
LINE
8
BLACK
6
CONTINUOUS
10
0.569488
20
-0.096063
11
0.569488
21
-0.0962949
0
LINE
8
BLACK
6
CONTINUOUS
10
0.569488
20
-0.0962949
11
0.568645
21
-0.104666
0
LINE
8
BLACK
6
CONTINUOUS
10
0.568645
20
-0.104666
11
0.566234
21
-0.112726
0
LINE
8
BLACK
6
CONTINUOUS
10
0.566234
20
-0.112726
11
0.56265
21
-0.119597
0
LINE
8
BLACK
6
CONTINUOUS
10
0.56265
20
-0.119597
11
0.569296
21
-0.126243
0
LINE
8
BLACK
6
CONTINUOUS
10
0.569296
20
-0.126243
11
0.56976
21
-0.126496
0
LINE
8
BLACK
6
CONTINUOUS
10
0.56976
20
-0.126496
11
0.570232
21
-0.126131
0
LINE
8
BLACK
6
CONTINUOUS
10
0.570232
20
-0.126131
11
0.572033
21
-0.123564
0
LINE
8
BLACK
6
CONTINUOUS
10
0.572033
20
-0.123564
11
0.572243
21
-0.123203
0
LINE
8
BLACK
6
CONTINUOUS
10
0.572243
20
-0.123203
11
0.575997
21
-0.11528
0
LINE
8
BLACK
6
CONTINUOUS
10
0.575997
20
-0.11528
11
0.576144
21
-0.114888
0
LINE
8
BLACK
6
CONTINUOUS
10
0.576144
20
-0.114888
11
0.578509
21
-0.106446
0
LINE
8
BLACK
6
CONTINUOUS
10
0.578509
20
-0.106446
11
0.578587
21
-0.106035
0
LINE
8
BLACK
6
CONTINUOUS
10
0.578587
20
-0.106035
11
0.579505
21
-0.097222
0
LINE
8
BLACK
6
CONTINUOUS
10
0.579505
20
-0.097222
11
0.579519
21
-0.0969893
0
LINE
8
BLACK
6
CONTINUOUS
10
0.579519
20
-0.0969893
11
0.579526
21
-0.0961796
0
LINE
8
BLACK
6
CONTINUOUS
10
0.579526
20
-0.0961796
11
0.579518
21
-0.0959469
0
LINE
8
BLACK
6
CONTINUOUS
10
0.579518
20
-0.0959469
11
0.578769
21
-0.0871183
0
LINE
8
BLACK
6
CONTINUOUS
10
0.578769
20
-0.0871183
11
0.578698
21
-0.0867054
0
LINE
8
BLACK
6
CONTINUOUS
10
0.578698
20
-0.0867054
11
0.576496
21
-0.0782197
0
LINE
8
BLACK
6
CONTINUOUS
10
0.576496
20
-0.0782197
11
0.576356
21
-0.0778249
0
LINE
8
BLACK
6
CONTINUOUS
10
0.576356
20
-0.0778249
11
0.572756
21
-0.0698319
0
LINE
8
BLACK
6
CONTINUOUS
10
0.572756
20
-0.0698319
11
0.572552
21
-0.0694655
0
LINE
8
BLACK
6
CONTINUOUS
10
0.572552
20
-0.0694655
11
0.570199
21
-0.0659703
0
LINE
8
BLACK
6
CONTINUOUS
10
0.570199
20
-0.0659703
11
0.569805
21
-0.0656434
0
LINE
8
BLACK
6
CONTINUOUS
10
0.569805
20
-0.0656434
11
0.569251
21
-0.0659279
0
LINE
8
BLACK
6
CONTINUOUS
10
0.158071
20
-0.0559055
11
0.158071
21
-0.0610236
0
LINE
8
BLACK
6
CONTINUOUS
10
0.158071
20
-0.0610236
11
0.140354
21
-0.0610236
0
LINE
8
BLACK
6
CONTINUOUS
10
0.140354
20
-0.0610236
11
0.140354
21
-0.0703498
0
LINE
8
BLACK
6
CONTINUOUS
10
0.140354
20
-0.0703498
11
0.140531
21
-0.0709498
0
LINE
8
BLACK
6
CONTINUOUS
10
0.140531
20
-0.0709498
11
0.140585
21
-0.0709972
0
LINE
8
BLACK
6
CONTINUOUS
10
0.140585
20
-0.0709972
11
0.140888
21
-0.071063
0
LINE
8
BLACK
6
CONTINUOUS
10
0.140888
20
-0.071063
11
0.157827
21
-0.071063
0
LINE
8
BLACK
6
CONTINUOUS
10
0.157827
20
-0.071063
11
0.15831
21
-0.0710155
0
LINE
8
BLACK
6
CONTINUOUS
10
0.15831
20
-0.0710155
11
0.161434
21
-0.0703941
0
LINE
8
BLACK
6
CONTINUOUS
10
0.161434
20
-0.0703941
11
0.162319
21
-0.0700274
0
LINE
8
BLACK
6
CONTINUOUS
10
0.162319
20
-0.0700274
11
0.164764
21
-0.0683939
0
LINE
8
BLACK
6
CONTINUOUS
10
0.164764
20
-0.0683939
11
0.165441
21
-0.0677164
0
LINE
8
BLACK
6
CONTINUOUS
10
0.165441
20
-0.0677164
11
0.167075
21
-0.0652717
0
LINE
8
BLACK
6
CONTINUOUS
10
0.167075
20
-0.0652717
11
0.167441
21
-0.0643864
0
LINE
8
BLACK
6
CONTINUOUS
10
0.167441
20
-0.0643864
11
0.168063
21
-0.0612625
0
LINE
8
BLACK
6
CONTINUOUS
10
0.168063
20
-0.0612625
11
0.16811
21
-0.06078
0
LINE
8
BLACK
6
CONTINUOUS
10
0.16811
20
-0.06078
11
0.16811
21
-0.0566187
0
LINE
8
BLACK
6
CONTINUOUS
10
0.16811
20
-0.0566187
11
0.167934
21
-0.0560187
0
LINE
8
BLACK
6
CONTINUOUS
10
0.167934
20
-0.0560187
11
0.167879
21
-0.0559713
0
LINE
8
BLACK
6
CONTINUOUS
10
0.167879
20
-0.0559713
11
0.167577
21
-0.0559055
0
LINE
8
BLACK
6
CONTINUOUS
10
0.167577
20
-0.0559055
11
0.158071
21
-0.0559055
0
LINE
8
BLACK
6
CONTINUOUS
10
0.501715
20
-0.058662
11
0.503118
21
-0.057667
0
LINE
8
BLACK
6
CONTINUOUS
10
0.503118
20
-0.057667
11
0.510777
21
-0.0541847
0
LINE
8
BLACK
6
CONTINUOUS
10
0.510777
20
-0.0541847
11
0.518956
21
-0.0522135
0
LINE
8
BLACK
6
CONTINUOUS
10
0.518956
20
-0.0522135
11
0.52736
21
-0.0518245
0
LINE
8
BLACK
6
CONTINUOUS
10
0.52736
20
-0.0518245
11
0.535687
21
-0.0530318
0
LINE
8
BLACK
6
CONTINUOUS
10
0.535687
20
-0.0530318
11
0.543634
21
-0.0557917
0
LINE
8
BLACK
6
CONTINUOUS
10
0.543634
20
-0.0557917
11
0.548648
21
-0.0586922
0
LINE
8
BLACK
6
CONTINUOUS
10
0.548648
20
-0.0586922
11
0.555401
21
-0.051939
0
LINE
8
BLACK
6
CONTINUOUS
10
0.555401
20
-0.051939
11
0.555666
21
-0.0514538
0
LINE
8
BLACK
6
CONTINUOUS
10
0.555666
20
-0.0514538
11
0.555331
21
-0.0510067
0
LINE
8
BLACK
6
CONTINUOUS
10
0.555331
20
-0.0510067
11
0.553995
21
-0.0500131
0
LINE
8
BLACK
6
CONTINUOUS
10
0.553995
20
-0.0500131
11
0.55364
21
-0.0497925
0
LINE
8
BLACK
6
CONTINUOUS
10
0.55364
20
-0.0497925
11
0.545825
21
-0.0458192
0
LINE
8
BLACK
6
CONTINUOUS
10
0.545825
20
-0.0458192
11
0.545437
21
-0.0456617
0
LINE
8
BLACK
6
CONTINUOUS
10
0.545437
20
-0.0456617
11
0.537064
21
-0.043062
0
LINE
8
BLACK
6
CONTINUOUS
10
0.537064
20
-0.043062
11
0.536655
21
-0.0429721
0
LINE
8
BLACK
6
CONTINUOUS
10
0.536655
20
-0.0429721
11
0.527964
21
-0.0418202
0
LINE
8
BLACK
6
CONTINUOUS
10
0.527964
20
-0.0418202
11
0.527546
21
-0.0418005
0
LINE
8
BLACK
6
CONTINUOUS
10
0.527546
20
-0.0418005
11
0.518785
21
-0.0421294
0
LINE
8
BLACK
6
CONTINUOUS
10
0.518785
20
-0.0421294
11
0.51837
21
-0.0421804
0
LINE
8
BLACK
6
CONTINUOUS
10
0.51837
20
-0.0421804
11
0.50979
21
-0.0439807
0
LINE
8
BLACK
6
CONTINUOUS
10
0.50979
20
-0.0439807
11
0.509389
21
-0.0441009
0
LINE
8
BLACK
6
CONTINUOUS
10
0.509389
20
-0.0441009
11
0.501235
21
-0.0473212
0
LINE
8
BLACK
6
CONTINUOUS
10
0.501235
20
-0.0473212
11
0.50086
21
-0.0475073
0
LINE
8
BLACK
6
CONTINUOUS
10
0.50086
20
-0.0475073
11
0.49506
21
-0.0510269
0
LINE
8
BLACK
6
CONTINUOUS
10
0.49506
20
-0.0510269
11
0.494686
21
-0.0514369
0
LINE
8
BLACK
6
CONTINUOUS
10
0.494686
20
-0.0514369
11
0.494831
21
-0.0517772
0
LINE
8
BLACK
6
CONTINUOUS
10
0.494831
20
-0.0517772
11
0.501715
21
-0.058662
0
LINE
8
BLACK
6
CONTINUOUS
10
0.472447
20
0.0910007
11
0.472548
21
0.0905943
0
LINE
8
BLACK
6
CONTINUOUS
10
0.472548
20
0.0905943
11
0.47538
21
0.0822977
0
LINE
8
BLACK
6
CONTINUOUS
10
0.47538
20
0.0822977
11
0.475549
21
0.0819144
0
LINE
8
BLACK
6
CONTINUOUS
10
0.475549
20
0.0819144
11
0.479739
21
0.0742136
0
LINE
8
BLACK
6
CONTINUOUS
10
0.479739
20
0.0742136
11
0.479969
21
0.073864
0
LINE
8
BLACK
6
CONTINUOUS
10
0.479969
20
0.073864
11
0.480072
21
0.0737333
0
LINE
8
BLACK
6
CONTINUOUS
10
0.480072
20
0.0737333
11
0.480542
21
0.0733998
0
LINE
8
BLACK
6
CONTINUOUS
10
0.480542
20
0.0733998
11
0.480996
21
0.0736552
0
LINE
8
BLACK
6
CONTINUOUS
10
0.480996
20
0.0736552
11
0.487846
21
0.0805054
0
LINE
8
BLACK
6
CONTINUOUS
10
0.487846
20
0.0805054
11
0.485768
21
0.0837603
0
LINE
8
BLACK
6
CONTINUOUS
10
0.485768
20
0.0837603
11
0.482664
21
0.0915801
0
LINE
8
BLACK
6
CONTINUOUS
10
0.482664
20
0.0915801
11
0.481095
21
0.0998458
0
LINE
8
BLACK
6
CONTINUOUS
10
0.481095
20
0.0998458
11
0.481117
21
0.108259
0
LINE
8
BLACK
6
CONTINUOUS
10
0.481117
20
0.108259
11
0.482729
21
0.116516
0
LINE
8
BLACK
6
CONTINUOUS
10
0.482729
20
0.116516
11
0.485874
21
0.12432
0
LINE
8
BLACK
6
CONTINUOUS
10
0.485874
20
0.12432
11
0.487844
21
0.12737
0
LINE
8
BLACK
6
CONTINUOUS
10
0.487844
20
0.12737
11
0.480963
21
0.134251
0
LINE
8
BLACK
6
CONTINUOUS
10
0.480963
20
0.134251
11
0.480444
21
0.134535
0
LINE
8
BLACK
6
CONTINUOUS
10
0.480444
20
0.134535
11
0.480237
21
0.134387
0
LINE
8
BLACK
6
CONTINUOUS
10
0.480237
20
0.134387
11
0.475981
21
0.126909
0
LINE
8
BLACK
6
CONTINUOUS
10
0.475981
20
0.126909
11
0.475805
21
0.126528
0
LINE
8
BLACK
6
CONTINUOUS
10
0.475805
20
0.126528
11
0.472814
21
0.118288
0
LINE
8
BLACK
6
CONTINUOUS
10
0.472814
20
0.118288
11
0.472705
21
0.117884
0
LINE
8
BLACK
6
CONTINUOUS
10
0.472705
20
0.117884
11
0.471145
21
0.109257
0
LINE
8
BLACK
6
CONTINUOUS
10
0.471145
20
0.109257
11
0.471105
21
0.10884
0
LINE
8
BLACK
6
CONTINUOUS
10
0.471105
20
0.10884
11
0.471021
21
0.100074
0
LINE
8
BLACK
6
CONTINUOUS
10
0.471021
20
0.100074
11
0.471053
21
0.0996558
0
LINE
8
BLACK
6
CONTINUOUS
10
0.471053
20
0.0996558
11
0.472447
21
0.0910007
0
LINE
8
BLACK
6
CONTINUOUS
10
0.272447
20
0.0910007
11
0.272548
21
0.0905943
0
LINE
8
BLACK
6
CONTINUOUS
10
0.272548
20
0.0905943
11
0.27538
21
0.0822977
0
LINE
8
BLACK
6
CONTINUOUS
10
0.27538
20
0.0822977
11
0.275549
21
0.0819144
0
LINE
8
BLACK
6
CONTINUOUS
10
0.275549
20
0.0819144
11
0.279739
21
0.0742136
0
LINE
8
BLACK
6
CONTINUOUS
10
0.279739
20
0.0742136
11
0.279969
21
0.073864
0
LINE
8
BLACK
6
CONTINUOUS
10
0.279969
20
0.073864
11
0.280072
21
0.0737333
0
LINE
8
BLACK
6
CONTINUOUS
10
0.280072
20
0.0737333
11
0.280542
21
0.0733998
0
LINE
8
BLACK
6
CONTINUOUS
10
0.280542
20
0.0733998
11
0.280996
21
0.0736552
0
LINE
8
BLACK
6
CONTINUOUS
10
0.280996
20
0.0736552
11
0.287846
21
0.0805054
0
LINE
8
BLACK
6
CONTINUOUS
10
0.287846
20
0.0805054
11
0.285768
21
0.0837603
0
LINE
8
BLACK
6
CONTINUOUS
10
0.285768
20
0.0837603
11
0.282664
21
0.0915801
0
LINE
8
BLACK
6
CONTINUOUS
10
0.282664
20
0.0915801
11
0.281095
21
0.0998458
0
LINE
8
BLACK
6
CONTINUOUS
10
0.281095
20
0.0998458
11
0.281117
21
0.108259
0
LINE
8
BLACK
6
CONTINUOUS
10
0.281117
20
0.108259
11
0.282729
21
0.116516
0
LINE
8
BLACK
6
CONTINUOUS
10
0.282729
20
0.116516
11
0.285874
21
0.12432
0
LINE
8
BLACK
6
CONTINUOUS
10
0.285874
20
0.12432
11
0.287844
21
0.12737
0
LINE
8
BLACK
6
CONTINUOUS
10
0.287844
20
0.12737
11
0.280963
21
0.134251
0
LINE
8
BLACK
6
CONTINUOUS
10
0.280963
20
0.134251
11
0.280444
21
0.134535
0
LINE
8
BLACK
6
CONTINUOUS
10
0.280444
20
0.134535
11
0.280237
21
0.134387
0
LINE
8
BLACK
6
CONTINUOUS
10
0.280237
20
0.134387
11
0.275981
21
0.126909
0
LINE
8
BLACK
6
CONTINUOUS
10
0.275981
20
0.126909
11
0.275805
21
0.126528
0
LINE
8
BLACK
6
CONTINUOUS
10
0.275805
20
0.126528
11
0.272814
21
0.118288
0
LINE
8
BLACK
6
CONTINUOUS
10
0.272814
20
0.118288
11
0.272705
21
0.117884
0
LINE
8
BLACK
6
CONTINUOUS
10
0.272705
20
0.117884
11
0.271145
21
0.109257
0
LINE
8
BLACK
6
CONTINUOUS
10
0.271145
20
0.109257
11
0.271105
21
0.10884
0
LINE
8
BLACK
6
CONTINUOUS
10
0.271105
20
0.10884
11
0.271021
21
0.100074
0
LINE
8
BLACK
6
CONTINUOUS
10
0.271021
20
0.100074
11
0.271053
21
0.0996558
0
LINE
8
BLACK
6
CONTINUOUS
10
0.271053
20
0.0996558
11
0.272447
21
0.0910007
0
LINE
8
BLACK
6
CONTINUOUS
10
0.569251
20
0.134072
11
0.562664
21
0.127485
0
LINE
8
BLACK
6
CONTINUOUS
10
0.562664
20
0.127485
11
0.566321
21
0.120385
0
LINE
8
BLACK
6
CONTINUOUS
10
0.566321
20
0.120385
11
0.568689
21
0.112312
0
LINE
8
BLACK
6
CONTINUOUS
10
0.568689
20
0.112312
11
0.569488
21
0.103937
0
LINE
8
BLACK
6
CONTINUOUS
10
0.569488
20
0.103937
11
0.569488
21
0.103705
0
LINE
8
BLACK
6
CONTINUOUS
10
0.569488
20
0.103705
11
0.568645
21
0.0953341
0
LINE
8
BLACK
6
CONTINUOUS
10
0.568645
20
0.0953341
11
0.566234
21
0.0872735
0
LINE
8
BLACK
6
CONTINUOUS
10
0.566234
20
0.0872735
11
0.56265
21
0.0804033
0
LINE
8
BLACK
6
CONTINUOUS
10
0.56265
20
0.0804033
11
0.569296
21
0.0737574
0
LINE
8
BLACK
6
CONTINUOUS
10
0.569296
20
0.0737574
11
0.56976
21
0.0735039
0
LINE
8
BLACK
6
CONTINUOUS
10
0.56976
20
0.0735039
11
0.570232
21
0.0738689
0
LINE
8
BLACK
6
CONTINUOUS
10
0.570232
20
0.0738689
11
0.572033
21
0.0764356
0
LINE
8
BLACK
6
CONTINUOUS
10
0.572033
20
0.0764356
11
0.572243
21
0.0767974
0
LINE
8
BLACK
6
CONTINUOUS
10
0.572243
20
0.0767974
11
0.575997
21
0.08472
0
LINE
8
BLACK
6
CONTINUOUS
10
0.575997
20
0.08472
11
0.576144
21
0.0851125
0
LINE
8
BLACK
6
CONTINUOUS
10
0.576144
20
0.0851125
11
0.578509
21
0.0935543
0
LINE
8
BLACK
6
CONTINUOUS
10
0.578509
20
0.0935543
11
0.578587
21
0.0939654
0
LINE
8
BLACK
6
CONTINUOUS
10
0.578587
20
0.0939654
11
0.579505
21
0.102778
0
LINE
8
BLACK
6
CONTINUOUS
10
0.579505
20
0.102778
11
0.579519
21
0.103011
0
LINE
8
BLACK
6
CONTINUOUS
10
0.579519
20
0.103011
11
0.579526
21
0.10382
0
LINE
8
BLACK
6
CONTINUOUS
10
0.579526
20
0.10382
11
0.579518
21
0.104053
0
LINE
8
BLACK
6
CONTINUOUS
10
0.579518
20
0.104053
11
0.578769
21
0.112882
0
LINE
8
BLACK
6
CONTINUOUS
10
0.578769
20
0.112882
11
0.578698
21
0.113295
0
LINE
8
BLACK
6
CONTINUOUS
10
0.578698
20
0.113295
11
0.576496
21
0.12178
0
LINE
8
BLACK
6
CONTINUOUS
10
0.576496
20
0.12178
11
0.576356
21
0.122175
0
LINE
8
BLACK
6
CONTINUOUS
10
0.576356
20
0.122175
11
0.572756
21
0.130168
0
LINE
8
BLACK
6
CONTINUOUS
10
0.572756
20
0.130168
11
0.572552
21
0.130534
0
LINE
8
BLACK
6
CONTINUOUS
10
0.572552
20
0.130534
11
0.570199
21
0.13403
0
LINE
8
BLACK
6
CONTINUOUS
10
0.570199
20
0.13403
11
0.569805
21
0.134357
0
LINE
8
BLACK
6
CONTINUOUS
10
0.569805
20
0.134357
11
0.569251
21
0.134072
0
LINE
8
BLACK
6
CONTINUOUS
10
0.379519
20
0.103011
11
0.379526
21
0.10382
0
LINE
8
BLACK
6
CONTINUOUS
10
0.379526
20
0.10382
11
0.379518
21
0.104053
0
LINE
8
BLACK
6
CONTINUOUS
10
0.379518
20
0.104053
11
0.378769
21
0.112882
0
LINE
8
BLACK
6
CONTINUOUS
10
0.378769
20
0.112882
11
0.378698
21
0.113295
0
LINE
8
BLACK
6
CONTINUOUS
10
0.378698
20
0.113295
11
0.376496
21
0.12178
0
LINE
8
BLACK
6
CONTINUOUS
10
0.376496
20
0.12178
11
0.376356
21
0.122175
0
LINE
8
BLACK
6
CONTINUOUS
10
0.376356
20
0.122175
11
0.372756
21
0.130168
0
LINE
8
BLACK
6
CONTINUOUS
10
0.372756
20
0.130168
11
0.372552
21
0.130534
0
LINE
8
BLACK
6
CONTINUOUS
10
0.372552
20
0.130534
11
0.370199
21
0.13403
0
LINE
8
BLACK
6
CONTINUOUS
10
0.370199
20
0.13403
11
0.369805
21
0.134357
0
LINE
8
BLACK
6
CONTINUOUS
10
0.369805
20
0.134357
11
0.369251
21
0.134072
0
LINE
8
BLACK
6
CONTINUOUS
10
0.369251
20
0.134072
11
0.362664
21
0.127485
0
LINE
8
BLACK
6
CONTINUOUS
10
0.362664
20
0.127485
11
0.366321
21
0.120385
0
LINE
8
BLACK
6
CONTINUOUS
10
0.366321
20
0.120385
11
0.368689
21
0.112312
0
LINE
8
BLACK
6
CONTINUOUS
10
0.368689
20
0.112312
11
0.369488
21
0.103937
0
LINE
8
BLACK
6
CONTINUOUS
10
0.369488
20
0.103937
11
0.369488
21
0.103705
0
LINE
8
BLACK
6
CONTINUOUS
10
0.369488
20
0.103705
11
0.368645
21
0.0953341
0
LINE
8
BLACK
6
CONTINUOUS
10
0.368645
20
0.0953341
11
0.366234
21
0.0872735
0
LINE
8
BLACK
6
CONTINUOUS
10
0.366234
20
0.0872735
11
0.36265
21
0.0804033
0
LINE
8
BLACK
6
CONTINUOUS
10
0.36265
20
0.0804033
11
0.369296
21
0.0737574
0
LINE
8
BLACK
6
CONTINUOUS
10
0.369296
20
0.0737574
11
0.36976
21
0.0735039
0
LINE
8
BLACK
6
CONTINUOUS
10
0.36976
20
0.0735039
11
0.370232
21
0.0738689
0
LINE
8
BLACK
6
CONTINUOUS
10
0.370232
20
0.0738689
11
0.372033
21
0.0764356
0
LINE
8
BLACK
6
CONTINUOUS
10
0.372033
20
0.0764356
11
0.372243
21
0.0767974
0
LINE
8
BLACK
6
CONTINUOUS
10
0.372243
20
0.0767974
11
0.375997
21
0.08472
0
LINE
8
BLACK
6
CONTINUOUS
10
0.375997
20
0.08472
11
0.376144
21
0.0851125
0
LINE
8
BLACK
6
CONTINUOUS
10
0.376144
20
0.0851125
11
0.378509
21
0.0935543
0
LINE
8
BLACK
6
CONTINUOUS
10
0.378509
20
0.0935543
11
0.378587
21
0.0939654
0
LINE
8
BLACK
6
CONTINUOUS
10
0.378587
20
0.0939654
11
0.379224
21
0.100074
0
LINE
8
BLACK
6
CONTINUOUS
10
0.379224
20
0.100074
11
0.379505
21
0.102778
0
LINE
8
BLACK
6
CONTINUOUS
10
0.379505
20
0.102778
11
0.379519
21
0.103011
0
LINE
8
BLACK
6
CONTINUOUS
10
0.499932
20
0.0558577
11
0.500304
21
0.0556641
0
LINE
8
BLACK
6
CONTINUOUS
10
0.500304
20
0.0556641
11
0.508394
21
0.0522881
0
LINE
8
BLACK
6
CONTINUOUS
10
0.508394
20
0.0522881
11
0.508793
21
0.05216
0
LINE
8
BLACK
6
CONTINUOUS
10
0.508793
20
0.05216
11
0.517337
21
0.0501954
0
LINE
8
BLACK
6
CONTINUOUS
10
0.517337
20
0.0501954
11
0.517751
21
0.0501364
0
LINE
8
BLACK
6
CONTINUOUS
10
0.517751
20
0.0501364
11
0.526504
21
0.0496394
0
LINE
8
BLACK
6
CONTINUOUS
10
0.526504
20
0.0496394
11
0.526923
21
0.0496511
0
LINE
8
BLACK
6
CONTINUOUS
10
0.526923
20
0.0496511
11
0.535634
21
0.0506359
0
LINE
8
BLACK
6
CONTINUOUS
10
0.535634
20
0.0506359
11
0.536044
21
0.0507179
0
LINE
8
BLACK
6
CONTINUOUS
10
0.536044
20
0.0507179
11
0.544466
21
0.0531565
0
LINE
8
BLACK
6
CONTINUOUS
10
0.544466
20
0.0531565
11
0.544856
21
0.0533065
0
LINE
8
BLACK
6
CONTINUOUS
10
0.544856
20
0.0533065
11
0.552746
21
0.0571291
0
LINE
8
BLACK
6
CONTINUOUS
10
0.552746
20
0.0571291
11
0.553106
21
0.0573427
0
LINE
8
BLACK
6
CONTINUOUS
10
0.553106
20
0.0573427
11
0.555305
21
0.0589143
0
LINE
8
BLACK
6
CONTINUOUS
10
0.555305
20
0.0589143
11
0.555636
21
0.0593365
0
LINE
8
BLACK
6
CONTINUOUS
10
0.555636
20
0.0593365
11
0.555361
21
0.0598532
0
LINE
8
BLACK
6
CONTINUOUS
10
0.555361
20
0.0598532
11
0.548655
21
0.0665597
0
LINE
8
BLACK
6
CONTINUOUS
10
0.548655
20
0.0665597
11
0.543423
21
0.0635697
0
LINE
8
BLACK
6
CONTINUOUS
10
0.543423
20
0.0635697
11
0.535461
21
0.0608515
0
LINE
8
BLACK
6
CONTINUOUS
10
0.535461
20
0.0608515
11
0.527129
21
0.0596878
0
LINE
8
BLACK
6
CONTINUOUS
10
0.527129
20
0.0596878
11
0.518727
21
0.0601208
0
LINE
8
BLACK
6
CONTINUOUS
10
0.518727
20
0.0601208
11
0.510558
21
0.0621348
0
LINE
8
BLACK
6
CONTINUOUS
10
0.510558
20
0.0621348
11
0.502917
21
0.0656571
0
LINE
8
BLACK
6
CONTINUOUS
10
0.502917
20
0.0656571
11
0.501706
21
0.0665263
0
LINE
8
BLACK
6
CONTINUOUS
10
0.501706
20
0.0665263
11
0.494991
21
0.0598114
0
LINE
8
BLACK
6
CONTINUOUS
10
0.494991
20
0.0598114
11
0.494724
21
0.059324
0
LINE
8
BLACK
6
CONTINUOUS
10
0.494724
20
0.059324
11
0.494964
21
0.0590046
0
LINE
8
BLACK
6
CONTINUOUS
10
0.494964
20
0.0590046
11
0.499932
21
0.0558577
0
LINE
8
BLACK
6
CONTINUOUS
10
0.299932
20
-0.144142
11
0.300304
21
-0.144336
0
LINE
8
BLACK
6
CONTINUOUS
10
0.300304
20
-0.144336
11
0.308394
21
-0.147712
0
LINE
8
BLACK
6
CONTINUOUS
10
0.308394
20
-0.147712
11
0.308793
21
-0.14784
0
LINE
8
BLACK
6
CONTINUOUS
10
0.308793
20
-0.14784
11
0.317337
21
-0.149805
0
LINE
8
BLACK
6
CONTINUOUS
10
0.317337
20
-0.149805
11
0.317751
21
-0.149864
0
LINE
8
BLACK
6
CONTINUOUS
10
0.317751
20
-0.149864
11
0.326504
21
-0.150361
0
LINE
8
BLACK
6
CONTINUOUS
10
0.326504
20
-0.150361
11
0.326923
21
-0.150349
0
LINE
8
BLACK
6
CONTINUOUS
10
0.326923
20
-0.150349
11
0.335634
21
-0.149364
0
LINE
8
BLACK
6
CONTINUOUS
10
0.335634
20
-0.149364
11
0.336044
21
-0.149282
0
LINE
8
BLACK
6
CONTINUOUS
10
0.336044
20
-0.149282
11
0.344466
21
-0.146843
0
LINE
8
BLACK
6
CONTINUOUS
10
0.344466
20
-0.146843
11
0.344856
21
-0.146693
0
LINE
8
BLACK
6
CONTINUOUS
10
0.344856
20
-0.146693
11
0.352746
21
-0.142871
0
LINE
8
BLACK
6
CONTINUOUS
10
0.352746
20
-0.142871
11
0.353106
21
-0.142657
0
LINE
8
BLACK
6
CONTINUOUS
10
0.353106
20
-0.142657
11
0.355305
21
-0.141086
0
LINE
8
BLACK
6
CONTINUOUS
10
0.355305
20
-0.141086
11
0.355626
21
-0.140676
0
LINE
8
BLACK
6
CONTINUOUS
10
0.355626
20
-0.140676
11
0.355636
21
-0.140664
0
LINE
8
BLACK
6
CONTINUOUS
10
0.355636
20
-0.140664
11
0.355361
21
-0.140147
0
LINE
8
BLACK
6
CONTINUOUS
10
0.355361
20
-0.140147
11
0.348655
21
-0.13344
0
LINE
8
BLACK
6
CONTINUOUS
10
0.348655
20
-0.13344
11
0.343423
21
-0.13643
0
LINE
8
BLACK
6
CONTINUOUS
10
0.343423
20
-0.13643
11
0.335461
21
-0.139149
0
LINE
8
BLACK
6
CONTINUOUS
10
0.335461
20
-0.139149
11
0.327129
21
-0.140312
0
LINE
8
BLACK
6
CONTINUOUS
10
0.327129
20
-0.140312
11
0.318727
21
-0.139879
0
LINE
8
BLACK
6
CONTINUOUS
10
0.318727
20
-0.139879
11
0.310558
21
-0.137865
0
LINE
8
BLACK
6
CONTINUOUS
10
0.310558
20
-0.137865
11
0.302917
21
-0.134343
0
LINE
8
BLACK
6
CONTINUOUS
10
0.302917
20
-0.134343
11
0.301706
21
-0.133474
0
LINE
8
BLACK
6
CONTINUOUS
10
0.301706
20
-0.133474
11
0.294991
21
-0.140189
0
LINE
8
BLACK
6
CONTINUOUS
10
0.294991
20
-0.140189
11
0.294724
21
-0.140676
0
LINE
8
BLACK
6
CONTINUOUS
10
0.294724
20
-0.140676
11
0.294964
21
-0.140995
0
LINE
8
BLACK
6
CONTINUOUS
10
0.294964
20
-0.140995
11
0.299932
21
-0.144142
0
LINE
8
BLACK
6
CONTINUOUS
10
0.301715
20
-0.058662
11
0.303118
21
-0.057667
0
LINE
8
BLACK
6
CONTINUOUS
10
0.303118
20
-0.057667
11
0.310777
21
-0.0541847
0
LINE
8
BLACK
6
CONTINUOUS
10
0.310777
20
-0.0541847
11
0.318956
21
-0.0522135
0
LINE
8
BLACK
6
CONTINUOUS
10
0.318956
20
-0.0522135
11
0.32736
21
-0.0518245
0
LINE
8
BLACK
6
CONTINUOUS
10
0.32736
20
-0.0518245
11
0.335687
21
-0.0530318
0
LINE
8
BLACK
6
CONTINUOUS
10
0.335687
20
-0.0530318
11
0.343634
21
-0.0557917
0
LINE
8
BLACK
6
CONTINUOUS
10
0.343634
20
-0.0557917
11
0.348648
21
-0.0586922
0
LINE
8
BLACK
6
CONTINUOUS
10
0.348648
20
-0.0586922
11
0.355401
21
-0.051939
0
LINE
8
BLACK
6
CONTINUOUS
10
0.355401
20
-0.051939
11
0.355666
21
-0.0514538
0
LINE
8
BLACK
6
CONTINUOUS
10
0.355666
20
-0.0514538
11
0.355654
21
-0.0514369
0
LINE
8
BLACK
6
CONTINUOUS
10
0.355654
20
-0.0514369
11
0.355331
21
-0.0510067
0
LINE
8
BLACK
6
CONTINUOUS
10
0.355331
20
-0.0510067
11
0.353995
21
-0.0500131
0
LINE
8
BLACK
6
CONTINUOUS
10
0.353995
20
-0.0500131
11
0.35364
21
-0.0497925
0
LINE
8
BLACK
6
CONTINUOUS
10
0.35364
20
-0.0497925
11
0.345825
21
-0.0458192
0
LINE
8
BLACK
6
CONTINUOUS
10
0.345825
20
-0.0458192
11
0.345437
21
-0.0456617
0
LINE
8
BLACK
6
CONTINUOUS
10
0.345437
20
-0.0456617
11
0.337064
21
-0.043062
0
LINE
8
BLACK
6
CONTINUOUS
10
0.337064
20
-0.043062
11
0.336655
21
-0.0429721
0
LINE
8
BLACK
6
CONTINUOUS
10
0.336655
20
-0.0429721
11
0.327964
21
-0.0418202
0
LINE
8
BLACK
6
CONTINUOUS
10
0.327964
20
-0.0418202
11
0.327546
21
-0.0418005
0
LINE
8
BLACK
6
CONTINUOUS
10
0.327546
20
-0.0418005
11
0.318785
21
-0.0421294
0
LINE
8
BLACK
6
CONTINUOUS
10
0.318785
20
-0.0421294
11
0.31837
21
-0.0421804
0
LINE
8
BLACK
6
CONTINUOUS
10
0.31837
20
-0.0421804
11
0.30979
21
-0.0439807
0
LINE
8
BLACK
6
CONTINUOUS
10
0.30979
20
-0.0439807
11
0.309389
21
-0.0441009
0
LINE
8
BLACK
6
CONTINUOUS
10
0.309389
20
-0.0441009
11
0.301235
21
-0.0473212
0
LINE
8
BLACK
6
CONTINUOUS
10
0.301235
20
-0.0473212
11
0.30086
21
-0.0475073
0
LINE
8
BLACK
6
CONTINUOUS
10
0.30086
20
-0.0475073
11
0.29506
21
-0.0510269
0
LINE
8
BLACK
6
CONTINUOUS
10
0.29506
20
-0.0510269
11
0.294686
21
-0.0514369
0
LINE
8
BLACK
6
CONTINUOUS
10
0.294686
20
-0.0514369
11
0.294831
21
-0.0517772
0
LINE
8
BLACK
6
CONTINUOUS
10
0.294831
20
-0.0517772
11
0.301715
21
-0.058662
0
LINE
8
BLACK
6
CONTINUOUS
10
0.355361
20
0.0598532
11
0.348655
21
0.0665597
0
LINE
8
BLACK
6
CONTINUOUS
10
0.348655
20
0.0665597
11
0.343423
21
0.0635697
0
LINE
8
BLACK
6
CONTINUOUS
10
0.343423
20
0.0635697
11
0.335461
21
0.0608515
0
LINE
8
BLACK
6
CONTINUOUS
10
0.335461
20
0.0608515
11
0.327129
21
0.0596878
0
LINE
8
BLACK
6
CONTINUOUS
10
0.327129
20
0.0596878
11
0.318727
21
0.0601208
0
LINE
8
BLACK
6
CONTINUOUS
10
0.318727
20
0.0601208
11
0.310558
21
0.0621348
0
LINE
8
BLACK
6
CONTINUOUS
10
0.310558
20
0.0621348
11
0.302917
21
0.0656571
0
LINE
8
BLACK
6
CONTINUOUS
10
0.302917
20
0.0656571
11
0.301706
21
0.0665263
0
LINE
8
BLACK
6
CONTINUOUS
10
0.301706
20
0.0665263
11
0.294991
21
0.0598114
0
LINE
8
BLACK
6
CONTINUOUS
10
0.294991
20
0.0598114
11
0.294724
21
0.059324
0
LINE
8
BLACK
6
CONTINUOUS
10
0.294724
20
0.059324
11
0.294964
21
0.0590046
0
LINE
8
BLACK
6
CONTINUOUS
10
0.294964
20
0.0590046
11
0.299932
21
0.0558577
0
LINE
8
BLACK
6
CONTINUOUS
10
0.299932
20
0.0558577
11
0.300304
21
0.0556641
0
LINE
8
BLACK
6
CONTINUOUS
10
0.300304
20
0.0556641
11
0.308394
21
0.0522881
0
LINE
8
BLACK
6
CONTINUOUS
10
0.308394
20
0.0522881
11
0.308793
21
0.05216
0
LINE
8
BLACK
6
CONTINUOUS
10
0.308793
20
0.05216
11
0.317337
21
0.0501954
0
LINE
8
BLACK
6
CONTINUOUS
10
0.317337
20
0.0501954
11
0.317751
21
0.0501364
0
LINE
8
BLACK
6
CONTINUOUS
10
0.317751
20
0.0501364
11
0.326504
21
0.0496394
0
LINE
8
BLACK
6
CONTINUOUS
10
0.326504
20
0.0496394
11
0.326923
21
0.0496511
0
LINE
8
BLACK
6
CONTINUOUS
10
0.326923
20
0.0496511
11
0.335634
21
0.0506359
0
LINE
8
BLACK
6
CONTINUOUS
10
0.335634
20
0.0506359
11
0.336044
21
0.0507179
0
LINE
8
BLACK
6
CONTINUOUS
10
0.336044
20
0.0507179
11
0.344466
21
0.0531565
0
LINE
8
BLACK
6
CONTINUOUS
10
0.344466
20
0.0531565
11
0.344856
21
0.0533065
0
LINE
8
BLACK
6
CONTINUOUS
10
0.344856
20
0.0533065
11
0.352746
21
0.0571291
0
LINE
8
BLACK
6
CONTINUOUS
10
0.352746
20
0.0571291
11
0.353106
21
0.0573427
0
LINE
8
BLACK
6
CONTINUOUS
10
0.353106
20
0.0573427
11
0.355305
21
0.0589143
0
LINE
8
BLACK
6
CONTINUOUS
10
0.355305
20
0.0589143
11
0.355626
21
0.059324
0
LINE
8
BLACK
6
CONTINUOUS
10
0.355626
20
0.059324
11
0.355636
21
0.0593365
0
LINE
8
BLACK
6
CONTINUOUS
10
0.355636
20
0.0593365
11
0.355361
21
0.0598532
0
LINE
8
BLACK
6
CONTINUOUS
10
0.501715
20
0.141338
11
0.503118
21
0.142333
0
LINE
8
BLACK
6
CONTINUOUS
10
0.503118
20
0.142333
11
0.510777
21
0.145815
0
LINE
8
BLACK
6
CONTINUOUS
10
0.510777
20
0.145815
11
0.518956
21
0.147786
0
LINE
8
BLACK
6
CONTINUOUS
10
0.518956
20
0.147786
11
0.52736
21
0.148175
0
LINE
8
BLACK
6
CONTINUOUS
10
0.52736
20
0.148175
11
0.535687
21
0.146968
0
LINE
8
BLACK
6
CONTINUOUS
10
0.535687
20
0.146968
11
0.543634
21
0.144208
0
LINE
8
BLACK
6
CONTINUOUS
10
0.543634
20
0.144208
11
0.548648
21
0.141308
0
LINE
8
BLACK
6
CONTINUOUS
10
0.548648
20
0.141308
11
0.555401
21
0.148061
0
LINE
8
BLACK
6
CONTINUOUS
10
0.555401
20
0.148061
11
0.555666
21
0.148546
0
LINE
8
BLACK
6
CONTINUOUS
10
0.555666
20
0.148546
11
0.555331
21
0.148993
0
LINE
8
BLACK
6
CONTINUOUS
10
0.555331
20
0.148993
11
0.553995
21
0.149987
0
LINE
8
BLACK
6
CONTINUOUS
10
0.553995
20
0.149987
11
0.55364
21
0.150207
0
LINE
8
BLACK
6
CONTINUOUS
10
0.55364
20
0.150207
11
0.545825
21
0.154181
0
LINE
8
BLACK
6
CONTINUOUS
10
0.545825
20
0.154181
11
0.545437
21
0.154338
0
LINE
8
BLACK
6
CONTINUOUS
10
0.545437
20
0.154338
11
0.537064
21
0.156938
0
LINE
8
BLACK
6
CONTINUOUS
10
0.537064
20
0.156938
11
0.536655
21
0.157028
0
LINE
8
BLACK
6
CONTINUOUS
10
0.536655
20
0.157028
11
0.527964
21
0.15818
0
LINE
8
BLACK
6
CONTINUOUS
10
0.527964
20
0.15818
11
0.527546
21
0.1582
0
LINE
8
BLACK
6
CONTINUOUS
10
0.527546
20
0.1582
11
0.518785
21
0.157871
0
LINE
8
BLACK
6
CONTINUOUS
10
0.518785
20
0.157871
11
0.51837
21
0.15782
0
LINE
8
BLACK
6
CONTINUOUS
10
0.51837
20
0.15782
11
0.50979
21
0.156019
0
LINE
8
BLACK
6
CONTINUOUS
10
0.50979
20
0.156019
11
0.509389
21
0.155899
0
LINE
8
BLACK
6
CONTINUOUS
10
0.509389
20
0.155899
11
0.501235
21
0.152679
0
LINE
8
BLACK
6
CONTINUOUS
10
0.501235
20
0.152679
11
0.50086
21
0.152493
0
LINE
8
BLACK
6
CONTINUOUS
10
0.50086
20
0.152493
11
0.49506
21
0.148973
0
LINE
8
BLACK
6
CONTINUOUS
10
0.49506
20
0.148973
11
0.494686
21
0.148563
0
LINE
8
BLACK
6
CONTINUOUS
10
0.494686
20
0.148563
11
0.494831
21
0.148223
0
LINE
8
BLACK
6
CONTINUOUS
10
0.494831
20
0.148223
11
0.501715
21
0.141338
0
LINE
8
BLACK
6
CONTINUOUS
10
0.353995
20
0.149987
11
0.35364
21
0.150207
0
LINE
8
BLACK
6
CONTINUOUS
10
0.35364
20
0.150207
11
0.345825
21
0.154181
0
LINE
8
BLACK
6
CONTINUOUS
10
0.345825
20
0.154181
11
0.345437
21
0.154338
0
LINE
8
BLACK
6
CONTINUOUS
10
0.345437
20
0.154338
11
0.337064
21
0.156938
0
LINE
8
BLACK
6
CONTINUOUS
10
0.337064
20
0.156938
11
0.336655
21
0.157028
0
LINE
8
BLACK
6
CONTINUOUS
10
0.336655
20
0.157028
11
0.327964
21
0.15818
0
LINE
8
BLACK
6
CONTINUOUS
10
0.327964
20
0.15818
11
0.327546
21
0.1582
0
LINE
8
BLACK
6
CONTINUOUS
10
0.327546
20
0.1582
11
0.318785
21
0.157871
0
LINE
8
BLACK
6
CONTINUOUS
10
0.318785
20
0.157871
11
0.31837
21
0.15782
0
LINE
8
BLACK
6
CONTINUOUS
10
0.31837
20
0.15782
11
0.30979
21
0.156019
0
LINE
8
BLACK
6
CONTINUOUS
10
0.30979
20
0.156019
11
0.309389
21
0.155899
0
LINE
8
BLACK
6
CONTINUOUS
10
0.309389
20
0.155899
11
0.301235
21
0.152679
0
LINE
8
BLACK
6
CONTINUOUS
10
0.301235
20
0.152679
11
0.30086
21
0.152493
0
LINE
8
BLACK
6
CONTINUOUS
10
0.30086
20
0.152493
11
0.29506
21
0.148973
0
LINE
8
BLACK
6
CONTINUOUS
10
0.29506
20
0.148973
11
0.294686
21
0.148563
0
LINE
8
BLACK
6
CONTINUOUS
10
0.294686
20
0.148563
11
0.294831
21
0.148223
0
LINE
8
BLACK
6
CONTINUOUS
10
0.294831
20
0.148223
11
0.301715
21
0.141338
0
LINE
8
BLACK
6
CONTINUOUS
10
0.301715
20
0.141338
11
0.303118
21
0.142333
0
LINE
8
BLACK
6
CONTINUOUS
10
0.303118
20
0.142333
11
0.310777
21
0.145815
0
LINE
8
BLACK
6
CONTINUOUS
10
0.310777
20
0.145815
11
0.318956
21
0.147786
0
LINE
8
BLACK
6
CONTINUOUS
10
0.318956
20
0.147786
11
0.32736
21
0.148175
0
LINE
8
BLACK
6
CONTINUOUS
10
0.32736
20
0.148175
11
0.335687
21
0.146968
0
LINE
8
BLACK
6
CONTINUOUS
10
0.335687
20
0.146968
11
0.343634
21
0.144208
0
LINE
8
BLACK
6
CONTINUOUS
10
0.343634
20
0.144208
11
0.348648
21
0.141308
0
LINE
8
BLACK
6
CONTINUOUS
10
0.348648
20
0.141308
11
0.355401
21
0.148061
0
LINE
8
BLACK
6
CONTINUOUS
10
0.355401
20
0.148061
11
0.355666
21
0.148546
0
LINE
8
BLACK
6
CONTINUOUS
10
0.355666
20
0.148546
11
0.355654
21
0.148563
0
LINE
8
BLACK
6
CONTINUOUS
10
0.355654
20
0.148563
11
0.355331
21
0.148993
0
LINE
8
BLACK
6
CONTINUOUS
10
0.355331
20
0.148993
11
0.353995
21
0.149987
0
LINE
8
BLACK
6
CONTINUOUS
10
0.191628
20
0.0706769
11
0.191884
21
0.0705959
0
LINE
8
BLACK
6
CONTINUOUS
10
0.191884
20
0.0705959
11
0.192152
21
0.0705854
0
LINE
8
BLACK
6
CONTINUOUS
10
0.192152
20
0.0705854
11
0.19428
21
0.0698381
0
LINE
8
BLACK
6
CONTINUOUS
10
0.19428
20
0.0698381
11
0.196433
21
0.0691573
0
LINE
8
BLACK
6
CONTINUOUS
10
0.196433
20
0.0691573
11
0.196654
21
0.0690044
0
LINE
8
BLACK
6
CONTINUOUS
10
0.196654
20
0.0690044
11
0.196907
21
0.0689155
0
LINE
8
BLACK
6
CONTINUOUS
10
0.196907
20
0.0689155
11
0.198721
21
0.0675756
0
LINE
8
BLACK
6
CONTINUOUS
10
0.198721
20
0.0675756
11
0.200579
21
0.0662919
0
LINE
8
BLACK
6
CONTINUOUS
10
0.200579
20
0.0662919
11
0.200745
21
0.0660809
0
LINE
8
BLACK
6
CONTINUOUS
10
0.200745
20
0.0660809
11
0.200961
21
0.0659214
0
LINE
8
BLACK
6
CONTINUOUS
10
0.200961
20
0.0659214
11
0.245997
21
0.0208858
0
LINE
8
BLACK
6
CONTINUOUS
10
0.245997
20
0.0208858
11
0.388684
21
0.0208858
0
LINE
8
BLACK
6
CONTINUOUS
10
0.388684
20
0.0208858
11
0.3919
21
0.0267359
0
LINE
8
BLACK
6
CONTINUOUS
10
0.3919
20
0.0267359
11
0.396962
21
0.0327691
0
LINE
8
BLACK
6
CONTINUOUS
10
0.396962
20
0.0327691
11
0.4031
21
0.0377041
0
LINE
8
BLACK
6
CONTINUOUS
10
0.4031
20
0.0377041
11
0.41008
21
0.0413529
0
LINE
8
BLACK
6
CONTINUOUS
10
0.41008
20
0.0413529
11
0.417635
21
0.0435765
0
LINE
8
BLACK
6
CONTINUOUS
10
0.417635
20
0.0435765
11
0.425479
21
0.0442904
0
LINE
8
BLACK
6
CONTINUOUS
10
0.425479
20
0.0442904
11
0.433311
21
0.0434671
0
LINE
8
BLACK
6
CONTINUOUS
10
0.433311
20
0.0434671
11
0.440835
21
0.0411382
0
LINE
8
BLACK
6
CONTINUOUS
10
0.440835
20
0.0411382
11
0.447763
21
0.0373923
0
LINE
8
BLACK
6
CONTINUOUS
10
0.447763
20
0.0373923
11
0.453831
21
0.032372
0
LINE
8
BLACK
6
CONTINUOUS
10
0.453831
20
0.032372
11
0.458809
21
0.0262687
0
LINE
8
BLACK
6
CONTINUOUS
10
0.458809
20
0.0262687
11
0.462506
21
0.0193148
0
LINE
8
BLACK
6
CONTINUOUS
10
0.462506
20
0.0193148
11
0.464783
21
0.0117752
0
LINE
8
BLACK
6
CONTINUOUS
10
0.464783
20
0.0117752
11
0.465551
21
0.00393701
0
LINE
8
BLACK
6
CONTINUOUS
10
0.465551
20
0.00393701
11
0.465535
21
0.00281024
0
LINE
8
BLACK
6
CONTINUOUS
10
0.465535
20
0.00281024
11
0.464548
21
-0.00500343
0
LINE
8
BLACK
6
CONTINUOUS
10
0.464548
20
-0.00500343
11
0.462062
21
-0.0124766
0
LINE
8
BLACK
6
CONTINUOUS
10
0.462062
20
-0.0124766
11
0.458172
21
-0.0193245
0
LINE
8
BLACK
6
CONTINUOUS
10
0.458172
20
-0.0193245
11
0.453026
21
-0.0252865
0
LINE
8
BLACK
6
CONTINUOUS
10
0.453026
20
-0.0252865
11
0.44682
21
-0.0301353
0
LINE
8
BLACK
6
CONTINUOUS
10
0.44682
20
-0.0301353
11
0.43979
21
-0.0336863
0
LINE
8
BLACK
6
CONTINUOUS
10
0.43979
20
-0.0336863
11
0.432204
21
-0.0358043
0
LINE
8
BLACK
6
CONTINUOUS
10
0.432204
20
-0.0358043
11
0.424352
21
-0.0364085
0
LINE
8
BLACK
6
CONTINUOUS
10
0.424352
20
-0.0364085
11
0.416531
21
-0.0354759
0
LINE
8
BLACK
6
CONTINUOUS
10
0.416531
20
-0.0354759
11
0.409041
21
-0.0330422
0
LINE
8
BLACK
6
CONTINUOUS
10
0.409041
20
-0.0330422
11
0.402166
21
-0.0291999
0
LINE
8
BLACK
6
CONTINUOUS
10
0.402166
20
-0.0291999
11
0.396168
21
-0.0240955
0
LINE
8
BLACK
6
CONTINUOUS
10
0.396168
20
-0.0240955
11
0.391276
21
-0.0179233
0
LINE
8
BLACK
6
CONTINUOUS
10
0.391276
20
-0.0179233
11
0.388752
21
-0.0130118
0
LINE
8
BLACK
6
CONTINUOUS
10
0.388752
20
-0.0130118
11
0.238976
21
-0.0130118
0
LINE
8
BLACK
6
CONTINUOUS
10
0.238976
20
-0.0130118
11
0.236325
21
-0.0128031
0
LINE
8
BLACK
6
CONTINUOUS
10
0.236325
20
-0.0128031
11
0.236069
21
-0.0127221
0
LINE
8
BLACK
6
CONTINUOUS
10
0.236069
20
-0.0127221
11
0.2358
21
-0.0127116
0
LINE
8
BLACK
6
CONTINUOUS
10
0.2358
20
-0.0127116
11
0.233672
21
-0.0119641
0
LINE
8
BLACK
6
CONTINUOUS
10
0.233672
20
-0.0119641
11
0.23152
21
-0.0112835
0
LINE
8
BLACK
6
CONTINUOUS
10
0.23152
20
-0.0112835
11
0.231299
21
-0.0111307
0
LINE
8
BLACK
6
CONTINUOUS
10
0.231299
20
-0.0111307
11
0.231045
21
-0.0110418
0
LINE
8
BLACK
6
CONTINUOUS
10
0.231045
20
-0.0110418
11
0.22923
21
-0.0097013
0
LINE
8
BLACK
6
CONTINUOUS
10
0.22923
20
-0.0097013
11
0.227374
21
-0.00841815
0
LINE
8
BLACK
6
CONTINUOUS
10
0.227374
20
-0.00841815
11
0.227208
21
-0.00820717
0
LINE
8
BLACK
6
CONTINUOUS
10
0.227208
20
-0.00820717
11
0.226991
21
-0.0080476
0
LINE
8
BLACK
6
CONTINUOUS
10
0.226991
20
-0.0080476
11
0.181956
21
0.036988
0
LINE
8
BLACK
6
CONTINUOUS
10
0.181956
20
0.036988
11
0.130512
21
0.036988
0
LINE
8
BLACK
6
CONTINUOUS
10
0.130512
20
0.036988
11
0.127861
21
0.0371966
0
LINE
8
BLACK
6
CONTINUOUS
10
0.127861
20
0.0371966
11
0.127604
21
0.0372776
0
LINE
8
BLACK
6
CONTINUOUS
10
0.127604
20
0.0372776
11
0.127336
21
0.0372882
0
LINE
8
BLACK
6
CONTINUOUS
10
0.127336
20
0.0372882
11
0.125208
21
0.0380354
0
LINE
8
BLACK
6
CONTINUOUS
10
0.125208
20
0.0380354
11
0.123056
21
0.0387163
0
LINE
8
BLACK
6
CONTINUOUS
10
0.123056
20
0.0387163
11
0.122834
21
0.0388691
0
LINE
8
BLACK
6
CONTINUOUS
10
0.122834
20
0.0388691
11
0.122581
21
0.038958
0
LINE
8
BLACK
6
CONTINUOUS
10
0.122581
20
0.038958
11
0.122556
21
0.0389764
0
LINE
8
BLACK
6
CONTINUOUS
10
0.122556
20
0.0389764
11
0.102953
21
0.0389764
0
LINE
8
BLACK
6
CONTINUOUS
10
0.102953
20
0.0389764
11
0.102953
21
0.0688976
0
LINE
8
BLACK
6
CONTINUOUS
10
0.102953
20
0.0688976
11
0.122828
21
0.0688976
0
LINE
8
BLACK
6
CONTINUOUS
10
0.122828
20
0.0688976
11
0.123781
21
0.0694919
0
LINE
8
BLACK
6
CONTINUOUS
10
0.123781
20
0.0694919
11
0.124686
21
0.069732
0
LINE
8
BLACK
6
CONTINUOUS
10
0.124686
20
0.069732
11
0.125528
21
0.0701363
0
LINE
8
BLACK
6
CONTINUOUS
10
0.125528
20
0.0701363
11
0.127106
21
0.0703735
0
LINE
8
BLACK
6
CONTINUOUS
10
0.127106
20
0.0703735
11
0.128652
21
0.0707835
0
LINE
8
BLACK
6
CONTINUOUS
10
0.128652
20
0.0707835
11
0.129588
21
0.0707467
0
LINE
8
BLACK
6
CONTINUOUS
10
0.129588
20
0.0707467
11
0.130512
21
0.0708856
0
LINE
8
BLACK
6
CONTINUOUS
10
0.130512
20
0.0708856
11
0.188976
21
0.0708856
0
LINE
8
BLACK
6
CONTINUOUS
10
0.188976
20
0.0708856
11
0.191628
21
0.0706769
0
LINE
8
BLACK
6
CONTINUOUS
10
0.158071
20
-0.0110236
11
0.102953
21
-0.0110236
0
LINE
8
BLACK
6
CONTINUOUS
10
0.102953
20
-0.0110236
11
0.102953
21
0.0188976
0
LINE
8
BLACK
6
CONTINUOUS
10
0.102953
20
0.0188976
11
0.158071
21
0.0188976
0
LINE
8
BLACK
6
CONTINUOUS
10
0.158071
20
0.0188976
11
0.158071
21
-0.0110236
0
CIRCLE
8
BLACK
10
0.238488
20
-0.0926929
40
0.00787402
0
CIRCLE
8
BLACK
10
0.251969
20
-0.0472441
40
0.00787402
0
CIRCLE
8
BLACK
10
0.424488
20
0.107307
40
0.00787402
0
CIRCLE
8
BLACK
10
0.19685
20
-0.0472441
40
0.00787402
0
CIRCLE
8
BLACK
10
0.518488
20
0.00730709
40
0.00787402
0
CIRCLE
8
BLACK
10
0.426488
20
-0.0986929
40
0.00787402
0
CIRCLE
8
BLACK
10
0.220488
20
0.0893071
40
0.00787402
0
CIRCLE
8
BLACK
10
0.0590551
20
0.11811
40
0.00787402
0
CIRCLE
8
BLACK
10
-0.00951181
20
0.0493071
40
0.00787402
0
CIRCLE
8
BLACK
10
0.403228
20
0.410047
40
0.00787402
0
CIRCLE
8
BLACK
10
-0.326252
20
0.330047
40
0.00787402
0
CIRCLE
8
BLACK
10
-0.286882
20
0.290677
40
0.00787402
0
CIRCLE
8
BLACK
10
-0.250882
20
0.328677
40
0.00787402
0
CIRCLE
8
BLACK
10
-0.290252
20
0.368047
40
0.00787402
0
CIRCLE
8
BLACK
10
-0.0787402
20
0.11811
40
0.00787402
0
CIRCLE
8
BLACK
10
0.285118
20
0.291937
40
0.00787402
0
CIRCLE
8
BLACK
10
0.209748
20
0.288567
40
0.00787402
0
CIRCLE
8
BLACK
10
-0.329622
20
0.407417
40
0.00787402
0
CIRCLE
8
BLACK
10
-0.368992
20
0.446787
40
0.00787402
0
CIRCLE
8
BLACK
10
-0.404992
20
0.408787
40
0.00787402
0
CIRCLE
8
BLACK
10
0.324488
20
0.331307
40
0.00787402
0
CIRCLE
8
BLACK
10
0.363858
20
0.370677
40
0.00787402
0
CIRCLE
8
BLACK
10
-0.211512
20
0.289307
40
0.00787402
0
CIRCLE
8
BLACK
10
0.367228
20
0.446047
40
0.00787402
0
CIRCLE
8
BLACK
10
0.249118
20
0.327937
40
0.00787402
0
CIRCLE
8
BLACK
10
0.327858
20
0.406677
40
0.00787402
0
CIRCLE
8
BLACK
10
0.288488
20
0.367307
40
0.00787402
0
CIRCLE
8
BLACK
10
0.245748
20
0.252567
40
0.00787402
0
CIRCLE
8
BLACK
10
-0.247512
20
0.251307
40
0.00787402
0
CIRCLE
8
BLACK
10
-0.365622
20
0.369417
40
0.00787402
0
CIRCLE
8
BLACK
10
-0.244142
20
-0.243323
40
0.00787402
0
CIRCLE
8
BLACK
10
0.280378
20
-0.282583
40
0.00787402
0
CIRCLE
8
BLACK
10
-0.365622
20
-0.436803
40
0.00787402
0
CIRCLE
8
BLACK
10
0.359118
20
-0.361323
40
0.00787402
0
CIRCLE
8
BLACK
10
-0.322882
20
-0.322063
40
0.00787402
0
CIRCLE
8
BLACK
10
0.319748
20
-0.321953
40
0.00787402
0
CIRCLE
8
BLACK
10
-0.283512
20
-0.282693
40
0.00787402
0
CIRCLE
8
BLACK
10
-0.362252
20
-0.361433
40
0.00787402
0
CIRCLE
8
BLACK
10
-0.0787402
20
-0.11811
40
0.00787402
0
CIRCLE
8
BLACK
10
0.241008
20
-0.243213
40
0.00787402
0
CIRCLE
8
BLACK
10
0.287748
20
-0.359953
40
0.00787402
0
CIRCLE
8
BLACK
10
-0.326252
20
-0.397433
40
0.00787402
0
CIRCLE
8
BLACK
10
0.248378
20
-0.320583
40
0.00787402
0
CIRCLE
8
BLACK
10
-0.00551181
20
-0.0866929
40
0.00787402
0
CIRCLE
8
BLACK
10
0.209008
20
-0.281213
40
0.00787402
0
CIRCLE
8
BLACK
10
0.327118
20
-0.399323
40
0.00787402
0
CIRCLE
8
BLACK
10
0.398488
20
-0.400693
40
0.00787402
0
CIRCLE
8
BLACK
10
-0.286882
20
-0.358063
40
0.00787402
0
CIRCLE
8
BLACK
10
-0.208142
20
-0.279323
40
0.00787402
0
CIRCLE
8
BLACK
10
-0.401622
20
-0.400803
40
0.00787402
0
CIRCLE
8
BLACK
10
0.0731299
20
-0.12372
40
0.00787402
0
CIRCLE
8
BLACK
10
0.366488
20
-0.438693
40
0.00787402
0
CIRCLE
8
BLACK
10
-0.247512
20
-0.318693
40
0.00787402
0
CIRCLE
8
BLACK
10
0.188976
20
0.0539368
40
0.00787402
  0
ENDSEC
  0
EOF
