M48
; DRILL file {KiCad (5.99.0-6591-gee6c8b60ac)} date 11/10/20 06:43:57
; FORMAT={3:3/ absolute / metric / suppress leading zeros}
; #@! TF.CreationDate,2020-11-10T06:43:57+01:00
; #@! TF.GenerationSoftware,Kicad,Pcbnew,(5.99.0-6591-gee6c8b60ac)
; #@! TF.FileFunction,Plated,1,2,PTH
FMAT,2
METRIC,TZ
T1C0.400
T2C1.500
T3C1.700
T4C2.200
%
G90
G05
T1
X139713Y-79617
X139799Y-100180
X140628Y-78652
X140713Y-80617
X140713Y-101095
X140799Y-99180
X141628Y-79652
X141713Y-81617
X141713Y-100095
X141799Y-98180
X142628Y-80652
X142713Y-82617
X142713Y-99095
X142799Y-97180
X143628Y-81652
X143713Y-83617
X143713Y-98095
X143799Y-96180
X144628Y-82652
X144713Y-97095
X148000Y-87000
X148000Y-93000
X149758Y-88748
X149860Y-92202
X151500Y-87000
X151857Y-93143
X154800Y-88630
X155000Y-91200
X155309Y-97143
X155328Y-82670
X155600Y-87732
X156058Y-92354
X156122Y-96178
X156242Y-83585
X156309Y-98143
X156328Y-81670
X156400Y-91200
X157122Y-97178
X157242Y-82585
X157309Y-99143
X157328Y-80670
X158122Y-98178
X158242Y-81585
X158309Y-100143
X158328Y-79670
X159122Y-99178
X159242Y-80585
X159309Y-101143
X159328Y-78670
X160122Y-100178
X160242Y-79585
X160782Y-87274
X160833Y-92507
X163170Y-89814
T2
X160800Y-89900
T3
X158260Y-87360
X158260Y-92440
X163340Y-87360
X163340Y-92440
T4
X145500Y-84400
X145500Y-95400
X154500Y-95400
X154500Y-84400
T0
M30
