G04 #@! TF.GenerationSoftware,KiCad,Pcbnew,(5.99.0-6591-gee6c8b60ac)*
G04 #@! TF.CreationDate,2020-11-10T06:43:54+01:00*
G04 #@! TF.ProjectId,QFHBAL01,51464842-414c-4303-912e-6b696361645f,rev?*
G04 #@! TF.SameCoordinates,Original*
G04 #@! TF.FileFunction,Copper,L2,Bot*
G04 #@! TF.FilePolarity,Positive*
%FSLAX46Y46*%
G04 Gerber Fmt 4.6, Leading zero omitted, Abs format (unit mm)*
G04 Created by KiCad (PCBNEW (5.99.0-6591-gee6c8b60ac)) date 2020-11-10 06:43:54*
%MOMM*%
%LPD*%
G01*
G04 APERTURE LIST*
G04 Aperture macros list*
%AMHorizOval*
0 Thick line with rounded ends*
0 $1 width*
0 $2 $3 position (X,Y) of the first rounded end (center of the circle)*
0 $4 $5 position (X,Y) of the second rounded end (center of the circle)*
0 Add line between two ends*
20,1,$1,$2,$3,$4,$5,0*
0 Add two circle primitives to create the rounded ends*
1,1,$1,$2,$3,0*
1,1,$1,$4,$5,0*%
G04 Aperture macros list end*
G04 #@! TA.AperFunction,ComponentPad*
%ADD10C,2.050000*%
G04 #@! TD*
G04 #@! TA.AperFunction,ComponentPad*
%ADD11C,2.250000*%
G04 #@! TD*
G04 #@! TA.AperFunction,ComponentPad*
%ADD12HorizOval,3.000000X-2.474874X2.474874X2.474874X-2.474874X0*%
G04 #@! TD*
G04 #@! TA.AperFunction,SMDPad,CuDef*
%ADD13R,0.760000X1.400000*%
G04 #@! TD*
G04 #@! TA.AperFunction,ComponentPad*
%ADD14HorizOval,3.000000X-2.474874X-2.474874X2.474874X2.474874X0*%
G04 #@! TD*
G04 #@! TA.AperFunction,ComponentPad*
%ADD15HorizOval,3.000000X2.474874X2.474874X-2.474874X-2.474874X0*%
G04 #@! TD*
G04 #@! TA.AperFunction,ViaPad*
%ADD16C,0.800000*%
G04 #@! TD*
G04 #@! TA.AperFunction,Conductor*
%ADD17C,2.100000*%
G04 #@! TD*
G04 #@! TA.AperFunction,Conductor*
%ADD18C,1.000000*%
G04 #@! TD*
G04 #@! TA.AperFunction,Conductor*
%ADD19C,0.861000*%
G04 #@! TD*
G04 APERTURE END LIST*
D10*
X160800000Y-89900000D03*
D11*
X163340000Y-87360000D03*
X163340000Y-92440000D03*
X158260000Y-87360000D03*
X158260000Y-92440000D03*
D12*
X143095837Y-81995837D03*
X156904163Y-97804163D03*
D13*
X150730000Y-88185000D03*
X153270000Y-88185000D03*
X153270000Y-91615000D03*
X152000000Y-91615000D03*
X150730000Y-91615000D03*
D14*
X143095837Y-97804163D03*
D15*
X156904163Y-81995837D03*
D16*
X156057600Y-92354400D03*
X156400000Y-91200000D03*
X160782000Y-87274400D03*
X155000000Y-91200000D03*
X163169600Y-89814400D03*
X160832800Y-92506800D03*
X155600400Y-87731600D03*
X151500000Y-87000000D03*
X149758400Y-88747600D03*
X160242000Y-79584800D03*
X141713200Y-81616800D03*
X142713200Y-82616800D03*
X143627600Y-81651600D03*
X142627600Y-80651600D03*
X148000000Y-87000000D03*
X157242000Y-82584800D03*
X155327600Y-82670400D03*
X141627600Y-79651600D03*
X140627600Y-78651600D03*
X139713200Y-79616800D03*
X158242000Y-81584800D03*
X159242000Y-80584800D03*
X144627600Y-82651600D03*
X159327600Y-78670400D03*
X156327600Y-81670400D03*
X158327600Y-79670400D03*
X157327600Y-80670400D03*
X156242000Y-83584800D03*
X143713200Y-83616800D03*
X140713200Y-80616800D03*
X143798800Y-96180400D03*
X157121600Y-97177600D03*
X140713200Y-101094800D03*
X159121600Y-99177600D03*
X141798800Y-98180400D03*
X158121600Y-98177600D03*
X142798800Y-97180400D03*
X140798800Y-99180400D03*
X148000000Y-93000000D03*
X156121600Y-96177600D03*
X157308800Y-99142800D03*
X141713200Y-100094800D03*
X156308800Y-98142800D03*
X149860000Y-92202000D03*
X155308800Y-97142800D03*
X158308800Y-100142800D03*
X160121600Y-100177600D03*
X142713200Y-99094800D03*
X144713200Y-97094800D03*
X139798800Y-100180400D03*
X151857500Y-93142500D03*
X159308800Y-101142800D03*
X143713200Y-98094800D03*
X154800000Y-88630006D03*
D17*
X151250000Y-87250000D02*
X150730000Y-87770000D01*
X149730000Y-88630000D02*
X150175000Y-88185000D01*
X145500000Y-84400000D02*
X149730000Y-88630000D01*
X154100000Y-84400000D02*
X151250000Y-87250000D01*
D18*
X151105300Y-93142500D02*
X151857500Y-93142500D01*
D17*
X145500000Y-95400000D02*
X145700000Y-95400000D01*
D18*
X150520400Y-91820400D02*
X150520400Y-92557600D01*
D17*
X145700000Y-95400000D02*
X149900000Y-91200000D01*
X152280001Y-93565001D02*
X154115000Y-95400000D01*
D18*
X149900000Y-91200000D02*
X150520400Y-91820400D01*
X150520400Y-92557600D02*
X151105300Y-93142500D01*
D19*
X154354994Y-88185000D02*
X154800000Y-88630006D01*
X153270000Y-88185000D02*
X154354994Y-88185000D01*
G04 #@! TA.AperFunction,Conductor*
G36*
X164883022Y-85420002D02*
G01*
X164936050Y-85491375D01*
X165107066Y-86089748D01*
X165108663Y-86095922D01*
X165233602Y-86634945D01*
X165236856Y-86663396D01*
X165236856Y-93343076D01*
X165233400Y-93372383D01*
X165102789Y-93918520D01*
X165081045Y-94009439D01*
X165079406Y-94015602D01*
X164993194Y-94309470D01*
X164954824Y-94369205D01*
X164872289Y-94400000D01*
X157448712Y-94400000D01*
X157363955Y-94367232D01*
X156760748Y-93818862D01*
X156488810Y-93571645D01*
X157486835Y-93571645D01*
X157497380Y-93584643D01*
X157618272Y-93661215D01*
X157627718Y-93666132D01*
X157833209Y-93751881D01*
X157843348Y-93755137D01*
X158060353Y-93805037D01*
X158070887Y-93806536D01*
X158293198Y-93819159D01*
X158303841Y-93818862D01*
X158525106Y-93793847D01*
X158535525Y-93791766D01*
X158749425Y-93729824D01*
X158759350Y-93726014D01*
X158959750Y-93628921D01*
X158968888Y-93623495D01*
X159024751Y-93583576D01*
X159033154Y-93572853D01*
X159032512Y-93571645D01*
X162566835Y-93571645D01*
X162577380Y-93584643D01*
X162698272Y-93661215D01*
X162707718Y-93666132D01*
X162913209Y-93751881D01*
X162923348Y-93755137D01*
X163140353Y-93805037D01*
X163150887Y-93806536D01*
X163373198Y-93819159D01*
X163383841Y-93818862D01*
X163605106Y-93793847D01*
X163615525Y-93791766D01*
X163829425Y-93729824D01*
X163839350Y-93726014D01*
X164039750Y-93628921D01*
X164048888Y-93623495D01*
X164104751Y-93583576D01*
X164113154Y-93572853D01*
X164106175Y-93559728D01*
X163352812Y-92806365D01*
X163338868Y-92798751D01*
X163337035Y-92798882D01*
X163330420Y-92803133D01*
X162572762Y-93560791D01*
X162566835Y-93571645D01*
X159032512Y-93571645D01*
X159026175Y-93559728D01*
X158272812Y-92806365D01*
X158258868Y-92798751D01*
X158257035Y-92798882D01*
X158250420Y-92803133D01*
X157492762Y-93560791D01*
X157486835Y-93571645D01*
X156488810Y-93571645D01*
X155351941Y-92538128D01*
X156883936Y-92538128D01*
X156884734Y-92548743D01*
X156920143Y-92768583D01*
X156922717Y-92778905D01*
X156994662Y-92989639D01*
X156998936Y-92999375D01*
X157105359Y-93194974D01*
X157111215Y-93203855D01*
X157113831Y-93207174D01*
X157125755Y-93215645D01*
X157137288Y-93209159D01*
X157893635Y-92452812D01*
X157900012Y-92441132D01*
X158618751Y-92441132D01*
X158618882Y-92442965D01*
X158623133Y-92449580D01*
X159380114Y-93206561D01*
X159391906Y-93213000D01*
X159403900Y-93203730D01*
X159449635Y-93138536D01*
X159454984Y-93129345D01*
X159550321Y-92928112D01*
X159554049Y-92918143D01*
X159614117Y-92703722D01*
X159616109Y-92693280D01*
X159632279Y-92538128D01*
X161963936Y-92538128D01*
X161964734Y-92548743D01*
X162000143Y-92768583D01*
X162002717Y-92778905D01*
X162074662Y-92989639D01*
X162078936Y-92999375D01*
X162185359Y-93194974D01*
X162191215Y-93203855D01*
X162193831Y-93207174D01*
X162205755Y-93215645D01*
X162217288Y-93209159D01*
X162973635Y-92452812D01*
X162980012Y-92441132D01*
X163698751Y-92441132D01*
X163698882Y-92442965D01*
X163703133Y-92449580D01*
X164460114Y-93206561D01*
X164471906Y-93213000D01*
X164483900Y-93203730D01*
X164529635Y-93138536D01*
X164534984Y-93129345D01*
X164630321Y-92928112D01*
X164634049Y-92918143D01*
X164694117Y-92703722D01*
X164696109Y-92693280D01*
X164719439Y-92469440D01*
X164719774Y-92463527D01*
X164719972Y-92442963D01*
X164719750Y-92437052D01*
X164700722Y-92212805D01*
X164698930Y-92202317D01*
X164642987Y-91986781D01*
X164639455Y-91976753D01*
X164548001Y-91773730D01*
X164542821Y-91764424D01*
X164483052Y-91675646D01*
X164473045Y-91667342D01*
X164458984Y-91674569D01*
X163706365Y-92427188D01*
X163698751Y-92441132D01*
X162980012Y-92441132D01*
X162981249Y-92438868D01*
X162981118Y-92437035D01*
X162976867Y-92430420D01*
X162216464Y-91670017D01*
X162203281Y-91662818D01*
X162198032Y-91666569D01*
X162089910Y-91856513D01*
X162085445Y-91866177D01*
X162009469Y-92075488D01*
X162006698Y-92085756D01*
X161967074Y-92304877D01*
X161966073Y-92315471D01*
X161963936Y-92538128D01*
X159632279Y-92538128D01*
X159639439Y-92469440D01*
X159639774Y-92463527D01*
X159639972Y-92442963D01*
X159639750Y-92437052D01*
X159620722Y-92212805D01*
X159618930Y-92202317D01*
X159562987Y-91986781D01*
X159559455Y-91976753D01*
X159468001Y-91773730D01*
X159462821Y-91764424D01*
X159403052Y-91675646D01*
X159393045Y-91667342D01*
X159378984Y-91674569D01*
X158626365Y-92427188D01*
X158618751Y-92441132D01*
X157900012Y-92441132D01*
X157901249Y-92438868D01*
X157901118Y-92437035D01*
X157896867Y-92430420D01*
X157136464Y-91670017D01*
X157123281Y-91662818D01*
X157118032Y-91666569D01*
X157009910Y-91856513D01*
X157005445Y-91866177D01*
X156929469Y-92075488D01*
X156926698Y-92085756D01*
X156887074Y-92304877D01*
X156886073Y-92315471D01*
X156883936Y-92538128D01*
X155351941Y-92538128D01*
X155200000Y-92400000D01*
X154031000Y-92400000D01*
X153962879Y-92379998D01*
X153916386Y-92326342D01*
X153905000Y-92274000D01*
X153905000Y-91883115D01*
X153900525Y-91867876D01*
X153899135Y-91866671D01*
X153891452Y-91865000D01*
X153519999Y-91865000D01*
X153146000Y-91864999D01*
X153077879Y-91844997D01*
X153031386Y-91791341D01*
X153020000Y-91738999D01*
X153020000Y-91346886D01*
X153519999Y-91346886D01*
X153524474Y-91362125D01*
X153525864Y-91363330D01*
X153533547Y-91365001D01*
X153886885Y-91365001D01*
X153902124Y-91360526D01*
X153903329Y-91359136D01*
X153905000Y-91351453D01*
X153905000Y-91304881D01*
X157486489Y-91304881D01*
X157494062Y-91320509D01*
X158247188Y-92073635D01*
X158261132Y-92081249D01*
X158262965Y-92081118D01*
X158269580Y-92076867D01*
X159027196Y-91319251D01*
X159033926Y-91306926D01*
X159032391Y-91304881D01*
X162566489Y-91304881D01*
X162574062Y-91320509D01*
X163327188Y-92073635D01*
X163341132Y-92081249D01*
X163342965Y-92081118D01*
X163349580Y-92076867D01*
X164107196Y-91319251D01*
X164113926Y-91306926D01*
X164105398Y-91295569D01*
X164071481Y-91270334D01*
X164062444Y-91264730D01*
X163863945Y-91163808D01*
X163854094Y-91159808D01*
X163641428Y-91093774D01*
X163631047Y-91091491D01*
X163410291Y-91062232D01*
X163399676Y-91061732D01*
X163177151Y-91070086D01*
X163166602Y-91071381D01*
X162948661Y-91117110D01*
X162938480Y-91120164D01*
X162731364Y-91201959D01*
X162721842Y-91206686D01*
X162574520Y-91296082D01*
X162566489Y-91304881D01*
X159032391Y-91304881D01*
X159025398Y-91295569D01*
X158991481Y-91270334D01*
X158982444Y-91264730D01*
X158783945Y-91163808D01*
X158774094Y-91159808D01*
X158561428Y-91093774D01*
X158551047Y-91091491D01*
X158330291Y-91062232D01*
X158319676Y-91061732D01*
X158097151Y-91070086D01*
X158086602Y-91071381D01*
X157868661Y-91117110D01*
X157858480Y-91120164D01*
X157651364Y-91201959D01*
X157641842Y-91206686D01*
X157494520Y-91296082D01*
X157486489Y-91304881D01*
X153905000Y-91304881D01*
X153905000Y-90921187D01*
X153903793Y-90908933D01*
X153888010Y-90829585D01*
X153878696Y-90807099D01*
X153837205Y-90745004D01*
X153819996Y-90727795D01*
X153757901Y-90686304D01*
X153735415Y-90676990D01*
X153656067Y-90661207D01*
X153643813Y-90660000D01*
X153538115Y-90660000D01*
X153522876Y-90664475D01*
X153521671Y-90665865D01*
X153520000Y-90673548D01*
X153519999Y-91346886D01*
X153020000Y-91346886D01*
X153020001Y-90678115D01*
X153015526Y-90662876D01*
X153014136Y-90661671D01*
X153006453Y-90660000D01*
X152896187Y-90660000D01*
X152883933Y-90661207D01*
X152804585Y-90676990D01*
X152782099Y-90686304D01*
X152709688Y-90734688D01*
X152708162Y-90732404D01*
X152661783Y-90757730D01*
X152590968Y-90752665D01*
X152561118Y-90733481D01*
X152560312Y-90734688D01*
X152487901Y-90686304D01*
X152487899Y-90686303D01*
X152477584Y-90679411D01*
X152465417Y-90676991D01*
X152465415Y-90676990D01*
X152394458Y-90662876D01*
X152380000Y-90660000D01*
X151726000Y-90660000D01*
X151657879Y-90639998D01*
X151611386Y-90586342D01*
X151600000Y-90534000D01*
X151600000Y-89980372D01*
X159522526Y-89980372D01*
X159556948Y-90205323D01*
X159630662Y-90420623D01*
X159741337Y-90619467D01*
X159774513Y-90660000D01*
X159881922Y-90791229D01*
X159881927Y-90791234D01*
X159885475Y-90795569D01*
X160058520Y-90943364D01*
X160063365Y-90946195D01*
X160250156Y-91055347D01*
X160250159Y-91055348D01*
X160255003Y-91058179D01*
X160260273Y-91060108D01*
X160260274Y-91060108D01*
X160463448Y-91134459D01*
X160463451Y-91134460D01*
X160468712Y-91136385D01*
X160474228Y-91137348D01*
X160474233Y-91137349D01*
X160625837Y-91163808D01*
X160692892Y-91175511D01*
X160698498Y-91175482D01*
X160698502Y-91175482D01*
X160803117Y-91174934D01*
X160920459Y-91174319D01*
X160977172Y-91163808D01*
X161032338Y-91153583D01*
X161144217Y-91132848D01*
X161177785Y-91120164D01*
X161331097Y-91062232D01*
X161357096Y-91052408D01*
X161552365Y-90935542D01*
X161723853Y-90785943D01*
X161803679Y-90686304D01*
X161862633Y-90612718D01*
X161862636Y-90612713D01*
X161866139Y-90608341D01*
X161906503Y-90534000D01*
X161972052Y-90413275D01*
X161972054Y-90413270D01*
X161974726Y-90408349D01*
X162046181Y-90192289D01*
X162075552Y-89985918D01*
X162077735Y-89970581D01*
X162077735Y-89970580D01*
X162078246Y-89966990D01*
X162080000Y-89900000D01*
X162059770Y-89673332D01*
X161999721Y-89453828D01*
X161932678Y-89313268D01*
X161904167Y-89253494D01*
X161904166Y-89253493D01*
X161901750Y-89248427D01*
X161846870Y-89172053D01*
X161772231Y-89068182D01*
X161772229Y-89068180D01*
X161768954Y-89063622D01*
X161654991Y-88953184D01*
X161609563Y-88909161D01*
X161609561Y-88909160D01*
X161605530Y-88905253D01*
X161547116Y-88866000D01*
X161421305Y-88781458D01*
X161421302Y-88781456D01*
X161416645Y-88778327D01*
X161208268Y-88686856D01*
X161202817Y-88685547D01*
X161202813Y-88685546D01*
X160992443Y-88635041D01*
X160992442Y-88635041D01*
X160986986Y-88633731D01*
X160901695Y-88628813D01*
X160765401Y-88620955D01*
X160765398Y-88620955D01*
X160759794Y-88620632D01*
X160533873Y-88647971D01*
X160316364Y-88714886D01*
X160311384Y-88717456D01*
X160311380Y-88717458D01*
X160187382Y-88781458D01*
X160114142Y-88819260D01*
X159933599Y-88957796D01*
X159929828Y-88961941D01*
X159929824Y-88961944D01*
X159795992Y-89109024D01*
X159780442Y-89126113D01*
X159777459Y-89130869D01*
X159777457Y-89130871D01*
X159769778Y-89143113D01*
X159659512Y-89318892D01*
X159574631Y-89530039D01*
X159573494Y-89535530D01*
X159573493Y-89535533D01*
X159543798Y-89678928D01*
X159528483Y-89752880D01*
X159522526Y-89980372D01*
X151600000Y-89980372D01*
X151600000Y-88791373D01*
X151636905Y-88702278D01*
X152384201Y-87954982D01*
X152446513Y-87920956D01*
X152517328Y-87926021D01*
X152574164Y-87968568D01*
X152598975Y-88035088D01*
X152595499Y-88074774D01*
X152591261Y-88091647D01*
X152589409Y-88099021D01*
X152589369Y-88106619D01*
X152589369Y-88106621D01*
X152589251Y-88129159D01*
X152588546Y-88263847D01*
X152590320Y-88271234D01*
X152590320Y-88271238D01*
X152594286Y-88287757D01*
X152627025Y-88424120D01*
X152627805Y-88425632D01*
X152635000Y-88465616D01*
X152635000Y-88885000D01*
X152636207Y-88891067D01*
X152651990Y-88970412D01*
X152654411Y-88982584D01*
X152661303Y-88992899D01*
X152661304Y-88992901D01*
X152686772Y-89031016D01*
X152709688Y-89065312D01*
X152720004Y-89072205D01*
X152782099Y-89113696D01*
X152782101Y-89113697D01*
X152792416Y-89120589D01*
X152804583Y-89123009D01*
X152804585Y-89123010D01*
X152844106Y-89130871D01*
X152890000Y-89140000D01*
X153650000Y-89140000D01*
X153695894Y-89130871D01*
X153735415Y-89123010D01*
X153735417Y-89123009D01*
X153747584Y-89120589D01*
X153757899Y-89113697D01*
X153757901Y-89113696D01*
X153819996Y-89072205D01*
X153830312Y-89065312D01*
X153853228Y-89031016D01*
X153878696Y-88992901D01*
X153878697Y-88992899D01*
X153885589Y-88982584D01*
X153888010Y-88970415D01*
X153888011Y-88970412D01*
X153888607Y-88967416D01*
X153891706Y-88961493D01*
X153892760Y-88958947D01*
X153892988Y-88959041D01*
X153921515Y-88904507D01*
X154012185Y-88866000D01*
X154020725Y-88866000D01*
X154109820Y-88902905D01*
X154347677Y-89140762D01*
X154444633Y-89216786D01*
X154451550Y-89219909D01*
X154451553Y-89219911D01*
X154537974Y-89258931D01*
X154594858Y-89284615D01*
X154602326Y-89285999D01*
X154602329Y-89286000D01*
X154705732Y-89305164D01*
X154756926Y-89314652D01*
X154764506Y-89314215D01*
X154764507Y-89314215D01*
X154797598Y-89312307D01*
X154921479Y-89305164D01*
X155079021Y-89256698D01*
X155220454Y-89172053D01*
X155225847Y-89166716D01*
X155225851Y-89166713D01*
X155280091Y-89113037D01*
X155337614Y-89056113D01*
X155395320Y-88961944D01*
X155419764Y-88922055D01*
X155419765Y-88922052D01*
X155423735Y-88915574D01*
X155435467Y-88878813D01*
X155471540Y-88765785D01*
X155471541Y-88765782D01*
X155473849Y-88758549D01*
X155475795Y-88730004D01*
X155484544Y-88601680D01*
X155484544Y-88601676D01*
X155485060Y-88594104D01*
X155482811Y-88581215D01*
X155467179Y-88491645D01*
X157486835Y-88491645D01*
X157497380Y-88504643D01*
X157618272Y-88581215D01*
X157627718Y-88586132D01*
X157833209Y-88671881D01*
X157843348Y-88675137D01*
X158060353Y-88725037D01*
X158070887Y-88726536D01*
X158293198Y-88739159D01*
X158303841Y-88738862D01*
X158525106Y-88713847D01*
X158535525Y-88711766D01*
X158749425Y-88649824D01*
X158759350Y-88646014D01*
X158959750Y-88548921D01*
X158968888Y-88543495D01*
X159024751Y-88503576D01*
X159033154Y-88492853D01*
X159032512Y-88491645D01*
X162566835Y-88491645D01*
X162577380Y-88504643D01*
X162698272Y-88581215D01*
X162707718Y-88586132D01*
X162913209Y-88671881D01*
X162923348Y-88675137D01*
X163140353Y-88725037D01*
X163150887Y-88726536D01*
X163373198Y-88739159D01*
X163383841Y-88738862D01*
X163605106Y-88713847D01*
X163615525Y-88711766D01*
X163829425Y-88649824D01*
X163839350Y-88646014D01*
X164039750Y-88548921D01*
X164048888Y-88543495D01*
X164104751Y-88503576D01*
X164113154Y-88492853D01*
X164106175Y-88479728D01*
X163352812Y-87726365D01*
X163338868Y-87718751D01*
X163337035Y-87718882D01*
X163330420Y-87723133D01*
X162572762Y-88480791D01*
X162566835Y-88491645D01*
X159032512Y-88491645D01*
X159026175Y-88479728D01*
X158272812Y-87726365D01*
X158258868Y-87718751D01*
X158257035Y-87718882D01*
X158250420Y-87723133D01*
X157492762Y-88480791D01*
X157486835Y-88491645D01*
X155467179Y-88491645D01*
X155458026Y-88439207D01*
X155456721Y-88431730D01*
X155453381Y-88424120D01*
X155429111Y-88368833D01*
X155390469Y-88280803D01*
X155383130Y-88271238D01*
X155368130Y-88251691D01*
X155313271Y-88180199D01*
X154856304Y-87723232D01*
X154850450Y-87716966D01*
X154819012Y-87680928D01*
X154814018Y-87675203D01*
X154763843Y-87639939D01*
X154758568Y-87636021D01*
X154744706Y-87625151D01*
X154703443Y-87567376D01*
X154699967Y-87496465D01*
X154722029Y-87458128D01*
X156883936Y-87458128D01*
X156884734Y-87468743D01*
X156920143Y-87688583D01*
X156922717Y-87698905D01*
X156994662Y-87909639D01*
X156998936Y-87919375D01*
X157105359Y-88114974D01*
X157111215Y-88123855D01*
X157113831Y-88127174D01*
X157125755Y-88135645D01*
X157137288Y-88129159D01*
X157893635Y-87372812D01*
X157900012Y-87361132D01*
X158618751Y-87361132D01*
X158618882Y-87362965D01*
X158623133Y-87369580D01*
X159380114Y-88126561D01*
X159391906Y-88133000D01*
X159403900Y-88123730D01*
X159449635Y-88058536D01*
X159454984Y-88049345D01*
X159550321Y-87848112D01*
X159554049Y-87838143D01*
X159614117Y-87623722D01*
X159616109Y-87613280D01*
X159632279Y-87458128D01*
X161963936Y-87458128D01*
X161964734Y-87468743D01*
X162000143Y-87688583D01*
X162002717Y-87698905D01*
X162074662Y-87909639D01*
X162078936Y-87919375D01*
X162185359Y-88114974D01*
X162191215Y-88123855D01*
X162193831Y-88127174D01*
X162205755Y-88135645D01*
X162217288Y-88129159D01*
X162973635Y-87372812D01*
X162980012Y-87361132D01*
X163698751Y-87361132D01*
X163698882Y-87362965D01*
X163703133Y-87369580D01*
X164460114Y-88126561D01*
X164471906Y-88133000D01*
X164483900Y-88123730D01*
X164529635Y-88058536D01*
X164534984Y-88049345D01*
X164630321Y-87848112D01*
X164634049Y-87838143D01*
X164694117Y-87623722D01*
X164696109Y-87613280D01*
X164719439Y-87389440D01*
X164719774Y-87383527D01*
X164719972Y-87362963D01*
X164719750Y-87357052D01*
X164700722Y-87132805D01*
X164698930Y-87122317D01*
X164642987Y-86906781D01*
X164639455Y-86896753D01*
X164548001Y-86693730D01*
X164542821Y-86684424D01*
X164483052Y-86595646D01*
X164473045Y-86587342D01*
X164458984Y-86594569D01*
X163706365Y-87347188D01*
X163698751Y-87361132D01*
X162980012Y-87361132D01*
X162981249Y-87358868D01*
X162981118Y-87357035D01*
X162976867Y-87350420D01*
X162216464Y-86590017D01*
X162203281Y-86582818D01*
X162198032Y-86586569D01*
X162089910Y-86776513D01*
X162085445Y-86786177D01*
X162009469Y-86995488D01*
X162006698Y-87005756D01*
X161967074Y-87224877D01*
X161966073Y-87235471D01*
X161963936Y-87458128D01*
X159632279Y-87458128D01*
X159639439Y-87389440D01*
X159639774Y-87383527D01*
X159639972Y-87362963D01*
X159639750Y-87357052D01*
X159620722Y-87132805D01*
X159618930Y-87122317D01*
X159562987Y-86906781D01*
X159559455Y-86896753D01*
X159468001Y-86693730D01*
X159462821Y-86684424D01*
X159403052Y-86595646D01*
X159393045Y-86587342D01*
X159378984Y-86594569D01*
X158626365Y-87347188D01*
X158618751Y-87361132D01*
X157900012Y-87361132D01*
X157901249Y-87358868D01*
X157901118Y-87357035D01*
X157896867Y-87350420D01*
X157136464Y-86590017D01*
X157123281Y-86582818D01*
X157118032Y-86586569D01*
X157009910Y-86776513D01*
X157005445Y-86786177D01*
X156929469Y-86995488D01*
X156926698Y-87005756D01*
X156887074Y-87224877D01*
X156886073Y-87235471D01*
X156883936Y-87458128D01*
X154722029Y-87458128D01*
X154735379Y-87434931D01*
X154822456Y-87400000D01*
X155200000Y-87400000D01*
X156492630Y-86224881D01*
X157486489Y-86224881D01*
X157494062Y-86240509D01*
X158247188Y-86993635D01*
X158261132Y-87001249D01*
X158262965Y-87001118D01*
X158269580Y-86996867D01*
X159027196Y-86239251D01*
X159033926Y-86226926D01*
X159032391Y-86224881D01*
X162566489Y-86224881D01*
X162574062Y-86240509D01*
X163327188Y-86993635D01*
X163341132Y-87001249D01*
X163342965Y-87001118D01*
X163349580Y-86996867D01*
X164107196Y-86239251D01*
X164113926Y-86226926D01*
X164105398Y-86215569D01*
X164071481Y-86190334D01*
X164062444Y-86184730D01*
X163863945Y-86083808D01*
X163854094Y-86079808D01*
X163641428Y-86013774D01*
X163631047Y-86011491D01*
X163410291Y-85982232D01*
X163399676Y-85981732D01*
X163177151Y-85990086D01*
X163166602Y-85991381D01*
X162948661Y-86037110D01*
X162938480Y-86040164D01*
X162731364Y-86121959D01*
X162721842Y-86126686D01*
X162574520Y-86216082D01*
X162566489Y-86224881D01*
X159032391Y-86224881D01*
X159025398Y-86215569D01*
X158991481Y-86190334D01*
X158982444Y-86184730D01*
X158783945Y-86083808D01*
X158774094Y-86079808D01*
X158561428Y-86013774D01*
X158551047Y-86011491D01*
X158330291Y-85982232D01*
X158319676Y-85981732D01*
X158097151Y-85990086D01*
X158086602Y-85991381D01*
X157868661Y-86037110D01*
X157858480Y-86040164D01*
X157651364Y-86121959D01*
X157641842Y-86126686D01*
X157494520Y-86216082D01*
X157486489Y-86224881D01*
X156492630Y-86224881D01*
X157363955Y-85432768D01*
X157448712Y-85400000D01*
X164814901Y-85400000D01*
X164883022Y-85420002D01*
G37*
G04 #@! TD.AperFunction*
G04 #@! TA.AperFunction,Conductor*
G36*
X150544032Y-90360134D02*
G01*
X150589095Y-90389095D01*
X151378095Y-91178095D01*
X151415000Y-91267190D01*
X151415000Y-92315000D01*
X151430605Y-92393450D01*
X151437499Y-92403767D01*
X151437499Y-92403768D01*
X151468150Y-92449641D01*
X151475043Y-92459957D01*
X151485359Y-92466850D01*
X151503548Y-92479003D01*
X151541550Y-92504395D01*
X151620000Y-92520000D01*
X152380000Y-92520000D01*
X152458450Y-92504395D01*
X152468766Y-92497502D01*
X152468771Y-92497500D01*
X152519908Y-92463332D01*
X152587661Y-92442118D01*
X152679003Y-92479003D01*
X153010905Y-92810905D01*
X153044931Y-92873217D01*
X153039866Y-92944032D01*
X153010905Y-92989095D01*
X151689095Y-94310905D01*
X151626783Y-94344931D01*
X151555968Y-94339866D01*
X151510905Y-94310905D01*
X149089095Y-91889095D01*
X149055069Y-91826783D01*
X149060134Y-91755968D01*
X149089095Y-91710905D01*
X150410905Y-90389095D01*
X150473217Y-90355069D01*
X150544032Y-90360134D01*
G37*
G04 #@! TD.AperFunction*
M02*
