G04 #@! TF.GenerationSoftware,KiCad,Pcbnew,5.99.0-unknown-2932fe1e6~106~ubuntu20.04.1*
G04 #@! TF.CreationDate,2020-11-22T22:33:05+01:00*
G04 #@! TF.ProjectId,QFHBAL01,51464842-414c-4303-912e-6b696361645f,rev?*
G04 #@! TF.SameCoordinates,Original*
G04 #@! TF.FileFunction,Soldermask,Top*
G04 #@! TF.FilePolarity,Negative*
%FSLAX46Y46*%
G04 Gerber Fmt 4.6, Leading zero omitted, Abs format (unit mm)*
G04 Created by KiCad (PCBNEW 5.99.0-unknown-2932fe1e6~106~ubuntu20.04.1) date 2020-11-22 22:33:05*
%MOMM*%
%LPD*%
G01*
G04 APERTURE LIST*
G04 Aperture macros list*
%AMRoundRect*
0 Rectangle with rounded corners*
0 $1 Rounding radius*
0 $2 $3 $4 $5 $6 $7 $8 $9 X,Y pos of 4 corners*
0 Add a 4 corners polygon primitive as box body*
4,1,4,$2,$3,$4,$5,$6,$7,$8,$9,$2,$3,0*
0 Add four circle primitives for the rounded corners*
1,1,$1+$1,$2,$3,0*
1,1,$1+$1,$4,$5,0*
1,1,$1+$1,$6,$7,0*
1,1,$1+$1,$8,$9,0*
0 Add four rect primitives between the rounded corners*
20,1,$1+$1,$2,$3,$4,$5,0*
20,1,$1+$1,$4,$5,$6,$7,0*
20,1,$1+$1,$6,$7,$8,$9,0*
20,1,$1+$1,$8,$9,$2,$3,0*%
%AMHorizOval*
0 Thick line with rounded ends*
0 $1 width*
0 $2 $3 position (X,Y) of the first rounded end (center of the circle)*
0 $4 $5 position (X,Y) of the second rounded end (center of the circle)*
0 Add line between two ends*
20,1,$1,$2,$3,$4,$5,0*
0 Add two circle primitives to create the rounded ends*
1,1,$1,$2,$3,0*
1,1,$1,$4,$5,0*%
G04 Aperture macros list end*
%ADD10C,3.600000*%
%ADD11RoundRect,0.200000X-0.700000X-0.380000X0.700000X-0.380000X0.700000X0.380000X-0.700000X0.380000X0*%
%ADD12C,2.450000*%
%ADD13C,2.650000*%
%ADD14HorizOval,3.400000X-2.474874X2.474874X2.474874X-2.474874X0*%
%ADD15HorizOval,3.400000X-2.474874X-2.474874X2.474874X2.474874X0*%
%ADD16HorizOval,3.400000X2.474874X2.474874X-2.474874X-2.474874X0*%
G04 APERTURE END LIST*
D10*
X138000000Y-90000000D03*
X150000000Y-102000000D03*
D11*
X149885000Y-88630000D03*
X149885000Y-91170000D03*
X153315000Y-91170000D03*
X153315000Y-89900000D03*
X153315000Y-88630000D03*
D12*
X160800000Y-89900000D03*
D13*
X163340000Y-87360000D03*
X163340000Y-92440000D03*
X158260000Y-87360000D03*
X158260000Y-92440000D03*
D14*
X143095837Y-81995837D03*
D10*
X150000000Y-78000000D03*
D14*
X156904163Y-97804163D03*
D15*
X143095837Y-97804163D03*
D16*
X156904163Y-81995837D03*
G36*
X152487100Y-90428050D02*
G01*
X152539242Y-90462891D01*
X152615199Y-90478000D01*
X154014801Y-90478000D01*
X154090758Y-90462891D01*
X154128153Y-90437904D01*
X154130149Y-90437773D01*
X154131260Y-90439436D01*
X154130929Y-90440675D01*
X154093461Y-90496991D01*
X154092362Y-90566243D01*
X154128976Y-90625255D01*
X154141603Y-90634398D01*
X154141962Y-90634732D01*
X154145545Y-90639002D01*
X154145892Y-90640972D01*
X154144360Y-90642258D01*
X154142902Y-90641951D01*
X154090758Y-90607109D01*
X154014801Y-90592000D01*
X152615199Y-90592000D01*
X152539242Y-90607109D01*
X152501849Y-90632095D01*
X152499853Y-90632226D01*
X152498742Y-90630563D01*
X152499073Y-90629324D01*
X152536539Y-90573010D01*
X152537640Y-90503758D01*
X152501025Y-90444745D01*
X152488398Y-90435602D01*
X152488039Y-90435268D01*
X152484457Y-90430999D01*
X152484110Y-90429029D01*
X152485642Y-90427743D01*
X152487100Y-90428050D01*
G37*
G36*
X152487100Y-89158050D02*
G01*
X152539242Y-89192891D01*
X152615199Y-89208000D01*
X154014801Y-89208000D01*
X154090758Y-89192891D01*
X154128153Y-89167904D01*
X154130149Y-89167773D01*
X154131260Y-89169436D01*
X154130929Y-89170675D01*
X154093461Y-89226991D01*
X154092362Y-89296243D01*
X154128976Y-89355255D01*
X154141603Y-89364398D01*
X154141962Y-89364732D01*
X154145545Y-89369002D01*
X154145892Y-89370972D01*
X154144360Y-89372258D01*
X154142902Y-89371951D01*
X154090758Y-89337109D01*
X154014801Y-89322000D01*
X152615199Y-89322000D01*
X152539242Y-89337109D01*
X152501849Y-89362095D01*
X152499853Y-89362226D01*
X152498742Y-89360563D01*
X152499073Y-89359324D01*
X152536539Y-89303010D01*
X152537640Y-89233758D01*
X152501025Y-89174745D01*
X152488398Y-89165602D01*
X152488039Y-89165268D01*
X152484457Y-89160999D01*
X152484110Y-89159029D01*
X152485642Y-89157743D01*
X152487100Y-89158050D01*
G37*
M02*
