  0
SECTION
  2
HEADER
  9
$ANGBASE
  50
0.0
  9
$ANGDIR
  70
1
  9
$MEASUREMENT
  70
0
  0
ENDSEC
  0
SECTION
  2
TABLES
  0
TABLE
  2
LTYPE
  70
4
  0
LTYPE
  5
40F
  2
CONTINUOUS
  70
0
  3
Solid line
  72
65
  73
0
  40
0.0
  0
LTYPE
  5
410
  2
DASHDOT
 70
0
  3
Dash Dot ____ _ ____ _
 72
65
 73
4
 40
2.0
 49
1.25
 49
-0.25
 49
0.25
 49
-0.25
  0
LTYPE
  5
411
  2
DASHED
 70
0
  3
Dashed __ __ __ __ __
 72
65
 73
2
 40
0.75
 49
0.5
 49
-0.25
  0
LTYPE
  5
43B
  2
DOTTED
 70
0
  3
Dotted .  .  .  .
 72
65
 73
2
 40
0.2
 49
0.0
 49
-0.2
  0
ENDTAB
  0
TABLE
  2
STYLE
  70
4
  0
STYLE
  2
KICAD
  70
0
  40
0
  41
1
  42
1
  50
0
  71
0
  3
isocp.shx
  0
STYLE
  2
KICADB
  70
0
  40
0
  41
1
  42
1
  50
0
  71
0
  3
isocp.shx
  0
STYLE
  2
KICADI
  70
0
  40
0
  41
1
  42
1
  50
15
  71
0
  3
isocp.shx
  0
STYLE
  2
KICADBI
  70
0
  40
0
  41
1
  42
1
  50
15
  71
0
  3
isocp.shx
  0
ENDTAB
  0
TABLE
  2
LAYER
  70
1
  0
LAYER
  2
BLACK
  70
0
  62
7
  6
CONTINUOUS
  0
ENDTAB
  0
ENDSEC
  0
SECTION
  2
ENTITIES
0
LINE
8
BLACK
6
CONTINUOUS
10
-0.125984
20
-0.023622
11
-0.204724
21
-0.023622
0
LINE
8
BLACK
6
CONTINUOUS
10
-0.330709
20
0.0708661
11
-0.248031
21
0.153543
0
LINE
8
BLACK
6
CONTINUOUS
10
-0.330709
20
0.0314961
11
-0.330709
21
0.0708661
0
LINE
8
BLACK
6
CONTINUOUS
10
-0.125984
20
-0.023622
11
-0.125984
21
-0.00393701
0
ARC
8
BLACK
10
-0.251969
20
-0.023622
40
0.015748
50
-0
51
180
0
LINE
8
BLACK
6
CONTINUOUS
10
-0.330709
20
-0.0629921
11
-0.248031
21
-0.145669
0
LINE
8
BLACK
6
CONTINUOUS
10
-0.330709
20
-0.0629921
11
-0.330709
21
-0.023622
0
CIRCLE
8
BLACK
10
-0.318898
20
0.0433071
40
0.00393701
0
LINE
8
BLACK
6
CONTINUOUS
10
-0.204724
20
0.0314961
11
-0.133858
21
0.0314961
0
LINE
8
BLACK
6
CONTINUOUS
10
-0.330709
20
-0.0629921
11
-0.413386
21
-0.145669
0
ARC
8
BLACK
10
-0.314961
20
-0.023622
40
0.015748
50
-0
51
180
0
ARC
8
BLACK
10
-0.251969
20
0.0314961
40
0.015748
50
180
51
360
0
CIRCLE
8
BLACK
10
-0.125984
20
0.0314961
40
0.00787402
0
ARC
8
BLACK
10
-0.220472
20
0.0314961
40
0.015748
50
180
51
360
0
LINE
8
BLACK
6
CONTINUOUS
10
-0.330709
20
0.00787402
11
-0.204724
21
0.00787402
0
LINE
8
BLACK
6
CONTINUOUS
10
-0.204724
20
0.00787402
11
-0.330709
21
0.00787402
0
LINE
8
BLACK
6
CONTINUOUS
10
-0.204724
20
0
11
-0.330709
21
0
0
LINE
8
BLACK
6
CONTINUOUS
10
-0.330709
20
0
11
-0.204724
21
0
0
LINE
8
BLACK
6
CONTINUOUS
10
-0.330709
20
0.0708661
11
-0.413386
21
0.153543
0
ARC
8
BLACK
10
-0.220472
20
-0.023622
40
0.015748
50
-0
51
180
0
ARC
8
BLACK
10
-0.126128
20
0.0314961
40
0.0335036
50
-159.358
51
159.358
0
ARC
8
BLACK
10
-0.283465
20
-0.023622
40
0.015748
50
-0
51
180
0
ARC
8
BLACK
10
-0.283465
20
0.0314961
40
0.015748
50
180
51
360
0
CIRCLE
8
BLACK
10
-0.216535
20
0.0433071
40
0.00393701
0
ARC
8
BLACK
10
-0.314961
20
0.0314961
40
0.015748
50
180
51
360
0
LINE
8
BLACK
6
CONTINUOUS
10
-0.262757
20
0.425365
11
-0.276014
21
0.438621
0
LINE
8
BLACK
6
CONTINUOUS
10
-0.276014
20
0.438621
11
-0.248175
21
0.46646
0
LINE
8
BLACK
6
CONTINUOUS
10
-0.240221
20
0.402828
11
-0.253477
21
0.416085
0
LINE
8
BLACK
6
CONTINUOUS
10
-0.253477
20
0.416085
11
-0.225638
21
0.443924
0
LINE
8
BLACK
6
CONTINUOUS
10
0.228534
20
0.388817
11
0.233837
21
0.391468
0
LINE
8
BLACK
6
CONTINUOUS
10
0.233837
20
0.391468
11
0.240465
21
0.398097
0
LINE
8
BLACK
6
CONTINUOUS
10
0.240465
20
0.398097
11
0.241791
21
0.402074
0
LINE
8
BLACK
6
CONTINUOUS
10
0.241791
20
0.402074
11
0.241791
21
0.404725
0
LINE
8
BLACK
6
CONTINUOUS
10
0.241791
20
0.404725
11
0.240465
21
0.408702
0
LINE
8
BLACK
6
CONTINUOUS
10
0.240465
20
0.408702
11
0.237814
21
0.411353
0
LINE
8
BLACK
6
CONTINUOUS
10
0.237814
20
0.411353
11
0.233837
21
0.412679
0
LINE
8
BLACK
6
CONTINUOUS
10
0.233837
20
0.412679
11
0.231186
21
0.412679
0
LINE
8
BLACK
6
CONTINUOUS
10
0.231186
20
0.412679
11
0.227209
21
0.411353
0
LINE
8
BLACK
6
CONTINUOUS
10
0.227209
20
0.411353
11
0.22058
21
0.407376
0
LINE
8
BLACK
6
CONTINUOUS
10
0.22058
20
0.407376
11
0.216603
21
0.406051
0
LINE
8
BLACK
6
CONTINUOUS
10
0.216603
20
0.406051
11
0.213952
21
0.406051
0
LINE
8
BLACK
6
CONTINUOUS
10
0.213952
20
0.406051
11
0.209975
21
0.407376
0
LINE
8
BLACK
6
CONTINUOUS
10
0.209975
20
0.407376
11
0.207324
21
0.410027
0
LINE
8
BLACK
6
CONTINUOUS
10
0.207324
20
0.410027
11
0.205998
21
0.414004
0
LINE
8
BLACK
6
CONTINUOUS
10
0.205998
20
0.414004
11
0.205998
21
0.416656
0
LINE
8
BLACK
6
CONTINUOUS
10
0.205998
20
0.416656
11
0.207324
21
0.420633
0
LINE
8
BLACK
6
CONTINUOUS
10
0.207324
20
0.420633
11
0.213952
21
0.427261
0
LINE
8
BLACK
6
CONTINUOUS
10
0.213952
20
0.427261
11
0.219255
21
0.429912
0
LINE
8
BLACK
6
CONTINUOUS
10
0.270955
20
0.428587
11
0.257699
21
0.41533
0
LINE
8
BLACK
6
CONTINUOUS
10
0.257699
20
0.41533
11
0.22986
21
0.443169
0
LINE
8
BLACK
6
CONTINUOUS
10
-0.129359
20
0.332771
11
-0.133108
21
0.334646
0
LINE
8
BLACK
6
CONTINUOUS
10
-0.133108
20
0.334646
11
-0.136858
21
0.338395
0
LINE
8
BLACK
6
CONTINUOUS
10
-0.136858
20
0.338395
11
-0.142482
21
0.34402
0
LINE
8
BLACK
6
CONTINUOUS
10
-0.142482
20
0.34402
11
-0.146232
21
0.345894
0
LINE
8
BLACK
6
CONTINUOUS
10
-0.146232
20
0.345894
11
-0.149981
21
0.345894
0
LINE
8
BLACK
6
CONTINUOUS
10
-0.148106
20
0.33652
11
-0.151856
21
0.338395
0
LINE
8
BLACK
6
CONTINUOUS
10
-0.151856
20
0.338395
11
-0.155606
21
0.342145
0
LINE
8
BLACK
6
CONTINUOUS
10
-0.155606
20
0.342145
11
-0.15748
21
0.349644
0
LINE
8
BLACK
6
CONTINUOUS
10
-0.15748
20
0.349644
11
-0.15748
21
0.362767
0
LINE
8
BLACK
6
CONTINUOUS
10
-0.15748
20
0.362767
11
-0.155606
21
0.370266
0
LINE
8
BLACK
6
CONTINUOUS
10
-0.155606
20
0.370266
11
-0.151856
21
0.374016
0
LINE
8
BLACK
6
CONTINUOUS
10
-0.151856
20
0.374016
11
-0.148106
21
0.375891
0
LINE
8
BLACK
6
CONTINUOUS
10
-0.148106
20
0.375891
11
-0.140607
21
0.375891
0
LINE
8
BLACK
6
CONTINUOUS
10
-0.140607
20
0.375891
11
-0.136858
21
0.374016
0
LINE
8
BLACK
6
CONTINUOUS
10
-0.136858
20
0.374016
11
-0.133108
21
0.370266
0
LINE
8
BLACK
6
CONTINUOUS
10
-0.133108
20
0.370266
11
-0.131234
21
0.362767
0
LINE
8
BLACK
6
CONTINUOUS
10
-0.131234
20
0.362767
11
-0.131234
21
0.349644
0
LINE
8
BLACK
6
CONTINUOUS
10
-0.131234
20
0.349644
11
-0.133108
21
0.342145
0
LINE
8
BLACK
6
CONTINUOUS
10
-0.133108
20
0.342145
11
-0.136858
21
0.338395
0
LINE
8
BLACK
6
CONTINUOUS
10
-0.136858
20
0.338395
11
-0.140607
21
0.33652
0
LINE
8
BLACK
6
CONTINUOUS
10
-0.140607
20
0.33652
11
-0.148106
21
0.33652
0
LINE
8
BLACK
6
CONTINUOUS
10
-0.101237
20
0.357143
11
-0.114361
21
0.357143
0
LINE
8
BLACK
6
CONTINUOUS
10
-0.114361
20
0.33652
11
-0.114361
21
0.375891
0
LINE
8
BLACK
6
CONTINUOUS
10
-0.114361
20
0.375891
11
-0.0956131
21
0.375891
0
LINE
8
BLACK
6
CONTINUOUS
10
-0.080615
20
0.33652
11
-0.080615
21
0.375891
0
LINE
8
BLACK
6
CONTINUOUS
10
-0.080615
20
0.357143
11
-0.0581178
21
0.357143
0
LINE
8
BLACK
6
CONTINUOUS
10
-0.0581178
20
0.33652
11
-0.0581178
21
0.375891
0
LINE
8
BLACK
6
CONTINUOUS
10
-0.0262467
20
0.357143
11
-0.0206224
21
0.355268
0
LINE
8
BLACK
6
CONTINUOUS
10
-0.0206224
20
0.355268
11
-0.0187477
21
0.353393
0
LINE
8
BLACK
6
CONTINUOUS
10
-0.0187477
20
0.353393
11
-0.0168729
21
0.349644
0
LINE
8
BLACK
6
CONTINUOUS
10
-0.0168729
20
0.349644
11
-0.0168729
21
0.34402
0
LINE
8
BLACK
6
CONTINUOUS
10
-0.0168729
20
0.34402
11
-0.0187477
21
0.34027
0
LINE
8
BLACK
6
CONTINUOUS
10
-0.0187477
20
0.34027
11
-0.0206224
21
0.338395
0
LINE
8
BLACK
6
CONTINUOUS
10
-0.0206224
20
0.338395
11
-0.024372
21
0.33652
0
LINE
8
BLACK
6
CONTINUOUS
10
-0.024372
20
0.33652
11
-0.0393701
21
0.33652
0
LINE
8
BLACK
6
CONTINUOUS
10
-0.0393701
20
0.33652
11
-0.0393701
21
0.375891
0
LINE
8
BLACK
6
CONTINUOUS
10
-0.0393701
20
0.375891
11
-0.0262467
21
0.375891
0
LINE
8
BLACK
6
CONTINUOUS
10
-0.0262467
20
0.375891
11
-0.0224972
21
0.374016
0
LINE
8
BLACK
6
CONTINUOUS
10
-0.0224972
20
0.374016
11
-0.0206224
21
0.372141
0
LINE
8
BLACK
6
CONTINUOUS
10
-0.0206224
20
0.372141
11
-0.0187477
21
0.368391
0
LINE
8
BLACK
6
CONTINUOUS
10
-0.0187477
20
0.368391
11
-0.0187477
21
0.364642
0
LINE
8
BLACK
6
CONTINUOUS
10
-0.0187477
20
0.364642
11
-0.0206224
21
0.360892
0
LINE
8
BLACK
6
CONTINUOUS
10
-0.0206224
20
0.360892
11
-0.0224972
21
0.359018
0
LINE
8
BLACK
6
CONTINUOUS
10
-0.0224972
20
0.359018
11
-0.0262467
21
0.357143
0
LINE
8
BLACK
6
CONTINUOUS
10
-0.0262467
20
0.357143
11
-0.0393701
21
0.357143
0
LINE
8
BLACK
6
CONTINUOUS
10
-0.0018748
20
0.347769
11
0.0168729
21
0.347769
0
LINE
8
BLACK
6
CONTINUOUS
10
-0.00562433
20
0.33652
11
0.00749906
21
0.375891
0
LINE
8
BLACK
6
CONTINUOUS
10
0.00749906
20
0.375891
11
0.0206224
21
0.33652
0
LINE
8
BLACK
6
CONTINUOUS
10
0.0524934
20
0.33652
11
0.0337457
21
0.33652
0
LINE
8
BLACK
6
CONTINUOUS
10
0.0337457
20
0.33652
11
0.0337457
21
0.375891
0
LINE
8
BLACK
6
CONTINUOUS
10
0.0731158
20
0.375891
11
0.0768654
21
0.375891
0
LINE
8
BLACK
6
CONTINUOUS
10
0.0768654
20
0.375891
11
0.0806149
21
0.374016
0
LINE
8
BLACK
6
CONTINUOUS
10
0.0806149
20
0.374016
11
0.0824897
21
0.372141
0
LINE
8
BLACK
6
CONTINUOUS
10
0.0824897
20
0.372141
11
0.0843644
21
0.368391
0
LINE
8
BLACK
6
CONTINUOUS
10
0.0843644
20
0.368391
11
0.0862392
21
0.360892
0
LINE
8
BLACK
6
CONTINUOUS
10
0.0862392
20
0.360892
11
0.0862392
21
0.351519
0
LINE
8
BLACK
6
CONTINUOUS
10
0.0862392
20
0.351519
11
0.0843644
21
0.34402
0
LINE
8
BLACK
6
CONTINUOUS
10
0.0843644
20
0.34402
11
0.0824897
21
0.34027
0
LINE
8
BLACK
6
CONTINUOUS
10
0.0824897
20
0.34027
11
0.0806149
21
0.338395
0
LINE
8
BLACK
6
CONTINUOUS
10
0.0806149
20
0.338395
11
0.0768654
21
0.33652
0
LINE
8
BLACK
6
CONTINUOUS
10
0.0768654
20
0.33652
11
0.0731158
21
0.33652
0
LINE
8
BLACK
6
CONTINUOUS
10
0.0731158
20
0.33652
11
0.0693663
21
0.338395
0
LINE
8
BLACK
6
CONTINUOUS
10
0.0693663
20
0.338395
11
0.0674915
21
0.34027
0
LINE
8
BLACK
6
CONTINUOUS
10
0.0674915
20
0.34027
11
0.0656168
21
0.34402
0
LINE
8
BLACK
6
CONTINUOUS
10
0.0656168
20
0.34402
11
0.063742
21
0.351519
0
LINE
8
BLACK
6
CONTINUOUS
10
0.063742
20
0.351519
11
0.063742
21
0.360892
0
LINE
8
BLACK
6
CONTINUOUS
10
0.063742
20
0.360892
11
0.0656168
21
0.368391
0
LINE
8
BLACK
6
CONTINUOUS
10
0.0656168
20
0.368391
11
0.0674915
21
0.372141
0
LINE
8
BLACK
6
CONTINUOUS
10
0.0674915
20
0.372141
11
0.0693663
21
0.374016
0
LINE
8
BLACK
6
CONTINUOUS
10
0.0693663
20
0.374016
11
0.0731158
21
0.375891
0
LINE
8
BLACK
6
CONTINUOUS
10
0.123735
20
0.33652
11
0.101237
21
0.33652
0
LINE
8
BLACK
6
CONTINUOUS
10
0.112486
20
0.33652
11
0.112486
21
0.375891
0
LINE
8
BLACK
6
CONTINUOUS
10
0.112486
20
0.375891
11
0.108736
21
0.370266
0
LINE
8
BLACK
6
CONTINUOUS
10
0.108736
20
0.370266
11
0.104987
21
0.366517
0
LINE
8
BLACK
6
CONTINUOUS
10
0.104987
20
0.366517
11
0.101237
21
0.364642
0
LINE
8
BLACK
6
CONTINUOUS
10
0.138733
20
0.347769
11
0.15748
21
0.347769
0
LINE
8
BLACK
6
CONTINUOUS
10
0.134983
20
0.33652
11
0.148106
21
0.375891
0
LINE
8
BLACK
6
CONTINUOUS
10
0.148106
20
0.375891
11
0.16123
21
0.33652
0
LINE
8
BLACK
6
CONTINUOUS
10
0.359243
20
-0.274635
11
0.345986
21
-0.261379
0
LINE
8
BLACK
6
CONTINUOUS
10
0.345986
20
-0.261379
11
0.373825
21
-0.23354
0
LINE
8
BLACK
6
CONTINUOUS
10
0.381779
20
-0.297172
11
0.368523
21
-0.283915
0
LINE
8
BLACK
6
CONTINUOUS
10
0.368523
20
-0.283915
11
0.396362
21
-0.256076
0
LINE
8
BLACK
6
CONTINUOUS
10
-0.383466
20
-0.295183
11
-0.378163
21
-0.292532
0
LINE
8
BLACK
6
CONTINUOUS
10
-0.378163
20
-0.292532
11
-0.371535
21
-0.285903
0
LINE
8
BLACK
6
CONTINUOUS
10
-0.371535
20
-0.285903
11
-0.370209
21
-0.281926
0
LINE
8
BLACK
6
CONTINUOUS
10
-0.370209
20
-0.281926
11
-0.370209
21
-0.279275
0
LINE
8
BLACK
6
CONTINUOUS
10
-0.370209
20
-0.279275
11
-0.371535
21
-0.275298
0
LINE
8
BLACK
6
CONTINUOUS
10
-0.371535
20
-0.275298
11
-0.374186
21
-0.272647
0
LINE
8
BLACK
6
CONTINUOUS
10
-0.374186
20
-0.272647
11
-0.378163
21
-0.271321
0
LINE
8
BLACK
6
CONTINUOUS
10
-0.378163
20
-0.271321
11
-0.380814
21
-0.271321
0
LINE
8
BLACK
6
CONTINUOUS
10
-0.380814
20
-0.271321
11
-0.384791
21
-0.272647
0
LINE
8
BLACK
6
CONTINUOUS
10
-0.384791
20
-0.272647
11
-0.39142
21
-0.276624
0
LINE
8
BLACK
6
CONTINUOUS
10
-0.39142
20
-0.276624
11
-0.395397
21
-0.277949
0
LINE
8
BLACK
6
CONTINUOUS
10
-0.395397
20
-0.277949
11
-0.398048
21
-0.277949
0
LINE
8
BLACK
6
CONTINUOUS
10
-0.398048
20
-0.277949
11
-0.402025
21
-0.276624
0
LINE
8
BLACK
6
CONTINUOUS
10
-0.402025
20
-0.276624
11
-0.404676
21
-0.273973
0
LINE
8
BLACK
6
CONTINUOUS
10
-0.404676
20
-0.273973
11
-0.406002
21
-0.269996
0
LINE
8
BLACK
6
CONTINUOUS
10
-0.406002
20
-0.269996
11
-0.406002
21
-0.267344
0
LINE
8
BLACK
6
CONTINUOUS
10
-0.406002
20
-0.267344
11
-0.404676
21
-0.263367
0
LINE
8
BLACK
6
CONTINUOUS
10
-0.404676
20
-0.263367
11
-0.398048
21
-0.256739
0
LINE
8
BLACK
6
CONTINUOUS
10
-0.398048
20
-0.256739
11
-0.392745
21
-0.254088
0
LINE
8
BLACK
6
CONTINUOUS
10
-0.341045
20
-0.255413
11
-0.354301
21
-0.26867
0
LINE
8
BLACK
6
CONTINUOUS
10
-0.354301
20
-0.26867
11
-0.38214
21
-0.240831
0
LINE
8
BLACK
6
CONTINUOUS
10
-0.322647
20
-0.0441507
11
-0.317398
21
-0.0441507
0
LINE
8
BLACK
6
CONTINUOUS
10
-0.315148
20
-0.0523997
11
-0.322647
21
-0.0523997
0
LINE
8
BLACK
6
CONTINUOUS
10
-0.322647
20
-0.0523997
11
-0.322647
21
-0.0366517
0
LINE
8
BLACK
6
CONTINUOUS
10
-0.322647
20
-0.0366517
11
-0.315148
21
-0.0366517
0
LINE
8
BLACK
6
CONTINUOUS
10
-0.310649
20
-0.0366517
11
-0.30165
21
-0.0366517
0
LINE
8
BLACK
6
CONTINUOUS
10
-0.306149
20
-0.0523997
11
-0.306149
21
-0.0366517
0
LINE
8
BLACK
6
CONTINUOUS
10
-0.287402
20
-0.0508999
11
-0.288151
21
-0.0516498
0
LINE
8
BLACK
6
CONTINUOUS
10
-0.288151
20
-0.0516498
11
-0.290401
21
-0.0523997
0
LINE
8
BLACK
6
CONTINUOUS
10
-0.290401
20
-0.0523997
11
-0.291901
21
-0.0523997
0
LINE
8
BLACK
6
CONTINUOUS
10
-0.291901
20
-0.0523997
11
-0.294151
21
-0.0516498
0
LINE
8
BLACK
6
CONTINUOUS
10
-0.294151
20
-0.0516498
11
-0.295651
21
-0.05015
0
LINE
8
BLACK
6
CONTINUOUS
10
-0.295651
20
-0.05015
11
-0.2964
21
-0.0486502
0
LINE
8
BLACK
6
CONTINUOUS
10
-0.2964
20
-0.0486502
11
-0.29715
21
-0.0456505
0
LINE
8
BLACK
6
CONTINUOUS
10
-0.29715
20
-0.0456505
11
-0.29715
21
-0.0434008
0
LINE
8
BLACK
6
CONTINUOUS
10
-0.29715
20
-0.0434008
11
-0.2964
21
-0.0404012
0
LINE
8
BLACK
6
CONTINUOUS
10
-0.2964
20
-0.0404012
11
-0.295651
21
-0.0389014
0
LINE
8
BLACK
6
CONTINUOUS
10
-0.295651
20
-0.0389014
11
-0.294151
21
-0.0374016
0
LINE
8
BLACK
6
CONTINUOUS
10
-0.294151
20
-0.0374016
11
-0.291901
21
-0.0366517
0
LINE
8
BLACK
6
CONTINUOUS
10
-0.291901
20
-0.0366517
11
-0.290401
21
-0.0366517
0
LINE
8
BLACK
6
CONTINUOUS
10
-0.290401
20
-0.0366517
11
-0.288151
21
-0.0374016
0
LINE
8
BLACK
6
CONTINUOUS
10
-0.288151
20
-0.0374016
11
-0.287402
21
-0.0381515
0
LINE
8
BLACK
6
CONTINUOUS
10
-0.272403
20
-0.0523997
11
-0.281402
21
-0.0523997
0
LINE
8
BLACK
6
CONTINUOUS
10
-0.276903
20
-0.0523997
11
-0.276903
21
-0.0366517
0
LINE
8
BLACK
6
CONTINUOUS
10
-0.276903
20
-0.0366517
11
-0.278403
21
-0.0389014
0
LINE
8
BLACK
6
CONTINUOUS
10
-0.278403
20
-0.0389014
11
-0.279903
21
-0.0404012
0
LINE
8
BLACK
6
CONTINUOUS
10
-0.279903
20
-0.0404012
11
-0.281402
21
-0.0411511
0
LINE
8
BLACK
6
CONTINUOUS
10
-0.265654
20
-0.0464004
11
-0.253656
21
-0.0464004
0
LINE
8
BLACK
6
CONTINUOUS
10
-0.237908
20
-0.0523997
11
-0.246907
21
-0.0523997
0
LINE
8
BLACK
6
CONTINUOUS
10
-0.242407
20
-0.0523997
11
-0.242407
21
-0.0366517
0
LINE
8
BLACK
6
CONTINUOUS
10
-0.242407
20
-0.0366517
11
-0.243907
21
-0.0389014
0
LINE
8
BLACK
6
CONTINUOUS
10
-0.243907
20
-0.0389014
11
-0.245407
21
-0.0404012
0
LINE
8
BLACK
6
CONTINUOUS
10
-0.245407
20
-0.0404012
11
-0.246907
21
-0.0411511
0
LINE
8
BLACK
6
CONTINUOUS
10
-0.231159
20
-0.0464004
11
-0.21916
21
-0.0464004
0
LINE
8
BLACK
6
CONTINUOUS
10
-0.203412
20
-0.0523997
11
-0.212411
21
-0.0523997
0
LINE
8
BLACK
6
CONTINUOUS
10
-0.207912
20
-0.0523997
11
-0.207912
21
-0.0366517
0
LINE
8
BLACK
6
CONTINUOUS
10
-0.207912
20
-0.0366517
11
-0.209411
21
-0.0389014
0
LINE
8
BLACK
6
CONTINUOUS
10
-0.209411
20
-0.0389014
11
-0.210911
21
-0.0404012
0
LINE
8
BLACK
6
CONTINUOUS
10
-0.210911
20
-0.0404012
11
-0.212411
21
-0.0411511
0
LINE
8
BLACK
6
CONTINUOUS
10
-0.198163
20
-0.0366517
11
-0.188414
21
-0.0366517
0
LINE
8
BLACK
6
CONTINUOUS
10
-0.188414
20
-0.0366517
11
-0.193663
21
-0.0426509
0
LINE
8
BLACK
6
CONTINUOUS
10
-0.193663
20
-0.0426509
11
-0.191414
21
-0.0426509
0
LINE
8
BLACK
6
CONTINUOUS
10
-0.191414
20
-0.0426509
11
-0.189914
21
-0.0434008
0
LINE
8
BLACK
6
CONTINUOUS
10
-0.189914
20
-0.0434008
11
-0.189164
21
-0.0441507
0
LINE
8
BLACK
6
CONTINUOUS
10
-0.189164
20
-0.0441507
11
-0.188414
21
-0.0456505
0
LINE
8
BLACK
6
CONTINUOUS
10
-0.188414
20
-0.0456505
11
-0.188414
21
-0.0494
0
LINE
8
BLACK
6
CONTINUOUS
10
-0.188414
20
-0.0494
11
-0.189164
21
-0.0508999
0
LINE
8
BLACK
6
CONTINUOUS
10
-0.189164
20
-0.0508999
11
-0.189914
21
-0.0516498
0
LINE
8
BLACK
6
CONTINUOUS
10
-0.189914
20
-0.0516498
11
-0.191414
21
-0.0523997
0
LINE
8
BLACK
6
CONTINUOUS
10
-0.191414
20
-0.0523997
11
-0.195913
21
-0.0523997
0
LINE
8
BLACK
6
CONTINUOUS
10
-0.195913
20
-0.0523997
11
-0.197413
21
-0.0516498
0
LINE
8
BLACK
6
CONTINUOUS
10
-0.197413
20
-0.0516498
11
-0.198163
21
-0.0508999
0
LINE
8
BLACK
6
CONTINUOUS
10
-0.502437
20
0.147544
11
-0.502437
21
0.186914
0
LINE
8
BLACK
6
CONTINUOUS
10
-0.502437
20
0.168166
11
-0.47994
21
0.168166
0
LINE
8
BLACK
6
CONTINUOUS
10
-0.47994
20
0.147544
11
-0.47994
21
0.186914
0
LINE
8
BLACK
6
CONTINUOUS
10
-0.459318
20
0.147544
11
-0.451819
21
0.147544
0
LINE
8
BLACK
6
CONTINUOUS
10
-0.451819
20
0.147544
11
-0.448069
21
0.149419
0
LINE
8
BLACK
6
CONTINUOUS
10
-0.448069
20
0.149419
11
-0.446194
21
0.151294
0
LINE
8
BLACK
6
CONTINUOUS
10
-0.446194
20
0.151294
11
-0.442445
21
0.156918
0
LINE
8
BLACK
6
CONTINUOUS
10
-0.442445
20
0.156918
11
-0.44057
21
0.164417
0
LINE
8
BLACK
6
CONTINUOUS
10
-0.44057
20
0.164417
11
-0.44057
21
0.179415
0
LINE
8
BLACK
6
CONTINUOUS
10
-0.44057
20
0.179415
11
-0.442445
21
0.183165
0
LINE
8
BLACK
6
CONTINUOUS
10
-0.442445
20
0.183165
11
-0.444319
21
0.185039
0
LINE
8
BLACK
6
CONTINUOUS
10
-0.444319
20
0.185039
11
-0.448069
21
0.186914
0
LINE
8
BLACK
6
CONTINUOUS
10
-0.448069
20
0.186914
11
-0.455568
21
0.186914
0
LINE
8
BLACK
6
CONTINUOUS
10
-0.455568
20
0.186914
11
-0.459318
21
0.185039
0
LINE
8
BLACK
6
CONTINUOUS
10
-0.459318
20
0.185039
11
-0.461192
21
0.183165
0
LINE
8
BLACK
6
CONTINUOUS
10
-0.461192
20
0.183165
11
-0.463067
21
0.179415
0
LINE
8
BLACK
6
CONTINUOUS
10
-0.463067
20
0.179415
11
-0.463067
21
0.170041
0
LINE
8
BLACK
6
CONTINUOUS
10
-0.463067
20
0.170041
11
-0.461192
21
0.166292
0
LINE
8
BLACK
6
CONTINUOUS
10
-0.461192
20
0.166292
11
-0.459318
21
0.164417
0
LINE
8
BLACK
6
CONTINUOUS
10
-0.459318
20
0.164417
11
-0.455568
21
0.162542
0
LINE
8
BLACK
6
CONTINUOUS
10
-0.455568
20
0.162542
11
-0.448069
21
0.162542
0
LINE
8
BLACK
6
CONTINUOUS
10
-0.448069
20
0.162542
11
-0.444319
21
0.164417
0
LINE
8
BLACK
6
CONTINUOUS
10
-0.444319
20
0.164417
11
-0.442445
21
0.166292
0
LINE
8
BLACK
6
CONTINUOUS
10
-0.442445
20
0.166292
11
-0.44057
21
0.170041
0
LINE
8
BLACK
6
CONTINUOUS
10
-0.0487439
20
-0.324897
11
-0.0487439
21
-0.285527
0
LINE
8
BLACK
6
CONTINUOUS
10
-0.0487439
20
-0.304274
11
-0.0262467
21
-0.304274
0
LINE
8
BLACK
6
CONTINUOUS
10
-0.0262467
20
-0.324897
11
-0.0262467
21
-0.285527
0
LINE
8
BLACK
6
CONTINUOUS
10
0.0131233
20
-0.324897
11
-0.00937386
21
-0.324897
0
LINE
8
BLACK
6
CONTINUOUS
10
0.00187476
20
-0.324897
11
0.00187476
21
-0.285527
0
LINE
8
BLACK
6
CONTINUOUS
10
0.00187476
20
-0.285527
11
-0.0018748
21
-0.291151
0
LINE
8
BLACK
6
CONTINUOUS
10
-0.0018748
20
-0.291151
11
-0.00562433
21
-0.294901
0
LINE
8
BLACK
6
CONTINUOUS
10
-0.00562433
20
-0.294901
11
-0.00937386
21
-0.296775
0
LINE
8
BLACK
6
CONTINUOUS
10
0.0506187
20
-0.324897
11
0.0281215
21
-0.324897
0
LINE
8
BLACK
6
CONTINUOUS
10
0.0393701
20
-0.324897
11
0.0393701
21
-0.285527
0
LINE
8
BLACK
6
CONTINUOUS
10
0.0393701
20
-0.285527
11
0.0356205
21
-0.291151
0
LINE
8
BLACK
6
CONTINUOUS
10
0.0356205
20
-0.291151
11
0.031871
21
-0.294901
0
LINE
8
BLACK
6
CONTINUOUS
10
0.031871
20
-0.294901
11
0.0281215
21
-0.296775
0
LINE
8
BLACK
6
CONTINUOUS
10
-0.0175081
20
0.140867
11
0.00498909
21
0.140867
0
LINE
8
BLACK
6
CONTINUOUS
10
-0.00625949
20
0.101497
11
-0.00625949
21
0.140867
0
LINE
8
BLACK
6
CONTINUOUS
10
0.0387349
20
0.101497
11
0.0162377
21
0.101497
0
LINE
8
BLACK
6
CONTINUOUS
10
0.0274863
20
0.101497
11
0.0274863
21
0.140867
0
LINE
8
BLACK
6
CONTINUOUS
10
0.0274863
20
0.140867
11
0.0237368
21
0.135243
0
LINE
8
BLACK
6
CONTINUOUS
10
0.0237368
20
0.135243
11
0.0199872
21
0.131493
0
LINE
8
BLACK
6
CONTINUOUS
10
0.0199872
20
0.131493
11
0.0162377
21
0.129618
0
LINE
8
BLACK
6
CONTINUOUS
10
0.412073
20
0.212505
11
0.412073
21
0.184383
0
LINE
8
BLACK
6
CONTINUOUS
10
0.412073
20
0.184383
11
0.410199
21
0.178759
0
LINE
8
BLACK
6
CONTINUOUS
10
0.410199
20
0.178759
11
0.406449
21
0.175009
0
LINE
8
BLACK
6
CONTINUOUS
10
0.406449
20
0.175009
11
0.400825
21
0.173135
0
LINE
8
BLACK
6
CONTINUOUS
10
0.400825
20
0.173135
11
0.397075
21
0.173135
0
LINE
8
BLACK
6
CONTINUOUS
10
0.451444
20
0.173135
11
0.428946
21
0.173135
0
LINE
8
BLACK
6
CONTINUOUS
10
0.440195
20
0.173135
11
0.440195
21
0.212505
0
LINE
8
BLACK
6
CONTINUOUS
10
0.440195
20
0.212505
11
0.436445
21
0.20688
0
LINE
8
BLACK
6
CONTINUOUS
10
0.436445
20
0.20688
11
0.432696
21
0.203131
0
LINE
8
BLACK
6
CONTINUOUS
10
0.432696
20
0.203131
11
0.428946
21
0.201256
0
LINE
8
BLACK
6
CONTINUOUS
10
-0.207162
20
0.328646
11
-0.207162
21
0.368017
0
LINE
8
BLACK
6
CONTINUOUS
10
-0.207162
20
0.349269
11
-0.184664
21
0.349269
0
LINE
8
BLACK
6
CONTINUOUS
10
-0.184664
20
0.328646
11
-0.184664
21
0.368017
0
LINE
8
BLACK
6
CONTINUOUS
10
-0.147169
20
0.368017
11
-0.165917
21
0.368017
0
LINE
8
BLACK
6
CONTINUOUS
10
-0.165917
20
0.368017
11
-0.167792
21
0.349269
0
LINE
8
BLACK
6
CONTINUOUS
10
-0.167792
20
0.349269
11
-0.165917
21
0.351144
0
LINE
8
BLACK
6
CONTINUOUS
10
-0.165917
20
0.351144
11
-0.162167
21
0.353018
0
LINE
8
BLACK
6
CONTINUOUS
10
-0.162167
20
0.353018
11
-0.152793
21
0.353018
0
LINE
8
BLACK
6
CONTINUOUS
10
-0.152793
20
0.353018
11
-0.149044
21
0.351144
0
LINE
8
BLACK
6
CONTINUOUS
10
-0.149044
20
0.351144
11
-0.147169
21
0.349269
0
LINE
8
BLACK
6
CONTINUOUS
10
-0.147169
20
0.349269
11
-0.145294
21
0.345519
0
LINE
8
BLACK
6
CONTINUOUS
10
-0.145294
20
0.345519
11
-0.145294
21
0.336146
0
LINE
8
BLACK
6
CONTINUOUS
10
-0.145294
20
0.336146
11
-0.147169
21
0.332396
0
LINE
8
BLACK
6
CONTINUOUS
10
-0.147169
20
0.332396
11
-0.149044
21
0.330521
0
LINE
8
BLACK
6
CONTINUOUS
10
-0.149044
20
0.330521
11
-0.152793
21
0.328646
0
LINE
8
BLACK
6
CONTINUOUS
10
-0.152793
20
0.328646
11
-0.162167
21
0.328646
0
LINE
8
BLACK
6
CONTINUOUS
10
-0.162167
20
0.328646
11
-0.165917
21
0.330521
0
LINE
8
BLACK
6
CONTINUOUS
10
-0.165917
20
0.330521
11
-0.167792
21
0.332396
0
LINE
8
BLACK
6
CONTINUOUS
10
-0.0487439
20
0.619985
11
-0.0487439
21
0.659355
0
LINE
8
BLACK
6
CONTINUOUS
10
-0.0487439
20
0.640607
11
-0.0262467
21
0.640607
0
LINE
8
BLACK
6
CONTINUOUS
10
-0.0262467
20
0.619985
11
-0.0262467
21
0.659355
0
LINE
8
BLACK
6
CONTINUOUS
10
0.0131233
20
0.619985
11
-0.00937386
21
0.619985
0
LINE
8
BLACK
6
CONTINUOUS
10
0.00187476
20
0.619985
11
0.00187476
21
0.659355
0
LINE
8
BLACK
6
CONTINUOUS
10
0.00187476
20
0.659355
11
-0.0018748
21
0.653731
0
LINE
8
BLACK
6
CONTINUOUS
10
-0.0018748
20
0.653731
11
-0.00562433
21
0.649981
0
LINE
8
BLACK
6
CONTINUOUS
10
-0.00562433
20
0.649981
11
-0.00937386
21
0.648106
0
LINE
8
BLACK
6
CONTINUOUS
10
0.0374953
20
0.659355
11
0.0412448
21
0.659355
0
LINE
8
BLACK
6
CONTINUOUS
10
0.0412448
20
0.659355
11
0.0449944
21
0.65748
0
LINE
8
BLACK
6
CONTINUOUS
10
0.0449944
20
0.65748
11
0.0468691
21
0.655606
0
LINE
8
BLACK
6
CONTINUOUS
10
0.0468691
20
0.655606
11
0.0487439
21
0.651856
0
LINE
8
BLACK
6
CONTINUOUS
10
0.0487439
20
0.651856
11
0.0506187
21
0.644357
0
LINE
8
BLACK
6
CONTINUOUS
10
0.0506187
20
0.644357
11
0.0506187
21
0.634983
0
LINE
8
BLACK
6
CONTINUOUS
10
0.0506187
20
0.634983
11
0.0487439
21
0.627484
0
LINE
8
BLACK
6
CONTINUOUS
10
0.0487439
20
0.627484
11
0.0468691
21
0.623735
0
LINE
8
BLACK
6
CONTINUOUS
10
0.0468691
20
0.623735
11
0.0449944
21
0.62186
0
LINE
8
BLACK
6
CONTINUOUS
10
0.0449944
20
0.62186
11
0.0412448
21
0.619985
0
LINE
8
BLACK
6
CONTINUOUS
10
0.0412448
20
0.619985
11
0.0374953
21
0.619985
0
LINE
8
BLACK
6
CONTINUOUS
10
0.0374953
20
0.619985
11
0.0337457
21
0.62186
0
LINE
8
BLACK
6
CONTINUOUS
10
0.0337457
20
0.62186
11
0.031871
21
0.623735
0
LINE
8
BLACK
6
CONTINUOUS
10
0.031871
20
0.623735
11
0.0299962
21
0.627484
0
LINE
8
BLACK
6
CONTINUOUS
10
0.0299962
20
0.627484
11
0.0281215
21
0.634983
0
LINE
8
BLACK
6
CONTINUOUS
10
0.0281215
20
0.634983
11
0.0281215
21
0.644357
0
LINE
8
BLACK
6
CONTINUOUS
10
0.0281215
20
0.644357
11
0.0299962
21
0.651856
0
LINE
8
BLACK
6
CONTINUOUS
10
0.0299962
20
0.651856
11
0.031871
21
0.655606
0
LINE
8
BLACK
6
CONTINUOUS
10
0.031871
20
0.655606
11
0.0337457
21
0.65748
0
LINE
8
BLACK
6
CONTINUOUS
10
0.0337457
20
0.65748
11
0.0374953
21
0.659355
0
LINE
8
BLACK
6
CONTINUOUS
10
0.147169
20
-0.356393
11
0.147169
21
-0.317023
0
LINE
8
BLACK
6
CONTINUOUS
10
0.147169
20
-0.335771
11
0.169666
21
-0.335771
0
LINE
8
BLACK
6
CONTINUOUS
10
0.169666
20
-0.356393
11
0.169666
21
-0.317023
0
LINE
8
BLACK
6
CONTINUOUS
10
0.205287
20
-0.317023
11
0.197788
21
-0.317023
0
LINE
8
BLACK
6
CONTINUOUS
10
0.197788
20
-0.317023
11
0.194038
21
-0.318898
0
LINE
8
BLACK
6
CONTINUOUS
10
0.194038
20
-0.318898
11
0.192163
21
-0.320772
0
LINE
8
BLACK
6
CONTINUOUS
10
0.192163
20
-0.320772
11
0.188414
21
-0.326397
0
LINE
8
BLACK
6
CONTINUOUS
10
0.188414
20
-0.326397
11
0.186539
21
-0.333896
0
LINE
8
BLACK
6
CONTINUOUS
10
0.186539
20
-0.333896
11
0.186539
21
-0.348894
0
LINE
8
BLACK
6
CONTINUOUS
10
0.186539
20
-0.348894
11
0.188414
21
-0.352643
0
LINE
8
BLACK
6
CONTINUOUS
10
0.188414
20
-0.352643
11
0.190289
21
-0.354518
0
LINE
8
BLACK
6
CONTINUOUS
10
0.190289
20
-0.354518
11
0.194038
21
-0.356393
0
LINE
8
BLACK
6
CONTINUOUS
10
0.194038
20
-0.356393
11
0.201537
21
-0.356393
0
LINE
8
BLACK
6
CONTINUOUS
10
0.201537
20
-0.356393
11
0.205287
21
-0.354518
0
LINE
8
BLACK
6
CONTINUOUS
10
0.205287
20
-0.354518
11
0.207162
21
-0.352643
0
LINE
8
BLACK
6
CONTINUOUS
10
0.207162
20
-0.352643
11
0.209036
21
-0.348894
0
LINE
8
BLACK
6
CONTINUOUS
10
0.209036
20
-0.348894
11
0.209036
21
-0.33952
0
LINE
8
BLACK
6
CONTINUOUS
10
0.209036
20
-0.33952
11
0.207162
21
-0.335771
0
LINE
8
BLACK
6
CONTINUOUS
10
0.207162
20
-0.335771
11
0.205287
21
-0.333896
0
LINE
8
BLACK
6
CONTINUOUS
10
0.205287
20
-0.333896
11
0.201537
21
-0.332021
0
LINE
8
BLACK
6
CONTINUOUS
10
0.201537
20
-0.332021
11
0.194038
21
-0.332021
0
LINE
8
BLACK
6
CONTINUOUS
10
0.194038
20
-0.332021
11
0.190289
21
-0.333896
0
LINE
8
BLACK
6
CONTINUOUS
10
0.190289
20
-0.333896
11
0.188414
21
-0.335771
0
LINE
8
BLACK
6
CONTINUOUS
10
0.188414
20
-0.335771
11
0.186539
21
-0.33952
0
LINE
8
BLACK
6
CONTINUOUS
10
0.125984
20
0.0866142
11
0
21
0.0866142
0
LINE
8
BLACK
6
CONTINUOUS
10
0
20
-0.0708661
11
0
21
-0.0787402
0
LINE
8
BLACK
6
CONTINUOUS
10
0
20
-0.0787402
11
0.125984
21
-0.0787402
0
LINE
8
BLACK
6
CONTINUOUS
10
0
20
0.0787402
11
-0.0314961
21
0.0787402
0
LINE
8
BLACK
6
CONTINUOUS
10
0
20
0.0866142
11
0
21
0.0787402
0
LINE
8
BLACK
6
CONTINUOUS
10
0
20
0.0275591
11
0
21
-0.019685
0
LINE
8
BLACK
6
CONTINUOUS
10
0.125984
20
-0.0787402
11
0.125984
21
-0.0708661
0
LINE
8
BLACK
6
CONTINUOUS
10
0.125984
20
0.0787402
11
0.125984
21
0.0866142
0
LINE
8
BLACK
6
CONTINUOUS
10
0.36811
20
-0.12815
11
0.482283
21
-0.12815
0
LINE
8
BLACK
6
CONTINUOUS
10
0.36811
20
0.136024
11
0.482283
21
0.136024
0
LINE
8
BLACK
6
CONTINUOUS
10
0.29311
20
0.0610236
11
0.29311
21
-0.0531496
0
LINE
8
BLACK
6
CONTINUOUS
10
0.557283
20
0.0610236
11
0.557283
21
-0.0531496
  0
ENDSEC
  0
EOF
