  0
SECTION
  2
HEADER
  9
$ANGBASE
  50
0.0
  9
$ANGDIR
  70
1
  9
$MEASUREMENT
  70
1
  0
ENDSEC
  0
SECTION
  2
TABLES
  0
TABLE
  2
LTYPE
  70
4
  0
LTYPE
  5
40F
  2
CONTINUOUS
  70
0
  3
Solid line
  72
65
  73
0
  40
0.0
  0
LTYPE
  5
410
  2
DASHDOT
 70
0
  3
Dash Dot ____ _ ____ _
 72
65
 73
4
 40
2.0
 49
1.25
 49
-0.25
 49
0.25
 49
-0.25
  0
LTYPE
  5
411
  2
DASHED
 70
0
  3
Dashed __ __ __ __ __
 72
65
 73
2
 40
0.75
 49
0.5
 49
-0.25
  0
LTYPE
  5
43B
  2
DOTTED
 70
0
  3
Dotted .  .  .  .
 72
65
 73
2
 40
0.2
 49
0.0
 49
-0.2
  0
ENDTAB
  0
TABLE
  2
STYLE
  70
4
  0
STYLE
  2
KICAD
  70
0
  40
0
  41
1
  42
1
  50
0
  71
0
  3
isocp.shx
  0
STYLE
  2
KICADB
  70
0
  40
0
  41
1
  42
1
  50
0
  71
0
  3
isocp.shx
  0
STYLE
  2
KICADI
  70
0
  40
0
  41
1
  42
1
  50
15
  71
0
  3
isocp.shx
  0
STYLE
  2
KICADBI
  70
0
  40
0
  41
1
  42
1
  50
15
  71
0
  3
isocp.shx
  0
ENDTAB
  0
TABLE
  2
LAYER
  70
1
  0
LAYER
  2
BLACK
  70
0
  62
7
  6
CONTINUOUS
  0
ENDTAB
  0
ENDSEC
  0
SECTION
  2
ENTITIES
0
LINE
8
BLACK
6
CONTINUOUS
10
-3.2
20
-0.6
11
-5.2
21
-0.6
0
LINE
8
BLACK
6
CONTINUOUS
10
-8.4
20
1.8
11
-6.3
21
3.9
0
LINE
8
BLACK
6
CONTINUOUS
10
-8.4
20
0.8
11
-8.4
21
1.8
0
LINE
8
BLACK
6
CONTINUOUS
10
-3.2
20
-0.6
11
-3.2
21
-0.1
0
ARC
8
BLACK
10
-6.4
20
-0.6
40
0.4
50
-0
51
180
0
LINE
8
BLACK
6
CONTINUOUS
10
-8.4
20
-1.6
11
-6.3
21
-3.7
0
LINE
8
BLACK
6
CONTINUOUS
10
-8.4
20
-1.6
11
-8.4
21
-0.6
0
CIRCLE
8
BLACK
10
-8.1
20
1.1
40
0.1
0
LINE
8
BLACK
6
CONTINUOUS
10
-5.2
20
0.8
11
-3.4
21
0.8
0
LINE
8
BLACK
6
CONTINUOUS
10
-8.4
20
-1.6
11
-10.5
21
-3.7
0
ARC
8
BLACK
10
-8
20
-0.6
40
0.4
50
-0
51
180
0
ARC
8
BLACK
10
-6.4
20
0.8
40
0.4
50
180
51
360
0
CIRCLE
8
BLACK
10
-3.2
20
0.8
40
0.2
0
ARC
8
BLACK
10
-5.6
20
0.8
40
0.4
50
180
51
360
0
LINE
8
BLACK
6
CONTINUOUS
10
-8.4
20
0.2
11
-5.2
21
0.2
0
LINE
8
BLACK
6
CONTINUOUS
10
-5.2
20
0.2
11
-8.4
21
0.2
0
LINE
8
BLACK
6
CONTINUOUS
10
-5.2
20
0
11
-8.4
21
0
0
LINE
8
BLACK
6
CONTINUOUS
10
-8.4
20
0
11
-5.2
21
0
0
LINE
8
BLACK
6
CONTINUOUS
10
-8.4
20
1.8
11
-10.5
21
3.9
0
ARC
8
BLACK
10
-5.6
20
-0.6
40
0.4
50
-0
51
180
0
ARC
8
BLACK
10
-3.20364
20
0.8
40
0.850991
50
-159.358
51
159.358
0
ARC
8
BLACK
10
-7.2
20
-0.6
40
0.4
50
-0
51
180
0
ARC
8
BLACK
10
-7.2
20
0.8
40
0.4
50
180
51
360
0
CIRCLE
8
BLACK
10
-5.5
20
1.1
40
0.1
0
ARC
8
BLACK
10
-8
20
0.8
40
0.4
50
180
51
360
0
LINE
8
BLACK
6
CONTINUOUS
10
-6.67403
20
10.8043
11
-7.01074
21
11.141
0
LINE
8
BLACK
6
CONTINUOUS
10
-7.01074
20
11.141
11
-6.30364
21
11.8481
0
LINE
8
BLACK
6
CONTINUOUS
10
-6.10161
20
10.2318
11
-6.43832
21
10.5686
0
LINE
8
BLACK
6
CONTINUOUS
10
-6.43832
20
10.5686
11
-5.73122
21
11.2757
0
LINE
8
BLACK
6
CONTINUOUS
10
5.80477
20
9.87595
11
5.93946
21
9.94329
0
LINE
8
BLACK
6
CONTINUOUS
10
5.93946
20
9.94329
11
6.10781
21
10.1117
0
LINE
8
BLACK
6
CONTINUOUS
10
6.10781
20
10.1117
11
6.14149
21
10.2127
0
LINE
8
BLACK
6
CONTINUOUS
10
6.14149
20
10.2127
11
6.14149
21
10.28
0
LINE
8
BLACK
6
CONTINUOUS
10
6.14149
20
10.28
11
6.10781
21
10.381
0
LINE
8
BLACK
6
CONTINUOUS
10
6.10781
20
10.381
11
6.04047
21
10.4484
0
LINE
8
BLACK
6
CONTINUOUS
10
6.04047
20
10.4484
11
5.93946
21
10.482
0
LINE
8
BLACK
6
CONTINUOUS
10
5.93946
20
10.482
11
5.87211
21
10.482
0
LINE
8
BLACK
6
CONTINUOUS
10
5.87211
20
10.482
11
5.7711
21
10.4484
0
LINE
8
BLACK
6
CONTINUOUS
10
5.7711
20
10.4484
11
5.60274
21
10.3474
0
LINE
8
BLACK
6
CONTINUOUS
10
5.60274
20
10.3474
11
5.50172
21
10.3137
0
LINE
8
BLACK
6
CONTINUOUS
10
5.50172
20
10.3137
11
5.43438
21
10.3137
0
LINE
8
BLACK
6
CONTINUOUS
10
5.43438
20
10.3137
11
5.33336
21
10.3474
0
LINE
8
BLACK
6
CONTINUOUS
10
5.33336
20
10.3474
11
5.26602
21
10.4147
0
LINE
8
BLACK
6
CONTINUOUS
10
5.26602
20
10.4147
11
5.23235
21
10.5157
0
LINE
8
BLACK
6
CONTINUOUS
10
5.23235
20
10.5157
11
5.23235
21
10.5831
0
LINE
8
BLACK
6
CONTINUOUS
10
5.23235
20
10.5831
11
5.26602
21
10.6841
0
LINE
8
BLACK
6
CONTINUOUS
10
5.26602
20
10.6841
11
5.43438
21
10.8524
0
LINE
8
BLACK
6
CONTINUOUS
10
5.43438
20
10.8524
11
5.56907
21
10.9198
0
LINE
8
BLACK
6
CONTINUOUS
10
6.88226
20
10.8861
11
6.54555
21
10.5494
0
LINE
8
BLACK
6
CONTINUOUS
10
6.54555
20
10.5494
11
5.83844
21
11.2565
0
LINE
8
BLACK
6
CONTINUOUS
10
-3.28571
20
8.45238
11
-3.38095
21
8.5
0
LINE
8
BLACK
6
CONTINUOUS
10
-3.38095
20
8.5
11
-3.47619
21
8.59524
0
LINE
8
BLACK
6
CONTINUOUS
10
-3.47619
20
8.59524
11
-3.61905
21
8.7381
0
LINE
8
BLACK
6
CONTINUOUS
10
-3.61905
20
8.7381
11
-3.71429
21
8.78571
0
LINE
8
BLACK
6
CONTINUOUS
10
-3.71429
20
8.78571
11
-3.80952
21
8.78571
0
LINE
8
BLACK
6
CONTINUOUS
10
-3.7619
20
8.54762
11
-3.85714
21
8.59524
0
LINE
8
BLACK
6
CONTINUOUS
10
-3.85714
20
8.59524
11
-3.95238
21
8.69048
0
LINE
8
BLACK
6
CONTINUOUS
10
-3.95238
20
8.69048
11
-4
21
8.88095
0
LINE
8
BLACK
6
CONTINUOUS
10
-4
20
8.88095
11
-4
21
9.21429
0
LINE
8
BLACK
6
CONTINUOUS
10
-4
20
9.21429
11
-3.95238
21
9.40476
0
LINE
8
BLACK
6
CONTINUOUS
10
-3.95238
20
9.40476
11
-3.85714
21
9.5
0
LINE
8
BLACK
6
CONTINUOUS
10
-3.85714
20
9.5
11
-3.7619
21
9.54762
0
LINE
8
BLACK
6
CONTINUOUS
10
-3.7619
20
9.54762
11
-3.57143
21
9.54762
0
LINE
8
BLACK
6
CONTINUOUS
10
-3.57143
20
9.54762
11
-3.47619
21
9.5
0
LINE
8
BLACK
6
CONTINUOUS
10
-3.47619
20
9.5
11
-3.38095
21
9.40476
0
LINE
8
BLACK
6
CONTINUOUS
10
-3.38095
20
9.40476
11
-3.33333
21
9.21429
0
LINE
8
BLACK
6
CONTINUOUS
10
-3.33333
20
9.21429
11
-3.33333
21
8.88095
0
LINE
8
BLACK
6
CONTINUOUS
10
-3.33333
20
8.88095
11
-3.38095
21
8.69048
0
LINE
8
BLACK
6
CONTINUOUS
10
-3.38095
20
8.69048
11
-3.47619
21
8.59524
0
LINE
8
BLACK
6
CONTINUOUS
10
-3.47619
20
8.59524
11
-3.57143
21
8.54762
0
LINE
8
BLACK
6
CONTINUOUS
10
-3.57143
20
8.54762
11
-3.7619
21
8.54762
0
LINE
8
BLACK
6
CONTINUOUS
10
-2.57143
20
9.07143
11
-2.90476
21
9.07143
0
LINE
8
BLACK
6
CONTINUOUS
10
-2.90476
20
8.54762
11
-2.90476
21
9.54762
0
LINE
8
BLACK
6
CONTINUOUS
10
-2.90476
20
9.54762
11
-2.42857
21
9.54762
0
LINE
8
BLACK
6
CONTINUOUS
10
-2.04762
20
8.54762
11
-2.04762
21
9.54762
0
LINE
8
BLACK
6
CONTINUOUS
10
-2.04762
20
9.07143
11
-1.47619
21
9.07143
0
LINE
8
BLACK
6
CONTINUOUS
10
-1.47619
20
8.54762
11
-1.47619
21
9.54762
0
LINE
8
BLACK
6
CONTINUOUS
10
-0.666667
20
9.07143
11
-0.52381
21
9.02381
0
LINE
8
BLACK
6
CONTINUOUS
10
-0.52381
20
9.02381
11
-0.476191
21
8.97619
0
LINE
8
BLACK
6
CONTINUOUS
10
-0.476191
20
8.97619
11
-0.428572
21
8.88095
0
LINE
8
BLACK
6
CONTINUOUS
10
-0.428572
20
8.88095
11
-0.428572
21
8.7381
0
LINE
8
BLACK
6
CONTINUOUS
10
-0.428572
20
8.7381
11
-0.476191
21
8.64286
0
LINE
8
BLACK
6
CONTINUOUS
10
-0.476191
20
8.64286
11
-0.52381
21
8.59524
0
LINE
8
BLACK
6
CONTINUOUS
10
-0.52381
20
8.59524
11
-0.619048
21
8.54762
0
LINE
8
BLACK
6
CONTINUOUS
10
-0.619048
20
8.54762
11
-1
21
8.54762
0
LINE
8
BLACK
6
CONTINUOUS
10
-1
20
8.54762
11
-1
21
9.54762
0
LINE
8
BLACK
6
CONTINUOUS
10
-1
20
9.54762
11
-0.666667
21
9.54762
0
LINE
8
BLACK
6
CONTINUOUS
10
-0.666667
20
9.54762
11
-0.571429
21
9.5
0
LINE
8
BLACK
6
CONTINUOUS
10
-0.571429
20
9.5
11
-0.52381
21
9.45238
0
LINE
8
BLACK
6
CONTINUOUS
10
-0.52381
20
9.45238
11
-0.476191
21
9.35714
0
LINE
8
BLACK
6
CONTINUOUS
10
-0.476191
20
9.35714
11
-0.476191
21
9.2619
0
LINE
8
BLACK
6
CONTINUOUS
10
-0.476191
20
9.2619
11
-0.52381
21
9.16667
0
LINE
8
BLACK
6
CONTINUOUS
10
-0.52381
20
9.16667
11
-0.571429
21
9.11905
0
LINE
8
BLACK
6
CONTINUOUS
10
-0.571429
20
9.11905
11
-0.666667
21
9.07143
0
LINE
8
BLACK
6
CONTINUOUS
10
-0.666667
20
9.07143
11
-1
21
9.07143
0
LINE
8
BLACK
6
CONTINUOUS
10
-0.04762
20
8.83333
11
0.428571
21
8.83333
0
LINE
8
BLACK
6
CONTINUOUS
10
-0.142858
20
8.54762
11
0.190476
21
9.54762
0
LINE
8
BLACK
6
CONTINUOUS
10
0.190476
20
9.54762
11
0.523809
21
8.54762
0
LINE
8
BLACK
6
CONTINUOUS
10
1.33333
20
8.54762
11
0.857142
21
8.54762
0
LINE
8
BLACK
6
CONTINUOUS
10
0.857142
20
8.54762
11
0.857142
21
9.54762
0
LINE
8
BLACK
6
CONTINUOUS
10
1.85714
20
9.54762
11
1.95238
21
9.54762
0
LINE
8
BLACK
6
CONTINUOUS
10
1.95238
20
9.54762
11
2.04762
21
9.5
0
LINE
8
BLACK
6
CONTINUOUS
10
2.04762
20
9.5
11
2.09524
21
9.45238
0
LINE
8
BLACK
6
CONTINUOUS
10
2.09524
20
9.45238
11
2.14286
21
9.35714
0
LINE
8
BLACK
6
CONTINUOUS
10
2.14286
20
9.35714
11
2.19048
21
9.16667
0
LINE
8
BLACK
6
CONTINUOUS
10
2.19048
20
9.16667
11
2.19048
21
8.92857
0
LINE
8
BLACK
6
CONTINUOUS
10
2.19048
20
8.92857
11
2.14286
21
8.7381
0
LINE
8
BLACK
6
CONTINUOUS
10
2.14286
20
8.7381
11
2.09524
21
8.64286
0
LINE
8
BLACK
6
CONTINUOUS
10
2.09524
20
8.64286
11
2.04762
21
8.59524
0
LINE
8
BLACK
6
CONTINUOUS
10
2.04762
20
8.59524
11
1.95238
21
8.54762
0
LINE
8
BLACK
6
CONTINUOUS
10
1.95238
20
8.54762
11
1.85714
21
8.54762
0
LINE
8
BLACK
6
CONTINUOUS
10
1.85714
20
8.54762
11
1.7619
21
8.59524
0
LINE
8
BLACK
6
CONTINUOUS
10
1.7619
20
8.59524
11
1.71428
21
8.64286
0
LINE
8
BLACK
6
CONTINUOUS
10
1.71428
20
8.64286
11
1.66667
21
8.7381
0
LINE
8
BLACK
6
CONTINUOUS
10
1.66667
20
8.7381
11
1.61905
21
8.92857
0
LINE
8
BLACK
6
CONTINUOUS
10
1.61905
20
8.92857
11
1.61905
21
9.16667
0
LINE
8
BLACK
6
CONTINUOUS
10
1.61905
20
9.16667
11
1.66667
21
9.35714
0
LINE
8
BLACK
6
CONTINUOUS
10
1.66667
20
9.35714
11
1.71428
21
9.45238
0
LINE
8
BLACK
6
CONTINUOUS
10
1.71428
20
9.45238
11
1.7619
21
9.5
0
LINE
8
BLACK
6
CONTINUOUS
10
1.7619
20
9.5
11
1.85714
21
9.54762
0
LINE
8
BLACK
6
CONTINUOUS
10
3.14286
20
8.54762
11
2.57143
21
8.54762
0
LINE
8
BLACK
6
CONTINUOUS
10
2.85714
20
8.54762
11
2.85714
21
9.54762
0
LINE
8
BLACK
6
CONTINUOUS
10
2.85714
20
9.54762
11
2.7619
21
9.40476
0
LINE
8
BLACK
6
CONTINUOUS
10
2.7619
20
9.40476
11
2.66667
21
9.30952
0
LINE
8
BLACK
6
CONTINUOUS
10
2.66667
20
9.30952
11
2.57143
21
9.2619
0
LINE
8
BLACK
6
CONTINUOUS
10
3.52381
20
8.83333
11
4
21
8.83333
0
LINE
8
BLACK
6
CONTINUOUS
10
3.42857
20
8.54762
11
3.7619
21
9.54762
0
LINE
8
BLACK
6
CONTINUOUS
10
3.7619
20
9.54762
11
4.09524
21
8.54762
0
LINE
8
BLACK
6
CONTINUOUS
10
9.12477
20
-6.97574
11
8.78806
21
-6.63902
0
LINE
8
BLACK
6
CONTINUOUS
10
8.78806
20
-6.63902
11
9.49516
21
-5.93191
0
LINE
8
BLACK
6
CONTINUOUS
10
9.69719
20
-7.54816
11
9.36048
21
-7.21144
0
LINE
8
BLACK
6
CONTINUOUS
10
9.36048
20
-7.21144
11
10.0676
21
-6.50433
0
LINE
8
BLACK
6
CONTINUOUS
10
-9.74003
20
-7.49765
11
-9.60534
21
-7.43031
0
LINE
8
BLACK
6
CONTINUOUS
10
-9.60534
20
-7.43031
11
-9.43698
21
-7.26195
0
LINE
8
BLACK
6
CONTINUOUS
10
-9.43698
20
-7.26195
11
-9.40331
21
-7.16093
0
LINE
8
BLACK
6
CONTINUOUS
10
-9.40331
20
-7.16093
11
-9.40331
21
-7.09359
0
LINE
8
BLACK
6
CONTINUOUS
10
-9.40331
20
-7.09359
11
-9.43698
21
-6.99257
0
LINE
8
BLACK
6
CONTINUOUS
10
-9.43698
20
-6.99257
11
-9.50433
21
-6.92523
0
LINE
8
BLACK
6
CONTINUOUS
10
-9.50433
20
-6.92523
11
-9.60534
21
-6.89156
0
LINE
8
BLACK
6
CONTINUOUS
10
-9.60534
20
-6.89156
11
-9.67269
21
-6.89156
0
LINE
8
BLACK
6
CONTINUOUS
10
-9.67269
20
-6.89156
11
-9.7737
21
-6.92523
0
LINE
8
BLACK
6
CONTINUOUS
10
-9.7737
20
-6.92523
11
-9.94206
21
-7.02624
0
LINE
8
BLACK
6
CONTINUOUS
10
-9.94206
20
-7.02624
11
-10.0431
21
-7.05992
0
LINE
8
BLACK
6
CONTINUOUS
10
-10.0431
20
-7.05992
11
-10.1104
21
-7.05992
0
LINE
8
BLACK
6
CONTINUOUS
10
-10.1104
20
-7.05992
11
-10.2114
21
-7.02624
0
LINE
8
BLACK
6
CONTINUOUS
10
-10.2114
20
-7.02624
11
-10.2788
21
-6.9589
0
LINE
8
BLACK
6
CONTINUOUS
10
-10.2788
20
-6.9589
11
-10.3125
21
-6.85789
0
LINE
8
BLACK
6
CONTINUOUS
10
-10.3125
20
-6.85789
11
-10.3125
21
-6.79054
0
LINE
8
BLACK
6
CONTINUOUS
10
-10.3125
20
-6.79054
11
-10.2788
21
-6.68953
0
LINE
8
BLACK
6
CONTINUOUS
10
-10.2788
20
-6.68953
11
-10.1104
21
-6.52117
0
LINE
8
BLACK
6
CONTINUOUS
10
-10.1104
20
-6.52117
11
-9.97573
21
-6.45383
0
LINE
8
BLACK
6
CONTINUOUS
10
-8.66254
20
-6.4875
11
-8.99925
21
-6.82421
0
LINE
8
BLACK
6
CONTINUOUS
10
-8.99925
20
-6.82421
11
-9.70636
21
-6.11711
0
LINE
8
BLACK
6
CONTINUOUS
10
-8.19524
20
-1.12143
11
-8.0619
21
-1.12143
0
LINE
8
BLACK
6
CONTINUOUS
10
-8.00476
20
-1.33095
11
-8.19524
21
-1.33095
0
LINE
8
BLACK
6
CONTINUOUS
10
-8.19524
20
-1.33095
11
-8.19524
21
-0.930952
0
LINE
8
BLACK
6
CONTINUOUS
10
-8.19524
20
-0.930952
11
-8.00476
21
-0.930952
0
LINE
8
BLACK
6
CONTINUOUS
10
-7.89048
20
-0.930952
11
-7.6619
21
-0.930952
0
LINE
8
BLACK
6
CONTINUOUS
10
-7.77619
20
-1.33095
11
-7.77619
21
-0.930952
0
LINE
8
BLACK
6
CONTINUOUS
10
-7.3
20
-1.29286
11
-7.31905
21
-1.3119
0
LINE
8
BLACK
6
CONTINUOUS
10
-7.31905
20
-1.3119
11
-7.37619
21
-1.33095
0
LINE
8
BLACK
6
CONTINUOUS
10
-7.37619
20
-1.33095
11
-7.41429
21
-1.33095
0
LINE
8
BLACK
6
CONTINUOUS
10
-7.41429
20
-1.33095
11
-7.47143
21
-1.3119
0
LINE
8
BLACK
6
CONTINUOUS
10
-7.47143
20
-1.3119
11
-7.50952
21
-1.27381
0
LINE
8
BLACK
6
CONTINUOUS
10
-7.50952
20
-1.27381
11
-7.52857
21
-1.23571
0
LINE
8
BLACK
6
CONTINUOUS
10
-7.52857
20
-1.23571
11
-7.54762
21
-1.15952
0
LINE
8
BLACK
6
CONTINUOUS
10
-7.54762
20
-1.15952
11
-7.54762
21
-1.10238
0
LINE
8
BLACK
6
CONTINUOUS
10
-7.54762
20
-1.10238
11
-7.52857
21
-1.02619
0
LINE
8
BLACK
6
CONTINUOUS
10
-7.52857
20
-1.02619
11
-7.50952
21
-0.988095
0
LINE
8
BLACK
6
CONTINUOUS
10
-7.50952
20
-0.988095
11
-7.47143
21
-0.95
0
LINE
8
BLACK
6
CONTINUOUS
10
-7.47143
20
-0.95
11
-7.41429
21
-0.930952
0
LINE
8
BLACK
6
CONTINUOUS
10
-7.41429
20
-0.930952
11
-7.37619
21
-0.930952
0
LINE
8
BLACK
6
CONTINUOUS
10
-7.37619
20
-0.930952
11
-7.31905
21
-0.95
0
LINE
8
BLACK
6
CONTINUOUS
10
-7.31905
20
-0.95
11
-7.3
21
-0.969047
0
LINE
8
BLACK
6
CONTINUOUS
10
-6.91905
20
-1.33095
11
-7.14762
21
-1.33095
0
LINE
8
BLACK
6
CONTINUOUS
10
-7.03333
20
-1.33095
11
-7.03333
21
-0.930952
0
LINE
8
BLACK
6
CONTINUOUS
10
-7.03333
20
-0.930952
11
-7.07143
21
-0.988095
0
LINE
8
BLACK
6
CONTINUOUS
10
-7.07143
20
-0.988095
11
-7.10952
21
-1.02619
0
LINE
8
BLACK
6
CONTINUOUS
10
-7.10952
20
-1.02619
11
-7.14762
21
-1.04524
0
LINE
8
BLACK
6
CONTINUOUS
10
-6.74762
20
-1.17857
11
-6.44286
21
-1.17857
0
LINE
8
BLACK
6
CONTINUOUS
10
-6.04286
20
-1.33095
11
-6.27143
21
-1.33095
0
LINE
8
BLACK
6
CONTINUOUS
10
-6.15714
20
-1.33095
11
-6.15714
21
-0.930952
0
LINE
8
BLACK
6
CONTINUOUS
10
-6.15714
20
-0.930952
11
-6.19524
21
-0.988095
0
LINE
8
BLACK
6
CONTINUOUS
10
-6.19524
20
-0.988095
11
-6.23333
21
-1.02619
0
LINE
8
BLACK
6
CONTINUOUS
10
-6.23333
20
-1.02619
11
-6.27143
21
-1.04524
0
LINE
8
BLACK
6
CONTINUOUS
10
-5.87143
20
-1.17857
11
-5.56667
21
-1.17857
0
LINE
8
BLACK
6
CONTINUOUS
10
-5.16667
20
-1.33095
11
-5.39524
21
-1.33095
0
LINE
8
BLACK
6
CONTINUOUS
10
-5.28095
20
-1.33095
11
-5.28095
21
-0.930952
0
LINE
8
BLACK
6
CONTINUOUS
10
-5.28095
20
-0.930952
11
-5.31905
21
-0.988095
0
LINE
8
BLACK
6
CONTINUOUS
10
-5.31905
20
-0.988095
11
-5.35714
21
-1.02619
0
LINE
8
BLACK
6
CONTINUOUS
10
-5.35714
20
-1.02619
11
-5.39524
21
-1.04524
0
LINE
8
BLACK
6
CONTINUOUS
10
-5.03333
20
-0.930952
11
-4.78571
21
-0.930952
0
LINE
8
BLACK
6
CONTINUOUS
10
-4.78571
20
-0.930952
11
-4.91905
21
-1.08333
0
LINE
8
BLACK
6
CONTINUOUS
10
-4.91905
20
-1.08333
11
-4.86191
21
-1.08333
0
LINE
8
BLACK
6
CONTINUOUS
10
-4.86191
20
-1.08333
11
-4.82381
21
-1.10238
0
LINE
8
BLACK
6
CONTINUOUS
10
-4.82381
20
-1.10238
11
-4.80476
21
-1.12143
0
LINE
8
BLACK
6
CONTINUOUS
10
-4.80476
20
-1.12143
11
-4.78571
21
-1.15952
0
LINE
8
BLACK
6
CONTINUOUS
10
-4.78571
20
-1.15952
11
-4.78571
21
-1.25476
0
LINE
8
BLACK
6
CONTINUOUS
10
-4.78571
20
-1.25476
11
-4.80476
21
-1.29286
0
LINE
8
BLACK
6
CONTINUOUS
10
-4.80476
20
-1.29286
11
-4.82381
21
-1.3119
0
LINE
8
BLACK
6
CONTINUOUS
10
-4.82381
20
-1.3119
11
-4.86191
21
-1.33095
0
LINE
8
BLACK
6
CONTINUOUS
10
-4.86191
20
-1.33095
11
-4.97619
21
-1.33095
0
LINE
8
BLACK
6
CONTINUOUS
10
-4.97619
20
-1.33095
11
-5.01429
21
-1.3119
0
LINE
8
BLACK
6
CONTINUOUS
10
-5.01429
20
-1.3119
11
-5.03333
21
-1.29286
0
LINE
8
BLACK
6
CONTINUOUS
10
-12.7619
20
3.74762
11
-12.7619
21
4.74762
0
LINE
8
BLACK
6
CONTINUOUS
10
-12.7619
20
4.27143
11
-12.1905
21
4.27143
0
LINE
8
BLACK
6
CONTINUOUS
10
-12.1905
20
3.74762
11
-12.1905
21
4.74762
0
LINE
8
BLACK
6
CONTINUOUS
10
-11.6667
20
3.74762
11
-11.4762
21
3.74762
0
LINE
8
BLACK
6
CONTINUOUS
10
-11.4762
20
3.74762
11
-11.381
21
3.79524
0
LINE
8
BLACK
6
CONTINUOUS
10
-11.381
20
3.79524
11
-11.3333
21
3.84286
0
LINE
8
BLACK
6
CONTINUOUS
10
-11.3333
20
3.84286
11
-11.2381
21
3.98571
0
LINE
8
BLACK
6
CONTINUOUS
10
-11.2381
20
3.98571
11
-11.1905
21
4.17619
0
LINE
8
BLACK
6
CONTINUOUS
10
-11.1905
20
4.17619
11
-11.1905
21
4.55714
0
LINE
8
BLACK
6
CONTINUOUS
10
-11.1905
20
4.55714
11
-11.2381
21
4.65238
0
LINE
8
BLACK
6
CONTINUOUS
10
-11.2381
20
4.65238
11
-11.2857
21
4.7
0
LINE
8
BLACK
6
CONTINUOUS
10
-11.2857
20
4.7
11
-11.381
21
4.74762
0
LINE
8
BLACK
6
CONTINUOUS
10
-11.381
20
4.74762
11
-11.5714
21
4.74762
0
LINE
8
BLACK
6
CONTINUOUS
10
-11.5714
20
4.74762
11
-11.6667
21
4.7
0
LINE
8
BLACK
6
CONTINUOUS
10
-11.6667
20
4.7
11
-11.7143
21
4.65238
0
LINE
8
BLACK
6
CONTINUOUS
10
-11.7143
20
4.65238
11
-11.7619
21
4.55714
0
LINE
8
BLACK
6
CONTINUOUS
10
-11.7619
20
4.55714
11
-11.7619
21
4.31905
0
LINE
8
BLACK
6
CONTINUOUS
10
-11.7619
20
4.31905
11
-11.7143
21
4.22381
0
LINE
8
BLACK
6
CONTINUOUS
10
-11.7143
20
4.22381
11
-11.6667
21
4.17619
0
LINE
8
BLACK
6
CONTINUOUS
10
-11.6667
20
4.17619
11
-11.5714
21
4.12857
0
LINE
8
BLACK
6
CONTINUOUS
10
-11.5714
20
4.12857
11
-11.381
21
4.12857
0
LINE
8
BLACK
6
CONTINUOUS
10
-11.381
20
4.12857
11
-11.2857
21
4.17619
0
LINE
8
BLACK
6
CONTINUOUS
10
-11.2857
20
4.17619
11
-11.2381
21
4.22381
0
LINE
8
BLACK
6
CONTINUOUS
10
-11.2381
20
4.22381
11
-11.1905
21
4.31905
0
LINE
8
BLACK
6
CONTINUOUS
10
-1.2381
20
-8.25238
11
-1.2381
21
-7.25238
0
LINE
8
BLACK
6
CONTINUOUS
10
-1.2381
20
-7.72857
11
-0.666667
21
-7.72857
0
LINE
8
BLACK
6
CONTINUOUS
10
-0.666667
20
-8.25238
11
-0.666667
21
-7.25238
0
LINE
8
BLACK
6
CONTINUOUS
10
0.333333
20
-8.25238
11
-0.238096
21
-8.25238
0
LINE
8
BLACK
6
CONTINUOUS
10
0.047619
20
-8.25238
11
0.047619
21
-7.25238
0
LINE
8
BLACK
6
CONTINUOUS
10
0.047619
20
-7.25238
11
-0.04762
21
-7.39524
0
LINE
8
BLACK
6
CONTINUOUS
10
-0.04762
20
-7.39524
11
-0.142858
21
-7.49048
0
LINE
8
BLACK
6
CONTINUOUS
10
-0.142858
20
-7.49048
11
-0.238096
21
-7.53809
0
LINE
8
BLACK
6
CONTINUOUS
10
1.28571
20
-8.25238
11
0.714285
21
-8.25238
0
LINE
8
BLACK
6
CONTINUOUS
10
1
20
-8.25238
11
1
21
-7.25238
0
LINE
8
BLACK
6
CONTINUOUS
10
1
20
-7.25238
11
0.904761
21
-7.39524
0
LINE
8
BLACK
6
CONTINUOUS
10
0.904761
20
-7.39524
11
0.809523
21
-7.49048
0
LINE
8
BLACK
6
CONTINUOUS
10
0.809523
20
-7.49048
11
0.714285
21
-7.53809
0
LINE
8
BLACK
6
CONTINUOUS
10
-0.444705
20
3.57802
11
0.126723
21
3.57802
0
LINE
8
BLACK
6
CONTINUOUS
10
-0.158991
20
2.57802
11
-0.158991
21
3.57802
0
LINE
8
BLACK
6
CONTINUOUS
10
0.983866
20
2.57802
11
0.412438
21
2.57802
0
LINE
8
BLACK
6
CONTINUOUS
10
0.698152
20
2.57802
11
0.698152
21
3.57802
0
LINE
8
BLACK
6
CONTINUOUS
10
0.698152
20
3.57802
11
0.602914
21
3.43516
0
LINE
8
BLACK
6
CONTINUOUS
10
0.602914
20
3.43516
11
0.507676
21
3.33992
0
LINE
8
BLACK
6
CONTINUOUS
10
0.507676
20
3.33992
11
0.412438
21
3.2923
0
LINE
8
BLACK
6
CONTINUOUS
10
10.4667
20
5.39762
11
10.4667
21
4.68333
0
LINE
8
BLACK
6
CONTINUOUS
10
10.4667
20
4.68333
11
10.419
21
4.54048
0
LINE
8
BLACK
6
CONTINUOUS
10
10.419
20
4.54048
11
10.3238
21
4.44524
0
LINE
8
BLACK
6
CONTINUOUS
10
10.3238
20
4.44524
11
10.181
21
4.39762
0
LINE
8
BLACK
6
CONTINUOUS
10
10.181
20
4.39762
11
10.0857
21
4.39762
0
LINE
8
BLACK
6
CONTINUOUS
10
11.4667
20
4.39762
11
10.8952
21
4.39762
0
LINE
8
BLACK
6
CONTINUOUS
10
11.181
20
4.39762
11
11.181
21
5.39762
0
LINE
8
BLACK
6
CONTINUOUS
10
11.181
20
5.39762
11
11.0857
21
5.25476
0
LINE
8
BLACK
6
CONTINUOUS
10
11.0857
20
5.25476
11
10.9905
21
5.15952
0
LINE
8
BLACK
6
CONTINUOUS
10
10.9905
20
5.15952
11
10.8952
21
5.11191
0
LINE
8
BLACK
6
CONTINUOUS
10
-5.2619
20
8.34762
11
-5.2619
21
9.34762
0
LINE
8
BLACK
6
CONTINUOUS
10
-5.2619
20
8.87143
11
-4.69048
21
8.87143
0
LINE
8
BLACK
6
CONTINUOUS
10
-4.69048
20
8.34762
11
-4.69048
21
9.34762
0
LINE
8
BLACK
6
CONTINUOUS
10
-3.7381
20
9.34762
11
-4.21429
21
9.34762
0
LINE
8
BLACK
6
CONTINUOUS
10
-4.21429
20
9.34762
11
-4.2619
21
8.87143
0
LINE
8
BLACK
6
CONTINUOUS
10
-4.2619
20
8.87143
11
-4.21429
21
8.91905
0
LINE
8
BLACK
6
CONTINUOUS
10
-4.21429
20
8.91905
11
-4.11905
21
8.96667
0
LINE
8
BLACK
6
CONTINUOUS
10
-4.11905
20
8.96667
11
-3.88095
21
8.96667
0
LINE
8
BLACK
6
CONTINUOUS
10
-3.88095
20
8.96667
11
-3.78571
21
8.91905
0
LINE
8
BLACK
6
CONTINUOUS
10
-3.78571
20
8.91905
11
-3.7381
21
8.87143
0
LINE
8
BLACK
6
CONTINUOUS
10
-3.7381
20
8.87143
11
-3.69048
21
8.77619
0
LINE
8
BLACK
6
CONTINUOUS
10
-3.69048
20
8.77619
11
-3.69048
21
8.5381
0
LINE
8
BLACK
6
CONTINUOUS
10
-3.69048
20
8.5381
11
-3.7381
21
8.44286
0
LINE
8
BLACK
6
CONTINUOUS
10
-3.7381
20
8.44286
11
-3.78571
21
8.39524
0
LINE
8
BLACK
6
CONTINUOUS
10
-3.78571
20
8.39524
11
-3.88095
21
8.34762
0
LINE
8
BLACK
6
CONTINUOUS
10
-3.88095
20
8.34762
11
-4.11905
21
8.34762
0
LINE
8
BLACK
6
CONTINUOUS
10
-4.11905
20
8.34762
11
-4.21429
21
8.39524
0
LINE
8
BLACK
6
CONTINUOUS
10
-4.21429
20
8.39524
11
-4.2619
21
8.44286
0
LINE
8
BLACK
6
CONTINUOUS
10
-1.2381
20
15.7476
11
-1.2381
21
16.7476
0
LINE
8
BLACK
6
CONTINUOUS
10
-1.2381
20
16.2714
11
-0.666667
21
16.2714
0
LINE
8
BLACK
6
CONTINUOUS
10
-0.666667
20
15.7476
11
-0.666667
21
16.7476
0
LINE
8
BLACK
6
CONTINUOUS
10
0.333333
20
15.7476
11
-0.238096
21
15.7476
0
LINE
8
BLACK
6
CONTINUOUS
10
0.047619
20
15.7476
11
0.047619
21
16.7476
0
LINE
8
BLACK
6
CONTINUOUS
10
0.047619
20
16.7476
11
-0.04762
21
16.6048
0
LINE
8
BLACK
6
CONTINUOUS
10
-0.04762
20
16.6048
11
-0.142858
21
16.5095
0
LINE
8
BLACK
6
CONTINUOUS
10
-0.142858
20
16.5095
11
-0.238096
21
16.4619
0
LINE
8
BLACK
6
CONTINUOUS
10
0.95238
20
16.7476
11
1.04762
21
16.7476
0
LINE
8
BLACK
6
CONTINUOUS
10
1.04762
20
16.7476
11
1.14286
21
16.7
0
LINE
8
BLACK
6
CONTINUOUS
10
1.14286
20
16.7
11
1.19048
21
16.6524
0
LINE
8
BLACK
6
CONTINUOUS
10
1.19048
20
16.6524
11
1.23809
21
16.5571
0
LINE
8
BLACK
6
CONTINUOUS
10
1.23809
20
16.5571
11
1.28571
21
16.3667
0
LINE
8
BLACK
6
CONTINUOUS
10
1.28571
20
16.3667
11
1.28571
21
16.1286
0
LINE
8
BLACK
6
CONTINUOUS
10
1.28571
20
16.1286
11
1.23809
21
15.9381
0
LINE
8
BLACK
6
CONTINUOUS
10
1.23809
20
15.9381
11
1.19048
21
15.8429
0
LINE
8
BLACK
6
CONTINUOUS
10
1.19048
20
15.8429
11
1.14286
21
15.7952
0
LINE
8
BLACK
6
CONTINUOUS
10
1.14286
20
15.7952
11
1.04762
21
15.7476
0
LINE
8
BLACK
6
CONTINUOUS
10
1.04762
20
15.7476
11
0.95238
21
15.7476
0
LINE
8
BLACK
6
CONTINUOUS
10
0.95238
20
15.7476
11
0.857142
21
15.7952
0
LINE
8
BLACK
6
CONTINUOUS
10
0.857142
20
15.7952
11
0.809523
21
15.8429
0
LINE
8
BLACK
6
CONTINUOUS
10
0.809523
20
15.8429
11
0.761904
21
15.9381
0
LINE
8
BLACK
6
CONTINUOUS
10
0.761904
20
15.9381
11
0.714285
21
16.1286
0
LINE
8
BLACK
6
CONTINUOUS
10
0.714285
20
16.1286
11
0.714285
21
16.3667
0
LINE
8
BLACK
6
CONTINUOUS
10
0.714285
20
16.3667
11
0.761904
21
16.5571
0
LINE
8
BLACK
6
CONTINUOUS
10
0.761904
20
16.5571
11
0.809523
21
16.6524
0
LINE
8
BLACK
6
CONTINUOUS
10
0.809523
20
16.6524
11
0.857142
21
16.7
0
LINE
8
BLACK
6
CONTINUOUS
10
0.857142
20
16.7
11
0.95238
21
16.7476
0
LINE
8
BLACK
6
CONTINUOUS
10
3.73809
20
-9.05238
11
3.73809
21
-8.05238
0
LINE
8
BLACK
6
CONTINUOUS
10
3.73809
20
-8.52857
11
4.30952
21
-8.52857
0
LINE
8
BLACK
6
CONTINUOUS
10
4.30952
20
-9.05238
11
4.30952
21
-8.05238
0
LINE
8
BLACK
6
CONTINUOUS
10
5.21428
20
-8.05238
11
5.02381
21
-8.05238
0
LINE
8
BLACK
6
CONTINUOUS
10
5.02381
20
-8.05238
11
4.92857
21
-8.1
0
LINE
8
BLACK
6
CONTINUOUS
10
4.92857
20
-8.1
11
4.88095
21
-8.14762
0
LINE
8
BLACK
6
CONTINUOUS
10
4.88095
20
-8.14762
11
4.78571
21
-8.29048
0
LINE
8
BLACK
6
CONTINUOUS
10
4.78571
20
-8.29048
11
4.73809
21
-8.48095
0
LINE
8
BLACK
6
CONTINUOUS
10
4.73809
20
-8.48095
11
4.73809
21
-8.8619
0
LINE
8
BLACK
6
CONTINUOUS
10
4.73809
20
-8.8619
11
4.78571
21
-8.95714
0
LINE
8
BLACK
6
CONTINUOUS
10
4.78571
20
-8.95714
11
4.83333
21
-9.00476
0
LINE
8
BLACK
6
CONTINUOUS
10
4.83333
20
-9.00476
11
4.92857
21
-9.05238
0
LINE
8
BLACK
6
CONTINUOUS
10
4.92857
20
-9.05238
11
5.11905
21
-9.05238
0
LINE
8
BLACK
6
CONTINUOUS
10
5.11905
20
-9.05238
11
5.21428
21
-9.00476
0
LINE
8
BLACK
6
CONTINUOUS
10
5.21428
20
-9.00476
11
5.2619
21
-8.95714
0
LINE
8
BLACK
6
CONTINUOUS
10
5.2619
20
-8.95714
11
5.30952
21
-8.8619
0
LINE
8
BLACK
6
CONTINUOUS
10
5.30952
20
-8.8619
11
5.30952
21
-8.62381
0
LINE
8
BLACK
6
CONTINUOUS
10
5.30952
20
-8.62381
11
5.2619
21
-8.52857
0
LINE
8
BLACK
6
CONTINUOUS
10
5.2619
20
-8.52857
11
5.21428
21
-8.48095
0
LINE
8
BLACK
6
CONTINUOUS
10
5.21428
20
-8.48095
11
5.11905
21
-8.43333
0
LINE
8
BLACK
6
CONTINUOUS
10
5.11905
20
-8.43333
11
4.92857
21
-8.43333
0
LINE
8
BLACK
6
CONTINUOUS
10
4.92857
20
-8.43333
11
4.83333
21
-8.48095
0
LINE
8
BLACK
6
CONTINUOUS
10
4.83333
20
-8.48095
11
4.78571
21
-8.52857
0
LINE
8
BLACK
6
CONTINUOUS
10
4.78571
20
-8.52857
11
4.73809
21
-8.62381
0
LINE
8
BLACK
6
CONTINUOUS
10
3.2
20
2.2
11
0
21
2.2
0
LINE
8
BLACK
6
CONTINUOUS
10
0
20
-1.8
11
0
21
-2
0
LINE
8
BLACK
6
CONTINUOUS
10
0
20
-2
11
3.2
21
-2
0
LINE
8
BLACK
6
CONTINUOUS
10
0
20
2
11
-0.8
21
2
0
LINE
8
BLACK
6
CONTINUOUS
10
0
20
2.2
11
0
21
2
0
LINE
8
BLACK
6
CONTINUOUS
10
0
20
0.7
11
0
21
-0.5
0
LINE
8
BLACK
6
CONTINUOUS
10
3.2
20
-2
11
3.2
21
-1.8
0
LINE
8
BLACK
6
CONTINUOUS
10
3.2
20
2
11
3.2
21
2.2
0
LINE
8
BLACK
6
CONTINUOUS
10
9.35
20
-3.255
11
12.25
21
-3.255
0
LINE
8
BLACK
6
CONTINUOUS
10
9.35
20
3.455
11
12.25
21
3.455
0
LINE
8
BLACK
6
CONTINUOUS
10
7.445
20
1.55
11
7.445
21
-1.35
0
LINE
8
BLACK
6
CONTINUOUS
10
14.155
20
1.55
11
14.155
21
-1.35
  0
ENDSEC
  0
EOF
