  0
SECTION
  2
HEADER
  9
$ANGBASE
  50
0.0
  9
$ANGDIR
  70
1
  9
$MEASUREMENT
  70
0
  0
ENDSEC
  0
SECTION
  2
TABLES
  0
TABLE
  2
LTYPE
  70
4
  0
LTYPE
  5
40F
  2
CONTINUOUS
  70
0
  3
Solid line
  72
65
  73
0
  40
0.0
  0
LTYPE
  5
410
  2
DASHDOT
 70
0
  3
Dash Dot ____ _ ____ _
 72
65
 73
4
 40
2.0
 49
1.25
 49
-0.25
 49
0.25
 49
-0.25
  0
LTYPE
  5
411
  2
DASHED
 70
0
  3
Dashed __ __ __ __ __
 72
65
 73
2
 40
0.75
 49
0.5
 49
-0.25
  0
LTYPE
  5
43B
  2
DOTTED
 70
0
  3
Dotted .  .  .  .
 72
65
 73
2
 40
0.2
 49
0.0
 49
-0.2
  0
ENDTAB
  0
TABLE
  2
STYLE
  70
4
  0
STYLE
  2
KICAD
  70
0
  40
0
  41
1
  42
1
  50
0
  71
0
  3
isocp.shx
  0
STYLE
  2
KICADB
  70
0
  40
0
  41
1
  42
1
  50
0
  71
0
  3
isocp.shx
  0
STYLE
  2
KICADI
  70
0
  40
0
  41
1
  42
1
  50
15
  71
0
  3
isocp.shx
  0
STYLE
  2
KICADBI
  70
0
  40
0
  41
1
  42
1
  50
15
  71
0
  3
isocp.shx
  0
ENDTAB
  0
TABLE
  2
LAYER
  70
1
  0
LAYER
  2
BLACK
  70
0
  62
7
  6
CONTINUOUS
  0
ENDTAB
  0
ENDSEC
  0
SECTION
  2
ENTITIES
0
LINE
8
BLACK
6
CONTINUOUS
10
-0.715072
20
-0.136112
11
-0.715072
21
-0.111741
0
LINE
8
BLACK
6
CONTINUOUS
10
-0.715072
20
-0.111741
11
-0.700074
21
-0.124864
0
LINE
8
BLACK
6
CONTINUOUS
10
-0.700074
20
-0.124864
11
-0.700074
21
-0.11924
0
LINE
8
BLACK
6
CONTINUOUS
10
-0.700074
20
-0.11924
11
-0.698199
21
-0.11549
0
LINE
8
BLACK
6
CONTINUOUS
10
-0.698199
20
-0.11549
11
-0.696324
21
-0.113615
0
LINE
8
BLACK
6
CONTINUOUS
10
-0.696324
20
-0.113615
11
-0.692574
21
-0.111741
0
LINE
8
BLACK
6
CONTINUOUS
10
-0.692574
20
-0.111741
11
-0.683201
21
-0.111741
0
LINE
8
BLACK
6
CONTINUOUS
10
-0.683201
20
-0.111741
11
-0.679451
21
-0.113615
0
LINE
8
BLACK
6
CONTINUOUS
10
-0.679451
20
-0.113615
11
-0.677576
21
-0.11549
0
LINE
8
BLACK
6
CONTINUOUS
10
-0.677576
20
-0.11549
11
-0.675702
21
-0.11924
0
LINE
8
BLACK
6
CONTINUOUS
10
-0.675702
20
-0.11924
11
-0.675702
21
-0.130488
0
LINE
8
BLACK
6
CONTINUOUS
10
-0.675702
20
-0.130488
11
-0.677576
21
-0.134238
0
LINE
8
BLACK
6
CONTINUOUS
10
-0.677576
20
-0.134238
11
-0.679451
21
-0.136112
0
LINE
8
BLACK
6
CONTINUOUS
10
-0.675702
20
-0.0986172
11
-0.701948
21
-0.0779947
0
LINE
8
BLACK
6
CONTINUOUS
10
-0.701948
20
-0.0986172
11
-0.675702
21
-0.0779947
0
LINE
8
BLACK
6
CONTINUOUS
10
-0.715072
20
-0.0367499
11
-0.715072
21
-0.012378
0
LINE
8
BLACK
6
CONTINUOUS
10
-0.715072
20
-0.012378
11
-0.700074
21
-0.0255013
0
LINE
8
BLACK
6
CONTINUOUS
10
-0.700074
20
-0.0255013
11
-0.700074
21
-0.019877
0
LINE
8
BLACK
6
CONTINUOUS
10
-0.700074
20
-0.019877
11
-0.698199
21
-0.0161275
0
LINE
8
BLACK
6
CONTINUOUS
10
-0.698199
20
-0.0161275
11
-0.696324
21
-0.0142527
0
LINE
8
BLACK
6
CONTINUOUS
10
-0.696324
20
-0.0142527
11
-0.692574
21
-0.012378
0
LINE
8
BLACK
6
CONTINUOUS
10
-0.692574
20
-0.012378
11
-0.683201
21
-0.012378
0
LINE
8
BLACK
6
CONTINUOUS
10
-0.683201
20
-0.012378
11
-0.679451
21
-0.0142527
0
LINE
8
BLACK
6
CONTINUOUS
10
-0.679451
20
-0.0142527
11
-0.677576
21
-0.0161275
0
LINE
8
BLACK
6
CONTINUOUS
10
-0.677576
20
-0.0161275
11
-0.675702
21
-0.019877
0
LINE
8
BLACK
6
CONTINUOUS
10
-0.675702
20
-0.019877
11
-0.675702
21
-0.0311256
0
LINE
8
BLACK
6
CONTINUOUS
10
-0.675702
20
-0.0311256
11
-0.677576
21
-0.0348751
0
LINE
8
BLACK
6
CONTINUOUS
10
-0.677576
20
-0.0348751
11
-0.679451
21
-0.0367499
0
LINE
8
BLACK
6
CONTINUOUS
10
-0.679451
20
0.00449496
11
-0.677576
21
0.00636972
0
LINE
8
BLACK
6
CONTINUOUS
10
-0.677576
20
0.00636972
11
-0.675702
21
0.00449496
0
LINE
8
BLACK
6
CONTINUOUS
10
-0.675702
20
0.00449496
11
-0.677576
21
0.0026202
0
LINE
8
BLACK
6
CONTINUOUS
10
-0.677576
20
0.0026202
11
-0.679451
21
0.00449496
0
LINE
8
BLACK
6
CONTINUOUS
10
-0.679451
20
0.00449496
11
-0.675702
21
0.00449496
0
LINE
8
BLACK
6
CONTINUOUS
10
-0.711322
20
0.0213678
11
-0.713197
21
0.0232426
0
LINE
8
BLACK
6
CONTINUOUS
10
-0.713197
20
0.0232426
11
-0.715072
21
0.0269921
0
LINE
8
BLACK
6
CONTINUOUS
10
-0.715072
20
0.0269921
11
-0.715072
21
0.036366
0
LINE
8
BLACK
6
CONTINUOUS
10
-0.715072
20
0.036366
11
-0.713197
21
0.0401155
0
LINE
8
BLACK
6
CONTINUOUS
10
-0.713197
20
0.0401155
11
-0.711322
21
0.0419903
0
LINE
8
BLACK
6
CONTINUOUS
10
-0.711322
20
0.0419903
11
-0.707573
21
0.043865
0
LINE
8
BLACK
6
CONTINUOUS
10
-0.707573
20
0.043865
11
-0.703823
21
0.043865
0
LINE
8
BLACK
6
CONTINUOUS
10
-0.703823
20
0.043865
11
-0.698199
21
0.0419903
0
LINE
8
BLACK
6
CONTINUOUS
10
-0.698199
20
0.0419903
11
-0.675702
21
0.0194931
0
LINE
8
BLACK
6
CONTINUOUS
10
-0.675702
20
0.0194931
11
-0.675702
21
0.043865
0
LINE
8
BLACK
6
CONTINUOUS
10
-0.675702
20
0.0607379
11
-0.701948
21
0.0607379
0
LINE
8
BLACK
6
CONTINUOUS
10
-0.698199
20
0.0607379
11
-0.700074
21
0.0626127
0
LINE
8
BLACK
6
CONTINUOUS
10
-0.700074
20
0.0626127
11
-0.701948
21
0.0663622
0
LINE
8
BLACK
6
CONTINUOUS
10
-0.701948
20
0.0663622
11
-0.701948
21
0.0719865
0
LINE
8
BLACK
6
CONTINUOUS
10
-0.701948
20
0.0719865
11
-0.700074
21
0.0757361
0
LINE
8
BLACK
6
CONTINUOUS
10
-0.700074
20
0.0757361
11
-0.696324
21
0.0776108
0
LINE
8
BLACK
6
CONTINUOUS
10
-0.696324
20
0.0776108
11
-0.675702
21
0.0776108
0
LINE
8
BLACK
6
CONTINUOUS
10
-0.696324
20
0.0776108
11
-0.700074
21
0.0794856
0
LINE
8
BLACK
6
CONTINUOUS
10
-0.700074
20
0.0794856
11
-0.701948
21
0.0832351
0
LINE
8
BLACK
6
CONTINUOUS
10
-0.701948
20
0.0832351
11
-0.701948
21
0.0888594
0
LINE
8
BLACK
6
CONTINUOUS
10
-0.701948
20
0.0888594
11
-0.700074
21
0.0926089
0
LINE
8
BLACK
6
CONTINUOUS
10
-0.700074
20
0.0926089
11
-0.696324
21
0.0944837
0
LINE
8
BLACK
6
CONTINUOUS
10
-0.696324
20
0.0944837
11
-0.675702
21
0.0944837
0
LINE
8
BLACK
6
CONTINUOUS
10
-0.675702
20
0.113231
11
-0.701948
21
0.113231
0
LINE
8
BLACK
6
CONTINUOUS
10
-0.698199
20
0.113231
11
-0.700074
21
0.115106
0
LINE
8
BLACK
6
CONTINUOUS
10
-0.700074
20
0.115106
11
-0.701948
21
0.118856
0
LINE
8
BLACK
6
CONTINUOUS
10
-0.701948
20
0.118856
11
-0.701948
21
0.12448
0
LINE
8
BLACK
6
CONTINUOUS
10
-0.701948
20
0.12448
11
-0.700074
21
0.128229
0
LINE
8
BLACK
6
CONTINUOUS
10
-0.700074
20
0.128229
11
-0.696324
21
0.130104
0
LINE
8
BLACK
6
CONTINUOUS
10
-0.696324
20
0.130104
11
-0.675702
21
0.130104
0
LINE
8
BLACK
6
CONTINUOUS
10
-0.696324
20
0.130104
11
-0.700074
21
0.131979
0
LINE
8
BLACK
6
CONTINUOUS
10
-0.700074
20
0.131979
11
-0.701948
21
0.135729
0
LINE
8
BLACK
6
CONTINUOUS
10
-0.701948
20
0.135729
11
-0.701948
21
0.141353
0
LINE
8
BLACK
6
CONTINUOUS
10
-0.701948
20
0.141353
11
-0.700074
21
0.145102
0
LINE
8
BLACK
6
CONTINUOUS
10
-0.700074
20
0.145102
11
-0.696324
21
0.146977
0
LINE
8
BLACK
6
CONTINUOUS
10
-0.696324
20
0.146977
11
-0.675702
21
0.146977
0
LINE
8
BLACK
6
CONTINUOUS
10
1.01291
20
-0.193672
11
0.994165
21
-0.206796
0
LINE
8
BLACK
6
CONTINUOUS
10
1.01291
20
-0.216169
11
0.973543
21
-0.216169
0
LINE
8
BLACK
6
CONTINUOUS
10
0.973543
20
-0.216169
11
0.973543
21
-0.201171
0
LINE
8
BLACK
6
CONTINUOUS
10
0.973543
20
-0.201171
11
0.975417
21
-0.197422
0
LINE
8
BLACK
6
CONTINUOUS
10
0.975417
20
-0.197422
11
0.977292
21
-0.195547
0
LINE
8
BLACK
6
CONTINUOUS
10
0.977292
20
-0.195547
11
0.981042
21
-0.193672
0
LINE
8
BLACK
6
CONTINUOUS
10
0.981042
20
-0.193672
11
0.986666
21
-0.193672
0
LINE
8
BLACK
6
CONTINUOUS
10
0.986666
20
-0.193672
11
0.990415
21
-0.195547
0
LINE
8
BLACK
6
CONTINUOUS
10
0.990415
20
-0.195547
11
0.99229
21
-0.197422
0
LINE
8
BLACK
6
CONTINUOUS
10
0.99229
20
-0.197422
11
0.994165
21
-0.201171
0
LINE
8
BLACK
6
CONTINUOUS
10
0.994165
20
-0.201171
11
0.994165
21
-0.216169
0
LINE
8
BLACK
6
CONTINUOUS
10
0.99229
20
-0.163676
11
0.99229
21
-0.176799
0
LINE
8
BLACK
6
CONTINUOUS
10
1.01291
20
-0.176799
11
0.973543
21
-0.176799
0
LINE
8
BLACK
6
CONTINUOUS
10
0.973543
20
-0.176799
11
0.973543
21
-0.158052
0
LINE
8
BLACK
6
CONTINUOUS
10
1.01104
20
-0.0961844
11
1.01291
21
-0.099934
0
LINE
8
BLACK
6
CONTINUOUS
10
1.01291
20
-0.099934
11
1.01291
21
-0.107433
0
LINE
8
BLACK
6
CONTINUOUS
10
1.01291
20
-0.107433
11
1.01104
21
-0.111183
0
LINE
8
BLACK
6
CONTINUOUS
10
1.01104
20
-0.111183
11
1.00916
21
-0.113057
0
LINE
8
BLACK
6
CONTINUOUS
10
1.00916
20
-0.113057
11
1.00541
21
-0.114932
0
LINE
8
BLACK
6
CONTINUOUS
10
1.00541
20
-0.114932
11
0.994165
21
-0.114932
0
LINE
8
BLACK
6
CONTINUOUS
10
0.994165
20
-0.114932
11
0.990415
21
-0.113057
0
LINE
8
BLACK
6
CONTINUOUS
10
0.990415
20
-0.113057
11
0.988541
21
-0.111183
0
LINE
8
BLACK
6
CONTINUOUS
10
0.988541
20
-0.111183
11
0.986666
21
-0.107433
0
LINE
8
BLACK
6
CONTINUOUS
10
0.986666
20
-0.107433
11
0.986666
21
-0.099934
0
LINE
8
BLACK
6
CONTINUOUS
10
0.986666
20
-0.099934
11
0.988541
21
-0.0961844
0
LINE
8
BLACK
6
CONTINUOUS
10
1.01291
20
-0.0736873
11
1.01104
21
-0.0774368
0
LINE
8
BLACK
6
CONTINUOUS
10
1.01104
20
-0.0774368
11
1.00916
21
-0.0793116
0
LINE
8
BLACK
6
CONTINUOUS
10
1.00916
20
-0.0793116
11
1.00541
21
-0.0811863
0
LINE
8
BLACK
6
CONTINUOUS
10
1.00541
20
-0.0811863
11
0.994165
21
-0.0811863
0
LINE
8
BLACK
6
CONTINUOUS
10
0.994165
20
-0.0811863
11
0.990415
21
-0.0793116
0
LINE
8
BLACK
6
CONTINUOUS
10
0.990415
20
-0.0793116
11
0.988541
21
-0.0774368
0
LINE
8
BLACK
6
CONTINUOUS
10
0.988541
20
-0.0774368
11
0.986666
21
-0.0736873
0
LINE
8
BLACK
6
CONTINUOUS
10
0.986666
20
-0.0736873
11
0.986666
21
-0.068063
0
LINE
8
BLACK
6
CONTINUOUS
10
0.986666
20
-0.068063
11
0.988541
21
-0.0643134
0
LINE
8
BLACK
6
CONTINUOUS
10
0.988541
20
-0.0643134
11
0.990415
21
-0.0624387
0
LINE
8
BLACK
6
CONTINUOUS
10
0.990415
20
-0.0624387
11
0.994165
21
-0.0605639
0
LINE
8
BLACK
6
CONTINUOUS
10
0.994165
20
-0.0605639
11
1.00541
21
-0.0605639
0
LINE
8
BLACK
6
CONTINUOUS
10
1.00541
20
-0.0605639
11
1.00916
21
-0.0624387
0
LINE
8
BLACK
6
CONTINUOUS
10
1.00916
20
-0.0624387
11
1.01104
21
-0.0643134
0
LINE
8
BLACK
6
CONTINUOUS
10
1.01104
20
-0.0643134
11
1.01291
21
-0.068063
0
LINE
8
BLACK
6
CONTINUOUS
10
1.01291
20
-0.068063
11
1.01291
21
-0.0736873
0
LINE
8
BLACK
6
CONTINUOUS
10
0.986666
20
-0.043691
11
1.01291
21
-0.043691
0
LINE
8
BLACK
6
CONTINUOUS
10
0.990415
20
-0.043691
11
0.988541
21
-0.0418163
0
LINE
8
BLACK
6
CONTINUOUS
10
0.988541
20
-0.0418163
11
0.986666
21
-0.0380667
0
LINE
8
BLACK
6
CONTINUOUS
10
0.986666
20
-0.0380667
11
0.986666
21
-0.0324424
0
LINE
8
BLACK
6
CONTINUOUS
10
0.986666
20
-0.0324424
11
0.988541
21
-0.0286929
0
LINE
8
BLACK
6
CONTINUOUS
10
0.988541
20
-0.0286929
11
0.99229
21
-0.0268181
0
LINE
8
BLACK
6
CONTINUOUS
10
0.99229
20
-0.0268181
11
1.01291
21
-0.0268181
0
LINE
8
BLACK
6
CONTINUOUS
10
0.986666
20
-0.00807047
11
1.01291
21
-0.00807047
0
LINE
8
BLACK
6
CONTINUOUS
10
0.990415
20
-0.00807047
11
0.988541
21
-0.00619571
0
LINE
8
BLACK
6
CONTINUOUS
10
0.988541
20
-0.00619571
11
0.986666
21
-0.00244618
0
LINE
8
BLACK
6
CONTINUOUS
10
0.986666
20
-0.00244618
11
0.986666
21
0.00317811
0
LINE
8
BLACK
6
CONTINUOUS
10
0.986666
20
0.00317811
11
0.988541
21
0.00692764
0
LINE
8
BLACK
6
CONTINUOUS
10
0.988541
20
0.00692764
11
0.99229
21
0.0088024
0
LINE
8
BLACK
6
CONTINUOUS
10
0.99229
20
0.0088024
11
1.01291
21
0.0088024
0
LINE
8
BLACK
6
CONTINUOUS
10
1.01104
20
0.0425482
11
1.01291
21
0.0387987
0
LINE
8
BLACK
6
CONTINUOUS
10
1.01291
20
0.0387987
11
1.01291
21
0.0312996
0
LINE
8
BLACK
6
CONTINUOUS
10
1.01291
20
0.0312996
11
1.01104
21
0.0275501
0
LINE
8
BLACK
6
CONTINUOUS
10
1.01104
20
0.0275501
11
1.00729
21
0.0256753
0
LINE
8
BLACK
6
CONTINUOUS
10
1.00729
20
0.0256753
11
0.99229
21
0.0256753
0
LINE
8
BLACK
6
CONTINUOUS
10
0.99229
20
0.0256753
11
0.988541
21
0.0275501
0
LINE
8
BLACK
6
CONTINUOUS
10
0.988541
20
0.0275501
11
0.986666
21
0.0312996
0
LINE
8
BLACK
6
CONTINUOUS
10
0.986666
20
0.0312996
11
0.986666
21
0.0387987
0
LINE
8
BLACK
6
CONTINUOUS
10
0.986666
20
0.0387987
11
0.988541
21
0.0425482
0
LINE
8
BLACK
6
CONTINUOUS
10
0.988541
20
0.0425482
11
0.99229
21
0.044423
0
LINE
8
BLACK
6
CONTINUOUS
10
0.99229
20
0.044423
11
0.99604
21
0.044423
0
LINE
8
BLACK
6
CONTINUOUS
10
0.99604
20
0.044423
11
0.999789
21
0.0256753
0
LINE
8
BLACK
6
CONTINUOUS
10
1.01104
20
0.0781687
11
1.01291
21
0.0744192
0
LINE
8
BLACK
6
CONTINUOUS
10
1.01291
20
0.0744192
11
1.01291
21
0.0669202
0
LINE
8
BLACK
6
CONTINUOUS
10
1.01291
20
0.0669202
11
1.01104
21
0.0631706
0
LINE
8
BLACK
6
CONTINUOUS
10
1.01104
20
0.0631706
11
1.00916
21
0.0612959
0
LINE
8
BLACK
6
CONTINUOUS
10
1.00916
20
0.0612959
11
1.00541
21
0.0594211
0
LINE
8
BLACK
6
CONTINUOUS
10
1.00541
20
0.0594211
11
0.994165
21
0.0594211
0
LINE
8
BLACK
6
CONTINUOUS
10
0.994165
20
0.0594211
11
0.990415
21
0.0612959
0
LINE
8
BLACK
6
CONTINUOUS
10
0.990415
20
0.0612959
11
0.988541
21
0.0631706
0
LINE
8
BLACK
6
CONTINUOUS
10
0.988541
20
0.0631706
11
0.986666
21
0.0669202
0
LINE
8
BLACK
6
CONTINUOUS
10
0.986666
20
0.0669202
11
0.986666
21
0.0744192
0
LINE
8
BLACK
6
CONTINUOUS
10
0.986666
20
0.0744192
11
0.988541
21
0.0781687
0
LINE
8
BLACK
6
CONTINUOUS
10
0.986666
20
0.0894173
11
0.986666
21
0.104415
0
LINE
8
BLACK
6
CONTINUOUS
10
0.973543
20
0.0950417
11
1.00729
21
0.0950417
0
LINE
8
BLACK
6
CONTINUOUS
10
1.00729
20
0.0950417
11
1.01104
21
0.0969164
0
LINE
8
BLACK
6
CONTINUOUS
10
1.01104
20
0.0969164
11
1.01291
21
0.100666
0
LINE
8
BLACK
6
CONTINUOUS
10
1.01291
20
0.100666
11
1.01291
21
0.104415
0
LINE
8
BLACK
6
CONTINUOUS
10
1.01291
20
0.123163
11
1.01104
21
0.119414
0
LINE
8
BLACK
6
CONTINUOUS
10
1.01104
20
0.119414
11
1.00916
21
0.117539
0
LINE
8
BLACK
6
CONTINUOUS
10
1.00916
20
0.117539
11
1.00541
21
0.115664
0
LINE
8
BLACK
6
CONTINUOUS
10
1.00541
20
0.115664
11
0.994165
21
0.115664
0
LINE
8
BLACK
6
CONTINUOUS
10
0.994165
20
0.115664
11
0.990415
21
0.117539
0
LINE
8
BLACK
6
CONTINUOUS
10
0.990415
20
0.117539
11
0.988541
21
0.119414
0
LINE
8
BLACK
6
CONTINUOUS
10
0.988541
20
0.119414
11
0.986666
21
0.123163
0
LINE
8
BLACK
6
CONTINUOUS
10
0.986666
20
0.123163
11
0.986666
21
0.128787
0
LINE
8
BLACK
6
CONTINUOUS
10
0.986666
20
0.128787
11
0.988541
21
0.132537
0
LINE
8
BLACK
6
CONTINUOUS
10
0.988541
20
0.132537
11
0.990415
21
0.134412
0
LINE
8
BLACK
6
CONTINUOUS
10
0.990415
20
0.134412
11
0.994165
21
0.136286
0
LINE
8
BLACK
6
CONTINUOUS
10
0.994165
20
0.136286
11
1.00541
21
0.136286
0
LINE
8
BLACK
6
CONTINUOUS
10
1.00541
20
0.136286
11
1.00916
21
0.134412
0
LINE
8
BLACK
6
CONTINUOUS
10
1.00916
20
0.134412
11
1.01104
21
0.132537
0
LINE
8
BLACK
6
CONTINUOUS
10
1.01104
20
0.132537
11
1.01291
21
0.128787
0
LINE
8
BLACK
6
CONTINUOUS
10
1.01291
20
0.128787
11
1.01291
21
0.123163
0
LINE
8
BLACK
6
CONTINUOUS
10
1.01291
20
0.153159
11
0.986666
21
0.153159
0
LINE
8
BLACK
6
CONTINUOUS
10
0.994165
20
0.153159
11
0.990415
21
0.155034
0
LINE
8
BLACK
6
CONTINUOUS
10
0.990415
20
0.155034
11
0.988541
21
0.156909
0
LINE
8
BLACK
6
CONTINUOUS
10
0.988541
20
0.156909
11
0.986666
21
0.160658
0
LINE
8
BLACK
6
CONTINUOUS
10
0.986666
20
0.160658
11
0.986666
21
0.164408
0
LINE
8
BLACK
6
CONTINUOUS
10
1.0763
20
-0.44864
11
1.05005
21
-0.44864
0
LINE
8
BLACK
6
CONTINUOUS
10
1.0538
20
-0.44864
11
1.05193
21
-0.446766
0
LINE
8
BLACK
6
CONTINUOUS
10
1.05193
20
-0.446766
11
1.05005
21
-0.443016
0
LINE
8
BLACK
6
CONTINUOUS
10
1.05005
20
-0.443016
11
1.05005
21
-0.437392
0
LINE
8
BLACK
6
CONTINUOUS
10
1.05005
20
-0.437392
11
1.05193
21
-0.433642
0
LINE
8
BLACK
6
CONTINUOUS
10
1.05193
20
-0.433642
11
1.05568
21
-0.431768
0
LINE
8
BLACK
6
CONTINUOUS
10
1.05568
20
-0.431768
11
1.0763
21
-0.431768
0
LINE
8
BLACK
6
CONTINUOUS
10
1.05568
20
-0.431768
11
1.05193
21
-0.429893
0
LINE
8
BLACK
6
CONTINUOUS
10
1.05193
20
-0.429893
11
1.05005
21
-0.426143
0
LINE
8
BLACK
6
CONTINUOUS
10
1.05005
20
-0.426143
11
1.05005
21
-0.420519
0
LINE
8
BLACK
6
CONTINUOUS
10
1.05005
20
-0.420519
11
1.05193
21
-0.416769
0
LINE
8
BLACK
6
CONTINUOUS
10
1.05193
20
-0.416769
11
1.05568
21
-0.414895
0
LINE
8
BLACK
6
CONTINUOUS
10
1.05568
20
-0.414895
11
1.0763
21
-0.414895
0
LINE
8
BLACK
6
CONTINUOUS
10
1.0763
20
-0.396147
11
1.05005
21
-0.396147
0
LINE
8
BLACK
6
CONTINUOUS
10
1.03693
20
-0.396147
11
1.0388
21
-0.398022
0
LINE
8
BLACK
6
CONTINUOUS
10
1.0388
20
-0.398022
11
1.04068
21
-0.396147
0
LINE
8
BLACK
6
CONTINUOUS
10
1.04068
20
-0.396147
11
1.0388
21
-0.394272
0
LINE
8
BLACK
6
CONTINUOUS
10
1.0388
20
-0.394272
11
1.03693
21
-0.396147
0
LINE
8
BLACK
6
CONTINUOUS
10
1.03693
20
-0.396147
11
1.04068
21
-0.396147
0
LINE
8
BLACK
6
CONTINUOUS
10
1.05005
20
-0.377399
11
1.0763
21
-0.377399
0
LINE
8
BLACK
6
CONTINUOUS
10
1.0538
20
-0.377399
11
1.05193
21
-0.375525
0
LINE
8
BLACK
6
CONTINUOUS
10
1.05193
20
-0.375525
11
1.05005
21
-0.371775
0
LINE
8
BLACK
6
CONTINUOUS
10
1.05005
20
-0.371775
11
1.05005
21
-0.366151
0
LINE
8
BLACK
6
CONTINUOUS
10
1.05005
20
-0.366151
11
1.05193
21
-0.362401
0
LINE
8
BLACK
6
CONTINUOUS
10
1.05193
20
-0.362401
11
1.05568
21
-0.360526
0
LINE
8
BLACK
6
CONTINUOUS
10
1.05568
20
-0.360526
11
1.0763
21
-0.360526
0
LINE
8
BLACK
6
CONTINUOUS
10
1.0763
20
-0.341779
11
1.05005
21
-0.341779
0
LINE
8
BLACK
6
CONTINUOUS
10
1.03693
20
-0.341779
11
1.0388
21
-0.343654
0
LINE
8
BLACK
6
CONTINUOUS
10
1.0388
20
-0.343654
11
1.04068
21
-0.341779
0
LINE
8
BLACK
6
CONTINUOUS
10
1.04068
20
-0.341779
11
1.0388
21
-0.339904
0
LINE
8
BLACK
6
CONTINUOUS
10
1.0388
20
-0.339904
11
1.03693
21
-0.341779
0
LINE
8
BLACK
6
CONTINUOUS
10
1.03693
20
-0.341779
11
1.04068
21
-0.341779
0
LINE
8
BLACK
6
CONTINUOUS
10
1.0763
20
-0.323031
11
1.05005
21
-0.323031
0
LINE
8
BLACK
6
CONTINUOUS
10
1.0538
20
-0.323031
11
1.05193
21
-0.321156
0
LINE
8
BLACK
6
CONTINUOUS
10
1.05193
20
-0.321156
11
1.05005
21
-0.317407
0
LINE
8
BLACK
6
CONTINUOUS
10
1.05005
20
-0.317407
11
1.05005
21
-0.311783
0
LINE
8
BLACK
6
CONTINUOUS
10
1.05005
20
-0.311783
11
1.05193
21
-0.308033
0
LINE
8
BLACK
6
CONTINUOUS
10
1.05193
20
-0.308033
11
1.05568
21
-0.306158
0
LINE
8
BLACK
6
CONTINUOUS
10
1.05568
20
-0.306158
11
1.0763
21
-0.306158
0
LINE
8
BLACK
6
CONTINUOUS
10
1.05568
20
-0.306158
11
1.05193
21
-0.304283
0
LINE
8
BLACK
6
CONTINUOUS
10
1.05193
20
-0.304283
11
1.05005
21
-0.300534
0
LINE
8
BLACK
6
CONTINUOUS
10
1.05005
20
-0.300534
11
1.05005
21
-0.29491
0
LINE
8
BLACK
6
CONTINUOUS
10
1.05005
20
-0.29491
11
1.05193
21
-0.29116
0
LINE
8
BLACK
6
CONTINUOUS
10
1.05193
20
-0.29116
11
1.05568
21
-0.289285
0
LINE
8
BLACK
6
CONTINUOUS
10
1.05568
20
-0.289285
11
1.0763
21
-0.289285
0
LINE
8
BLACK
6
CONTINUOUS
10
1.05005
20
-0.253665
11
1.0763
21
-0.253665
0
LINE
8
BLACK
6
CONTINUOUS
10
1.05005
20
-0.270538
11
1.07067
21
-0.270538
0
LINE
8
BLACK
6
CONTINUOUS
10
1.07067
20
-0.270538
11
1.07442
21
-0.268663
0
LINE
8
BLACK
6
CONTINUOUS
10
1.07442
20
-0.268663
11
1.0763
21
-0.264913
0
LINE
8
BLACK
6
CONTINUOUS
10
1.0763
20
-0.264913
11
1.0763
21
-0.259289
0
LINE
8
BLACK
6
CONTINUOUS
10
1.0763
20
-0.259289
11
1.07442
21
-0.25554
0
LINE
8
BLACK
6
CONTINUOUS
10
1.07442
20
-0.25554
11
1.07255
21
-0.253665
0
LINE
8
BLACK
6
CONTINUOUS
10
1.0763
20
-0.234917
11
1.05005
21
-0.234917
0
LINE
8
BLACK
6
CONTINUOUS
10
1.0538
20
-0.234917
11
1.05193
21
-0.233042
0
LINE
8
BLACK
6
CONTINUOUS
10
1.05193
20
-0.233042
11
1.05005
21
-0.229293
0
LINE
8
BLACK
6
CONTINUOUS
10
1.05005
20
-0.229293
11
1.05005
21
-0.223669
0
LINE
8
BLACK
6
CONTINUOUS
10
1.05005
20
-0.223669
11
1.05193
21
-0.219919
0
LINE
8
BLACK
6
CONTINUOUS
10
1.05193
20
-0.219919
11
1.05568
21
-0.218044
0
LINE
8
BLACK
6
CONTINUOUS
10
1.05568
20
-0.218044
11
1.0763
21
-0.218044
0
LINE
8
BLACK
6
CONTINUOUS
10
1.05568
20
-0.218044
11
1.05193
21
-0.216169
0
LINE
8
BLACK
6
CONTINUOUS
10
1.05193
20
-0.216169
11
1.05005
21
-0.21242
0
LINE
8
BLACK
6
CONTINUOUS
10
1.05005
20
-0.21242
11
1.05005
21
-0.206796
0
LINE
8
BLACK
6
CONTINUOUS
10
1.05005
20
-0.206796
11
1.05193
21
-0.203046
0
LINE
8
BLACK
6
CONTINUOUS
10
1.05193
20
-0.203046
11
1.05568
21
-0.201171
0
LINE
8
BLACK
6
CONTINUOUS
10
1.05568
20
-0.201171
11
1.0763
21
-0.201171
0
LINE
8
BLACK
6
CONTINUOUS
10
1.0763
20
-0.152427
11
1.05005
21
-0.152427
0
LINE
8
BLACK
6
CONTINUOUS
10
1.03693
20
-0.152427
11
1.0388
21
-0.154302
0
LINE
8
BLACK
6
CONTINUOUS
10
1.0388
20
-0.154302
11
1.04068
21
-0.152427
0
LINE
8
BLACK
6
CONTINUOUS
10
1.04068
20
-0.152427
11
1.0388
21
-0.150553
0
LINE
8
BLACK
6
CONTINUOUS
10
1.0388
20
-0.150553
11
1.03693
21
-0.152427
0
LINE
8
BLACK
6
CONTINUOUS
10
1.03693
20
-0.152427
11
1.04068
21
-0.152427
0
LINE
8
BLACK
6
CONTINUOUS
10
1.05005
20
-0.13368
11
1.0763
21
-0.13368
0
LINE
8
BLACK
6
CONTINUOUS
10
1.0538
20
-0.13368
11
1.05193
21
-0.131805
0
LINE
8
BLACK
6
CONTINUOUS
10
1.05193
20
-0.131805
11
1.05005
21
-0.128055
0
LINE
8
BLACK
6
CONTINUOUS
10
1.05005
20
-0.128055
11
1.05005
21
-0.122431
0
LINE
8
BLACK
6
CONTINUOUS
10
1.05005
20
-0.122431
11
1.05193
21
-0.118682
0
LINE
8
BLACK
6
CONTINUOUS
10
1.05193
20
-0.118682
11
1.05568
21
-0.116807
0
LINE
8
BLACK
6
CONTINUOUS
10
1.05568
20
-0.116807
11
1.0763
21
-0.116807
0
LINE
8
BLACK
6
CONTINUOUS
10
1.07442
20
-0.099934
11
1.0763
21
-0.0961844
0
LINE
8
BLACK
6
CONTINUOUS
10
1.0763
20
-0.0961844
11
1.0763
21
-0.0886854
0
LINE
8
BLACK
6
CONTINUOUS
10
1.0763
20
-0.0886854
11
1.07442
21
-0.0849359
0
LINE
8
BLACK
6
CONTINUOUS
10
1.07442
20
-0.0849359
11
1.07067
21
-0.0830611
0
LINE
8
BLACK
6
CONTINUOUS
10
1.07067
20
-0.0830611
11
1.0688
21
-0.0830611
0
LINE
8
BLACK
6
CONTINUOUS
10
1.0688
20
-0.0830611
11
1.06505
21
-0.0849359
0
LINE
8
BLACK
6
CONTINUOUS
10
1.06505
20
-0.0849359
11
1.06318
21
-0.0886854
0
LINE
8
BLACK
6
CONTINUOUS
10
1.06318
20
-0.0886854
11
1.06318
21
-0.0943097
0
LINE
8
BLACK
6
CONTINUOUS
10
1.06318
20
-0.0943097
11
1.0613
21
-0.0980592
0
LINE
8
BLACK
6
CONTINUOUS
10
1.0613
20
-0.0980592
11
1.05755
21
-0.099934
0
LINE
8
BLACK
6
CONTINUOUS
10
1.05755
20
-0.099934
11
1.05568
21
-0.099934
0
LINE
8
BLACK
6
CONTINUOUS
10
1.05568
20
-0.099934
11
1.05193
21
-0.0980592
0
LINE
8
BLACK
6
CONTINUOUS
10
1.05193
20
-0.0980592
11
1.05005
21
-0.0943097
0
LINE
8
BLACK
6
CONTINUOUS
10
1.05005
20
-0.0943097
11
1.05005
21
-0.0886854
0
LINE
8
BLACK
6
CONTINUOUS
10
1.05005
20
-0.0886854
11
1.05193
21
-0.0849359
0
LINE
8
BLACK
6
CONTINUOUS
10
1.05005
20
-0.0661882
11
1.08942
21
-0.0661882
0
LINE
8
BLACK
6
CONTINUOUS
10
1.05193
20
-0.0661882
11
1.05005
21
-0.0624387
0
LINE
8
BLACK
6
CONTINUOUS
10
1.05005
20
-0.0624387
11
1.05005
21
-0.0549396
0
LINE
8
BLACK
6
CONTINUOUS
10
1.05005
20
-0.0549396
11
1.05193
21
-0.0511901
0
LINE
8
BLACK
6
CONTINUOUS
10
1.05193
20
-0.0511901
11
1.0538
21
-0.0493153
0
LINE
8
BLACK
6
CONTINUOUS
10
1.0538
20
-0.0493153
11
1.05755
21
-0.0474406
0
LINE
8
BLACK
6
CONTINUOUS
10
1.05755
20
-0.0474406
11
1.0688
21
-0.0474406
0
LINE
8
BLACK
6
CONTINUOUS
10
1.0688
20
-0.0474406
11
1.07255
21
-0.0493153
0
LINE
8
BLACK
6
CONTINUOUS
10
1.07255
20
-0.0493153
11
1.07442
21
-0.0511901
0
LINE
8
BLACK
6
CONTINUOUS
10
1.07442
20
-0.0511901
11
1.0763
21
-0.0549396
0
LINE
8
BLACK
6
CONTINUOUS
10
1.0763
20
-0.0549396
11
1.0763
21
-0.0624387
0
LINE
8
BLACK
6
CONTINUOUS
10
1.0763
20
-0.0624387
11
1.07442
21
-0.0661882
0
LINE
8
BLACK
6
CONTINUOUS
10
1.07442
20
-0.0155695
11
1.0763
21
-0.0193191
0
LINE
8
BLACK
6
CONTINUOUS
10
1.0763
20
-0.0193191
11
1.0763
21
-0.0268181
0
LINE
8
BLACK
6
CONTINUOUS
10
1.0763
20
-0.0268181
11
1.07442
21
-0.0305677
0
LINE
8
BLACK
6
CONTINUOUS
10
1.07442
20
-0.0305677
11
1.07067
21
-0.0324424
0
LINE
8
BLACK
6
CONTINUOUS
10
1.07067
20
-0.0324424
11
1.05568
21
-0.0324424
0
LINE
8
BLACK
6
CONTINUOUS
10
1.05568
20
-0.0324424
11
1.05193
21
-0.0305677
0
LINE
8
BLACK
6
CONTINUOUS
10
1.05193
20
-0.0305677
11
1.05005
21
-0.0268181
0
LINE
8
BLACK
6
CONTINUOUS
10
1.05005
20
-0.0268181
11
1.05005
21
-0.0193191
0
LINE
8
BLACK
6
CONTINUOUS
10
1.05005
20
-0.0193191
11
1.05193
21
-0.0155695
0
LINE
8
BLACK
6
CONTINUOUS
10
1.05193
20
-0.0155695
11
1.05568
21
-0.0136948
0
LINE
8
BLACK
6
CONTINUOUS
10
1.05568
20
-0.0136948
11
1.05943
21
-0.0136948
0
LINE
8
BLACK
6
CONTINUOUS
10
1.05943
20
-0.0136948
11
1.06318
21
-0.0324424
0
LINE
8
BLACK
6
CONTINUOUS
10
1.07442
20
0.020051
11
1.0763
21
0.0163015
0
LINE
8
BLACK
6
CONTINUOUS
10
1.0763
20
0.0163015
11
1.0763
21
0.0088024
0
LINE
8
BLACK
6
CONTINUOUS
10
1.0763
20
0.0088024
11
1.07442
21
0.00505287
0
LINE
8
BLACK
6
CONTINUOUS
10
1.07442
20
0.00505287
11
1.07255
21
0.00317811
0
LINE
8
BLACK
6
CONTINUOUS
10
1.07255
20
0.00317811
11
1.0688
21
0.00130335
0
LINE
8
BLACK
6
CONTINUOUS
10
1.0688
20
0.00130335
11
1.05755
21
0.00130335
0
LINE
8
BLACK
6
CONTINUOUS
10
1.05755
20
0.00130335
11
1.0538
21
0.00317811
0
LINE
8
BLACK
6
CONTINUOUS
10
1.0538
20
0.00317811
11
1.05193
21
0.00505287
0
LINE
8
BLACK
6
CONTINUOUS
10
1.05193
20
0.00505287
11
1.05005
21
0.0088024
0
LINE
8
BLACK
6
CONTINUOUS
10
1.05005
20
0.0088024
11
1.05005
21
0.0163015
0
LINE
8
BLACK
6
CONTINUOUS
10
1.05005
20
0.0163015
11
1.05193
21
0.020051
0
LINE
8
BLACK
6
CONTINUOUS
10
1.05005
20
0.0312996
11
1.05005
21
0.0462977
0
LINE
8
BLACK
6
CONTINUOUS
10
1.03693
20
0.0369239
11
1.07067
21
0.0369239
0
LINE
8
BLACK
6
CONTINUOUS
10
1.07067
20
0.0369239
11
1.07442
21
0.0387987
0
LINE
8
BLACK
6
CONTINUOUS
10
1.07442
20
0.0387987
11
1.0763
21
0.0425482
0
LINE
8
BLACK
6
CONTINUOUS
10
1.0763
20
0.0425482
11
1.0763
21
0.0462977
0
LINE
8
BLACK
6
CONTINUOUS
10
1.0763
20
0.0594211
11
1.05005
21
0.0594211
0
LINE
8
BLACK
6
CONTINUOUS
10
1.03693
20
0.0594211
11
1.0388
21
0.0575463
0
LINE
8
BLACK
6
CONTINUOUS
10
1.0388
20
0.0575463
11
1.04068
21
0.0594211
0
LINE
8
BLACK
6
CONTINUOUS
10
1.04068
20
0.0594211
11
1.0388
21
0.0612959
0
LINE
8
BLACK
6
CONTINUOUS
10
1.0388
20
0.0612959
11
1.03693
21
0.0594211
0
LINE
8
BLACK
6
CONTINUOUS
10
1.03693
20
0.0594211
11
1.04068
21
0.0594211
0
LINE
8
BLACK
6
CONTINUOUS
10
1.0763
20
0.083793
11
1.07442
21
0.0800435
0
LINE
8
BLACK
6
CONTINUOUS
10
1.07442
20
0.0800435
11
1.07255
21
0.0781687
0
LINE
8
BLACK
6
CONTINUOUS
10
1.07255
20
0.0781687
11
1.0688
21
0.076294
0
LINE
8
BLACK
6
CONTINUOUS
10
1.0688
20
0.076294
11
1.05755
21
0.076294
0
LINE
8
BLACK
6
CONTINUOUS
10
1.05755
20
0.076294
11
1.0538
21
0.0781687
0
LINE
8
BLACK
6
CONTINUOUS
10
1.0538
20
0.0781687
11
1.05193
21
0.0800435
0
LINE
8
BLACK
6
CONTINUOUS
10
1.05193
20
0.0800435
11
1.05005
21
0.083793
0
LINE
8
BLACK
6
CONTINUOUS
10
1.05005
20
0.083793
11
1.05005
21
0.0894173
0
LINE
8
BLACK
6
CONTINUOUS
10
1.05005
20
0.0894173
11
1.05193
21
0.0931669
0
LINE
8
BLACK
6
CONTINUOUS
10
1.05193
20
0.0931669
11
1.0538
21
0.0950417
0
LINE
8
BLACK
6
CONTINUOUS
10
1.0538
20
0.0950417
11
1.05755
21
0.0969164
0
LINE
8
BLACK
6
CONTINUOUS
10
1.05755
20
0.0969164
11
1.0688
21
0.0969164
0
LINE
8
BLACK
6
CONTINUOUS
10
1.0688
20
0.0969164
11
1.07255
21
0.0950417
0
LINE
8
BLACK
6
CONTINUOUS
10
1.07255
20
0.0950417
11
1.07442
21
0.0931669
0
LINE
8
BLACK
6
CONTINUOUS
10
1.07442
20
0.0931669
11
1.0763
21
0.0894173
0
LINE
8
BLACK
6
CONTINUOUS
10
1.0763
20
0.0894173
11
1.0763
21
0.083793
0
LINE
8
BLACK
6
CONTINUOUS
10
1.05005
20
0.113789
11
1.0763
21
0.113789
0
LINE
8
BLACK
6
CONTINUOUS
10
1.0538
20
0.113789
11
1.05193
21
0.115664
0
LINE
8
BLACK
6
CONTINUOUS
10
1.05193
20
0.115664
11
1.05005
21
0.119414
0
LINE
8
BLACK
6
CONTINUOUS
10
1.05005
20
0.119414
11
1.05005
21
0.125038
0
LINE
8
BLACK
6
CONTINUOUS
10
1.05005
20
0.125038
11
1.05193
21
0.128787
0
LINE
8
BLACK
6
CONTINUOUS
10
1.05193
20
0.128787
11
1.05568
21
0.130662
0
LINE
8
BLACK
6
CONTINUOUS
10
1.05568
20
0.130662
11
1.0763
21
0.130662
0
LINE
8
BLACK
6
CONTINUOUS
10
1.0763
20
0.18503
11
1.07442
21
0.181281
0
LINE
8
BLACK
6
CONTINUOUS
10
1.07442
20
0.181281
11
1.07255
21
0.179406
0
LINE
8
BLACK
6
CONTINUOUS
10
1.07255
20
0.179406
11
1.0688
21
0.177531
0
LINE
8
BLACK
6
CONTINUOUS
10
1.0688
20
0.177531
11
1.05755
21
0.177531
0
LINE
8
BLACK
6
CONTINUOUS
10
1.05755
20
0.177531
11
1.0538
21
0.179406
0
LINE
8
BLACK
6
CONTINUOUS
10
1.0538
20
0.179406
11
1.05193
21
0.181281
0
LINE
8
BLACK
6
CONTINUOUS
10
1.05193
20
0.181281
11
1.05005
21
0.18503
0
LINE
8
BLACK
6
CONTINUOUS
10
1.05005
20
0.18503
11
1.05005
21
0.190655
0
LINE
8
BLACK
6
CONTINUOUS
10
1.05005
20
0.190655
11
1.05193
21
0.194404
0
LINE
8
BLACK
6
CONTINUOUS
10
1.05193
20
0.194404
11
1.0538
21
0.196279
0
LINE
8
BLACK
6
CONTINUOUS
10
1.0538
20
0.196279
11
1.05755
21
0.198154
0
LINE
8
BLACK
6
CONTINUOUS
10
1.05755
20
0.198154
11
1.0688
21
0.198154
0
LINE
8
BLACK
6
CONTINUOUS
10
1.0688
20
0.198154
11
1.07255
21
0.196279
0
LINE
8
BLACK
6
CONTINUOUS
10
1.07255
20
0.196279
11
1.07442
21
0.194404
0
LINE
8
BLACK
6
CONTINUOUS
10
1.07442
20
0.194404
11
1.0763
21
0.190655
0
LINE
8
BLACK
6
CONTINUOUS
10
1.0763
20
0.190655
11
1.0763
21
0.18503
0
LINE
8
BLACK
6
CONTINUOUS
10
1.05005
20
0.215027
11
1.08942
21
0.215027
0
LINE
8
BLACK
6
CONTINUOUS
10
1.05193
20
0.215027
11
1.05005
21
0.218776
0
LINE
8
BLACK
6
CONTINUOUS
10
1.05005
20
0.218776
11
1.05005
21
0.226275
0
LINE
8
BLACK
6
CONTINUOUS
10
1.05005
20
0.226275
11
1.05193
21
0.230025
0
LINE
8
BLACK
6
CONTINUOUS
10
1.05193
20
0.230025
11
1.0538
21
0.2319
0
LINE
8
BLACK
6
CONTINUOUS
10
1.0538
20
0.2319
11
1.05755
21
0.233774
0
LINE
8
BLACK
6
CONTINUOUS
10
1.05755
20
0.233774
11
1.0688
21
0.233774
0
LINE
8
BLACK
6
CONTINUOUS
10
1.0688
20
0.233774
11
1.07255
21
0.2319
0
LINE
8
BLACK
6
CONTINUOUS
10
1.07255
20
0.2319
11
1.07442
21
0.230025
0
LINE
8
BLACK
6
CONTINUOUS
10
1.07442
20
0.230025
11
1.0763
21
0.226275
0
LINE
8
BLACK
6
CONTINUOUS
10
1.0763
20
0.226275
11
1.0763
21
0.218776
0
LINE
8
BLACK
6
CONTINUOUS
10
1.0763
20
0.218776
11
1.07442
21
0.215027
0
LINE
8
BLACK
6
CONTINUOUS
10
1.07442
20
0.265645
11
1.0763
21
0.261896
0
LINE
8
BLACK
6
CONTINUOUS
10
1.0763
20
0.261896
11
1.0763
21
0.254397
0
LINE
8
BLACK
6
CONTINUOUS
10
1.0763
20
0.254397
11
1.07442
21
0.250647
0
LINE
8
BLACK
6
CONTINUOUS
10
1.07442
20
0.250647
11
1.07067
21
0.248772
0
LINE
8
BLACK
6
CONTINUOUS
10
1.07067
20
0.248772
11
1.05568
21
0.248772
0
LINE
8
BLACK
6
CONTINUOUS
10
1.05568
20
0.248772
11
1.05193
21
0.250647
0
LINE
8
BLACK
6
CONTINUOUS
10
1.05193
20
0.250647
11
1.05005
21
0.254397
0
LINE
8
BLACK
6
CONTINUOUS
10
1.05005
20
0.254397
11
1.05005
21
0.261896
0
LINE
8
BLACK
6
CONTINUOUS
10
1.05005
20
0.261896
11
1.05193
21
0.265645
0
LINE
8
BLACK
6
CONTINUOUS
10
1.05193
20
0.265645
11
1.05568
21
0.26752
0
LINE
8
BLACK
6
CONTINUOUS
10
1.05568
20
0.26752
11
1.05943
21
0.26752
0
LINE
8
BLACK
6
CONTINUOUS
10
1.05943
20
0.26752
11
1.06318
21
0.248772
0
LINE
8
BLACK
6
CONTINUOUS
10
1.05005
20
0.284393
11
1.0763
21
0.284393
0
LINE
8
BLACK
6
CONTINUOUS
10
1.0538
20
0.284393
11
1.05193
21
0.286268
0
LINE
8
BLACK
6
CONTINUOUS
10
1.05193
20
0.286268
11
1.05005
21
0.290017
0
LINE
8
BLACK
6
CONTINUOUS
10
1.05005
20
0.290017
11
1.05005
21
0.295642
0
LINE
8
BLACK
6
CONTINUOUS
10
1.05005
20
0.295642
11
1.05193
21
0.299391
0
LINE
8
BLACK
6
CONTINUOUS
10
1.05193
20
0.299391
11
1.05568
21
0.301266
0
LINE
8
BLACK
6
CONTINUOUS
10
1.05568
20
0.301266
11
1.0763
21
0.301266
0
LINE
8
BLACK
6
CONTINUOUS
10
1.0763
20
0.320014
11
1.05005
21
0.320014
0
LINE
8
BLACK
6
CONTINUOUS
10
1.03693
20
0.320014
11
1.0388
21
0.318139
0
LINE
8
BLACK
6
CONTINUOUS
10
1.0388
20
0.318139
11
1.04068
21
0.320014
0
LINE
8
BLACK
6
CONTINUOUS
10
1.04068
20
0.320014
11
1.0388
21
0.321888
0
LINE
8
BLACK
6
CONTINUOUS
10
1.0388
20
0.321888
11
1.03693
21
0.320014
0
LINE
8
BLACK
6
CONTINUOUS
10
1.03693
20
0.320014
11
1.04068
21
0.320014
0
LINE
8
BLACK
6
CONTINUOUS
10
1.05005
20
0.338761
11
1.0763
21
0.338761
0
LINE
8
BLACK
6
CONTINUOUS
10
1.0538
20
0.338761
11
1.05193
21
0.340636
0
LINE
8
BLACK
6
CONTINUOUS
10
1.05193
20
0.340636
11
1.05005
21
0.344385
0
LINE
8
BLACK
6
CONTINUOUS
10
1.05005
20
0.344385
11
1.05005
21
0.35001
0
LINE
8
BLACK
6
CONTINUOUS
10
1.05005
20
0.35001
11
1.05193
21
0.353759
0
LINE
8
BLACK
6
CONTINUOUS
10
1.05193
20
0.353759
11
1.05568
21
0.355634
0
LINE
8
BLACK
6
CONTINUOUS
10
1.05568
20
0.355634
11
1.0763
21
0.355634
0
LINE
8
BLACK
6
CONTINUOUS
10
1.05005
20
0.391255
11
1.08192
21
0.391255
0
LINE
8
BLACK
6
CONTINUOUS
10
1.08192
20
0.391255
11
1.08567
21
0.38938
0
LINE
8
BLACK
6
CONTINUOUS
10
1.08567
20
0.38938
11
1.08755
21
0.387505
0
LINE
8
BLACK
6
CONTINUOUS
10
1.08755
20
0.387505
11
1.08942
21
0.383756
0
LINE
8
BLACK
6
CONTINUOUS
10
1.08942
20
0.383756
11
1.08942
21
0.378131
0
LINE
8
BLACK
6
CONTINUOUS
10
1.08942
20
0.378131
11
1.08755
21
0.374382
0
LINE
8
BLACK
6
CONTINUOUS
10
1.07442
20
0.391255
11
1.0763
21
0.387505
0
LINE
8
BLACK
6
CONTINUOUS
10
1.0763
20
0.387505
11
1.0763
21
0.380006
0
LINE
8
BLACK
6
CONTINUOUS
10
1.0763
20
0.380006
11
1.07442
21
0.376256
0
LINE
8
BLACK
6
CONTINUOUS
10
1.07442
20
0.376256
11
1.07255
21
0.374382
0
LINE
8
BLACK
6
CONTINUOUS
10
1.07255
20
0.374382
11
1.0688
21
0.372507
0
LINE
8
BLACK
6
CONTINUOUS
10
1.0688
20
0.372507
11
1.05755
21
0.372507
0
LINE
8
BLACK
6
CONTINUOUS
10
1.05755
20
0.372507
11
1.0538
21
0.374382
0
LINE
8
BLACK
6
CONTINUOUS
10
1.0538
20
0.374382
11
1.05193
21
0.376256
0
LINE
8
BLACK
6
CONTINUOUS
10
1.05193
20
0.376256
11
1.05005
21
0.380006
0
LINE
8
BLACK
6
CONTINUOUS
10
1.05005
20
0.380006
11
1.05005
21
0.387505
0
LINE
8
BLACK
6
CONTINUOUS
10
1.05005
20
0.387505
11
1.05193
21
0.391255
0
LINE
8
BLACK
6
CONTINUOUS
10
1.13968
20
-0.247103
11
1.10031
21
-0.247103
0
LINE
8
BLACK
6
CONTINUOUS
10
1.13781
20
-0.247103
11
1.13968
21
-0.250853
0
LINE
8
BLACK
6
CONTINUOUS
10
1.13968
20
-0.250853
11
1.13968
21
-0.258352
0
LINE
8
BLACK
6
CONTINUOUS
10
1.13968
20
-0.258352
11
1.13781
21
-0.262101
0
LINE
8
BLACK
6
CONTINUOUS
10
1.13781
20
-0.262101
11
1.13593
21
-0.263976
0
LINE
8
BLACK
6
CONTINUOUS
10
1.13593
20
-0.263976
11
1.13219
21
-0.265851
0
LINE
8
BLACK
6
CONTINUOUS
10
1.13219
20
-0.265851
11
1.12094
21
-0.265851
0
LINE
8
BLACK
6
CONTINUOUS
10
1.12094
20
-0.265851
11
1.11719
21
-0.263976
0
LINE
8
BLACK
6
CONTINUOUS
10
1.11719
20
-0.263976
11
1.11531
21
-0.262101
0
LINE
8
BLACK
6
CONTINUOUS
10
1.11531
20
-0.262101
11
1.11344
21
-0.258352
0
LINE
8
BLACK
6
CONTINUOUS
10
1.11344
20
-0.258352
11
1.11344
21
-0.250853
0
LINE
8
BLACK
6
CONTINUOUS
10
1.11344
20
-0.250853
11
1.11531
21
-0.247103
0
LINE
8
BLACK
6
CONTINUOUS
10
1.13968
20
-0.228355
11
1.11344
21
-0.228355
0
LINE
8
BLACK
6
CONTINUOUS
10
1.10031
20
-0.228355
11
1.10219
21
-0.23023
0
LINE
8
BLACK
6
CONTINUOUS
10
1.10219
20
-0.23023
11
1.10406
21
-0.228355
0
LINE
8
BLACK
6
CONTINUOUS
10
1.10406
20
-0.228355
11
1.10219
21
-0.226481
0
LINE
8
BLACK
6
CONTINUOUS
10
1.10219
20
-0.226481
11
1.10031
21
-0.228355
0
LINE
8
BLACK
6
CONTINUOUS
10
1.10031
20
-0.228355
11
1.10406
21
-0.228355
0
LINE
8
BLACK
6
CONTINUOUS
10
1.13968
20
-0.192735
11
1.11906
21
-0.192735
0
LINE
8
BLACK
6
CONTINUOUS
10
1.11906
20
-0.192735
11
1.11531
21
-0.19461
0
LINE
8
BLACK
6
CONTINUOUS
10
1.11531
20
-0.19461
11
1.11344
21
-0.198359
0
LINE
8
BLACK
6
CONTINUOUS
10
1.11344
20
-0.198359
11
1.11344
21
-0.205858
0
LINE
8
BLACK
6
CONTINUOUS
10
1.11344
20
-0.205858
11
1.11531
21
-0.209608
0
LINE
8
BLACK
6
CONTINUOUS
10
1.13781
20
-0.192735
11
1.13968
21
-0.196484
0
LINE
8
BLACK
6
CONTINUOUS
10
1.13968
20
-0.196484
11
1.13968
21
-0.205858
0
LINE
8
BLACK
6
CONTINUOUS
10
1.13968
20
-0.205858
11
1.13781
21
-0.209608
0
LINE
8
BLACK
6
CONTINUOUS
10
1.13781
20
-0.209608
11
1.13406
21
-0.211483
0
LINE
8
BLACK
6
CONTINUOUS
10
1.13406
20
-0.211483
11
1.13031
21
-0.211483
0
LINE
8
BLACK
6
CONTINUOUS
10
1.13031
20
-0.211483
11
1.12656
21
-0.209608
0
LINE
8
BLACK
6
CONTINUOUS
10
1.12656
20
-0.209608
11
1.12469
21
-0.205858
0
LINE
8
BLACK
6
CONTINUOUS
10
1.12469
20
-0.205858
11
1.12469
21
-0.196484
0
LINE
8
BLACK
6
CONTINUOUS
10
1.12469
20
-0.196484
11
1.12281
21
-0.192735
0
LINE
8
BLACK
6
CONTINUOUS
10
1.13968
20
-0.173987
11
1.11344
21
-0.173987
0
LINE
8
BLACK
6
CONTINUOUS
10
1.11719
20
-0.173987
11
1.11531
21
-0.172112
0
LINE
8
BLACK
6
CONTINUOUS
10
1.11531
20
-0.172112
11
1.11344
21
-0.168363
0
LINE
8
BLACK
6
CONTINUOUS
10
1.11344
20
-0.168363
11
1.11344
21
-0.162739
0
LINE
8
BLACK
6
CONTINUOUS
10
1.11344
20
-0.162739
11
1.11531
21
-0.158989
0
LINE
8
BLACK
6
CONTINUOUS
10
1.11531
20
-0.158989
11
1.11906
21
-0.157114
0
LINE
8
BLACK
6
CONTINUOUS
10
1.11906
20
-0.157114
11
1.13968
21
-0.157114
0
LINE
8
BLACK
6
CONTINUOUS
10
1.11906
20
-0.157114
11
1.11531
21
-0.15524
0
LINE
8
BLACK
6
CONTINUOUS
10
1.11531
20
-0.15524
11
1.11344
21
-0.15149
0
LINE
8
BLACK
6
CONTINUOUS
10
1.11344
20
-0.15149
11
1.11344
21
-0.145866
0
LINE
8
BLACK
6
CONTINUOUS
10
1.11344
20
-0.145866
11
1.11531
21
-0.142116
0
LINE
8
BLACK
6
CONTINUOUS
10
1.11531
20
-0.142116
11
1.11906
21
-0.140241
0
LINE
8
BLACK
6
CONTINUOUS
10
1.11906
20
-0.140241
11
1.13968
21
-0.140241
0
LINE
8
BLACK
6
CONTINUOUS
10
1.13781
20
-0.106496
11
1.13968
21
-0.110245
0
LINE
8
BLACK
6
CONTINUOUS
10
1.13968
20
-0.110245
11
1.13968
21
-0.117744
0
LINE
8
BLACK
6
CONTINUOUS
10
1.13968
20
-0.117744
11
1.13781
21
-0.121494
0
LINE
8
BLACK
6
CONTINUOUS
10
1.13781
20
-0.121494
11
1.13406
21
-0.123369
0
LINE
8
BLACK
6
CONTINUOUS
10
1.13406
20
-0.123369
11
1.11906
21
-0.123369
0
LINE
8
BLACK
6
CONTINUOUS
10
1.11906
20
-0.123369
11
1.11531
21
-0.121494
0
LINE
8
BLACK
6
CONTINUOUS
10
1.11531
20
-0.121494
11
1.11344
21
-0.117744
0
LINE
8
BLACK
6
CONTINUOUS
10
1.11344
20
-0.117744
11
1.11344
21
-0.110245
0
LINE
8
BLACK
6
CONTINUOUS
10
1.11344
20
-0.110245
11
1.11531
21
-0.106496
0
LINE
8
BLACK
6
CONTINUOUS
10
1.11531
20
-0.106496
11
1.11906
21
-0.104621
0
LINE
8
BLACK
6
CONTINUOUS
10
1.11906
20
-0.104621
11
1.12281
21
-0.104621
0
LINE
8
BLACK
6
CONTINUOUS
10
1.12281
20
-0.104621
11
1.12656
21
-0.123369
0
LINE
8
BLACK
6
CONTINUOUS
10
1.11344
20
-0.0933723
11
1.11344
21
-0.0783742
0
LINE
8
BLACK
6
CONTINUOUS
10
1.10031
20
-0.087748
11
1.13406
21
-0.087748
0
LINE
8
BLACK
6
CONTINUOUS
10
1.13406
20
-0.087748
11
1.13781
21
-0.0858732
0
LINE
8
BLACK
6
CONTINUOUS
10
1.13781
20
-0.0858732
11
1.13968
21
-0.0821237
0
LINE
8
BLACK
6
CONTINUOUS
10
1.13968
20
-0.0821237
11
1.13968
21
-0.0783742
0
LINE
8
BLACK
6
CONTINUOUS
10
1.13781
20
-0.0502527
11
1.13968
21
-0.0540022
0
LINE
8
BLACK
6
CONTINUOUS
10
1.13968
20
-0.0540022
11
1.13968
21
-0.0615013
0
LINE
8
BLACK
6
CONTINUOUS
10
1.13968
20
-0.0615013
11
1.13781
21
-0.0652508
0
LINE
8
BLACK
6
CONTINUOUS
10
1.13781
20
-0.0652508
11
1.13406
21
-0.0671256
0
LINE
8
BLACK
6
CONTINUOUS
10
1.13406
20
-0.0671256
11
1.11906
21
-0.0671256
0
LINE
8
BLACK
6
CONTINUOUS
10
1.11906
20
-0.0671256
11
1.11531
21
-0.0652508
0
LINE
8
BLACK
6
CONTINUOUS
10
1.11531
20
-0.0652508
11
1.11344
21
-0.0615013
0
LINE
8
BLACK
6
CONTINUOUS
10
1.11344
20
-0.0615013
11
1.11344
21
-0.0540022
0
LINE
8
BLACK
6
CONTINUOUS
10
1.11344
20
-0.0540022
11
1.11531
21
-0.0502527
0
LINE
8
BLACK
6
CONTINUOUS
10
1.11531
20
-0.0502527
11
1.11906
21
-0.048378
0
LINE
8
BLACK
6
CONTINUOUS
10
1.11906
20
-0.048378
11
1.12281
21
-0.048378
0
LINE
8
BLACK
6
CONTINUOUS
10
1.12281
20
-0.048378
11
1.12656
21
-0.0671256
0
LINE
8
BLACK
6
CONTINUOUS
10
1.13968
20
-0.031505
11
1.11344
21
-0.031505
0
LINE
8
BLACK
6
CONTINUOUS
10
1.12094
20
-0.031505
11
1.11719
21
-0.0296303
0
LINE
8
BLACK
6
CONTINUOUS
10
1.11719
20
-0.0296303
11
1.11531
21
-0.0277555
0
LINE
8
BLACK
6
CONTINUOUS
10
1.11531
20
-0.0277555
11
1.11344
21
-0.024006
0
LINE
8
BLACK
6
CONTINUOUS
10
1.11344
20
-0.024006
11
1.11344
21
-0.0202565
0
LINE
8
BLACK
6
CONTINUOUS
10
1.11719
20
0.0284874
11
1.11531
21
0.0247379
0
LINE
8
BLACK
6
CONTINUOUS
10
1.11531
20
0.0247379
11
1.11344
21
0.0228631
0
LINE
8
BLACK
6
CONTINUOUS
10
1.11344
20
0.0228631
11
1.10969
21
0.0209884
0
LINE
8
BLACK
6
CONTINUOUS
10
1.10969
20
0.0209884
11
1.10781
21
0.0209884
0
LINE
8
BLACK
6
CONTINUOUS
10
1.10781
20
0.0209884
11
1.10406
21
0.0228631
0
LINE
8
BLACK
6
CONTINUOUS
10
1.10406
20
0.0228631
11
1.10219
21
0.0247379
0
LINE
8
BLACK
6
CONTINUOUS
10
1.10219
20
0.0247379
11
1.10031
21
0.0284874
0
LINE
8
BLACK
6
CONTINUOUS
10
1.10031
20
0.0284874
11
1.10031
21
0.0359865
0
LINE
8
BLACK
6
CONTINUOUS
10
1.10031
20
0.0359865
11
1.10219
21
0.0397361
0
LINE
8
BLACK
6
CONTINUOUS
10
1.10219
20
0.0397361
11
1.10406
21
0.0416108
0
LINE
8
BLACK
6
CONTINUOUS
10
1.10406
20
0.0416108
11
1.10781
21
0.0434856
0
LINE
8
BLACK
6
CONTINUOUS
10
1.10781
20
0.0434856
11
1.10969
21
0.0434856
0
LINE
8
BLACK
6
CONTINUOUS
10
1.10969
20
0.0434856
11
1.11344
21
0.0416108
0
LINE
8
BLACK
6
CONTINUOUS
10
1.11344
20
0.0416108
11
1.11531
21
0.0397361
0
LINE
8
BLACK
6
CONTINUOUS
10
1.11531
20
0.0397361
11
1.11719
21
0.0359865
0
LINE
8
BLACK
6
CONTINUOUS
10
1.11719
20
0.0359865
11
1.11719
21
0.0284874
0
LINE
8
BLACK
6
CONTINUOUS
10
1.11719
20
0.0284874
11
1.11906
21
0.0247379
0
LINE
8
BLACK
6
CONTINUOUS
10
1.11906
20
0.0247379
11
1.12094
21
0.0228631
0
LINE
8
BLACK
6
CONTINUOUS
10
1.12094
20
0.0228631
11
1.12469
21
0.0209884
0
LINE
8
BLACK
6
CONTINUOUS
10
1.12469
20
0.0209884
11
1.13219
21
0.0209884
0
LINE
8
BLACK
6
CONTINUOUS
10
1.13219
20
0.0209884
11
1.13593
21
0.0228631
0
LINE
8
BLACK
6
CONTINUOUS
10
1.13593
20
0.0228631
11
1.13781
21
0.0247379
0
LINE
8
BLACK
6
CONTINUOUS
10
1.13781
20
0.0247379
11
1.13968
21
0.0284874
0
LINE
8
BLACK
6
CONTINUOUS
10
1.13968
20
0.0284874
11
1.13968
21
0.0359865
0
LINE
8
BLACK
6
CONTINUOUS
10
1.13968
20
0.0359865
11
1.13781
21
0.0397361
0
LINE
8
BLACK
6
CONTINUOUS
10
1.13781
20
0.0397361
11
1.13593
21
0.0416108
0
LINE
8
BLACK
6
CONTINUOUS
10
1.13593
20
0.0416108
11
1.13219
21
0.0434856
0
LINE
8
BLACK
6
CONTINUOUS
10
1.13219
20
0.0434856
11
1.12469
21
0.0434856
0
LINE
8
BLACK
6
CONTINUOUS
10
1.12469
20
0.0434856
11
1.12094
21
0.0416108
0
LINE
8
BLACK
6
CONTINUOUS
10
1.12094
20
0.0416108
11
1.11906
21
0.0397361
0
LINE
8
BLACK
6
CONTINUOUS
10
1.11906
20
0.0397361
11
1.11719
21
0.0359865
0
LINE
8
BLACK
6
CONTINUOUS
10
1.13968
20
0.0903547
11
1.11344
21
0.0903547
0
LINE
8
BLACK
6
CONTINUOUS
10
1.11719
20
0.0903547
11
1.11531
21
0.0922295
0
LINE
8
BLACK
6
CONTINUOUS
10
1.11531
20
0.0922295
11
1.11344
21
0.095979
0
LINE
8
BLACK
6
CONTINUOUS
10
1.11344
20
0.095979
11
1.11344
21
0.101603
0
LINE
8
BLACK
6
CONTINUOUS
10
1.11344
20
0.101603
11
1.11531
21
0.105353
0
LINE
8
BLACK
6
CONTINUOUS
10
1.11531
20
0.105353
11
1.11906
21
0.107228
0
LINE
8
BLACK
6
CONTINUOUS
10
1.11906
20
0.107228
11
1.13968
21
0.107228
0
LINE
8
BLACK
6
CONTINUOUS
10
1.11906
20
0.107228
11
1.11531
21
0.109102
0
LINE
8
BLACK
6
CONTINUOUS
10
1.11531
20
0.109102
11
1.11344
21
0.112852
0
LINE
8
BLACK
6
CONTINUOUS
10
1.11344
20
0.112852
11
1.11344
21
0.118476
0
LINE
8
BLACK
6
CONTINUOUS
10
1.11344
20
0.118476
11
1.11531
21
0.122226
0
LINE
8
BLACK
6
CONTINUOUS
10
1.11531
20
0.122226
11
1.11906
21
0.124101
0
LINE
8
BLACK
6
CONTINUOUS
10
1.11906
20
0.124101
11
1.13968
21
0.124101
0
LINE
8
BLACK
6
CONTINUOUS
10
1.13968
20
0.142848
11
1.11344
21
0.142848
0
LINE
8
BLACK
6
CONTINUOUS
10
1.11719
20
0.142848
11
1.11531
21
0.144723
0
LINE
8
BLACK
6
CONTINUOUS
10
1.11531
20
0.144723
11
1.11344
21
0.148472
0
LINE
8
BLACK
6
CONTINUOUS
10
1.11344
20
0.148472
11
1.11344
21
0.154097
0
LINE
8
BLACK
6
CONTINUOUS
10
1.11344
20
0.154097
11
1.11531
21
0.157846
0
LINE
8
BLACK
6
CONTINUOUS
10
1.11531
20
0.157846
11
1.11906
21
0.159721
0
LINE
8
BLACK
6
CONTINUOUS
10
1.11906
20
0.159721
11
1.13968
21
0.159721
0
LINE
8
BLACK
6
CONTINUOUS
10
1.11906
20
0.159721
11
1.11531
21
0.161596
0
LINE
8
BLACK
6
CONTINUOUS
10
1.11531
20
0.161596
11
1.11344
21
0.165345
0
LINE
8
BLACK
6
CONTINUOUS
10
1.11344
20
0.165345
11
1.11344
21
0.17097
0
LINE
8
BLACK
6
CONTINUOUS
10
1.11344
20
0.17097
11
1.11531
21
0.174719
0
LINE
8
BLACK
6
CONTINUOUS
10
1.11531
20
0.174719
11
1.11906
21
0.176594
0
LINE
8
BLACK
6
CONTINUOUS
10
1.11906
20
0.176594
11
1.13968
21
0.176594
0
LINE
8
BLACK
6
CONTINUOUS
10
0.714015
20
0.908455
11
0.698896
21
0.925114
0
LINE
8
BLACK
6
CONTINUOUS
10
0.706456
20
0.916785
11
0.735609
21
0.943243
0
LINE
8
BLACK
6
CONTINUOUS
10
0.735609
20
0.943243
11
0.728925
21
0.94224
0
LINE
8
BLACK
6
CONTINUOUS
10
0.728925
20
0.94224
11
0.723628
21
0.942497
0
LINE
8
BLACK
6
CONTINUOUS
10
0.723628
20
0.942497
11
0.71972
21
0.944013
0
LINE
8
BLACK
6
CONTINUOUS
10
0.765848
20
0.909925
11
0.760808
21
0.915478
0
LINE
8
BLACK
6
CONTINUOUS
10
0.760808
20
0.915478
11
0.7569
21
0.916995
0
LINE
8
BLACK
6
CONTINUOUS
10
0.7569
20
0.916995
11
0.754252
21
0.917123
0
LINE
8
BLACK
6
CONTINUOUS
10
0.754252
20
0.917123
11
0.747567
21
0.91612
0
LINE
8
BLACK
6
CONTINUOUS
10
0.747567
20
0.91612
11
0.740754
21
0.912468
0
LINE
8
BLACK
6
CONTINUOUS
10
0.740754
20
0.912468
11
0.729648
21
0.902389
0
LINE
8
BLACK
6
CONTINUOUS
10
0.729648
20
0.902389
11
0.728131
21
0.89848
0
LINE
8
BLACK
6
CONTINUOUS
10
0.728131
20
0.89848
11
0.728003
21
0.895832
0
LINE
8
BLACK
6
CONTINUOUS
10
0.728003
20
0.895832
11
0.729135
21
0.891796
0
LINE
8
BLACK
6
CONTINUOUS
10
0.729135
20
0.891796
11
0.734174
21
0.886243
0
LINE
8
BLACK
6
CONTINUOUS
10
0.734174
20
0.886243
11
0.738083
21
0.884726
0
LINE
8
BLACK
6
CONTINUOUS
10
0.738083
20
0.884726
11
0.740731
21
0.884598
0
LINE
8
BLACK
6
CONTINUOUS
10
0.740731
20
0.884598
11
0.744767
21
0.885729
0
LINE
8
BLACK
6
CONTINUOUS
10
0.744767
20
0.885729
11
0.751709
21
0.892029
0
LINE
8
BLACK
6
CONTINUOUS
10
0.751709
20
0.892029
11
0.753225
21
0.895937
0
LINE
8
BLACK
6
CONTINUOUS
10
0.753225
20
0.895937
11
0.753354
21
0.898585
0
LINE
8
BLACK
6
CONTINUOUS
10
0.753354
20
0.898585
11
0.752222
21
0.902622
0
LINE
8
BLACK
6
CONTINUOUS
10
0.752222
20
0.902622
11
0.747182
21
0.908175
0
LINE
8
BLACK
6
CONTINUOUS
10
0.747182
20
0.908175
11
0.743274
21
0.909692
0
LINE
8
BLACK
6
CONTINUOUS
10
0.743274
20
0.909692
11
0.740626
21
0.90982
0
LINE
8
BLACK
6
CONTINUOUS
10
0.740626
20
0.90982
11
0.736589
21
0.908688
0
LINE
8
BLACK
6
CONTINUOUS
10
0.753202
20
0.868067
11
0.751814
21
0.866807
0
LINE
8
BLACK
6
CONTINUOUS
10
0.751814
20
0.866807
11
0.747777
21
0.865675
0
LINE
8
BLACK
6
CONTINUOUS
10
0.747777
20
0.865675
11
0.745129
21
0.865804
0
LINE
8
BLACK
6
CONTINUOUS
10
0.797347
20
0.875218
11
0.799866
21
0.872442
0
LINE
8
BLACK
6
CONTINUOUS
10
0.799866
20
0.872442
11
0.800998
21
0.868405
0
LINE
8
BLACK
6
CONTINUOUS
10
0.800998
20
0.868405
11
0.80087
21
0.865757
0
LINE
8
BLACK
6
CONTINUOUS
10
0.80087
20
0.865757
11
0.799353
21
0.861849
0
LINE
8
BLACK
6
CONTINUOUS
10
0.799353
20
0.861849
11
0.79506
21
0.855421
0
LINE
8
BLACK
6
CONTINUOUS
10
0.79506
20
0.855421
11
0.788119
21
0.849121
0
LINE
8
BLACK
6
CONTINUOUS
10
0.788119
20
0.849121
11
0.781306
21
0.84547
0
LINE
8
BLACK
6
CONTINUOUS
10
0.781306
20
0.84547
11
0.777269
21
0.844338
0
LINE
8
BLACK
6
CONTINUOUS
10
0.777269
20
0.844338
11
0.774621
21
0.844466
0
LINE
8
BLACK
6
CONTINUOUS
10
0.774621
20
0.844466
11
0.770713
21
0.845983
0
LINE
8
BLACK
6
CONTINUOUS
10
0.770713
20
0.845983
11
0.768193
21
0.848759
0
LINE
8
BLACK
6
CONTINUOUS
10
0.768193
20
0.848759
11
0.767061
21
0.852796
0
LINE
8
BLACK
6
CONTINUOUS
10
0.767061
20
0.852796
11
0.76719
21
0.855444
0
LINE
8
BLACK
6
CONTINUOUS
10
0.76719
20
0.855444
11
0.768706
21
0.859352
0
LINE
8
BLACK
6
CONTINUOUS
10
0.768706
20
0.859352
11
0.772999
21
0.86578
0
LINE
8
BLACK
6
CONTINUOUS
10
0.772999
20
0.86578
11
0.779941
21
0.87208
0
LINE
8
BLACK
6
CONTINUOUS
10
0.779941
20
0.87208
11
0.786754
21
0.875731
0
LINE
8
BLACK
6
CONTINUOUS
10
0.786754
20
0.875731
11
0.79079
21
0.876863
0
LINE
8
BLACK
6
CONTINUOUS
10
0.79079
20
0.876863
11
0.793438
21
0.876735
0
LINE
8
BLACK
6
CONTINUOUS
10
0.793438
20
0.876735
11
0.797347
21
0.875218
0
LINE
8
BLACK
6
CONTINUOUS
10
0.814986
20
0.855782
11
0.832625
21
0.836347
0
LINE
8
BLACK
6
CONTINUOUS
10
0.832625
20
0.836347
11
0.792132
21
0.822382
0
LINE
8
BLACK
6
CONTINUOUS
10
0.847744
20
0.819687
11
0.850264
21
0.816911
0
LINE
8
BLACK
6
CONTINUOUS
10
0.850264
20
0.816911
11
0.851396
21
0.812874
0
LINE
8
BLACK
6
CONTINUOUS
10
0.851396
20
0.812874
11
0.851267
21
0.810226
0
LINE
8
BLACK
6
CONTINUOUS
10
0.851267
20
0.810226
11
0.849751
21
0.806318
0
LINE
8
BLACK
6
CONTINUOUS
10
0.849751
20
0.806318
11
0.845458
21
0.79989
0
LINE
8
BLACK
6
CONTINUOUS
10
0.845458
20
0.79989
11
0.838516
21
0.79359
0
LINE
8
BLACK
6
CONTINUOUS
10
0.838516
20
0.79359
11
0.831703
21
0.789939
0
LINE
8
BLACK
6
CONTINUOUS
10
0.831703
20
0.789939
11
0.827667
21
0.788807
0
LINE
8
BLACK
6
CONTINUOUS
10
0.827667
20
0.788807
11
0.825019
21
0.788935
0
LINE
8
BLACK
6
CONTINUOUS
10
0.825019
20
0.788935
11
0.82111
21
0.790452
0
LINE
8
BLACK
6
CONTINUOUS
10
0.82111
20
0.790452
11
0.818591
21
0.793229
0
LINE
8
BLACK
6
CONTINUOUS
10
0.818591
20
0.793229
11
0.817459
21
0.797265
0
LINE
8
BLACK
6
CONTINUOUS
10
0.817459
20
0.797265
11
0.817587
21
0.799913
0
LINE
8
BLACK
6
CONTINUOUS
10
0.817587
20
0.799913
11
0.819104
21
0.803821
0
LINE
8
BLACK
6
CONTINUOUS
10
0.819104
20
0.803821
11
0.823397
21
0.810249
0
LINE
8
BLACK
6
CONTINUOUS
10
0.823397
20
0.810249
11
0.830338
21
0.816549
0
LINE
8
BLACK
6
CONTINUOUS
10
0.830338
20
0.816549
11
0.837151
21
0.820201
0
LINE
8
BLACK
6
CONTINUOUS
10
0.837151
20
0.820201
11
0.841188
21
0.821332
0
LINE
8
BLACK
6
CONTINUOUS
10
0.841188
20
0.821332
11
0.843836
21
0.821204
0
LINE
8
BLACK
6
CONTINUOUS
10
0.843836
20
0.821204
11
0.847744
21
0.819687
0
LINE
8
BLACK
6
CONTINUOUS
10
0.863867
20
0.796343
11
0.866515
21
0.796215
0
LINE
8
BLACK
6
CONTINUOUS
10
0.866515
20
0.796215
11
0.870423
21
0.794699
0
LINE
8
BLACK
6
CONTINUOUS
10
0.870423
20
0.794699
11
0.876723
21
0.787757
0
LINE
8
BLACK
6
CONTINUOUS
10
0.876723
20
0.787757
11
0.877855
21
0.783721
0
LINE
8
BLACK
6
CONTINUOUS
10
0.877855
20
0.783721
11
0.877726
21
0.781072
0
LINE
8
BLACK
6
CONTINUOUS
10
0.877726
20
0.781072
11
0.87621
21
0.777164
0
LINE
8
BLACK
6
CONTINUOUS
10
0.87621
20
0.777164
11
0.873433
21
0.774644
0
LINE
8
BLACK
6
CONTINUOUS
10
0.873433
20
0.774644
11
0.868008
21
0.772253
0
LINE
8
BLACK
6
CONTINUOUS
10
0.868008
20
0.772253
11
0.83623
21
0.773793
0
LINE
8
BLACK
6
CONTINUOUS
10
0.83623
20
0.773793
11
0.852609
21
0.755745
0
LINE
8
BLACK
6
CONTINUOUS
10
0.884108
20
0.721039
11
0.903543
21
0.738678
0
LINE
8
BLACK
6
CONTINUOUS
10
0.900767
20
0.736158
11
0.903415
21
0.73603
0
LINE
8
BLACK
6
CONTINUOUS
10
0.903415
20
0.73603
11
0.907323
21
0.734513
0
LINE
8
BLACK
6
CONTINUOUS
10
0.907323
20
0.734513
11
0.911103
21
0.730348
0
LINE
8
BLACK
6
CONTINUOUS
10
0.911103
20
0.730348
11
0.912235
21
0.726312
0
LINE
8
BLACK
6
CONTINUOUS
10
0.912235
20
0.726312
11
0.910718
21
0.722404
0
LINE
8
BLACK
6
CONTINUOUS
10
0.910718
20
0.722404
11
0.895447
21
0.708544
0
LINE
8
BLACK
6
CONTINUOUS
10
0.910718
20
0.722404
11
0.914754
21
0.723535
0
LINE
8
BLACK
6
CONTINUOUS
10
0.914754
20
0.723535
11
0.918663
21
0.722019
0
LINE
8
BLACK
6
CONTINUOUS
10
0.918663
20
0.722019
11
0.922442
21
0.717854
0
LINE
8
BLACK
6
CONTINUOUS
10
0.922442
20
0.717854
11
0.923574
21
0.713817
0
LINE
8
BLACK
6
CONTINUOUS
10
0.923574
20
0.713817
11
0.922058
21
0.709909
0
LINE
8
BLACK
6
CONTINUOUS
10
0.922058
20
0.709909
11
0.906787
21
0.69605
0
LINE
8
BLACK
6
CONTINUOUS
10
0.919386
20
0.682167
11
0.938822
21
0.699806
0
LINE
8
BLACK
6
CONTINUOUS
10
0.936045
20
0.697286
11
0.938693
21
0.697158
0
LINE
8
BLACK
6
CONTINUOUS
10
0.938693
20
0.697158
11
0.942602
21
0.695641
0
LINE
8
BLACK
6
CONTINUOUS
10
0.942602
20
0.695641
11
0.946381
21
0.691477
0
LINE
8
BLACK
6
CONTINUOUS
10
0.946381
20
0.691477
11
0.947513
21
0.68744
0
LINE
8
BLACK
6
CONTINUOUS
10
0.947513
20
0.68744
11
0.945996
21
0.683532
0
LINE
8
BLACK
6
CONTINUOUS
10
0.945996
20
0.683532
11
0.930725
21
0.669673
0
LINE
8
BLACK
6
CONTINUOUS
10
0.945996
20
0.683532
11
0.950033
21
0.684664
0
LINE
8
BLACK
6
CONTINUOUS
10
0.950033
20
0.684664
11
0.953941
21
0.683147
0
LINE
8
BLACK
6
CONTINUOUS
10
0.953941
20
0.683147
11
0.957721
21
0.678982
0
LINE
8
BLACK
6
CONTINUOUS
10
0.957721
20
0.678982
11
0.958852
21
0.674946
0
LINE
8
BLACK
6
CONTINUOUS
10
0.958852
20
0.674946
11
0.957336
21
0.671038
0
LINE
8
BLACK
6
CONTINUOUS
10
0.957336
20
0.671038
11
0.942065
21
0.657178
0
LINE
8
BLACK
6
CONTINUOUS
10
0.439774
20
0.0171664
11
1.03047
21
0.553258
0
LINE
8
BLACK
6
CONTINUOUS
10
0.0145768
20
0.48567
11
0.60527
21
1.02176
0
LINE
8
BLACK
6
CONTINUOUS
10
1.01337
20
0.537742
11
0.588174
21
1.00625
0
LINE
8
BLACK
6
CONTINUOUS
10
1.01337
20
0.537742
11
0.588174
21
1.00625
0
LINE
8
BLACK
6
CONTINUOUS
10
1.01337
20
0.537742
11
1.00066
21
0.5861
0
LINE
8
BLACK
6
CONTINUOUS
10
1.01337
20
0.537742
11
0.966469
21
0.555068
0
LINE
8
BLACK
6
CONTINUOUS
10
0.588174
20
1.00625
11
0.600884
21
0.957888
0
LINE
8
BLACK
6
CONTINUOUS
10
0.588174
20
1.00625
11
0.635076
21
0.98892
0
LINE
8
BLACK
6
CONTINUOUS
10
0.741954
20
-0.181852
11
0.740079
21
-0.179977
0
LINE
8
BLACK
6
CONTINUOUS
10
0.740079
20
-0.179977
11
0.738204
21
-0.176228
0
LINE
8
BLACK
6
CONTINUOUS
10
0.738204
20
-0.176228
11
0.738204
21
-0.166854
0
LINE
8
BLACK
6
CONTINUOUS
10
0.738204
20
-0.166854
11
0.740079
21
-0.163105
0
LINE
8
BLACK
6
CONTINUOUS
10
0.740079
20
-0.163105
11
0.741954
21
-0.16123
0
LINE
8
BLACK
6
CONTINUOUS
10
0.741954
20
-0.16123
11
0.745703
21
-0.159355
0
LINE
8
BLACK
6
CONTINUOUS
10
0.745703
20
-0.159355
11
0.749453
21
-0.159355
0
LINE
8
BLACK
6
CONTINUOUS
10
0.749453
20
-0.159355
11
0.755077
21
-0.16123
0
LINE
8
BLACK
6
CONTINUOUS
10
0.755077
20
-0.16123
11
0.777574
21
-0.183727
0
LINE
8
BLACK
6
CONTINUOUS
10
0.777574
20
-0.183727
11
0.777574
21
-0.159355
0
LINE
8
BLACK
6
CONTINUOUS
10
0.751327
20
-0.125609
11
0.777574
21
-0.125609
0
LINE
8
BLACK
6
CONTINUOUS
10
0.736329
20
-0.134983
11
0.764451
21
-0.144357
0
LINE
8
BLACK
6
CONTINUOUS
10
0.764451
20
-0.144357
11
0.764451
21
-0.119985
0
LINE
8
BLACK
6
CONTINUOUS
10
0.775699
20
-0.103112
11
0.777574
21
-0.103112
0
LINE
8
BLACK
6
CONTINUOUS
10
0.777574
20
-0.103112
11
0.781324
21
-0.104987
0
LINE
8
BLACK
6
CONTINUOUS
10
0.781324
20
-0.104987
11
0.783198
21
-0.106862
0
LINE
8
BLACK
6
CONTINUOUS
10
0.738204
20
-0.0787402
11
0.738204
21
-0.0749906
0
LINE
8
BLACK
6
CONTINUOUS
10
0.738204
20
-0.0749906
11
0.740079
21
-0.0712411
0
LINE
8
BLACK
6
CONTINUOUS
10
0.740079
20
-0.0712411
11
0.741954
21
-0.0693663
0
LINE
8
BLACK
6
CONTINUOUS
10
0.741954
20
-0.0693663
11
0.745703
21
-0.0674915
0
LINE
8
BLACK
6
CONTINUOUS
10
0.745703
20
-0.0674915
11
0.753202
21
-0.0656168
0
LINE
8
BLACK
6
CONTINUOUS
10
0.753202
20
-0.0656168
11
0.762576
21
-0.0656168
0
LINE
8
BLACK
6
CONTINUOUS
10
0.762576
20
-0.0656168
11
0.770075
21
-0.0674915
0
LINE
8
BLACK
6
CONTINUOUS
10
0.770075
20
-0.0674915
11
0.773824
21
-0.0693663
0
LINE
8
BLACK
6
CONTINUOUS
10
0.773824
20
-0.0693663
11
0.775699
21
-0.0712411
0
LINE
8
BLACK
6
CONTINUOUS
10
0.775699
20
-0.0712411
11
0.777574
21
-0.0749906
0
LINE
8
BLACK
6
CONTINUOUS
10
0.777574
20
-0.0749906
11
0.777574
21
-0.0787402
0
LINE
8
BLACK
6
CONTINUOUS
10
0.777574
20
-0.0787402
11
0.775699
21
-0.0824897
0
LINE
8
BLACK
6
CONTINUOUS
10
0.775699
20
-0.0824897
11
0.773824
21
-0.0843644
0
LINE
8
BLACK
6
CONTINUOUS
10
0.773824
20
-0.0843644
11
0.770075
21
-0.0862392
0
LINE
8
BLACK
6
CONTINUOUS
10
0.770075
20
-0.0862392
11
0.762576
21
-0.088114
0
LINE
8
BLACK
6
CONTINUOUS
10
0.762576
20
-0.088114
11
0.753202
21
-0.088114
0
LINE
8
BLACK
6
CONTINUOUS
10
0.753202
20
-0.088114
11
0.745703
21
-0.0862392
0
LINE
8
BLACK
6
CONTINUOUS
10
0.745703
20
-0.0862392
11
0.741954
21
-0.0843644
0
LINE
8
BLACK
6
CONTINUOUS
10
0.741954
20
-0.0843644
11
0.740079
21
-0.0824897
0
LINE
8
BLACK
6
CONTINUOUS
10
0.740079
20
-0.0824897
11
0.738204
21
-0.0787402
0
LINE
8
BLACK
6
CONTINUOUS
10
0.738204
20
-0.0412448
11
0.738204
21
-0.0374953
0
LINE
8
BLACK
6
CONTINUOUS
10
0.738204
20
-0.0374953
11
0.740079
21
-0.0337457
0
LINE
8
BLACK
6
CONTINUOUS
10
0.740079
20
-0.0337457
11
0.741954
21
-0.031871
0
LINE
8
BLACK
6
CONTINUOUS
10
0.741954
20
-0.031871
11
0.745703
21
-0.0299962
0
LINE
8
BLACK
6
CONTINUOUS
10
0.745703
20
-0.0299962
11
0.753202
21
-0.0281215
0
LINE
8
BLACK
6
CONTINUOUS
10
0.753202
20
-0.0281215
11
0.762576
21
-0.0281215
0
LINE
8
BLACK
6
CONTINUOUS
10
0.762576
20
-0.0281215
11
0.770075
21
-0.0299962
0
LINE
8
BLACK
6
CONTINUOUS
10
0.770075
20
-0.0299962
11
0.773824
21
-0.031871
0
LINE
8
BLACK
6
CONTINUOUS
10
0.773824
20
-0.031871
11
0.775699
21
-0.0337457
0
LINE
8
BLACK
6
CONTINUOUS
10
0.775699
20
-0.0337457
11
0.777574
21
-0.0374953
0
LINE
8
BLACK
6
CONTINUOUS
10
0.777574
20
-0.0374953
11
0.777574
21
-0.0412448
0
LINE
8
BLACK
6
CONTINUOUS
10
0.777574
20
-0.0412448
11
0.775699
21
-0.0449944
0
LINE
8
BLACK
6
CONTINUOUS
10
0.775699
20
-0.0449944
11
0.773824
21
-0.0468691
0
LINE
8
BLACK
6
CONTINUOUS
10
0.773824
20
-0.0468691
11
0.770075
21
-0.0487439
0
LINE
8
BLACK
6
CONTINUOUS
10
0.770075
20
-0.0487439
11
0.762576
21
-0.0506187
0
LINE
8
BLACK
6
CONTINUOUS
10
0.762576
20
-0.0506187
11
0.753202
21
-0.0506187
0
LINE
8
BLACK
6
CONTINUOUS
10
0.753202
20
-0.0506187
11
0.745703
21
-0.0487439
0
LINE
8
BLACK
6
CONTINUOUS
10
0.745703
20
-0.0487439
11
0.741954
21
-0.0468691
0
LINE
8
BLACK
6
CONTINUOUS
10
0.741954
20
-0.0468691
11
0.740079
21
-0.0449944
0
LINE
8
BLACK
6
CONTINUOUS
10
0.740079
20
-0.0449944
11
0.738204
21
-0.0412448
0
LINE
8
BLACK
6
CONTINUOUS
10
0.738204
20
-0.00374953
11
0.738204
21
0
0
LINE
8
BLACK
6
CONTINUOUS
10
0.738204
20
0
11
0.740079
21
0.00374957
0
LINE
8
BLACK
6
CONTINUOUS
10
0.740079
20
0.00374957
11
0.741954
21
0.00562433
0
LINE
8
BLACK
6
CONTINUOUS
10
0.741954
20
0.00562433
11
0.745703
21
0.00749909
0
LINE
8
BLACK
6
CONTINUOUS
10
0.745703
20
0.00749909
11
0.753202
21
0.00937386
0
LINE
8
BLACK
6
CONTINUOUS
10
0.753202
20
0.00937386
11
0.762576
21
0.00937386
0
LINE
8
BLACK
6
CONTINUOUS
10
0.762576
20
0.00937386
11
0.770075
21
0.00749909
0
LINE
8
BLACK
6
CONTINUOUS
10
0.770075
20
0.00749909
11
0.773824
21
0.00562433
0
LINE
8
BLACK
6
CONTINUOUS
10
0.773824
20
0.00562433
11
0.775699
21
0.00374957
0
LINE
8
BLACK
6
CONTINUOUS
10
0.775699
20
0.00374957
11
0.777574
21
0
0
LINE
8
BLACK
6
CONTINUOUS
10
0.777574
20
0
11
0.777574
21
-0.00374953
0
LINE
8
BLACK
6
CONTINUOUS
10
0.777574
20
-0.00374953
11
0.775699
21
-0.00749906
0
LINE
8
BLACK
6
CONTINUOUS
10
0.775699
20
-0.00749906
11
0.773824
21
-0.00937382
0
LINE
8
BLACK
6
CONTINUOUS
10
0.773824
20
-0.00937382
11
0.770075
21
-0.0112486
0
LINE
8
BLACK
6
CONTINUOUS
10
0.770075
20
-0.0112486
11
0.762576
21
-0.0131233
0
LINE
8
BLACK
6
CONTINUOUS
10
0.762576
20
-0.0131233
11
0.753202
21
-0.0131233
0
LINE
8
BLACK
6
CONTINUOUS
10
0.753202
20
-0.0131233
11
0.745703
21
-0.0112486
0
LINE
8
BLACK
6
CONTINUOUS
10
0.745703
20
-0.0112486
11
0.741954
21
-0.00937382
0
LINE
8
BLACK
6
CONTINUOUS
10
0.741954
20
-0.00937382
11
0.740079
21
-0.00749906
0
LINE
8
BLACK
6
CONTINUOUS
10
0.740079
20
-0.00749906
11
0.738204
21
-0.00374953
0
LINE
8
BLACK
6
CONTINUOUS
10
0.738204
20
0.0337458
11
0.738204
21
0.0374953
0
LINE
8
BLACK
6
CONTINUOUS
10
0.738204
20
0.0374953
11
0.740079
21
0.0412449
0
LINE
8
BLACK
6
CONTINUOUS
10
0.740079
20
0.0412449
11
0.741954
21
0.0431196
0
LINE
8
BLACK
6
CONTINUOUS
10
0.741954
20
0.0431196
11
0.745703
21
0.0449944
0
LINE
8
BLACK
6
CONTINUOUS
10
0.745703
20
0.0449944
11
0.753202
21
0.0468692
0
LINE
8
BLACK
6
CONTINUOUS
10
0.753202
20
0.0468692
11
0.762576
21
0.0468692
0
LINE
8
BLACK
6
CONTINUOUS
10
0.762576
20
0.0468692
11
0.770075
21
0.0449944
0
LINE
8
BLACK
6
CONTINUOUS
10
0.770075
20
0.0449944
11
0.773824
21
0.0431196
0
LINE
8
BLACK
6
CONTINUOUS
10
0.773824
20
0.0431196
11
0.775699
21
0.0412449
0
LINE
8
BLACK
6
CONTINUOUS
10
0.775699
20
0.0412449
11
0.777574
21
0.0374953
0
LINE
8
BLACK
6
CONTINUOUS
10
0.777574
20
0.0374953
11
0.777574
21
0.0337458
0
LINE
8
BLACK
6
CONTINUOUS
10
0.777574
20
0.0337458
11
0.775699
21
0.0299963
0
LINE
8
BLACK
6
CONTINUOUS
10
0.775699
20
0.0299963
11
0.773824
21
0.0281215
0
LINE
8
BLACK
6
CONTINUOUS
10
0.773824
20
0.0281215
11
0.770075
21
0.0262467
0
LINE
8
BLACK
6
CONTINUOUS
10
0.770075
20
0.0262467
11
0.762576
21
0.024372
0
LINE
8
BLACK
6
CONTINUOUS
10
0.762576
20
0.024372
11
0.753202
21
0.024372
0
LINE
8
BLACK
6
CONTINUOUS
10
0.753202
20
0.024372
11
0.745703
21
0.0262467
0
LINE
8
BLACK
6
CONTINUOUS
10
0.745703
20
0.0262467
11
0.741954
21
0.0281215
0
LINE
8
BLACK
6
CONTINUOUS
10
0.741954
20
0.0281215
11
0.740079
21
0.0299963
0
LINE
8
BLACK
6
CONTINUOUS
10
0.740079
20
0.0299963
11
0.738204
21
0.0337458
0
LINE
8
BLACK
6
CONTINUOUS
10
0.777574
20
0.0937383
11
0.751327
21
0.0937383
0
LINE
8
BLACK
6
CONTINUOUS
10
0.755077
20
0.0937383
11
0.753202
21
0.0956131
0
LINE
8
BLACK
6
CONTINUOUS
10
0.753202
20
0.0956131
11
0.751327
21
0.0993626
0
LINE
8
BLACK
6
CONTINUOUS
10
0.751327
20
0.0993626
11
0.751327
21
0.104987
0
LINE
8
BLACK
6
CONTINUOUS
10
0.751327
20
0.104987
11
0.753202
21
0.108736
0
LINE
8
BLACK
6
CONTINUOUS
10
0.753202
20
0.108736
11
0.756952
21
0.110611
0
LINE
8
BLACK
6
CONTINUOUS
10
0.756952
20
0.110611
11
0.777574
21
0.110611
0
LINE
8
BLACK
6
CONTINUOUS
10
0.756952
20
0.110611
11
0.753202
21
0.112486
0
LINE
8
BLACK
6
CONTINUOUS
10
0.753202
20
0.112486
11
0.751327
21
0.116235
0
LINE
8
BLACK
6
CONTINUOUS
10
0.751327
20
0.116235
11
0.751327
21
0.12186
0
LINE
8
BLACK
6
CONTINUOUS
10
0.751327
20
0.12186
11
0.753202
21
0.125609
0
LINE
8
BLACK
6
CONTINUOUS
10
0.753202
20
0.125609
11
0.756952
21
0.127484
0
LINE
8
BLACK
6
CONTINUOUS
10
0.756952
20
0.127484
11
0.777574
21
0.127484
0
LINE
8
BLACK
6
CONTINUOUS
10
0.777574
20
0.146232
11
0.751327
21
0.146232
0
LINE
8
BLACK
6
CONTINUOUS
10
0.755077
20
0.146232
11
0.753202
21
0.148106
0
LINE
8
BLACK
6
CONTINUOUS
10
0.753202
20
0.148106
11
0.751327
21
0.151856
0
LINE
8
BLACK
6
CONTINUOUS
10
0.751327
20
0.151856
11
0.751327
21
0.15748
0
LINE
8
BLACK
6
CONTINUOUS
10
0.751327
20
0.15748
11
0.753202
21
0.16123
0
LINE
8
BLACK
6
CONTINUOUS
10
0.753202
20
0.16123
11
0.756952
21
0.163105
0
LINE
8
BLACK
6
CONTINUOUS
10
0.756952
20
0.163105
11
0.777574
21
0.163105
0
LINE
8
BLACK
6
CONTINUOUS
10
0.756952
20
0.163105
11
0.753202
21
0.164979
0
LINE
8
BLACK
6
CONTINUOUS
10
0.753202
20
0.164979
11
0.751327
21
0.168729
0
LINE
8
BLACK
6
CONTINUOUS
10
0.751327
20
0.168729
11
0.751327
21
0.174353
0
LINE
8
BLACK
6
CONTINUOUS
10
0.751327
20
0.174353
11
0.753202
21
0.178103
0
LINE
8
BLACK
6
CONTINUOUS
10
0.753202
20
0.178103
11
0.756952
21
0.179978
0
LINE
8
BLACK
6
CONTINUOUS
10
0.756952
20
0.179978
11
0.777574
21
0.179978
0
LINE
8
BLACK
6
CONTINUOUS
10
0.019685
20
-0.472441
11
0.737576
21
-0.472441
0
LINE
8
BLACK
6
CONTINUOUS
10
0.019685
20
0.472441
11
0.737576
21
0.472441
0
LINE
8
BLACK
6
CONTINUOUS
10
0.714488
20
-0.472441
11
0.714488
21
0.472441
0
LINE
8
BLACK
6
CONTINUOUS
10
0.714488
20
-0.472441
11
0.714488
21
0.472441
0
LINE
8
BLACK
6
CONTINUOUS
10
0.714488
20
-0.472441
11
0.737576
21
-0.42809
0
LINE
8
BLACK
6
CONTINUOUS
10
0.714488
20
-0.472441
11
0.691401
21
-0.42809
0
LINE
8
BLACK
6
CONTINUOUS
10
0.714488
20
0.472441
11
0.691401
21
0.42809
0
LINE
8
BLACK
6
CONTINUOUS
10
0.714488
20
0.472441
11
0.737576
21
0.42809
0
LINE
8
BLACK
6
CONTINUOUS
10
0.854204
20
-0.183727
11
0.854204
21
-0.159355
0
LINE
8
BLACK
6
CONTINUOUS
10
0.854204
20
-0.159355
11
0.869202
21
-0.172478
0
LINE
8
BLACK
6
CONTINUOUS
10
0.869202
20
-0.172478
11
0.869202
21
-0.166854
0
LINE
8
BLACK
6
CONTINUOUS
10
0.869202
20
-0.166854
11
0.871077
21
-0.163105
0
LINE
8
BLACK
6
CONTINUOUS
10
0.871077
20
-0.163105
11
0.872952
21
-0.16123
0
LINE
8
BLACK
6
CONTINUOUS
10
0.872952
20
-0.16123
11
0.876701
21
-0.159355
0
LINE
8
BLACK
6
CONTINUOUS
10
0.876701
20
-0.159355
11
0.886075
21
-0.159355
0
LINE
8
BLACK
6
CONTINUOUS
10
0.886075
20
-0.159355
11
0.889824
21
-0.16123
0
LINE
8
BLACK
6
CONTINUOUS
10
0.889824
20
-0.16123
11
0.891699
21
-0.163105
0
LINE
8
BLACK
6
CONTINUOUS
10
0.891699
20
-0.163105
11
0.893574
21
-0.166854
0
LINE
8
BLACK
6
CONTINUOUS
10
0.893574
20
-0.166854
11
0.893574
21
-0.178103
0
LINE
8
BLACK
6
CONTINUOUS
10
0.893574
20
-0.178103
11
0.891699
21
-0.181852
0
LINE
8
BLACK
6
CONTINUOUS
10
0.891699
20
-0.181852
11
0.889824
21
-0.183727
0
LINE
8
BLACK
6
CONTINUOUS
10
0.857954
20
-0.144357
11
0.856079
21
-0.142482
0
LINE
8
BLACK
6
CONTINUOUS
10
0.856079
20
-0.142482
11
0.854204
21
-0.138733
0
LINE
8
BLACK
6
CONTINUOUS
10
0.854204
20
-0.138733
11
0.854204
21
-0.129359
0
LINE
8
BLACK
6
CONTINUOUS
10
0.854204
20
-0.129359
11
0.856079
21
-0.125609
0
LINE
8
BLACK
6
CONTINUOUS
10
0.856079
20
-0.125609
11
0.857954
21
-0.123735
0
LINE
8
BLACK
6
CONTINUOUS
10
0.857954
20
-0.123735
11
0.861703
21
-0.12186
0
LINE
8
BLACK
6
CONTINUOUS
10
0.861703
20
-0.12186
11
0.865453
21
-0.12186
0
LINE
8
BLACK
6
CONTINUOUS
10
0.865453
20
-0.12186
11
0.871077
21
-0.123735
0
LINE
8
BLACK
6
CONTINUOUS
10
0.871077
20
-0.123735
11
0.893574
21
-0.146232
0
LINE
8
BLACK
6
CONTINUOUS
10
0.893574
20
-0.146232
11
0.893574
21
-0.12186
0
LINE
8
BLACK
6
CONTINUOUS
10
0.891699
20
-0.103112
11
0.893574
21
-0.103112
0
LINE
8
BLACK
6
CONTINUOUS
10
0.893574
20
-0.103112
11
0.897324
21
-0.104987
0
LINE
8
BLACK
6
CONTINUOUS
10
0.897324
20
-0.104987
11
0.899198
21
-0.106862
0
LINE
8
BLACK
6
CONTINUOUS
10
0.854204
20
-0.0787402
11
0.854204
21
-0.0749906
0
LINE
8
BLACK
6
CONTINUOUS
10
0.854204
20
-0.0749906
11
0.856079
21
-0.0712411
0
LINE
8
BLACK
6
CONTINUOUS
10
0.856079
20
-0.0712411
11
0.857954
21
-0.0693663
0
LINE
8
BLACK
6
CONTINUOUS
10
0.857954
20
-0.0693663
11
0.861703
21
-0.0674915
0
LINE
8
BLACK
6
CONTINUOUS
10
0.861703
20
-0.0674915
11
0.869202
21
-0.0656168
0
LINE
8
BLACK
6
CONTINUOUS
10
0.869202
20
-0.0656168
11
0.878576
21
-0.0656168
0
LINE
8
BLACK
6
CONTINUOUS
10
0.878576
20
-0.0656168
11
0.886075
21
-0.0674915
0
LINE
8
BLACK
6
CONTINUOUS
10
0.886075
20
-0.0674915
11
0.889824
21
-0.0693663
0
LINE
8
BLACK
6
CONTINUOUS
10
0.889824
20
-0.0693663
11
0.891699
21
-0.0712411
0
LINE
8
BLACK
6
CONTINUOUS
10
0.891699
20
-0.0712411
11
0.893574
21
-0.0749906
0
LINE
8
BLACK
6
CONTINUOUS
10
0.893574
20
-0.0749906
11
0.893574
21
-0.0787402
0
LINE
8
BLACK
6
CONTINUOUS
10
0.893574
20
-0.0787402
11
0.891699
21
-0.0824897
0
LINE
8
BLACK
6
CONTINUOUS
10
0.891699
20
-0.0824897
11
0.889824
21
-0.0843644
0
LINE
8
BLACK
6
CONTINUOUS
10
0.889824
20
-0.0843644
11
0.886075
21
-0.0862392
0
LINE
8
BLACK
6
CONTINUOUS
10
0.886075
20
-0.0862392
11
0.878576
21
-0.088114
0
LINE
8
BLACK
6
CONTINUOUS
10
0.878576
20
-0.088114
11
0.869202
21
-0.088114
0
LINE
8
BLACK
6
CONTINUOUS
10
0.869202
20
-0.088114
11
0.861703
21
-0.0862392
0
LINE
8
BLACK
6
CONTINUOUS
10
0.861703
20
-0.0862392
11
0.857954
21
-0.0843644
0
LINE
8
BLACK
6
CONTINUOUS
10
0.857954
20
-0.0843644
11
0.856079
21
-0.0824897
0
LINE
8
BLACK
6
CONTINUOUS
10
0.856079
20
-0.0824897
11
0.854204
21
-0.0787402
0
LINE
8
BLACK
6
CONTINUOUS
10
0.854204
20
-0.0412448
11
0.854204
21
-0.0374953
0
LINE
8
BLACK
6
CONTINUOUS
10
0.854204
20
-0.0374953
11
0.856079
21
-0.0337457
0
LINE
8
BLACK
6
CONTINUOUS
10
0.856079
20
-0.0337457
11
0.857954
21
-0.031871
0
LINE
8
BLACK
6
CONTINUOUS
10
0.857954
20
-0.031871
11
0.861703
21
-0.0299962
0
LINE
8
BLACK
6
CONTINUOUS
10
0.861703
20
-0.0299962
11
0.869202
21
-0.0281215
0
LINE
8
BLACK
6
CONTINUOUS
10
0.869202
20
-0.0281215
11
0.878576
21
-0.0281215
0
LINE
8
BLACK
6
CONTINUOUS
10
0.878576
20
-0.0281215
11
0.886075
21
-0.0299962
0
LINE
8
BLACK
6
CONTINUOUS
10
0.886075
20
-0.0299962
11
0.889824
21
-0.031871
0
LINE
8
BLACK
6
CONTINUOUS
10
0.889824
20
-0.031871
11
0.891699
21
-0.0337457
0
LINE
8
BLACK
6
CONTINUOUS
10
0.891699
20
-0.0337457
11
0.893574
21
-0.0374953
0
LINE
8
BLACK
6
CONTINUOUS
10
0.893574
20
-0.0374953
11
0.893574
21
-0.0412448
0
LINE
8
BLACK
6
CONTINUOUS
10
0.893574
20
-0.0412448
11
0.891699
21
-0.0449944
0
LINE
8
BLACK
6
CONTINUOUS
10
0.891699
20
-0.0449944
11
0.889824
21
-0.0468691
0
LINE
8
BLACK
6
CONTINUOUS
10
0.889824
20
-0.0468691
11
0.886075
21
-0.0487439
0
LINE
8
BLACK
6
CONTINUOUS
10
0.886075
20
-0.0487439
11
0.878576
21
-0.0506187
0
LINE
8
BLACK
6
CONTINUOUS
10
0.878576
20
-0.0506187
11
0.869202
21
-0.0506187
0
LINE
8
BLACK
6
CONTINUOUS
10
0.869202
20
-0.0506187
11
0.861703
21
-0.0487439
0
LINE
8
BLACK
6
CONTINUOUS
10
0.861703
20
-0.0487439
11
0.857954
21
-0.0468691
0
LINE
8
BLACK
6
CONTINUOUS
10
0.857954
20
-0.0468691
11
0.856079
21
-0.0449944
0
LINE
8
BLACK
6
CONTINUOUS
10
0.856079
20
-0.0449944
11
0.854204
21
-0.0412448
0
LINE
8
BLACK
6
CONTINUOUS
10
0.854204
20
-0.00374953
11
0.854204
21
0
0
LINE
8
BLACK
6
CONTINUOUS
10
0.854204
20
0
11
0.856079
21
0.00374957
0
LINE
8
BLACK
6
CONTINUOUS
10
0.856079
20
0.00374957
11
0.857954
21
0.00562433
0
LINE
8
BLACK
6
CONTINUOUS
10
0.857954
20
0.00562433
11
0.861703
21
0.00749909
0
LINE
8
BLACK
6
CONTINUOUS
10
0.861703
20
0.00749909
11
0.869202
21
0.00937386
0
LINE
8
BLACK
6
CONTINUOUS
10
0.869202
20
0.00937386
11
0.878576
21
0.00937386
0
LINE
8
BLACK
6
CONTINUOUS
10
0.878576
20
0.00937386
11
0.886075
21
0.00749909
0
LINE
8
BLACK
6
CONTINUOUS
10
0.886075
20
0.00749909
11
0.889824
21
0.00562433
0
LINE
8
BLACK
6
CONTINUOUS
10
0.889824
20
0.00562433
11
0.891699
21
0.00374957
0
LINE
8
BLACK
6
CONTINUOUS
10
0.891699
20
0.00374957
11
0.893574
21
0
0
LINE
8
BLACK
6
CONTINUOUS
10
0.893574
20
0
11
0.893574
21
-0.00374953
0
LINE
8
BLACK
6
CONTINUOUS
10
0.893574
20
-0.00374953
11
0.891699
21
-0.00749906
0
LINE
8
BLACK
6
CONTINUOUS
10
0.891699
20
-0.00749906
11
0.889824
21
-0.00937382
0
LINE
8
BLACK
6
CONTINUOUS
10
0.889824
20
-0.00937382
11
0.886075
21
-0.0112486
0
LINE
8
BLACK
6
CONTINUOUS
10
0.886075
20
-0.0112486
11
0.878576
21
-0.0131233
0
LINE
8
BLACK
6
CONTINUOUS
10
0.878576
20
-0.0131233
11
0.869202
21
-0.0131233
0
LINE
8
BLACK
6
CONTINUOUS
10
0.869202
20
-0.0131233
11
0.861703
21
-0.0112486
0
LINE
8
BLACK
6
CONTINUOUS
10
0.861703
20
-0.0112486
11
0.857954
21
-0.00937382
0
LINE
8
BLACK
6
CONTINUOUS
10
0.857954
20
-0.00937382
11
0.856079
21
-0.00749906
0
LINE
8
BLACK
6
CONTINUOUS
10
0.856079
20
-0.00749906
11
0.854204
21
-0.00374953
0
LINE
8
BLACK
6
CONTINUOUS
10
0.854204
20
0.0337458
11
0.854204
21
0.0374953
0
LINE
8
BLACK
6
CONTINUOUS
10
0.854204
20
0.0374953
11
0.856079
21
0.0412449
0
LINE
8
BLACK
6
CONTINUOUS
10
0.856079
20
0.0412449
11
0.857954
21
0.0431196
0
LINE
8
BLACK
6
CONTINUOUS
10
0.857954
20
0.0431196
11
0.861703
21
0.0449944
0
LINE
8
BLACK
6
CONTINUOUS
10
0.861703
20
0.0449944
11
0.869202
21
0.0468692
0
LINE
8
BLACK
6
CONTINUOUS
10
0.869202
20
0.0468692
11
0.878576
21
0.0468692
0
LINE
8
BLACK
6
CONTINUOUS
10
0.878576
20
0.0468692
11
0.886075
21
0.0449944
0
LINE
8
BLACK
6
CONTINUOUS
10
0.886075
20
0.0449944
11
0.889824
21
0.0431196
0
LINE
8
BLACK
6
CONTINUOUS
10
0.889824
20
0.0431196
11
0.891699
21
0.0412449
0
LINE
8
BLACK
6
CONTINUOUS
10
0.891699
20
0.0412449
11
0.893574
21
0.0374953
0
LINE
8
BLACK
6
CONTINUOUS
10
0.893574
20
0.0374953
11
0.893574
21
0.0337458
0
LINE
8
BLACK
6
CONTINUOUS
10
0.893574
20
0.0337458
11
0.891699
21
0.0299963
0
LINE
8
BLACK
6
CONTINUOUS
10
0.891699
20
0.0299963
11
0.889824
21
0.0281215
0
LINE
8
BLACK
6
CONTINUOUS
10
0.889824
20
0.0281215
11
0.886075
21
0.0262467
0
LINE
8
BLACK
6
CONTINUOUS
10
0.886075
20
0.0262467
11
0.878576
21
0.024372
0
LINE
8
BLACK
6
CONTINUOUS
10
0.878576
20
0.024372
11
0.869202
21
0.024372
0
LINE
8
BLACK
6
CONTINUOUS
10
0.869202
20
0.024372
11
0.861703
21
0.0262467
0
LINE
8
BLACK
6
CONTINUOUS
10
0.861703
20
0.0262467
11
0.857954
21
0.0281215
0
LINE
8
BLACK
6
CONTINUOUS
10
0.857954
20
0.0281215
11
0.856079
21
0.0299963
0
LINE
8
BLACK
6
CONTINUOUS
10
0.856079
20
0.0299963
11
0.854204
21
0.0337458
0
LINE
8
BLACK
6
CONTINUOUS
10
0.893574
20
0.0937383
11
0.867327
21
0.0937383
0
LINE
8
BLACK
6
CONTINUOUS
10
0.871077
20
0.0937383
11
0.869202
21
0.0956131
0
LINE
8
BLACK
6
CONTINUOUS
10
0.869202
20
0.0956131
11
0.867327
21
0.0993626
0
LINE
8
BLACK
6
CONTINUOUS
10
0.867327
20
0.0993626
11
0.867327
21
0.104987
0
LINE
8
BLACK
6
CONTINUOUS
10
0.867327
20
0.104987
11
0.869202
21
0.108736
0
LINE
8
BLACK
6
CONTINUOUS
10
0.869202
20
0.108736
11
0.872952
21
0.110611
0
LINE
8
BLACK
6
CONTINUOUS
10
0.872952
20
0.110611
11
0.893574
21
0.110611
0
LINE
8
BLACK
6
CONTINUOUS
10
0.872952
20
0.110611
11
0.869202
21
0.112486
0
LINE
8
BLACK
6
CONTINUOUS
10
0.869202
20
0.112486
11
0.867327
21
0.116235
0
LINE
8
BLACK
6
CONTINUOUS
10
0.867327
20
0.116235
11
0.867327
21
0.12186
0
LINE
8
BLACK
6
CONTINUOUS
10
0.867327
20
0.12186
11
0.869202
21
0.125609
0
LINE
8
BLACK
6
CONTINUOUS
10
0.869202
20
0.125609
11
0.872952
21
0.127484
0
LINE
8
BLACK
6
CONTINUOUS
10
0.872952
20
0.127484
11
0.893574
21
0.127484
0
LINE
8
BLACK
6
CONTINUOUS
10
0.893574
20
0.146232
11
0.867327
21
0.146232
0
LINE
8
BLACK
6
CONTINUOUS
10
0.871077
20
0.146232
11
0.869202
21
0.148106
0
LINE
8
BLACK
6
CONTINUOUS
10
0.869202
20
0.148106
11
0.867327
21
0.151856
0
LINE
8
BLACK
6
CONTINUOUS
10
0.867327
20
0.151856
11
0.867327
21
0.15748
0
LINE
8
BLACK
6
CONTINUOUS
10
0.867327
20
0.15748
11
0.869202
21
0.16123
0
LINE
8
BLACK
6
CONTINUOUS
10
0.869202
20
0.16123
11
0.872952
21
0.163105
0
LINE
8
BLACK
6
CONTINUOUS
10
0.872952
20
0.163105
11
0.893574
21
0.163105
0
LINE
8
BLACK
6
CONTINUOUS
10
0.872952
20
0.163105
11
0.869202
21
0.164979
0
LINE
8
BLACK
6
CONTINUOUS
10
0.869202
20
0.164979
11
0.867327
21
0.168729
0
LINE
8
BLACK
6
CONTINUOUS
10
0.867327
20
0.168729
11
0.867327
21
0.174353
0
LINE
8
BLACK
6
CONTINUOUS
10
0.867327
20
0.174353
11
0.869202
21
0.178103
0
LINE
8
BLACK
6
CONTINUOUS
10
0.869202
20
0.178103
11
0.872952
21
0.179978
0
LINE
8
BLACK
6
CONTINUOUS
10
0.872952
20
0.179978
11
0.893574
21
0.179978
0
LINE
8
BLACK
6
CONTINUOUS
10
0.019685
20
-0.629921
11
0.853576
21
-0.629921
0
LINE
8
BLACK
6
CONTINUOUS
10
0.019685
20
0.629921
11
0.853576
21
0.629921
0
LINE
8
BLACK
6
CONTINUOUS
10
0.830488
20
-0.629921
11
0.830488
21
0.629921
0
LINE
8
BLACK
6
CONTINUOUS
10
0.830488
20
-0.629921
11
0.830488
21
0.629921
0
LINE
8
BLACK
6
CONTINUOUS
10
0.830488
20
-0.629921
11
0.853576
21
-0.585571
0
LINE
8
BLACK
6
CONTINUOUS
10
0.830488
20
-0.629921
11
0.807401
21
-0.585571
0
LINE
8
BLACK
6
CONTINUOUS
10
0.830488
20
0.629921
11
0.807401
21
0.585571
0
LINE
8
BLACK
6
CONTINUOUS
10
0.830488
20
0.629921
11
0.853576
21
0.585571
0
LINE
8
BLACK
6
CONTINUOUS
10
0.74805
20
-0.925775
11
0.733069
21
-0.942559
0
LINE
8
BLACK
6
CONTINUOUS
10
0.740559
20
-0.934167
11
0.711187
21
-0.90795
0
LINE
8
BLACK
6
CONTINUOUS
10
0.711187
20
-0.90795
11
0.712887
21
-0.914493
0
LINE
8
BLACK
6
CONTINUOUS
10
0.712887
20
-0.914493
11
0.713187
21
-0.919787
0
LINE
8
BLACK
6
CONTINUOUS
10
0.713187
20
-0.919787
11
0.712089
21
-0.923833
0
LINE
8
BLACK
6
CONTINUOUS
10
0.741149
20
-0.874382
11
0.736155
21
-0.879977
0
LINE
8
BLACK
6
CONTINUOUS
10
0.736155
20
-0.879977
11
0.735057
21
-0.884023
0
LINE
8
BLACK
6
CONTINUOUS
10
0.735057
20
-0.884023
11
0.735207
21
-0.88667
0
LINE
8
BLACK
6
CONTINUOUS
10
0.735207
20
-0.88667
11
0.736907
21
-0.893212
0
LINE
8
BLACK
6
CONTINUOUS
10
0.736907
20
-0.893212
11
0.741253
21
-0.899605
0
LINE
8
BLACK
6
CONTINUOUS
10
0.741253
20
-0.899605
11
0.752442
21
-0.909592
0
LINE
8
BLACK
6
CONTINUOUS
10
0.752442
20
-0.909592
11
0.756488
21
-0.91069
0
LINE
8
BLACK
6
CONTINUOUS
10
0.756488
20
-0.91069
11
0.759135
21
-0.91054
0
LINE
8
BLACK
6
CONTINUOUS
10
0.759135
20
-0.91054
11
0.76303
21
-0.908991
0
LINE
8
BLACK
6
CONTINUOUS
10
0.76303
20
-0.908991
11
0.768024
21
-0.903396
0
LINE
8
BLACK
6
CONTINUOUS
10
0.768024
20
-0.903396
11
0.769122
21
-0.89935
0
LINE
8
BLACK
6
CONTINUOUS
10
0.769122
20
-0.89935
11
0.768972
21
-0.896703
0
LINE
8
BLACK
6
CONTINUOUS
10
0.768972
20
-0.896703
11
0.767423
21
-0.892808
0
LINE
8
BLACK
6
CONTINUOUS
10
0.767423
20
-0.892808
11
0.76043
21
-0.886566
0
LINE
8
BLACK
6
CONTINUOUS
10
0.76043
20
-0.886566
11
0.756384
21
-0.885468
0
LINE
8
BLACK
6
CONTINUOUS
10
0.756384
20
-0.885468
11
0.753737
21
-0.885618
0
LINE
8
BLACK
6
CONTINUOUS
10
0.753737
20
-0.885618
11
0.749841
21
-0.887167
0
LINE
8
BLACK
6
CONTINUOUS
10
0.749841
20
-0.887167
11
0.744848
21
-0.892762
0
LINE
8
BLACK
6
CONTINUOUS
10
0.744848
20
-0.892762
11
0.74375
21
-0.896807
0
LINE
8
BLACK
6
CONTINUOUS
10
0.74375
20
-0.896807
11
0.7439
21
-0.899454
0
LINE
8
BLACK
6
CONTINUOUS
10
0.7439
20
-0.899454
11
0.745449
21
-0.90335
0
LINE
8
BLACK
6
CONTINUOUS
10
0.784103
20
-0.882566
11
0.785501
21
-0.883815
0
LINE
8
BLACK
6
CONTINUOUS
10
0.785501
20
-0.883815
11
0.78705
21
-0.88771
0
LINE
8
BLACK
6
CONTINUOUS
10
0.78705
20
-0.88771
11
0.787201
21
-0.890357
0
LINE
8
BLACK
6
CONTINUOUS
10
0.768914
20
-0.848906
11
0.768764
21
-0.846259
0
LINE
8
BLACK
6
CONTINUOUS
10
0.768764
20
-0.846259
11
0.769862
21
-0.842213
0
LINE
8
BLACK
6
CONTINUOUS
10
0.769862
20
-0.842213
11
0.776104
21
-0.83522
0
LINE
8
BLACK
6
CONTINUOUS
10
0.776104
20
-0.83522
11
0.779999
21
-0.833671
0
LINE
8
BLACK
6
CONTINUOUS
10
0.779999
20
-0.833671
11
0.782646
21
-0.833521
0
LINE
8
BLACK
6
CONTINUOUS
10
0.782646
20
-0.833521
11
0.786692
21
-0.834619
0
LINE
8
BLACK
6
CONTINUOUS
10
0.786692
20
-0.834619
11
0.789489
21
-0.837116
0
LINE
8
BLACK
6
CONTINUOUS
10
0.789489
20
-0.837116
11
0.792437
21
-0.842259
0
LINE
8
BLACK
6
CONTINUOUS
10
0.792437
20
-0.842259
11
0.79424
21
-0.874024
0
LINE
8
BLACK
6
CONTINUOUS
10
0.79424
20
-0.874024
11
0.810469
21
-0.855841
0
LINE
8
BLACK
6
CONTINUOUS
10
0.835437
20
-0.827868
11
0.820457
21
-0.844652
0
LINE
8
BLACK
6
CONTINUOUS
10
0.827947
20
-0.83626
11
0.798575
21
-0.810044
0
LINE
8
BLACK
6
CONTINUOUS
10
0.798575
20
-0.810044
11
0.800274
21
-0.816586
0
LINE
8
BLACK
6
CONTINUOUS
10
0.800274
20
-0.816586
11
0.800575
21
-0.821881
0
LINE
8
BLACK
6
CONTINUOUS
10
0.800575
20
-0.821881
11
0.799477
21
-0.825926
0
LINE
8
BLACK
6
CONTINUOUS
10
0.833634
20
-0.796104
11
0.829739
21
-0.797652
0
LINE
8
BLACK
6
CONTINUOUS
10
0.829739
20
-0.797652
11
0.827091
21
-0.797803
0
LINE
8
BLACK
6
CONTINUOUS
10
0.827091
20
-0.797803
11
0.823046
21
-0.796705
0
LINE
8
BLACK
6
CONTINUOUS
10
0.823046
20
-0.796705
11
0.821647
21
-0.795456
0
LINE
8
BLACK
6
CONTINUOUS
10
0.821647
20
-0.795456
11
0.820098
21
-0.791561
0
LINE
8
BLACK
6
CONTINUOUS
10
0.820098
20
-0.791561
11
0.819948
21
-0.788914
0
LINE
8
BLACK
6
CONTINUOUS
10
0.819948
20
-0.788914
11
0.821046
21
-0.784868
0
LINE
8
BLACK
6
CONTINUOUS
10
0.821046
20
-0.784868
11
0.82604
21
-0.779273
0
LINE
8
BLACK
6
CONTINUOUS
10
0.82604
20
-0.779273
11
0.829935
21
-0.777724
0
LINE
8
BLACK
6
CONTINUOUS
10
0.829935
20
-0.777724
11
0.832582
21
-0.777574
0
LINE
8
BLACK
6
CONTINUOUS
10
0.832582
20
-0.777574
11
0.836628
21
-0.778672
0
LINE
8
BLACK
6
CONTINUOUS
10
0.836628
20
-0.778672
11
0.838026
21
-0.779921
0
LINE
8
BLACK
6
CONTINUOUS
10
0.838026
20
-0.779921
11
0.839575
21
-0.783816
0
LINE
8
BLACK
6
CONTINUOUS
10
0.839575
20
-0.783816
11
0.839726
21
-0.786463
0
LINE
8
BLACK
6
CONTINUOUS
10
0.839726
20
-0.786463
11
0.838628
21
-0.790509
0
LINE
8
BLACK
6
CONTINUOUS
10
0.838628
20
-0.790509
11
0.833634
21
-0.796104
0
LINE
8
BLACK
6
CONTINUOUS
10
0.833634
20
-0.796104
11
0.832536
21
-0.800149
0
LINE
8
BLACK
6
CONTINUOUS
10
0.832536
20
-0.800149
11
0.832686
21
-0.802796
0
LINE
8
BLACK
6
CONTINUOUS
10
0.832686
20
-0.802796
11
0.834235
21
-0.806692
0
LINE
8
BLACK
6
CONTINUOUS
10
0.834235
20
-0.806692
11
0.83983
21
-0.811685
0
LINE
8
BLACK
6
CONTINUOUS
10
0.83983
20
-0.811685
11
0.843875
21
-0.812783
0
LINE
8
BLACK
6
CONTINUOUS
10
0.843875
20
-0.812783
11
0.846523
21
-0.812633
0
LINE
8
BLACK
6
CONTINUOUS
10
0.846523
20
-0.812633
11
0.850418
21
-0.811084
0
LINE
8
BLACK
6
CONTINUOUS
10
0.850418
20
-0.811084
11
0.855412
21
-0.80549
0
LINE
8
BLACK
6
CONTINUOUS
10
0.855412
20
-0.80549
11
0.85651
21
-0.801444
0
LINE
8
BLACK
6
CONTINUOUS
10
0.85651
20
-0.801444
11
0.856359
21
-0.798797
0
LINE
8
BLACK
6
CONTINUOUS
10
0.856359
20
-0.798797
11
0.85481
21
-0.794901
0
LINE
8
BLACK
6
CONTINUOUS
10
0.85481
20
-0.794901
11
0.849216
21
-0.789908
0
LINE
8
BLACK
6
CONTINUOUS
10
0.849216
20
-0.789908
11
0.84517
21
-0.78881
0
LINE
8
BLACK
6
CONTINUOUS
10
0.84517
20
-0.78881
11
0.842523
21
-0.78896
0
LINE
8
BLACK
6
CONTINUOUS
10
0.842523
20
-0.78896
11
0.838628
21
-0.790509
0
LINE
8
BLACK
6
CONTINUOUS
10
0.858602
20
-0.76813
11
0.854706
21
-0.769679
0
LINE
8
BLACK
6
CONTINUOUS
10
0.854706
20
-0.769679
11
0.852059
21
-0.769829
0
LINE
8
BLACK
6
CONTINUOUS
10
0.852059
20
-0.769829
11
0.848014
21
-0.768731
0
LINE
8
BLACK
6
CONTINUOUS
10
0.848014
20
-0.768731
11
0.846615
21
-0.767483
0
LINE
8
BLACK
6
CONTINUOUS
10
0.846615
20
-0.767483
11
0.845066
21
-0.763587
0
LINE
8
BLACK
6
CONTINUOUS
10
0.845066
20
-0.763587
11
0.844916
21
-0.76094
0
LINE
8
BLACK
6
CONTINUOUS
10
0.844916
20
-0.76094
11
0.846014
21
-0.756895
0
LINE
8
BLACK
6
CONTINUOUS
10
0.846014
20
-0.756895
11
0.851007
21
-0.7513
0
LINE
8
BLACK
6
CONTINUOUS
10
0.851007
20
-0.7513
11
0.854903
21
-0.749751
0
LINE
8
BLACK
6
CONTINUOUS
10
0.854903
20
-0.749751
11
0.85755
21
-0.749601
0
LINE
8
BLACK
6
CONTINUOUS
10
0.85755
20
-0.749601
11
0.861596
21
-0.750699
0
LINE
8
BLACK
6
CONTINUOUS
10
0.861596
20
-0.750699
11
0.862994
21
-0.751947
0
LINE
8
BLACK
6
CONTINUOUS
10
0.862994
20
-0.751947
11
0.864543
21
-0.755843
0
LINE
8
BLACK
6
CONTINUOUS
10
0.864543
20
-0.755843
11
0.864694
21
-0.75849
0
LINE
8
BLACK
6
CONTINUOUS
10
0.864694
20
-0.75849
11
0.863595
21
-0.762536
0
LINE
8
BLACK
6
CONTINUOUS
10
0.863595
20
-0.762536
11
0.858602
21
-0.76813
0
LINE
8
BLACK
6
CONTINUOUS
10
0.858602
20
-0.76813
11
0.857504
21
-0.772176
0
LINE
8
BLACK
6
CONTINUOUS
10
0.857504
20
-0.772176
11
0.857654
21
-0.774823
0
LINE
8
BLACK
6
CONTINUOUS
10
0.857654
20
-0.774823
11
0.859203
21
-0.778719
0
LINE
8
BLACK
6
CONTINUOUS
10
0.859203
20
-0.778719
11
0.864798
21
-0.783712
0
LINE
8
BLACK
6
CONTINUOUS
10
0.864798
20
-0.783712
11
0.868843
21
-0.78481
0
LINE
8
BLACK
6
CONTINUOUS
10
0.868843
20
-0.78481
11
0.87149
21
-0.78466
0
LINE
8
BLACK
6
CONTINUOUS
10
0.87149
20
-0.78466
11
0.875386
21
-0.783111
0
LINE
8
BLACK
6
CONTINUOUS
10
0.875386
20
-0.783111
11
0.880379
21
-0.777516
0
LINE
8
BLACK
6
CONTINUOUS
10
0.880379
20
-0.777516
11
0.881478
21
-0.773471
0
LINE
8
BLACK
6
CONTINUOUS
10
0.881478
20
-0.773471
11
0.881327
21
-0.770824
0
LINE
8
BLACK
6
CONTINUOUS
10
0.881327
20
-0.770824
11
0.879778
21
-0.766928
0
LINE
8
BLACK
6
CONTINUOUS
10
0.879778
20
-0.766928
11
0.874184
21
-0.761935
0
LINE
8
BLACK
6
CONTINUOUS
10
0.874184
20
-0.761935
11
0.870138
21
-0.760836
0
LINE
8
BLACK
6
CONTINUOUS
10
0.870138
20
-0.760836
11
0.867491
21
-0.760987
0
LINE
8
BLACK
6
CONTINUOUS
10
0.867491
20
-0.760987
11
0.863595
21
-0.762536
0
LINE
8
BLACK
6
CONTINUOUS
10
0.916583
20
-0.736955
11
0.897002
21
-0.719478
0
LINE
8
BLACK
6
CONTINUOUS
10
0.899799
20
-0.721974
11
0.899649
21
-0.719327
0
LINE
8
BLACK
6
CONTINUOUS
10
0.899649
20
-0.719327
11
0.900747
21
-0.715282
0
LINE
8
BLACK
6
CONTINUOUS
10
0.900747
20
-0.715282
11
0.904492
21
-0.711086
0
LINE
8
BLACK
6
CONTINUOUS
10
0.904492
20
-0.711086
11
0.908387
21
-0.709537
0
LINE
8
BLACK
6
CONTINUOUS
10
0.908387
20
-0.709537
11
0.912433
21
-0.710635
0
LINE
8
BLACK
6
CONTINUOUS
10
0.912433
20
-0.710635
11
0.927818
21
-0.724367
0
LINE
8
BLACK
6
CONTINUOUS
10
0.912433
20
-0.710635
11
0.910884
21
-0.706739
0
LINE
8
BLACK
6
CONTINUOUS
10
0.910884
20
-0.706739
11
0.911982
21
-0.702694
0
LINE
8
BLACK
6
CONTINUOUS
10
0.911982
20
-0.702694
11
0.915727
21
-0.698498
0
LINE
8
BLACK
6
CONTINUOUS
10
0.915727
20
-0.698498
11
0.919623
21
-0.696949
0
LINE
8
BLACK
6
CONTINUOUS
10
0.919623
20
-0.696949
11
0.923669
21
-0.698047
0
LINE
8
BLACK
6
CONTINUOUS
10
0.923669
20
-0.698047
11
0.939054
21
-0.711779
0
LINE
8
BLACK
6
CONTINUOUS
10
0.951538
20
-0.697793
11
0.931957
21
-0.680315
0
LINE
8
BLACK
6
CONTINUOUS
10
0.934754
20
-0.682812
11
0.934604
21
-0.680165
0
LINE
8
BLACK
6
CONTINUOUS
10
0.934604
20
-0.680165
11
0.935702
21
-0.676119
0
LINE
8
BLACK
6
CONTINUOUS
10
0.935702
20
-0.676119
11
0.939447
21
-0.671923
0
LINE
8
BLACK
6
CONTINUOUS
10
0.939447
20
-0.671923
11
0.943342
21
-0.670374
0
LINE
8
BLACK
6
CONTINUOUS
10
0.943342
20
-0.670374
11
0.947388
21
-0.671472
0
LINE
8
BLACK
6
CONTINUOUS
10
0.947388
20
-0.671472
11
0.962773
21
-0.685205
0
LINE
8
BLACK
6
CONTINUOUS
10
0.947388
20
-0.671472
11
0.945839
21
-0.667577
0
LINE
8
BLACK
6
CONTINUOUS
10
0.945839
20
-0.667577
11
0.946937
21
-0.663531
0
LINE
8
BLACK
6
CONTINUOUS
10
0.946937
20
-0.663531
11
0.950682
21
-0.659335
0
LINE
8
BLACK
6
CONTINUOUS
10
0.950682
20
-0.659335
11
0.954578
21
-0.657786
0
LINE
8
BLACK
6
CONTINUOUS
10
0.954578
20
-0.657786
11
0.958624
21
-0.658884
0
LINE
8
BLACK
6
CONTINUOUS
10
0.958624
20
-0.658884
11
0.974009
21
-0.672617
0
LINE
8
BLACK
6
CONTINUOUS
10
0.0146859
20
-0.485549
11
0.611724
21
-1.01844
0
LINE
8
BLACK
6
CONTINUOUS
10
0.439883
20
-0.0091711
11
1.03692
21
-0.542065
0
LINE
8
BLACK
6
CONTINUOUS
10
0.5945
20
-1.00307
11
1.0197
21
-0.526691
0
LINE
8
BLACK
6
CONTINUOUS
10
0.5945
20
-1.00307
11
1.0197
21
-0.526691
0
LINE
8
BLACK
6
CONTINUOUS
10
0.5945
20
-1.00307
11
0.641257
21
-0.985355
0
LINE
8
BLACK
6
CONTINUOUS
10
0.5945
20
-1.00307
11
0.606808
21
-0.954607
0
LINE
8
BLACK
6
CONTINUOUS
10
1.0197
20
-0.526691
11
0.97294
21
-0.544405
0
LINE
8
BLACK
6
CONTINUOUS
10
1.0197
20
-0.526691
11
1.00739
21
-0.575152
0
LINE
8
BLACK
6
CONTINUOUS
10
-0.645881
20
0.420519
11
-0.661789
21
0.404611
0
LINE
8
BLACK
6
CONTINUOUS
10
-0.653835
20
0.412565
11
-0.681674
21
0.440404
0
LINE
8
BLACK
6
CONTINUOUS
10
-0.681674
20
0.440404
11
-0.680349
21
0.433776
0
LINE
8
BLACK
6
CONTINUOUS
10
-0.680349
20
0.433776
11
-0.680349
21
0.428473
0
LINE
8
BLACK
6
CONTINUOUS
10
-0.680349
20
0.428473
11
-0.681674
21
0.424496
0
LINE
8
BLACK
6
CONTINUOUS
10
-0.649858
20
0.47222
11
-0.655161
21
0.466917
0
LINE
8
BLACK
6
CONTINUOUS
10
-0.655161
20
0.466917
11
-0.656487
21
0.46294
0
LINE
8
BLACK
6
CONTINUOUS
10
-0.656487
20
0.46294
11
-0.656487
21
0.460289
0
LINE
8
BLACK
6
CONTINUOUS
10
-0.656487
20
0.460289
11
-0.655161
21
0.453661
0
LINE
8
BLACK
6
CONTINUOUS
10
-0.655161
20
0.453661
11
-0.651184
21
0.447033
0
LINE
8
BLACK
6
CONTINUOUS
10
-0.651184
20
0.447033
11
-0.640579
21
0.436427
0
LINE
8
BLACK
6
CONTINUOUS
10
-0.640579
20
0.436427
11
-0.636602
21
0.435102
0
LINE
8
BLACK
6
CONTINUOUS
10
-0.636602
20
0.435102
11
-0.633951
21
0.435102
0
LINE
8
BLACK
6
CONTINUOUS
10
-0.633951
20
0.435102
11
-0.629974
21
0.436427
0
LINE
8
BLACK
6
CONTINUOUS
10
-0.629974
20
0.436427
11
-0.624671
21
0.44173
0
LINE
8
BLACK
6
CONTINUOUS
10
-0.624671
20
0.44173
11
-0.623345
21
0.445707
0
LINE
8
BLACK
6
CONTINUOUS
10
-0.623345
20
0.445707
11
-0.623345
21
0.448358
0
LINE
8
BLACK
6
CONTINUOUS
10
-0.623345
20
0.448358
11
-0.624671
21
0.452335
0
LINE
8
BLACK
6
CONTINUOUS
10
-0.624671
20
0.452335
11
-0.631299
21
0.458963
0
LINE
8
BLACK
6
CONTINUOUS
10
-0.631299
20
0.458963
11
-0.635276
21
0.460289
0
LINE
8
BLACK
6
CONTINUOUS
10
-0.635276
20
0.460289
11
-0.637927
21
0.460289
0
LINE
8
BLACK
6
CONTINUOUS
10
-0.637927
20
0.460289
11
-0.641904
21
0.458963
0
LINE
8
BLACK
6
CONTINUOUS
10
-0.641904
20
0.458963
11
-0.647207
21
0.453661
0
LINE
8
BLACK
6
CONTINUOUS
10
-0.647207
20
0.453661
11
-0.648533
21
0.449684
0
LINE
8
BLACK
6
CONTINUOUS
10
-0.648533
20
0.449684
11
-0.648533
21
0.447033
0
LINE
8
BLACK
6
CONTINUOUS
10
-0.648533
20
0.447033
11
-0.647207
21
0.443056
0
LINE
8
BLACK
6
CONTINUOUS
10
-0.607437
20
0.461615
11
-0.606112
21
0.460289
0
LINE
8
BLACK
6
CONTINUOUS
10
-0.606112
20
0.460289
11
-0.604786
21
0.456312
0
LINE
8
BLACK
6
CONTINUOUS
10
-0.604786
20
0.456312
11
-0.604786
21
0.453661
0
LINE
8
BLACK
6
CONTINUOUS
10
-0.592855
20
0.473546
11
-0.587552
21
0.478848
0
LINE
8
BLACK
6
CONTINUOUS
10
-0.587552
20
0.478848
11
-0.586227
21
0.482825
0
LINE
8
BLACK
6
CONTINUOUS
10
-0.586227
20
0.482825
11
-0.586227
21
0.485477
0
LINE
8
BLACK
6
CONTINUOUS
10
-0.586227
20
0.485477
11
-0.587552
21
0.492105
0
LINE
8
BLACK
6
CONTINUOUS
10
-0.587552
20
0.492105
11
-0.591529
21
0.498733
0
LINE
8
BLACK
6
CONTINUOUS
10
-0.591529
20
0.498733
11
-0.602135
21
0.509339
0
LINE
8
BLACK
6
CONTINUOUS
10
-0.602135
20
0.509339
11
-0.606112
21
0.510664
0
LINE
8
BLACK
6
CONTINUOUS
10
-0.606112
20
0.510664
11
-0.608763
21
0.510664
0
LINE
8
BLACK
6
CONTINUOUS
10
-0.608763
20
0.510664
11
-0.61274
21
0.509339
0
LINE
8
BLACK
6
CONTINUOUS
10
-0.61274
20
0.509339
11
-0.618043
21
0.504036
0
LINE
8
BLACK
6
CONTINUOUS
10
-0.618043
20
0.504036
11
-0.619368
21
0.500059
0
LINE
8
BLACK
6
CONTINUOUS
10
-0.619368
20
0.500059
11
-0.619368
21
0.497408
0
LINE
8
BLACK
6
CONTINUOUS
10
-0.619368
20
0.497408
11
-0.618043
21
0.493431
0
LINE
8
BLACK
6
CONTINUOUS
10
-0.618043
20
0.493431
11
-0.611414
21
0.486802
0
LINE
8
BLACK
6
CONTINUOUS
10
-0.611414
20
0.486802
11
-0.607437
21
0.485477
0
LINE
8
BLACK
6
CONTINUOUS
10
-0.607437
20
0.485477
11
-0.604786
21
0.485477
0
LINE
8
BLACK
6
CONTINUOUS
10
-0.604786
20
0.485477
11
-0.600809
21
0.486802
0
LINE
8
BLACK
6
CONTINUOUS
10
-0.600809
20
0.486802
11
-0.595506
21
0.492105
0
LINE
8
BLACK
6
CONTINUOUS
10
-0.595506
20
0.492105
11
-0.594181
21
0.496082
0
LINE
8
BLACK
6
CONTINUOUS
10
-0.594181
20
0.496082
11
-0.594181
21
0.498733
0
LINE
8
BLACK
6
CONTINUOUS
10
-0.594181
20
0.498733
11
-0.595506
21
0.50271
0
LINE
8
BLACK
6
CONTINUOUS
10
-0.598158
20
0.523921
11
-0.579598
21
0.54248
0
LINE
8
BLACK
6
CONTINUOUS
10
-0.579598
20
0.54248
11
-0.563691
21
0.50271
0
LINE
8
BLACK
6
CONTINUOUS
10
-0.563691
20
0.558388
11
-0.561039
21
0.561039
0
LINE
8
BLACK
6
CONTINUOUS
10
-0.561039
20
0.561039
11
-0.557062
21
0.562365
0
LINE
8
BLACK
6
CONTINUOUS
10
-0.557062
20
0.562365
11
-0.554411
21
0.562365
0
LINE
8
BLACK
6
CONTINUOUS
10
-0.554411
20
0.562365
11
-0.550434
21
0.561039
0
LINE
8
BLACK
6
CONTINUOUS
10
-0.550434
20
0.561039
11
-0.543806
21
0.557062
0
LINE
8
BLACK
6
CONTINUOUS
10
-0.543806
20
0.557062
11
-0.537177
21
0.550434
0
LINE
8
BLACK
6
CONTINUOUS
10
-0.537177
20
0.550434
11
-0.5332
21
0.543806
0
LINE
8
BLACK
6
CONTINUOUS
10
-0.5332
20
0.543806
11
-0.531875
21
0.539829
0
LINE
8
BLACK
6
CONTINUOUS
10
-0.531875
20
0.539829
11
-0.531875
21
0.537177
0
LINE
8
BLACK
6
CONTINUOUS
10
-0.531875
20
0.537177
11
-0.5332
21
0.5332
0
LINE
8
BLACK
6
CONTINUOUS
10
-0.5332
20
0.5332
11
-0.535852
21
0.530549
0
LINE
8
BLACK
6
CONTINUOUS
10
-0.535852
20
0.530549
11
-0.539829
21
0.529223
0
LINE
8
BLACK
6
CONTINUOUS
10
-0.539829
20
0.529223
11
-0.54248
21
0.529223
0
LINE
8
BLACK
6
CONTINUOUS
10
-0.54248
20
0.529223
11
-0.546457
21
0.530549
0
LINE
8
BLACK
6
CONTINUOUS
10
-0.546457
20
0.530549
11
-0.553085
21
0.534526
0
LINE
8
BLACK
6
CONTINUOUS
10
-0.553085
20
0.534526
11
-0.559714
21
0.541154
0
LINE
8
BLACK
6
CONTINUOUS
10
-0.559714
20
0.541154
11
-0.563691
21
0.547783
0
LINE
8
BLACK
6
CONTINUOUS
10
-0.563691
20
0.547783
11
-0.565016
21
0.55176
0
LINE
8
BLACK
6
CONTINUOUS
10
-0.565016
20
0.55176
11
-0.565016
21
0.554411
0
LINE
8
BLACK
6
CONTINUOUS
10
-0.565016
20
0.554411
11
-0.563691
21
0.558388
0
LINE
8
BLACK
6
CONTINUOUS
10
-0.530549
20
0.591529
11
-0.535852
21
0.586227
0
LINE
8
BLACK
6
CONTINUOUS
10
-0.535852
20
0.586227
11
-0.537177
21
0.58225
0
LINE
8
BLACK
6
CONTINUOUS
10
-0.537177
20
0.58225
11
-0.537177
21
0.579598
0
LINE
8
BLACK
6
CONTINUOUS
10
-0.537177
20
0.579598
11
-0.535852
21
0.57297
0
LINE
8
BLACK
6
CONTINUOUS
10
-0.535852
20
0.57297
11
-0.531875
21
0.566342
0
LINE
8
BLACK
6
CONTINUOUS
10
-0.531875
20
0.566342
11
-0.521269
21
0.555737
0
LINE
8
BLACK
6
CONTINUOUS
10
-0.521269
20
0.555737
11
-0.517292
21
0.554411
0
LINE
8
BLACK
6
CONTINUOUS
10
-0.517292
20
0.554411
11
-0.514641
21
0.554411
0
LINE
8
BLACK
6
CONTINUOUS
10
-0.514641
20
0.554411
11
-0.510664
21
0.555737
0
LINE
8
BLACK
6
CONTINUOUS
10
-0.510664
20
0.555737
11
-0.505362
21
0.561039
0
LINE
8
BLACK
6
CONTINUOUS
10
-0.505362
20
0.561039
11
-0.504036
21
0.565016
0
LINE
8
BLACK
6
CONTINUOUS
10
-0.504036
20
0.565016
11
-0.504036
21
0.567668
0
LINE
8
BLACK
6
CONTINUOUS
10
-0.504036
20
0.567668
11
-0.505362
21
0.571645
0
LINE
8
BLACK
6
CONTINUOUS
10
-0.505362
20
0.571645
11
-0.51199
21
0.578273
0
LINE
8
BLACK
6
CONTINUOUS
10
-0.51199
20
0.578273
11
-0.515967
21
0.579598
0
LINE
8
BLACK
6
CONTINUOUS
10
-0.515967
20
0.579598
11
-0.518618
21
0.579598
0
LINE
8
BLACK
6
CONTINUOUS
10
-0.518618
20
0.579598
11
-0.522595
21
0.578273
0
LINE
8
BLACK
6
CONTINUOUS
10
-0.522595
20
0.578273
11
-0.527898
21
0.57297
0
LINE
8
BLACK
6
CONTINUOUS
10
-0.527898
20
0.57297
11
-0.529223
21
0.568993
0
LINE
8
BLACK
6
CONTINUOUS
10
-0.529223
20
0.568993
11
-0.529223
21
0.566342
0
LINE
8
BLACK
6
CONTINUOUS
10
-0.529223
20
0.566342
11
-0.527898
21
0.562365
0
LINE
8
BLACK
6
CONTINUOUS
10
-0.466917
20
0.599483
11
-0.485477
21
0.618043
0
LINE
8
BLACK
6
CONTINUOUS
10
-0.482825
20
0.615391
11
-0.482825
21
0.618043
0
LINE
8
BLACK
6
CONTINUOUS
10
-0.482825
20
0.618043
11
-0.4815
21
0.62202
0
LINE
8
BLACK
6
CONTINUOUS
10
-0.4815
20
0.62202
11
-0.477523
21
0.625997
0
LINE
8
BLACK
6
CONTINUOUS
10
-0.477523
20
0.625997
11
-0.473546
21
0.627322
0
LINE
8
BLACK
6
CONTINUOUS
10
-0.473546
20
0.627322
11
-0.469569
21
0.625997
0
LINE
8
BLACK
6
CONTINUOUS
10
-0.469569
20
0.625997
11
-0.454986
21
0.611414
0
LINE
8
BLACK
6
CONTINUOUS
10
-0.469569
20
0.625997
11
-0.470894
21
0.629974
0
LINE
8
BLACK
6
CONTINUOUS
10
-0.470894
20
0.629974
11
-0.469569
21
0.633951
0
LINE
8
BLACK
6
CONTINUOUS
10
-0.469569
20
0.633951
11
-0.465592
21
0.637927
0
LINE
8
BLACK
6
CONTINUOUS
10
-0.465592
20
0.637927
11
-0.461615
21
0.639253
0
LINE
8
BLACK
6
CONTINUOUS
10
-0.461615
20
0.639253
11
-0.457638
21
0.637927
0
LINE
8
BLACK
6
CONTINUOUS
10
-0.457638
20
0.637927
11
-0.443056
21
0.623345
0
LINE
8
BLACK
6
CONTINUOUS
10
-0.429799
20
0.636602
11
-0.448358
21
0.655161
0
LINE
8
BLACK
6
CONTINUOUS
10
-0.445707
20
0.65251
11
-0.445707
21
0.655161
0
LINE
8
BLACK
6
CONTINUOUS
10
-0.445707
20
0.655161
11
-0.444381
21
0.659138
0
LINE
8
BLACK
6
CONTINUOUS
10
-0.444381
20
0.659138
11
-0.440404
21
0.663115
0
LINE
8
BLACK
6
CONTINUOUS
10
-0.440404
20
0.663115
11
-0.436427
21
0.664441
0
LINE
8
BLACK
6
CONTINUOUS
10
-0.436427
20
0.664441
11
-0.43245
21
0.663115
0
LINE
8
BLACK
6
CONTINUOUS
10
-0.43245
20
0.663115
11
-0.417868
21
0.648533
0
LINE
8
BLACK
6
CONTINUOUS
10
-0.43245
20
0.663115
11
-0.433776
21
0.667092
0
LINE
8
BLACK
6
CONTINUOUS
10
-0.433776
20
0.667092
11
-0.43245
21
0.671069
0
LINE
8
BLACK
6
CONTINUOUS
10
-0.43245
20
0.671069
11
-0.428473
21
0.675046
0
LINE
8
BLACK
6
CONTINUOUS
10
-0.428473
20
0.675046
11
-0.424496
21
0.676372
0
LINE
8
BLACK
6
CONTINUOUS
10
-0.424496
20
0.676372
11
-0.420519
21
0.675046
0
LINE
8
BLACK
6
CONTINUOUS
10
-0.420519
20
0.675046
11
-0.405937
21
0.660464
0
LINE
8
BLACK
6
CONTINUOUS
10
-0.48636
20
0.0139194
11
-0.766325
21
0.293884
0
LINE
8
BLACK
6
CONTINUOUS
10
-0.0139194
20
0.48636
11
-0.293884
21
0.766325
0
LINE
8
BLACK
6
CONTINUOUS
10
-0.75
20
0.277559
11
-0.277559
21
0.75
0
LINE
8
BLACK
6
CONTINUOUS
10
-0.75
20
0.277559
11
-0.277559
21
0.75
0
LINE
8
BLACK
6
CONTINUOUS
10
-0.75
20
0.277559
11
-0.702314
21
0.292594
0
LINE
8
BLACK
6
CONTINUOUS
10
-0.75
20
0.277559
11
-0.734965
21
0.325245
0
LINE
8
BLACK
6
CONTINUOUS
10
-0.277559
20
0.75
11
-0.325245
21
0.734965
0
LINE
8
BLACK
6
CONTINUOUS
10
-0.277559
20
0.75
11
-0.292594
21
0.702314
0
LINE
8
BLACK
6
CONTINUOUS
10
-0.675006
20
-0.449644
11
-0.690914
21
-0.433736
0
LINE
8
BLACK
6
CONTINUOUS
10
-0.68296
20
-0.44169
11
-0.655121
21
-0.413851
0
LINE
8
BLACK
6
CONTINUOUS
10
-0.655121
20
-0.413851
11
-0.661749
21
-0.415177
0
LINE
8
BLACK
6
CONTINUOUS
10
-0.661749
20
-0.415177
11
-0.667052
21
-0.415177
0
LINE
8
BLACK
6
CONTINUOUS
10
-0.667052
20
-0.415177
11
-0.671029
21
-0.413851
0
LINE
8
BLACK
6
CONTINUOUS
10
-0.623305
20
-0.445667
11
-0.628608
21
-0.440364
0
LINE
8
BLACK
6
CONTINUOUS
10
-0.628608
20
-0.440364
11
-0.632585
21
-0.439039
0
LINE
8
BLACK
6
CONTINUOUS
10
-0.632585
20
-0.439039
11
-0.635236
21
-0.439039
0
LINE
8
BLACK
6
CONTINUOUS
10
-0.635236
20
-0.439039
11
-0.641864
21
-0.440364
0
LINE
8
BLACK
6
CONTINUOUS
10
-0.641864
20
-0.440364
11
-0.648493
21
-0.444341
0
LINE
8
BLACK
6
CONTINUOUS
10
-0.648493
20
-0.444341
11
-0.659098
21
-0.454946
0
LINE
8
BLACK
6
CONTINUOUS
10
-0.659098
20
-0.454946
11
-0.660424
21
-0.458923
0
LINE
8
BLACK
6
CONTINUOUS
10
-0.660424
20
-0.458923
11
-0.660424
21
-0.461575
0
LINE
8
BLACK
6
CONTINUOUS
10
-0.660424
20
-0.461575
11
-0.659098
21
-0.465552
0
LINE
8
BLACK
6
CONTINUOUS
10
-0.659098
20
-0.465552
11
-0.653795
21
-0.470854
0
LINE
8
BLACK
6
CONTINUOUS
10
-0.653795
20
-0.470854
11
-0.649818
21
-0.47218
0
LINE
8
BLACK
6
CONTINUOUS
10
-0.649818
20
-0.47218
11
-0.647167
21
-0.47218
0
LINE
8
BLACK
6
CONTINUOUS
10
-0.647167
20
-0.47218
11
-0.64319
21
-0.470854
0
LINE
8
BLACK
6
CONTINUOUS
10
-0.64319
20
-0.470854
11
-0.636562
21
-0.464226
0
LINE
8
BLACK
6
CONTINUOUS
10
-0.636562
20
-0.464226
11
-0.635236
21
-0.460249
0
LINE
8
BLACK
6
CONTINUOUS
10
-0.635236
20
-0.460249
11
-0.635236
21
-0.457598
0
LINE
8
BLACK
6
CONTINUOUS
10
-0.635236
20
-0.457598
11
-0.636562
21
-0.453621
0
LINE
8
BLACK
6
CONTINUOUS
10
-0.636562
20
-0.453621
11
-0.641864
21
-0.448318
0
LINE
8
BLACK
6
CONTINUOUS
10
-0.641864
20
-0.448318
11
-0.645841
21
-0.446993
0
LINE
8
BLACK
6
CONTINUOUS
10
-0.645841
20
-0.446993
11
-0.648493
21
-0.446993
0
LINE
8
BLACK
6
CONTINUOUS
10
-0.648493
20
-0.446993
11
-0.65247
21
-0.448318
0
LINE
8
BLACK
6
CONTINUOUS
10
-0.633911
20
-0.488088
11
-0.635236
21
-0.489414
0
LINE
8
BLACK
6
CONTINUOUS
10
-0.635236
20
-0.489414
11
-0.639213
21
-0.490739
0
LINE
8
BLACK
6
CONTINUOUS
10
-0.639213
20
-0.490739
11
-0.641864
21
-0.490739
0
LINE
8
BLACK
6
CONTINUOUS
10
-0.62198
20
-0.50267
11
-0.616677
21
-0.507973
0
LINE
8
BLACK
6
CONTINUOUS
10
-0.616677
20
-0.507973
11
-0.6127
21
-0.509299
0
LINE
8
BLACK
6
CONTINUOUS
10
-0.6127
20
-0.509299
11
-0.610049
21
-0.509299
0
LINE
8
BLACK
6
CONTINUOUS
10
-0.610049
20
-0.509299
11
-0.60342
21
-0.507973
0
LINE
8
BLACK
6
CONTINUOUS
10
-0.60342
20
-0.507973
11
-0.596792
21
-0.503996
0
LINE
8
BLACK
6
CONTINUOUS
10
-0.596792
20
-0.503996
11
-0.586187
21
-0.493391
0
LINE
8
BLACK
6
CONTINUOUS
10
-0.586187
20
-0.493391
11
-0.584861
21
-0.489414
0
LINE
8
BLACK
6
CONTINUOUS
10
-0.584861
20
-0.489414
11
-0.584861
21
-0.486762
0
LINE
8
BLACK
6
CONTINUOUS
10
-0.584861
20
-0.486762
11
-0.586187
21
-0.482785
0
LINE
8
BLACK
6
CONTINUOUS
10
-0.586187
20
-0.482785
11
-0.591489
21
-0.477483
0
LINE
8
BLACK
6
CONTINUOUS
10
-0.591489
20
-0.477483
11
-0.595466
21
-0.476157
0
LINE
8
BLACK
6
CONTINUOUS
10
-0.595466
20
-0.476157
11
-0.598118
21
-0.476157
0
LINE
8
BLACK
6
CONTINUOUS
10
-0.598118
20
-0.476157
11
-0.602095
21
-0.477483
0
LINE
8
BLACK
6
CONTINUOUS
10
-0.602095
20
-0.477483
11
-0.608723
21
-0.484111
0
LINE
8
BLACK
6
CONTINUOUS
10
-0.608723
20
-0.484111
11
-0.610049
21
-0.488088
0
LINE
8
BLACK
6
CONTINUOUS
10
-0.610049
20
-0.488088
11
-0.610049
21
-0.490739
0
LINE
8
BLACK
6
CONTINUOUS
10
-0.610049
20
-0.490739
11
-0.608723
21
-0.494716
0
LINE
8
BLACK
6
CONTINUOUS
10
-0.608723
20
-0.494716
11
-0.60342
21
-0.500019
0
LINE
8
BLACK
6
CONTINUOUS
10
-0.60342
20
-0.500019
11
-0.599443
21
-0.501345
0
LINE
8
BLACK
6
CONTINUOUS
10
-0.599443
20
-0.501345
11
-0.596792
21
-0.501345
0
LINE
8
BLACK
6
CONTINUOUS
10
-0.596792
20
-0.501345
11
-0.592815
21
-0.500019
0
LINE
8
BLACK
6
CONTINUOUS
10
-0.571605
20
-0.497368
11
-0.553045
21
-0.515927
0
LINE
8
BLACK
6
CONTINUOUS
10
-0.553045
20
-0.515927
11
-0.592815
21
-0.531835
0
LINE
8
BLACK
6
CONTINUOUS
10
-0.537137
20
-0.531835
11
-0.534486
21
-0.534486
0
LINE
8
BLACK
6
CONTINUOUS
10
-0.534486
20
-0.534486
11
-0.53316
21
-0.538463
0
LINE
8
BLACK
6
CONTINUOUS
10
-0.53316
20
-0.538463
11
-0.53316
21
-0.541114
0
LINE
8
BLACK
6
CONTINUOUS
10
-0.53316
20
-0.541114
11
-0.534486
21
-0.545091
0
LINE
8
BLACK
6
CONTINUOUS
10
-0.534486
20
-0.545091
11
-0.538463
21
-0.55172
0
LINE
8
BLACK
6
CONTINUOUS
10
-0.538463
20
-0.55172
11
-0.545091
21
-0.558348
0
LINE
8
BLACK
6
CONTINUOUS
10
-0.545091
20
-0.558348
11
-0.55172
21
-0.562325
0
LINE
8
BLACK
6
CONTINUOUS
10
-0.55172
20
-0.562325
11
-0.555697
21
-0.563651
0
LINE
8
BLACK
6
CONTINUOUS
10
-0.555697
20
-0.563651
11
-0.558348
21
-0.563651
0
LINE
8
BLACK
6
CONTINUOUS
10
-0.558348
20
-0.563651
11
-0.562325
21
-0.562325
0
LINE
8
BLACK
6
CONTINUOUS
10
-0.562325
20
-0.562325
11
-0.564976
21
-0.559674
0
LINE
8
BLACK
6
CONTINUOUS
10
-0.564976
20
-0.559674
11
-0.566302
21
-0.555697
0
LINE
8
BLACK
6
CONTINUOUS
10
-0.566302
20
-0.555697
11
-0.566302
21
-0.553045
0
LINE
8
BLACK
6
CONTINUOUS
10
-0.566302
20
-0.553045
11
-0.564976
21
-0.549068
0
LINE
8
BLACK
6
CONTINUOUS
10
-0.564976
20
-0.549068
11
-0.560999
21
-0.54244
0
LINE
8
BLACK
6
CONTINUOUS
10
-0.560999
20
-0.54244
11
-0.554371
21
-0.535812
0
LINE
8
BLACK
6
CONTINUOUS
10
-0.554371
20
-0.535812
11
-0.547743
21
-0.531835
0
LINE
8
BLACK
6
CONTINUOUS
10
-0.547743
20
-0.531835
11
-0.543766
21
-0.530509
0
LINE
8
BLACK
6
CONTINUOUS
10
-0.543766
20
-0.530509
11
-0.541114
21
-0.530509
0
LINE
8
BLACK
6
CONTINUOUS
10
-0.541114
20
-0.530509
11
-0.537137
21
-0.531835
0
LINE
8
BLACK
6
CONTINUOUS
10
-0.503996
20
-0.564976
11
-0.509299
21
-0.559674
0
LINE
8
BLACK
6
CONTINUOUS
10
-0.509299
20
-0.559674
11
-0.513276
21
-0.558348
0
LINE
8
BLACK
6
CONTINUOUS
10
-0.513276
20
-0.558348
11
-0.515927
21
-0.558348
0
LINE
8
BLACK
6
CONTINUOUS
10
-0.515927
20
-0.558348
11
-0.522555
21
-0.559674
0
LINE
8
BLACK
6
CONTINUOUS
10
-0.522555
20
-0.559674
11
-0.529183
21
-0.563651
0
LINE
8
BLACK
6
CONTINUOUS
10
-0.529183
20
-0.563651
11
-0.539789
21
-0.574256
0
LINE
8
BLACK
6
CONTINUOUS
10
-0.539789
20
-0.574256
11
-0.541114
21
-0.578233
0
LINE
8
BLACK
6
CONTINUOUS
10
-0.541114
20
-0.578233
11
-0.541114
21
-0.580884
0
LINE
8
BLACK
6
CONTINUOUS
10
-0.541114
20
-0.580884
11
-0.539789
21
-0.584861
0
LINE
8
BLACK
6
CONTINUOUS
10
-0.539789
20
-0.584861
11
-0.534486
21
-0.590164
0
LINE
8
BLACK
6
CONTINUOUS
10
-0.534486
20
-0.590164
11
-0.530509
21
-0.591489
0
LINE
8
BLACK
6
CONTINUOUS
10
-0.530509
20
-0.591489
11
-0.527858
21
-0.591489
0
LINE
8
BLACK
6
CONTINUOUS
10
-0.527858
20
-0.591489
11
-0.523881
21
-0.590164
0
LINE
8
BLACK
6
CONTINUOUS
10
-0.523881
20
-0.590164
11
-0.517253
21
-0.583535
0
LINE
8
BLACK
6
CONTINUOUS
10
-0.517253
20
-0.583535
11
-0.515927
21
-0.579558
0
LINE
8
BLACK
6
CONTINUOUS
10
-0.515927
20
-0.579558
11
-0.515927
21
-0.576907
0
LINE
8
BLACK
6
CONTINUOUS
10
-0.515927
20
-0.576907
11
-0.517253
21
-0.57293
0
LINE
8
BLACK
6
CONTINUOUS
10
-0.517253
20
-0.57293
11
-0.522555
21
-0.567628
0
LINE
8
BLACK
6
CONTINUOUS
10
-0.522555
20
-0.567628
11
-0.526532
21
-0.566302
0
LINE
8
BLACK
6
CONTINUOUS
10
-0.526532
20
-0.566302
11
-0.529183
21
-0.566302
0
LINE
8
BLACK
6
CONTINUOUS
10
-0.529183
20
-0.566302
11
-0.53316
21
-0.567628
0
LINE
8
BLACK
6
CONTINUOUS
10
-0.496042
20
-0.628608
11
-0.477483
21
-0.610049
0
LINE
8
BLACK
6
CONTINUOUS
10
-0.480134
20
-0.6127
11
-0.477483
21
-0.6127
0
LINE
8
BLACK
6
CONTINUOUS
10
-0.477483
20
-0.6127
11
-0.473506
21
-0.614026
0
LINE
8
BLACK
6
CONTINUOUS
10
-0.473506
20
-0.614026
11
-0.469529
21
-0.618003
0
LINE
8
BLACK
6
CONTINUOUS
10
-0.469529
20
-0.618003
11
-0.468203
21
-0.62198
0
LINE
8
BLACK
6
CONTINUOUS
10
-0.468203
20
-0.62198
11
-0.469529
21
-0.625957
0
LINE
8
BLACK
6
CONTINUOUS
10
-0.469529
20
-0.625957
11
-0.484111
21
-0.640539
0
LINE
8
BLACK
6
CONTINUOUS
10
-0.469529
20
-0.625957
11
-0.465552
21
-0.624631
0
LINE
8
BLACK
6
CONTINUOUS
10
-0.465552
20
-0.624631
11
-0.461575
21
-0.625957
0
LINE
8
BLACK
6
CONTINUOUS
10
-0.461575
20
-0.625957
11
-0.457598
21
-0.629934
0
LINE
8
BLACK
6
CONTINUOUS
10
-0.457598
20
-0.629934
11
-0.456272
21
-0.633911
0
LINE
8
BLACK
6
CONTINUOUS
10
-0.456272
20
-0.633911
11
-0.457598
21
-0.637887
0
LINE
8
BLACK
6
CONTINUOUS
10
-0.457598
20
-0.637887
11
-0.47218
21
-0.65247
0
LINE
8
BLACK
6
CONTINUOUS
10
-0.458924
20
-0.665726
11
-0.440364
21
-0.647167
0
LINE
8
BLACK
6
CONTINUOUS
10
-0.443016
20
-0.649818
11
-0.440364
21
-0.649818
0
LINE
8
BLACK
6
CONTINUOUS
10
-0.440364
20
-0.649818
11
-0.436387
21
-0.651144
0
LINE
8
BLACK
6
CONTINUOUS
10
-0.436387
20
-0.651144
11
-0.43241
21
-0.655121
0
LINE
8
BLACK
6
CONTINUOUS
10
-0.43241
20
-0.655121
11
-0.431085
21
-0.659098
0
LINE
8
BLACK
6
CONTINUOUS
10
-0.431085
20
-0.659098
11
-0.43241
21
-0.663075
0
LINE
8
BLACK
6
CONTINUOUS
10
-0.43241
20
-0.663075
11
-0.446993
21
-0.677657
0
LINE
8
BLACK
6
CONTINUOUS
10
-0.43241
20
-0.663075
11
-0.428433
21
-0.661749
0
LINE
8
BLACK
6
CONTINUOUS
10
-0.428433
20
-0.661749
11
-0.424456
21
-0.663075
0
LINE
8
BLACK
6
CONTINUOUS
10
-0.424456
20
-0.663075
11
-0.420479
21
-0.667052
0
LINE
8
BLACK
6
CONTINUOUS
10
-0.420479
20
-0.667052
11
-0.419154
21
-0.671029
0
LINE
8
BLACK
6
CONTINUOUS
10
-0.419154
20
-0.671029
11
-0.420479
21
-0.675006
0
LINE
8
BLACK
6
CONTINUOUS
10
-0.420479
20
-0.675006
11
-0.435062
21
-0.689588
0
LINE
8
BLACK
6
CONTINUOUS
10
-0.48636
20
-0.0139194
11
-0.770262
21
-0.297821
0
LINE
8
BLACK
6
CONTINUOUS
10
-0.0139194
20
-0.48636
11
-0.297821
21
-0.770262
0
LINE
8
BLACK
6
CONTINUOUS
10
-0.753937
20
-0.281496
11
-0.281496
21
-0.753937
0
LINE
8
BLACK
6
CONTINUOUS
10
-0.753937
20
-0.281496
11
-0.281496
21
-0.753937
0
LINE
8
BLACK
6
CONTINUOUS
10
-0.753937
20
-0.281496
11
-0.738902
21
-0.329182
0
LINE
8
BLACK
6
CONTINUOUS
10
-0.753937
20
-0.281496
11
-0.706251
21
-0.296531
0
LINE
8
BLACK
6
CONTINUOUS
10
-0.281496
20
-0.753937
11
-0.296531
21
-0.706251
0
LINE
8
BLACK
6
CONTINUOUS
10
-0.281496
20
-0.753937
11
-0.329182
21
-0.738902
0
CIRCLE
8
BLACK
10
-0.472441
20
0
40
0.125984
0
CIRCLE
8
BLACK
10
0
20
-0.472441
40
0.125984
0
CIRCLE
8
BLACK
10
-0.177165
20
0.220472
40
0.0866142
0
CIRCLE
8
BLACK
10
0
20
0.472441
40
0.125984
0
CIRCLE
8
BLACK
10
0.177165
20
-0.212598
40
0.0866142
0
CIRCLE
8
BLACK
10
-0.177165
20
-0.212598
40
0.0866142
0
CIRCLE
8
BLACK
10
0.177165
20
0.220472
40
0.0866142
  0
ENDSEC
  0
EOF
